<?xml version="1.0" encoding="utf-8" ?>
<svg baseProfile="full" height="300mm" version="1.1" viewBox="0,0,200,300" width="200mm" xmlns="http://www.w3.org/2000/svg" xmlns:ev="http://www.w3.org/2001/xml-events" xmlns:xlink="http://www.w3.org/1999/xlink"><defs /><rect fill="#222222" height="300" width="200" x="0" y="0" /><text fill="#FFFFFF" style="font-size:12px; font-family:Arial; font-weight:bold;" x="10" y="20">Over 10km Workouts</text><text fill="#FFFFFF" style="font-size:4px; font-family:Arial" x="10" y="280">Runner</text><text fill="#FFFFFF" style="font-size:9px; font-family:Arial" x="10" y="290">Jeffg121</text><text fill="#FFFFFF" style="font-size:4px; font-family:Arial" x="65" y="280">SPECIAL TRACKS</text><rect fill="yellow" height="2.6" width="2.6" x="65" y="283" /><text fill="#FFFFFF" style="font-size:3px; font-family:Arial" x="70" y="285.5">Over 20.0 km</text><rect fill="red" height="2.6" width="2.6" x="65" y="287" /><text fill="#FFFFFF" style="font-size:3px; font-family:Arial" x="70" y="289.5">Over 40.0 km</text><text fill="#FFFFFF" style="font-size:4px; font-family:Arial" x="120" y="280">STATISTICS</text><text fill="#FFFFFF" style="font-size:3px; font-family:Arial" x="120" y="285">Number: 1</text><text fill="#FFFFFF" style="font-size:3px; font-family:Arial" x="120" y="290">Weekly: 1.0</text><text fill="#FFFFFF" style="font-size:3px; font-family:Arial" x="141" y="285">Total: 43.4 km</text><text fill="#FFFFFF" style="font-size:3px; font-family:Arial" x="141" y="290">Avg: 43.4 km</text><text fill="#FFFFFF" style="font-size:3px; font-family:Arial" x="167" y="285">Min: 43.4 km</text><text fill="#FFFFFF" style="font-size:3px; font-family:Arial" x="167" y="290">Max: 43.4 km</text><polyline fill="none" points="121.72095972354873,69.0 122.45938664386631,70.13643779311678 123.11210329667665,71.64408593898406 123.10551019915147,71.65166198545921 123.93624048453057,71.48498878985993 125.72956300532678,69.0606104408289 125.64385273779044,73.37898104613123 122.28137301129755,76.3562423188414 121.6945873335062,75.8638279476072 122.20225584122818,74.96232267608866 121.22647741081892,75.7880716099171 120.56057456301642,73.38655692121392 120.55398146552034,72.3335031044553 120.1320232253056,73.31079813654651 119.22876886738231,73.62898452929221 118.85955540725263,74.57596003017534 118.54967982461676,75.23504807782592 118.13431468192721,76.25775969750975 117.43544634661521,77.43954280808975 116.92777783889323,78.94704740041198 115.94540631092968,79.43186670184514 115.38499302318087,80.7954045597944 115.15423461055616,81.68926622628351 114.54766964030568,83.1663876801831 114.25757335018716,83.83297676707298 113.32794660225045,83.83297676707298 112.99169862960116,84.57530779794615 112.07525807668571,84.81012530226872 111.6796722265135,85.34793042692763 111.26430708382395,86.05237369050155 110.90827981865732,86.50684978326899 110.62477662603487,87.446091845115 110.43357679844485,88.14294142986182 110.53906635852763,88.49136384922895 110.53906635852763,89.69568133208668 110.11051502081682,90.69547771495854 109.2204468579148,91.09690744638647 108.57432330260053,92.64201361103187 107.50624150712974,93.76295351665613 106.89967653687927,95.33072714151785 106.64254573424114,96.08809423336788 106.43156661413377,97.51192413712852 106.0557600564789,98.26169629081414 105.9238981064118,100.10201507786405 105.37667101365514,101.45003953167907 104.69758197086048,102.09375072483817 105.17228499107296,102.91920776930783 105.60083632878377,103.68407288965682 105.55468464625301,104.65339595767 104.11079629312735,106.75102977015922 104.06464461056748,108.5002762488948 102.8317353775492,109.03791543029365 102.20539111475227,110.26462735961832 102.74602511001285,110.74167670767929 102.3306599673233,113.62662629407714 100.2999859363772,117.57905848809605 99.93736557374359,118.88134793099016 99.0670767033298,119.92619210621342 98.56600129313301,121.1678725060774 99.84506220871117,126.09654011499515 100.7680958591227,128.35256822013616 101.12412312428933,129.35943187553494 102.67350103743956,129.26101721257874 104.11738939062343,129.6546751083515 105.4557881836954,130.6842323815581 104.88878179845051,131.41097038996668 104.45363736327272,132.1074212011299 103.39214866529801,134.48439058611984 103.71521044292604,135.10511571251845 103.28006600774825,135.99834551465756 102.77899059749325,136.62662805728178 102.9635973276163,136.86128648533486 103.01634210761404,137.36087946281623 102.38999784484622,137.26247504216008 101.79002597206272,137.80748255851358 101.4669641944347,138.70825040201453 101.58563994945143,139.49546744001418 101.03841285672388,140.59301620616316 100.72853727408801,142.06143626401172 101.10434383177198,143.59037993158563 102.05374987216783,143.22706933798327 102.14605323720025,144.10506700142287 101.86914314210298,145.03603633443709 102.34384616231546,145.36906327811448 102.91085254756035,146.300017312431 103.55038300534943,146.9282157005291 104.03167912308709,147.93483615572768 104.55253382580122,148.0483639519225 105.67995349879493,148.4116517738221 106.08213244649232,148.8203485227641 106.58320785671822,150.0994039470097 106.95242131687701,151.11355112100864 106.62935953924898,152.06714000022475 106.98538680441561,152.19579791236174 107.7567792122718,152.40013650710898 108.23148223245516,152.35472797740658 108.79848861772916,152.71042740952544 109.39846049045445,153.56561293188133 109.46439146553166,153.84562736468797 109.43801907548914,154.71593598807522 109.36549500297406,155.69975127439102 108.74574383767322,156.51706517769344 108.73255764271016,157.73545219565858 108.89738508025766,159.01435943249817 108.40949586505303,159.9754177485229 109.07539871285553,160.709446331668 109.3193433204433,160.81538802331488 109.24022615043214,161.40563192144327 107.75018611474661,162.63150863175542 103.58994159041322,164.18274438587832 103.31962459275383,164.1903113129447 103.45807964031701,166.2484878572359 102.73943201251677,165.75664920152485 101.48015038942685,165.19670598374069 100.41206859392696,165.51451209364313 99.97692415874917,166.47548925386945 101.5658606569632,169.43401291415648 102.58119767240714,170.954846564513 104.90196799347177,175.20696831610985 105.55468464625301,176.78821348994825 105.17887808859814,177.78687792535493 104.67780267837225,178.89901171602833 103.81410690548364,179.9581718256377 104.38111329069943,179.54207494810544 103.48445203033043,178.58882635522605 102.93722493757377,179.37563556768873 101.42740560940001,180.48018109321856 100.48459266650025,181.6074064297136 99.33739370096009,183.39277656548802 98.01877420037636,184.61073838239827 97.68252622772707,185.85894014193764 97.39242993757944,187.84845629448682 97.45176781510236,189.4899575595773 98.57259439062909,190.57166508537193 98.69127014567493,191.70630701215123 98.94180785078788,193.67298011215462 99.08685599584715,194.7395010748005 98.27590500298538,197.5381029317141 97.86713295779191,199.31554053917353 96.9045407223748,199.6861500255909 96.2716033620818,199.29285010457534 96.03425185196102,198.4306086405777 95.4079075891932,198.84660353344225 95.0057286414958,199.36848486061353 94.76837713140412,199.34579444159317 94.36619818370673,199.62564247604314 94.40575676874141,200.3214764285076 94.30686030621291,201.35008902756817 94.1420328686072,202.32574564856623 93.97061233353452,203.30895300853444 93.89808826099033,205.26020432880614 93.85193657851778,206.53832280786446 93.15966134067276,207.34753479764186 92.98824080560007,208.35336590080988 92.90912363558891,209.51799605173437 92.35530344530707,210.14567903391435 92.03224166767905,210.34986396304157 91.60369032996823,210.6901709769445 91.02349774970207,210.6901709769445 90.4828637544706,211.7110830092497 90.43671207196894,212.61098685393517 90.06749861178105,213.06471590331785 88.82140318371239,213.19327198203973 88.66316884366097,214.28220899603184 88.63679645364755,215.1064635968869 88.16868653093115,216.91374331635598 87.33136314805597,217.78333980901516 87.19950119798887,218.25216167729377 86.43470188762876,218.1916686931072 85.78198523484753,218.04799766548967 84.94466185200145,217.7379697995857 84.14689705413184,217.6850380882097 84.1930487366335,215.76434856340347 83.67878713141545,214.82667173817026 83.50736659634276,214.16877877432853 83.2963874762645,213.4352593137155 82.9601395035861,212.6336733697899 82.7953120660095,212.30849933813442 81.62833380798111,212.2933749311851 80.5338796224969,212.35387254111993 79.76248721464071,212.44461886703357 77.38897211360745,211.03803881692875 76.73625546079711,210.74310748859716 76.09013190551195,211.94551275323465 75.12094657254056,214.0931585338767 74.42207823725767,216.36173350002355 74.61327806484769,216.97423730266019 74.2770300921693,217.17084243048885 74.92974674497964,217.85139477311895 75.93189756543143,219.46957290164573 76.3077041230863,218.887335147665 76.45275226817466,220.0820520304842 76.49231085315114,220.5886668949388 77.35600662606885,222.28996112718596 78.81967427174095,223.8475576199271 79.08999126934214,224.2558544121057 78.79989497922361,222.4865527095535 79.42623924199142,221.07259440529742 79.92072155472124,221.10283977394283 80.6987070600735,222.04044032057573 80.82397591264453,224.39951388073678 80.48113484247006,225.04975865705637 80.78441732760984,225.07244151548366 81.12725839778432,224.78512481624784 81.27230654284358,224.90610039894818 83.2963874762645,223.9004851037389 85.81495072235703,225.36731806812168 89.63235417657415,226.31242763097544 91.67621440251241,227.54483311405784 92.30915176280541,227.7262899279449 93.57502648336231,228.9359911179272 96.06062424197444,230.68246376445313 95.95513468194986,230.4934534802378" stroke="red" stroke-linecap="round" stroke-linejoin="round" stroke-width="0.5"><title>2024-06-23 43.4km</title><desc>1719099119000</desc></polyline></svg>