<?xml version="1.0" encoding="utf-8" ?>
<svg baseProfile="full" height="300mm" version="1.1" viewBox="0,0,200,300" width="200mm" xmlns="http://www.w3.org/2000/svg" xmlns:ev="http://www.w3.org/2001/xml-events" xmlns:xlink="http://www.w3.org/1999/xlink"><defs /><rect fill="#222222" height="300" width="200" x="0" y="0" /><text fill="#FFFFFF" style="font-size:12px; font-family:Arial; font-weight:bold;" x="10" y="20">Over 10km Workouts</text><text fill="#FFFFFF" style="font-size:4px; font-family:Arial" x="10" y="280">Runner</text><text fill="#FFFFFF" style="font-size:9px; font-family:Arial" x="10" y="290">Jeffg121</text><text fill="#FFFFFF" style="font-size:4px; font-family:Arial" x="65" y="280">SPECIAL TRACKS</text><rect fill="yellow" height="2.6" width="2.6" x="65" y="283" /><text fill="#FFFFFF" style="font-size:3px; font-family:Arial" x="70" y="285.5">Over 20.0 km</text><rect fill="red" height="2.6" width="2.6" x="65" y="287" /><text fill="#FFFFFF" style="font-size:3px; font-family:Arial" x="70" y="289.5">Over 40.0 km</text><text fill="#FFFFFF" style="font-size:4px; font-family:Arial" x="120" y="280">STATISTICS</text><text fill="#FFFFFF" style="font-size:3px; font-family:Arial" x="120" y="285">Number: 2</text><text fill="#FFFFFF" style="font-size:3px; font-family:Arial" x="120" y="290">Weekly: 1.0</text><text fill="#FFFFFF" style="font-size:3px; font-family:Arial" x="141" y="285">Total: 85.8 km</text><text fill="#FFFFFF" style="font-size:3px; font-family:Arial" x="141" y="290">Avg: 42.9 km</text><text fill="#FFFFFF" style="font-size:3px; font-family:Arial" x="167" y="285">Min: 42.4 km</text><text fill="#FFFFFF" style="font-size:3px; font-family:Arial" x="167" y="290">Max: 43.4 km</text><polyline fill="none" points="114.4806398156943,36.0 114.97292442923936,36.75762519541604 115.40806886444625,37.76272395932756 115.40367346609128,37.767774656975234 115.95749365635857,37.65665919323874 117.15304200355604,36.04040696055381 117.09590182518878,38.919320697423245 114.85424867419351,40.90416154589548 114.46305822233262,40.57588529840723 114.80150389415212,39.97488178405911 114.15098494052654,40.525381073282915 113.70704970866791,38.92437128081292 113.70265431034204,38.2223354029702 113.4213488168607,38.87386542436798 112.81917924492154,39.08598968619481 112.57303693816357,39.7173066867872 112.36645321639662,40.15669871855425 112.08954312127025,40.83850646501014 111.62363089773862,41.6263618720659 111.28518522591912,42.63136493361162 110.63027087395312,42.95457780123252 110.25666201545391,43.863603039866575 110.10282307371381,44.45951081752355 109.69844642686076,45.444258453455404 109.50504890011507,45.88865117805108 108.88529773481423,45.88865117805108 108.66113241972926,46.38353853196895 108.05017205112381,46.5400835348446 107.78644815100415,46.898620284624485 107.50953805587778,47.368249127004674 107.27218654577155,47.67123318884842 107.08318441735173,48.29739456341122 106.95571786562505,48.76196095324485 107.02604423899902,48.99424256615748 107.02604423899902,49.797120888059 106.74034334720636,50.463651809976 106.1469645719335,50.73127163092431 105.71621553506702,51.761342407357006 105.00416100474831,52.5086356777756 104.59978435790981,53.553818094344024 104.42836382282258,54.05872948891192 104.28771107608918,55.00794942475113 104.03717337097623,55.50779752721064 103.94926540426968,56.734676718580886 103.58444734243676,57.63335968778847 103.13172131391184,58.06250048322909 103.44818999404379,58.61280517954219 103.733890885851,59.12271525977485 103.70312309749715,59.768930638445454 102.74053086208005,61.167353180109785 102.70976307371166,62.33351749926442 101.88782358502795,62.69194362020062 101.47026074315363,63.5097515730813 101.83068340666068,63.82778447178862 101.55377331154887,65.75108419605385 100.19999062425632,68.38603899206282 99.95824371582421,69.25423195399344 99.3780511355435,69.95079473748046 99.04400086207897,70.7785816707219 99.89670813913108,74.06436007666707 100.51206390607695,75.56837881343017 100.74941541618318,76.23962125035905 101.78233402495971,76.17401147505734 102.74492626040592,76.43645007223677 103.6371921224636,77.1228215877054 103.25918786562397,77.60731359331476 102.96909157550544,78.07161413408903 102.2614324435126,79.65626039075141 102.47680696196039,80.0700771416814 102.18671067181276,80.6655636764408 101.85266039833368,81.08441870485694 101.9757315517345,81.24085765688869 102.01089473839966,81.57391964188355 101.59333189655445,81.50831669477702 101.19335064802726,81.8716550390127 100.97797612960858,82.47216693467635 101.05709329963429,82.996978293344 100.69227523780137,83.72867747077908 100.48569151606353,84.70762417601145 100.73622922117647,85.72691995439527 101.36916658144037,85.48471289199006 101.4307021581335,86.0700446676201 101.2460954280541,86.69069088962351 101.56256410821516,86.91270885207632 101.94056836504024,87.53334487495522 102.36692200356629,87.95214380035395 102.68778608203866,88.62322410381967 103.03502255052445,88.69890930128167 103.78663566586329,88.94110118255048 104.05475496432337,89.21356568184638 104.38880523780244,90.06626929801132 104.63494754458952,90.74236741400819 104.41957302617084,91.37809333348196 104.65692453626252,91.46386527491268 105.17118614150968,91.60009100474053 105.48765482164163,91.56981865160924 105.86565907848126,91.80695160635514 106.26564032697934,92.37707528792089 106.30959431033989,92.56375157646107 106.29201271699276,93.14395732538833 106.24366333530634,93.79983418292977 105.830495891787,94.34471011846108 105.8217050951207,95.15696813044269 105.93159005350026,96.00957295500484 105.60633057668747,96.65027849901526 106.0502658085752,97.1396308877811 106.2128955469525,97.21025868221113 106.1601507669402,97.60375461429794 105.1667907431547,98.42100575450604 102.39329439359426,99.4551629239213 102.21308306184073,99.46020754196797 102.30538642687316,100.83232523815968 101.82628800833481,100.504432801019 100.98676692628942,100.13113732249622 100.27471239595616,100.34300806243118 99.98461610583763,100.98365950258085 101.04390710462758,102.95600860943887 101.72079844826658,103.96989770967775 103.26797866231936,106.80464554407808 103.70312309749715,107.85880899330004 103.45258539238421,108.52458528357602 103.11853511891968,109.26600781068555 102.54273793697939,109.97211455042634 102.92074219380447,109.6947166320715 102.32296802020574,109.05921757015312 101.95814995837281,109.58375704512582 100.95160373959516,110.3201207288148 100.32306177765713,111.07160428648058 99.55826246731158,112.26185104365868 98.67918280024605,113.07382558826794 98.45501748514653,113.90596009462752 98.26161995837174,115.23230419632819 98.30117854340642,116.32663837305154 99.04839626040484,117.04777672358614 99.12751343043055,117.8042046747687 99.29453856719192,119.11532007477217 99.39123733055021,119.82633404987064 98.85060333533329,121.69206862114152 98.57808863853279,122.87702702611932 97.93636048158805,123.12410001706303 97.51440224138787,122.8619000697181 97.35616790130734,122.28707242705423 96.93860505946213,122.56440235563059 96.6704857609875,122.91232324041266 96.51225142093608,122.89719629439787 96.24413212246145,123.08376165069785 96.27050451248942,123.54765095233961 96.20457353745587,124.23339268505151 96.09468857907632,124.88383043238355 95.9804082223418,125.53930200569084 95.93205884066992,126.84013621920894 95.90129105233063,127.69221520524297 95.43977422711032,128.231689865097 95.32549387039035,128.9022439338769 95.27274909037806,129.67866403449443 94.90353563020471,130.09711935594532 94.68816111177148,130.23324264202893 94.40246021997882,130.46011398463452 94.0156651664729,130.46011398463452 93.6552425029804,131.1407220061701 93.62447471464111,131.74065790262466 93.37833240785403,132.04314393554523 92.54760212247493,132.12884798803134 92.4421125624358,132.85480599735456 92.42453096908866,133.40430906459733 92.11245768728259,134.6091622109052 91.55424209870398,135.1888932060101 91.46633413199743,135.50144111819827 90.95646792509069,135.46111246207147 90.52132348989835,135.36533177699675 89.9631079013343,135.15864653306198 89.43126470274001,135.12335872547555 89.46203249109385,133.84289904227262 89.11919142093393,133.2177811587826 89.00491106421396,132.77918584955478 88.86425831749511,132.29017287581155 88.64009300238104,131.75578224652782 88.53020804400148,131.53899955876113 87.75222253864922,131.52891662079128 87.02258641498338,131.56924836074904 86.50832480975077,131.62974591135935 84.92598140906193,130.6920258779537 84.49083697385504,130.49540499240175 84.06008793700312,131.29700850215886 83.41396438168886,132.72877235592387 82.94805215815722,134.2411556666848 83.07551870989846,134.6494915351068 82.85135339476983,134.7805616203259 83.28649782997672,135.2342631820793 83.95459837693488,136.31304860109958 84.20513608204783,135.9248900984494 84.30183484543522,136.721368020324 84.32820723543409,137.05911126329738 84.90400441737438,138.19330741812882 85.87978284781275,139.23170507995383 86.05999417955172,139.50390294140743 85.86659665280604,138.32436847304052 86.28415949465125,137.38172960353404 86.61381436981901,137.4018931826322 87.13247137337748,138.02696021371958 87.21598394175817,139.5996759204936 86.98742322830367,140.03317243803758 87.18961155174475,140.0482943436582 87.4181722651847,139.856749877501 87.51487102854298,139.93740026596788 88.86425831749511,139.2669900691617 90.54330048157135,140.24487871208476 93.08823611772095,140.87495175398726 94.4508096016798,141.6965554093731 94.87276784186542,141.81752661863356 95.71668432222214,142.62399407862176 97.37374949465448,143.7883091763033 97.30342312129505,143.66230232016096" stroke="red" stroke-linecap="round" stroke-linejoin="round" stroke-width="0.5"><title>2024-06-23 43.4km</title><desc>1719099119000</desc></polyline><polyline fill="none" points="116.823514945223,157.1121860449348 117.00125942425802,158.0060834539836 118.36989191320026,160.6773330307915 120.93829963600729,163.67070925239386 120.89386351621943,163.8577922367258 120.2095472717192,164.17998987430474 119.6141032667947,164.27353092595877 116.21918371634092,164.13841604499612 114.09513719129609,164.50218645483983 112.69095580652356,158.35948251062655 112.07773735374212,156.12473177242646 111.87333120271796,156.0 108.42508830851875,157.65268312540866 106.6209818458301,157.97490112319792 106.56765850214288,158.1619949592714 106.98535802797414,158.70248626102693 106.73651575722033,158.97273079621664 104.44361197709804,159.5963691927027 103.87482964398805,159.89779299784277 102.43509936344344,159.94976252590277 100.27550394256832,160.42788089356327 99.68005993764382,161.22820425568352 99.45787933882093,161.903796822 98.70246530271834,162.63135284934106 94.96983124199323,162.94316092526424 91.77043061843142,162.74568259213993 89.59306074969936,163.54598706481192 89.06871453643544,163.79543128156365 88.15333046915475,164.8139885908604 87.86005207867129,164.82438197833108 86.24257731897524,166.15472649549338 85.46050161105813,166.57045546153677 84.49179420003202,166.7159601839012 83.70083126809914,167.1005073410779 81.2301830088254,168.72182474478177 79.39941487426404,169.63640224268602 78.80397086933954,170.249580114556 76.81323270365829,171.5486731295241 77.34646614087978,174.5521104022264 77.79082733858377,175.70565532758337 78.42182023933856,176.37075615514914 79.04392591613578,177.53467176858248 80.3236861655023,181.3692604818134 80.55475398834096,181.61865944229794 93.10351421160158,175.3834954954291 97.92038959474303,173.18030961525074 100.00888722395757,171.99555715499446 101.56415141595062,171.3616047943142 102.02628706151154,171.85006025365874 102.6039566185791,174.36504778655217 103.65264904516516,174.14680761811178 104.07034857105464,175.46663361778337 105.87445503368508,174.96780382835277 106.47878626256716,174.56250275931234 106.39880124700721,174.14680761811178 105.40343216410838,174.04288355794415 104.44361197709804,173.53365407390083 103.64376182120759,173.33619703308068 102.79058832162991,171.32003400476242 102.71949052996933,170.86275415856653 103.27938563912176,170.40547218351276 104.95018374250503,169.57404495652736 107.80298263172153,168.3788559874738 108.66504335525678,170.40547218351276 109.20716401649406,173.33619703308068 110.9223982396652,176.6409520801244 112.55764744721819,180.38205005065538 112.8687002856168,182.1798047889024 113.41082094679587,183.5930455368216 114.27288167038932,186.71041649449762 114.94831069087377,190.2537080651673 116.95682330452837,194.99175171182287 117.04569554404588,195.56321083910007 116.91238718479872,195.7710133343644 116.49468765890924,195.9164748196563 115.09050627419492,197.2567883757074 113.96182883199072,197.5269268795164 113.98849050380522,198.02564216686005 114.20178387872875,198.24382930944557 115.70372472697636,198.430846474781 116.69909380981699,198.3373379366094 117.69446289271582,197.9321332432446 118.50320027256384,197.3295180459172 119.49856935546268,196.30090770883544 120.59169790177839,194.81511821849563 121.05383354739752,193.9527266046498 121.72037534392439,191.92659605270455 121.57817976066144,193.755310592569 121.32933748996584,194.55536250464502 120.84942739643157,195.6047713732769 119.43635878770147,197.54770673366875 120.3073067352525,199.0334549205727 120.58281067782082,199.16852182401635 120.91163796413457,199.12696279655938 121.48930752114393,198.51396510072664 122.84016556217102,196.48792857073568 124.59094868111424,194.4098990049897 126.30618290428538,191.41745924481802 126.3950551438611,191.07456970420753 126.26174678449752,190.67972572096915 124.43097864999436,189.28736848843982 124.40431697812164,188.9236898427116 126.35950624803081,187.5728716610538 127.12380750803277,186.59611463930196 127.33710088295629,186.6688521989272 128.35913163772784,187.9677281270051 127.23045419552363,190.2433173675745 126.19064899289515,191.94737709088076 126.13732564914972,192.38377787759964 125.74628779519117,193.13188900384557 125.29303937352961,193.52672313583753 125.05308432673337,194.26443529009703 124.24434694688534,195.583991108404 122.29804490093375,198.32694809352688 121.57817976066144,198.79448994439736 121.22269080253318,199.3867064299193 120.44061509449966,200.0516470038856 118.52986194443656,201.18411356589786 117.41007172618993,201.53735734712973 117.04569554404588,201.50618882924755 116.6013343463419,199.7087875821162 114.88610012322897,200.12437460632646 114.5306111650425,198.97111628713174 114.02403939969372,198.75293075883383 109.7581719016307,199.1996910830785 107.91851654316997,199.55294199505443 106.23883121582912,200.0932056404272 105.10126654966734,200.7893101906593 103.8926040919032,201.08021809454658 104.88797317474382,204.23859135775274 104.6124692321755,204.29053743827535 100.84428627567831,203.65679338054179 99.86669164069463,203.7295183159731 99.2801348597277,203.97886054334958 98.84466088598128,206.9501400867739 98.47139747993788,207.49036308404175 97.69820899586193,208.0929160024898 97.73375789169222,208.31108080385457 98.1781190893962,208.66429897975468 95.18312461685855,211.72893283209123 93.76116878417088,214.23251197774516 92.95243140432285,214.55454450281832 91.57491169148125,218.32536302491644 91.3082949728705,220.15358663256484 91.76154339453205,223.20747527734056 92.92576973250834,227.0818302123298 92.83689749299083,228.09973193561746 92.25922793598147,230.3432332410739 92.3125512796687,231.48573739398125 92.6236041180673,232.389344919211 94.08999607048463,235.10011770616256 94.32995111728087,236.1490940314834 94.16998108610278,236.91764384543785 93.63674764882307,238.03930036883685 92.60582967015216,239.24402832055057 89.35310570296133,244.11471771338256 86.18925397528801,247.84286507198703 85.56714829849079,249.25516256989795 84.83839593426092,252.58851969790703 84.84728315821849,253.54385357956926 85.4071782672545,256.6382409884609 86.62472794903442,261.2069573558183 88.12666879728204,264.0 86.87357021967182,262.0064609264882 86.37588567828061,260.78124501390994 85.08723820495652,255.57909919834492 84.74063647078583,253.52308555026684 84.74063647078583,252.41198959630856 85.36274214752484,249.5563116213234 86.0026222722372,247.97786497337074 89.41531627060613,243.834322090981 92.33032572758384,239.4205820399511 93.82337935187388,237.55117363821773 94.01889827888226,237.04227297937177 94.14331941423006,236.12832233157678 94.06333439861191,235.5778706865749 93.69895821652608,234.58081835741905 92.3747618473717,232.19200605301012 92.00149844127009,230.8729413615656 92.79246137320297,227.61155589281407 92.70358913368545,226.78061237678048 92.21479181619361,225.2641223672108 91.64600948308362,225.1290913013945 88.36662384402007,225.52379697282595 92.11703235266032,224.9213508382163 91.60157336335396,223.1970880617082 91.2105355093372,220.65218717336393 91.11277604586212,219.54072000508313 91.22830995725235,218.54350512722158 90.85504655115074,218.40846483524365 89.33533125498798,218.533117419036 88.0466837817221,218.8135851549814 87.13129971444141,219.27064197401342 86.58029182924656,217.66054601471114 85.30941880377941,216.081587604589 84.00299688254017,214.05591304858535 83.59418458066648,213.65077313036454 83.38089120574296,213.62999667930853 82.78544720081845,215.30248694385227 82.66991328942822,216.1231394664792 82.72323663311545,216.87106997833325 83.41644010157324,219.16676561072381 83.32756786199752,221.11962288495852 83.44310177344596,222.28300878943992 83.01651502365712,222.9477945571125 82.43884546658956,223.3840577755327 81.91449925332563,223.5502527783683 80.9813407381298,222.8543093300177 77.89747402607463,222.39726916302607 76.99986440665089,222.08564964977268 76.28888649033615,221.60783114544756 75.63123191770865,220.2055243068462 74.81360731396126,219.10443974009104 73.92488491855329,218.50195428787993 72.32518460677238,217.93062846708926 71.64086836233037,217.5358923250169 72.30741015891545,216.081587604589 72.23631236725487,215.84266405813105 72.39628239843296,215.2297705672754 72.12077845586464,214.57532075854397" stroke="red" stroke-linecap="round" stroke-linejoin="round" stroke-width="0.5"><title>2023-11-26 42.4km</title><desc>1700953329000</desc></polyline></svg>