<?xml version="1.0" encoding="utf-8" ?>
<svg baseProfile="full" height="200mm" version="1.1" viewBox="0,0,200,200" width="200mm" xmlns="http://www.w3.org/2000/svg" xmlns:ev="http://www.w3.org/2001/xml-events" xmlns:xlink="http://www.w3.org/1999/xlink"><defs /><rect fill="#1a1a1a" height="200" width="200" x="0" y="0" /><text alignment-baseline="middle" fill="#e1ed5e" style="dominant-baseline: central; font-size:9.0px; font-family:Arial;" text-anchor="middle" x="100.0" y="100.0">2021</text><line stroke="#e1ed5e" stroke-width="0.3" x1="100.0" x2="100.0" y1="15.0" y2="10.0" /><path d="M 100.0 14.0 a86.0,86.0 0 0,1 42.46469731375804,11.215312516191453" fill="none" id="id61" stroke="none" /><text fill="#e1ed5e" style="font-size:6.75px; font-family:Arial;" text-anchor="middle"><textPath startOffset="22.20632615414155" xlink:href="#id61">January</textPath></text><path d="M 100.0 79.0 l 0.0 -7.8103386673901305 a28.81033866739013,28.81033866739013 0 0,0 0.49592262045200197,0.004268562562589369 l -0.13444214117947356 7.8091814814361" fill="#ff5908" stroke="none" /><path d="M 101.44485096284872 79.0497635885617 l 1.5504117391290722 -22.480860175212573 a43.53425949034687,43.53425949034687 0 0,0 0.7471511532936485,0.05799330928865732 l -1.9371530817850617 22.45084160373545" fill="#e6ff1a" stroke="none" /><path d="M 102.52436894288641 79.15227682838746 l 1.81719824827469 -15.00749172767601 a36.11711008856509,36.11711008856509 0 0,0 0.616545334076727,0.08004527933272831 l -2.075258310859263 14.973988125179144" fill="#ffbc11" stroke="none" /><path d="M 103.2404852339499 79.25152402106235 l 0.30161399279509415 -1.931201728326477 a22.954612779079522,22.954612779079522 0 0,0 0.3898685696518578,0.0643316545153656 l -0.3348117685858271 1.925723810871487" fill="#ff0600" stroke="none" /><path d="M 103.59715602781102 79.31037775812273 l 2.5876980112676935 -14.883561879234174 a36.10683935211173,36.10683935211173 0 0,0 0.611417535007843,0.11173264644015202 l -2.8435106673784376 14.836813751443284" fill="#ffbb11" stroke="none" /><path d="M 103.95276090670814 79.375362276772 l 2.85307491681265 -14.886717903080804 a36.15765174447718,36.15765174447718 0 0,0 0.6102612539539193,0.12241266650335021 l -3.108902580233695 14.835401280500246" fill="#ffbc11" stroke="none" /><path d="M 104.307194497241 79.44645832069477 l 3.1174208482248194 -14.876049683144522 a36.19918310042783,36.19918310042783 0 0,0 0.60876213769594,0.13305182453852873 l -3.373025710074287 14.820184360510122" fill="#ffbd11" stroke="none" /><path d="M 104.66035177308747 79.52364482259891 l 3.3713927908957113 -14.813009744793431 a36.191825007215186,36.191825007215186 0 0,0 0.6062584172921761,0.14348177994919048 l -3.625874895150411 14.752782052703372" fill="#ffbd11" stroke="none" /><path d="M 105.01212808612495 79.60689891045804 l 3.6216061409546505 -14.735413554862795 a36.17393962268977,36.17393962268977 0 0,0 0.6034004529082289,0.15382021071783197 l -3.8747154825479044 14.670890347976096" fill="#ffbc11" stroke="none" /><path d="M 105.71112130821622 79.79150937346287 l 2.263397312096433 -8.008907690303683 a29.322593933636966,29.322593933636966 0 0,0 0.48453461603312953,0.14144894123408153 l -2.4009221458529897 7.968760420150898" fill="#ff6108" stroke="none" /><path d="M 106.0581310904928 79.89281104454417 l 4.388835121911026 -14.566726234943141 a36.21352644626158,36.21352644626158 0 0,0 0.5953066207131781,0.18496466485972815 l -4.638927115334923 14.489021435200893" fill="#ffbd11" stroke="none" /><path d="M 106.40334571778207 80.00007090966166 l 6.878924803269231 -21.4853319415662 a43.55967852360307,43.55967852360307 0 0,0 0.7121326616548088,0.23477894212150302 l -7.247740287166457 21.363739275185463" fill="#e6ff1a" stroke="none" /><path d="M 106.74666289553966 80.11325718540242 l 9.12359858403754 -26.89309683819148 a49.398568778566926,49.398568778566926 0 0,0 0.8028866903639525,0.2801114011745609 l -9.585167278464766 26.732064583844707" fill="#a2ff22" stroke="none" /><path d="M 107.08798089147638 80.2323363322302 l 5.096785959799283 -14.214421875922634 a36.100563446001445,36.100563446001445 0 0,0 0.5831404366881978,0.21477554415685077 l -5.340708722260057 14.12458306395946" fill="#ffbb11" stroke="none" /><path d="M 107.4271985657038 80.35727306442388 l 8.009628724355819 -21.18308114372589 a43.64678959684355,43.64678959684355 0 0,0 0.7004620422787462,0.2717683900734035 l -8.373073931634233 21.04207004976194" fill="#e5ff1a" stroke="none" /><path d="M 107.76421540070413 80.48803036053334 l 4.5407009187776 -11.41107167905877 a33.28130781710176,33.28130781710176 0 0,0 0.5304662175037168,0.21639048933326616 l -4.7364510058697045 11.331220303541924" fill="#ff960d" stroke="none" /><path d="M 108.43124777332544 80.76684994638697 l 6.048209347607332 -13.797022821014275 a36.064483895443395,36.064483895443395 0 0,0 0.5664148417611459,0.25413382890188546 l -6.284806307835258 13.690868661595857" fill="#ffbb11" stroke="none" /><path d="M 108.76106565485865 80.91482961587045 l 6.310905618316175 -13.747723593068761 a36.12704312530093,36.12704312530093 0 0,0 0.5629312224722635,0.26430375703433195 l -6.546615052088036 13.637054853394426" fill="#ffbc11" stroke="none" /><path d="M 109.08828744355905 81.06846463323043 l 6.555970209095354 -13.656542296638888 a36.14865977182248,36.14865977182248 0 0,0 0.558632321667644,0.2741184541287768 l -6.790073797773429 13.54166868237528" fill="#ffbc11" stroke="none" /><path d="M 109.41281617654863 81.2277094730956 l 6.782194739823411 -13.525955216591834 a36.13108158758442,36.13108158758442 0 0,0 0.5535617415657287,0.283555824484657 l -7.014016968977895 13.407206866794677" fill="#ffbc11" stroke="none" /><path d="M 109.73455568895987 81.39251694778311 l 7.022118848003448 -13.422693508555845 a36.14855947409233,36.14855947409233 0 0,0 0.5488641547228709,0.293184223083547 l -7.25212804925463 13.299830558970545" fill="#ffbc11" stroke="none" /><path d="M 110.05341064243156 81.56283822128135 l 2.616348710191636 -4.798177071943223 a26.465142613605163,26.465142613605163 0 0,0 0.39808100147195397,0.22153164632598688 l -2.6985538007356253 4.752430028057056" fill="#ff3805" stroke="none" /><line stroke="#e1ed5e" stroke-width="0.3" x1="143.23703022742887" x2="145.7803849466894" y1="26.81831364943548" y2="22.513508569990506" /><path d="M 143.74570117128098 25.957352633546492 a86.0,86.0 0 0,1 28.547481713284135,27.462654790039103" fill="none" id="id62" stroke="none" /><text fill="#e1ed5e" style="font-size:6.75px; font-family:Arial;" text-anchor="middle"><textPath startOffset="19.985693538727396" xlink:href="#id62">February</textPath></text><path d="M 110.68208982089419 81.91981866633111 l 7.666777663236099 -12.976555404458047 a36.07217535402456,36.07217535402456 0 0,0 0.5318720877931059,0.32044698173793723 l -7.889011817246842 12.842661813261495" fill="#ffbb11" stroke="none" /><path d="M 110.99172775467656 82.1063720568725 l 11.87185014703856 -19.32639474602075 a43.68149818227971,43.68149818227971 0 0,0 0.6372940208922048,0.3990734574172328 l -12.202763320303028 19.11917694728057" fill="#e4ff1a" stroke="none" /><path d="M 111.2981086023043 82.29822771554956 l 18.584659645519583 -29.118273209190615 a55.5436449846404,55.5436449846404 0 0,0 0.80150266373703,0.5213196277416123 l -19.083129335040894 28.794054657289472" fill="#60ff29" stroke="none" /><path d="M 111.60114157652 82.49532879139004 l 4.152238127227963 -6.2652078433459435 a28.516243129751,28.516243129751 0 0,0 0.40682536070643344,0.2746902995782627 l -4.259468182340939 6.19280563146901" fill="#ff5507" stroke="none" /><path d="M 111.90073688211348 82.69761687909136 l 12.832340888368607 -18.656834495884095 a43.64390527453486,43.64390527453486 0 0,0 0.6153143475595534,0.4310670226149309 l -13.151586375511812 18.43318263050523" fill="#e5ff1a" stroke="none" /><path d="M 112.19680574252982 82.90503203632743 l 3.3800921179916457 -4.737516337563994 a26.819715093953914,26.819715093953914 0 0,0 0.3735024425373243,0.27136540881724297 l -3.4611398768827586 4.678631693930076" fill="#ff3d05" stroke="none" /><path d="M 112.77801427241765 83.33499621200491 l 9.248580861295943 -12.061939500237726 a36.19956027177513,36.19956027177513 0 0,0 0.4912236283333312,0.383407833574248 l -9.454837044788706 11.900953277440253" fill="#ffbd11" stroke="none" /><path d="M 113.06298171725822 83.55741782278167 l 9.402798326311048 -11.835451317513634 a36.115903024778675,36.115903024778675 0 0,0 0.4834313141923667,0.3909011690158176 l -9.605133039067907 11.671844051233688" fill="#ffbc11" stroke="none" /><path d="M 113.34407831869373 83.78471172551755 l 28.765026441839833 -34.95432092332046 a66.26843599474388,66.26843599474388 0 0,0 0.874561789211924,0.7324203474143721 l -29.362445768010875 34.45399941851227" fill="#37ff76" stroke="none" /><path d="M 113.6212207817346 84.01681056812373 l 10.859984963003354 -12.743145395878829 a37.742969508936184,37.742969508936184 0 0,0 0.49084947763697934,0.42565983009571656 l -11.077728239287099 12.55432057236344" fill="#ffd113" stroke="none" /><path d="M 113.89432698308785 84.25364557470407 l 11.777279955970453 -13.347118185599996 a38.80027772316144,38.80027772316144 0 0,0 0.49699278027402405,0.44620502524619216 l -12.005283723840467 13.142414151584507" fill="#ffde14" stroke="none" /><path d="M 114.42810811169701 84.74124197986012 l 5.254682469102812 -5.557203179237913 a28.64814977798084,28.64814977798084 0 0,0 0.3553963360316757,0.341890993682324 l -5.349562048746905 5.465929098793287" fill="#ff5708" stroke="none" /><path d="M 114.68862486808459 84.99185889309783 l 10.593608911449373 -10.824047778619667 a36.145446843278705,36.145446843278705 0 0,0 0.44091283181919366,0.4390194119977255 l -10.77835754343589 10.640092515971823" fill="#ffbc11" stroke="none" /><path d="M 114.94478906791727 85.2469230424477 l 10.806732620589376 -10.668103596959277 a36.185318708817604,36.185318708817604 0 0,0 0.43376846896675536,0.4470365365951235 l -10.98876535325924 10.480502864814039" fill="#ffbd11" stroke="none" /><path d="M 115.19652480421416 85.50635884689758 l 11.011675670849405 -10.502353513309897 a36.216978359664886,36.216978359664886 0 0,0 0.42638193095227334,0.45483451531949004 l -11.19082492377214 10.311249581112351" fill="#ffbd11" stroke="none" /><path d="M 115.4437574822437 85.77008943001954 l 16.55365697935129 -15.252574296969584 a43.50921104958152,43.50921104958152 0 0,0 0.5027517501409527,0.5551510394683956 l -16.81375237010828 14.965370470231639" fill="#e6ff1a" stroke="none" /><path d="M 115.68641384162765 86.03803664274999 l 11.37148698829616 -10.121388244055288 a36.22344298481423,36.22344298481423 0 0,0 0.4105463885528429,0.4693254922351148 l -11.544025240426851 9.924147195617225" fill="#ffbd11" stroke="none" /><path d="M 116.38621287248628 86.86637796730983 l 11.510868454755185 -9.22601193632806 a35.751928308934595,35.751928308934595 0 0,0 0.3807510893900172,0.4835152176468148 l -11.667973624739167 9.026504324728206" fill="#ffb711" stroke="none" /><path d="M 116.60985879189232 87.15038557335679 l 12.014859156529711 -9.29485972675398 a36.190498934902664,36.190498934902664 0 0,0 0.3769396596360384,0.49600840771077265 l -12.173074756389864 9.086666543162174" fill="#ffbd11" stroke="none" /><path d="M 116.82858285166822 87.43820079747576 l 12.112976940338754 -9.04180615863672 a36.11550425779899,36.11550425779899 0 0,0 0.36758254894356945,0.5013821836614515 l -12.26682210179595 8.831961531303776" fill="#ffbc11" stroke="none" /><path d="M 117.04232023915458 87.72973835380427 l 12.305368570398846 -8.859714516147221 a36.1630022410138,36.1630022410138 0 0,0 0.35936962846207055,0.5083028538090119 l -12.4560508186648 8.646585162006415" fill="#ffbc11" stroke="none" /><path d="M 117.2510076193507 88.02491185347247 l 12.494452408081486 -8.673242295802806 a36.2097492714218,36.2097492714218 0 0,0 0.35101995504432787,0.515078470440099 l -12.641896828794547 8.4568858020923" fill="#ffbd11" stroke="none" /><line stroke="#e1ed5e" stroke-width="0.3" x1="172.23445277983987" x2="176.4835382374775" y1="55.19839476539836" y2="52.563006222186495" /><path d="M 173.08426987136738 54.67131705675599 a86.0,86.0 0 0,1 12.851231095245387,41.99856678651699" fill="none" id="id63" stroke="none" /><text fill="#e1ed5e" style="font-size:6.75px; font-family:Arial;" text-anchor="middle"><textPath startOffset="22.20632615414155" xlink:href="#id63">March</textPath></text><path d="M 117.84615892207809 88.93136811851018 l 13.174167766423905 -8.1709466999723 a36.50235679861842,36.50235679861842 0 0,0 0.3265817222752309,0.5368144825384266 l -13.31286528698536 7.942964444226791" fill="#ffc111" stroke="none" /><path d="M 118.03404312379186 89.2402003453031 l 19.634107173893735 -11.714459045028839 a43.86321751708633,43.86321751708633 0 0,0 0.3812764763975134,0.6517250907490567 l -19.832843324761573 11.374754541925887" fill="#e2ff1b" stroke="none" /><path d="M 118.21658344932153 89.55222093294921 l 13.286501415690642 -7.620223174744851 a36.31662237903866,36.31662237903866 0 0,0 0.3063434356435677,0.5449507892907703 l -13.415702492626643 7.390388875519286" fill="#ffbe11" stroke="none" /><path d="M 118.3937258080291 89.86733742301442 l 13.39275086700341 -7.377745375205065 a36.290418653751125,36.290418653751125 0 0,0 0.29670337899143867,0.5497462998373669 l -13.517762345213315 7.14611809203524" fill="#ffbe11" stroke="none" /><path d="M 118.56541770881063 90.18545643968196 l 11.591209075503466 -6.127652400424803 a34.111226173492156,34.111226173492156 0 0,0 0.26995066730362555,0.5214587656589458 l -11.694969175967207 5.927220912505512" fill="#ffa10e" stroke="none" /><path d="M 118.89224826269711 90.83032412892265 l 6.537903315125907 -3.1732832134394093 a28.26731766958282,28.26731766958282 0 0,0 0.20869599936861713,0.439566998785735 l -6.59155750833628 3.060273799013134" fill="#ff5207" stroke="none" /><path d="M 119.04729006885535 91.15688171328212 l 13.386890426219747 -6.215154759676873 a35.75930160848907,35.75930160848907 0 0,0 0.25439794320557746,0.5605321461282488 l -13.491890686388672 5.983800604706561" fill="#ffb711" stroke="none" /><path d="M 119.196687751892 91.48605970444005 l 13.98700756232115 -6.203390336825729 a36.30092912928662,36.30092912928662 0 0,0 0.24841813129623494,0.5733832973564515 l -14.091716403460065 5.961707894882674" fill="#ffbe11" stroke="none" /><path d="M 119.34039704204932 91.81776055985345 l 14.013512752242342 -5.928622689963359 a36.21601480865496,36.21601480865496 0 0,0 0.2379535538572717,0.5762234049719702 l -14.11348799298581 5.686524714538086" fill="#ffbd11" stroke="none" /><path d="M 119.47837535516314 92.15188598940014 l 14.126417671948126 -5.691734265784864 a36.22995453685394,36.22995453685394 0 0,0 0.22808731796499243,0.5804573455478571 l -14.222298539794819 5.447727915341223" fill="#ffbd11" stroke="none" /><path d="M 119.85752413597 93.16781622104841 l 6.789087458958972 -2.335854807143979 a28.179688447659245,28.179688447659245 0 0,0 0.1538647303846189,0.460035959577473 l -6.828289483115361 2.218645744644192" fill="#ff5107" stroke="none" /><path d="M 120.08093135843002 93.85539295169968 l 21.681049179762308 -6.634230515836436 a43.67335237834333,43.67335237834333 0 0,0 0.21377919418363361,0.7207571674570165 l -21.79203427105764 6.260043961632889" fill="#e4ff1a" stroke="none" /><path d="M 120.18372546131832 94.20196356495316 l 14.648328616012947 -4.207922030595983 a36.24073945247667,36.24073945247667 0 0,0 0.1670753820693943,0.6010590431922126 l -14.718590768648705 3.955151683984818" fill="#ffbd11" stroke="none" /><path d="M 120.37134235888165 94.90015583598534 l 14.781333215793849 -3.700418686648615 a36.23748371919815,36.23748371919815 0 0,0 0.14627381049859875,0.6063993784013363 l -14.842839826553268 3.4454340765878726" fill="#ffbd11" stroke="none" /><path d="M 120.45610955862082 95.25157060432595 l 7.804140601591223 -1.8115571064172382 a29.011638389194523,29.011638389194523 0 0,0 0.1087323230236559,0.4874256838490547 l -7.834167311616916 1.6769532530182196" fill="#ff5c08" stroke="none" /><path d="M 120.53481517161879 95.60439243477599 l 3.4655739162669126 -0.7418281000765883 a24.544081192519837,24.544081192519837 0 0,0 0.08487659320572728,0.41388841177966823 l -3.477829805387637 0.6820640321335082" fill="#ff1d02" stroke="none" /><path d="M 120.6074358757038 95.95851677861258 l 15.033504932472601 -2.9483366251725944 a36.31988770879252,36.31988770879252 0 0,0 0.11503766850597781,0.6145358250967616 l -15.082028324888439 2.6891227226132703" fill="#ffbe11" stroke="none" /><path d="M 120.73433829027371 96.67025291283417 l 8.85762895111758 -1.4224550495066772 a29.9711186038054,29.9711186038054 0 0,0 0.07741697863277151,0.510081161504868 l -8.880801823189652 1.269774775609727" fill="#ff6909" stroke="none" /><path d="M 120.83666639777658 97.38593545837742 l 18.546533084149846 -2.3267558053566324 a39.691914883693045,39.691914883693045 0 0,0 0.07921305435177003,0.6786490750889029 l -18.583836491505203 2.007162991942877" fill="#ffe915" stroke="none" /><path d="M 120.98425023603335 99.18683210126433 l 1.5779535928395807 -0.06114782243629553 a22.579137928536973,22.579137928536973 0 0,0 0.011707073937811618,0.38850078947566075 l -1.5787723612330373 0.03397688553563568" fill="#ff0000" stroke="none" /><line stroke="#e1ed5e" stroke-width="0.3" x1="184.98032266829074" x2="189.97916517819016" y1="98.17113171792111" y2="98.06355123074" /><path d="M 185.9800911702706 98.14961562048488 a86.0,86.0 0 0,1 -9.607161424134198,41.387399972396054" fill="none" id="id64" stroke="none" /><text fill="#e1ed5e" style="font-size:6.75px; font-family:Arial;" text-anchor="middle"><textPath startOffset="21.466115282336823" xlink:href="#id64">April</textPath></text><path d="M 120.99824983174949 100.27111621757518 l 15.337638917109834 0.19802996359503383 a36.33891728311107,36.33891728311107 0 0,0 -0.013459134320130338,0.6253930852036644 l -15.331957720104697 -0.4620128645888131" fill="#ffbf11" stroke="none" /><path d="M 120.9904718944345 100.63252640178507 l 15.519332189007155 0.4676592025652683 a36.526376806019414,36.526376806019414 0 0,0 -0.024347208093216798,0.6282932564987659 l -15.508982848062734 -0.7347297060780403" fill="#ffc111" stroke="none" /><path d="M 120.95626037817324 101.35467743843564 l 15.279573508596048 0.9877188547710869 a36.311464826745365,36.311464826745365 0 0,0 -0.0456892314600701,0.6233932630092549 l -15.26030771847164 -1.250585254277112" fill="#ffbe11" stroke="none" /><path d="M 120.89721153311464 102.0752229133903 l 3.874736437889832 0.3847853971576666 a24.893795354789074,24.893795354789074 0 0,0 -0.04601523059889131,0.4260438863218327 l -3.867538905789889 -0.4514256053642907" fill="#ff2203" stroke="none" /><path d="M 120.76222939487914 103.15116336523771 l 15.404666544331768 2.33802545694702 a36.58108193866481,36.58108193866481 0 0,0 -0.09984587810905833,0.6217403782954396 l -15.36213891186142 -2.6028450649356643" fill="#ffc212" stroke="none" /><path d="M 120.70491114924044 103.5080841355445 l 15.850822678558636 2.6856439601780386 a37.0767304843973,37.0767304843973 0 0,0 -0.11203097407933638,0.6283291982626228 l -15.80224526214011 -2.9580919091738798" fill="#ffc812" stroke="none" /><path d="M 120.64145759157962 103.86396538481128 l 15.302373135892465 2.864518643619182 a36.56817557229251,36.56817557229251 0 0,0 -0.12114525835819391,0.6177170624019078 l -15.250797944558606 -3.1274994330890347" fill="#ffc112" stroke="none" /><path d="M 120.5718875245553 104.21870165774334 l 13.128187545783774 2.692213171808146 a34.401392464954135,34.401392464954135 0 0,0 -0.12395306809897405,0.579067468057239 l -13.079900438960356 -2.917794459281554" fill="#ffa50f" stroke="none" /><path d="M 120.49622156327973 104.57218783832717 l 27.38362313407487 6.108592663111172 a49.05668762118679,49.05668762118679 0 0,0 -0.19094599445130775,0.8225903465752638 l -27.27441657369301 -6.579051667035001" fill="#a6ff21" stroke="none" /><path d="M 120.41448212921028 104.9243191809786 l 22.829465370853775 5.506854080629616 a44.4842485718483,44.4842485718483 0 0,0 -0.1859625579378275,0.7428279790225403 l -22.731291498620887 -5.899009899049552" fill="#dbff1b" stroke="none" /><path d="M 120.32669344350535 105.2749913415812 l 7.363001769749528 1.9107766194941895 a28.606895710533983,28.606895710533983 0 0,0 -0.1277937103093026,0.4755679364880443 l -7.329019983098448 -2.037235489157782" fill="#ff5708" stroke="none" /><path d="M 120.23288151984713 105.62410040840565 l 30.500164341595518 8.478079929531615 a52.65656115493061,52.65656115493061 0 0,0 -0.25026250092949864,0.8711965970912597 l -30.34970920377992 -9.001834002127456" fill="#7eff26" stroke="none" /><path d="M 120.13307415673323 105.97154293290107 l 13.057277165721876 3.872835840910087 a34.619520712312884,34.619520712312884 0 0,0 -0.17437230666819628,0.5698587873058075 l -12.988678086547548 -4.097021600767952" fill="#ffa80f" stroke="none" /><path d="M 119.79798401119884 107.00284435728193 l 8.661646812685657 3.0637545960575694 a30.187530556823823,30.187530556823823 0 0,0 -0.17749655447291052,0.4883942861726489 l -8.607625997207519 -3.2123966792363494" fill="#ff6c0a" stroke="none" /><path d="M 119.54520255179757 107.68017299344265 l 57.80603600621266 22.714543654194916 a83.10868129472627,83.10868129472627 0 0,0 -0.5346555035920508,1.326971113136755 l -57.40647788836321 -23.706214135174484" fill="#4cdaff" stroke="none" /><path d="M 118.64920377521936 109.65438752849418 l 13.463181547227302 6.9696687102597465 a36.1602618481468,36.1602618481468 0 0,0 -0.2909135971988331,0.5502988922486395 l -13.341215441803577 -7.20038261759452" fill="#ffbc11" stroke="none" /><line stroke="#e1ed5e" stroke-width="0.3" x1="174.80103733775053" x2="179.2010983576182" y1="140.37084112569926" y2="142.7455964860345" /><path d="M 175.68104954172406 140.8457921977663 a86.0,86.0 0 0,1 -30.038265399797805,32.042727171017184" fill="none" id="id65" stroke="none" /><text fill="#e1ed5e" style="font-size:6.75px; font-family:Arial;" text-anchor="middle"><textPath startOffset="22.206326154141568" xlink:href="#id65">May</textPath></text><path d="M 117.94076556474637 110.91462005526583 l 53.8222966942391 32.74386016579747 a84.0,84.0 0 0,0 -0.7621414413281484,1.228814674538906 l -53.25069061324299 -33.665471171701654" fill="#4dd2ff" stroke="none" /><path d="M 116.498646956653 112.99209946851258 l 5.551806768201516 4.371850973715726 a28.066515359625797,28.066515359625797 0 0,0 -0.3021588758975577,0.3769896567332839 l -5.475729980249104 -4.46676846402726" fill="#ff4f07" stroke="none" /><path d="M 116.0416608686014 113.55231037782055 l 11.552979479424852 9.760184121596376 a36.12390587578069,36.12390587578069 0 0,0 -0.405374714437518,0.47154237468023463 l -11.383262255416556 -9.957603595438139" fill="#ffbc11" stroke="none" /><path d="M 115.80600337817218 113.82643327865902 l 11.531740748016306 10.087486395164817 a36.321175752927545,36.321175752927545 0 0,0 -0.41568919821826134,0.4670312208891509 l -11.356392700149705 -10.284491785794833" fill="#ffbe11" stroke="none" /><path d="M 115.32070863581623 114.36230785411682 l 45.1922527429519 42.36521050977813 a82.94473964365868,82.94473964365868 0 0,0 -0.9854366256509678,1.0332263622713287 l -44.45630956592197 -43.136843988631966" fill="#4cdcff" stroke="none" /><path d="M 113.48314897796784 116.09983520530334 l 4.862973685303391 5.806735137989366 a28.5740798798741,28.5740798798741 0 0,0 -0.37980377351538025,0.31255264869390337 l -4.76229978324332 -5.889582905540448" fill="#ff5608" stroke="none" /><path d="M 112.92097659922987 116.55440617244103 l 9.560503055766882 12.248954216623362 a36.53834283571653,36.53834283571653 0 0,0 -0.49913337466774493,0.38271418755625497 l -9.348240952605643 -12.41170774600699" fill="#ffc111" stroke="none" /><path d="M 112.63410532772338 116.77436683061366 l 4.7761502281906525 6.3413193010182045 a28.938761961396224,28.938761961396224 0 0,0 -0.4004780554029186,0.2962640913089617 l -4.66628720236917 -6.422593341066936" fill="#ff5b08" stroke="none" /><path d="M 112.34349029814194 116.9893568818739 l 9.41185179008967 12.954302642033667 a37.01239866665874,37.01239866665874 0 0,0 -0.5186541646838119,0.3700459753797319 l -9.187470297556974 -13.11439287925762" fill="#ffc712" stroke="none" /><path d="M 111.45004920935366 117.60387380957326 l 7.464519479991523 11.47632264038887 a34.69032623473506,34.69032623473506 0 0,0 -0.5033701760310743,0.3212746624786122 l -7.265867501913519 -11.60311173169129" fill="#ffa90f" stroke="none" /><path d="M 111.1453310114006 117.79835938074945 l 8.30551856258746 13.263365984303823 a36.64923371373412,36.64923371373412 0 0,0 -0.537558394779628,0.3302122714543203 l -8.075980967875523 -13.404366722586522" fill="#ffc312" stroke="none" /><line stroke="#e1ed5e" stroke-width="0.3" x1="143.8653032363475" x2="146.44561519142675" y1="172.8068346515853" y2="177.08958963109032" /><path d="M 144.38136562736335 173.6633856474863 a86.0,86.0 0 0,1 -40.68145358897372,12.25698825130547" fill="none" id="id66" stroke="none" /><text fill="#e1ed5e" style="font-size:6.75px; font-family:Arial;" text-anchor="middle"><textPath startOffset="21.466115282336833" xlink:href="#id66">June</textPath></text><path d="M 110.8373102113329 117.98757091392108 l 8.035139928485169 13.336579506210262 a36.57009398159832,36.57009398159832 0 0,0 -0.5419899145992855,0.3202171948899075 l -7.804382142857501 -13.47291527339392" fill="#ffc112" stroke="none" /><path d="M 110.5260780823613 118.17145234162733 l 7.989061825360863 13.791732787649323 a36.93853826846614,36.93853826846614 0 0,0 -0.5529369072771813,0.31397200671881775 l -7.7504761511624825 -13.927207960162768" fill="#ffc612" stroke="none" /><path d="M 110.21172684928248 118.3499491758327 l 0.7825240677089438 1.4061555977022546 a22.609228846837247,22.609228846837247 0 0,0 -0.3416977846298781,0.18632087659275476 l -0.758203471210417 -1.4194171260547799" fill="#ff0000" stroke="none" /><path d="M 109.89434966115114 118.52300852407294 l 7.364522934186013 13.786971934220825 a36.630636364625225,36.630636364625225 0 0,0 -0.558720289230154,0.29229604857357316 l -7.126111742429363 -13.911697401739115" fill="#ffc212" stroke="none" /><path d="M 108.92500713936063 119.00905698771935 l 6.666525760462428 14.198797391640818 a36.68593041817333,36.68593041817333 0 0,0 -0.5739286784485464,0.26346250685166744 l -6.421129086246462 -14.311446968826559" fill="#ffc312" stroke="none" /><path d="M 108.2653958097858 119.30500536409082 l 9.16118838387954 21.39725609786911 a44.275951991760216,44.275951991760216 0 0,0 -0.7032044593891554,0.2939395210562373 l -8.791512464992925 -21.551780661945322" fill="#ddff1b" stroke="none" /><path d="M 107.59598834532513 119.57807347666477 l 5.302576231986494 13.666980828023414 a35.659593433979936,35.659593433979936 0 0,0 -0.5741700216957139,0.2171019724295443 l -5.0665359895305055 -13.75623105055959" fill="#ffb610" stroke="none" /><path d="M 106.57524785965236 119.94407469862006 l 4.215691889739363 12.78705772770273 a34.4640596938968,34.4640596938968 0 0,0 -0.5650114340057298,0.18089881869562804 l -3.9949591106426925 -12.857729393058067" fill="#ffa60f" stroke="none" /><path d="M 106.2309692047433 120.05430185196036 l 4.583726178319348 14.752669346651954 a36.44835908857165,36.44835908857165 0 0,0 -0.6007471057687124,0.18100017496446033 l -4.32910409811039 -14.82938489072214" fill="#ffc011" stroke="none" /><path d="M 105.88484417918355 120.15858648285463 l 6.537720731915184 22.395020966102845 a44.32978260594598,44.32978260594598 0 0,0 -0.734330937776533,0.20752925804912759 l -6.151258626034045 -22.50423901749049" fill="#dcff1b" stroke="none" /><path d="M 105.53697534728816 120.25689768951611 l 4.067030661554069 14.879138671183663 a36.4249637276181,36.4249637276181 0 0,0 -0.6062320449070033,0.16011139301725347 l -3.8103081738355686 -14.946941413504499" fill="#ffc011" stroke="none" /><path d="M 105.18746579009965 120.34920634021253 l 3.7789971416486674 14.824115609831289 a36.29820979756234,36.29820979756234 0 0,0 -0.6067793961493358,0.1491316127041442 l -3.5232644607561205 -14.886968480849463" fill="#ffbe11" stroke="none" /><path d="M 104.48393922423573 120.51570834832081 l 1.5760651888789297 7.21109099298564 a28.381315247888725,28.381315247888725 0 0,0 -0.47816912716988663,0.10020498974978916 l -1.451704600279665 -7.2371519634619705" fill="#ff5307" stroke="none" /><path d="M 104.13013068566511 120.58985236759428 l 3.043439520482737 15.172394092500783 a36.474626541955345,36.474626541955345 0 0,0 -0.6166511270855539,0.11818265614799844 l -2.7818207788254785 -15.222533946997249" fill="#ffc011" stroke="none" /><path d="M 103.7750983002368 120.6578951692458 l 2.807256900722245 15.361724160831573 a36.61612181369399,36.61612181369399 0 0,0 -0.6209937830786582,0.10796772913104405 l -2.542414146171537 -15.407770468483623" fill="#ffc212" stroke="none" /><path d="M 103.41894727170886 120.7198165907248 l 2.5717504116762586 15.585556784682302 a36.79631224268859,36.79631224268859 0 0,0 -0.6258249087881533,0.09774098001340878 l -2.3030896392795883 -15.627516072042816" fill="#ffc412" stroke="none" /><path d="M 103.06178313531738 120.77559828337769 l 2.262178394165875 15.349914571155589 a36.515712308134795,36.515712308134795 0 0,0 -0.6226301214281057,0.08629086141134806 l -1.9976196815509388 -15.38657999805954" fill="#ffc111" stroke="none" /><path d="M 102.70371172650421 120.8252237178851 l 1.9357742175344863 14.910217961584484 a36.03535238972562,36.03535238972562 0 0,0 -0.6158142749215444,0.07456653263291375 l -1.6788325195615617 -14.941330022942749" fill="#ffbb11" stroke="none" /><path d="M 101.62511606390274 120.93702456842531 l 1.2138984772124692 15.639142831396398 a36.686183028824956,36.686183028824956 0 0,0 -0.6300192269082996,0.04344981453835431 l -0.9445164895252394 -15.657720990451038" fill="#ffc312" stroke="none" /><path d="M 100.90346689309514 120.98055641714683 l 0.6760869096264116 15.700275968847944 a36.714826088994826,36.714826088994826 0 0,0 -0.6316342598932548,0.0217547610369654 l -0.40573229805850447 -15.709587528311003" fill="#ffc312" stroke="none" /><line stroke="#e1ed5e" stroke-width="0.3" x1="102.19456741930631" x2="102.32365962044197" y1="184.97166512339345" y2="189.96999836594603" /><path d="M 102.22038585953345 185.97133177190398 a86.0,86.0 0 0,1 -42.740103519485714,-10.115201625700543" fill="none" id="id67" stroke="none" /><text fill="#e1ed5e" style="font-size:6.75px; font-family:Arial;" text-anchor="middle"><textPath startOffset="22.20632615414155" xlink:href="#id67">July</textPath></text><path d="M 100.54218724476979 120.99299961872073 l 0.3361810133899768 13.016624706679385 a34.020965264845,34.020965264845 0 0,0 -0.5855499159750643,0.010080772825972287 l -0.11207140752224455 -13.020482956784518" fill="#ffa00e" stroke="none" /><path d="M 100.18074693466247 120.99922214144158 l 0.131112962545432 15.232735378089 a36.2332996329696,36.2332996329696 0 0,0 -0.6237197944157644,0.0 l 0.1311129625454215 -15.232735378089" fill="#ffbd11" stroke="none" /><path d="M 99.81925306533755 120.99922214144158 l -0.032934140849149765 3.826296368568543 a24.82643810321744,24.82643810321744 0 0,0 -0.42729883270892366,-0.007356336913086042 l 0.09879266345074135 -3.825162554376297" fill="#ff2103" stroke="none" /><path d="M 99.09653310690486 120.98055641714683 l -0.6565837118869521 15.247367352478388 a36.26149774275576,36.26149774275576 0 0,0 -0.6233730163015317,-0.03222126452246678 l 0.9189447966019728 -15.23380628119372" fill="#ffbd11" stroke="none" /><path d="M 98.73552117531835 120.96189622390904 l -0.9253890570731931 15.340636001550301 a36.36852165431054,36.36852165431054 0 0,0 -0.6245639639982026,-0.04307358766847784 l 1.1893157818503257 -15.322434069365539" fill="#ffbf11" stroke="none" /><path d="M 98.37488393609728 120.93702456842531 l -1.1753721903828673 15.142793166410476 a36.18834041844642,36.18834041844642 0 0,0 -0.6206398301527102,-0.0535514160617852 l 1.4358563382771192 -15.120317498070028" fill="#ffbd11" stroke="none" /><path d="M 98.01472825383883 120.90594882070398 l -1.4377201896193401 15.139944826593299 a36.208056045922774,36.208056045922774 0 0,0 -0.6199636521138857,-0.06426176742003584 l 1.6981164383388192 -15.112953690717502" fill="#ffbd11" stroke="none" /><path d="M 97.65516085044442 120.86867818915974 l -1.7060145339855513 15.183245427526012 a36.27879011252722,36.27879011252722 0 0,0 -0.6199744236314486,-0.07507026870590103 l 1.9671163806683891 -15.151629630094764" fill="#ffbe11" stroke="none" /><path d="M 96.93821686468263 120.77559828337769 l -0.8186827740126041 5.555136886807679 a26.61513911810173,26.61513911810173 0 0,0 -0.452665389431237,-0.07069702429523682 l 0.9141840270523584 -5.540221555165336" fill="#ff3a05" stroke="none" /><path d="M 96.22490169976321 120.6578951692458 l -4.040754341591569 22.1116042430041 a43.477783205830775,43.477783205830775 0 0,0 -0.7350486230809903,-0.14087381804393556 l 4.420770579244254 -22.038773226611696" fill="#e7ff1a" stroke="none" /><path d="M 95.86986931433489 120.58985236759428 l -3.0247557100445523 15.079250091047884 a36.379627122066864,36.379627122066864 0 0,0 -0.6129248907524915,-0.1284443702142748 l 3.2838720622264304 -15.024949740107067" fill="#ffbf11" stroke="none" /><path d="M 95.51606077576429 120.51570834832081 l -3.3146678038291384 15.16585184013477 a36.52385534223573,36.52385534223573 0 0,0 -0.613043955934664,-0.1395268084709622 l 3.575231909156665 -15.106548298086123" fill="#ffc111" stroke="none" /><path d="M 94.11515582081647 120.15858648285463 l -8.571192337755106 29.360696178329263 a51.58620306881765,51.58620306881765 0 0,0 -0.8502512312250086,-0.25617372125089216 l 9.07531854342036 -29.208807087972644" fill="#8aff24" stroke="none" /><path d="M 93.76903079525671 120.05430185196036 l -4.581507753926389 14.7455293735675 a36.440882416689455,36.440882416689455 0 0,0 -0.5974199039103356,-0.1912749873333348 l 4.834649002927665 -14.664481539574458" fill="#ffc011" stroke="none" /><path d="M 93.42475214034765 119.94407469862007 l -4.747479273631739 14.4000778806334 a36.16248008809477,36.16248008809477 0 0,0 -0.5895005460099875,-0.19999059160892507 l 4.994649552578952 -14.316224302126352" fill="#ffbc11" stroke="none" /><path d="M 93.08242187328487 119.8279376855182 l -5.132513931934328 14.711386636810255 a36.58100112442135,36.58100112442135 0 0,0 -0.5927523397725029,-0.21253989992431987 l 5.384985832336558 -14.620859195845977" fill="#ffc212" stroke="none" /><path d="M 92.06813273071674 119.44442032107085 l -2.8224553721112775 6.919052819419567 a28.47258631569269,28.47258631569269 0 0,0 -0.45221048372407197,-0.1890240188720189 l 2.9411373153328118 -6.869443757527575" fill="#ff5507" stroke="none" /><path d="M 90.7491055286396 118.85261126421891 l -2.4257113246885145 4.94341307050291 a26.506487829491782,26.506487829491782 0 0,0 -0.4078794268168922,-0.20451921204399334 l 2.5104446591881673 -4.900926017549614" fill="#ff3905" stroke="none" /><path d="M 90.42595943632237 118.69057910512821 l -5.680018258434098 11.088612991739328 a33.45872969033019,33.45872969033019 0 0,0 -0.5103397861771242,-0.2669856559800136 l 5.870048947137717 -10.989197916814598" fill="#ff990e" stroke="none" /><line stroke="#e1ed5e" stroke-width="0.3" x1="58.666819895761336" x2="56.23545636021788" y1="174.27360380694188" y2="178.64263932499728" /><path d="M 58.180547188652646 175.14741091055294 a86.0,86.0 0 0,1 -31.652253787137756,-30.449443065178592" fill="none" id="id68" stroke="none" /><text fill="#e1ed5e" style="font-size:6.75px; font-family:Arial;" text-anchor="middle"><textPath startOffset="22.20632615414155" xlink:href="#id68">August</textPath></text><path d="M 89.4739219176387 118.17145234162733 l -5.1532557380592365 8.896204295242553 a31.280977364265155,31.280977364265155 0 0,0 -0.46360215149491585,-0.27390432275180865 l 5.305625760582534 -8.806181400196994" fill="#ff7b0b" stroke="none" /><path d="M 89.1626897886671 117.98757091392108 l -9.446272427485104 15.678751631924303 a39.304516259924334,39.304516259924334 0 0,0 -0.5765051687931179,-0.3541365610528202 l 9.71475679621053 -15.513826604043105" fill="#ffe415" stroke="none" /><path d="M 88.8546689885994 117.79835938074946 l -10.360598173033953 16.54519273537677 a40.52140868774174,40.52140868774174 0 0,0 -0.5879814587547049,-0.3752775863571198 l 10.643861433835582 -16.364400720195842" fill="#fff316" stroke="none" /><path d="M 87.95078237400918 117.19931262002967 l -8.444490119117868 12.053846978593073 a35.7174943640287,35.7174943640287 0 0,0 -0.500508690906907,-0.35709966163212303 l 8.650726137873662 -11.906703055116731" fill="#ffb610" stroke="none" /><path d="M 87.07902340077011 116.55440617244103 l -6.758557544577076 8.659090578293684 a31.984441256907616,31.984441256907616 0 0,0 -0.43109316416140503,-0.3424864818177921 l 6.906608201455838 -8.54147018247076" fill="#ff850c" stroke="none" /><path d="M 86.51685102203217 116.09983520530335 l -5.884829590535932 7.026903490700811 a30.165620108714442,30.165620108714442 0 0,0 -0.39521921487470035,-0.3368143890139817 l 6.0049142819876895 -6.924564711463878" fill="#ff6c0a" stroke="none" /><path d="M 85.97065885151581 115.62618273729859 l -9.935443176176813 11.066310884011793 a35.87199608958516,35.87199608958516 0 0,0 -0.4559167579920718,-0.41646914874375823 l 10.12445948363574 -10.89364896868146" fill="#ffb811" stroke="none" /><path d="M 85.70375840098266 115.38237550388516 l -10.202549872949811 10.977672149414234 a35.98670443193076,35.98670443193076 0 0,0 -0.4501151282208278,-0.42561194850253836 l 10.390000835561455 -10.800425564165764" fill="#ffba11" stroke="none" /><path d="M 85.44109423537348 115.13401014063109 l -10.285131273240237 10.691413455338946 a35.83543888736653,35.83543888736653 0 0,0 -0.4408613020564504,-0.43147557306643675 l 10.467642527672483 -10.51278777934994" fill="#ffb811" stroke="none" /><path d="M 85.18274418774928 114.88116024355367 l -7.2971228830638495 7.328594195559129 a31.341967668375155,31.341967668375155 0 0,0 -0.37902792945667807,-0.38395329143048434 l 7.422191437576061 -7.20190041014798" fill="#ff7c0b" stroke="none" /><path d="M 84.9287848128048 114.62390073753433 l -13.51676692280019 13.115588578375544 a39.83405563872318,39.83405563872318 0 0,0 -0.47325409113654904,-0.49620502251174836 l 13.740527565315698 -12.880976439281294" fill="#ffeb16" stroke="none" /><path d="M 84.19399662182784 113.82643327865904 l -15.816042462997421 13.835215051836867 a42.01333801950349,42.01333801950349 0 0,0 -0.4714646572490848,-0.5484199091339745 l 16.051849629817287 -13.560918043541362" fill="#f8ff18" stroke="none" /><path d="M 83.95833913139862 113.55231037782056 l -12.424317554517412 10.496307652345026 a37.264567040907245,37.264567040907245 0 0,0 -0.409739885332427,-0.49355808718847194 l 12.603153439743375 -10.280888308042794" fill="#ffca12" stroke="none" /><path d="M 83.72743513129214 113.27417163493432 l -11.516733424070107 9.39465274087617 a35.86252498341872,35.86252498341872 0 0,0 -0.38608926320171516,-0.4817057197822242 l 11.676740599326685 -9.195019187515685" fill="#ffb811" stroke="none" /><path d="M 83.28015986056508 112.70617746262583 l -12.439854163983439 9.453618772583585 a36.62436813181643,36.62436813181643 0 0,0 -0.37712414156747043,-0.5052194163760461 l 12.600739572245995 -9.238086476698232" fill="#ffc212" stroke="none" /><path d="M 83.06392112726016 112.41649034213515 l -24.79565357692683 18.178646632331976 a51.745530239209714,51.745530239209714 0 0,0 -0.5204619828933409,-0.7228761733474313 l 25.10489535219578 -17.749136853533404" fill="#88ff25" stroke="none" /><path d="M 82.85270091963577 112.12312394758628 l -11.941817620426317 8.442853565065535 a35.62493707339161,35.62493707339161 0 0,0 -0.3496996290816672,-0.5037683975229273 l 12.085378156670117 -8.236043905355595" fill="#ffb510" stroke="none" /><path d="M 82.6465618267979 111.8261652097733 l -15.330023327997182 10.447231651566156 a39.55139521487329,39.55139521487329 0 0,0 -0.37855750546963945,-0.5658921073202837 l 15.507583938877552 -10.181802630040051" fill="#ffe715" stroke="none" /><path d="M 82.24976979558568 111.22182372390057 l -13.894180738452953 8.784001403889299 a37.43797247401048,37.43797247401048 0 0,0 -0.3396789321636541,-0.5476705947743941 l 14.043324310284563 -8.54353447774964" fill="#ffcd13" stroke="none" /><path d="M 82.05923443525364 110.91462005526583 l -12.54759331194476 7.633576901366072 a35.687191502497356,35.687191502497356 0 0,0 -0.31475954089914576,-0.5275550954819356 l 12.677133728542138 -7.416459711998026" fill="#ffb610" stroke="none" /><line stroke="#e1ed5e" stroke-width="0.3" x1="26.63291911575756" x2="22.317208475507996" y1="142.92168965132927" y2="145.44649492493687" /><path d="M 25.769776987707644 143.4266507060508 a86.0,86.0 0 0,1 -11.730757126820373,-40.83630448921669" fill="none" id="id69" stroke="none" /><text fill="#e1ed5e" style="font-size:6.75px; font-family:Arial;" text-anchor="middle"><textPath startOffset="21.46611528233685" xlink:href="#id69">September</textPath></text><path d="M 81.87401531095188 110.60418214915194 l -13.68550875360963 8.006385866295846 a36.85545220058853,36.85545220058853 0 0,0 -0.31563711948463447,-0.5503399229534454 l 13.821297869246642 -7.7696260974840925" fill="#ffc512" stroke="none" /><path d="M 81.69416730710424 110.29060199501025 l -13.887297200762715 7.80672754290658 a36.931165006724655,36.931165006724655 0 0,0 -0.3067460192195915,-0.5568331252877955 l 14.019619629433823 -7.566523899220962" fill="#ffc612" stroke="none" /><path d="M 81.51974371655577 109.97397251340807 l -14.300193404177834 7.717952270903606 a37.249994420086345,37.249994420086345 0 0,0 -0.29968062504336085,-0.5668828049897704 l 14.43092653744608 -7.470654450827709" fill="#ffca12" stroke="none" /><path d="M 81.35079622478065 109.6543875284942 l -14.404921329794078 7.457191980501496 a37.22071116664162,37.22071116664162 0 0,0 -0.28965038715970143,-0.5715076930054492 l 14.531150386740046 -7.2081300757933615" fill="#ffca12" stroke="none" /><path d="M 81.18737489456691 109.33194174019688 l -14.493016550387 7.1892139098047005 a37.17814344635134,37.17814344635134 0 0,0 -0.279449946100828,-0.5757496593076346 l 14.614619753102547 -6.938675294531781" fill="#ffc912" stroke="none" /><path d="M 81.02952815118164 109.00673069616217 l -14.231592775523538 6.756823158016054 a36.7541388884647,36.7541388884647 0 0,0 -0.2664244226199412,-0.5738545040940215 l 14.345791814983306 -6.510848586643205" fill="#ffc412" stroke="none" /><path d="M 80.87730276802145 108.67885076344099 l -14.503140067679047 6.582261211466385 a36.926934246071724,36.926934246071724 0 0,0 -0.2577129251096964,-0.5810746118971066 l 14.614294077520023 -6.331638263076583" fill="#ffc612" stroke="none" /><path d="M 80.73074385275274 108.34839909993369 l -14.632595656928755 6.339567416537187 a36.94687965364981,36.94687965364981 0 0,0 -0.2478062736772622,-0.5857408301831766 l 14.739552911798324 -6.086752060687851" fill="#ffc612" stroke="none" /><path d="M 80.58989483394504 108.01547362559985 l -14.520957597905968 5.996482329627964 a36.71037904984229,36.71037904984229 0 0,0 -0.23616553520257397,-0.5861434905782072 l 14.62202574736593 -5.745639471206952" fill="#ffc312" stroke="none" /><path d="M 80.45479744820244 107.68017299344265 l -15.01002643732547 5.898102072326955 a37.127259584467446,37.127259584467446 0 0,0 -0.22860795463277891,-0.5968232316087607 l 15.109328671551758 -5.638855273885037" fill="#ffc912" stroke="none" /><path d="M 80.32549172779594 107.34259656027581 l -15.578552501448085 5.8139712783985384 a37.628095503286524,37.628095503286524 0 0,0 -0.2212455666302046,-0.6087727781764674 l 15.676322329083515 -5.544950703215954" fill="#ffcf13" stroke="none" /><path d="M 80.20201598880116 107.00284435728193 l -14.938334095951443 5.283913178829326 a36.84530100830122,36.84530100830122 0 0,0 -0.20634977310633015,-0.5997490308347052 l 15.027074700001002 -5.025991444905324" fill="#ffc512" stroke="none" /><path d="M 80.0844068197444 106.66101706037122 l -15.221329134947457 5.090962249114858 a37.050132624259305,37.050132624259305 0 0,0 -0.19708509119073478,-0.6065655405804106 l 15.306706477154442 -4.828197808556643" fill="#ffc812" stroke="none" /><path d="M 79.97269907076064 106.31721596034903 l -15.053207863178047 4.748236684698958 a36.78432192354066,36.78432192354066 0 0,0 -0.18527602147744773,-0.605492758187161 l 15.132710657161624 -4.488416953959749" fill="#ffc412" stroke="none" /><path d="M 79.86692584326677 105.97154293290107 l -15.193011170236 4.506302305193067 a36.84721896373948,36.84721896373948 0 0,0 -0.17512494108815135,-0.6096328941617414 l 15.268328748210255 -4.244111935526729" fill="#ffc512" stroke="none" /><path d="M 79.76711848015287 105.62410040840567 l -15.253448031569768 4.239975567483797 a36.83177405298153,36.83177405298153 0 0,0 -0.16453617026929998,-0.6123002985297991 l 15.324172278180843 -3.976784335778459" fill="#ffc512" stroke="none" /><path d="M 79.67330655649465 105.27499134158121 l -34.65689972969346 8.993831018718543 a56.80488367900796,56.80488367900796 0 0,0 -0.237467908562009,-0.9485662520236929 l 34.806578952550524 -8.395936927297457" fill="#53ff2b" stroke="none" /><path d="M 79.58551787078972 104.9243191809786 l -15.305931620297168 3.69205019179646 a36.74492862428906,36.74492862428906 0 0,0 -0.1430242700319777,-0.6161448120048435 l 15.3672164562597 -3.4280367224430424" fill="#ffc412" stroke="none" /><path d="M 79.29508885075956 103.50808413554451 l -11.956307236009756 2.025786608404768 a33.12670994559742,33.12670994559742 0 0,0 -0.09041737608876312,-0.5630290872148624 l 11.98940636645981 -1.8196782914966918" fill="#ff940d" stroke="none" /><path d="M 79.23777060512086 103.15116336523772 l -15.64435032637346 2.3744031858915804 a36.82351059731921,36.82351059731921 0 0,0 -0.08971951736248383,-0.6274980954680183 l 15.682903894752542 -2.104759618443161" fill="#ffc512" stroke="none" /><path d="M 79.04373962182676 101.35467743843564 l -16.023901319611397 1.0358345049007682 a37.05734618865107,37.05734618865107 0 0,0 -0.03566972347126951,-0.6369068741444449 l 16.0393573939702 -0.7598559144208857" fill="#ffc812" stroke="none" /><path d="M 79.0235259727143 100.99374915477108 l -22.371068841034322 1.0598173326549358 a43.39615890881498,43.39615890881498 0 0,0 -0.028926365103512774,-0.7464609519076294 l 22.38599733898904 -0.6745791337333098" fill="#e8ff1a" stroke="none" /><line stroke="#e1ed5e" stroke-width="0.3" x1="15.007084014347285" x2="10.007500721073583" y1="101.09737516637583" y2="101.16192664675087" /><path d="M 14.007167355692545 101.11028546245083 a86.0,86.0 0 0,1 10.666146001902534,-42.60595125391555" fill="none" id="id70" stroke="none" /><text fill="#e1ed5e" style="font-size:6.75px; font-family:Arial;" text-anchor="middle"><textPath startOffset="22.20632615414155" xlink:href="#id70">October</textPath></text><path d="M 79.00175016825051 100.2711162175752 l -28.705687598931902 0.3706298147262996 a49.708080168953074,49.708080168953074 0 0,0 -0.0036824283358305623,-0.8556666589413515 l 28.707814324557233 0.12354632241872734" fill="#9eff22" stroke="none" /><path d="M 79.00019446554 99.90962569577889 l -7.201851091500438 -0.03099372898622436 a28.201917783159047,28.201917783159047 0 0,0 0.006267530931465452,-0.48542717770340893 l 7.200250553451257 0.1549571647501053" fill="#ff5107" stroke="none" /><path d="M 79.00486145842228 99.54816195383935 l -2.6319898853709303 -0.05664326362817242 a23.63259932690285,23.63259932690285 0 0,0 0.01225328391803024,-0.40662683955971346 l 2.6306249069972547 0.1019402506128803" fill="#ff0f01" stroke="none" /><path d="M 79.01574976396665 99.18683210126434 l -8.261192658563285 -0.3201323182697695 a29.267393110473257,29.267393110473257 0 0,0 0.02384092821580731,-0.5032443138233408 l 8.254458122113979 0.4622877387161194" fill="#ff6008" stroke="none" /><path d="M 79.12142395522702 97.74499172005258 l -14.50226605994514 -1.5663295223317693 a35.586607180765675,35.586607180765675 0 0,0 0.07102010213075416,-0.6084568638108264 l 14.473155604810795 1.8157301244674573" fill="#ffb510" stroke="none" /><path d="M 79.21141760316559 97.0276538004421 l -13.95382956871152 -1.9951149864915314 a35.095738485158236,35.095738485158236 0 0,0 0.09065414181977645,-0.5972975278976461 l 13.91741953345244 2.2350116267812696" fill="#ffae10" stroke="none" /><path d="M 79.26566170972629 96.67025291283419 l -20.731048900481802 -3.3292188409336507 a41.99666846442538,41.99666846442538 0 0,0 0.1207666967104287,-0.7127718801957 l 20.67067034225115 3.6855765094451787" fill="#f8ff18" stroke="none" /><path d="M 79.32604984820605 96.31383870115002 l -7.136024136630517 -1.2723517183204707 a28.248566711680756,28.248566711680756 0 0,0 0.08947299835292506,-0.47796833490100843 l 7.11306541436773 1.3949981306840518" fill="#ff5207" stroke="none" /><path d="M 79.3925641242962 95.95851677861259 l -16.03416979352642 -3.1445847304960113 a37.33961486984634,37.33961486984634 0 0,0 0.12912519629100855,-0.6296603149950284 l 15.977665301320418 3.420120701654442" fill="#ffcb13" stroke="none" /><path d="M 79.54389044137918 95.25157060432595 l -15.003769029634164 -3.48279020026045 a36.402691734681945,36.402691734681945 0 0,0 0.1469406781579891,-0.6091639753770308 l 14.941595551215359 3.7405394072968776" fill="#ffbf11" stroke="none" /><path d="M 80.14247586403 93.16781622104843 l -14.02130901539443 -4.8241744216802775 a35.82800611532027,35.82800611532027 0 0,0 0.20566455990138865,-0.5814414059287163 l 13.936191374683231 5.064813454035605" fill="#ffb811" stroke="none" /><path d="M 80.2630227832202 92.82701384747504 l -29.02932119818338 -10.550091672332686 a51.88698631336379,51.88698631336379 0 0,0 0.3122989041184778,-0.836805797791026 l 28.843417705563272 11.048220607153054" fill="#86ff25" stroke="none" /><path d="M 80.38941819471856 92.48833698450439 l -5.586887551633718 -2.1400087468102322 a26.982720948784433,26.982720948784433 0 0,0 0.16987094053198654,-0.43230301494468826 l 5.549223061220041 2.2358607666506836" fill="#ff4006" stroke="none" /><path d="M 80.52162464483688 92.15188598940014 l -2.8235046843017493 -1.1376301291980775 a24.044073095891942,24.044073095891942 0 0,0 0.15797907838838474,-0.3825588691055656 l 2.8035039190271647 1.1860635687569543" fill="#ff1502" stroke="none" /><path d="M 80.65960295795068 91.81776055985345 l -13.425570143004752 -5.679884921271885 a35.5776207380914,35.5776207380914 0 0,0 0.24346831532178265,-0.561958439638022 l 13.325811117840288 5.910142505496506" fill="#ffb510" stroke="none" /><path d="M 80.803312248108 91.48605970444005 l -13.601600841016339 -6.032458254317209 a35.87931779445604,35.87931779445604 0 0,0 0.255251759401301,-0.5624134169379037 l 13.495746764651686 6.2656936800971845" fill="#ffb911" stroke="none" /><path d="M 80.95270993114464 91.15688171328213 l -20.222025318697753 -9.388514651890025 a43.29516798229622,43.29516798229622 0 0,0 0.3196457638999989,-0.6732554986064775 l 20.057421360956003 9.735212566137035" fill="#e9ff1a" stroke="none" /><path d="M 81.26839172434947 90.50648371742162 l -14.825153610502207 -7.51365473385336 a37.620474934084875,37.620474934084875 0 0,0 0.29772228828958514,-0.5751046978744072 l 14.693621889052507 7.767732153988103" fill="#ffcf13" stroke="none" /><path d="M 81.43458229118936 90.18545643968196 l -5.946898033712516 -3.143806981134729 a27.7267465061503,27.7267465061503 0 0,0 0.2266884671489781,-0.4200193016155396 l 5.8919014673450665 3.2457072660827415" fill="#ff4a06" stroke="none" /><line stroke="#e1ed5e" stroke-width="0.3" x1="26.266209847984243" x2="21.928928074336255" y1="57.711370442889674" y2="55.22380399835377" /><path d="M 25.398753493254645 57.213857153982495 a86.0,86.0 0 0,1 29.58750427330803,-30.492523968695096" fill="none" id="id71" stroke="none" /><text fill="#e1ed5e" style="font-size:6.75px; font-family:Arial;" text-anchor="middle"><textPath startOffset="21.46611528233685" xlink:href="#id71">November</textPath></text><path d="M 81.78341655067845 89.55222093294921 l -12.847808361511955 -7.368619018506676 a35.81089889014285,35.81089889014285 0 0,0 0.311282530519855,-0.5320827483732256 l 12.719066156521775 7.588681179233793" fill="#ffb811" stroke="none" /><path d="M 82.15384107792192 88.93136811851018 l -12.914880060439767 -8.010130012108794 a36.19724678309959,36.19724678309959 0 0,0 0.33296710335092583,-0.5266739952783392 l 12.77508536084288 8.23125165510135" fill="#ffbd11" stroke="none" /><path d="M 82.34701348167596 88.62581576622439 l -12.350177315031653 -7.957474615139655 a35.691775997588394,35.691775997588394 0 0,0 0.3372080213320457,-0.5135909510012713 l 12.211372658341688 8.168883630118593" fill="#ffb610" stroke="none" /><path d="M 82.54541684631803 88.32363383020206 l -12.685875120168008 -8.486305389433765 a36.262660538950286,36.262660538950286 0 0,0 0.3515328807376137,-0.5158311256032914 l 12.537917773761654 8.703414538307472" fill="#ffbe11" stroke="none" /><path d="M 82.95767976084542 87.72973835380427 l -4.666669648220595 -3.3599449368677905 a26.750394385118888,26.750394385118888 0 0,0 0.2722647338145372,-0.37136879094576997 l 4.608142301892425 3.439776171485061" fill="#ff3c05" stroke="none" /><path d="M 83.39014120810768 87.1503855733568 l -9.7132349623584 -7.5142917026253775 a33.28053391453833,33.28053391453833 0 0,0 0.3544312193162121,-0.4500916554777351 l 9.582449662448216 7.68037575205616" fill="#ff960d" stroke="none" /><path d="M 83.84228863543731 86.58626213691792 l -22.43200428271104 -18.62250280393991 a50.15462959501143,50.15462959501143 0 0,0 0.5571687032857495,-0.6595120046347184 l 22.108124965938167 19.005873758203744" fill="#9aff23" stroke="none" /><path d="M 84.07557802195018 86.31012108654704 l -12.267362669477402 -10.54598463693345 a37.17732916234704,37.17732916234704 0 0,0 0.4213574681468243,-0.4816844250951094 l 12.084013337752733 10.755584618231502" fill="#ffc912" stroke="none" /><path d="M 84.31358615837235 86.03803664274999 l -5.4593866216134055 -4.859221281141349 a28.30868892095897,28.30868892095897 0 0,0 0.3271087329758479,-0.36120163297257885 l 5.374934248021512 4.952475701383484" fill="#ff5207" stroke="none" /><path d="M 84.5562425177563 85.77008943001954 l -15.166965366883215 -13.974873733732291 a41.62362563454825,41.62362563454825 0 0,0 0.49003430642516876,-0.5227344314404357 l 14.92416373848759 14.233877582050779" fill="#fdff18" stroke="none" /><path d="M 84.80347519578584 85.50635884689758 l -10.49588245322871 -10.010417238292248 a35.504206347011646,35.504206347011646 0 0,0 0.42560369173339974,-0.4386220159519701 l 10.32201449779219 10.189603449794342" fill="#ffb410" stroke="none" /><path d="M 85.05521093208273 85.24692304244772 l -6.703402022449033 -6.617410621532746 a30.419433210578447,30.419433210578447 0 0,0 0.3710652270357946,-0.3694717550267621 l 6.5885009952459255 6.731818227209617" fill="#ff700a" stroke="none" /><path d="M 85.31137513191541 84.99185889309783 l -7.027519147072259 -7.180386178959631 a31.047087689547737,31.047087689547737 0 0,0 0.3851565038172146,-0.37052025151305845 l 6.902879399642617 7.300289517235003" fill="#ff780b" stroke="none" /><path d="M 85.57189188830299 84.74124197986013 l -21.499577518278663 -22.7373435482296 a52.29246914346472,52.29246914346472 0 0,0 0.6593635031471529,-0.6128065161447463 l 21.105006131336655 23.104054650448994" fill="#82ff25" stroke="none" /><path d="M 85.83668400450813 84.49514656593479 l -9.947508146908506 -10.889727794047548 a35.7492064112366,35.7492064112366 0 0,0 0.4579116060374429,-0.41111756114406156 l 9.758585553275092 11.05934436396089" fill="#ffb711" stroke="none" /><path d="M 86.10567301691215 84.25364557470407 l -7.938792502661491 -8.996984208587318 a32.99875623762246,32.99875623762246 0 0,0 0.4291507126399123,-0.37215526907998436 l 7.782747991374805 9.132304471086982" fill="#ff930d" stroke="none" /><path d="M 86.65592168130627 83.78471172551755 l -10.279301453501887 -12.491071496135842 a37.17686327733357,37.17686327733357 0 0,0 0.49763285329955675,-0.40238449265632537 l 10.062765201637829 12.666162086056302" fill="#ffc912" stroke="none" /><path d="M 86.93701828274178 83.55741782278169 l -9.5421045641917 -12.010798287579844 a36.33985120589176,36.33985120589176 0 0,0 0.4931273592395067,-0.3848937257429949 l 9.333944649792766 12.173270402546061" fill="#ffbf11" stroke="none" /><path d="M 87.51073957382395 83.11751280151077 l -8.925695132614578 -12.065400886201303 a36.00806223818141,36.00806223818141 0 0,0 0.5014631643133659,-0.3643343151018016 l 8.71668665194743 12.217254436119772" fill="#ffba11" stroke="none" /><path d="M 88.09926311788651 82.69761687909137 l -13.88164283147609 -20.182405929737595 a45.49549992985199,45.49549992985199 0 0,0 0.649058962124346,-0.4382475085631409 l 13.532179174945204 20.4183653505994" fill="#cfff1d" stroke="none" /><path d="M 88.39885842347998 82.49532879139004 l -9.072089467944176 -13.688647988993184 a37.421994126200104,37.421994126200104 0 0,0 0.5400046752926358,-0.3512340620176001 l 8.835117766867253 13.842780975170319" fill="#ffcc13" stroke="none" /><path d="M 88.70189139769569 82.29822771554957 l -5.654014709379111 -8.858658064054106 a31.50922000101369,31.50922000101369 0 0,0 0.4597057872380987,-0.2878677217950087 l 5.50068976976877 8.954670127172045" fill="#ff7e0b" stroke="none" /><path d="M 89.00827224532344 82.1063720568725 l -5.611033351083468 -9.134300394044093 a31.720034466157514,31.720034466157514 0 0,0 0.46770123483837933,-0.2817847608452924 l 5.45297005002744 9.229531764348003" fill="#ff810b" stroke="none" /><line stroke="#e1ed5e" stroke-width="0.3" x1="56.762969772571076" x2="54.21961505331055" y1="26.818313649435495" y2="22.513508569990535" /><path d="M 56.25429882871897 25.957352633546506 a86.0,86.0 0 0,1 42.265352541879196,-11.944610805530505" fill="none" id="id72" stroke="none" /><text fill="#e1ed5e" style="font-size:6.75px; font-family:Arial;" text-anchor="middle"><textPath startOffset="22.20632615414155" xlink:href="#id72">December</textPath></text><path d="M 89.63071344664047 81.73862282372117 l -7.4197815756939764 -13.066996386116193 a36.02662813760231,36.02662813760231 0 0,0 0.5419020943156097,-0.30156792878169 l 7.193755392306321 13.192779712458067" fill="#ffba11" stroke="none" /><path d="M 89.94658935756843 81.56283822128135 l -6.707905742027628 -12.301769793444596 a35.01176432483908,35.01176432483908 0 0,0 0.5316035468932621,-0.28396420415367657 l 6.495157148606061 12.41541272410002" fill="#ffad10" stroke="none" /><path d="M 90.26544431104013 81.39251694778311 l -5.673318351347003 -10.84447800655605 a33.23884162616743,33.23884162616743 0 0,0 0.5092499379960672,-0.26085759761648747 l 5.485807925762172 10.940528129485044" fill="#ff960d" stroke="none" /><path d="M 90.91171255644093 81.06846463323043 l -6.46100951254954 -13.458732555664598 a35.92923728547985,35.92923728547985 0 0,0 0.5598490138664531,-0.2628566187659992 l 6.228382287383479 13.567954157070606" fill="#ffb911" stroke="none" /><path d="M 91.23893434514133 80.91482961587045 l -6.030442570088749 -13.136760809231543 a35.45478198210199,35.45478198210199 0 0,0 0.5568390992171075,-0.2498374723485704 l 5.803421352404868 13.238618612096642" fill="#ffb310" stroke="none" /><path d="M 91.90106846888425 80.62456947434976 l -9.27311750539386 -22.184487335355612 a45.04458746997743,45.04458746997743 0 0,0 0.7179595244732652,-0.2928737169227177 l 8.889874111332214 22.340821938461907" fill="#d4ff1c" stroke="none" /><path d="M 92.23578459929587 80.48803036053334 l -5.4984581194820334 -13.817976750295031 a35.87176933533438,35.87176933533438 0 0,0 0.5756852460598122,-0.223356931664293 l 5.259789708422545 13.910576385849875" fill="#ffb811" stroke="none" /><path d="M 92.57280143429618 80.3572730644239 l -2.7525316223737475 -7.279625899526804 a28.782633459776253,28.782633459776253 0 0,0 0.4649322847793297,-0.17123848420918336 l 2.6268170118218483 7.32592765154231" fill="#ff5908" stroke="none" /><path d="M 93.59665428221793 80.00007090966166 l -4.692022913074588 -14.654858520466993 a36.38765600316439,36.38765600316439 0 0,0 0.5981691002410766,-0.18585405118288015 l 4.439068440122783 14.733452706532399" fill="#ffbf11" stroke="none" /><path d="M 93.94186890950719 79.89281104454417 l -4.229115255770808 -14.036609358888466 a35.65987101377869,35.65987101377869 0 0,0 0.5892535274524868,-0.1720192630590207 l 3.9868715105949004 14.107326950866184" fill="#ffb610" stroke="none" /><path d="M 94.28887869178378 79.79150937346287 l -6.860878108346386 -24.27684222761432 a46.227697416967416,46.227697416967416 0 0,0 0.7676045555058861,-0.20981532144983178 l 6.441975663616777 24.39134408989045" fill="#c6ff1e" stroke="none" /><path d="M 94.63758080256005 79.69619591428918 l -2.878186175940579 -10.897717259105262 a32.271388429238705,32.271388429238705 0 0,0 0.538303834121718,-0.13722563315246822 l 2.6901734531338612 10.945645888426593" fill="#ff890c" stroke="none" /><path d="M 95.33964822691252 79.52364482259891 l -2.4212618686947707 -10.638385344041563 a31.91044232673972,31.91044232673972 0 0,0 0.5366383277698847,-0.11728835321021823 l 2.2377808167713646 10.67848719534765" fill="#ff840c" stroke="none" /><path d="M 96.40284397218896 79.31037775812273 l -0.6704796747034899 -3.8563718346444458 a24.9142236422092,24.9142236422092 0 0,0 0.42315123451905234,-0.06982357939532899 l 0.6039992340455519 3.8673416769794016" fill="#ff2203" stroke="none" /><path d="M 96.75951476605007 79.25152402106235 l -3.329514175018272 -21.318518645953702 a42.576953026308495,42.576953026308495 0 0,0 0.7250875771923921,-0.10685906057646587 l 2.962057617397231 21.372672190691137" fill="#f1ff19" stroke="none" /><path d="M 97.11714578562143 79.19881850522333 l -2.4368170072378006 -17.582808240630555 a38.750865408580765,38.750865408580765 0 0,0 0.6615054526928829,-0.08588239309315238 l 2.13379682603706 17.622148956887845" fill="#ffdd14" stroke="none" /><path d="M 97.83486435360386 79.11191278185805 l -1.4910114127081786 -14.384492021889297 a35.46156028098707,35.46156028098707 0 0,0 0.6077011666334355,-0.05770854824975402 l 1.2431851189845067 14.408026114654232" fill="#ffb310" stroke="none" /><path d="M 98.19473922651362 79.07773832637324 l -1.2780642167078795 -14.812261126141847 a35.867297259792785,35.867297259792785 0 0,0 0.6155678958803232,-0.04777991604053294 l 1.0229061314652221 14.83206630437084" fill="#ffb811" stroke="none" /><path d="M 98.55514903715128 79.0497635885617 l -1.0338790449934314 -14.991172771715407 a36.02678165646583,36.02678165646583 0 0,0 0.619039527610542,-0.03734215482908619 l 0.7756774685432664 15.0067481959248" fill="#ffba11" stroke="none" /><path d="M 99.63851952072746 79.00311137660856 l -0.304429042364193 -17.683009353950013 a38.68562967082932,38.68562967082932 0 0,0 0.6659095216367243,-0.005731693487866157 l 4.331729953457317e-15 17.68562967082932" fill="#ffdc14" stroke="none" /></svg>