<?xml version="1.0" encoding="utf-8" ?>
<svg baseProfile="full" height="200mm" version="1.1" viewBox="0,0,200,200" width="200mm" xmlns="http://www.w3.org/2000/svg" xmlns:ev="http://www.w3.org/2001/xml-events" xmlns:xlink="http://www.w3.org/1999/xlink"><defs /><rect fill="#1a1a1a" height="200" width="200" x="0" y="0" /><text alignment-baseline="middle" fill="#e1ed5e" style="dominant-baseline: central; font-size:9.0px; font-family:Arial;" text-anchor="middle" x="100.0" y="100.0">2025</text><line stroke="#e1ed5e" stroke-width="0.3" x1="100.0" x2="100.0" y1="15.0" y2="10.0" /><path d="M 100.0 14.0 a86.0,86.0 0 0,1 42.46469731375804,11.215312516191453" fill="none" id="id133" stroke="none" /><text fill="#e1ed5e" style="font-size:6.75px; font-family:Arial;" text-anchor="middle"><textPath startOffset="22.20632615414155" xlink:href="#id133">January</textPath></text><path d="M 100.0 79.0 l 0.0 -17.37210210657497 a38.37210210657497,38.37210210657497 0 0,0 0.6605126600085294,0.005685240995982375 l -0.29903218073600096 17.36952824218755" fill="red" stroke="none" /><path d="M 100.36148047927253 79.00311137660856 l 0.2820460405641674 -16.38287442882792 a37.38530208814417,37.38530208814417 0 0,0 0.6433358290404283,0.01661546643853932 l -0.5640085047994635 16.375592170247025" fill="red" stroke="none" /><path d="M 102.16513564639614 79.11191278185805 l 3.6353971773260234 -35.072395320343695 a56.26030382942518,56.26030382942518 0 0,0 0.9624083050566112,0.1081377867394787 l -4.23857218589236 35.004621580133616" fill="red" stroke="none" /><path d="M 102.52436894288641 79.15227682838746 l 4.423209172328658 -36.529462388887744 a57.79628244542289,57.79628244542289 0 0,0 0.9866245716040302,0.12809218570900718 l -5.051348472440534 36.4479118800146" fill="red" stroke="none" /><path d="M 103.2404852339499 79.25152402106235 l 1.6413285618724212 -10.509249010847574 a31.63664769652633,31.63664769652633 0 0,0 0.5373270594773701,0.08866356880967094 l -1.8219848274886665 10.479439179098279" fill="red" stroke="none" /><path d="M 105.01212808612495 79.60689891045804 l 8.863299522872211 -36.06255866788236 a58.13578080647563,58.13578080647563 0 0,0 0.9697355840887685,0.24720719244770062 l -9.482743995646004 35.90464847926579" fill="red" stroke="none" /><path d="M 105.36241919743992 79.69619591428918 l 6.295851028193981 -23.838070304219944 a45.655452459813915,45.655452459813915 0 0,0 0.7581025067230303,0.20721805257550313 l -6.705251424140722 23.726165710818147" fill="red" stroke="none" /><path d="M 105.71112130821622 79.79150937346287 l 17.13336392464865 -60.62547187961136 a84.0,84.0 0 0,0 1.3880391291062915,0.40520668432518603 l -18.174393271478365 60.321566866367476" fill="red" stroke="none" /><path d="M 106.0581310904928 79.89281104454417 l 10.905471436447243 -36.195713091301585 a58.802896098566144,58.802896098566144 0 0,0 0.9666485647712796,0.30034241447854104 l -11.52690537392924 36.00263054194052" fill="red" stroke="none" /><path d="M 106.40334571778207 80.00007090966166 l 10.70534070934735 -33.436591511885354 a56.10854556423398,56.10854556423398 0 0,0 0.9172870243426445,0.3024151099831712 l -11.279310555932412 33.24736267764295" fill="red" stroke="none" /><path d="M 106.74666289553966 80.11325718540242 l 11.823090771278245 -34.85023174901724 a57.80114303042902,57.80114303042902 0 0,0 0.9394557286665767,0.3277576570349854 l -12.421228504008095 34.64155323881005" fill="red" stroke="none" /><path d="M 107.08798089147638 80.2323363322302 l 11.393213380428344 -31.774522765753495 a54.755378950966595,54.755378950966595 0 0,0 0.8844758237708624,0.325759910293339 l -11.938471529971782 31.573699587653834" fill="red" stroke="none" /><path d="M 108.43124777332544 80.76684994638697 l 16.16972945626637 -36.885979551284834 a61.27450357418017,61.27450357418017 0 0,0 0.9623536648017051,0.4317800374605146 l -16.802265239534854 36.60217918330779" fill="red" stroke="none" /><path d="M 109.73455568895987 81.39251694778311 l 5.72825864033526 -10.949495690865197 a33.357362296819296,33.357362296819296 0 0,0 0.5064838191947898,0.2705461155684112 l -5.915887506058361 10.849270848795031" fill="red" stroke="none" /><line stroke="#e1ed5e" stroke-width="0.3" x1="143.23703022742887" x2="145.7803849466894" y1="26.81831364943548" y2="22.513508569990506" /><path d="M 143.74570117128098 25.957352633546492 a86.0,86.0 0 0,1 28.547481713284135,27.462654790039103" fill="none" id="id134" stroke="none" /><text fill="#e1ed5e" style="font-size:6.75px; font-family:Arial;" text-anchor="middle"><textPath startOffset="19.985693538727396" xlink:href="#id134">February</textPath></text><path d="M 110.68208982089419 81.91981866633111 l 18.20801477672458 -30.81833371643989 a56.795271966661694,56.795271966661694 0 0,0 0.8374271743030696,0.5045405024809922 l -18.735804017245286 30.500346604500287" fill="red" stroke="none" /><path d="M 111.2981086023043 82.29822771554956 l 1.8211252612696474 -2.8533222516449097 a24.38495865395228,24.38495865395228 0 0,0 0.3518784070016436,0.2288715040485439 l -1.869970694055571 2.8215518234368377" fill="red" stroke="none" /><path d="M 113.06298171725822 83.55741782278167 l 21.732094922583272 -27.354532401709935 a55.93643359932963,55.93643359932963 0 0,0 0.7487400657711699,0.6054290618055952 l -22.19973838691893 26.97639724264021" fill="red" stroke="none" /><path d="M 114.42810811169701 84.74124197986012 l 6.101598051190332 -6.452877083987954 a29.880828871189138,29.880828871189138 0 0,0 0.37068841027117144,0.3566019569848244 l -6.211769705073922 6.346892040240828" fill="red" stroke="none" /><path d="M 114.68862486808459 84.99185889309783 l 24.663254785223224 -25.19974546945989 a56.26050635380043,56.26050635380043 0 0,0 0.6862822663001216,0.6833351521488428 l -25.093372851690667 24.77147446666093" fill="red" stroke="none" /><line stroke="#e1ed5e" stroke-width="0.3" x1="172.23445277983987" x2="176.4835382374775" y1="55.19839476539836" y2="52.563006222186495" /><path d="M 173.08426987136738 54.67131705675599 a86.0,86.0 0 0,1 12.851231095245387,41.99856678651699" fill="none" id="id135" stroke="none" /><text fill="#e1ed5e" style="font-size:6.75px; font-family:Arial;" text-anchor="middle"><textPath startOffset="22.20632615414155" xlink:href="#id135">March</textPath></text><line stroke="#e1ed5e" stroke-width="0.3" x1="184.98032266829074" x2="189.97916517819016" y1="98.17113171792111" y2="98.06355123074" /><path d="M 185.9800911702706 98.14961562048488 a86.0,86.0 0 0,1 -9.607161424134198,41.387399972396054" fill="none" id="id136" stroke="none" /><text fill="#e1ed5e" style="font-size:6.75px; font-family:Arial;" text-anchor="middle"><textPath startOffset="21.466115282336823" xlink:href="#id136">April</textPath></text><path d="M 120.02730092923936 106.31721596034902 l 36.46651865791353 11.502642043382231 a59.2376484241139,59.2376484241139 0 0,0 -0.31510973145470134,0.9698080329018564 l -36.26311667544258 -12.128648976261882" fill="red" stroke="none" /><path d="M 119.41010516605496 108.01547362559984 l 17.467609597667675 7.213313005497568 a39.89839330662298,39.89839330662298 0 0,0 -0.26760235948767597,0.632532929369782 l -17.34085625698769 -7.512920460533514" fill="red" stroke="none" /><path d="M 119.26925614724726 108.34839909993367 l 37.39933504612595 16.203250019165832 a61.75850307697747,61.75850307697747 0 0,0 -0.43101234378962683,0.9718190513099367 l -37.11488161760504 -16.844617406968457" fill="red" stroke="none" /><line stroke="#e1ed5e" stroke-width="0.3" x1="174.80103733775053" x2="179.2010983576182" y1="140.37084112569926" y2="142.7455964860345" /><path d="M 175.68104954172406 140.8457921977663 a86.0,86.0 0 0,1 -30.038265399797805,32.042727171017184" fill="none" id="id137" stroke="none" /><text fill="#e1ed5e" style="font-size:6.75px; font-family:Arial;" text-anchor="middle"><textPath startOffset="22.206326154141568" xlink:href="#id137">May</textPath></text><path d="M 118.48025628344425 109.97397251340804 l 3.6546003330035655 1.972423039475075 a25.15289733085732,25.15289733085732 0 0,0 -0.20891707929265121,0.3792451829839327 l -3.6201068442594044 -2.035038740856813" fill="red" stroke="none" /><path d="M 118.30583269289576 110.29060199501025 l 11.765214837509863 6.6138014757224965 a34.49676443200485,34.49676443200485 0 0,0 -0.29543686772846023,0.5151190813322607 l -11.649625973629021 -6.815340402913073" fill="red" stroke="none" /><path d="M 117.94076556474637 110.91462005526583 l 2.8836843949203415 1.7543465141588908 a24.375406254252745,24.375406254252745 0 0,0 -0.2211608006616113,0.35658162979849045 l -2.853058954590767 -1.8037244753226547" fill="red" stroke="none" /><path d="M 117.35343817320211 111.8261652097733 l 42.2437185085702 28.788600228454033 a72.12059522878289,72.12059522878289 0 0,0 -0.7079463845422892,1.0198495680695345 l -41.74191121686577 -29.51149105871059" fill="red" stroke="none" /><line stroke="#e1ed5e" stroke-width="0.3" x1="143.8653032363475" x2="146.44561519142675" y1="172.8068346515853" y2="177.08958963109032" /><path d="M 144.38136562736335 173.6633856474863 a86.0,86.0 0 0,1 -40.68145358897372,12.25698825130547" fill="none" id="id138" stroke="none" /><text fill="#e1ed5e" style="font-size:6.75px; font-family:Arial;" text-anchor="middle"><textPath startOffset="21.466115282336833" xlink:href="#id138">June</textPath></text><line stroke="#e1ed5e" stroke-width="0.3" x1="102.19456741930631" x2="102.32365962044197" y1="184.97166512339345" y2="189.96999836594603" /><path d="M 102.22038585953345 185.97133177190398 a86.0,86.0 0 0,1 -42.740103519485714,-10.115201625700543" fill="none" id="id139" stroke="none" /><text fill="#e1ed5e" style="font-size:6.75px; font-family:Arial;" text-anchor="middle"><textPath startOffset="22.20632615414155" xlink:href="#id139">July</textPath></text><line stroke="#e1ed5e" stroke-width="0.3" x1="58.666819895761336" x2="56.23545636021788" y1="174.27360380694188" y2="178.64263932499728" /><path d="M 58.180547188652646 175.14741091055294 a86.0,86.0 0 0,1 -31.652253787137756,-30.449443065178592" fill="none" id="id140" stroke="none" /><text fill="#e1ed5e" style="font-size:6.75px; font-family:Arial;" text-anchor="middle"><textPath startOffset="22.20632615414155" xlink:href="#id140">August</textPath></text><line stroke="#e1ed5e" stroke-width="0.3" x1="26.63291911575756" x2="22.317208475507996" y1="142.92168965132927" y2="145.44649492493687" /><path d="M 25.769776987707644 143.4266507060508 a86.0,86.0 0 0,1 -11.730757126820373,-40.83630448921669" fill="none" id="id141" stroke="none" /><text fill="#e1ed5e" style="font-size:6.75px; font-family:Arial;" text-anchor="middle"><textPath startOffset="21.46611528233685" xlink:href="#id141">September</textPath></text><line stroke="#e1ed5e" stroke-width="0.3" x1="15.007084014347285" x2="10.007500721073583" y1="101.09737516637583" y2="101.16192664675087" /><path d="M 14.007167355692545 101.11028546245083 a86.0,86.0 0 0,1 10.666146001902534,-42.60595125391555" fill="none" id="id142" stroke="none" /><text fill="#e1ed5e" style="font-size:6.75px; font-family:Arial;" text-anchor="middle"><textPath startOffset="22.20632615414155" xlink:href="#id142">October</textPath></text><line stroke="#e1ed5e" stroke-width="0.3" x1="26.266209847984243" x2="21.928928074336255" y1="57.711370442889674" y2="55.22380399835377" /><path d="M 25.398753493254645 57.213857153982495 a86.0,86.0 0 0,1 29.58750427330803,-30.492523968695096" fill="none" id="id143" stroke="none" /><text fill="#e1ed5e" style="font-size:6.75px; font-family:Arial;" text-anchor="middle"><textPath startOffset="21.46611528233685" xlink:href="#id143">November</textPath></text><line stroke="#e1ed5e" stroke-width="0.3" x1="56.762969772571076" x2="54.21961505331055" y1="26.818313649435495" y2="22.513508569990535" /><path d="M 56.25429882871897 25.957352633546506 a86.0,86.0 0 0,1 42.265352541879196,-11.944610805530505" fill="none" id="id144" stroke="none" /><text fill="#e1ed5e" style="font-size:6.75px; font-family:Arial;" text-anchor="middle"><textPath startOffset="22.20632615414155" xlink:href="#id144">December</textPath></text></svg>