<?xml version="1.0" encoding="utf-8" ?>
<svg baseProfile="full" height="200mm" version="1.1" viewBox="0,0,200,200" width="200mm" xmlns="http://www.w3.org/2000/svg" xmlns:ev="http://www.w3.org/2001/xml-events" xmlns:xlink="http://www.w3.org/1999/xlink"><defs /><rect fill="#1a1a1a" height="200" width="200" x="0" y="0" /><text alignment-baseline="middle" fill="#e1ed5e" style="dominant-baseline: central; font-size:9.0px; font-family:Arial;" text-anchor="middle" x="100.0" y="100.0">2019</text><line stroke="#e1ed5e" stroke-width="0.3" x1="100.0" x2="100.0" y1="15.0" y2="10.0" /><path d="M 100.0 14.0 a86.0,86.0 0 0,1 42.46469731375804,11.215312516191453" fill="none" id="id61" stroke="none" /><text fill="#e1ed5e" style="font-size:6.75px; font-family:Arial;" text-anchor="middle"><textPath startOffset="22.20632615414155" xlink:href="#id61">January</textPath></text><path d="M 100.0 79.0 l 0.0 -5.974352492632466 a26.974352492632466,26.974352492632466 0 0,0 0.4643191365287097,0.003996541398885632 l -0.10283865725618135 5.9734673278421395" fill="#ff4b07" stroke="none" /><path d="M 102.52436894288641 79.15227682838746 l 0.18889184316142665 -1.5599799176353122 a22.571374389456057,22.571374389456057 0 0,0 0.3853097750454859,0.050024267265492625 l -0.21571634671475867 1.556497327205683" fill="#ff0d01" stroke="none" /><path d="M 102.88285421437855 79.19881850522331 l 0.5487864059598337 -3.9597582060518612 a24.99760572965386,24.99760572965386 0 0,0 0.42571043923517077,0.06273865260581546 l -0.6168658256236602 3.9497250692850767" fill="#ff2f04" stroke="none" /><path d="M 104.307194497241 79.44645832069477 l 0.9613986471440982 -4.587707190181763 a25.687360090880148,25.687360090880148 0 0,0 0.43198467206583896,0.09441511755079902 l -1.0402260433634651 4.570478574535094" fill="#ff3905" stroke="none" /><path d="M 104.66035177308747 79.52364482259891 l 0.6544942996228801 -2.875675140673745 a23.9492152011896,23.9492152011896 0 0,0 0.4011793630293125,0.09494619364367061 l -0.7038973496147162 2.8639830348892055" fill="#ff2103" stroke="none" /><path d="M 105.01212808612495 79.60689891045804 l 0.9260223688655984 -3.767754425855763 a24.879882838591282,24.879882838591282 0 0,0 0.4150096099484054,0.10579519015027641 l -0.9907408674990289 3.7512562395366187" fill="#ff2e04" stroke="none" /><path d="M 107.76421540070413 80.48803036053334 l 9.31635114551631 -23.41258598846176 a46.19808685860256,46.19808685860256 0 0,0 0.7363449936062388,0.3003736114136964 l -9.717980008710935 23.248751490864482" fill="#c0ff1e" stroke="none" /><path d="M 108.76106565485865 80.91482961587045 l 2.7198004240365945 -5.924833410508632 a27.519276439058938,27.519276439058938 0 0,0 0.4288050885776046,0.2013297387356847 l -2.821383723913797 5.877138689132945" fill="#ff5307" stroke="none" /><path d="M 109.08828744355905 81.06846463323043 l 0.9053638266987862 -1.8859358720095405 a23.091993731354627,23.091993731354627 0 0,0 0.35685787942093183,0.17510861161509672 l -0.9376929731301499 1.8700721002596117" fill="#ff1402" stroke="none" /><path d="M 110.36928655335952 81.73862282372117 l 6.4386359890033065 -11.339098373924145 a34.039600658471784,34.039600658471784 0 0,0 0.5070332529307303,0.2937063868294295 l -6.6328659743993645 11.226587829704666" fill="#ffaa0f" stroke="none" /><line stroke="#e1ed5e" stroke-width="0.3" x1="143.23703022742887" x2="145.7803849466894" y1="26.81831364943548" y2="22.513508569990506" /><path d="M 143.74570117128098 25.957352633546492 a86.0,86.0 0 0,1 28.547481713284135,27.462654790039103" fill="none" id="id62" stroke="none" /><text fill="#e1ed5e" style="font-size:6.75px; font-family:Arial;" text-anchor="middle"><textPath startOffset="19.985693538727396" xlink:href="#id62">February</textPath></text><path d="M 110.99172775467656 82.1063720568725 l 5.133314449890018 -8.356613348827896 a30.807339287658923,30.807339287658923 0 0,0 0.4494656535289627,0.2814553510057782 l -5.276399255791245 8.267013656499174" fill="#ff7f0b" stroke="none" /><path d="M 111.2981086023043 82.29822771554956 l 5.715858867373725 -8.95555492002177 a31.624170862578453,31.624170862578453 0 0,0 0.45634126445682166,0.29681705236081524 l -5.869167157614827 8.855838943501427" fill="#ff8a0c" stroke="none" /><path d="M 111.60114157652 82.49532879139004 l 3.620585257205323 -5.463010178101019 a27.553862815983248,27.553862815983248 0 0,0 0.39309561669689164,0.26541991513476343 l -3.7140855683087564 5.399878350667586" fill="#ff5307" stroke="none" /><path d="M 111.90073688211348 82.69761687909136 l 3.457365686050986 -5.026635432890409 a27.10085578114023,27.10085578114023 0 0,0 0.38208188035381013,0.26767277443224313 l -3.5433787059884474 4.96637781569423" fill="#ff4d07" stroke="none" /><path d="M 112.77801427241765 83.33499621200491 l 3.395430154650761 -4.428298105071817 a26.580212365358,26.580212365358 0 0,0 0.36069024767027547,0.2815244594805573 l -3.4711529574804665 4.369195256368036" fill="#ff4606" stroke="none" /><path d="M 113.06298171725822 83.55741782278167 l 4.027041381623057 -5.068900828431516 a27.4738564934495,27.4738564934495 0 0,0 0.3677527470778829,0.2973638126476843 l -4.1136975272654315 4.998830918519702" fill="#ff5207" stroke="none" /><path d="M 113.34407831869373 83.78471172551755 l 12.152820741493171 -14.767710962499205 a40.12528010374713,40.12528010374713 0 0,0 0.5295437599122763,0.44347767006326266 l -12.405222038364563 14.556332135042123" fill="#fff617" stroke="none" /><path d="M 113.89432698308785 84.25364557470407 l 4.61997577334414 -5.23578983364261 a27.98266935550883,27.98266935550883 0 0,0 0.3584300283031559,0.32180201841125655 l -4.709416789243286 5.155488806462055" fill="#ff5908" stroke="none" /><path d="M 114.94478906791727 85.2469230424477 l 2.1236081349802256 -2.09636643920954 a23.984034811860994,23.984034811860994 0 0,0 0.2875066029873377,0.2963008269223438 l -2.1593790016706724 2.0595014167370818" fill="#ff2103" stroke="none" /><path d="M 115.19652480421416 85.50635884689758 l 18.045967627909555 -17.211288924879245 a45.93763048253042,45.93763048253042 0 0,0 0.5408230193584425,0.5769122892570568 l -18.33955796923846 16.898107218744133" fill="#c3ff1e" stroke="none" /><path d="M 115.68641384162765 86.03803664274999 l 26.17326006599627 -23.295961822163502 a56.039140681557456,56.039140681557456 0 0,0 0.6351319733483944,0.726065639200301 l -26.570383902922515 22.841980626760254" fill="#56ff2a" stroke="none" /><path d="M 115.9244219780498 86.31012108654704 l 33.07730574700379 -28.43583968598143 a64.62000841503365,64.62000841503365 0 0,0 0.7178648628381201,0.8497255713668269 l -33.56188122332903 27.8622551649855" fill="#35ff66" stroke="none" /><path d="M 116.15771136456269 86.58626213691792 l 31.551449699248774 -26.19324395125418 a62.007072643803035,62.007072643803035 0 0,0 0.6747004571922215,0.8271029830376048 l -31.997648648517405 25.646256798608473" fill="#32ff47" stroke="none" /><path d="M 116.38621287248628 86.86637796730983 l 29.106770422725393 -23.32920512501299 a58.30222374344691,58.30222374344691 0 0,0 0.6209073539295049,0.788489285361461 l -29.504031857248865 22.82472344569849" fill="#40ff2d" stroke="none" /><path d="M 116.82858285166822 87.43820079747576 l 2.8060234236469634 -2.094573447813438 a24.501571844520758,24.501571844520758 0 0,0 0.24937628358845498,0.3401489705599483 l -2.841662319749045 2.045962033581996" fill="#ff2803" stroke="none" /><path d="M 117.04232023915458 87.72973835380427 l 10.056551505003515 -7.2405937978641095 a33.391950077306504,33.391950077306504 0 0,0 0.3318323133939345,0.4693532745268862 l -10.179696438201333 7.06641402300543" fill="#ffa10e" stroke="none" /><path d="M 117.45458315368197 88.32363383020206 l 26.93416544373252 -18.01779941863568 a53.405097809458056,53.405097809458056 0 0,0 0.5045595759255044,0.7684788499773199 l -27.24032165501595 17.551502504680688" fill="#72ff27" stroke="none" /><path d="M 117.65298651832404 88.62581576622439 l 27.444043244418445 -17.682764537190387 a53.64744509573801,53.64744509573801 0 0,0 0.4934859964003251,0.780576335386939 l -27.744356837064725 17.20774055408924" fill="#6fff27" stroke="none" /><line stroke="#e1ed5e" stroke-width="0.3" x1="172.23445277983987" x2="176.4835382374775" y1="55.19839476539836" y2="52.563006222186495" /><path d="M 173.08426987136738 54.67131705675599 a86.0,86.0 0 0,1 12.851231095245387,41.99856678651699" fill="none" id="id63" stroke="none" /><text fill="#e1ed5e" style="font-size:6.75px; font-family:Arial;" text-anchor="middle"><textPath startOffset="22.20632615414155" xlink:href="#id63">March</textPath></text><path d="M 117.84615892207809 88.93136811851018 l 6.438883975984364 -3.993556079433114 a28.576788040836657,28.576788040836657 0 0,0 0.25567271469506564,0.4202587183448014 l -6.506672488965654 3.882129587881231" fill="#ff6109" stroke="none" /><path d="M 118.3937258080291 89.86733742301442 l 5.6122160057948465 -3.0916352504860067 a27.407431390014843,27.407431390014843 0 0,0 0.22407780909005529,0.41518214872260123 l -5.6646019141033666 2.9945721184309466" fill="#ff5107" stroke="none" /><path d="M 118.56541770881063 90.18545643968196 l 5.22608991534586 -2.762754274037108 a26.911414972913846,26.911414972913846 0 0,0 0.21297253851485162,0.41139515661317755 l -5.272871887020828 2.672386395163586" fill="#ff4a06" stroke="none" /><path d="M 118.73160827565052 90.50648371742162 l 5.586676425271684 -2.831428184293037 a27.26322113959705,27.26322113959705 0 0,0 0.2085506424149162,0.4204253691757732 l -5.634587080640009 2.734843226618314" fill="#ff4f07" stroke="none" /><path d="M 118.89224826269711 90.83032412892265 l 5.393716156993997 -2.6179324034124782 a26.995476966101624,26.995476966101624 0 0,0 0.19930607175846018,0.4197894165086467 l -5.437980422594213 2.524700571263291" fill="#ff4b07" stroke="none" /><path d="M 119.04729006885535 91.15688171328212 l 5.501857126853195 -2.554356719171255 a27.06590224888933,27.06590224888933 0 0,0 0.19255157548955248,0.42426187291268974 l -5.545011019306094 2.4592728374165027" fill="#ff4c07" stroke="none" /><path d="M 119.47837535516314 92.15188598940014 l 5.631815765763962 -2.269138540073026 a27.07176568500072,27.07176568500072 0 0,0 0.17043152569754008,0.43372964304507855 l -5.670040841343202 2.1718598921321632" fill="#ff4c07" stroke="none" /><path d="M 119.61058180528143 92.48833698450437 l 5.598864844690812 -2.144596544876407 a26.995546838230062,26.995546838230062 0 0,0 0.1624815833924637,0.4353698627309266 l -5.6349510165849015 2.047903545116147" fill="#ff4b07" stroke="none" /><path d="M 119.85752413597 93.16781622104841 l 2.944143813790002 -1.0129627172926576 a24.1135311565653,24.1135311565653 0 0,0 0.13166298757764366,0.3936555744757803 l -2.9611440951394155 0.9621340398945634" fill="#ff2303" stroke="none" /><path d="M 119.97218684219823 93.5106431181261 l 24.10359387398687 -7.831732399657157 a46.34401842687811,46.34401842687811 0 0,0 0.23998370781277134,0.7608139352284378 l -24.234833065567848 7.4156682980023" fill="#bfff1e" stroke="none" /><path d="M 120.18372546131832 94.20196356495316 l 8.844379852226215 -2.540662610917838 a30.20206615239104,30.20206615239104 0 0,0 0.13923616951339587,0.5009065835367079 l -8.886802792305973 2.388044723962178" fill="#ff770b" stroke="none" /><path d="M 120.28053869075195 94.5502522615342 l 5.868295776480276 -1.576917266556888 a27.076476230992885,27.076476230992885 0 0,0 0.1170782553238436,0.4511502769888572 l -5.894570363674423 1.4756705640191803" fill="#ff4c07" stroke="none" /><path d="M 120.37134235888165 94.90015583598534 l 5.884725256080349 -1.4732059000013062 a27.066327304337328,27.066327304337328 0 0,0 0.10925413203870471,0.4529289114040187 l -5.909212188379874 1.3716917569378815" fill="#ff4c07" stroke="none" /><path d="M 120.45610955862082 95.25157060432595 l 11.764051092408916 -2.730761969147967 a33.07683563840099,33.07683563840099 0 0,0 0.12396822023586665,0.5557252235921727 l -11.809313699646822 2.5278585760058303" fill="#ff9d0e" stroke="none" /><path d="M 120.53481517161879 95.60439243477599 l 5.810774867878576 -1.2438332537008734 a26.942409084553283,26.942409084553283 0 0,0 0.09317031987935444,0.4543315684973507 l -5.831324483672928 1.143626029040111" fill="#ff4b06" stroke="none" /><path d="M 120.6074358757038 95.95851677861258 l 5.904495803168066 -1.1579762209713176 a27.01697429095092,27.01697429095092 0 0,0 0.08557211843374014,0.4571296783907236 l -5.9235536455116655 1.0561684651180312" fill="#ff4c07" stroke="none" /><path d="M 120.73433829027371 96.67025291283417 l 49.60404554891575 -7.965960806939405 a71.23960456051185,71.23960456051185 0 0,0 0.1840156524344068,1.2124332334649528 l -49.73381709478946 7.11092846108237" fill="#3dffaf" stroke="none" /><path d="M 120.83666639777658 97.38593545837742 l 11.658925095262866 -1.4626707604347122 a32.75031659702754,32.75031659702754 0 0,0 0.06535972417152988,0.5599622021907733 l -11.682375172437986 1.2617648199190863" fill="#ff990e" stroke="none" /><path d="M 120.87857604477298 97.74499172005257 l 5.97790550691478 -0.6456487447193976 a27.012671332374637,27.012671332374637 0 0,0 0.04595096490446113,0.4627199456806662 l -5.98813359750147 0.5426532683342965" fill="#ff4c07" stroke="none" /><path d="M 120.98425023603335 99.18683210126433 l 48.55888963230705 -1.8817222346803504 a69.59533558780171,69.59533558780171 0 0,0 0.036084537063900184,1.1974701118022908 l -48.5840858638266 1.0455819754530604" fill="#3bff9d" stroke="none" /><line stroke="#e1ed5e" stroke-width="0.3" x1="184.98032266829074" x2="189.97916517819016" y1="98.17113171792111" y2="98.06355123074" /><path d="M 185.9800911702706 98.14961562048488 a86.0,86.0 0 0,1 -9.607161424134198,41.387399972396054" fill="none" id="id64" stroke="none" /><text fill="#e1ed5e" style="font-size:6.75px; font-family:Arial;" text-anchor="middle"><textPath startOffset="21.466115282336823" xlink:href="#id64">April</textPath></text><path d="M 120.9764740272857 100.99374915477107 l 3.536553344369078 0.1675423091696937 a24.54051973344734,24.54051973344734 0 0,0 -0.023621593091884167,0.42177941274427727 l -3.5331454003896647 -0.22839343824939431" fill="#ff2904" stroke="none" /><path d="M 120.95626037817324 101.35467743843564 l 62.86878113451971 4.064032315306923 a84.0,84.0 0 0,0 -0.10569376534264929,1.4421074540129188 l -62.789510810512716 -5.145612905816612" fill="#4dd2ff" stroke="none" /><path d="M 120.76222939487914 103.15116336523771 l 12.349790182213198 1.874375128528389 a33.491220903784196,33.491220903784196 0 0,0 -0.09141228697635496,0.5692243982616044 l -12.315696140875554 -2.0866787564831983" fill="#ffa30f" stroke="none" /><path d="M 120.70491114924044 103.5080841355445 l 6.060112833747244 1.0267798561626877 a27.14648228100997,27.14648228100997 0 0,0 -0.08202575612886943,0.4600440013030658 l -6.041540635279186 -1.1309426081989717" fill="#ff4d07" stroke="none" /><path d="M 120.5718875245553 104.21870165774334 l 24.07491336358962 4.937071369643233 a45.57592576431856,45.57592576431856 0 0,0 -0.16421648733240882,0.7671647583333898 l -23.986362837532766 -5.350749947392791" fill="#c7ff1e" stroke="none" /><path d="M 120.49622156327973 104.57218783832717 l 5.672349603517456 1.2653575095229603 a26.811770784488218,26.811770784488218 0 0,0 -0.1043609033487526,0.4495840402478265 l -5.649728134238151 -1.3628102071193517" fill="#ff4906" stroke="none" /><path d="M 120.32669344350535 105.2749913415812 l 2.912363719218675 0.7557891028913184 a24.008833594778963,24.008833594778963 0 0,0 -0.1072530887769704,0.39912864246746815 l -2.8989225540999275 -0.8058086785343348" fill="#ff2103" stroke="none" /><path d="M 120.23288151984713 105.62410040840565 l 6.737881098511796 1.872917597068758 a27.993344123028148,27.993344123028148 0 0,0 -0.1330448505552117,0.4631465786273273 l -6.704643611070485 -1.9886216512006671" fill="#ff5908" stroke="none" /><path d="M 120.02730092923936 106.31721596034902 l 8.382390557101717 2.644059306858034 a29.789511992708732,29.789511992708732 0 0,0 -0.15846282514428606,0.48769842820085346 l -8.335635480941184 -2.7879566350366827" fill="#ff720a" stroke="none" /><path d="M 119.9155931802556 106.66101706037122 l 6.168387153227218 2.063093561448911 a27.504256691997213,27.504256691997213 0 0,0 -0.15403584643189885,0.4477002723125442 l -6.131960475852088 -2.168966536850756" fill="#ff5207" stroke="none" /><path d="M 119.41010516605496 108.01547362559984 l 5.726543186826909 2.3647968667445776 a27.195608209978957,27.195608209978957 0 0,0 -0.18240355867875827,0.4311481315764011 l -5.6849886469558415 -2.463019523987142" fill="#ff4e07" stroke="none" /><path d="M 119.12269723197855 108.67885076344098 l 11.860415234133004 5.382858524651341 a34.02476930400174,34.02476930400174 0 0,0 -0.24663969258276233,0.5312399557261619 l -11.766000924710411 -5.586218547656333" fill="#ffaa0f" stroke="none" /><path d="M 118.97047184881838 109.00673069616215 l 26.290210647120077 12.481969301081696 a50.102830334919176,50.102830334919176 0 0,0 -0.37659850489297597,0.7759044648720825 l -26.071458885612387 -12.932662721919053" fill="#95ff23" stroke="none" /><line stroke="#e1ed5e" stroke-width="0.3" x1="174.80103733775053" x2="179.2010983576182" y1="140.37084112569926" y2="142.7455964860345" /><path d="M 175.68104954172406 140.8457921977663 a86.0,86.0 0 0,1 -30.038265399797805,32.042727171017184" fill="none" id="id65" stroke="none" /><text fill="#e1ed5e" style="font-size:6.75px; font-family:Arial;" text-anchor="middle"><textPath startOffset="22.206326154141568" xlink:href="#id65">May</textPath></text><path d="M 118.48025628344425 109.97397251340804 l 2.0203045619711673 1.0903778530314718 a23.2957688005335,23.2957688005335 0 0,0 -0.1934919827988835,0.3512441523255957 l -2.0012361697207743 -1.1249925237548726" fill="#ff1702" stroke="none" /><path d="M 117.94076556474637 110.91462005526583 l 42.727777682236145 25.994289793511783 a71.01365900963124,71.01365900963124 0 0,0 -0.6443149098998334,1.0388407890921054 l -42.273998132668346 -26.72592691396916" fill="#3dffad" stroke="none" /><path d="M 117.55443506779139 111.5257021239791 l 2.4622431146357693 1.6166330950848948 a23.94552944641452,23.94552944641452 0 0,0 -0.2291893837154978,0.34260703183073443 l -2.4340506255095504 -1.6587770411214362" fill="#ff2003" stroke="none" /><path d="M 116.27256486870786 113.27417163493432 l 20.622598942054463 16.822665641460322 a47.613787148942095,47.613787148942095 0 0,0 -0.523533995852768,0.6306304238885364 l -20.32996894630815 -17.175157322462628" fill="#b0ff20" stroke="none" /><path d="M 114.55890576462653 115.13401014063108 l 17.041870954541043 17.715057162331075 a45.58146895317461,45.58146895317461 0 0,0 -0.5701246909441389,0.539088480676653 l -16.734410429206097 -18.005780279753647" fill="#c7ff1e" stroke="none" /><path d="M 114.0293411484842 115.62618273729858 l 2.388726174601763 2.660614730131378 a24.575595541923,24.575595541923 0 0,0 -0.31720967159585717,0.2799006538472423 l -2.3425741500993182 -2.701338525750909" fill="#ff2904" stroke="none" /><path d="M 113.48314897796784 116.09983520530334 l 1.4265656097390162 1.7034204149105876 a23.221875457541266,23.221875457541266 0 0,0 -0.3086628148292707,0.2540084829470439 l -1.3970326663650545 -1.7277240167148098" fill="#ff1602" stroke="none" /><path d="M 113.20401910651253 116.32954008644616 l 2.6511057221239853 3.278648479195105 a25.216384398985333,25.216384398985333 0 0,0 -0.33987184118532765,0.27001474584485885 l -2.5942763882213065 -3.3237971390450896" fill="#ff3204" stroke="none" /><path d="M 112.63410532772338 116.77436683061366 l 15.135613456760337 20.09563208033035 a46.15792565813936,46.15792565813936 0 0,0 -0.638770806217042,0.47254737158615767 l -14.787457680124731 -20.353189400656277" fill="#c1ff1e" stroke="none" /><line stroke="#e1ed5e" stroke-width="0.3" x1="143.8653032363475" x2="146.44561519142675" y1="172.8068346515853" y2="177.08958963109032" /><path d="M 144.38136562736335 173.6633856474863 a86.0,86.0 0 0,1 -40.68145358897372,12.25698825130547" fill="none" id="id66" stroke="none" /><text fill="#e1ed5e" style="font-size:6.75px; font-family:Arial;" text-anchor="middle"><textPath startOffset="21.466115282336833" xlink:href="#id66">June</textPath></text><path d="M 110.5260780823613 118.17145234162733 l 12.641940802683349 21.824123192339197 a46.221241451858546,46.221241451858546 0 0,0 -0.6918906783249866,0.392873584390421 l -12.264401357437162 -22.038499942524247" fill="#c0ff1e" stroke="none" /><path d="M 109.2508944713604 118.85261126421891 l 0.8313314870093901 1.6941896164542793 a22.887164671615793,22.887164671615793 0 0,0 -0.3551731919939143,0.1705047159964115 l -0.8020456270152431 -1.708248608950251" fill="#ff1101" stroke="none" /><path d="M 108.92500713936063 119.00905698771935 l 1.0282400835736782 2.190012180439509 a23.41938649660219,23.41938649660219 0 0,0 -0.3663818087441024,0.16818791850148546 l -0.9903902790621564 -2.207387169275069" fill="#ff1902" stroke="none" /><path d="M 108.59647513512805 119.15986991738527 l 2.142494733857928 4.775203761325069 a26.2338183620357,26.2338183620357 0 0,0 -0.4135940421168481,0.18130747365553296 l -2.0599800170833262 -4.811375788275057" fill="#ff4106" stroke="none" /><path d="M 105.88484417918355 120.15858648285463 l 7.024382072963091 24.06208375190753 a46.06642810595035,46.06642810595035 0 0,0 -0.7630987873719098,0.2156593396990638 l -6.609152117486575 -24.179431884945114" fill="#c2ff1e" stroke="none" /><path d="M 104.13013068566511 120.58985236759428 l 0.4035198652656952 2.0116589729349523 a23.051731002118395,23.051731002118395 0 0,0 -0.38971957361588044,0.07469068382388619 l -0.3688326770781104 -2.0183068551073062" fill="#ff1402" stroke="none" /><path d="M 102.70371172650421 120.8252237178851 l 0.6448912414984894 4.967247153702724 a26.008934916659356,26.008934916659356 0 0,0 -0.444471118915737,0.05381926262953292 l -0.5592926995313722 -4.977611945057608" fill="#ff3e05" stroke="none" /><path d="M 101.26447882468166 120.96189622390904 l 0.17560135946887387 2.9110313293625687 a23.91632289672761,23.91632289672761 0 0,0 -0.4111465678759314,0.021251581275738694 l -0.12546672317946286 -2.9136227174005094" fill="#ff2003" stroke="none" /><line stroke="#e1ed5e" stroke-width="0.3" x1="102.19456741930631" x2="102.32365962044197" y1="184.97166512339345" y2="189.96999836594603" /><path d="M 102.22038585953345 185.97133177190398 a86.0,86.0 0 0,1 -42.740103519485714,-10.115201625700543" fill="none" id="id67" stroke="none" /><text fill="#e1ed5e" style="font-size:6.75px; font-family:Arial;" text-anchor="middle"><textPath startOffset="22.20632615414155" xlink:href="#id67">July</textPath></text><path d="M 100.54218724476979 120.99299961872073 l 0.16769930298203747 6.49316529948322 a27.495330527589314,27.495330527589314 0 0,0 -0.47323432344740357,0.008147158044044738 l -0.05590528964196594 -6.495089934806424" fill="#ff5207" stroke="none" /><path d="M 100.18074693466247 120.99922214144158 l 0.049366384956607466 5.735398422991964 a26.735610875087534,26.735610875087534 0 0,0 -0.46022663923812185,0.0 l 0.04936638495660352 -5.735398422991964" fill="#ff4806" stroke="none" /><path d="M 99.45781275523022 120.99299961872073 l -0.15242236932101738 5.90165624866241 a26.90362423059306,26.90362423059306 0 0,0 -0.4628443762241054,-0.015941296160471283 l 0.2539870972197658 -5.898158154075845" fill="#ff4a06" stroke="none" /><path d="M 99.09653310690486 120.98055641714683 l -0.2505960166862783 5.819409550234718 a26.8248026470381,26.8248026470381 0 0,0 -0.4611463722873419,-0.023836000045691863 l 0.3507304573871091 -5.814233743426824" fill="#ff4906" stroke="none" /><path d="M 98.73552117531835 120.96189622390904 l -0.7418376996422704 12.297813590353876 a33.32016811069163,33.32016811069163 0 0,0 -0.5722139732296079,-0.03946322580517066 l 0.9534144336508082 -12.28322202003242" fill="#ffa00e" stroke="none" /><path d="M 98.37488393609728 120.93702456842531 l -0.27043179864284494 3.4840817453193487 a24.494561340967522,24.494561340967522 0 0,0 -0.420088354827515,-0.03624699089412908 l 0.33036447121190166 -3.4789105021465563" fill="#ff2803" stroke="none" /><path d="M 97.65516085044442 120.86867818915974 l -0.7977829771203365 7.1001357246485375 a28.144815252126076,28.144815252126076 0 0,0 -0.480971541774907,-0.05823895551923254 l 0.9198819419466329 -7.0853512404039565" fill="#ff5b08" stroke="none" /><path d="M 97.2962882734958 120.8252237178851 l -0.9370828699790591 7.217840651504628 a28.278416584376092,28.278416584376092 0 0,0 -0.48217583168443945,-0.06682517667527577 l 1.0611872928503296 -7.200640909336747" fill="#ff5d08" stroke="none" /><path d="M 95.86986931433489 120.58985236759428 l -1.1741262418033225 5.853346496651024 a26.96994452583506,26.96994452583506 0 0,0 -0.4543903170483911,-0.0952219088917919 l 1.2747080202811005 -5.832268607032691" fill="#ff4b07" stroke="none" /><path d="M 95.51606077576429 120.51570834832081 l -1.051967435650067 4.813146660212894 a25.926765293616768,25.926765293616768 0 0,0 -0.4351743979723977,-0.09904427617231441 l 1.1346619830153275 -4.794325650462893" fill="#ff3c05" stroke="none" /><path d="M 95.16358092515715 120.4354850818985 l -1.3468906309079443 5.691062533856726 a26.848273859515757,26.848273859515757 0 0,0 -0.44880944517608246,-0.11030644214473058 l 1.4446533608272372 -5.667034833397965" fill="#ff4906" stroke="none" /><path d="M 94.46302465271185 120.25689768951611 l -4.46764249438191 16.344767900466355 a37.94435797478684,37.94435797478684 0 0,0 -0.6285552136052132,-0.17763598183316162 l 4.748328876091738 -16.265443125294674" fill="#ffdb14" stroke="none" /><path d="M 92.40401165467489 119.57807347666478 l -0.7807785628615237 2.012396462155628 a23.158553841144712,23.158553841144712 0 0,0 -0.3704033402185895,-0.14739113332671422 l 0.8153029791219714 -1.9986584844228468" fill="#ff1502" stroke="none" /><path d="M 91.07499286063937 119.00905698771935 l -10.444276927649845 22.24489596626148 a45.57474958348986,45.57474958348986 0 0,0 -0.7072492165866948,-0.33952260342573043 l 10.825638812236782 -22.061819086336186" fill="#c7ff1e" stroke="none" /><line stroke="#e1ed5e" stroke-width="0.3" x1="58.666819895761336" x2="56.23545636021788" y1="174.27360380694188" y2="178.64263932499728" /><path d="M 58.180547188652646 175.14741091055294 a86.0,86.0 0 0,1 -31.652253787137756,-30.449443065178592" fill="none" id="id68" stroke="none" /><text fill="#e1ed5e" style="font-size:6.75px; font-family:Arial;" text-anchor="middle"><textPath startOffset="22.20632615414155" xlink:href="#id68">August</textPath></text><path d="M 89.1626897886671 117.98757091392108 l -16.127833583922612 26.76868564446545 a52.25171270895265,52.25171270895265 0 0,0 -0.7664102073104166,-0.4707917463097167 l 16.58622299116534 -26.487105431327354" fill="#7eff26" stroke="none" /><path d="M 87.07902340077011 116.55440617244103 l -29.957934014383955 38.38222319749869 a69.68955604637189,69.68955604637189 0 0,0 -0.9392907940371094,-0.7462294144222728 l 30.61418230113842 -37.860859869071284" fill="#3bff9e" stroke="none" /><path d="M 84.9287848128048 114.62390073753433 l -17.48675560507439 16.96774779033071 a45.365776955965785,45.365776955965785 0 0,0 -0.5389744829579487,-0.5651125905898219 l 17.776236639411295 -16.664228083158388" fill="#caff1d" stroke="none" /><path d="M 84.19399662182784 113.82643327865904 l -4.768304461657675 4.171114095957262 a27.335212722597234,27.335212722597234 0 0,0 -0.3067498871693421,-0.35681941935976175 l 4.839396858397796 -4.08841757743597" fill="#ff5007" stroke="none" /><path d="M 83.06392112726016 112.41649034213515 l -3.6559527767959397 2.6803194934014445 a25.53322217554685,25.53322217554685 0 0,0 -0.2568158328208928,-0.356694730040725 l 3.70154840199244 -2.6169911579095815" fill="#ff3705" stroke="none" /><path d="M 82.6465618267979 111.8261652097733 l -12.234480135842524 8.337655160785085 a35.80537057200837,35.80537057200837 0 0,0 -0.3427032521234144,-0.5122948633366537 l 12.37618649337667 -8.12582338324261" fill="#ffc011" stroke="none" /><path d="M 82.05923443525364 110.91462005526583 l -3.986423596360443 2.425219747540676 a25.66618301328619,25.66618301328619 0 0,0 -0.22637466389951355,-0.37941695774192513 l 4.027579135958189 -2.3562406959126396" fill="#ff3905" stroke="none" /><line stroke="#e1ed5e" stroke-width="0.3" x1="26.63291911575756" x2="22.317208475507996" y1="142.92168965132927" y2="145.44649492493687" /><path d="M 25.769776987707644 143.4266507060508 a86.0,86.0 0 0,1 -11.730757126820373,-40.83630448921669" fill="none" id="id69" stroke="none" /><text fill="#e1ed5e" style="font-size:6.75px; font-family:Arial;" text-anchor="middle"><textPath startOffset="21.46611528233685" xlink:href="#id69">September</textPath></text><path d="M 81.87401531095188 110.60418214915194 l -21.742849133908646 12.72014384944323 a46.190346325734396,46.190346325734396 0 0,0 -0.39558293255779564,-0.6897321866991417 l 21.95858406261882 -12.343991816885783" fill="#c0ff1e" stroke="none" /><path d="M 81.35079622478065 109.6543875284942 l -2.11208891034325 1.0933938564274672 a23.37832497579037,23.37832497579037 0 0,0 -0.18192937931964792,-0.35896392504235874 l 2.1305969594491647 -1.0568757196824234" fill="#ff1802" stroke="none" /><path d="M 80.73074385275274 108.34839909993369 l -2.9929901283734233 1.2967120216206485 a24.26181728114195,24.26181728114195 0 0,0 -0.1627263408828754,-0.3846370012631033 l 3.0148674504486053 -1.2450004946913864" fill="#ff2503" stroke="none" /><path d="M 80.58989483394504 108.01547362559985 l -4.330411432610268 1.7882591737208204 a25.685118360092773,25.685118360092773 0 0,0 -0.1652377306161002,-0.4101064963414987 l 4.3605517774837566 -1.7134533095365163" fill="#ff3905" stroke="none" /><path d="M 80.20201598880116 107.00284435728193 l -3.1708111946617383 1.121563552631577 a24.363324015729642,24.363324015729642 0 0,0 -0.13644525204527855,-0.3965737710503086 l 3.1896472776502454 -1.0668170784919715" fill="#ff2603" stroke="none" /><path d="M 80.0844068197444 106.66101706037122 l -3.3373774375619103 1.1162272620901457 a24.51909810340385,24.51909810340385 0 0,0 -0.1304272979163331,-0.40141394759535226 l 3.3560969864944927 -1.0586144145169898" fill="#ff2903" stroke="none" /><path d="M 79.76711848015287 105.62410040840567 l -5.477268516248159 1.5225072152457086 a26.684936113938182,26.684936113938182 0 0,0 -0.11920786616882775,-0.44361681642892 l 5.502664458758762 -1.4279994656412498" fill="#ff4706" stroke="none" /><path d="M 79.67330655649465 105.27499134158121 l -7.02576805679564 1.823260914056649 a28.258491382416643,28.258491382416643 0 0,0 -0.11813218183175103,-0.47187934421153466 l 7.05611155292245 -1.7020537304477226" fill="#ff5d08" stroke="none" /><path d="M 79.58551787078972 104.9243191809786 l -2.7456033294218063 0.6622860699015699 a23.824351338080618,23.824351338080618 0 0,0 -0.09273280930696812,-0.39949051545131525 l 2.7565967046593296 -0.6149268971016805" fill="#ff1f03" stroke="none" /><path d="M 79.50377843672027 104.57218783832718 l -2.8968382738131475 0.6462112387025625 a23.968039917126156,23.968039917126156 0 0,0 -0.08636022762953934,-0.40344623268504054 l 2.9075325401671277 -0.5962511866013581" fill="#ff2103" stroke="none" /><path d="M 79.29508885075956 103.50808413554451 l -3.079264181054239 0.5217273208681756 a24.12315021958021,24.12315021958021 0 0,0 -0.06584269761263721,-0.41000254088566146 l 3.087788633028167 -0.4686455502893005" fill="#ff2303" stroke="none" /><path d="M 79.23777060512086 103.15116336523772 l -4.600910239045989 0.6982978328716827 a25.653600207490058,25.653600207490058 0 0,0 -0.06250432378366673,-0.43715509496451677 l 4.612248613846255 -0.6189972659267654" fill="#ff3905" stroke="none" /><path d="M 79.18660465613746 102.79330883721812 l -5.231354781476476 0.702085810618619 a26.278257035722,26.278257035722 0 0,0 -0.0563086622014707,-0.4488354403326415 l 5.242664952924795 -0.6119326159985689" fill="#ff4106" stroke="none" /><path d="M 79.1416061653843 102.43462659150553 l -3.6155534244958747 0.42201343881417447 a24.640099161825624,24.640099161825624 0 0,0 -0.04554628286894911,-0.4217020127563727 l 3.622282008865876 -0.35971510417301966" fill="#ff2a04" stroke="none" /><path d="M 79.10278846688536 102.07522291339032 l -2.9186950744434603 0.2898445510821584 a23.93305144881104,23.93305144881104 0 0,0 -0.03718216503995177,-0.4103020928760322 l 2.923251835760487 -0.23956106965756" fill="#ff2003" stroke="none" /><path d="M 79.07016306316243 101.71520430193888 l -3.539513520505487 0.29006383735635305 a24.551379026742012,24.551379026742012 0 0,0 -0.03089199635346596,-0.4214967464376434 l 3.5439820755232883 -0.22909395442194902" fill="#ff2904" stroke="none" /><path d="M 79.04373962182676 101.35467743843564 l -2.9372444790336676 0.1898725609966586 a23.94337505578769,23.94337505578769 0 0,0 -0.023046808664091433,-0.4115162506677308 l 2.9400776385852905 -0.13928459399349022" fill="#ff2003" stroke="none" /><line stroke="#e1ed5e" stroke-width="0.3" x1="15.007084014347285" x2="10.007500721073583" y1="101.09737516637583" y2="101.16192664675087" /><path d="M 14.007167355692545 101.11028546245083 a86.0,86.0 0 0,1 10.666146001902534,-42.60595125391555" fill="none" id="id70" stroke="none" /><text fill="#e1ed5e" style="font-size:6.75px; font-family:Arial;" text-anchor="middle"><textPath startOffset="22.20632615414155" xlink:href="#id70">October</textPath></text><path d="M 79.12142395522702 97.74499172005258 l -7.588228659402098 -0.8195730599822199 a28.632359673654012,28.632359673654012 0 0,0 0.05714152793319599,-0.4895537155885805 l 7.5729967784653125 0.9500705138956621" fill="#ff6209" stroke="none" /><path d="M 79.16333360222342 97.38593545837743 l -2.522778141631004 -0.3164951994010794 a23.54255359100553,23.54255359100553 0 0,0 0.05390572233575746,-0.40166024441033654 l 2.5169564202374124 0.3598737858760754" fill="#ff1b02" stroke="none" /><path d="M 79.21141760316559 97.0276538004421 l -5.501746806389462 -0.7866383526657267 a26.55769896805335,26.55769896805335 0 0,0 0.06859993584904854,-0.4519878659050423 l 5.487390977101111 0.881225330962861" fill="#ff4506" stroke="none" /><path d="M 79.32604984820605 96.31383870115002 l -1.7798021077539823 -0.3173383703184111 a22.80787145119388,22.80787145119388 0 0,0 0.07224043136824261,-0.3859112730011767 l 1.774075952475878 0.34792772078216055" fill="#ff1001" stroke="none" /><path d="M 79.46518482838121 95.60439243477599 l -3.519068159379191 -0.7532788824554437 a24.59878726588691,24.59878726588691 0 0,0 0.0921934586080048,-0.41328519761911303 l 3.505580313769149 0.813742249624516" fill="#ff2a04" stroke="none" /><path d="M 79.62865764111835 94.90015583598534 l -2.0599941538751354 -0.5157072606442197 a23.123565372829596,23.123565372829596 0 0,0 0.0999859312423653,-0.38528657990512355 l 2.050811890762463 0.551090266098207" fill="#ff1502" stroke="none" /><path d="M 80.38941819471856 92.48833698450439 l -3.3114902907262125 -1.2684375909908878 a24.546110808732962,24.546110808732962 0 0,0 0.15453115115396368,-0.39326492416843156 l 3.289165589690558 1.3252515200550827" fill="#ff2904" stroke="none" /><path d="M 80.52162464483688 92.15188598940014 l -1.7594553020056394 -0.7089095242758254 a22.896901598229263,22.896901598229263 0 0,0 0.1504417075264929,-0.36430652770460076 l 1.7469919075929468 0.7390906224337376" fill="#ff1101" stroke="none" /><path d="M 81.6062741919709 89.86733742301443 l -0.6061646373350952 -0.3339215665341851 a21.692054318787356,21.692054318787356 0 0,0 0.18298007939250993,-0.32550114377334616 l 0.6003269166501546 0.3443062202423158" fill="#ff0000" stroke="none" /><line stroke="#e1ed5e" stroke-width="0.3" x1="26.266209847984243" x2="21.928928074336255" y1="57.711370442889674" y2="55.22380399835377" /><path d="M 25.398753493254645 57.213857153982495 a86.0,86.0 0 0,1 29.58750427330803,-30.492523968695096" fill="none" id="id71" stroke="none" /><text fill="#e1ed5e" style="font-size:6.75px; font-family:Arial;" text-anchor="middle"><textPath startOffset="21.46611528233685" xlink:href="#id71">November</textPath></text><path d="M 82.95767976084542 87.72973835380427 l -2.8368472083632996 -2.0424952124138933 a24.495638536280936,24.495638536280936 0 0,0 0.2493158945502406,-0.3400665999796934 l 2.8012687012994255 2.091024256065088" fill="#ff2803" stroke="none" /><path d="M 89.00827224532344 82.1063720568725 l -7.07376025015373 -11.51549937372516 a34.514614678299914,34.514614678299914 0 0,0 0.5089063797277515,-0.3066103995936265 l 6.874491804208329 11.635556382777406" fill="#ffb010" stroke="none" /><line stroke="#e1ed5e" stroke-width="0.3" x1="56.762969772571076" x2="54.21961505331055" y1="26.818313649435495" y2="22.513508569990535" /><path d="M 56.25429882871897 25.957352633546506 a86.0,86.0 0 0,1 42.265352541879196,-11.944610805530505" fill="none" id="id72" stroke="none" /><text fill="#e1ed5e" style="font-size:6.75px; font-family:Arial;" text-anchor="middle"><textPath startOffset="22.20632615414155" xlink:href="#id72">December</textPath></text></svg>