<?xml version="1.0" encoding="utf-8" ?>
<svg baseProfile="full" height="200mm" version="1.1" viewBox="0,0,200,200" width="200mm" xmlns="http://www.w3.org/2000/svg" xmlns:ev="http://www.w3.org/2001/xml-events" xmlns:xlink="http://www.w3.org/1999/xlink"><defs /><rect fill="#1a1a1a" height="200" width="200" x="0" y="0" /><text alignment-baseline="middle" fill="#e1ed5e" style="dominant-baseline: central; font-size:9.0px; font-family:Arial;" text-anchor="middle" x="100.0" y="100.0">2024</text><line stroke="#e1ed5e" stroke-width="0.3" x1="100.0" x2="100.0" y1="15.0" y2="10.0" /><path d="M 100.0 14.0 a86.0,86.0 0 0,1 42.35913384403234,11.155469271406648" fill="none" id="id133" stroke="none" /><text fill="#e1ed5e" style="font-size:6.75px; font-family:Arial;" text-anchor="middle"><textPath startOffset="22.145653131862478" xlink:href="#id133">January</textPath></text><path d="M 100.0 79.0 l 0.0 -8.72486343833991 a29.72486343833991,29.72486343833991 0 0,0 0.5102668076961876,0.00438002684540111 l -0.14977388284733284 8.723577809688942" fill="#ff6f0a" stroke="none" /><path d="M 101.08105385017728 79.02784411241856 l 0.4216326054936918 -8.179559906521568 a29.19041966680527,29.19041966680527 0 0,0 0.5002065419392153,0.03009118344064546 l -0.5619834995653695 8.171116745256231" fill="#ff6809" stroke="none" /><path d="M 102.15924093988457 79.11130261209362 l 0.8906244703910883 -8.615983841645008 a29.661892951702143,29.661892951702143 0 0,0 0.5060376826264406,0.056702577831891615 l -1.0383980546183256 8.599425503306145" fill="#ff6f0a" stroke="none" /><path d="M 104.9986988182912 79.60360301121754 l 1.952645771198959 -7.96746108849504 a29.2032470220312,29.2032470220312 0 0,0 0.48587904429185547,0.12350855304376718 l -2.089130108716209 7.932767303616005" fill="#ff6809" stroke="none" /><path d="M 106.04205211174951 79.88797359093562 l 2.3599224243386936 -7.855414227451931 a29.20224155543781,29.20224155543781 0 0,0 0.47886025813144506,0.14835213203945918 l -2.494423315341769 7.813745507605825" fill="#ff6809" stroke="none" /><path d="M 106.38641147887787 79.99465700312896 l 2.8508910445085713 -8.930375592103703 a30.37439000488569,30.37439000488569 0 0,0 0.49535894926157276,0.16283432570122272 l -3.0037727314178864 8.880120345000458" fill="#ff780b" stroke="none" /><path d="M 106.72888874123014 80.10723608172694 l 2.636585059347825 -7.79459523749888 a29.22844430567628,29.22844430567628 0 0,0 0.47391031324697264,0.16485060748314073 l -2.770001144639816 7.748186197447149" fill="#ff6909" stroke="none" /><path d="M 107.40779381753099 80.34994680014964 l 2.914873969054218 -7.732049510776593 a29.263236647498996,29.263236647498996 0 0,0 0.4685291357192917,0.181237134848418 l -3.047175367267035 7.680872487790137" fill="#ff6909" stroke="none" /><path d="M 107.74402155503746 80.48000691201159 l 3.050486851432924 -7.68921959110974 a29.272216628635338,29.272216628635338 0 0,0 0.46549172162856184,0.18931143077810408 l -3.1820330342519254 7.635720903752342" fill="#ff6909" stroke="none" /><path d="M 108.4095320186766 80.7573450057729 l 3.910515609962412 -8.948024998885503 a30.76520781737079,30.76520781737079 0 0,0 0.48211512147894636,0.21564396158075527 l -4.06354413429699 8.879577286394895" fill="#ff7d0b" stroke="none" /><path d="M 108.73861861582097 80.90454125486305 l 10.912430505570741 -23.845630034824868 a47.22394347341095,47.22394347341095 0 0,0 0.7342452628363216,0.3436638572241318 l -11.320164482278567 23.654789946030203" fill="#b5ff1f" stroke="none" /><path d="M 109.3889696526874 81.21577127319529 l 4.760681327893676 -9.524551709780738 a31.64805954050045,31.64805954050045 0 0,0 0.48387287638297893,0.24706893841189306 l -4.923481425990233 9.441424819696012" fill="#ff890c" stroke="none" /><path d="M 110.02825361518725 81.54914285379988 l 4.0124358751439155 -7.3824300801936245 a29.40237558914677,29.40237558914677 0 0,0 0.4413937993569393,0.24483369993398718 l -4.138573862656956 7.312463464826491" fill="#ff6b09" stroke="none" /><path d="M 110.34350942703115 81.72400993836675 l 4.098855642860329 -7.2422851761721665 a29.321737327866764,29.321737327866764 0 0,0 0.4359270118656642,0.25168257764767044 l -4.222575122586391 7.170855701248325" fill="#ff6a09" stroke="none" /><line stroke="#e1ed5e" stroke-width="0.3" x1="143.13028292997686" x2="145.6673583964461" y1="26.7553504044142" y2="22.446841604673864" /><path d="M 143.63769802327073 25.89364864446614 a86.0,86.0 0 0,1 29.32050498858742,28.57503671076993" fill="none" id="id134" stroke="none" /><text fill="#e1ed5e" style="font-size:6.75px; font-family:Arial;" text-anchor="middle"><textPath startOffset="20.669276256404974" xlink:href="#id134">February</textPath></text><path d="M 110.96478420261332 82.08984904055464 l 4.328391650421787 -7.070102469703014 a29.289832520114125,29.289832520114125 0 0,0 0.4265657831615482,0.2662085973617226 l -4.449121562373048 6.994758075499745" fill="#ff6a09" stroke="none" /><path d="M 111.8722381534696 82.67804972795209 l 4.730735296879628 -6.902284177884568 a29.367878065639964,29.367878065639964 0 0,0 0.4133947103816006,0.28858161369751023 l -4.848525098434989 6.820057748381931" fill="#ff6b09" stroke="none" /><path d="M 112.16784306229584 82.88440491214696 l 4.813221654509141 -6.770399033328819 a29.306949245417087,29.306949245417087 0 0,0 0.4075326527461001,0.2950222125661725 l -4.928735317629209 6.686776049389572" fill="#ff6a09" stroke="none" /><path d="M 112.7482090630111 83.31218511350987 l 5.82899765342214 -7.630345041668013 a30.602050775668104,30.602050775668104 0 0,0 0.4147161583106196,0.3224857930905959 l -5.959123756367985 7.529158196956626" fill="#ff7b0b" stroke="none" /><path d="M 113.03279911837588 83.53348406188908 l 5.3660793882894104 -6.779866011120364 a29.64646697386682,29.64646697386682 0 0,0 0.39634394117149285,0.31926662329225497 l -5.481674099816163 6.686751094034701" fill="#ff6e0a" stroke="none" /><path d="M 113.86319453409587 84.22622945171908 l 7.411244816218694 -8.432636137410611 a32.2265712464622,32.2265712464622 0 0,0 0.4124003218805998,0.3687709108122084 l -7.55491016492267 8.304169696715016" fill="#ff910d" stroke="none" /><path d="M 114.13192950727249 84.46653392183569 l 6.592122693404981 -7.2458976099765895 a30.79587228271017,30.79587228271017 0 0,0 0.38798433202012184,0.35911250544807577 l -6.715536796739068 7.131667358396139" fill="#ff7e0b" stroke="none" /><path d="M 114.39649973595853 84.71141617570332 l 5.669409477026094 -6.020716397283664 a29.269899017201702,29.269899017201702 0 0,0 0.36284571667245064,0.34759798867003455 l -5.7719276795638566 5.92250627830805" fill="#ff6909" stroke="none" /><path d="M 114.91283532996326 85.21462403516908 l 5.842240409239303 -5.792307030573482 a29.226943158657388,29.226943158657388 0 0,0 0.35018498384443725,0.35932064303768046 l -5.940812194234552 5.691163695468059" fill="#ff6909" stroke="none" /><path d="M 115.16444852881244 85.47280134310134 l 8.756515539374314 -8.388543806325456 a33.126179595484516,33.126179595484516 0 0,0 0.3898543827442351,0.41401184448796813 l -8.89922575585481 8.236990501892993" fill="#ff9d0e" stroke="none" /><path d="M 116.1254893667686 86.54754324733833 l 1.934769675447023 -1.6140536757259354 a23.5196235760831,23.5196235760831 0 0,0 0.2559754656487599,0.3122484470629641 l -1.9621919603344105 1.5806029469644762" fill="#ff1902" stroke="none" /><path d="M 116.35404254752997 86.82634096563983 l 6.429960457239979 -5.179520991333832 a29.256623352275284,29.256623352275284 0 0,0 0.3116994652371456,0.3938220919089672 l -6.517926353118683 5.068378955510187" fill="#ff6909" stroke="none" /><path d="M 116.57777611688842 87.10902102172516 l 0.634020773892738 -0.4930183886193601 a21.80314972031644,21.80314972031644 0 0,0 0.22721791446377396,0.2974355438261226 l -0.6423906657108187 0.48206193155235555" fill="#ff0000" stroke="none" /><path d="M 116.7966241395341 87.39550010848427 l 5.8898953344266936 -4.419887263481951 a28.36384888983956,28.36384888983956 0 0,0 0.28890333306505844,0.39195285679440306 l -5.964900687075578 4.318128097418673" fill="#ff5d08" stroke="none" /><path d="M 117.21940702142032 87.97951657250589 l 6.797710734046385 -4.745330029184914 a29.29017661510619,29.29017661510619 0 0,0 0.28426850498335265,0.4147562442379103 l -6.878168975845062 4.6279390498769555" fill="#ff6a09" stroke="none" /><path d="M 117.62189284568427 88.57770195909679 l 8.326377306443973 -5.397057173600295 a30.922539250835726,30.922539250835726 0 0,0 0.2849030607162248,0.4479149325864882 l -8.417798058786088 5.253328566335136" fill="#ff800b" stroke="none" /><path d="M 117.81537515405839 88.88188828441811 l 9.69507531773444 -6.050444042936537 a32.428138891930296,32.428138891930296 0 0,0 0.29066736155004635,0.4747832905917322 l -9.797510643739889 5.88312363622025" fill="#ff940d" stroke="none" /><line stroke="#e1ed5e" stroke-width="0.3" x1="172.87174338648825" x2="177.1583165268699" y1="56.24261187166439" y2="53.66864786411523" /><path d="M 173.72905801456457 55.72781907015455 a86.0,86.0 0 0,1 12.242430191666344,42.057860355516425" fill="none" id="id135" stroke="none" /><text fill="#e1ed5e" style="font-size:6.75px; font-family:Arial;" text-anchor="middle"><textPath startOffset="22.145653131862474" xlink:href="#id135">March</textPath></text><path d="M 118.36410011445183 89.81374322990088 l 4.061056362703966 -2.252599507219697 a25.643962028374563,25.643962028374563 0 0,0 0.21022511035582317,0.38679052490706906 l -4.099126822675131 2.1825541488380247" fill="#ff3705" stroke="none" /><path d="M 118.53625476483649 90.13048839642627 l 15.71675582145093 -8.368287225130459 a38.8057475168383,38.8057475168383 0 0,0 0.3080288089739298,0.5906858563283645 l -15.858092699399805 8.097255125697597" fill="#ffe515" stroke="none" /><path d="M 118.70294669586156 90.45014215332178 l 2.854793645702755 -1.4576779767058907 a24.205412897477984,24.205412897477984 0 0,0 0.18578240721720202,0.37168926513522577 l -2.8793959661316944 1.4084568554069143" fill="#ff2303" stroke="none" /><path d="M 118.8641267826498 90.77261029715802 l 7.443496561199411 -3.6409871664519815 a29.286279539265827,29.286279539265827 0 0,0 0.21702631207114262,0.4535015222474194 l -7.504902131230465 3.512673142139459" fill="#ff6909" stroke="none" /><path d="M 119.0197475246899 91.09779779509293 l 18.912110720419737 -8.85182274560778 a41.88115652498861,41.88115652498861 0 0,0 0.29918210040883436,0.6537668831658399 l -19.061277285683623 8.525866880227257" fill="#f3ff19" stroke="none" /><path d="M 119.16976305983485 91.42560881287824 l 3.764593205991022 -1.6838546573473383 a25.124018490945947,25.124018490945947 0 0,0 0.17271700084151057,0.39521029843868444 l -3.7929440888495027 1.6189822891328045" fill="#ff3004" stroke="none" /><path d="M 119.31412917781788 91.75594674310238 l 3.680228824333958 -1.570870845175048 a25.00146465830694,25.00146465830694 0 0,0 0.16509795223055607,0.396174983554161 l -3.706652621100997 1.5074633521796093" fill="#ff2e04" stroke="none" /><path d="M 119.58574465831526 92.42381321644754 l 11.364570406636867 -4.396059972065403 a33.18518788551913,33.18518788551913 0 0,0 0.20095893575670365,0.5330674524524842 l -11.438360026208011 4.200324239418761" fill="#ff9e0e" stroke="none" /><path d="M 119.71291397450082 92.76114493625339 l 15.944436639313833 -5.855017987415865 a37.985473069009785,37.985473069009785 0 0,0 0.21951955011692387,0.6140352510601389 l -16.0425963594747 5.58044777997481" fill="#ffdb14" stroke="none" /><path d="M 119.94978838288452 93.4421083053983 l 12.66778237600158 -4.164151681121282 a34.33464920982631,34.33464920982631 0 0,0 0.1792518583241657,0.5615038931427574 l -12.737398950103003 3.946078754287138" fill="#ffac10" stroke="none" /><path d="M 120.26092885502905 94.47779374421319 l 2.857757415379673 -0.7788944914444867 a23.962001700532948,23.962001700532948 0 0,0 0.10476018176589838,0.3977914736694257 l -2.8707070779503017 0.7297225134022625" fill="#ff1f03" stroke="none" /><path d="M 120.43855184770803 95.1765574152323 l 8.00797200217503 -1.8898595879360232 a29.22795143700623,29.22795143700623 0 0,0 0.11105109826633777,0.48931162926423283 l -8.039233961999035 1.7521136247327642" fill="#ff6909" stroke="none" /><path d="M 120.51834098615036 95.52812308129327 l 8.069304564130748 -1.7586673725087267 a29.258727933273263,29.258727933273263 0 0,0 0.10274312267460065,0.4916630354270635 l -8.098305397629716 1.6198878857962586" fill="#ff6909" stroke="none" /><path d="M 120.65975698304385 96.23510406497455 l 9.91990984059658 -1.8077380225398256 a31.08327962538484,31.08327962538484 0 0,0 0.09115568803186856,0.525761784886385 l -9.949480346120682 1.6371832047328478" fill="#ff820b" stroke="none" /><path d="M 120.86939407059847 97.66154086499901 l 4.970347033709628 -0.5569377522789771 a26.00145271850286,26.00145271850286 0 0,0 0.04589579258457052,0.44400015994901454 l -4.979175218775865 0.47153307004703116" fill="#ff3c05" stroke="none" /><path d="M 120.93736805541906 98.37931529534042 l 4.934668811893389 -0.38197457506729554 a25.949430357028085,25.949430357028085 0 0,0 0.03056600557408856,0.4444230127311569 l -4.940498778632544 0.29720813818180447" fill="#ff3b05" stroke="none" /><path d="M 120.98066250479742 99.09900007780936 l 3.0760468304662743 -0.13209868631513186 a24.078881966907435,24.078881966907435 0 0,0 0.014189700052687075,0.41311763471317764 l -3.0778612175158093 0.07927478703783428" fill="#ff2103" stroke="none" /><path d="M 120.99303781780057 99.45929381324524 l 3.9647720051514876 -0.10211846283817602 a24.966086891797175,24.966086891797175 0 0,0 0.007357349354454013,0.42852871506345513 l -3.9659407861046074 0.034042831805654504" fill="#ff2d04" stroke="none" /><line stroke="#e1ed5e" stroke-width="0.3" x1="184.99686870605535" x2="189.99668451229388" y1="99.2704041080226" y2="99.22748670261217" /><path d="M 185.99683186730306 99.26182062694052 a86.0,86.0 0 0,1 -10.086455211305974,41.156179273409016" fill="none" id="id136" stroke="none" /><text fill="#e1ed5e" style="font-size:6.75px; font-family:Arial;" text-anchor="middle"><textPath startOffset="21.40746469413373" xlink:href="#id136">April</textPath></text><path d="M 120.99922638620191 99.81974689727618 l 62.99767915860572 -0.5407593081714844 a84.0,84.0 0 0,0 0.0,1.442024821790615 l -62.99767915860572 -0.5407593081714768" fill="#4dd2ff" stroke="none" /><path d="M 120.99922638620191 100.18025310272382 l 14.342975320944314 0.12311719281193394 a35.343503717724744,35.343503717724744 0 0,0 -0.010415509061898033,0.6066511864529756 l -14.338748380283748 -0.3693152952339806" fill="#ffb911" stroke="none" /><path d="M 120.99303781780057 100.54070618675476 l 6.649703025338202 0.17127276181217663 a27.651908349047723,27.651908349047723 0 0,0 -0.016295286712095163,0.4744194929052028 l -6.645783051629261 -0.2853985192814901" fill="#ff5307" stroke="none" /><path d="M 120.98066250479742 100.90099992219065 l 5.329952241313342 0.22889108261500712 a26.334864761395718,26.334864761395718 0 0,0 -0.023273011040362813,0.451490196748173 l -5.325237640816407 -0.32035307273991076" fill="#ff4106" stroke="none" /><path d="M 120.86939407059847 102.33845913500097 l 8.115426011730245 0.9093504117731653 a29.166214393662457,29.166214393662457 0 0,0 -0.060023949418926685,0.49708440722377556 l -8.098619976051655 -1.0485284959203494" fill="#ff6809" stroke="none" /><path d="M 120.82617615685814 102.69636545807757 l 5.7930851330758415 0.7500308520815333 a26.841436607388502,26.841436607388502 0 0,0 -0.06308438476715895,0.4564471827240323 l -5.779356231753472 -0.8493663430056506" fill="#ff4806" stroke="none" /><path d="M 120.65975698304385 103.76489593502545 l 17.630197635135417 3.2128093019048345 a38.920547208842166,38.920547208842166 0 0,0 -0.1254237017156956,0.6562698063881334 l -17.572447641137565 -3.5149816733262824" fill="#ffe715" stroke="none" /><path d="M 120.592083275326 104.11899336999214 l 0.7857754836158488 0.15717710364906265 a21.801341221055818,21.801341221055818 0 0,0 -0.07655622898760957,0.36634926937256523 l -0.7829615438038748 -0.17064282430703695" fill="#ff0000" stroke="none" /><path d="M 120.51834098615036 104.47187691870673 l 16.60192001503188 3.6183111963851533 a37.9916427722396,37.9916427722396 0 0,0 -0.14434859260980937,0.636026533141588 l -16.537360560864403 -3.9027720634657586" fill="#ffdb14" stroke="none" /><path d="M 120.26092885502905 105.52220625578681 l 7.952097504227129 2.1673795361839896 a29.24217136260855,29.24217136260855 0 0,0 -0.13615921956425742,0.48318103574740623 l -7.913719792588291 -2.3035684958344045" fill="#ff6909" stroke="none" /><path d="M 120.16314734710363 105.8691983318838 l 7.8722452308313065 2.291495855363686 a29.1989754377907,29.1989754377907 0 0,0 -0.1442202468824419,0.48006229677843915 l -7.831748663945235 -2.4262957557328484" fill="#ff6809" stroke="none" /><path d="M 120.05942366710727 106.21446072829308 l 6.59793307658088 2.0440565328680096 a27.907306855251214,27.907306855251214 0 0,0 -0.1456964532841348,0.4563920647795239 l -6.56187190751949 -2.157017631338917" fill="#ff5708" stroke="none" /><path d="M 119.94978838288452 106.5578916946017 l 5.320857669203109 1.7490716015294165 a26.600962221189697,26.600962221189697 0 0,0 -0.1463237588928654,0.4325801931386856 l -5.290048488737879 -1.8401534691422625" fill="#ff4406" stroke="none" /><path d="M 119.83427380445688 106.89939002012753 l 32.50206934250202 11.305906889556107 a55.41232398632969,55.41232398632969 0 0,0 -0.32023001030718556,0.8957403323359009 l -32.30319916215089 -11.86218217827293" fill="#5dff2a" stroke="none" /><path d="M 119.58574465831526 107.57618678355244 l 2.4844791298095044 0.9610499001008506 a23.66387939984956,23.66387939984956 0 0,0 -0.14980511823132536,0.37760675788907055 l -2.4676153366120546 -1.0035576752034852" fill="#ff1b02" stroke="none" /><path d="M 119.4528033332814 107.91128576633889 l 7.671998899420453 3.120135162653404 a29.28219841261575,29.28219841261575 0 0,0 -0.1933659111897406,0.4640077944670829 l -7.617307143694227 -3.2513754665617647" fill="#ff6909" stroke="none" /><path d="M 119.31412917781788 108.2440532568976 l 7.5404340821294324 3.2185629277345527 a29.1986153383804,29.1986153383804 0 0,0 -0.20072813080389815,0.4593052455377074 l -7.484072069308569 -3.347530243048105" fill="#ff6809" stroke="none" /><path d="M 119.16976305983485 108.57439118712176 l 7.480017914486066 3.3457168711627667 a29.194174112320024,29.194174112320024 0 0,0 -0.2085514120273503,0.4557224728172004 l -7.421482037603659 -3.473628326194656" fill="#ff6809" stroke="none" /><path d="M 119.0197475246899 108.90220220490707 l 6.306660544851144 2.951835576949366 a27.96328230803018,27.96328230803018 0 0,0 -0.20722222584057723,0.4330147527521663 l -6.2550590610506545 -3.059662831766636" fill="#ff5708" stroke="none" /><path d="M 118.8641267826498 109.22738970284198 l 2.7302239817666583 1.335489362750512 a24.039351053865538,24.039351053865538 0 0,0 -0.1845078423426515,0.36913928158895815 l -2.7068962262122747 -1.382160500503216" fill="#ff2003" stroke="none" /><path d="M 118.70294669586154 109.54985784667822 l 6.1712037022486985 3.1510605819354636 a27.929136881724556,27.929136881724556 0 0,0 -0.22169341707988718,0.42512635862342113 l -6.116202216193862 -3.2565331836633877" fill="#ff5708" stroke="none" /><path d="M 118.5362547648365 109.86951160357373 l 7.289203660511391 3.8810903831933703 a29.25804774549825,29.25804774549825 0 0,0 -0.23985280859828434,0.4413021526359929 l -7.221505502297767 -4.005647369303967" fill="#ff6909" stroke="none" /><line stroke="#e1ed5e" stroke-width="0.3" x1="174.33088141563837" x2="178.70328620479359" y1="141.23008692659167" y2="143.65538615756765" /><path d="M 175.20536237346943 141.71514677278685 a86.0,86.0 0 0,1 -30.301960400862466,31.631185727798858" fill="none" id="id137" stroke="none" /><text fill="#e1ed5e" style="font-size:6.75px; font-family:Arial;" text-anchor="middle"><textPath startOffset="22.145653131862474" xlink:href="#id137">May</textPath></text><path d="M 118.36410011445183 110.18625677009912 l 1.2666750640051148 0.7026033056792109 a22.44848787462088,22.44848787462088 0 0,0 -0.1898144024883248,0.3353838615321064 l -1.2544272964954117 -0.72424393731044" fill="#ff0901" stroke="none" /><path d="M 118.18653347947321 110.5 l 6.317230749777359 3.6472548739169373 a28.294509747833878,28.294509747833878 0 0,0 -0.2464671281842114,0.4185550665176843 l -6.253689911463382 -3.755161108728171" fill="#ff5c08" stroke="none" /><path d="M 118.00360718960297 110.81064883170644 l 5.844823140642093 3.5096483605464983 a27.817594088831633,27.817594088831633 0 0,0 -0.24934106472828957,0.40727989052517377 l -5.783714111458399 -3.609465367196229" fill="#ff5507" stroke="none" /><path d="M 117.01052211995028 112.31430620078461 l 6.491776145573929 4.69954529789473 a29.014292453561147,29.014292453561147 0 0,0 -0.2955285028105194,0.4009411719548128 l -6.410145623179581 -4.81029277911842" fill="#ff6609" stroke="none" /><path d="M 116.79662413953412 112.60449989151573 l 6.593416993184999 4.947823031874036 a29.24342770944004,29.24342770944004 0 0,0 -0.3047555395044427,0.3989347839955622 l -6.507509476326251 -5.060278729110476" fill="#ff6909" stroke="none" /><path d="M 116.1254893667686 113.45245675266167 l 6.299089628364375 5.254924602867555 a29.20321660862313,29.20321660862313 0 0,0 -0.3244413903748144,0.38219114206525906 l -6.207953674482446 -5.36228252738237" fill="#ff6809" stroke="none" /><path d="M 115.89218393027572 113.72728997021213 l 4.494848195795615 3.8825428164233875 a26.939511682336178,26.939511682336178 0 0,0 -0.30530027251211633,0.3473756669207558 l -4.4275368593249125 -3.9591307611554365" fill="#ff4906" stroke="none" /><path d="M 115.6541949942343 113.99807769240083 l 0.9023243216595327 0.8068639724358325 a22.210462164412117,22.210462164412117 0 0,0 -0.2565861517357532,0.28203312803555886 l -0.8883404690818997 -0.8222346760290632" fill="#ff0601" stroke="none" /><path d="M 115.16444852881244 114.52719865689866 l 7.27911350363391 6.97322607627226 a31.080246788129195,31.080246788129195 0 0,0 -0.37239049120873996,0.38210544979188327 l -7.158336211274363 -7.09715421813188" fill="#ff820b" stroke="none" /><path d="M 114.65682725009322 115.03919595460226 l 4.695104593050937 4.817590928609538 a27.727049092663805,27.727049092663805 0 0,0 -0.34371970307541055,0.3292757002920011 l -4.611712404110214 -4.897478759207119" fill="#ff5407" stroke="none" /><path d="M 114.13192950727249 115.5334660781643 l 5.573400408216053 6.126143364676337 a29.28205437285163,29.28205437285163 0 0,0 -0.3747196236402225,0.3350765980949506 l -5.467415757752453 -6.220915492654675" fill="#ff6909" stroke="none" /><path d="M 113.86319453409587 115.77377054828091 l 2.5490757351337185 2.9003802592035175 a24.86134597665438,24.86134597665438 0 0,0 -0.32298501634030885,0.2789867644868233 l -2.498911239030554 -2.943711156155058" fill="#ff2c04" stroke="none" /><path d="M 113.59037401385872 116.0094264158162 l 5.875878783798244 6.921770432627286 a30.079474511439727,30.079474511439727 0 0,0 -0.3965128837947433,0.3307851501309741 l -5.756191565841606 -7.021617766670131" fill="#ff740a" stroke="none" /><path d="M 113.31354834802062 116.24036423190432 l 5.234115769908314 6.384770183968516 a29.255983175545857,29.255983175545857 0 0,0 -0.3911235590016282,0.31506145294767496 l -5.123741440551433 -6.4736799307095945" fill="#ff6909" stroke="none" /><path d="M 111.8722381534696 117.32195027204791 l 7.011630699596653 10.23017873583366 a33.40239984981251,33.40239984981251 0 0,0 -0.475751513407001,0.3201068503356731 l -6.834982898092648 -10.349035260226453" fill="#ffa00e" stroke="none" /><path d="M 111.5731344415666 117.5232005979908 l 3.426315920214964 5.187879004185222 a27.21721234535096,27.21721234535096 0 0,0 -0.39207608497050267,0.25413898134900953 l -3.3367542029874517 -5.245931827238126" fill="#ff4d07" stroke="none" /><path d="M 111.27062007382361 117.71928675628689 l 4.457908631465282 7.008572807606118 a29.30620503996913,29.30620503996913 0 0,0 -0.4268042262031527,0.26635740345485365 l -4.336940276472414 -7.084066007902519" fill="#ff6a09" stroke="none" /><line stroke="#e1ed5e" stroke-width="0.3" x1="143.1302829299769" x2="145.66735839644613" y1="173.24464959558577" y2="177.55315839532614" /><path d="M 143.63769802327073 174.10635135553383 a86.0,86.0 0 0,1 -40.68552437913181,11.842963189579606" fill="none" id="id138" stroke="none" /><text fill="#e1ed5e" style="font-size:6.75px; font-family:Arial;" text-anchor="middle"><textPath startOffset="21.407464694133747" xlink:href="#id138">June</textPath></text><path d="M 110.65571695917076 118.09573695890943 l 1.0413449352491324 1.7684313598009946 a23.052254552558384,23.052254552558384 0 0,0 -0.34271845257657835,0.19786859085134026 l -1.0108340148121555 -1.7860468479285065" fill="#ff1202" stroke="none" /><path d="M 110.02825361518725 118.45085714620011 l 2.7806912363531624 5.116158679108629 a26.82299951758111,26.82299951758111 0 0,0 -0.40644659241172304,0.21640991726388278 l -2.6924558281548854 -5.163139064095081" fill="#ff4806" stroke="none" /><path d="M 109.71004243097381 118.62028667847754 l 3.7449783759181825 7.181489829731094 a29.099299921019465,29.099299921019465 0 0,0 -0.444904431991974,0.22717137304468596 l -3.621146722212626 -7.2447191544486165" fill="#ff6709" stroke="none" /><path d="M 109.3889696526874 118.78422872680471 l 1.8423740855569417 3.685982328586351 a25.12077759625324,25.12077759625324 0 0,0 -0.3873860169101734,0.18948991303162668 l -1.778827819384699 -3.7170659917152014" fill="#ff3004" stroke="none" /><path d="M 109.06512990194946 118.94263497670748 l 3.507650664522301 7.329640819549926 a29.125715213317303,29.125715213317303 0 0,0 -0.4528511777958319,0.2119572170048853 l -3.381310772854963 -7.388774268125346" fill="#ff6709" stroke="none" /><path d="M 108.4095320186766 119.2426549942271 l 0.4808279965058412 1.1002285534770322 a22.200707471497527,22.200707471497527 0 0,0 -0.3505226620928726,0.1496172810815608 l -0.46187025924253744 -1.108320484217997" fill="#ff0600" stroke="none" /><path d="M 108.07796709384702 119.3841803445677 l 1.260935635204934 3.0257864969915578 a24.278008938594603,24.278008938594603 0 0,0 -0.3860729893439175,0.15701252374966768 l -1.2088081846705756 -3.0469862773205167" fill="#ff2403" stroke="none" /><path d="M 107.74402155503746 119.51999308798841 l 12.464804902866566 31.419450968444806 a54.801675408550885,54.801675408550885 0 0,0 -0.8774211111514787,0.33940533494566283 l -11.923611529221558 -31.628796191528508" fill="#64ff29" stroke="none" /><path d="M 107.06938296918513 119.77432235084164 l 2.78958647581284 7.802969854472304 a29.28662363425789,29.28662363425789 0 0,0 -0.47485363351212656,0.1651787432388223 l -2.655227070255692 -7.849707030279717" fill="#ff6909" stroke="none" /><path d="M 106.72888874123015 119.89276391827305 l 2.6482732472195107 7.829149288086626 a29.264921643130435,29.264921643130435 0 0,0 -0.47726524987108965,0.15688656732503475 l -2.513485259700687 -7.87345677681368" fill="#ff6909" stroke="none" /><path d="M 105.69591212413111 120.21278271476187 l 2.2797645137114926 8.090079999874392 a29.405160357919762,29.405160357919762 0 0,0 -0.4870315086182043,0.1327426034068122 l -2.1405516041585932 -8.128023097425347" fill="#ff6b09" stroke="none" /><path d="M 105.3480935250658 120.30758222061773 l 2.1053585640414756 7.994389391802544 a29.26697020866459,29.26697020866459 0 0,0 -0.4869392606779712,0.12377805590317166 l -1.9678140101381072 -8.029352679540986" fill="#ff6909" stroke="none" /><path d="M 104.9986988182912 120.39639698878246 l 1.9554938150937708 7.979082079483226 a29.215211920090702,29.215211920090702 0 0,0 -0.4881275468778683,0.1151967719607753 l -1.8182341144760235 -8.011474995090227" fill="#ff6809" stroke="none" /><path d="M 104.64783097203109 120.47920084513623 l 1.8386990733923587 8.101647380113933 a29.307677446446803,29.307677446446803 0 0,0 -0.4915840703924894,0.10713846014528657 l -1.6993525863807335 -8.132017298392938" fill="#ff6a09" stroke="none" /><path d="M 104.29559338865022 120.5559693870025 l 1.7565054837360585 8.40551460181991 a29.587082580003674,29.587082580003674 0 0,0 -0.49805417499605,0.09962478381989527 l -1.61195482320905 -8.434428782302666" fill="#ff6e0a" stroke="none" /><path d="M 103.94208987418118 120.62667999033965 l 0.32332711275797166 1.6917840789828316 a22.722403492722943,22.722403492722943 0 0,0 -0.3837546328146177,0.06993287763824024 l -0.2942377463922968 -1.6970851305524355" fill="#ff0d01" stroke="none" /><path d="M 103.58742460773223 120.69131181640829 l 0.7277032699950817 4.197199081712955 a25.259815979674897,25.259815979674897 0 0,0 -0.42788022917666,0.0704075288834939 l -0.6555455377653494 -4.20907260909212" fill="#ff3204" stroke="none" /><path d="M 103.2317021107853 120.74984581791261 l 5.197401169050792 33.37104386933618 a54.773355590483014,54.773355590483014 0 0,0 -0.9302990867022961,0.13672192913675135 l -4.62377697674081 -33.45534687177181" fill="#64ff29" stroke="none" /><path d="M 101.08105385017728 120.97215588758144 l 0.42882974749469815 8.319182538609118 a29.330227671740744,29.330227671740744 0 0,0 -0.5030472591939869,0.021603013788926206 l -0.28595672769988173 -8.325318120823875" fill="#ff6a09" stroke="none" /><path d="M 100.72087961077811 120.9876233191556 l 0.17177412565091646 5.00101624631524 a26.003965412165847,26.003965412165847 0 0,0 -0.4462610912337835,0.011494102713113062 l -0.08589972034638911 -5.003228066378399" fill="#ff3c05" stroke="none" /><line stroke="#e1ed5e" stroke-width="0.3" x1="101.45913802915013" x2="101.54496967792366" y1="184.9874750549273" y2="189.98673829345242" /><path d="M 101.47630435890484 185.9873277026323 a86.0,86.0 0 0,1 -42.54439059252881,-10.42667462771756" fill="none" id="id139" stroke="none" /><text fill="#e1ed5e" style="font-size:6.75px; font-family:Arial;" text-anchor="middle"><textPath startOffset="22.145653131862474" xlink:href="#id139">July</textPath></text><path d="M 100.36049292484886 120.99690560180557 l 0.1374395800279347 8.005166506411433 a29.00634625990718,29.00634625990718 0 0,0 -0.4979325048767859,0.0042741516901814575 l -9.80494632006071e-16 -8.006346259907179" fill="#ff6609" stroke="none" /><path d="M 100.0 121.0 l 1.3946463714942096e-15 11.388151852968683 a32.38815185296868,32.38815185296868 0 0,0 -0.555985694853593,-0.004772468505471905 l 0.19549277000473939 -11.386473782657646" fill="#ff930d" stroke="none" /><path d="M 99.63950707515114 120.99690560180557 l -0.034359173822040665 2.0012496211954964 a23.001544553378928,23.001544553378928 0 0,0 -0.3947357339450649,-0.010166992282378103 l 0.06870822183784946 -2.0003649115630706" fill="#ff1101" stroke="none" /><path d="M 99.27912038922189 120.98762331915562 l -0.36745784665759956 10.69813427375684 a31.70444310594442,31.70444310594442 0 0,0 -0.5437677943455959,-0.02335172877801932 l 0.5510514016040342 -10.690249976552993" fill="#ff8a0c" stroke="none" /><path d="M 98.91894614982273 120.97215588758144 l -0.42852573299922503 8.313284738615176 a29.32432204141181,29.32432204141181 0 0,0 -0.502501090785192,-0.030229217801350648 l 0.5711711759168633 -8.304703542989133" fill="#ff6a09" stroke="none" /><path d="M 98.55909050195518 120.95050786540614 l -0.9742573585004691 14.16548817249796 a35.198951812220926,35.198951812220926 0 0,0 -0.6024568872725996,-0.046633973278547104 l 1.2172832405483047 -14.14667643222436" fill="#ffb811" stroke="none" /><path d="M 98.19965949673042 120.92268563240118 l -0.13356521276955508 1.5522302326293438 a22.55796609756141,22.55796609756141 0 0,0 -0.38552685150289584,-0.03650979366808068 l 0.16019162765746617 -1.5497086834560796" fill="#ff0b01" stroke="none" /><path d="M 97.84075906011543 120.88869738790638 l -0.8474115052170732 8.19793760322828 a29.241619210179422,29.241619210179422 0 0,0 -0.49886773057465134,-0.055899169749400214 l 0.9880151373925238 -8.182182672971908" fill="#ff6909" stroke="none" /><path d="M 97.48249496171623 120.84855314841334 l -0.8623919613176432 7.141842565110555 a28.19372192399527,28.19372192399527 0 0,0 -0.47999432720343155,-0.06214487547769582 l 0.9848641104118687 -7.125986093432462" fill="#ff5b08" stroke="none" /><path d="M 96.41257539226777 120.69131181640829 l -2.681175009967128 15.464304962958085 a36.69501282004708,36.69501282004708 0 0,0 -0.6197355475794939,-0.11293646124626569 l 2.946245291097679 -15.416000327780454" fill="#ffcb12" stroke="none" /><path d="M 95.35216902796893 120.47920084513623 l -2.1743899299949794 9.580763233424912 a30.824408160424227,30.824408160424227 0 0,0 -0.5150139858805082,-0.12154189835742005 l 2.3385360696153756 -9.542025191421265" fill="#ff7e0b" stroke="none" /><path d="M 95.00130118170881 120.39639698878247 l -2.3259244413858524 9.490565444516124 a30.771425533855314,30.771425533855314 0 0,0 -0.5119701524494511,-0.13014081070894418 l 2.4884998870606823 -9.449239401971917" fill="#ff7e0b" stroke="none" /><path d="M 94.6519064749342 120.30758222061772 l -2.5230509787362636 9.58043552480063 a30.907094987238384,30.907094987238384 0 0,0 -0.5119077371256934,-0.13952273010619956 l 2.687140116796652 -9.535712300550285" fill="#ff7f0b" stroke="none" /><path d="M 94.30408787586889 120.21278271476187 l -2.175564567241719 7.72031114969139 a29.020990302592743,29.020990302592743 0 0,0 -0.4783488201910934,-0.13924037002722642 l 2.3077733998144194 -7.681827085361647" fill="#ff6609" stroke="none" /><path d="M 93.95794788825049 120.11202640906438 l -1.8877659027223488 6.2837587275773545 a27.561195306488422,27.561195306488422 0 0,0 -0.45195027490684064,-0.1400153504487407 l 1.995356810500823 -6.250426789321964" fill="#ff5207" stroke="none" /><line stroke="#e1ed5e" stroke-width="0.3" x1="58.13341422392154" x2="55.67067388415222" y1="173.97424548756322" y2="178.32567169271397" /><path d="M 57.64086615596768 174.84453072859336 a86.0,86.0 0 0,1 -31.369924170532247,-30.572349798747897" fill="none" id="id140" stroke="none" /><text fill="#e1ed5e" style="font-size:6.75px; font-family:Arial;" text-anchor="middle"><textPath startOffset="22.145653131862474" xlink:href="#id140">August</textPath></text><line stroke="#e1ed5e" stroke-width="0.3" x1="26.387840678322732" x2="22.057713659400548" y1="142.50000000000003" y2="145.00000000000006" /><path d="M 25.521815274538298 143.00000000000003 a86.0,86.0 0 0,1 -11.493303480769221,-40.785679425670985" fill="none" id="id141" stroke="none" /><text fill="#e1ed5e" style="font-size:6.75px; font-family:Arial;" text-anchor="middle"><textPath startOffset="21.40746469413373" xlink:href="#id141">September</textPath></text><line stroke="#e1ed5e" stroke-width="0.3" x1="15.003131293944662" x2="10.003315487706104" y1="100.72959589197737" y2="100.7725132973878" /><path d="M 14.003168132696942 100.73817937305945 a86.0,86.0 0 0,1 10.791469493833604,-42.45332614584628" fill="none" id="id142" stroke="none" /><text fill="#e1ed5e" style="font-size:6.75px; font-family:Arial;" text-anchor="middle"><textPath startOffset="22.145653131862435" xlink:href="#id142">October</textPath></text><line stroke="#e1ed5e" stroke-width="0.3" x1="26.387840678322718" x2="22.05771365940052" y1="57.49999999999999" y2="54.99999999999999" /><path d="M 25.521815274538284 56.99999999999999 a86.0,86.0 0 0,1 29.574782752854787,-30.34633250058573" fill="none" id="id143" stroke="none" /><text fill="#e1ed5e" style="font-size:6.75px; font-family:Arial;" text-anchor="middle"><textPath startOffset="21.40746469413373" xlink:href="#id143">November</textPath></text><line stroke="#e1ed5e" stroke-width="0.3" x1="56.869717070023135" x2="54.33264160355391" y1="26.7553504044142" y2="22.446841604673864" /><path d="M 56.362301976729285 25.89364864446614 a86.0,86.0 0 0,1 42.16139366436587,-11.88097634709845" fill="none" id="id144" stroke="none" /><text fill="#e1ed5e" style="font-size:6.75px; font-family:Arial;" text-anchor="middle"><textPath startOffset="22.145653131862474" xlink:href="#id144">December</textPath></text></svg>