<?xml version="1.0" encoding="utf-8" ?>
<svg baseProfile="full" height="200mm" version="1.1" viewBox="0,0,200,200" width="200mm" xmlns="http://www.w3.org/2000/svg" xmlns:ev="http://www.w3.org/2001/xml-events" xmlns:xlink="http://www.w3.org/1999/xlink"><defs /><rect fill="#1a1a1a" height="200" width="200" x="0" y="0" /><text alignment-baseline="middle" fill="#e1ed5e" style="dominant-baseline: central; font-size:9.0px; font-family:Arial;" text-anchor="middle" x="100.0" y="100.0">2023</text><line stroke="#e1ed5e" stroke-width="0.3" x1="100.0" x2="100.0" y1="15.0" y2="10.0" /><path d="M 100.0 14.0 a86.0,86.0 0 0,1 42.46469731375804,11.215312516191453" fill="none" id="id121" stroke="none" /><text fill="#e1ed5e" style="font-size:6.75px; font-family:Arial;" text-anchor="middle"><textPath startOffset="22.20632615414155" xlink:href="#id121">January</textPath></text><path d="M 100.0 79.0 l 0.0 -3.5554276661095763 a24.555427666109576,24.555427666109576 0 0,0 0.4226813219755806,0.0036381515834996493 l -0.06120084270305222 3.5549008911346354" fill="#ff2303" stroke="none" /><path d="M 100.72285384407766 79.0124445844662 l 0.38108873124910747 -11.064644576292554 a32.071205364402076,32.071205364402076 0 0,0 0.551562373032298,0.02375143602504252 l -0.571491936670737 11.056445413743317" fill="#ff8b0c" stroke="none" /><path d="M 101.08401301168833 79.027996857942 l 0.23642220004591455 -4.573973807281899 a25.580079895195652,25.580079895195652 0 0,0 0.43953636285244924,0.026514033729001102 l -0.3151206117379757 4.569226504172594" fill="#ff3204" stroke="none" /><path d="M 101.44485096284872 79.0497635885617 l 0.873134546583686 -12.66038895378963 a33.690461472999175,33.690461472999175 0 0,0 0.5782082304656654,0.04488008697413282 l -1.0909329664116927 12.643483604627033" fill="#ffa10e" stroke="none" /><path d="M 101.80526077348638 79.07773832637324 l 0.9839160035249092 -11.403199134971167 a32.445568627805244,32.445568627805244 0 0,0 0.5560164231626749,0.05280045908336479 l -1.1800575537778282 11.384573131372624" fill="#ff900d" stroke="none" /><path d="M 102.88285421437855 79.19881850522331 l 1.0129146272474026 -7.308666839619978 a28.37852336275033,28.37852336275033 0 0,0 0.48328763067379105,0.07122403393255952 l -1.1385712383498494 7.290148321526449" fill="#ff5908" stroke="none" /><path d="M 103.2404852339499 79.25152402106235 l 0.7593870668114742 -4.8622731402630945 a25.921216191935127,25.921216191935127 0 0,0 0.44025432176301643,0.07264573533549017 l -0.8429705947133658 4.84848114198798" fill="#ff3605" stroke="none" /><path d="M 106.74666289553966 80.11325718540242 l 2.8015216619767513 -8.257881213849984 a29.72015629244003,29.72015629244003 0 0,0 0.4830487706981866,0.1685262311853528 l -2.9432524367382116 8.208434129492424" fill="#ff6b09" stroke="none" /><path d="M 107.08798089147638 80.2323363322302 l 3.8462363506498582 -10.726765171986784 a32.395482662880454,32.395482662880454 0 0,0 0.5232914421131967,0.19273265436843554 l -4.030310118535631 10.658969249812024" fill="#ff8f0d" stroke="none" /><path d="M 107.4271985657038 80.35727306442388 l 1.3503017133867063 -3.5711456482626365 a24.817904655472717,24.817904655472717 0 0,0 0.3982881751584497,0.15452962418342014 l -1.411573053544823 3.5473733201886697" fill="#ff2703" stroke="none" /><path d="M 108.43124777332544 80.76684994638697 l 4.533330411236268 -10.341319148248093 a32.291322612668644,32.291322612668644 0 0,0 0.5071550293341013,0.22754567844794127 l -4.710667559037149 10.26175313928362" fill="#ff8e0d" stroke="none" /><path d="M 108.76106565485865 80.91482961587045 l 5.09357280425359 -11.095876764630495 a33.20913449381645,33.20913449381645 0 0,0 0.5174643995361352,0.24295647402228418 l -5.283815415089323 11.006555307968206" fill="#ff9a0e" stroke="none" /><path d="M 109.08828744355905 81.06846463323043 l 5.316326472673184 -11.074278103960554 a33.28425670066797,33.28425670066797 0 0,0 0.5143665550270152,0.2523974346823341 l -5.506164294710631 10.981125509143387" fill="#ff9b0e" stroke="none" /><path d="M 109.41281617654863 81.2277094730956 l 1.341486521574479 -2.6753709249803106 a23.992857442945787,23.992857442945787 0 0,0 0.3675928692878988,0.18829534503376527 l -1.3873398784511333 2.6518830546340446" fill="#ff1b02" stroke="none" /><path d="M 109.73455568895987 81.39251694778311 l 6.1735723294558955 -11.800707311404787 a34.31802118771651,34.31802118771651 0 0,0 0.5210700499547515,0.27833757488722194 l -6.375787425938959 11.69269101001581" fill="#ffa90f" stroke="none" /><line stroke="#e1ed5e" stroke-width="0.3" x1="143.23703022742887" x2="145.7803849466894" y1="26.81831364943548" y2="22.513508569990506" /><path d="M 143.74570117128098 25.957352633546492 a86.0,86.0 0 0,1 28.547481713284135,27.462654790039103" fill="none" id="id122" stroke="none" /><text fill="#e1ed5e" style="font-size:6.75px; font-family:Arial;" text-anchor="middle"><textPath startOffset="19.985693538727396" xlink:href="#id122">February</textPath></text><path d="M 111.2981086023043 82.29822771554956 l 4.55388145867936 -7.134979440318175 a29.464382313758442,29.464382313758442 0 0,0 0.4251752098079654,0.27654578347698877 l -4.676023694271605 7.055534732681658" fill="#ff6809" stroke="none" /><path d="M 111.60114157652 82.49532879139004 l 12.913266556224533 -19.48450364172311 a44.37516492597278,44.37516492597278 0 0,0 0.6330757665122344,0.4274555835383886 l -13.246747017143308 19.259336145886053" fill="#d9ff1c" stroke="none" /><path d="M 111.90073688211348 82.69761687909136 l 6.302731701374295 -9.16348959612555 a32.121779015868356,32.121779015868356 0 0,0 0.45286945275113993,0.3172639926323071 l -6.459532293709086 9.053640760729305" fill="#ff8c0c" stroke="none" /><path d="M 113.06298171725822 83.55741782278167 l 6.934887988611616 -8.72905345124252 a32.148499700373975,32.148499700373975 0 0,0 0.4303254289059809,0.3479599030476647 l -7.084116816082089 8.608387450930724" fill="#ff8c0c" stroke="none" /><path d="M 114.42810811169701 84.74124197986012 l 7.836028154609971 -8.287161180422663 a32.4052785003324,32.4052785003324 0 0,0 0.4020056211782303,0.38672908906482134 l -7.9775170194006195 8.15104900459554" fill="#ff900d" stroke="none" /><path d="M 114.94478906791727 85.2469230424477 l 8.062946021990935 -7.959514358244468 a32.329826449360965,32.329826449360965 0 0,0 0.387551079313361,0.3994054539340549 l -8.198761365007407 7.819544708760299" fill="#ff8f0d" stroke="none" /><path d="M 115.19652480421416 85.50635884689758 l 9.25802150871028 -8.829810977424284 a33.79361263102743,33.79361263102743 0 0,0 0.39785168338389054,0.4244004364275236 l -9.408640514064633 8.669141124118706" fill="#ffa20f" stroke="none" /><path d="M 115.4437574822437 85.77008943001954 l 19.785673790099775 -18.230561372362505 a47.90401931458787,47.90401931458787 0 0,0 0.5535340441303335,0.6112261168537861 l -20.096551474846144 17.887282468239167" fill="#b0ff20" stroke="none" /><path d="M 115.9244219780498 86.31012108654704 l 3.6925201420833513 -3.1743791831367845 a25.86943407369105,25.86943407369105 0 0,0 0.2873840192612786,0.34017203321950606 l -3.7466147748317473 3.1103482002881715" fill="#ff3605" stroke="none" /><path d="M 116.15771136456269 86.58626213691792 l 19.698024154186616 -16.35281918727785 a46.60130564933597,46.60130564933597 0 0,0 0.5070699339086397,0.6216077823481164 l -19.976592580171662 16.01132723532163" fill="#bfff1e" stroke="none" /><path d="M 116.60985879189232 87.15038557335679 l 19.97471472328451 -15.452713096012884 a46.25421886149495,46.25421886149495 0 0,0 0.4817576443404075,0.6339365889556615 l -20.23774830784903 15.106591731176188" fill="#c3ff1e" stroke="none" /><path d="M 117.04232023915458 87.72973835380427 l 10.20783767207905 -7.349517983504162 a33.578368913709255,33.578368913709255 0 0,0 0.3336848495171773,0.4719735554956993 l -10.33283514140011 7.17271792767667" fill="#ff9f0e" stroke="none" /><path d="M 117.2510076193507 88.02491185347247 l 6.048834722954913 -4.198904237333348 a28.363368678799194,28.363368678799194 0 0,0 0.27495656829625037,0.40346483611624456 l -6.120215756919897 4.094161377946698" fill="#ff5908" stroke="none" /><path d="M 117.45458315368197 88.32363383020206 l 21.085516649443285 -14.105304670443275 a46.368457426890956,46.368457426890956 0 0,0 0.4380789507979991,0.6672242969346053 l -21.32519223559921 13.740262309530996" fill="#c1ff1e" stroke="none" /><line stroke="#e1ed5e" stroke-width="0.3" x1="172.23445277983987" x2="176.4835382374775" y1="55.19839476539836" y2="52.563006222186495" /><path d="M 173.08426987136738 54.67131705675599 a86.0,86.0 0 0,1 12.851231095245387,41.99856678651699" fill="none" id="id123" stroke="none" /><text fill="#e1ed5e" style="font-size:6.75px; font-family:Arial;" text-anchor="middle"><textPath startOffset="22.20632615414155" xlink:href="#id123">March</textPath></text><path d="M 117.84615892207809 88.93136811851018 l 19.521291918163005 -12.107591052881196 a43.971168870084625,43.971168870084625 0 0,0 0.3934041886465472,0.6466530474683664 l -19.726811905095776 11.769770232205747" fill="#ddff1b" stroke="none" /><path d="M 118.03404312379186 89.2402003453031 l 22.678081594665834 -13.530610570047664 a47.40781716107196,47.40781716107196 0 0,0 0.4120875417730133,0.7043911890293695 l -22.907628810909173 13.138239968664397" fill="#b6ff1f" stroke="none" /><path d="M 118.56541770881063 90.18545643968196 l 20.405205379256948 -10.787140919372467 a44.08104884497359,44.08104884497359 0 0,0 0.34885021402108374,0.6738675766957448 l -20.58786502643815 10.434300620416376" fill="#dcff1b" stroke="none" /><path d="M 118.89224826269711 90.83032412892265 l 21.871263183349082 -10.615591722787727 a45.31137472172728,45.31137472172728 0 0,0 0.3345313036366471,0.7046082415777878 l -22.050752680827486 10.237541065569399" fill="#ceff1d" stroke="none" /><path d="M 119.196687751892 91.48605970444005 l 12.524258790767023 -5.554645310112042 a34.70077161254996,34.70077161254996 0 0,0 0.23746777411194328,0.5481083632089405 l -12.618017274721646 5.338237802316498" fill="#ffae10" stroke="none" /><path d="M 119.34039704204932 91.81776055985345 l 10.4677362124879 -4.428529771165093 a32.36597454459256,32.36597454459256 0 0,0 0.2126572652355789,0.514966435590926 l -10.542415164609677 4.247688765120864" fill="#ff8f0d" stroke="none" /><path d="M 119.7369772167798 92.82701384747503 l 21.293605072429095 -7.738709562476228 a43.6562407003664,43.6562407003664 0 0,0 0.25060120570736055,0.7084833548559955 l -21.423659358946267 7.3710285811936185" fill="#e1ff1b" stroke="none" /><path d="M 119.85752413597 93.16781622104841 l 12.483653371654723 -4.295128309242635 a34.201883528363815,34.201883528363815 0 0,0 0.18674669159356747,0.5583488382972088 l -12.55573735702006 4.0796063680231125" fill="#ffa70f" stroke="none" /><path d="M 120.08093135843002 93.85539295169968 l 10.709069032274694 -3.2768908912596566 a32.19920414365438,32.19920414365438 0 0,0 0.15761372874591,0.5313951393495225 l -10.763888658132306 3.0920663651636042" fill="#ff8d0d" stroke="none" /><path d="M 120.28053869075195 94.5502522615342 l 47.7924662687659 -12.842700528594921 a70.48792568817467,70.48792568817467 0 0,0 0.30478867673046567,1.1744751025685394 l -48.006451277366665 12.018129000477531" fill="#3cffa6" stroke="none" /><path d="M 120.37134235888165 94.90015583598534 l 11.045370896149256 -2.7651427830206288 a32.386229966235184,32.386229966235184 0 0,0 0.1307280963974711,0.5419523571909398 l -11.091331792807548 2.574605194170283" fill="#ff8f0d" stroke="none" /><path d="M 120.45610955862082 95.25157060432595 l 3.3506932384605417 -0.7777886710959242 a24.439782027273,24.439782027273 0 0,0 0.09159752504729077,0.410613744317255 l -3.36358515050987 0.7199967572287053" fill="#ff2103" stroke="none" /><path d="M 120.53481517161879 95.60439243477599 l 11.229848325844323 -2.403820333655737 a32.484243362884875,32.484243362884875 0 0,0 0.11233469641339468,0.5477838745671263 l -11.269562318172714 2.210160802925199" fill="#ff910d" stroke="none" /><path d="M 120.6074358757038 95.95851677861258 l 13.170213242815906 -2.5829121179355448 a34.421100993220406,34.421100993220406 0 0,0 0.1090235530852228,0.5824081800364935 l -13.21272251981099 2.3558258604364886" fill="#ffaa0f" stroke="none" /><path d="M 120.67395015179393 96.31383870115 l 11.183056760820788 -1.9939368496060417 a32.35942527929809,32.35942527929809 0 0,0 0.09305359309010708,0.5492075738796941 l -11.21572221543112 1.8011434874105097" fill="#ff8f0d" stroke="none" /><path d="M 120.87857604477298 97.74499172005257 l 6.630423440323127 -0.7161244964897576 a27.66898412747092,27.66898412747092 0 0,0 0.04706741154695492,0.4739624110096138 l -6.64176797755231 0.6018865547757088" fill="#ff4f07" stroke="none" /><path d="M 120.91429891909075 98.10471618934814 l 11.123914508615917 -1.0080651118556219 a32.1694972700089,32.1694972700089 0 0,0 0.04522957200782701,0.5519153408003277 l -11.13961856444324 0.8164358538475254" fill="#ff8c0c" stroke="none" /><path d="M 120.94382443527127 98.46500227214037 l 15.854761724704092 -1.1620142872373846 a36.89728739599576,36.89728739599576 0 0,0 0.04097252074356427,0.6338267610360094 l -15.872414836452071 0.88892846194834" fill="#ffca12" stroke="none" /><path d="M 120.96714384426684 98.82574320788733 l 13.488489545645688 -0.7554176468649588 a34.50962642134075,34.50962642134075 0 0,0 0.028111199489482663,0.5933829912064581 l -13.499494353368668 0.5231235490355011" fill="#ffab0f" stroke="none" /><line stroke="#e1ed5e" stroke-width="0.3" x1="184.98032266829074" x2="189.97916517819016" y1="98.17113171792111" y2="98.06355123074" /><path d="M 185.9800911702706 98.14961562048488 a86.0,86.0 0 0,1 -9.607161424134198,41.387399972396054" fill="none" id="id124" stroke="none" /><text fill="#e1ed5e" style="font-size:6.75px; font-family:Arial;" text-anchor="middle"><textPath startOffset="21.466115282336823" xlink:href="#id124">April</textPath></text><path d="M 120.99980553446 99.90962569577887 l 47.84075073133342 -0.20588640945583678 a68.84119375340856,68.84119375340856 0 0,0 -0.00509983008171552,1.1850209071905191 l -47.83720660396221 -0.6176439759383671" fill="#3aff94" stroke="none" /><path d="M 120.9904718944345 100.63252640178507 l 1.9911373843950708 0.06000088857197562 a22.99204121196452,22.99204121196452 0 0,0 -0.015325692303082878,0.39548802015967854 l -1.9898095592407847 -0.09426615574566034" fill="#ff0c01" stroke="none" /><path d="M 120.95626037817324 101.35467743843564 l 11.077134582338598 0.7160602144855283 a32.10025462707999,32.10025462707999 0 0,0 -0.040390437857070055,0.5510954342074375 l -11.06316758581719 -0.9066287851897359" fill="#ff8b0c" stroke="none" /><path d="M 120.8583938346157 102.4346265915055 l 47.30721202297349 5.521776857524868 a68.62837735059703,68.62837735059703 0 0,0 -0.14705587636260278,1.1721800241773441 l -47.20515463736404 -6.335274635989607" fill="#3aff91" stroke="none" /><path d="M 120.81339534386255 102.79330883721812 l 1.8098117227965502 0.24288987911236057 a22.82603777763414,22.82603777763414 0 0,0 -0.05561504211540757,0.38897147502250534 l -1.8053626296645413 -0.2740068261152752" fill="#ff0a01" stroke="none" /><path d="M 120.70491114924044 103.5080841355445 l 12.428815308729929 2.1058448159420182 a33.60595225944273,33.60595225944273 0 0,0 -0.10154367759242956,0.5695108701376335 l -12.39072518879831 -2.31947443681287" fill="#ff9f0e" stroke="none" /><path d="M 120.64145759157962 103.86396538481128 l 5.006994795534489 0.9372814146500856 a26.093966365491426,26.093966365491426 0 0,0 -0.08644566614180975,0.4407845892623253 l -4.990119196417015 -1.023329730980356" fill="#ff3905" stroke="none" /><path d="M 120.41448212921028 104.9243191809786 l 46.31636690273191 11.172292908964824 a68.64478955680448,68.64478955680448 0 0,0 -0.28696361217542843,1.1462769841902714 l -46.11719197626142 -11.967897732552492" fill="#3aff92" stroke="none" /><path d="M 120.32669344350535 105.2749913415812 l 4.046265361905333 1.0500485388394676 a25.180294883482958,25.180294883482958 0 0,0 -0.11248628101432576,0.4186032975779644 l -4.02759100454923 -1.1195427695929803" fill="#ff2c04" stroke="none" /><path d="M 120.13307415673323 105.97154293290107 l 10.55809459964146 3.1315692129562054 a32.01272388242406,32.01272388242406 0 0,0 -0.16124233932923807,0.5269492943472661 l -10.502625487806089 -3.3128454798555285" fill="#ff8a0c" stroke="none" /><path d="M 119.9155931802556 106.66101706037122 l 17.254036464867585 5.7708264178991 a39.193521151126916,39.193521151126916 0 0,0 -0.21950083119014024,0.6379721615000974 l -17.152144802734213 -6.066971282488497" fill="#ffe715" stroke="none" /><path d="M 119.54520255179757 107.68017299344265 l 11.492851137331439 4.516048615442546 a33.348292285247425,33.348292285247425 0 0,0 -0.21453652889129973,0.5324620706955279 l -11.413411994182745 -4.713210053980887" fill="#ff9c0e" stroke="none" /><path d="M 119.26925614724726 108.34839909993367 l 10.126707173062488 4.387392663362568 a32.036277114656144,32.036277114656144 0 0,0 -0.2235810487224929,0.5041162411961602 l -10.049685039608724 -4.561057241051416" fill="#ff8b0c" stroke="none" /><path d="M 118.97047184881838 109.00673069616215 l 10.072866669640854 4.782358507200435 a32.15049756000843,32.15049756000843 0 0,0 -0.24165958752685263,0.4978903275107718 l -9.989053825499287 -4.955037790676482" fill="#ff8c0c" stroke="none" /><path d="M 118.64920377521936 109.65438752849418 l 5.72318698930844 2.962800222400898 a27.44461437732687,27.44461437732687 0 0,0 -0.22079517913259109,0.417661270083089 l -5.671339301950956 -3.0608765075701214" fill="#ff4c07" stroke="none" /><line stroke="#e1ed5e" stroke-width="0.3" x1="174.80103733775053" x2="179.2010983576182" y1="140.37084112569926" y2="142.7455964860345" /><path d="M 175.68104954172406 140.8457921977663 a86.0,86.0 0 0,1 -30.038265399797805,32.042727171017184" fill="none" id="id125" stroke="none" /><text fill="#e1ed5e" style="font-size:6.75px; font-family:Arial;" text-anchor="middle"><textPath startOffset="22.206326154141568" xlink:href="#id125">May</textPath></text><path d="M 118.48025628344425 109.97397251340804 l 5.960552169234916 3.2169674807996618 a27.773260805158294,27.773260805158294 0 0,0 -0.2306815176607318,0.4187539605304681 l -5.904294242122674 -3.319091959727935" fill="#ff5007" stroke="none" /><path d="M 118.30583269289576 110.29060199501025 l 3.1410929458417822 1.7657616497028534 a24.603384394979024,24.603384394979024 0 0,0 -0.21070807482536535,0.367387289094507 l -3.110232874864037 -1.8195687846556756" fill="#ff2403" stroke="none" /><path d="M 117.75023020441432 111.22182372390056 l 9.345123002639033 5.908054250907876 a32.05605847334952,32.05605847334952 0 0,0 -0.2988771594467968,0.4638639886526574 l -9.242040979815187 -6.068039839481986" fill="#ff8b0c" stroke="none" /><path d="M 117.55443506779139 111.5257021239791 l 15.004008529269678 9.851170505127598 a38.948978585632474,38.948978585632474 0 0,0 -0.3727916068160216,0.5572728711605277 l -14.832213817042936 -10.107980290493932" fill="#ffe415" stroke="none" /><path d="M 116.93607887273984 112.41649034213515 l 9.038352153681652 6.626363343503336 a32.20716292440181,32.20716292440181 0 0,0 -0.3316398149579734,0.4442857279402052 l -8.922951072028587 -6.7809619509528565" fill="#ff8d0d" stroke="none" /><path d="M 116.71984013943494 112.70617746262583 l 8.821510628389728 6.703872680480537 a32.079754450477964,32.079754450477964 0 0,0 -0.33789633284590737,0.43677655908737945 l -8.704807478325753 -6.85472723368117" fill="#ff8b0c" stroke="none" /><path d="M 116.27256486870786 113.27417163493432 l 6.388187755910118 5.21109618503984 a29.24405641990014,29.24405641990014 0 0,0 -0.32155093365208787,0.38732881378690454 l -6.297540822364486 -5.320286255940515" fill="#ff6509" stroke="none" /><path d="M 115.80600337817218 113.82643327865902 l 25.14502671242512 21.9958218286582 a54.407911432573115,54.407911432573115 0 0,0 -0.6226885724731405,0.6995972122498075 l -24.76267929030364 -22.425393210648874" fill="#69ff28" stroke="none" /><path d="M 114.0293411484842 115.62618273729858 l 31.5940238834295 35.19010517912924 a68.29192158989622,68.29192158989622 0 0,0 -0.881478456268813,0.7778022499145036 l -30.9836030742541 -35.72873057081603" fill="#39ff8e" stroke="none" /><path d="M 112.34349029814194 116.9893568818739 l 27.483200510680113 37.82738029958422 a67.75721346102246,67.75721346102246 0 0,0 -0.9494807744137431,0.6774293222660844 l -26.827992408417487 -38.29485388369452" fill="#39ff88" stroke="none" /><path d="M 111.1453310114006 117.79835938074945 l 5.956993371908107 9.512925973531866 a32.22414943819149,32.22414943819149 0 0,0 -0.47265277578345655,0.2903419390643652 l -5.792361396192341 -9.61405637942461" fill="#ff8d0d" stroke="none" /><line stroke="#e1ed5e" stroke-width="0.3" x1="143.8653032363475" x2="146.44561519142675" y1="172.8068346515853" y2="177.08958963109032" /><path d="M 144.38136562736335 173.6633856474863 a86.0,86.0 0 0,1 -40.68145358897372,12.25698825130547" fill="none" id="id126" stroke="none" /><text fill="#e1ed5e" style="font-size:6.75px; font-family:Arial;" text-anchor="middle"><textPath startOffset="21.466115282336833" xlink:href="#id126">June</textPath></text><path d="M 110.8373102113329 117.98757091392108 l 5.8222091329612855 9.663597111514202 a32.281986896003886,32.281986896003886 0 0,0 -0.4784376909084362,0.28266942093484115 l -5.655003571024467 -9.762385104742792" fill="#ff8e0d" stroke="none" /><path d="M 110.21172684928248 118.3499491758327 l 2.691845251481853 4.837107796059906 a26.535670030685438,26.535670030685438 0 0,0 -0.4010388733104911,0.2186783695537244 l -2.608183566302713 -4.8827268173734" fill="#ff3f05" stroke="none" /><path d="M 109.89434966115114 118.52300852407294 l 2.6323327367574714 4.927935982755851 a26.586924796983126,26.586924796983126 0 0,0 -0.4055254231579809,0.21215173508112287 l -2.5471164110729947 -4.97251713678169" fill="#ff4006" stroke="none" /><path d="M 109.57404056367764 118.69057910512821 l 2.5512401403910725 4.980567540215333 a26.59596991383882,26.59596991383882 0 0,0 -0.4092563690020897,0.20520963944050225 l -2.4651298637062222 -5.023745020565137" fill="#ff4006" stroke="none" /><path d="M 108.92500713936063 119.00905698771935 l 0.4848339254171711 1.0326306269481498 a22.14078479431782,22.14078479431782 0 0,0 -0.34637887636949893,0.1590055533301833 l -0.46698705328025275 -1.0408232506124073" fill="#ff0000" stroke="none" /><path d="M 108.59647513512805 119.15986991738527 l 2.324929939756744 5.181816327339389 a26.679482342173305,26.679482342173305 0 0,0 -0.42062023877748134,0.18438755179066832 l -2.2353890263215086 -5.221068432424511" fill="#ff4106" stroke="none" /><path d="M 108.2653958097858 119.30500536409082 l 0.5287402714528397 1.2349479700080366 a22.343377371881406,22.343377371881406 0 0,0 -0.35486447832100276,0.14833338071854052 l -0.5074043336343759 -1.2438663937465504" fill="#ff0300" stroke="none" /><path d="M 107.93186726928326 119.44442032107085 l 1.9728742510387434 4.8363638567645335 a26.22327944546623,26.22327944546623 0 0,0 -0.4194212801331735,0.16689638323371586 l -1.8893318948637037 -4.869607084404318" fill="#ff3b05" stroke="none" /><path d="M 107.59598834532513 119.57807347666477 l 4.009755683459237 10.334835682384 a32.085439514196594,32.085439514196594 0 0,0 -0.5166210752259452,0.19534188514228026 l -3.8312643874730172 -10.402325817632912" fill="#ff8b0c" stroke="none" /><path d="M 107.2578585660854 119.70592522655815 l 4.779856758358508 12.977863789466825 a34.830111321619206,34.830111321619206 0 0,0 -0.5643812182778968,0.20236702515250873 l -4.555755979450877 -13.058218355659294" fill="#ffaf10" stroke="none" /><path d="M 106.91757812671514 119.82793768551818 l 3.6574442012649526 10.483376462475569 a32.103066249435486,32.103066249435486 0 0,0 -0.5233262496525307,0.1775406774105292 l -3.476448218675195 -10.54478012678422" fill="#ff8b0c" stroke="none" /><path d="M 106.57524785965236 119.94407469862006 l 4.477018610026992 13.57971524288839 a35.298683915398065,35.298683915398065 0 0,0 -0.5786944484977764,0.18527968784062532 l -4.242602816438275 -13.654767777388724" fill="#ffb510" stroke="none" /><path d="M 106.2309692047433 120.05430185196036 l 6.7514899602278104 21.729591844205913 a43.7542914281864,43.7542914281864 0 0,0 -0.7211645351871404,0.21728095864899685 l -6.376450450600424 -21.842588171960635" fill="#e0ff1b" stroke="none" /><path d="M 105.88484417918355 120.15858648285463 l 3.4014091384075917 11.651557491140638 a33.13789010068052,33.13789010068052 0 0,0 -0.5489351962286515,0.15513456961968797 l -3.2003427740743344 -11.708380854098845" fill="#ff990e" stroke="none" /><path d="M 105.53697534728816 120.25689768951611 l 3.810989647893671 13.942418477806077 a35.45388097040449,35.45388097040449 0 0,0 -0.59007001136095,0.15584285306330378 l -3.570429193721224 -14.005952680172966" fill="#ffb711" stroke="none" /><path d="M 105.18746579009965 120.34920634021253 l 4.0205548327394895 15.771689530888032 a37.27608834523173,37.27608834523173 0 0,0 -0.6231261129150223,0.153149237971507 l -3.7484754350812564 -15.83856002717357" fill="#ffcf13" stroke="none" /><path d="M 104.83641907484287 120.43548508189849 l 1.2760940897119952 5.391923514042376 a26.540871349082288,26.540871349082288 0 0,0 -0.4454820175289425,0.10139025682465862 l -1.1830919227901906 -5.413090504444719" fill="#ff3f05" stroke="none" /><path d="M 104.48393922423573 120.51570834832081 l 0.3135530117960047 1.4346229554083376 a22.468488513877755,22.468488513877755 0 0,0 -0.378549670713614,0.07932876406754477 l -0.28881187965301264 -1.4398077002024234" fill="#ff0500" stroke="none" /><path d="M 104.13013068566511 120.58985236759428 l 0.34581763115410813 1.7239972566213397 a22.75833909552593,22.75833909552593 0 0,0 -0.38475940083193383,0.0737400549045321 l -0.31609061575046987 -1.72969450987434" fill="#ff0901" stroke="none" /><path d="M 103.41894727170886 120.7198165907248 l 0.32554888706375545 1.9729211055963864 a22.99959990167436,22.99959990167436 0 0,0 -0.3911729636300551,0.0610931720407017 l -0.29154005982518316 -1.978232584984194" fill="#ff0d01" stroke="none" /><path d="M 102.34483914955558 120.86867818915974 l 3.808017959454765 33.89072608646255 a55.103992661375635,55.103992661375635 0 0,0 -0.943504740853084,0.09779812414755829 l -3.224080621996078 -33.95125357906586" fill="#62ff29" stroke="none" /><path d="M 101.98527174616119 120.90594882070398 l 0.5366172823113473 5.650860373144816 a26.676282327761154,26.676282327761154 0 0,0 -0.4575054600892416,0.03947549617907882 l -0.4392675044805641 -5.659260121602558" fill="#ff4106" stroke="none" /><path d="M 100.90346689309514 120.98055641714683 l 0.1283340814869249 2.9802092998172562 a23.982971187790515,23.982971187790515 0 0,0 -0.412598066501043,0.014210711658612492 l -0.07701566331122957 -2.981976809901963" fill="#ff1b02" stroke="none" /><line stroke="#e1ed5e" stroke-width="0.3" x1="102.19456741930631" x2="102.32365962044197" y1="184.97166512339345" y2="189.96999836594603" /><path d="M 102.22038585953345 185.97133177190398 a86.0,86.0 0 0,1 -42.740103519485714,-10.115201625700543" fill="none" id="id127" stroke="none" /><text fill="#e1ed5e" style="font-size:6.75px; font-family:Arial;" text-anchor="middle"><textPath startOffset="22.20632615414155" xlink:href="#id127">July</textPath></text><path d="M 100.54218724476979 120.99299961872073 l 1.4495667789999735 56.125914308030566 a77.14463020413591,77.14463020413591 0 0,0 -1.3277704316237304,0.022858772106479127 l -0.48323665748357525 -56.1425505574162" fill="#44ffeb" stroke="none" /><path d="M 98.37488393609728 120.93702456842531 l -0.5590046636643775 7.201882152895891 a28.22354433489536,28.22354433489536 0 0,0 -0.48404142217552787,-0.04176513064538889 l 0.6828904035814471 -7.191192769971838" fill="#ff5708" stroke="none" /><path d="M 98.01472825383883 120.90594882070398 l -1.1804332833287488 12.430579267168428 a33.48650165794038,33.48650165794038 0 0,0 -0.5733644976146722,-0.05943157452374539 l 1.3942303775490144 -12.408418324188922" fill="#ff9e0e" stroke="none" /><path d="M 97.65516085044442 120.86867818915974 l -1.373349205033605 12.222579363968986 a33.2994932557194,33.2994932557194 0 0,0 -0.5690607121791857,-0.06890532729243366 l 1.5835373402641801 -12.197128507951204" fill="#ff9b0e" stroke="none" /><path d="M 97.2962882734958 120.8252237178851 l -1.4519861072783509 11.183860772919518 a32.277721642414186,32.277721642414186 0 0,0 -0.5503680600846934,-0.07627599816255021 l 1.6442827585498754 -11.157210209264363" fill="#ff8e0d" stroke="none" /><path d="M 96.93821686468263 120.77559828337769 l -0.32255681850091 2.1886954720732255 a23.21233604378613,23.21233604378613 0 0,0 -0.3947911407956078,-0.06165825690238937 l 0.3601838229050349 -2.1828189078237306" fill="#ff1001" stroke="none" /><path d="M 96.22490169976321 120.6578951692458 l -3.555380355273695 19.455566140206976 a40.77775981517205,40.77775981517205 0 0,0 -0.6894012066477623,-0.13212538204274088 l 3.889749176493152 -19.391483559815764" fill="#fffa17" stroke="none" /><path d="M 95.86986931433489 120.58985236759428 l -0.7491900118137477 3.734920977697144 a24.809320199647658,24.809320199647658 0 0,0 -0.41798806298893965,-0.087593462621147 l 0.813369536232074 -3.721471534349456" fill="#ff2703" stroke="none" /><path d="M 95.51606077576429 120.51570834832081 l -4.503339358039786 20.604471256812417 a42.090858236365804,42.090858236365804 0 0,0 -0.7064847344324008,-0.1607936254399901 l 4.857344241865049 -20.52390089779474" fill="#f4ff19" stroke="none" /><path d="M 95.16358092515715 120.4354850818985 l -0.6233450505001432 2.633840923056249 a23.706598799221787,23.706598799221787 0 0,0 -0.39629160182749323,-0.09739883400242783 l 0.668589937070847 -2.6227208307397913" fill="#ff1702" stroke="none" /><path d="M 94.81253420990036 120.34920634021253 l -2.378373414858748 9.3297986591844 a30.62817755971637,30.62817755971637 0 0,0 -0.5097543226851214,-0.13463074970608274 l 2.5386181803553587 -9.287476560174735" fill="#ff780b" stroke="none" /><path d="M 93.42475214034765 119.94407469862007 l -2.262981028397401 6.864085375224792 a28.22749964879013,28.22749964879013 0 0,0 -0.4601489282516519,-0.15610749983546507 l 2.3807996895862784 -6.824114888491204" fill="#ff5708" stroke="none" /><path d="M 93.08242187328487 119.8279376855182 l -3.7887486367780427 10.859735950940374 a32.5016729720869,32.5016729720869 0 0,0 -0.5266515980576509,-0.18883852569711743 l 3.97511979546542 -10.792909884203299" fill="#ff910d" stroke="none" /><path d="M 92.7421414339146 119.70592522655815 l -3.821030534623698 10.374539723815849 a32.055828726403085,32.055828726403085 0 0,0 -0.5161442995526121,-0.1951616093786995 l 3.9990450549365932 -10.307229864330514" fill="#ff8b0c" stroke="none" /><path d="M 92.40401165467489 119.57807347666478 l -4.040876907613359 10.415048234783226 a32.17147778565325,32.17147778565325 0 0,0 -0.5145581590851657,-0.20475331077012796 l 4.219556142740383 -10.343948079607031" fill="#ff8c0c" stroke="none" /><path d="M 92.06813273071674 119.44442032107085 l -6.020783481854014 14.759531483424416 a36.94031377814009,36.94031377814009 0 0,0 -0.5866975685775642,-0.24523963124800438 l 6.273952509929041 -14.65370680915644" fill="#ffcb12" stroke="none" /><path d="M 91.7346041902142 119.30500536409082 l -3.345271687373645 7.813356958977023 a29.499375837715284,29.499375837715284 0 0,0 -0.46507778335087835,-0.20387643284484053 l 3.4792701453822668 -7.754615972837731" fill="#ff6809" stroke="none" /><path d="M 91.40352486487194 119.15986991738527 l -8.688530355461502 19.365043086513374 a42.22487817350892,42.22487817350892 0 0,0 -0.6605820883247348,-0.3032408372444609 l 9.020580439553656 -19.212615178934836" fill="#f2ff19" stroke="none" /><path d="M 91.07499286063937 119.00905698771935 l -2.8248027433171754 6.016447436772455 a27.64658937336271,27.64658937336271 0 0,0 -0.42903205951323964,-0.20596146080167804 l 2.927947470830657 -5.966931699471215" fill="#ff4f07" stroke="none" /><path d="M 90.7491055286396 118.85261126421891 l -4.25011941680087 8.661416411084913 a30.647986800534028,30.647986800534028 0 0,0 -0.4716084367610908,-0.236474260622559 l 4.398581761244721 -8.586974309553053" fill="#ff780b" stroke="none" /><path d="M 90.42595943632237 118.69057910512821 l -3.597421386584223 7.022937552147228 a28.890696578503906,28.890696578503906 0 0,0 -0.4406644260210213,-0.23053480060722772 l 3.7177767151317402 -6.9599733325952835" fill="#ff6008" stroke="none" /><path d="M 90.10565033884886 118.52300852407294 l -3.3035861462821248 6.184575686450296 a28.01160879166396,28.01160879166396 0 0,0 -0.42334503015876074,-0.2308414647926561 l 3.409553988309526 -6.126793569897874" fill="#ff5407" stroke="none" /><line stroke="#e1ed5e" stroke-width="0.3" x1="58.666819895761336" x2="56.23545636021788" y1="174.27360380694188" y2="178.64263932499728" /><path d="M 58.180547188652646 175.14741091055294 a86.0,86.0 0 0,1 -31.652253787137756,-30.449443065178592" fill="none" id="id128" stroke="none" /><text fill="#e1ed5e" style="font-size:6.75px; font-family:Arial;" text-anchor="middle"><textPath startOffset="22.20632615414155" xlink:href="#id128">August</textPath></text><path d="M 89.7882731507175 118.34994917583269 l -3.9035137990931785 7.014414004381082 a29.027417007018403,29.027417007018403 0 0,0 -0.43451449186897884,-0.24672866861484813 l 4.023677057883365 -6.946182169971601" fill="#ff6209" stroke="none" /><path d="M 89.4739219176387 118.17145234162733 l -4.710053168141446 8.131091751526629 a30.39676826991406,30.39676826991406 0 0,0 -0.45049766202391783,-0.2661619593870405 l 4.849318701193746 -8.048811219845838" fill="#ff750a" stroke="none" /><path d="M 89.1626897886671 117.98757091392108 l -13.550699910368492 22.491205918985926 a47.25787142460501,47.25787142460501 0 0,0 -0.6931622555096628,-0.42579687174651865 l 13.935841365810463 -22.25462058041103" fill="#b7ff1f" stroke="none" /><path d="M 88.54995079064634 117.60387380957326 l -3.6154811969105607 5.558620193466496 a27.630985050535653,27.630985050535653 0 0,0 -0.39647213783163177,-0.2627601139899127 l 3.710628033482154 -5.495562058385264" fill="#ff4e07" stroke="none" /><path d="M 87.95078237400918 117.19931262002967 l -8.363210335827171 11.937826466233046 a35.57583575165351,35.57583575165351 0 0,0 -0.49852363098324665,-0.3556833740832013 l 8.567461294659305 -11.792098830305624" fill="#ffb911" stroke="none" /><path d="M 87.36589467227662 116.77436683061367 l -7.478913254550098 9.929791716305767 a33.4312069807521,33.4312069807521 0 0,0 -0.45668823116979895,-0.3501690614757982 l 7.6487302142133835 -9.799583313002602" fill="#ff9d0e" stroke="none" /><path d="M 86.24171649860922 115.8653595955263 l -7.295533953430761 8.4128423142938 a32.13556156962159,32.13556156962159 0 0,0 -0.41478998605176726,-0.36600393588596514 l 7.4392662923891155 -8.286015236635546" fill="#ff8c0c" stroke="none" /><path d="M 85.44109423537348 115.13401014063109 l -4.7849573485145545 4.973972234290659 a27.901899493226328,27.901899493226328 0 0,0 -0.3432598601371821,-0.3359520197679563 l 4.86986716102753 -4.890870111600132" fill="#ff5207" stroke="none" /><path d="M 84.9287848128048 114.62390073753433 l -2.273385425091955 2.2059112275795982 a24.167700370139553,24.167700370139553 0 0,0 -0.28712775764696014,-0.30105230597118976 l 2.3110197341178726 -2.166451805025908" fill="#ff1d03" stroke="none" /><path d="M 84.19399662182784 113.82643327865904 l -9.538370346946104 8.34376901192597 a33.67276568866784,33.67276568866784 0 0,0 -0.3778685456191738,-0.4395464861824628 l 9.680581402136056 -8.178345426581975" fill="#ffa00e" stroke="none" /><path d="M 83.95833913139862 113.55231037782056 l -9.170306435703305 7.747255106210956 a33.00476912753482,33.00476912753482 0 0,0 -0.36290158162562414,-0.43713833306586103 l 9.302304017222465 -7.588255516031333" fill="#ff970e" stroke="none" /><path d="M 83.72743513129214 113.27417163493432 l -11.1464642363285 9.092609591018375 a35.38468679347693,35.38468679347693 0 0,0 -0.38094494626447867,-0.47528739342813253 l 11.30132709464784 -8.899394364011982" fill="#ffb710" stroke="none" /><path d="M 83.50135304334701 112.99209946851258 l -12.410096665622383 9.772511086347352 a36.79596379404795,36.79596379404795 0 0,0 -0.38757220691115163,-0.50098932269192 l 12.576475689751604 -9.55744376954218" fill="#ffc912" stroke="none" /><path d="M 83.28015986056508 112.70617746262583 l -18.635598195352433 14.162050343642846 a44.40617845857152,44.40617845857152 0 0,0 -0.4572540847996907,-0.61256656998378 l 18.87661354684721 -13.839170894149758" fill="#d8ff1c" stroke="none" /><path d="M 83.06392112726016 112.41649034213515 l -4.506758878144198 3.304078146145089 a26.58818467675909,26.58818467675909 0 0,0 -0.26742675656098797,-0.37143237505810045 l 4.562965427080793 -3.2260121656358502" fill="#ff4006" stroke="none" /><path d="M 82.6465618267979 111.8261652097733 l -1.8290351328199408 1.2464660570036743 a23.213379124405023,23.213379124405023 0 0,0 -0.22218176747279944,-0.3321315963537578 l 1.8502200057034706 -1.2147975464440957" fill="#ff1001" stroke="none" /><path d="M 82.24976979558568 111.22182372390057 l -15.746479807700863 9.95503825240723 a39.629396472812054,39.629396472812054 0 0,0 -0.35956196841374677,-0.5797283801061106 l 15.915506415782566 -9.682513540935854" fill="#ffec16" stroke="none" /><line stroke="#e1ed5e" stroke-width="0.3" x1="26.63291911575756" x2="22.317208475507996" y1="142.92168965132927" y2="145.44649492493687" /><path d="M 25.769776987707644 143.4266507060508 a86.0,86.0 0 0,1 -11.730757126820373,-40.83630448921669" fill="none" id="id129" stroke="none" /><text fill="#e1ed5e" style="font-size:6.75px; font-family:Arial;" text-anchor="middle"><textPath startOffset="21.46611528233685" xlink:href="#id129">September</textPath></text><path d="M 81.87401531095188 110.60418214915194 l -11.386360844317467 6.661323314593101 a34.19175657668635,34.19175657668635 0 0,0 -0.2928247223028985,-0.5105645856044073 l 11.499337562772743 -6.464338883130387" fill="#ffa70f" stroke="none" /><path d="M 81.35079622478065 109.6543875284942 l -9.972263033590922 5.1624773380563 a32.22930105915185,32.22930105915185 0 0,0 -0.25080739290216564,-0.4948667802995099 l 10.059649096279355 -4.9900563460541045" fill="#ff8d0d" stroke="none" /><path d="M 81.02952815118164 109.00673069616217 l -10.334093992060547 4.90638305241281 a32.43967190498685,32.43967190498685 0 0,0 -0.23514959453937775,-0.5064913067478101 l 10.417018203439751 -4.727771678386173" fill="#ff900d" stroke="none" /><path d="M 80.87730276802145 108.67885076344099 l -4.475244278000241 2.0310930381596974 a25.914585463437856,25.914585463437856 0 0,0 -0.18085778738857117,-0.40778656549977343 l 4.509543150120092 -1.953758136167228" fill="#ff3605" stroke="none" /><path d="M 80.73074385275274 108.34839909993369 l -5.1838880242328305 2.245917838496574 a26.64949926852475,26.64949926852475 0 0,0 -0.17874075350895496,-0.42249034213014075 l 5.221779758934091 -2.1563529707002744" fill="#ff4106" stroke="none" /><path d="M 79.86692584326677 105.97154293290107 l -17.291405764719627 5.128693764817022 a39.03596997817007,39.03596997817007 0 0,0 -0.1855274871483029,-0.6458455216829625 l 17.377125888754033 -4.830290767629464" fill="#ffe515" stroke="none" /><path d="M 79.58551787078972 104.9243191809786 l -10.968674481707886 2.6458302394504156 a32.28327246598521,32.28327246598521 0 0,0 -0.12565792482282487,-0.5413310513632942 l 11.012592972461267 -2.456630530738547" fill="#ff8e0d" stroke="none" /><path d="M 79.4281124754447 104.21870165774334 l -11.103075669521873 2.276921049522132 a32.33413687886667,32.33413687886667 0 0,0 -0.10711847951603475,-0.5461948192801788 l 11.140624082013575 -2.085462503173998" fill="#ff8f0d" stroke="none" /><path d="M 79.35854240842038 103.8639653848113 l -12.91164062978916 2.416986893163028 a34.13591600896352,34.13591600896352 0 0,0 -0.10314501498949419,-0.5784920206731442 l 12.951332087117843 -2.19437612175667" fill="#ffa60f" stroke="none" /><path d="M 79.29508885075956 103.50808413554451 l -11.07423791679516 1.8763354292674557 a32.23206926976984,32.23206926976984 0 0,0 -0.08797550780231234,-0.5478235710641879 l 11.104895178958765 -1.685432628510054" fill="#ff8d0d" stroke="none" /><path d="M 79.18660465613746 102.79330883721812 l -11.440598181407735 1.5354113769145954 a32.54317005180071,32.54317005180071 0 0,0 -0.06973302555496205,-0.555840824608887 l 11.465332716209545 -1.3382527980182997" fill="#ff910d" stroke="none" /><path d="M 79.07016306316243 101.71520430193888 l -11.248426998954406 0.9218108309623176 a32.2861350850894,32.2861350850894 0 0,0 -0.0406243236369621,-0.554286619850913 l 11.262627881255703 -0.728051074614644" fill="#ff8e0d" stroke="none" /><path d="M 79.04373962182676 101.35467743843564 l -11.224623170309057 0.7255943326413807 a32.24805105122662,32.24805105122662 0 0,0 -0.031040513738593407,-0.5542492246403052 l 11.235450034935182 -0.5322733916656379" fill="#ff8d0d" stroke="none" /><path d="M 79.0235259727143 100.99374915477108 l -2.3209653555985614 0.10995448316904172 a23.323568413078842,23.323568413078842 0 0,0 -0.015546676765819311,-0.4011906472204631 l 2.3225141652155816 -0.06998658893458182" fill="#ff1101" stroke="none" /><path d="M 79.0095281055655 100.63252640178507 l -1.8282101572985983 0.05509124322305586 a22.829040028082936,22.829040028082936 0 0,0 -0.008455373442851653,-0.3928879791373322 l 1.8288875934264572 -0.023613448295594818" fill="#ff0a01" stroke="none" /><line stroke="#e1ed5e" stroke-width="0.3" x1="15.007084014347285" x2="10.007500721073583" y1="101.09737516637583" y2="101.16192664675087" /><path d="M 14.007167355692545 101.11028546245083 a86.0,86.0 0 0,1 10.666146001902534,-42.60595125391555" fill="none" id="id130" stroke="none" /><text fill="#e1ed5e" style="font-size:6.75px; font-family:Arial;" text-anchor="middle"><textPath startOffset="22.20632615414155" xlink:href="#id130">October</textPath></text><path d="M 79.00019446554 99.90962569577889 l -1.821477398836034 -0.007838870331640695 a22.82149426635347,22.82149426635347 0 0,0 0.005071797681150809,-0.39281631972226705 l 1.8210725940371677 0.039191448114379746" fill="#ff0a01" stroke="none" /><path d="M 79.08570108090925 98.10471618934814 l -26.415497819082887 -2.393810357234471 a47.52374130955842,47.52374130955842 0 0,0 0.08084212561483965,-0.8140691724533735 l 26.370378567785817 2.8481550603922745" fill="#b4ff20" stroke="none" /><path d="M 79.12142395522702 97.74499172005258 l -7.649989180309102 -0.8262435573245914 a28.694479376466397,28.694479376466397 0 0,0 0.05726550006730975,-0.49061583312516077 l 7.634633327238203 0.9578031287746139" fill="#ff5d08" stroke="none" /><path d="M 79.16333360222342 97.38593545837743 l -14.63305053238271 -1.8357897468932234 a35.747755486109206,35.747755486109206 0 0,0 0.08185214802259047,-0.6098935763347797 l 14.599282385302285 2.0874016652926626" fill="#ffbb11" stroke="none" /><path d="M 79.21141760316559 97.0276538004421 l -7.300664279273362 -1.0438471133101748 a28.374911234355572,28.374911234355572 0 0,0 0.07329389088793925,-0.4829151648073467 l 7.281614494946121 1.1693613905096134" fill="#ff5908" stroke="none" /><path d="M 79.26566170972629 96.67025291283419 l -11.017754079064023 -1.7693515962880706 a32.15892064753662,32.15892064753662 0 0,0 0.09247701682969525,-0.545804588152648 l 10.985665200714104 1.9587419727565465" fill="#ff8c0c" stroke="none" /><path d="M 79.46518482838121 95.60439243477599 l -1.4778199793091327 -0.3163367494083136 a22.511297730518862,22.511297730518862 0 0,0 0.0843697851076251,-0.3782132033851197 l 1.4721558071994698 0.3417281223433925" fill="#ff0500" stroke="none" /><path d="M 79.54389044137918 95.25157060432595 l -50.0540107158047 -11.618921729628012 a72.38485507323256,72.38485507323256 0 0,0 0.29218387943260377,-1.211290813187055 l 49.846594036111284 12.478797774474463" fill="#3fffba" stroke="none" /><path d="M 79.91906864156998 93.8553929516997 l -22.096640613004574 -6.761398225557301 a44.10796469498888,44.10796469498888 0 0,0 0.22840472774884332,-0.7241054041841429 l 21.976980401487527 7.140753796167858" fill="#dcff1b" stroke="none" /><path d="M 80.02781315780177 93.51064311812611 l -5.37909858813045 -1.7477750792622 a26.655918965872566,26.655918965872566 0 0,0 0.14554475264891842,-0.43516028513448163 l 5.34821654170976 1.8401084673190038" fill="#ff4106" stroke="none" /><path d="M 80.2630227832202 92.82701384747504 l -52.7125983690874 -19.15727692301424 a77.08582072080046,77.08582072080046 0 0,0 0.4639663824140636,-1.243199235297109 l 52.37502739817171 20.06179929534069" fill="#44ffea" stroke="none" /><path d="M 80.65960295795068 91.81776055985345 l -2.5480732780105138 -1.077999879029988 a23.76672390550628,23.76672390550628 0 0,0 0.16264281056310942,-0.375402030944312 l 2.5291397576047236 1.1217010545608994" fill="#ff1802" stroke="none" /><path d="M 80.95270993114464 91.15688171328213 l -2.2264585824236183 -1.0336817748706362 a23.45471298341527,23.45471298341527 0 0,0 0.17316481256533447,-0.3647292577956541 l 2.208335576016532 1.0718534483068225" fill="#ff1302" stroke="none" /><path d="M 81.26839172434947 90.50648371742162 l -41.86074462302981 -21.21577895669439 a67.93006730374287,67.93006730374287 0 0,0 0.5375874471752683,-1.0384478372948935 l 41.48934774269443 21.93319951624962" fill="#39ff8a" stroke="none" /><path d="M 81.6062741919709 89.86733742301443 l -4.988673317701364 -2.7481405324099124 a26.695536660984615,26.695536660984615 0 0,0 0.22518620624243832,-0.4005811339531787 l 4.9406294701664955 2.833605176297876" fill="#ff4106" stroke="none" /><line stroke="#e1ed5e" stroke-width="0.3" x1="26.266209847984243" x2="21.928928074336255" y1="57.711370442889674" y2="55.22380399835377" /><path d="M 25.398753493254645 57.213857153982495 a86.0,86.0 0 0,1 29.58750427330803,-30.492523968695096" fill="none" id="id131" stroke="none" /><text fill="#e1ed5e" style="font-size:6.75px; font-family:Arial;" text-anchor="middle"><textPath startOffset="21.46611528233685" xlink:href="#id131">November</textPath></text><path d="M 81.78341655067845 89.55222093294921 l -9.837374864477102 -5.64204146566481 a32.34048394578146,32.34048394578146 0 0,0 0.2811163079642941,-0.4805188955010599 l 9.738798882042483 5.8105397735197615" fill="#ff8f0d" stroke="none" /><path d="M 81.96595687620814 89.24020034530311 l -1.4400547217900497 -0.8591917071452179 a22.67689236129721,22.67689236129721 0 0,0 0.20288713422151006,-0.33349310308013813 l 1.4250517892823227 0.8838525834324304" fill="#ff0801" stroke="none" /><path d="M 82.15384107792192 88.93136811851018 l -5.422946289037785 -3.3634462434486165 a27.381309981998783,27.381309981998783 0 0,0 0.25187206986462485,-0.3984011273174266 l 5.364246622927198 3.456295018480259" fill="#ff4b07" stroke="none" /><path d="M 82.34701348167596 88.62581576622439 l -34.311020697200874 -22.10730010209635 a61.81640428905878,61.81640428905878 0 0,0 0.5840277429059215,-0.8895143202860492 l 33.92539631893703 22.694632486360064" fill="#31ff43" stroke="none" /><path d="M 82.95767976084542 87.72973835380427 l -1.8562164639121725 -1.3364530982025755 a23.287279266856995,23.287279266856995 0 0,0 0.23701724915064024,-0.3232912614761341 l 1.832936602247899 1.3682068033502102" fill="#ff1101" stroke="none" /><path d="M 84.07557802195018 86.31012108654704 l -35.502188078986904 -30.52045823916835 a67.81777151386618,67.81777151386618 0 0,0 0.768627686396138,-0.878674316281246 l 34.97156852901293 31.127048111652538" fill="#39ff88" stroke="none" /><path d="M 84.5562425177563 85.77008943001954 l -2.552653938734102 -2.3520206987229524 a24.471029169879724,24.471029169879724 0 0,0 0.28809705122897405,-0.30732184726507733 l 2.511789565534672 2.39561196286608" fill="#ff2203" stroke="none" /><path d="M 85.31137513191541 84.99185889309783 l -15.870221280121525 -16.215440349855214 a43.68930208754193,43.68930208754193 0 0,0 0.5419902508896772,-0.5213941919375509 l 15.58874778561942 16.486217628555078" fill="#e1ff1b" stroke="none" /><path d="M 86.37877921826538 84.01681056812374 l -11.7827619579873 -13.825935239061115 a39.16562590700647,39.16562590700647 0 0,0 0.5168789538288501,-0.43287125918872 l 11.54302546719934 14.026707655643648" fill="#ffe715" stroke="none" /><path d="M 86.65592168130627 83.78471172551755 l -7.052981117104898 -8.570552366147432 a32.09950046169257,32.09950046169257 0 0,0 0.42966954702662047,-0.347429558848087 l 6.9044081715137775 8.690688022259652" fill="#ff8b0c" stroke="none" /><path d="M 87.51073957382395 83.11751280151077 l -0.9167744998123012 -1.2392594300094533 a22.541505568713085,22.541505568713085 0 0,0 0.31392232761940253,-0.2280779215059285 l 0.895306855839117 1.2548565863320498" fill="#ff0600" stroke="none" /><path d="M 87.80319425747018 82.90503203632743 l -27.44823797229298 -38.47128163724314 a68.25934064918498,68.25934064918498 0 0,0 0.9623554856559491,-0.6741915177895385 l 26.781951347053372 38.93805799779662" fill="#39ff8d" stroke="none" /><line stroke="#e1ed5e" stroke-width="0.3" x1="56.762969772571076" x2="54.21961505331055" y1="26.818313649435495" y2="22.513508569990535" /><path d="M 56.25429882871897 25.957352633546506 a86.0,86.0 0 0,1 42.265352541879196,-11.944610805530505" fill="none" id="id132" stroke="none" /><text fill="#e1ed5e" style="font-size:6.75px; font-family:Arial;" text-anchor="middle"><textPath startOffset="22.20632615414155" xlink:href="#id132">December</textPath></text><path d="M 90.58718382345135 81.22770947309562 l -1.130890230590668 -2.2553717787007734 a23.52301695868365,23.52301695868365 0 0,0 0.3635188042711366,-0.1783770985110126 l 1.0919001593091053 2.2745040373466154" fill="#ff1402" stroke="none" /><path d="M 91.56875222667455 80.76684994638697 l -20.935107019981263 -47.75663881894611 a73.1437940432161,73.1437940432161 0 0,0 1.1574700370191053,-0.4955682639553113 l 20.10995322517185 48.10992661086421" fill="#3fffc2" stroke="none" /><path d="M 91.90106846888425 80.62456947434976 l -24.29679459334727 -58.12629157695071 a84.0,84.0 0 0,0 1.338864521646478,-0.5461564552656921 l 23.29264620211241 58.53590891839998" fill="#4dd2ff" stroke="none" /><path d="M 93.59665428221793 80.00007090966166 l -7.312055525001357 -22.838153435716276 a44.98014612870451,44.98014612870451 0 0,0 0.7394192562494136,-0.22974116222519764 l 6.917850896041214 22.960634732823998" fill="#d1ff1c" stroke="none" /><path d="M 93.94186890950719 79.89281104454417 l -3.307736659391592 -10.978515491295624 a32.46598989187157,32.46598989187157 0 0,0 0.5364769563700933,-0.15661233473120106 l 3.118269485298077 11.033826154945524" fill="#ff900d" stroke="none" /><path d="M 94.28887869178378 79.79150937346287 l -1.8587853361317332 -6.577210326091817 a27.834821036389116,27.834821036389116 0 0,0 0.4621933737366103,-0.12633490849805867 l 1.7452940731714004 6.608231775416171" fill="#ff5107" stroke="none" /><path d="M 94.63758080256005 79.69619591428918 l -11.990148144152709 -45.39846847365983 a67.95513382232676,67.95513382232676 0 0,0 1.1335275879134488,-0.2889614212037013 l 11.206911667554262 45.5981328910324" fill="#39ff8a" stroke="none" /><path d="M 96.04723909329186 79.375362276772 l -2.7232288755392227 -14.2092097956425 a35.467813190843785,35.467813190843785 0 0,0 0.6005965435464384,-0.10975517941661869 l 2.478237210889891 14.253980456409856" fill="#ffb811" stroke="none" /><path d="M 96.40284397218896 79.31037775812273 l -0.9834721605842105 -5.656598526884663 a26.741456643134903,26.741456643134903 0 0,0 0.4541855509480712,-0.07494450751840126 l 0.8859574034972537 5.672689297342691" fill="#ff4206" stroke="none" /><path d="M 96.75951476605007 79.25152402106235 l -0.19581396157309947 -1.2537755875183425 a22.268974519603887,22.268974519603887 0 0,0 0.37924171725020855,-0.05589037091723626 l 0.17420326389424215 1.2569604425965477" fill="#ff0200" stroke="none" /><path d="M 97.11714578562143 79.19881850522333 l -4.561009836452972 -32.90988248185529 a54.224436424080196,54.224436424080196 0 0,0 0.9256505625235617,-0.12017600936458835 l 3.9938445454215525 32.98351681438402" fill="#6bff28" stroke="none" /><path d="M 99.63851952072746 79.00311137660856 l -0.1905310852419001 -11.067153568483086 a32.06879352968657,32.06879352968657 0 0,0 0.5520115645144331,-0.004751337812046229 l 2.711072513310719e-15 11.068793529686573" fill="#ff8b0c" stroke="none" /></svg>