<?xml version="1.0" encoding="utf-8" ?>
<svg baseProfile="full" height="200mm" version="1.1" viewBox="0,0,200,200" width="200mm" xmlns="http://www.w3.org/2000/svg" xmlns:ev="http://www.w3.org/2001/xml-events" xmlns:xlink="http://www.w3.org/1999/xlink"><defs /><rect fill="#1a1a1a" height="200" width="200" x="0" y="0" /><text alignment-baseline="middle" fill="#e1ed5e" style="dominant-baseline: central; font-size:9.0px; font-family:Arial;" text-anchor="middle" x="100.0" y="100.0">2017</text><line stroke="#e1ed5e" stroke-width="0.3" x1="100.0" x2="100.0" y1="15.0" y2="10.0" /><path d="M 100.0 14.0 a86.0,86.0 0 0,1 42.46469731375804,11.215312516191453" fill="none" id="id49" stroke="none" /><text fill="#e1ed5e" style="font-size:6.75px; font-family:Arial;" text-anchor="middle"><textPath startOffset="22.20632615414155" xlink:href="#id49">January</textPath></text><path d="M 100.0 79.0 l 0.0 -6.593924345492773 a27.593924345492773,27.593924345492773 0 0,0 0.4749840474961246,0.00408833765461473 l -0.11350356822359622 6.592947384446718" fill="#ff5107" stroke="none" /><path d="M 100.36148047927253 79.00311137660856 l 0.4436570461555314 -25.77018157068289 a46.77400026694668,46.77400026694668 0 0,0 0.8048989458029845,0.02078816508689233 l -0.8871826271533837 25.75872661345364" fill="#bbff1f" stroke="none" /><path d="M 101.80526077348638 79.07773832637324 l 0.43070849996383476 -4.99174195420838 a26.01028916823622,26.01028916823622 0 0,0 0.4457356908935718,0.04232797472986814 l -0.5165693179476507 4.983588434963334" fill="#ff3b05" stroke="none" /><path d="M 102.88285421437855 79.19881850522331 l 1.975180857774151 -14.251881105415343 a35.388101141700815,35.388101141700815 0 0,0 0.6026610805714435,0.088816577392245 l -2.2202109187742503 14.215770043862129" fill="#ffb911" stroke="none" /><path d="M 103.59715602781102 79.31037775812273 l 1.7303194746923298 -9.95221113912396 a31.101510384205056,31.101510384205056 0 0,0 0.5266594682710528,0.09624365150393203 l -1.9013740640662835 9.92095200626929" fill="#ff810b" stroke="none" /><path d="M 104.66035177308747 79.52364482259891 l 1.096323792906428 -4.81695727404614 a25.94014202618495,25.94014202618495 0 0,0 0.43452988198284936,0.10283918396792131 l -1.179077361851801 4.7973721779373495" fill="#ff3a05" stroke="none" /><path d="M 107.76421540070413 80.48803036053334 l 5.084523242457121 -12.777731943009806 a34.75219292369402,34.75219292369402 0 0,0 0.5539104542255564,0.2259539821418318 l -5.3037175662710645 12.688317074684395" fill="#ffb110" stroke="none" /><line stroke="#e1ed5e" stroke-width="0.3" x1="143.23703022742887" x2="145.7803849466894" y1="26.81831364943548" y2="22.513508569990506" /><path d="M 143.74570117128098 25.957352633546492 a86.0,86.0 0 0,1 28.547481713284135,27.462654790039103" fill="none" id="id50" stroke="none" /><text fill="#e1ed5e" style="font-size:6.75px; font-family:Arial;" text-anchor="middle"><textPath startOffset="19.985693538727396" xlink:href="#id50">February</textPath></text><path d="M 111.2981086023043 82.29822771554956 l 9.287752275571634 -14.551964545908461 a38.26331412208452,38.26331412208452 0 0,0 0.5521450419888394,0.35913049422308496 l -9.536864343344755 14.389935127525849" fill="#ffdd14" stroke="none" /><path d="M 111.60114157652 82.49532879139004 l 11.267661834895979 -17.001492000481385 a41.39634608129613,41.39634608129613 0 0,0 0.5905786168894509,0.3987613184098969 l -11.55864514619197 16.80501876977282" fill="#faff18" stroke="none" /><path d="M 111.90073688211348 82.69761687909136 l 2.47871463733641 -3.6037827512225604 a25.373931454807565,25.373931454807565 0 0,0 0.3577348081003538,0.25061609439981103 l -2.540380585020415 3.5605818140588137" fill="#ff3204" stroke="none" /><path d="M 112.19680574252982 82.90503203632743 l 4.449197510981769 -6.235967885351367 a28.660460427341164,28.660460427341164 0 0,0 0.3991374232110866,0.2899903124813267 l -4.555880250546644 6.158458338053365" fill="#ff5f08" stroke="none" /><path d="M 114.16331599549186 84.49514656593476 l 9.503955429173553 -10.404162134074252 a35.09154918778705,35.09154918778705 0 0,0 0.4424745509691123,0.41123187250716986 l -9.681637863937512 10.23902567549244" fill="#ffb510" stroke="none" /><path d="M 115.9244219780498 86.31012108654704 l 5.322026945657643 -4.57523070919712 a28.018312251010666,28.018312251010666 0 0,0 0.3112559464840317,0.36842886545779796 l -5.3999935056287915 4.482942894110216" fill="#ff5708" stroke="none" /><path d="M 116.38621287248628 86.86637796730983 l 25.347797989089315 -20.316372107472247 a53.48485552538224,53.48485552538224 0 0,0 0.5696033184891959,0.7233383703586389 l -25.693755388172477 19.87704134316057" fill="#72ff27" stroke="none" /><path d="M 116.60985879189232 87.15038557335679 l 18.27298902448057 -14.136234770488874 a44.10271112608142,44.10271112608142 0 0,0 0.4593487630771279,0.6044491279527218 l -18.51361372778181 13.819600866655119" fill="#daff1c" stroke="none" /><path d="M 116.82858285166822 87.43820079747576 l 27.334386421514175 -20.403920911096108 a55.10994971539717,55.10994971539717 0 0,0 0.5609074607940195,0.7650771461625596 l -27.681556494821823 19.930381321262054" fill="#61ff29" stroke="none" /><path d="M 117.2510076193507 88.02491185347247 l 10.451875712595681 -7.2553520186546905 a33.72327940533195,33.72327940533195 0 0,0 0.32691593449252626,0.47970879456024534 l -10.57521611275694 7.0743652008240385" fill="#ffa30f" stroke="none" /><path d="M 117.65298651832404 88.62581576622439 l 8.43258928458581 -5.4332916411102 a31.031411670341786,31.031411670341786 0 0,0 0.2854482087733917,0.45151051574389367 l -8.524865089605155 5.2873334776521" fill="#ff800b" stroke="none" /><line stroke="#e1ed5e" stroke-width="0.3" x1="172.23445277983987" x2="176.4835382374775" y1="55.19839476539836" y2="52.563006222186495" /><path d="M 173.08426987136738 54.67131705675599 a86.0,86.0 0 0,1 12.851231095245387,41.99856678651699" fill="none" id="id51" stroke="none" /><text fill="#e1ed5e" style="font-size:6.75px; font-family:Arial;" text-anchor="middle"><textPath startOffset="22.20632615414155" xlink:href="#id51">March</textPath></text><path d="M 118.21658344932153 89.55222093294921 l 18.7109991814966 -10.731341917977797 a42.56996035533014,42.56996035533014 0 0,0 0.3590925327347999,0.638785547113648 l -18.892949355523832 10.407672860929354" fill="#ecff1a" stroke="none" /><path d="M 118.3937258080291 89.86733742301442 l 2.771676151040277 -1.5268499435231353 a24.164405068299892,24.164405068299892 0 0,0 0.1975634589253034,0.3660550846992244 l -2.797547709184045 1.4789138754914521" fill="#ff2003" stroke="none" /><path d="M 118.56541770881063 90.18545643968196 l 28.612575564149846 -15.125938648499744 a53.3646952776071,53.3646952776071 0 0,0 0.42231947416300886,0.8157868024941161 l -28.86870447147297 14.631179123745284" fill="#73ff27" stroke="none" /><path d="M 118.89224826269711 90.83032412892265 l 16.154207385656488 -7.8407208936119694 a38.956484076520155,38.956484076520155 0 0,0 0.2876135072761214,0.6057873969126751 l -16.286779086774366 7.561491081058755" fill="#ffe615" stroke="none" /><path d="M 119.04729006885535 91.15688171328212 l 14.323718802419094 -6.65009768936065 a36.79217273236378,36.79217273236378 0 0,0 0.2617459695285463,0.5767225481131116 l -14.436067088910987 6.402553132405475" fill="#ffcb12" stroke="none" /><path d="M 119.97218684219823 93.5106431181261 l 19.406689952907836 -6.305615804385011 a41.40540138298691,41.40540138298691 0 0,0 0.2144100163226742,0.6797383445634311 l -19.51235545299872 5.97062729339516" fill="#faff18" stroke="none" /><path d="M 120.37134235888165 94.90015583598534 l 24.952239861188946 -6.246644555541407 a46.72226355306977,46.72226355306977 0 0,0 0.188595973660462,0.7818520677547708 l -25.05606863511023 5.816207256127231" fill="#bcff1f" stroke="none" /><path d="M 120.53481517161879 95.60439243477599 l 7.025775188643298 -1.5039117865276193 a28.184933379163127,28.184933379163127 0 0,0 0.09746712888493961,0.4752843351892426 l -7.0506216134432345 1.3827517951749648" fill="#ff5908" stroke="none" /><path d="M 120.91429891909075 98.10471618934814 l 44.027451022950856 -3.989830855477432 a65.20786348415467,65.20786348415467 0 0,0 0.09168075373321839,1.1187374143788886 l -44.089606260503565 3.2313795238907748" fill="#36ff6c" stroke="none" /><line stroke="#e1ed5e" stroke-width="0.3" x1="184.98032266829074" x2="189.97916517819016" y1="98.17113171792111" y2="98.06355123074" /><path d="M 185.9800911702706 98.14961562048488 a86.0,86.0 0 0,1 -9.607161424134198,41.387399972396054" fill="none" id="id52" stroke="none" /><text fill="#e1ed5e" style="font-size:6.75px; font-family:Arial;" text-anchor="middle"><textPath startOffset="21.466115282336823" xlink:href="#id52">April</textPath></text><path d="M 120.99513854157772 99.54816195383933 l 12.821492933138163 -0.275932369024349 a33.824461770647034,33.824461770647034 0 0,0 0.0075170724919386735,0.5822055486051859 l -12.824343012747818 0.055190562358700346" fill="#ffa50f" stroke="none" /><path d="M 120.99824983174949 100.27111621757518 l 54.246235741920074 0.7003933361057576 a75.25075707299602,75.25075707299602 0 0,0 -0.027871222448547377,1.2950661893183244 l -54.22614245678652 -1.6340493412141968" fill="#42ffd8" stroke="none" /><path d="M 120.9904718944345 100.63252640178507 l 62.97141568330351 1.8975792053552112 a84.0,84.0 0 0,0 -0.05599146859518722,1.4448910119439753 l -62.92942208185712 -2.9812474643131925" fill="#4dd2ff" stroke="none" /><path d="M 120.8583938346157 102.4346265915055 l 26.12072543458655 3.0488547314185075 a47.2980571982485,47.2980571982485 0 0,0 -0.10134958045130636,0.8078558749386199 l -26.064374344888396 -3.498028360644522" fill="#b5ff1f" stroke="none" /><path d="M 120.5718875245553 104.21870165774334 l 6.958066521165326 1.4268990500988616 a28.102867773803393,28.102867773803393 0 0,0 -0.10125859546212876,0.4730464472768662 l -6.932473886978753 -1.5464593167918967" fill="#ff5808" stroke="none" /><path d="M 120.41448212921028 104.9243191809786 l 23.800896747315196 5.741179797531769 a45.48354205265133,45.48354205265133 0 0,0 -0.19014001800036143,0.759514855402983 l -23.698545415019776 -6.150022492332148" fill="#caff1d" stroke="none" /><path d="M 119.67450827220406 107.3425965602758 l 3.4403107140271185 1.2839362115486102 a24.6720879625052,24.6720879625052 0 0,0 -0.15191629085352878,0.39660549776959203 l -3.417700143580083 -1.342965276151346" fill="#ff2803" stroke="none" /><path d="M 119.41010516605496 108.01547362559984 l 3.4495989121850616 1.4245244352345283 a24.73215789075551,24.73215789075551 0 0,0 -0.16588096056713372,0.39209359033710073 l -3.424566970425619 -1.4836925512377925" fill="#ff2903" stroke="none" /><path d="M 118.81262510543309 109.33194174019688 l 23.459822604864403 11.637169005229504 a47.18753480394787,47.18753480394787 0 0,0 -0.3672118908175184,0.7245438979840724 l -23.256032044260614 -12.03926711491627" fill="#b7ff1f" stroke="none" /><line stroke="#e1ed5e" stroke-width="0.3" x1="174.80103733775053" x2="179.2010983576182" y1="140.37084112569926" y2="142.7455964860345" /><path d="M 175.68104954172406 140.8457921977663 a86.0,86.0 0 0,1 -30.038265399797805,32.042727171017184" fill="none" id="id53" stroke="none" /><text fill="#e1ed5e" style="font-size:6.75px; font-family:Arial;" text-anchor="middle"><textPath startOffset="22.206326154141568" xlink:href="#id53">May</textPath></text><path d="M 118.30583269289576 110.29060199501025 l 8.688742071677636 4.884365983069157 a30.967510714551757,30.967510714551757 0 0,0 -0.26521166600675866,0.46241889444063894 l -8.603378409518497 -5.033204723368111" fill="#ff7f0b" stroke="none" /><path d="M 118.12598468904814 110.60418214915192 l 2.236162845309235 1.3082146175017104 a23.590723790022132,23.590723790022132 0 0,0 -0.20806920009680466,0.34873594748027337 l -2.2133127695142027 -1.346512658868088" fill="#ff1802" stroke="none" /><path d="M 117.55443506779139 111.5257021239791 l 5.067969673809693 3.3274730065716187 a27.062705107797797,27.062705107797797 0 0,0 -0.2590247469453702,0.38720685174415226 l -5.0099418214536025 -3.414216772521578" fill="#ff4906" stroke="none" /><path d="M 116.93607887273984 112.41649034213515 l 2.4344678295889457 1.7848019321038842 a24.01863405369801,24.01863405369801 0 0,0 -0.24732185730884684,0.33132804462548976 l -2.403384705585007 -1.826442856238689" fill="#ff1e03" stroke="none" /><path d="M 116.71984013943494 112.70617746262583 l 5.648513894631448 4.292566157736035 a28.09449317685099,28.09449317685099 0 0,0 -0.29591954116347285,0.38251589730937 l -5.573787536249907 -4.389160049158657" fill="#ff5808" stroke="none" /><path d="M 116.498646956653 112.99209946851258 l 2.6161027093691858 2.060088121727093 a24.32985832360025,24.32985832360025 0 0,0 -0.2619307223432922,0.3267988498129601 l -2.5802540749710396 -2.1048148051183033" fill="#ff2303" stroke="none" /><path d="M 115.80600337817218 113.82643327865902 l 19.291475143433118 16.87537877449399 a46.63082952212706,46.63082952212706 0 0,0 -0.5336812956762021,0.5995965932087844 l -18.998134998108576 -17.20494953744364" fill="#bdff1f" stroke="none" /><path d="M 114.81725581225074 114.88116024355365 l 9.624329628730793 9.665837808071755 a34.64023978287826,34.64023978287826 0 0,0 -0.42615750464859553,0.4170848125637236 l -9.456522171706403 -9.83007272355805" fill="#ffaf10" stroke="none" /><path d="M 114.29624159901734 115.38237550388516 l 4.493969575056941 4.835391667647295 a27.60127072017883,27.60127072017883 0 0,0 -0.35079959954775175,0.3204471168086454 l -4.410070426042325 -4.912031551042523" fill="#ff5107" stroke="none" /><path d="M 113.20401910651253 116.32954008644616 l 3.9031114921605257 4.827016309122721 a27.207605477861193,27.207605477861193 0 0,0 -0.36670994626718884,0.29133655967139716 l -3.8194440531759857 -4.893486782799243" fill="#ff4b07" stroke="none" /><path d="M 112.92097659922987 116.55440617244103 l 6.7113548134313055 8.598614253007085 a31.907724350375936,31.907724350375936 0 0,0 -0.4358766407272122,0.33421162137616656 l -6.5623494442106 -8.712865216210622" fill="#ff8b0c" stroke="none" /><path d="M 111.7513745106137 117.40417183066458 l 7.5301044183618995 11.152332102227659 a34.45648482590498,34.45648482590498 0 0,0 -0.4944100319298892,0.32766800980810395 l -7.337019687692046 -11.280298133127081" fill="#ffad10" stroke="none" /><path d="M 111.1453310114006 117.79835938074945 l 5.671899512267786 9.057649861415237 a31.686976424099523,31.686976424099523 0 0,0 -0.4647737061846289,0.2855019709893765 l -5.515146606150848 -9.153940299232993" fill="#ff880c" stroke="none" /><line stroke="#e1ed5e" stroke-width="0.3" x1="143.8653032363475" x2="146.44561519142675" y1="172.8068346515853" y2="177.08958963109032" /><path d="M 144.38136562736335 173.6633856474863 a86.0,86.0 0 0,1 -40.68145358897372,12.25698825130547" fill="none" id="id54" stroke="none" /><text fill="#e1ed5e" style="font-size:6.75px; font-family:Arial;" text-anchor="middle"><textPath startOffset="21.466115282336833" xlink:href="#id54">June</textPath></text><path d="M 110.8373102113329 117.98757091392108 l 6.2057710830960495 10.300226279028116 a33.02523414054681,33.02523414054681 0 0,0 -0.4894530443499306,0.28917748590937875 l -6.027550167717736 -10.405522337231245" fill="#ff9a0e" stroke="none" /><path d="M 109.89434966115114 118.52300852407294 l 2.8598131521300427 5.353797390256944 a27.069734570886773,27.069734570886773 0 0,0 -0.41288963091657443,0.21600434052646592 l -2.7672326186869727 -5.402231149728126" fill="#ff4906" stroke="none" /><path d="M 109.57404056367764 118.69057910512821 l 0.4203087055826636 0.8205326745815663 a21.921918259958307,21.921918259958307 0 0,0 -0.33733248675254596,0.1691455117652781 l -0.4061223111473571 -0.8276460272561464" fill="#ff0000" stroke="none" /><path d="M 109.2508944713604 118.85261126421891 l 3.49309380685051 7.118656455749088 a28.929500241404597,28.929500241404597 0 0,0 -0.4489408404646651,0.21551888551298545 l -3.3700402983856117 -7.177729617761633" fill="#ff6309" stroke="none" /><path d="M 107.93186726928326 119.44442032107085 l 2.337228285773303 5.729552403236139 a27.187924272423494,27.187924272423494 0 0,0 -0.43485003567984903,0.17303580347896347 l -2.2382571740515878 -5.768935051121171" fill="#ff4b07" stroke="none" /><path d="M 106.91757812671514 119.82793768551818 l 4.663495252125951 13.367032733430383 a35.157180229946945,35.157180229946945 0 0,0 -0.5731127093948467,0.19443094766620944 l -4.432712809793878 -13.445326667994715" fill="#ffb610" stroke="none" /><path d="M 106.2309692047433 120.05430185196036 l 4.264468839313319 13.725143317473913 a35.37237814582796,35.37237814582796 0 0,0 -0.5830126328492377,0.17565692375192227 l -4.027581232023835 -13.79651561033156" fill="#ffb911" stroke="none" /><path d="M 105.88484417918355 120.15858648285463 l 2.3445924574913843 8.031422478198222 a29.36665170872035,29.36665170872035 0 0,0 -0.48646394412340155,0.13747956976627332 l -2.205997345263377 -8.070590841303014" fill="#ff6909" stroke="none" /><path d="M 105.53697534728816 120.25689768951611 l 1.631346980221527 5.968245621796652 a27.187184236142706,27.187184236142706 0 0,0 -0.4524847963607845,0.11950534728920024 l -1.5283717410492452 -5.995442318389435" fill="#ff4b07" stroke="none" /><path d="M 105.18746579009965 120.34920634021253 l 6.124777781707976 24.026060490999487 a45.79444465182615,45.79444465182615 0 0,0 -0.7655233034301139,0.18814700289368386 l -5.71030119353465 -24.1279287522072" fill="#c6ff1e" stroke="none" /><path d="M 104.48393922423573 120.51570834832081 l 1.5254940277509754 6.979708911148015 a28.144471184983736,28.144471184983736 0 0,0 -0.4741787723239084,0.09936877209432098 l -1.405123793997689 -7.0049336639688775" fill="#ff5808" stroke="none" /><path d="M 104.13013068566511 120.58985236759428 l 2.785122384286524 13.884611186076054 a35.16119113930612,35.16119113930612 0 0,0 -0.5944457887946716,0.1139269502154003 l -2.545708980920148 -13.930495334639922" fill="#ffb610" stroke="none" /><path d="M 102.70371172650421 120.8252237178851 l 3.4363968117938515 26.468699191375368 a47.690838501845946,47.690838501845946 0 0,0 -0.8149968623808526,0.09868477008297108 l -2.980272526361619 -26.52392949018369" fill="#b1ff20" stroke="none" /><line stroke="#e1ed5e" stroke-width="0.3" x1="102.19456741930631" x2="102.32365962044197" y1="184.97166512339345" y2="189.96999836594603" /><path d="M 102.22038585953345 185.97133177190398 a86.0,86.0 0 0,1 -42.740103519485714,-10.115201625700543" fill="none" id="id55" stroke="none" /><text fill="#e1ed5e" style="font-size:6.75px; font-family:Arial;" text-anchor="middle"><textPath startOffset="22.20632615414155" xlink:href="#id55">July</textPath></text><path d="M 99.45781275523022 120.99299961872073 l -0.1511325002338108 5.85171368450743 a26.8536650124583,26.8536650124583 0 0,0 -0.46198488818799416,-0.01591169365467483 l 0.251837740096448 -5.848245192426661" fill="#ff4606" stroke="none" /><path d="M 99.09653310690486 120.98055641714683 l -0.5267476761010608 12.232279257271628 a33.24361543589783,33.24361543589783 0 0,0 -0.5714924676872681,-0.029539632759852448 l 0.7372282122018178 -12.221399817749575" fill="#ff9d0e" stroke="none" /><path d="M 97.65516085044442 120.86867818915974 l -1.035117945805072 9.212377447265105 a30.27034882798951,30.27034882798951 0 0,0 -0.5172951470968549,-0.06263723826759753 l 1.1935405159533163 -9.193194680272159" fill="#ff750a" stroke="none" /><path d="M 97.2962882734958 120.8252237178851 l -0.7694247939042953 5.926461504778225 a26.97619950144679,26.97619950144679 0 0,0 -0.45997170285276945,-0.06374788674368914 l 0.8713250879438957 -5.912339052541931" fill="#ff4806" stroke="none" /><path d="M 96.22490169976321 120.6578951692458 l -0.7000233247434908 3.8306309686481197 a24.894068087893555,24.894068087893555 0 0,0 -0.4208666845837853,-0.08066010177163192 l 0.7658576238989712 -3.8180136685280197" fill="#ff2b04" stroke="none" /><path d="M 95.51606077576429 120.51570834832081 l -6.61174945987471 30.251240440057 a51.96534803748044,51.96534803748044 0 0,0 -0.8722256244285239,-0.1985157123970965 l 7.131495233696097 -30.13294799408222" fill="#82ff25" stroke="none" /><path d="M 94.46302465271185 120.25689768951611 l -1.1073225033823701 4.051114056576312 a25.19972477977869,25.19972477977869 0 0,0 -0.41743803920127753,-0.11797215955415272 l 1.1768917106882617 -4.031453103683638" fill="#ff2f04" stroke="none" /><path d="M 93.08242187328487 119.8279376855182 l -1.5484477990583918 4.438334617492345 a25.700691945154425,25.700691945154425 0 0,0 -0.41644965462939015,-0.1493240295810877 l 1.6246170143175085 -4.411023046871299" fill="#ff3605" stroke="none" /><path d="M 92.7421414339146 119.70592522655815 l -4.08850903081938 11.100774769284259 a32.82975513582042,32.82975513582042 0 0,0 -0.5286056122175679,-0.19987341155644694 l 4.2789848637972305 -11.028753107621178" fill="#ff980e" stroke="none" /><path d="M 91.40352486487194 119.15986991738527 l -5.892113443991555 13.132374066207719 a35.3936183585529,35.3936183585529 0 0,0 -0.5537112560180211,-0.2541816798157644 l 6.117292695776995 -13.02900531605788" fill="#ffb911" stroke="none" /><path d="M 90.7491055286396 118.85261126421891 l -1.583756247885855 3.227573395319381 a24.595207069821008,24.595207069821008 0 0,0 -0.37846881211171435,-0.1897721192764712 l 1.6390789676803297 -3.1998334351336073" fill="#ff2703" stroke="none" /><path d="M 90.42595943632237 118.69057910512821 l -3.3213215366894024 6.483931470958148 a28.285090532735907,28.285090532735907 0 0,0 -0.43142722954747625,-0.22570233598913553 l 3.4324396687633745 -6.4257997160242954" fill="#ff5a08" stroke="none" /><path d="M 90.10565033884886 118.52300852407294 l -5.6542836227748925 10.58526809027287 a33.000784300608416,33.000784300608416 0 0,0 -0.49874743464079097,-0.27195686773713545 l 5.835653869284323 -10.48637057077597" fill="#ff9a0e" stroke="none" /><line stroke="#e1ed5e" stroke-width="0.3" x1="58.666819895761336" x2="56.23545636021788" y1="174.27360380694188" y2="178.64263932499728" /><path d="M 58.180547188652646 175.14741091055294 a86.0,86.0 0 0,1 -31.652253787137756,-30.449443065178592" fill="none" id="id56" stroke="none" /><text fill="#e1ed5e" style="font-size:6.75px; font-family:Arial;" text-anchor="middle"><textPath startOffset="22.20632615414155" xlink:href="#id56">August</textPath></text><path d="M 89.7882731507175 118.34994917583269 l -5.794310661431241 10.412078947618888 a32.915763678951684,32.915763678951684 0 0,0 -0.4927195666766001,-0.279779029149756 l 5.972678995029049 -10.310796752674497" fill="#ff990e" stroke="none" /><path d="M 89.4739219176387 118.17145234162733 l -15.939598562262256 27.51695867658286 a52.800217249805726,52.800217249805726 0 0,0 -0.7825297154676657,-0.46233234909973675 l 16.410896148758304 -27.23850775518937" fill="#79ff26" stroke="none" /><path d="M 89.1626897886671 117.98757091392108 l -8.736206700593586 14.500197418107517 a37.928586257558194,37.928586257558194 0 0,0 -0.5563234992614056,-0.3417393312773664 l 8.9845093997873 -14.347669620001772" fill="#ffd914" stroke="none" /><path d="M 88.8546689885994 117.79835938074946 l -10.069131395740838 16.079739493610752 a39.97222784090153,39.97222784090153 0 0,0 -0.5800126302785386,-0.3701915029915605 l 10.344425828066301 -15.904033561795385" fill="#fff216" stroke="none" /><path d="M 88.54995079064634 117.60387380957326 l -9.779871263357283 15.036059360633232 a38.936804704972616,38.936804704972616 0 0,0 -0.5586973527537689,-0.37027414056970925 l 10.037243314851013 -14.865487198972204" fill="#ffe615" stroke="none" /><path d="M 88.24862548938628 117.40417183066458 l -9.01052546017737 13.344884315606333 a37.1020342337675,37.1020342337675 0 0,0 -0.5262183553815947,-0.3619377831466002 l 9.238900700181853 -13.18780574309463" fill="#ffcf13" stroke="none" /><path d="M 85.44109423537348 115.13401014063109 l -9.055135041302654 9.412830040621792 a34.06127252567143,34.06127252567143 0 0,0 -0.4190348275784888,-0.41011377392582504 l 9.215819821256936 -9.255566163773397" fill="#ffa80f" stroke="none" /><path d="M 85.18274418774928 114.88116024355367 l -2.1061297836570847 2.115213181269988 a23.984947146571567,23.984947146571567 0 0,0 -0.29005724692473267,-0.2938264597536604 l 2.1422276556373503 -2.078646227535663" fill="#ff1e03" stroke="none" /><path d="M 84.9287848128048 114.62390073753433 l -14.12722872924749 13.707931846695805 a40.68466375334191,40.68466375334191 0 0,0 -0.4833598602766095,-0.5068008810527692 l 14.361095140903057 -13.462723849060536" fill="#fffb17" stroke="none" /><path d="M 84.67929136418377 114.36230785411682 l -11.839669538098747 11.099028304712874 a37.228561368162026,37.228561368162026 0 0,0 -0.4342509443944156,-0.4712936345370014 l 12.028966890488892 -10.893583415374529" fill="#ffd013" stroke="none" /><path d="M 84.43433777217949 114.09645910891817 l -8.605374831608215 7.79313547057894 a32.60971302208938,32.60971302208938 0 0,0 -0.37321218763650116,-0.4193078492048495 l 8.738245868893054 -7.643853451633226" fill="#ff950d" stroke="none" /><path d="M 83.06392112726016 112.41649034213515 l -20.808423752596948 15.255455203095549 a46.80153895645172,46.80153895645172 0 0,0 -0.4707347988344204,-0.6538094639520163 l 21.067938343806976 -14.895012133692394" fill="#bbff1f" stroke="none" /><path d="M 82.44556493220864 111.52570212397912 l -5.131236112869042 3.3690118045008655 a27.138389412938672,27.138389412938672 0 0,0 -0.25302688870634593,-0.3927033502625005 l 5.188467864952433 -3.280186854316917" fill="#ff4a06" stroke="none" /><line stroke="#e1ed5e" stroke-width="0.3" x1="26.63291911575756" x2="22.317208475507996" y1="142.92168965132927" y2="145.44649492493687" /><path d="M 25.769776987707644 143.4266507060508 a86.0,86.0 0 0,1 -11.730757126820373,-40.83630448921669" fill="none" id="id57" stroke="none" /><text fill="#e1ed5e" style="font-size:6.75px; font-family:Arial;" text-anchor="middle"><textPath startOffset="21.46611528233685" xlink:href="#id57">September</textPath></text><path d="M 81.69416730710424 110.29060199501025 l -11.403152041146331 6.410268306973314 a34.081414917388955,34.081414917388955 0 0,0 -0.283076321945887,-0.5138657494076944 l 11.511804772543735 -6.213032039167797" fill="#ffa80f" stroke="none" /><path d="M 81.18737489456691 109.33194174019688 l -5.668255335456794 2.8117196968841216 a27.3273127156622,27.3273127156622 0 0,0 -0.2054060627446885,-0.42319732852017394 l 5.715814654816202 -2.7137334123986627" fill="#ff4d07" stroke="none" /><path d="M 80.73074385275274 108.34839909993369 l -11.851065961146576 5.134470560111616 a33.91551595361563,33.91551595361563 0 0,0 -0.22747462592492543,-0.5376828207683068 l 11.937691568263807 -4.92971321367715" fill="#ffa60f" stroke="none" /><path d="M 80.45479744820244 107.68017299344265 l -4.82158500337022 1.8946136183718585 a26.18046742173375,26.18046742173375 0 0,0 -0.16120400954980704,-0.4208528005175996 l 4.853483292513536 -1.811337251021101" fill="#ff3d05" stroke="none" /><path d="M 80.20201598880116 107.00284435728193 l -6.252714730486357 2.211679130729258 a27.632342427690567,27.632342427690567 0 0,0 -0.1547531824768029,-0.4497851866365906 l 6.289858743906389 -2.1037212410033703" fill="#ff5107" stroke="none" /><path d="M 79.97269907076064 106.31721596034903 l -3.0313987195288807 0.9561947683739518 a24.178629678309044,24.178629678309044 0 0,0 -0.12178341416446717,-0.39799524383066637 l 3.0474089061994785 -0.9038725519912376" fill="#ff2103" stroke="none" /><path d="M 79.67330655649465 105.27499134158121 l -25.187988390742046 6.536548654226149 a47.02232171581202,47.02232171581202 0 0,0 -0.19657275343933645,-0.7852104358397496 l 25.29677245847644 -6.102010378989007" fill="#b8ff1f" stroke="none" /><path d="M 79.4281124754447 104.21870165774334 l -6.205957858382517 1.27266322420794 a27.335107309451914,27.335107309451914 0 0,0 -0.0905573927445676,-0.4617501946263084 l 6.226945184102751 -1.165649302513677" fill="#ff4d07" stroke="none" /><path d="M 79.23777060512086 103.15116336523772 l -12.464269475364151 1.8917500909081424 a33.6070112223693,33.6070112223693 0 0,0 -0.08188260103277772,-0.572686720910969 l 12.494986127413528 -1.676917898016773" fill="#ffa20e" stroke="none" /><path d="M 79.10278846688536 102.07522291339032 l -11.878742807293092 1.1796329484870212 a32.93717154835992,32.93717154835992 0 0,0 -0.051170881869355714,-0.5646664174275339 l 11.897288285439524 -0.974985142510921" fill="#ff990e" stroke="none" /><line stroke="#e1ed5e" stroke-width="0.3" x1="15.007084014347285" x2="10.007500721073583" y1="101.09737516637583" y2="101.16192664675087" /><path d="M 14.007167355692545 101.11028546245083 a86.0,86.0 0 0,1 10.666146001902534,-42.60595125391555" fill="none" id="id58" stroke="none" /><text fill="#e1ed5e" style="font-size:6.75px; font-family:Arial;" text-anchor="middle"><textPath startOffset="22.20632615414155" xlink:href="#id58">October</textPath></text><path d="M 79.00175016825051 100.2711162175752 l -6.044573660335988 0.07804373987241316 a27.045077465224153,27.045077465224153 0 0,0 -0.0020035285865833423,-0.46554948404409047 l 6.045021486212074 0.02601522237535267" fill="#ff4906" stroke="none" /><path d="M 79.00486145842228 99.54816195383935 l -1.4926719461283904 -0.03212391165515892 a22.493017576741394,22.493017576741394 0 0,0 0.011662421332862207,-0.3870189869033799 l 1.491897830339883 0.05781304598353321" fill="#ff0801" stroke="none" /><path d="M 79.08570108090925 98.10471618934814 l -4.864945484082816 -0.44086834807881126 a25.88488070104435,25.88488070104435 0 0,0 0.04403249238161484,-0.44340118918868154 l 4.856635866018973 0.5245450679719231" fill="#ff3905" stroke="none" /><path d="M 79.12142395522702 97.74499172005258 l -28.376953878827035 -3.0648769254769785 a49.54198630105126,49.54198630105126 0 0,0 0.09887081701800439,-0.8470647808198274 l 28.31999270880544 3.5528854446216678" fill="#9cff22" stroke="none" /><path d="M 79.16333360222342 97.38593545837743 l -4.483351005670378 -0.5624589206275996 a25.518494912848652,25.518494912848652 0 0,0 0.05843006349676554,-0.4353718412090462 l 4.473004943115778 0.6395491039013053" fill="#ff3404" stroke="none" /><path d="M 79.21141760316559 97.0276538004421 l -8.693997973280661 -1.2430656088786467 a29.782414979228953,29.782414979228953 0 0,0 0.07692954722705796,-0.5068695975563563 l 8.671312532614301 1.3925343188270949" fill="#ff6f0a" stroke="none" /><path d="M 79.3925641242962 95.95851677861259 l -6.074504078360746 -1.191317855313035 a27.19022116167177,27.19022116167177 0 0,0 0.09402728595179133,-0.4585104394118564 l 6.05309749649396 1.295703950888294" fill="#ff4b07" stroke="none" /><path d="M 80.02781315780177 93.51064311812611 l -14.138454655483192 -4.5938623918623165 a35.86605097934624,35.86605097934624 0 0,0 0.19583326033387682,-0.5855165222704324 l 14.057284101377544 4.83655201705507" fill="#ffbf11" stroke="none" /><path d="M 80.14247586403 93.16781622104843 l -5.751955430874059 -1.9790189513548078 a27.082886427394733,27.082886427394733 0 0,0 0.1554646915047742,-0.4395196179845069 l 5.717037658559475 2.0777361957659255" fill="#ff4a06" stroke="none" /><path d="M 80.52162464483688 92.15188598940014 l -8.155854015522497 -3.2861093905689924 a29.792978428797614,29.792978428797614 0 0,0 0.1957516622019683,-0.47402817690463017 l 8.09808066643433 3.426012137926934" fill="#ff6f0a" stroke="none" /><path d="M 80.95270993114464 91.15688171328213 l -7.796218986125794 -3.61956406576682 a29.5954798880469,29.5954798880469 0 0,0 0.21850174552204327,-0.4602204009618956 l 7.732759046761999 3.753226882369248" fill="#ff6c0a" stroke="none" /><path d="M 81.10775173730289 90.83032412892265 l -23.427516440236285 -11.370945862778624 a47.04125450840999,47.04125450840999 0 0,0 0.359843167375533,-0.7254218675013606 l 23.22831325990734 11.772527318778947" fill="#b8ff1f" stroke="none" /><path d="M 81.6062741919709 89.86733742301443 l -2.2582759142508 -1.2440300613184365 a23.578259276789137,23.578259276789137 0 0,0 0.19889087916709788,-0.35380468119759034 l 2.2365273937912717 1.2827182524508114" fill="#ff1802" stroke="none" /><line stroke="#e1ed5e" stroke-width="0.3" x1="26.266209847984243" x2="21.928928074336255" y1="57.711370442889674" y2="55.22380399835377" /><path d="M 25.398753493254645 57.213857153982495 a86.0,86.0 0 0,1 29.58750427330803,-30.492523968695096" fill="none" id="id59" stroke="none" /><text fill="#e1ed5e" style="font-size:6.75px; font-family:Arial;" text-anchor="middle"><textPath startOffset="21.46611528233685" xlink:href="#id59">November</textPath></text><path d="M 81.78341655067845 89.55222093294921 l -10.643891908203392 -6.104604158065675 a33.27023336698167,33.27023336698167 0 0,0 0.2891980585360519,-0.49433322696613224 l 10.537234175197014 6.286916797385699" fill="#ff9d0e" stroke="none" /><path d="M 82.34701348167596 88.62581576622439 l -10.399113471464894 -6.700363837563787 a33.370789649336665,33.370789649336665 0 0,0 0.3152798546281659,-0.4801928487062183 l 10.282236981478809 6.878374750247672" fill="#ff9f0e" stroke="none" /><path d="M 82.54541684631803 88.32363383020206 l -21.87906872333659 -14.636156911828724 a47.323197703701524,47.323197703701524 0 0,0 0.45875453613308936,-0.6731656744387924 l 21.623889721534763 15.010600609537933" fill="#b5ff20" stroke="none" /><path d="M 84.07557802195018 86.31012108654704 l -19.004784704512257 -16.33799969252497 a46.06216422453993,46.06216422453993 0 0,0 0.5220557079359083,-0.5967999206248875 l 18.720737132998504 16.6627151693528" fill="#c3ff1e" stroke="none" /><path d="M 84.5562425177563 85.77008943001954 l -2.851756524336851 -2.627614449095591 a24.87774070396587,24.87774070396587 0 0,0 0.2928852598840989,-0.3124295744101708 l 2.8061039424822956 2.676313440383812" fill="#ff2b04" stroke="none" /><path d="M 84.80347519578584 85.50635884689758 l -5.431083984959008 -5.179880490079448 a28.50518721573179,28.50518721573179 0 0,0 0.34170353771584283,-0.35215553220512896 l 5.341116183540046 5.2726002178347" fill="#ff5d08" stroke="none" /><path d="M 86.10567301691215 84.25364557470407 l -6.464051847322086 -7.325669788491043 a30.769821090218514,30.769821090218514 0 0,0 0.4001632835365701,-0.34701765620843583 l 6.336994765138742 7.435852438119159" fill="#ff7c0b" stroke="none" /><path d="M 86.65592168130627 83.78471172551755 l -4.7214590114118815 -5.737362829993575 a28.430310050020413,28.430310050020413 0 0,0 0.38055540632467927,-0.3077160060599926 l 4.622000206522702 5.817784933317703" fill="#ff5c08" stroke="none" /><path d="M 86.93701828274178 83.55741782278169 l -4.387317196731359 -5.522385708423051 a28.053034531131253,28.053034531131253 0 0,0 0.38067626525527964,-0.2971238632186093 l 4.291608376316653 5.597087960864881" fill="#ff5708" stroke="none" /><path d="M 87.22198572758235 83.33499621200491 l -2.2072791754112604 -2.878719262256043 a24.627548200794607,24.627548200794607 0 0,0 0.3386332984038136,-0.25505157975322723 l 2.157399723249057 2.916287431515124" fill="#ff2703" stroke="none" /><path d="M 87.51073957382395 83.11751280151077 l -2.956922995044745 -3.9970512990612606 a25.97190232063661,25.97190232063661 0 0,0 0.36169545127963154,-0.2627871275407441 l 2.8876822274113314 4.047357661418673" fill="#ff3a05" stroke="none" /><path d="M 87.80319425747018 82.90503203632743 l -14.645360505391537 -20.526847269781513 a46.215829218366366,46.215829218366366 0 0,0 0.6515746614227574,-0.4564696897201065 l 14.28985470438512 20.77590180226556" fill="#c2ff1e" stroke="none" /><path d="M 88.70189139769569 82.29822771554957 l -1.5833272632837165 -2.48074254310974 a23.94295918895456,23.94295918895456 0 0,0 0.3493173395727957,-0.2187424859940513 l 1.5403907713386784 2.507629370426722" fill="#ff1d03" stroke="none" /><line stroke="#e1ed5e" stroke-width="0.3" x1="56.762969772571076" x2="54.21961505331055" y1="26.818313649435495" y2="22.513508569990535" /><path d="M 56.25429882871897 25.957352633546506 a86.0,86.0 0 0,1 42.265352541879196,-11.944610805530505" fill="none" id="id60" stroke="none" /><text fill="#e1ed5e" style="font-size:6.75px; font-family:Arial;" text-anchor="middle"><textPath startOffset="22.20632615414155" xlink:href="#id60">December</textPath></text><path d="M 89.63071344664047 81.73862282372117 l -6.319874336119874 -11.12994692206461 a33.79908317467787,33.79908317467787 0 0,0 0.508396008872908,-0.2829218285090954 l 6.12735423817492 11.237084148133889" fill="#ffa40f" stroke="none" /><path d="M 89.94658935756843 81.56283822128135 l -3.006794472275113 -5.514223788563458 a27.280722648618017,27.280722648618017 0 0,0 0.4142187405142526,-0.22126130587929463 l 2.911430685232555 5.565163820944503" fill="#ff4c07" stroke="none" /><path d="M 90.91171255644093 81.06846463323043 l -1.9091020046853353 -3.9767923654401303 a25.411297766204008,25.411297766204008 0 0,0 0.39595858610740664,-0.18590786540241377 l 1.84036520727832 4.009065213482551" fill="#ff3204" stroke="none" /><path d="M 92.23578459929587 80.48803036053334 l -9.943219478465934 -24.987946182531964 a47.893587860641766,47.893587860641766 0 0,0 0.7686164475049243,-0.29821124045894404 l 9.511619865961334 25.15540012688146" fill="#afff20" stroke="none" /><path d="M 93.25333710446033 80.11325718540243 l -3.5401338820063057 -10.435045166884814 a32.01919759045345,32.01919759045345 0 0,0 0.5234638357531965,-0.1725777965462447 l 3.3599872240106996 10.494436687690293" fill="#ff8d0d" stroke="none" /><path d="M 93.59665428221793 80.00007090966166 l -1.7039662688759682 -5.32209348859767 a26.58821797595985,26.58821797595985 0 0,0 0.43707817899318485,-0.13580231780073673 l 1.6121027171720548 5.350635941280931" fill="#ff4306" stroke="none" /><path d="M 94.63758080256005 79.69619591428918 l -7.7811887613493225 -29.462025691649725 a51.47224731448564,51.47224731448564 0 0,0 0.8585843196986538,-0.21887226026851647 l 7.272895552965669 29.591600948087105" fill="#87ff25" stroke="none" /><path d="M 95.692805502759 79.44645832069477 l -1.3923327655930473 -6.644085737806827 a27.788406721865748,27.788406721865748 0 0,0 0.4690068937913542,-0.09407837070676675 l 1.2777594623345567 6.667068064590804" fill="#ff5307" stroke="none" /><path d="M 97.11714578562143 79.19881850522333 l -3.666155228763346 -26.4530755392255 a47.70591506848922,47.70591506848922 0 0,0 0.8143746626242113,-0.10572920391794127 l 3.210265837631277 26.512263066307582" fill="#b1ff20" stroke="none" /><path d="M 99.63851952072746 79.00311137660856 l -0.22031467509933875 -12.797157690143866 a33.79905400810827,33.79905400810827 0 0,0 0.5817951543718713,-0.005007694572964094 l 3.1348641046287793e-15 12.799054008108271" fill="#ffa40f" stroke="none" /></svg>