<?xml version="1.0" encoding="utf-8" ?>
<svg baseProfile="full" height="200mm" version="1.1" viewBox="0,0,200,200" width="200mm" xmlns="http://www.w3.org/2000/svg" xmlns:ev="http://www.w3.org/2001/xml-events" xmlns:xlink="http://www.w3.org/1999/xlink"><defs /><rect fill="#1a1a1a" height="200" width="200" x="0" y="0" /><rect fill="#1a1a1a" height="200" width="180" x="10" y="0" /><text alignment-baseline="middle" fill="#e1ed5e" style="dominant-baseline: central; font-size:9.0px; font-family:Arial;" text-anchor="middle" x="100.0" y="100.0">2015</text><line stroke="#e1ed5e" stroke-width="0.3" x1="100.0" x2="100.0" y1="15.0" y2="10.0" /><path d="M 100.0 14.0 a86.0,86.0 0 0,1 42.46469731375804,11.215312516191453" fill="none" id="id25" stroke="none" /><text fill="#e1ed5e" style="font-size:6.75px; font-family:Arial;" text-anchor="middle"><textPath startOffset="22.20632615414155" xlink:href="#id25">January</textPath></text><path d="M 110.36928655335952 81.73862282372117 l 11.309302797301688 -19.916842197340987 a43.90373185476197,43.90373185476197 0 0,0 0.6539633705302665,0.37881779462594856 l -11.650462900297283 19.719220245324987" fill="#efff19" stroke="none" /><line stroke="#e1ed5e" stroke-width="0.3" x1="143.23703022742887" x2="145.7803849466894" y1="26.81831364943548" y2="22.513508569990506" /><path d="M 143.74570117128098 25.957352633546492 a86.0,86.0 0 0,1 28.547481713284135,27.462654790039103" fill="none" id="id26" stroke="none" /><text fill="#e1ed5e" style="font-size:6.75px; font-family:Arial;" text-anchor="middle"><textPath startOffset="19.985693538727396" xlink:href="#id26">February</textPath></text><path d="M 111.2981086023043 82.29822771554956 l 9.80070706323683 -15.355657373008388 a39.21675251785035,39.21675251785035 0 0,0 0.565903293074572,0.3680792434398973 l -10.063577382095684 15.184679205408962" fill="#ffd313" stroke="none" /><path d="M 111.60114157652 82.49532879139004 l 4.639119113008349 -6.999850336724264 a29.397578870199325,29.397578870199325 0 0,0 0.41939888692024546,0.28318000060484017 l -4.758922694335137 6.9189584238207535" fill="#ff4b07" stroke="none" /><path d="M 111.90073688211348 82.69761687909136 l 4.645727708008599 -6.754385167543538 a29.197835380665495,29.197835380665495 0 0,0 0.41164618322751384,0.2883844579254028 l -4.761305030819764 6.673415866854199" fill="#ff4906" stroke="none" /><path d="M 112.48926042617603 83.11751280151076 l 27.928659315138646 -37.752854634256465 a67.96049450523685,67.96049450523685 0 0,0 0.9344692467080677,0.7038228630413349 l -28.574374715605096 37.26651518170929" fill="#38ff84" stroke="none" /><path d="M 113.34407831869373 83.78471172551755 l 9.350737731448838 -11.362711179693207 a35.71555304687751,35.71555304687751 0 0,0 0.4713474447751873,0.39473992977237704 l -9.544942713183142 11.200070092527012" fill="#ffa40f" stroke="none" /><path d="M 113.6212207817346 84.01681056812373 l 14.28297348228049 -16.759692429615182 a43.02023210211073,43.02023210211073 0 0,0 0.5594805795591425,0.48517604538050785 l -14.569347860486396 16.511351390815" fill="#faff18" stroke="none" /><path d="M 114.16331599549186 84.49514656593476 l 5.553975441658436 -6.080043347668125 a29.23489953284607,29.23489953284607 0 0,0 0.36862718639749315,0.3425987953143835 l -5.657810511850776 5.983539966279102" fill="#ff4906" stroke="none" /><path d="M 114.94478906791727 85.2469230424477 l 5.909416487542186 -5.833610351991948 a29.30374692305245,29.30374692305245 0 0,0 0.35127620513963626,0.36202100744657023 l -6.008956956384932 5.731025148995263" fill="#ff4a06" stroke="none" /><path d="M 115.19652480421416 85.50635884689758 l 5.9889608859392744 -5.711953955202908 a29.276114455447598,29.276114455447598 0 0,0 0.3446672466247406,0.3676669874704764 l -6.086395454534478 5.608017550854377" fill="#ff4a06" stroke="none" /><path d="M 115.4437574822437 85.77008943001954 l 19.91893516959401 -18.35334868722519 a48.08522450202988,48.08522450202988 0 0,0 0.5556278818011033,0.6135381847065188 l -20.23190669201115 18.00775771524912" fill="#bdff1f" stroke="none" /><path d="M 116.15771136456269 86.58626213691792 l 6.610151491419345 -5.487586536273038 a29.591141293949164,29.591141293949164 0 0,0 0.3219819241355919,0.39471176741898034 l -6.703631907631347 5.372990599245957" fill="#ff4e07" stroke="none" /><line stroke="#e1ed5e" stroke-width="0.3" x1="172.23445277983987" x2="176.4835382374775" y1="55.19839476539836" y2="52.563006222186495" /><path d="M 173.08426987136738 54.67131705675599 a86.0,86.0 0 0,1 12.851231095245387,41.99856678651699" fill="none" id="id27" stroke="none" /><text fill="#e1ed5e" style="font-size:6.75px; font-family:Arial;" text-anchor="middle"><textPath startOffset="22.20632615414155" xlink:href="#id27">March</textPath></text><path d="M 119.04729006885535 91.15688171328212 l 12.456840890190861 -5.783359053837402 a34.73390428498517,34.73390428498517 0 0,0 0.24710308680922186,0.5444588970287375 l -12.55454629396343 5.568078147966602" fill="#ff970d" stroke="none" /><path d="M 119.34039704204932 91.81776055985345 l 7.718657089419953 -3.2654914128550194 a29.380996446215853,29.380996446215853 0 0,0 0.1930447774881663,0.4674732408619927 l -7.773723553794317 3.1321436015397235" fill="#ff4b07" stroke="none" /><path d="M 119.85752413597 93.16781622104841 l 12.957455496155717 -4.458144764228823 a34.702945218954824,34.702945218954824 0 0,0 0.1894825529950178,0.5665287156605333 l -13.032275342922505 4.234442945645976" fill="#ff960d" stroke="none" /><path d="M 120.08093135843002 93.85539295169968 l 8.04967925585503 -2.4631385372132835 a29.418098810043038,29.418098810043038 0 0,0 0.14400033694560346,0.48549754977846643 l -8.090885489912337 2.324211600688287" fill="#ff4c07" stroke="none" /><path d="M 120.18372546131832 94.20196356495316 l 18.70482721807566 -5.373203769021887 a40.46129183794064,40.46129183794064 0 0,0 0.18653277761370893,0.6710576474391308 l -18.79454676625573 5.050434818163804" fill="#ffe315" stroke="none" /><path d="M 120.37134235888165 94.90015583598534 l 8.102219024863953 -2.0283422506767628 a29.352252714851716,29.352252714851716 0 0,0 0.11848134612736859,0.4911816708601992 l -8.135933171252141 1.8885753481571574" fill="#ff4b07" stroke="none" /><path d="M 120.53481517161879 95.60439243477599 l 13.68601545276353 -2.929578501640724 a34.996051199197495,34.996051199197495 0 0,0 0.12102085134669234,0.5901406508470218 l -13.734415600025219 2.69356219463029" fill="#ff9a0e" stroke="none" /><path d="M 120.6074358757038 95.95851677861258 l 40.15416640101014 -7.874943333916306 a61.919088600216945,61.919088600216945 0 0,0 0.19611920735260543,1.0476766477711903 l -40.2837713322726 7.182588608682553" fill="#31ff3b" stroke="none" /><path d="M 120.73433829027371 96.67025291283417 l 12.44452427915299 -1.998477978393547 a33.603971547276366,33.603971547276366 0 0,0 0.08680082921300923,0.5719090122927519 l -12.477081001805299 1.7839698537087127" fill="#ff870c" stroke="none" /><path d="M 120.78858239683441 97.02765380044208 l 17.807436591697396 -2.5461027340305886 a38.988536268956445,38.988536268956445 0 0,0 0.08927261022333759,0.6651846388054133 l -17.84862520097857 2.2391997531605106" fill="#ffd013" stroke="none" /><path d="M 120.83666639777658 97.38593545837742 l 8.361661354029154 -1.0490124493693402 a29.42720640060492,29.42720640060492 0 0,0 0.05872780153999434,0.5031439391306747 l -8.378479508572736 0.9049247719138128" fill="#ff4c07" stroke="none" /><path d="M 120.96714384426684 98.82574320788733 l 22.938783077827612 -1.284677685811912 a43.97472885254695,43.97472885254695 0 0,0 0.035821378075115914,0.7561326751390391 l -22.957498064136225 0.8896339040498732" fill="#efff19" stroke="none" /><line stroke="#e1ed5e" stroke-width="0.3" x1="184.98032266829074" x2="189.97916517819016" y1="98.17113171792111" y2="98.06355123074" /><path d="M 185.9800911702706 98.14961562048488 a86.0,86.0 0 0,1 -9.607161424134198,41.387399972396054" fill="none" id="id28" stroke="none" /><text fill="#e1ed5e" style="font-size:6.75px; font-family:Arial;" text-anchor="middle"><textPath startOffset="21.466115282336823" xlink:href="#id28">April</textPath></text><path d="M 120.99513854157772 99.54816195383933 l 11.302461821032383 -0.24324117966201553 a32.30507892442056,32.30507892442056 0 0,0 0.00717940825723372,0.5560530815082447 l -11.304974236407332 0.048651840093308085" fill="#ff750a" stroke="none" /><path d="M 120.92983693683757 101.71520430193887 l 8.287321404823558 0.6791476382735356 a29.315102980806625,29.315102980806625 0 0,0 -0.04554366999656802,0.5025706033193172 l -8.274403138549914 -0.8216996301414234" fill="#ff4a06" stroke="none" /><line stroke="#e1ed5e" stroke-width="0.3" x1="174.80103733775053" x2="179.2010983576182" y1="140.37084112569926" y2="142.7455964860345" /><path d="M 175.68104954172406 140.8457921977663 a86.0,86.0 0 0,1 -30.038265399797805,32.042727171017184" fill="none" id="id29" stroke="none" /><text fill="#e1ed5e" style="font-size:6.75px; font-family:Arial;" text-anchor="middle"><textPath startOffset="22.206326154141568" xlink:href="#id29">May</textPath></text><path d="M 115.32070863581623 114.36230785411682 l 34.93816064202016 32.752572411971045 a68.88951940298642,68.88951940298642 0 0,0 -0.8184516080808011,0.8581432389463115 l -34.3692024825604 -33.349122767499864" fill="#3aff8e" stroke="none" /><path d="M 112.92097659922987 116.55440617244103 l 4.937751806443355 6.326267086300562 a29.02515097361068,29.02515097361068 0 0,0 -0.3964991412127621,0.3040186338912055 l -4.8281239367371 -6.4103250620191385" fill="#ff4606" stroke="none" /><path d="M 112.63410532772338 116.77436683061366 l 11.631767965887201 15.44355834363873 a40.33394735499228,40.33394735499228 0 0,0 -0.5581738716051025,0.4129236861608213 l -11.364209123863535 -15.64149197853932" fill="#ffe115" stroke="none" /><path d="M 112.34349029814194 116.9893568818739 l 4.8013239889543256 6.608455532721268 a29.168500264728074,29.168500264728074 0 0,0 -0.4087377388353356,0.29162352399895564 l -4.686858922270106 -6.690123318564443" fill="#ff4806" stroke="none" /><path d="M 112.04921762599082 117.19931262002967 l 18.39201058668504 26.253151831945534 a53.054547797963394,53.054547797963394 0 0,0 -0.7524729429080745,0.5175577515467935 l -17.93738075915408 -26.565850372857422" fill="#84ff25" stroke="none" /><line stroke="#e1ed5e" stroke-width="0.3" x1="143.8653032363475" x2="146.44561519142675" y1="172.8068346515853" y2="177.08958963109032" /><path d="M 144.38136562736335 173.6633856474863 a86.0,86.0 0 0,1 -40.68145358897372,12.25698825130547" fill="none" id="id30" stroke="none" /><text fill="#e1ed5e" style="font-size:6.75px; font-family:Arial;" text-anchor="middle"><textPath startOffset="21.466115282336833" xlink:href="#id30">June</textPath></text><path d="M 105.53697534728816 120.25689768951611 l 2.3337279437523164 8.537890314954879 a29.851093556485026,29.851093556485026 0 0,0 -0.4968210709771259,0.13121496038150532 l -2.186416429963693 -8.576796624639968" fill="#ff5207" stroke="none" /><path d="M 101.98527174616119 120.90594882070398 l 3.4076856786891176 35.88471076238059 a57.046148035323505,57.046148035323505 0 0,0 -0.9783568745656642,0.08441674784855877 l -2.789484486381912 -35.93805176250782" fill="#58ff2a" stroke="none" /><path d="M 101.26447882468166 120.96189622390904 l 0.1992552008277806 3.3031528565752026 a24.309157208256785,24.309157208256785 0 0,0 -0.4178997999520556,0.02160064623590878 l -0.14236733246224537 -3.3060933095733134" fill="#ff0000" stroke="none" /><line stroke="#e1ed5e" stroke-width="0.3" x1="102.19456741930631" x2="102.32365962044197" y1="184.97166512339345" y2="189.96999836594603" /><path d="M 102.22038585953345 185.97133177190398 a86.0,86.0 0 0,1 -42.740103519485714,-10.115201625700543" fill="none" id="id31" stroke="none" /><text fill="#e1ed5e" style="font-size:6.75px; font-family:Arial;" text-anchor="middle"><textPath startOffset="22.20632615414155" xlink:href="#id31">July</textPath></text><path d="M 99.45781275523022 120.99299961872073 l -0.635207098449399 24.594644201228146 a45.602845596453385,45.602845596453385 0 0,0 -0.7845419057010586,-0.02702120952859004 l 1.0584693558251008 -24.58006619327346" fill="#dbff1b" stroke="none" /><path d="M 98.37488393609728 120.93702456842531 l -1.795542501608167 23.132696983833664 a44.20227666891653,44.20227666891653 0 0,0 -0.7580810052890842,-0.06541041897485583 l 2.193467824638793 -23.098362312580146" fill="#ecff1a" stroke="none" /><path d="M 97.65516085044442 120.86867818915974 l -2.590880976698535 23.05840950300798 a44.203510791339895,44.203510791339895 0 0,0 -0.7554013251363747,-0.09146858047242966 l 2.987409724886299 -23.0103953938102" fill="#ecff1a" stroke="none" /><path d="M 95.51606077576429 120.51570834832081 l -4.989724485556074 22.829866143333394 a44.368785560321236,44.368785560321236 0 0,0 -0.7447191859962925,-0.16949566213524456 l 5.381963820945229 -22.740593747620466" fill="#eaff1a" stroke="none" /><path d="M 94.81253420990036 120.34920634021253 l -5.5540749363047555 21.787327662684664 a43.484114282739114,43.484114282739114 0 0,0 -0.7237196917949877,-0.19114094838897625 l 5.928285070911233 -21.688495364992104" fill="#f5ff19" stroke="none" /><path d="M 93.08242187328487 119.8279376855182 l -3.11576790990857 8.930763170077968 a30.458675407711013,30.458675407711013 0 0,0 -0.4935472119224973,-0.1769684706266946 l 3.269034682460794 -8.875807158411316" fill="#ff5b08" stroke="none" /><path d="M 91.40352486487194 119.15986991738527 l -7.263743481000959 16.189470454061933 a38.74432086445486,38.74432086445486 0 0,0 -0.6061309231537878,-0.2782449779754803 l 7.541342399922166 -16.06203840575238" fill="#ffcd13" stroke="none" /><line stroke="#e1ed5e" stroke-width="0.3" x1="58.666819895761336" x2="56.23545636021788" y1="174.27360380694188" y2="178.64263932499728" /><path d="M 58.180547188652646 175.14741091055294 a86.0,86.0 0 0,1 -31.652253787137756,-30.449443065178592" fill="none" id="id32" stroke="none" /><text fill="#e1ed5e" style="font-size:6.75px; font-family:Arial;" text-anchor="middle"><textPath startOffset="22.20632615414155" xlink:href="#id32">August</textPath></text><path d="M 89.7882731507175 118.34994917583269 l -28.268752754040992 50.797498205436256 a79.13353770587509,79.13353770587509 0 0,0 -1.1845583407489988,-0.6726231409509397 l 29.1389598617112 -50.303371898690685" fill="#47fffd" stroke="none" /><path d="M 89.4739219176387 118.17145234162733 l -31.57823424708386 54.51435702488198 a84.0,84.0 0 0,0 -1.2449285158864716,-0.735525710825002 l 32.511930633998716 -53.962712741763234" fill="#4dd2ff" stroke="none" /><path d="M 89.1626897886671 117.98757091392108 l -30.092746388868033 49.94739461258174 a79.31222525174022,79.31222525174022 0 0,0 -1.1633245274852366,-0.7146089399587995 l 30.94805011628558 -49.42199720579456" fill="#47ffff" stroke="none" /><path d="M 88.8546689885994 117.79835938074946 l -26.539118746962618 42.38122426544843 a71.00492969801695,71.00492969801695 0 0,0 -1.030309248731648,-0.6575921099354503 l 27.26470979774119 -41.918117726689175" fill="#3cffa6" stroke="none" /><path d="M 87.36589467227662 116.77436683061367 l -7.488974220367136 9.943149712531659 a33.44792999173525,33.44792999173525 0 0,0 -0.456916676475711,-0.350344223594964 l 7.659019625336334 -9.812766147109327" fill="#ff850c" stroke="none" /><path d="M 83.50135304334701 112.99209946851258 l -18.167437786001848 14.306213074555847 a44.12408978193175,44.12408978193175 0 0,0 -0.4647594217248185,-0.6007642027798503 l 18.411004024944734 -13.991370877662744" fill="#edff1a" stroke="none" /><path d="M 83.28015986056508 112.70617746262583 l -7.676445042437687 5.833684543505693 a30.641560239022695,30.641560239022695 0 0,0 -0.31551867488440544,-0.4226888263325983 l 7.775724984017177 -5.700682837663787" fill="#ff5d08" stroke="none" /><path d="M 82.85270091963577 112.12312394758628 l -9.725465873205442 6.875895012754722 a32.91060950066406,32.91060950066406 0 0,0 -0.3230553898670546,-0.4653853837130148 l 9.84238217023463 -6.707468366854695" fill="#ff7d0b" stroke="none" /><line stroke="#e1ed5e" stroke-width="0.3" x1="26.63291911575756" x2="22.317208475507996" y1="142.92168965132927" y2="145.44649492493687" /><path d="M 25.769776987707644 143.4266507060508 a86.0,86.0 0 0,1 -11.730757126820373,-40.83630448921669" fill="none" id="id33" stroke="none" /><text fill="#e1ed5e" style="font-size:6.75px; font-family:Arial;" text-anchor="middle"><textPath startOffset="21.46611528233685" xlink:href="#id33">September</textPath></text><path d="M 80.87730276802145 108.67885076344099 l -21.21051303125053 9.626407560665937 a44.292779687553285,44.292779687553285 0 0,0 -0.30911913072591474,-0.6969820347197387 l 21.373073246707726 -9.259877189453503" fill="#ebff1a" stroke="none" /><path d="M 80.58989483394504 108.01547362559985 l -21.674668854076845 8.950633448771473 a44.450055630385094,44.450055630385094 0 0,0 -0.28595649103708126,-0.7097205596328853 l 21.825527959371314 -8.576213521295783" fill="#e9ff1a" stroke="none" /><path d="M 79.67330655649465 105.27499134158121 l -22.435408659697 5.822225181565432 a44.17856483461523,44.17856483461523 0 0,0 -0.18468467348387696,-0.7377234658512823 l 22.532304647475932 -5.435173876316758" fill="#ecff1a" stroke="none" /><path d="M 79.04373962182676 101.35467743843564 l -10.149150262300083 0.6560724400022739 a31.170333430781724,31.170333430781724 0 0,0 -0.03000315155659353,-0.5357264260201989 l 10.158939764744208 -0.4812742976466374" fill="#ff6509" stroke="none" /><line stroke="#e1ed5e" stroke-width="0.3" x1="15.007084014347285" x2="10.007500721073583" y1="101.09737516637583" y2="101.16192664675087" /><path d="M 14.007167355692545 101.11028546245083 a86.0,86.0 0 0,1 10.666146001902534,-42.60595125391555" fill="none" id="id34" stroke="none" /><text fill="#e1ed5e" style="font-size:6.75px; font-family:Arial;" text-anchor="middle"><textPath startOffset="22.20632615414155" xlink:href="#id34">October</textPath></text><path d="M 79.32604984820605 96.31383870115002 l -22.834814996551923 -4.071443081204537 a44.19494394669323,44.19494394669323 0 0,0 0.13998070016469255,-0.7477824975987083 l 22.76134857247737 4.463903656265818" fill="#ecff1a" stroke="none" /><path d="M 79.54389044137918 95.25157060432595 l -22.790136627212156 -5.290221700366085 a44.39608456827811,44.39608456827811 0 0,0 0.1792062746779519,-0.7429257035138706 l 22.695697552273387 5.681732635539352" fill="#e9ff1a" stroke="none" /><path d="M 79.81627453868168 94.20196356495316 l -16.997141178679623 -4.882648846690301 a38.68454319478037,38.68454319478037 0 0,0 0.18935918635004143,-0.6384250408783345 l 16.910576095217873 5.174503274315175" fill="#ffcc13" stroke="none" /><path d="M 81.10775173730289 90.83032412892265 l -7.840258867600269 -3.805403759339056 a29.71497314296358,29.71497314296358 0 0,0 0.22730537622739794,-0.45823376811236344 l 7.773593478419459 3.9397971159503813" fill="#ff5007" stroke="none" /><line stroke="#e1ed5e" stroke-width="0.3" x1="26.266209847984243" x2="21.928928074336255" y1="57.711370442889674" y2="55.22380399835377" /><path d="M 25.398753493254645 57.213857153982495 a86.0,86.0 0 0,1 29.58750427330803,-30.492523968695096" fill="none" id="id35" stroke="none" /><text fill="#e1ed5e" style="font-size:6.75px; font-family:Arial;" text-anchor="middle"><textPath startOffset="21.46611528233685" xlink:href="#id35">November</textPath></text><line stroke="#e1ed5e" stroke-width="0.3" x1="56.762969772571076" x2="54.21961505331055" y1="26.818313649435495" y2="22.513508569990535" /><path d="M 56.25429882871897 25.957352633546506 a86.0,86.0 0 0,1 42.265352541879196,-11.944610805530505" fill="none" id="id36" stroke="none" /><text fill="#e1ed5e" style="font-size:6.75px; font-family:Arial;" text-anchor="middle"><textPath startOffset="22.20632615414155" xlink:href="#id36">December</textPath></text></svg>