<?xml version="1.0" encoding="utf-8" ?>
<svg baseProfile="full" height="200mm" version="1.1" viewBox="0,0,200,200" width="200mm" xmlns="http://www.w3.org/2000/svg" xmlns:ev="http://www.w3.org/2001/xml-events" xmlns:xlink="http://www.w3.org/1999/xlink"><defs /><rect fill="#1a1a1a" height="200" width="200" x="0" y="0" /><rect fill="#1a1a1a" height="200" width="180" x="10" y="0" /><text alignment-baseline="middle" fill="#e1ed5e" style="dominant-baseline: central; font-size:9.0px; font-family:Arial;" text-anchor="middle" x="100.0" y="100.0">2015</text><line stroke="#e1ed5e" stroke-width="0.3" x1="100.0" x2="100.0" y1="15.0" y2="10.0" /><path d="M 100.0 14.0 a86.0,86.0 0 0,1 42.46469731375804,11.215312516191453" fill="none" id="id13" stroke="none" /><text fill="#e1ed5e" style="font-size:6.75px; font-family:Arial;" text-anchor="middle"><textPath startOffset="22.20632615414155" xlink:href="#id13">January</textPath></text><path d="M 110.36928655335952 81.73862282372117 l 12.218468308388616 -21.51797591355058 a45.74498444572637,45.74498444572637 0 0,0 0.6813895527593304,0.3947048096105937 l -12.587054593613274 21.304466946549937" fill="#dbff1b" stroke="none" /><line stroke="#e1ed5e" stroke-width="0.3" x1="143.23703022742887" x2="145.7803849466894" y1="26.81831364943548" y2="22.513508569990506" /><path d="M 143.74570117128098 25.957352633546492 a86.0,86.0 0 0,1 28.547481713284135,27.462654790039103" fill="none" id="id14" stroke="none" /><text fill="#e1ed5e" style="font-size:6.75px; font-family:Arial;" text-anchor="middle"><textPath startOffset="19.985693538727396" xlink:href="#id14">February</textPath></text><path d="M 111.2981086023043 82.29822771554956 l 10.58859514138493 -16.59011314219496 a40.68121442236201,40.68121442236201 0 0,0 0.5870356857674189,0.3818243394830704 l -10.872597852936629 16.40538987855236" fill="#ffe315" stroke="none" /><path d="M 111.60114157652 82.49532879139004 l 5.012062270952417 -7.5625749027725195 a30.072668150436755,30.072668150436755 0 0,0 0.42903000974003597,0.2896829777251686 l -5.1414969750989945 7.47518001274868" fill="#ff5207" stroke="none" /><path d="M 111.90073688211348 82.69761687909136 l 5.01920213713345 -7.297376557286223 a29.856867093517636,29.856867093517636 0 0,0 0.4209375531419123,0.2948936563227732 l -5.144070829859014 7.2098980581995145" fill="#ff4f07" stroke="none" /><path d="M 112.48926042617603 83.11751280151076 l 30.173870560723035 -40.78784220101732 a71.73569291958431,71.73569291958431 0 0,0 0.986378916349405,0.7429201500148778 l -30.871495630830825 40.26240546149659" fill="#3dffae" stroke="none" /><path d="M 113.34407831869373 83.78471172551755 l 10.10245235091069 -12.276170240978907 a36.89855022597712,36.89855022597712 0 0,0 0.48695976629833404,0.40781480006168164 l -10.312269654168142 12.100454283523407" fill="#ffb110" stroke="none" /><path d="M 113.6212207817346 84.01681056812373 l 15.431195182468484 -18.107019900329497 a44.790459315245826,44.790459315245826 0 0,0 0.5825024857358783,0.5051404155553425 l -15.740591466851127 17.838714491354484" fill="#e7ff1a" stroke="none" /><path d="M 114.16331599549186 84.49514656593476 l 6.000464762130466 -6.568823762932298 a29.89691086782561,29.89691086782561 0 0,0 0.37697458555658986,0.3503567931003392 l -6.112647231481903 6.464562383757318" fill="#ff4f07" stroke="none" /><path d="M 114.94478906791727 85.2469230424477 l 6.38448004870209 -6.302579786466386 a29.971292964620524,29.971292964620524 0 0,0 0.3592783572485036,0.3702679286037869 l -6.492022669653703 6.191747662312484" fill="#ff5007" stroke="none" /><path d="M 115.19652480421416 85.50635884689758 l 6.470419096258282 -6.171143317276235 a29.941439096900844,29.941439096900844 0 0,0 0.3525001034278609,0.37602253297789845 l -6.575686521656605 6.0588513674202815" fill="#ff5007" stroke="none" /><path d="M 115.4437574822437 85.77008943001954 l 21.52023714181569 -19.828791686537127 a50.26263122803668,50.26263122803668 0 0,0 0.5807879574692447,0.641320568669093 l -21.85836873990097 19.455418330598487" fill="#a5ff21" stroke="none" /><path d="M 116.15771136456269 86.58626213691792 l 7.1415477999956956 -5.928738790068453 a30.28179123986775,30.28179123986775 0 0,0 0.3294969029017702,0.40392424280522343 l -7.242543194973875 5.804930377655129" fill="#ff5507" stroke="none" /><line stroke="#e1ed5e" stroke-width="0.3" x1="172.23445277983987" x2="176.4835382374775" y1="55.19839476539836" y2="52.563006222186495" /><path d="M 173.08426987136738 54.67131705675599 a86.0,86.0 0 0,1 12.851231095245387,41.99856678651699" fill="none" id="id15" stroke="none" /><text fill="#e1ed5e" style="font-size:6.75px; font-family:Arial;" text-anchor="middle"><textPath startOffset="22.20632615414155" xlink:href="#id15">March</textPath></text><path d="M 119.04729006885535 91.15688171328212 l 13.45825807013948 -6.248288739090485 a35.83798579489546,35.83798579489546 0 0,0 0.2549577163075174,0.561765531957637 l -13.563818103410346 6.0157011982907855" fill="#ffa30f" stroke="none" /><path d="M 119.34039704204932 91.81776055985345 l 8.339167207805106 -3.528007345316095 a30.054752649760033,30.054752649760033 0 0,0 0.19747162246030847,0.47819319709622843 l -8.398660517151614 3.3839395777665637" fill="#ff5107" stroke="none" /><path d="M 119.85752413597 93.16781622104841 l 13.999117556115708 -4.816539223703079 a35.804537900367485,35.804537900367485 0 0,0 0.19549739099558866,0.5845123156992091 l -14.079952240883067 4.574853805081555" fill="#ffa20f" stroke="none" /><path d="M 120.08093135843002 93.85539295169968 l 8.696800558193972 -2.6611525657701747 a30.0948377075849,30.0948377075849 0 0,0 0.14731294493905256,0.4966660171467312 l -8.741319400244727 2.5110571618769133" fill="#ff5207" stroke="none" /><path d="M 120.18372546131832 94.20196356495316 l 20.20852590775721 -5.805160684350262 a42.02580343139402,42.02580343139402 0 0,0 0.19374541665411782,0.6970053476138839 l -20.30545809497769 5.4564440333174264" fill="#fff517" stroke="none" /><path d="M 120.37134235888165 94.90015583598534 l 8.753564048753157 -2.191402595956027 a30.023698182740077,30.023698182740077 0 0,0 0.12119165813167622,0.502417663886453 l -8.789988507145653 2.0403997004101675" fill="#ff5107" stroke="none" /><path d="M 120.53481517161879 95.60439243477599 l 14.78624713431548 -3.165090078565604 a36.12120694661928,36.12120694661928 0 0,0 0.12491178480302843,0.6091142242170078 l -14.838538215033507 2.9101001981851846" fill="#ffa70f" stroke="none" /><path d="M 120.6074358757038 95.95851677861258 l 43.38219768397783 -8.508017450798986 a65.20861269973116,65.20861269973116 0 0,0 0.20653826993166544,1.1033356966889343 l -43.52222167781935 7.76000367664749" fill="#35ff62" stroke="none" /><path d="M 120.73433829027371 96.67025291283417 l 13.444951315131657 -2.1591375066763727 a34.617216699421256,34.617216699421256 0 0,0 0.0894180948322978,0.5891535226137521 l -13.480125303403254 1.9273848716705386" fill="#ff920d" stroke="none" /><path d="M 120.78858239683441 97.02765380044208 l 19.23899320311834 -2.7507863325648003 a40.434651654121794,40.434651654121794 0 0,0 0.09258380134442179,0.6898568586988818 l -19.283493003520597 2.419211131801254" fill="#ffe015" stroke="none" /><path d="M 120.83666639777658 97.38593545837742 l 9.033863191288791 -1.1333435488863661 a30.104677465936113,30.104677465936113 0 0,0 0.060079828835152095,0.5147272833264317 l -9.052033373127532 0.9776725272350817" fill="#ff5207" stroke="none" /><path d="M 120.96714384426684 98.82574320788733 l 24.78285346965063 -1.387954135805083 a45.82168895907917,45.82168895907917 0 0,0 0.03732589346366083,0.7878906170904288 l -24.803072971347785 0.9611524120916545" fill="#daff1c" stroke="none" /><line stroke="#e1ed5e" stroke-width="0.3" x1="184.98032266829074" x2="189.97916517819016" y1="98.17113171792111" y2="98.06355123074" /><path d="M 185.9800911702706 98.14961562048488 a86.0,86.0 0 0,1 -9.607161424134198,41.387399972396054" fill="none" id="id16" stroke="none" /><text fill="#e1ed5e" style="font-size:6.75px; font-family:Arial;" text-anchor="middle"><textPath startOffset="21.466115282336823" xlink:href="#id16">April</textPath></text><path d="M 120.99513854157772 99.54816195383933 l 12.211077379589284 -0.2627955673540285 a33.213904874385506,33.213904874385506 0 0,0 0.0073813836972204715,0.5716963019199629 l -12.213791770404221 0.05256300737360281" fill="#ff7e0b" stroke="none" /><path d="M 120.92983693683757 101.71520430193887 l 8.953546983499878 0.733744957022642 a29.983561946560837,29.983561946560837 0 0,0 -0.046582181597993724,0.5140304923032739 l -8.939590205624809 -0.8877568378744864" fill="#ff5007" stroke="none" /><line stroke="#e1ed5e" stroke-width="0.3" x1="174.80103733775053" x2="179.2010983576182" y1="140.37084112569926" y2="142.7455964860345" /><path d="M 175.68104954172406 140.8457921977663 a86.0,86.0 0 0,1 -30.038265399797805,32.042727171017184" fill="none" id="id17" stroke="none" /><text fill="#e1ed5e" style="font-size:6.75px; font-family:Arial;" text-anchor="middle"><textPath startOffset="22.206326154141568" xlink:href="#id17">May</textPath></text><path d="M 115.32070863581623 114.36230785411682 l 37.746872305847766 35.385582578030615 a72.73940300448587,72.73940300448587 0 0,0 -0.8641906907725948,0.9061004842862144 l -37.13217506369621 -36.030090178899336" fill="#3effb9" stroke="none" /><path d="M 112.92097659922987 116.55440617244103 l 5.334702328079097 6.834841659983488 a29.670300424221665,29.670300424221665 0 0,0 -0.4053122289845953,0.3107761337853056 l -5.216261370601008 -6.925657135596166" fill="#ff4c07" stroke="none" /><path d="M 112.63410532772338 116.77436683061366 l 12.566856755805672 16.685080554702452 a41.88822160543708,41.88822160543708 0 0,0 -0.5796831790941824,0.42883575762632536 l -12.277788606292926 -16.898926261068546" fill="#fff316" stroke="none" /><path d="M 112.34349029814194 116.9893568818739 l 5.187306949756569 7.13971550157941 a29.82517369996116,29.82517369996116 0 0,0 -0.41793969343136855,0.2981888742761773 l -5.0636399284763165 -7.227948637699806" fill="#ff4e07" stroke="none" /><path d="M 112.04921762599082 117.19931262002967 l 19.870561652534057 28.363667451761486 a55.63144310740272,55.63144310740272 0 0,0 -0.7890210632396977,0.5426958819744379 l -19.379383704671476 -28.70150412310102" fill="#69ff28" stroke="none" /><line stroke="#e1ed5e" stroke-width="0.3" x1="143.8653032363475" x2="146.44561519142675" y1="172.8068346515853" y2="177.08958963109032" /><path d="M 144.38136562736335 173.6633856474863 a86.0,86.0 0 0,1 -40.68145358897372,12.25698825130547" fill="none" id="id18" stroke="none" /><text fill="#e1ed5e" style="font-size:6.75px; font-family:Arial;" text-anchor="middle"><textPath startOffset="21.466115282336833" xlink:href="#id18">June</textPath></text><path d="M 105.53697534728816 120.25689768951611 l 2.5213385327291755 9.22425936448215 a30.56264130979833,30.56264130979833 0 0,0 -0.5086635824142215,0.13434267528695376 l -2.3621845075034567 -9.266293389072686" fill="#ff5908" stroke="none" /><path d="M 101.26447882468166 120.96189622390904 l 0.21527351422377003 3.568696427993502 a24.57518347516597,24.57518347516597 0 0,0 -0.4224730693077526,0.02183703202385428 l -0.15381237650253785 -3.5718732667795585" fill="#ff0000" stroke="none" /><line stroke="#e1ed5e" stroke-width="0.3" x1="102.19456741930631" x2="102.32365962044197" y1="184.97166512339345" y2="189.96999836594603" /><path d="M 102.22038585953345 185.97133177190398 a86.0,86.0 0 0,1 -42.740103519485714,-10.115201625700543" fill="none" id="id19" stroke="none" /><text fill="#e1ed5e" style="font-size:6.75px; font-family:Arial;" text-anchor="middle"><textPath startOffset="22.20632615414155" xlink:href="#id19">July</textPath></text><path d="M 99.45781275523022 120.99299961872073 l -0.6862719957873306 26.57183082943884 a47.580691542556195,47.580691542556195 0 0,0 -0.818568357503428,-0.02819314932808959 l 1.1435607049654017 -26.55608088168466" fill="#c5ff1e" stroke="none" /><path d="M 98.37488393609728 120.93702456842531 l -1.9398878556420494 24.992356297327692 a46.06752955887442,46.06752955887442 0 0,0 -0.7900705970589577,-0.06817061555794275 l 2.369802770442549 -24.955261429491088" fill="#d7ff1c" stroke="none" /><path d="M 97.65516085044442 120.86867818915974 l -2.7991643403650848 24.9120967759012 a46.068862893562574,46.068862893562574 0 0,0 -0.7872786449383348,-0.09532847996496042 l 3.227570408354809 -24.860222767210892" fill="#d7ff1c" stroke="none" /><path d="M 95.51606077576429 120.51570834832081 l -5.3908531398508295 24.665180600136345 a46.24742425699663,46.24742425699663 0 0,0 -0.7762516758605272,-0.17667235416737112 l 5.814624965104219 -24.568731512391288" fill="#d5ff1c" stroke="none" /><path d="M 94.81253420990036 120.34920634021253 l -6.000572255245177 23.538831468417865 a45.29163342159183,45.29163342159183 0 0,0 -0.7538027972154722,-0.19908616995161657 l 6.404865495272138 -23.43205394916267" fill="#e0ff1b" stroke="none" /><path d="M 93.08242187328487 119.8279376855182 l -3.3662474288508126 9.648715638717992 a31.219067238700696,31.219067238700696 0 0,0 -0.5058684722245324,-0.1813864362015603 l 3.5318354617050716 -9.589341661476475" fill="#ff6209" stroke="none" /><path d="M 91.40352486487194 119.15986991738527 l -7.847682665641432 17.490957242717528 a40.170803543075124,40.170803543075124 0 0,0 -0.6284473618876056,-0.2884893604459764 l 8.147598023296457 -17.353280811937477" fill="#ffdd14" stroke="none" /><line stroke="#e1ed5e" stroke-width="0.3" x1="58.666819895761336" x2="56.23545636021788" y1="174.27360380694188" y2="178.64263932499728" /><path d="M 58.180547188652646 175.14741091055294 a86.0,86.0 0 0,1 -31.652253787137756,-30.449443065178592" fill="none" id="id20" stroke="none" /><text fill="#e1ed5e" style="font-size:6.75px; font-family:Arial;" text-anchor="middle"><textPath startOffset="22.20632615414155" xlink:href="#id20">August</textPath></text><path d="M 89.7882731507175 118.34994917583269 l -30.541304431722633 54.881156963684525 a83.80694759390667,83.80694759390667 0 0,0 -1.2545151103197298,-0.7123464204727348 l 31.48146830896357 -54.34730737741715" fill="#4dd4ff" stroke="none" /><path d="M 89.1626897886671 117.98757091392108 l -32.511930633998716 53.962712741763234 a84.0,84.0 0 0,0 -1.2320832002707651,-0.7568461326864875 l 33.435993034201786 -53.395078142248366" fill="#4dd2ff" stroke="none" /><path d="M 88.8546689885994 117.79835938074946 l -28.672623516605523 45.788290829178564 a75.02487312694439,75.02487312694439 0 0,0 -1.0886401971857471,-0.694821681072162 l 29.45654551583819 -45.287954719282595" fill="#41ffd2" stroke="none" /><path d="M 87.36589467227662 116.77436683061367 l -8.09101991642909 10.74248888951121 a34.44863081615835,34.44863081615835 0 0,0 -0.4705867868518953,-0.3608258813080117 l 8.274735431774472 -10.601623666375831" fill="#ff900d" stroke="none" /><path d="M 83.50135304334701 112.99209946851258 l -19.627935232740228 15.456303027470572 a45.98305715435245,45.98305715435245 0 0,0 -0.48433994123879465,-0.6260746637322572 l 19.891081991197094 -15.116150369625062" fill="#d8ff1c" stroke="none" /><path d="M 83.28015986056508 112.70617746262583 l -8.29356169458036 6.302659942305849 a31.416654353973613,31.416654353973613 0 0,0 -0.32349988296102833,-0.433380958821618 l 8.400822844236474 -6.158966103974922" fill="#ff6509" stroke="none" /><path d="M 82.85270091963577 112.12312394758628 l -10.507305241170808 7.428654693479047 a33.86811462437617,33.86811462437617 0 0,0 -0.33245440118084624,-0.47892536052192036 l 10.63362054951379 -7.246688070770115" fill="#ff880c" stroke="none" /><line stroke="#e1ed5e" stroke-width="0.3" x1="26.63291911575756" x2="22.317208475507996" y1="142.92168965132927" y2="145.44649492493687" /><path d="M 25.769776987707644 143.4266507060508 a86.0,86.0 0 0,1 -11.730757126820373,-40.83630448921669" fill="none" id="id21" stroke="none" /><text fill="#e1ed5e" style="font-size:6.75px; font-family:Arial;" text-anchor="middle"><textPath startOffset="21.46611528233685" xlink:href="#id21">September</textPath></text><path d="M 80.87730276802145 108.67885076344099 l -22.91564616510506 10.400283537522093 a46.16530820048003,46.16530820048003 0 0,0 -0.32218749966230964,-0.7264477567226674 l 23.091274749498652 -10.00428744430673" fill="#d6ff1c" stroke="none" /><path d="M 80.58989483394504 108.01547362559985 l -23.417115912003208 9.670183307843743 a46.33522770459136,46.33522770459136 0 0,0 -0.29808419669899766,-0.7398205304998592 l 23.580102722959595 -9.26566340950108" fill="#d4ff1c" stroke="none" /><path d="M 79.67330655649465 105.27499134158121 l -24.239012307607474 6.2902793514585635 a46.041911507864825,46.041911507864825 0 0,0 -0.19247423326755586,-0.7688388850827165 l 24.34369785517009 -5.872112626978455" fill="#d7ff1c" stroke="none" /><path d="M 79.04373962182676 101.35467743843564 l -10.965050017634573 0.7088147218135835 a31.987936120995954,31.987936120995954 0 0,0 -0.0307901388848507,-0.5497786134344157 l 10.975626507406956 -0.5199643920437302" fill="#ff6d0a" stroke="none" /><line stroke="#e1ed5e" stroke-width="0.3" x1="15.007084014347285" x2="10.007500721073583" y1="101.09737516637583" y2="101.16192664675087" /><path d="M 14.007167355692545 101.11028546245083 a86.0,86.0 0 0,1 10.666146001902534,-42.60595125391555" fill="none" id="id22" stroke="none" /><text fill="#e1ed5e" style="font-size:6.75px; font-family:Arial;" text-anchor="middle"><textPath startOffset="22.20632615414155" xlink:href="#id22">October</textPath></text><path d="M 79.32604984820605 96.31383870115002 l -24.67052729632949 -4.3987502279075 a46.059607352200366,46.059607352200366 0 0,0 0.14588673523941062,-0.7793327731287074 l 24.591154837180216 4.82276107849878" fill="#d7ff1c" stroke="none" /><path d="M 79.54389044137918 95.25157060432595 l -24.622257190768373 -5.715507608983197 a46.27691785793295,46.27691785793295 0 0,0 0.18679832092272716,-0.7743996365982205 l 24.520226069584833 6.138492477240814" fill="#d4ff1c" stroke="none" /><path d="M 79.81627453868168 94.20196356495316 l -18.363557378130743 -5.27516958945601 a40.10622029019402,40.10622029019402 0 0,0 0.19631823499860715,-0.6618874933929015 l 18.27003324602043 5.590486469595452" fill="#ffdc14" stroke="none" /><path d="M 81.10775173730289 90.83032412892265 l -8.470544667545097 -4.111323754210629 a30.41557804793807,30.41557804793807 0 0,0 0.2326646696969159,-0.4690377767183913 l 8.398519984894769 4.2565211194279815" fill="#ff5708" stroke="none" /><line stroke="#e1ed5e" stroke-width="0.3" x1="26.266209847984243" x2="21.928928074336255" y1="57.711370442889674" y2="55.22380399835377" /><path d="M 25.398753493254645 57.213857153982495 a86.0,86.0 0 0,1 29.58750427330803,-30.492523968695096" fill="none" id="id23" stroke="none" /><text fill="#e1ed5e" style="font-size:6.75px; font-family:Arial;" text-anchor="middle"><textPath startOffset="21.46611528233685" xlink:href="#id23">November</textPath></text><line stroke="#e1ed5e" stroke-width="0.3" x1="56.762969772571076" x2="54.21961505331055" y1="26.818313649435495" y2="22.513508569990535" /><path d="M 56.25429882871897 25.957352633546506 a86.0,86.0 0 0,1 42.265352541879196,-11.944610805530505" fill="none" id="id24" stroke="none" /><text fill="#e1ed5e" style="font-size:6.75px; font-family:Arial;" text-anchor="middle"><textPath startOffset="22.20632615414155" xlink:href="#id24">December</textPath></text></svg>