<?xml version="1.0" encoding="utf-8" ?>
<svg baseProfile="full" height="200mm" version="1.1" viewBox="0,0,200,200" width="200mm" xmlns="http://www.w3.org/2000/svg" xmlns:ev="http://www.w3.org/2001/xml-events" xmlns:xlink="http://www.w3.org/1999/xlink"><defs /><rect fill="#1a1a1a" height="200" width="200" x="0" y="0" /><rect fill="#1a1a1a" height="200" width="180" x="10" y="0" /><text alignment-baseline="middle" fill="#e1ed5e" style="dominant-baseline: central; font-size:9.0px; font-family:Arial;" text-anchor="middle" x="100.0" y="100.0">2018</text><line stroke="#e1ed5e" stroke-width="0.3" x1="100.0" x2="100.0" y1="15.0" y2="10.0" /><path d="M 100.0 14.0 a86.0,86.0 0 0,1 42.46469731375804,11.215312516191453" fill="none" id="id61" stroke="none" /><text fill="#e1ed5e" style="font-size:6.75px; font-family:Arial;" text-anchor="middle"><textPath startOffset="22.20632615414155" xlink:href="#id61">January</textPath></text><path d="M 100.0 79.0 l 0.0 -12.039044469676071 a33.03904446967607,33.03904446967607 0 0,0 0.5687128395049945,0.00489509095867078 l -0.2072323602324661 12.03726075532596" fill="#ff9d0e" stroke="none" /><path d="M 101.08401301168833 79.027996857942 l 0.5115419787303102 -9.896615510655066 a30.909827130769827,30.909827130769827 0 0,0 0.5311161282185125,0.03203837526937311 l -0.6818201557884345 9.886343866005388" fill="#ff810b" stroke="none" /><path d="M 101.44485096284872 79.0497635885617 l 0.6302954856435619 -9.139239805924223 a30.160948456869107,30.160948456869107 0 0,0 0.5176334153329706,0.04017831548705471 l -0.7875190903388737 9.127036228248704" fill="#ff760a" stroke="none" /><path d="M 104.307194497241 79.44645832069477 l 1.72432439447293 -8.228319694674576 a29.407052968498768,29.407052968498768 0 0,0 0.49453879604894924,0.10808702618799361 l -1.8657059146754074 8.197419170390711" fill="#ff6c0a" stroke="none" /><path d="M 105.36241919743992 79.69619591428918 l 2.871165226992362 -10.87113374023226 a32.24389338968964,32.24389338968964 0 0,0 0.5354054135538292,0.14634652458092973 l -3.057868529769902 10.820100674825037" fill="#ff920d" stroke="none" /><path d="M 106.0581310904928 79.89281104454417 l 3.565453293987323 -11.83388771605863 a33.35934284935443,33.35934284935443 0 0,0 0.5483872908740598,0.17038660068711942 l -3.768625957572101 11.77076098048899" fill="#ffa10e" stroke="none" /><path d="M 106.74666289553966 80.11325718540242 l 3.490841775115439 -10.289749712271806 a31.86576851585238,31.86576851585238 0 0,0 0.5179219166102078,0.18069278704188732 l -3.6674456957889205 10.228136072057712" fill="#ff8d0d" stroke="none" /><path d="M 107.4271985657038 80.35727306442388 l 2.974095023135588 -7.865595069676509 a29.409091925217567,29.409091925217567 0 0,0 0.4719694800414606,0.1831168257702763 l -3.109047668176715 7.813235540015686" fill="#ff6c0a" stroke="none" /><path d="M 108.09893153111575 80.62456947434976 l 2.924642012068482 -6.996749867500632 a28.58340554151801,28.58340554151801 0 0,0 0.45232047233870215,0.19366002061324586 l -3.0446462421974996 6.945370318924595" fill="#ff6109" stroke="none" /><path d="M 108.76106565485865 80.91482961587045 l 3.110543834076789 -6.776031752226028 a28.455876155817535,28.455876155817535 0 0,0 0.4433991759401778,0.20818185843775971 l -3.2267212213165646 6.721484911148265" fill="#ff5f08" stroke="none" /><path d="M 109.41281617654863 81.2277094730956 l 7.645617939574434 -15.247908652140463 a38.05737939842936,38.05737939842936 0 0,0 0.5830744138714476,0.2986733615180576 l -7.906952841034637 15.114042765309904" fill="#ffdd14" stroke="none" /><path d="M 110.05341064243156 81.56283822128135 l 7.080297377249619 -12.984706666096704 a35.789632116954905,35.789632116954905 0 0,0 0.5383372688914229,0.2995841072926826 l -7.302758735213077 12.860907161243842" fill="#ffc011" stroke="none" /><line stroke="#e1ed5e" stroke-width="0.3" x1="143.23703022742887" x2="145.7803849466894" y1="26.81831364943548" y2="22.513508569990506" /><path d="M 143.74570117128098 25.957352633546492 a86.0,86.0 0 0,1 28.547481713284135,27.462654790039103" fill="none" id="id62" stroke="none" /><text fill="#e1ed5e" style="font-size:6.75px; font-family:Arial;" text-anchor="middle"><textPath startOffset="19.985693538727396" xlink:href="#id62">February</textPath></text><path d="M 110.68208982089419 81.91981866633111 l 4.99083655891369 -8.44733862987776 a30.81152279137212,30.81152279137212 0 0,0 0.4543055358956492,0.27371400211779245 l -5.135504161026978 8.360178018301355" fill="#ff7f0b" stroke="none" /><path d="M 113.89432698308785 84.25364557470407 l 9.934747374245529 -11.258987460930065 a36.01545883532897,36.01545883532897 0 0,0 0.4613220334948769,0.4141794765885958 l -10.127080395336396 11.086308975572171" fill="#ffc312" stroke="none" /><path d="M 114.16331599549186 84.49514656593476 l 4.9170713371776555 -5.3828122194018135 a28.29055950694016,28.29055950694016 0 0,0 0.3567198628795476,0.33153223581145014 l -5.00899908385205 5.297375397515723" fill="#ff5d08" stroke="none" /><path d="M 115.4437574822437 85.77008943001954 l 5.81818140586285 -5.3608845632639 a28.911404311003793,28.911404311003793 0 0,0 0.3340731483231444,0.36889191434555285 l -5.9095981948020295 5.259939861648799" fill="#ff6609" stroke="none" /><path d="M 116.15771136456269 86.58626213691792 l 12.404270746458778 -10.297723014202306 a37.12169445277651,37.12169445277651 0 0,0 0.4039220551970591,0.4951606793901832 l -12.579691293732246 10.082678165204022" fill="#ffd113" stroke="none" /><path d="M 116.38621287248628 86.86637796730983 l 14.038163914053612 -11.251650415802013 a38.990822192363936,38.990822192363936 0 0,0 0.4152446798861192,0.527318574697906 l -14.229762674533696 11.00833944715107" fill="#ffe815" stroke="none" /><path d="M 117.04232023915458 87.72973835380427 l 11.53491051086078 -8.304994158514669 a35.213623340532465,35.213623340532465 0 0,0 0.3499351810546934,0.4949584970201438 l -11.676158311719355 8.105209161162731" fill="#ffb911" stroke="none" /><path d="M 117.45458315368197 88.32363383020206 l 17.70564062689445 -11.844312832349706 a42.30205287007098,42.30205287007098 0 0,0 0.3996604581280491,0.6087102968569924 l -17.906897720380424 11.53778447151504" fill="#eeff19" stroke="none" /><path d="M 117.65298651832404 88.62581576622439 l 7.881831560068744 -5.078427050898817 a30.37623005544321,30.37623005544321 0 0,0 0.27942139889503864,0.441977549857862 l -7.968080555209738 4.942001853326749" fill="#ff790b" stroke="none" /><line stroke="#e1ed5e" stroke-width="0.3" x1="172.23445277983987" x2="176.4835382374775" y1="55.19839476539836" y2="52.563006222186495" /><path d="M 173.08426987136738 54.67131705675599 a86.0,86.0 0 0,1 12.851231095245387,41.99856678651699" fill="none" id="id63" stroke="none" /><text fill="#e1ed5e" style="font-size:6.75px; font-family:Arial;" text-anchor="middle"><textPath startOffset="22.20632615414155" xlink:href="#id63">March</textPath></text><path d="M 117.84615892207809 88.93136811851018 l 9.674740403192526 -6.000514762839783 a32.384497322597255,32.384497322597255 0 0,0 0.2897397822551478,0.47625602008128665 l -9.776595983733898 5.833090969551415" fill="#ff940d" stroke="none" /><path d="M 118.3937258080291 89.86733742301442 l 7.191822139660739 -3.961802400200349 a29.210857686426408,29.210857686426408 0 0,0 0.23882227045911747,0.44250139634387897 l -7.258952509338322 3.837420020524011" fill="#ff6a09" stroke="none" /><path d="M 119.04729006885535 91.15688171328212 l 14.36764181901771 -6.670489904205224 a36.8405986945472,36.8405986945472 0 0,0 0.262090480316595,0.5774816319679414 l -14.480334616297652 6.42218626339522" fill="#ffcd13" stroke="none" /><path d="M 119.34039704204932 91.81776055985345 l 3.322851940130726 -1.4057813880032008 a24.607986464343615,24.607986464343615 0 0,0 0.16168421245130568,0.3915311451275292 l -3.3465578394682294 1.3483756724223686" fill="#ff2a04" stroke="none" /><path d="M 119.97218684219823 93.5106431181261 l 6.9993258177019175 -2.274218818522846 a28.359526692449187,28.359526692449187 0 0,0 0.14685442908252527,0.4655686717832086 l -7.037435730552649 2.153399980313218" fill="#ff5e08" stroke="none" /><path d="M 120.28053869075195 94.5502522615342 l 28.806486166846252 -7.740824109001807 a50.82840933015383,50.82840933015383 0 0,0 0.2197812386845571,0.8469067670612851 l -28.935463737401115 7.243820916391671" fill="#8dff24" stroke="none" /><path d="M 120.37134235888165 94.90015583598534 l 7.3861724443569905 -1.8490842562634016 a28.61410900661001,28.61410900661001 0 0,0 0.1155018044534284,0.47882954703954084 l -7.416907049071239 1.7216694775644545" fill="#ff6209" stroke="none" /><path d="M 120.45610955862082 95.25157060432595 l 13.656437453292048 -3.170037237900289 a35.0195370824201,35.0195370824201 0 0,0 0.1312492444274643,0.5883646273777322 l -13.70898108472155 2.9344944409725926" fill="#ffb610" stroke="none" /><path d="M 120.53481517161879 95.60439243477599 l 6.861331778650154 -1.4687116305497792 a28.01676475524345,28.01676475524345 0 0,0 0.09688558012903233,0.47244849692260177 l -6.885596654694183 1.3503874774637656" fill="#ff5908" stroke="none" /><path d="M 120.67395015179393 96.31383870115 l 5.835157574220972 -1.0404074627662931 a26.927184121028144,26.927184121028144 0 0,0 0.0774325011224333,0.4570110048271683 l -5.852201936863628 0.939810669623287" fill="#ff4a06" stroke="none" /><path d="M 120.78858239683441 97.02765380044208 l 30.08071050702522 -4.300932302588038 a51.38662803403666,51.38662803403666 0 0,0 0.1176606986096781,0.876708870844812 l -30.150287204692734 3.7825050896785615" fill="#87ff25" stroke="none" /><path d="M 120.83666639777658 97.38593545837742 l 6.475951051980916 -0.8124406128646919 a27.526714470320016,27.526714470320016 0 0,0 0.05493499459152919,0.4706494854243946 l -6.488976399576034 0.7008473891154446" fill="#ff5307" stroke="none" /><path d="M 120.96714384426684 98.82574320788733 l 11.510686134620457 -0.644651530787827 a32.52872373187469,32.52872373187469 0 0,0 0.026497575801038526,0.5593219454908951 l -11.520077318654991 0.44641847867393214" fill="#ff960d" stroke="none" /><line stroke="#e1ed5e" stroke-width="0.3" x1="184.98032266829074" x2="189.97916517819016" y1="98.17113171792111" y2="98.06355123074" /><path d="M 185.9800911702706 98.14961562048488 a86.0,86.0 0 0,1 -9.607161424134198,41.387399972396054" fill="none" id="id64" stroke="none" /><text fill="#e1ed5e" style="font-size:6.75px; font-family:Arial;" text-anchor="middle"><textPath startOffset="21.466115282336823" xlink:href="#id64">April</textPath></text><path d="M 120.95626037817324 101.35467743843564 l 62.86878113451971 4.064032315306923 a84.0,84.0 0 0,0 -0.10569376534264929,1.4421074540129188 l -62.789510810512716 -5.145612905816612" fill="#4dd2ff" stroke="none" /><path d="M 120.92983693683757 101.71520430193887 l 44.833154993733885 3.674085973378995 a65.98344911666896,65.98344911666896 0 0,0 -0.10251126983154198,1.1312033204647243 l -44.76326912762527 -4.44527068239229" fill="#37ff75" stroke="none" /><path d="M 120.5718875245553 104.21870165774334 l 5.105891469844273 1.047071290000903 a26.212147924624997,26.212147924624997 0 0,0 -0.0944460652292307,0.44122057403686105 l -5.087111365890599 -1.134805683453933" fill="#ff4006" stroke="none" /><path d="M 120.41448212921028 104.9243191809786 l 29.322636009023615 7.0731169187721425 a51.16365305237927,51.16365305237927 0 0,0 -0.2138852313015178,0.8543651790571359 l -29.196539463427033 -7.576809937226674" fill="#89ff24" stroke="none" /><path d="M 120.23288151984713 105.62410040840565 l 6.826293221197829 1.8974933676933605 a28.085108342305833,28.085108342305833 0 0,0 -0.13348098125779795,0.46466480681800304 l -6.792619603053931 -2.0147156500159458" fill="#ff5a08" stroke="none" /><path d="M 120.13307415673323 105.97154293290107 l 6.801815821198129 2.017443281724889 a28.094700547625536,28.094700547625536 0 0,0 -0.1415079596379083,0.46245619969243323 l -6.766081089054089 -2.134226453969379" fill="#ff5a08" stroke="none" /><path d="M 120.02730092923936 106.31721596034902 l 13.036050432806457 4.111964270422906 a34.66919386971697,34.66919386971697 0 0,0 -0.18441988601273393,0.567586047109132 l -12.963338295777477 -4.335749217509832" fill="#ffb210" stroke="none" /><path d="M 119.79798401119884 107.00284435728193 l 29.266844691475978 10.35212262456709 a52.04375365559148,52.04375365559148 0 0,0 -0.3060067115564805,0.8419990455503534 l -29.08431371891427 -10.854369467123574" fill="#80ff26" stroke="none" /><path d="M 118.97047184881838 109.00673069616215 l 3.402989289377244 1.6156587108429863 a24.76705311530632,24.76705311530632 0 0,0 -0.1861618417857856,0.3835485333948689 l -3.3746741909767444 -1.6739962002031306" fill="#ff2c04" stroke="none" /><path d="M 118.81262510543309 109.33194174019688 l 6.75025853227451 3.3484438775245793 a28.535122205609984,28.535122205609984 0 0,0 -0.2220594108881979,0.43814428446418396 l -6.691620451600044 -3.4641423736914576" fill="#ff6008" stroke="none" /><path d="M 118.64920377521936 109.65438752849418 l 28.06107132822778 14.526757299280002 a52.59826580241504,52.59826580241504 0 0,0 -0.42315928947801923,0.8004579039504909 l -27.806859530524864 -15.007630218316626" fill="#7aff26" stroke="none" /><line stroke="#e1ed5e" stroke-width="0.3" x1="174.80103733775053" x2="179.2010983576182" y1="140.37084112569926" y2="142.7455964860345" /><path d="M 175.68104954172406 140.8457921977663 a86.0,86.0 0 0,1 -30.038265399797805,32.042727171017184" fill="none" id="id65" stroke="none" /><text fill="#e1ed5e" style="font-size:6.75px; font-family:Arial;" text-anchor="middle"><textPath startOffset="22.206326154141568" xlink:href="#id65">May</textPath></text><path d="M 118.12598468904814 110.60418214915192 l 6.662738945885252 3.8978791280290968 a28.719167828058993,28.719167828058993 0 0,0 -0.2533018626566063,0.4245484917083903 l -6.594656207530418 -4.011989713623591" fill="#ff6309" stroke="none" /><path d="M 117.75023020441432 111.22182372390056 l 4.164549955050425 2.6328585571431926 a25.927009286578688,25.927009286578688 0 0,0 -0.24173249169000757,0.37517419527748397 l -4.118612599983367 -2.7041543523421296" fill="#ff3c05" stroke="none" /><path d="M 117.55443506779139 111.5257021239791 l 2.9262829120093765 1.9213073530456626 a24.500650457555768,24.500650457555768 0 0,0 -0.23450260273267168,0.35054957335438647 l -2.892777203865984 -1.971393840605856" fill="#ff2803" stroke="none" /><path d="M 116.93607887273984 112.41649034213515 l 9.794608657981625 7.180804052735721 a33.14488804422644,33.14488804422644 0 0,0 -0.34129564791507205,0.457221294119909 l -9.66955174337146 -7.3483382263649455" fill="#ff9e0e" stroke="none" /><path d="M 116.27256486870786 113.27417163493432 l 3.0308098025204315 2.4723508454934953 a24.91130755148024,24.91130755148024 0 0,0 -0.2739105029294746,0.3299428460009976 l -2.9878032996974135 -2.5241549486082633" fill="#ff2e04" stroke="none" /><path d="M 116.0416608686014 113.55231037782055 l 1.9240545062154948 1.6254790614053198 a23.51876317305841,23.51876317305841 0 0,0 -0.2639225098743873,0.30700150405389515 l -1.8957894867703287 -1.658357664620743" fill="#ff1a02" stroke="none" /><path d="M 115.80600337817218 113.82643327865902 l 1.2607006942870163 1.10280844669377 a22.67497842095798,22.67497842095798 0 0,0 -0.25951097132819745,0.29156332734414836 l -1.2415308733104806 -1.1243459437787848" fill="#ff0e01" stroke="none" /><path d="M 115.56566222782051 114.09645910891815 l 4.123596574718972 3.7343808214795104 a26.563240856808918,26.563240856808918 0 0,0 -0.309845774435721,0.3362763928663127 l -4.058704392287529 -3.804808469147158" fill="#ff4506" stroke="none" /><path d="M 115.32070863581623 114.36230785411682 l 5.244342370100188 4.916277791203796 a28.188387455828444,28.188387455828444 0 0,0 -0.3348960951152655,0.35113721683141186 l -5.158939723605958 -5.005822124617715" fill="#ff5c08" stroke="none" /><path d="M 114.81725581225074 114.88116024355365 l 3.294063840996425 3.308270606344994 a25.668566267427977,25.668566267427977 0 0,0 -0.31578453893500474,0.3090616351830621 l -3.236629349685626 -3.364482344450628" fill="#ff3905" stroke="none" /><path d="M 114.29624159901734 115.38237550388516 l 1.923417969677086 2.069546548690601 a23.825342386910638,23.825342386910638 0 0,0 -0.30280926748441295,0.2766090863085762 l -1.8875091527258088 -2.10234840158576" fill="#ff1f03" stroke="none" /><path d="M 113.48314897796784 116.09983520530334 l 9.507683560776357 11.352847822329842 a35.808213949320034,35.808213949320034 0 0,0 -0.4759591503199,0.3916819775792993 l -9.310854281911766 -11.514824918766319" fill="#ffc011" stroke="none" /><path d="M 112.92097659922987 116.55440617244103 l 3.505271575094511 4.4909677649509305 a26.696992213527583,26.696992213527583 0 0,0 -0.36469524293780736,0.2796327608817651 l -3.42744760366321 -4.550639867660067" fill="#ff4706" stroke="none" /><path d="M 112.34349029814194 116.9893568818739 l 17.397346273792476 23.945392875424492 a50.59813334196383,50.59813334196383 0 0,0 -0.7090308525903878,0.5058746873865065 l -16.9825880933532 -24.24131182465522" fill="#8fff24" stroke="none" /><path d="M 111.45004920935366 117.60387380957326 l 2.9822907598476602 4.585121796413491 a26.469680069640162,26.469680069640162 0 0,0 -0.38408539101023953,0.2451414689140481 l -2.9029235667904905 -4.635777694151348" fill="#ff4406" stroke="none" /><path d="M 111.1453310114006 117.79835938074945 l 5.827140289703567 9.30555915585635 a31.979480641589042,31.979480641589042 0 0,0 -0.4690640577605477,0.28813745534415547 l -5.666097032010711 -9.404485078028884" fill="#ff8f0d" stroke="none" /><line stroke="#e1ed5e" stroke-width="0.3" x1="143.8653032363475" x2="146.44561519142675" y1="172.8068346515853" y2="177.08958963109032" /><path d="M 144.38136562736335 173.6633856474863 a86.0,86.0 0 0,1 -40.68145358897372,12.25698825130547" fill="none" id="id66" stroke="none" /><text fill="#e1ed5e" style="font-size:6.75px; font-family:Arial;" text-anchor="middle"><textPath startOffset="21.466115282336833" xlink:href="#id66">June</textPath></text><path d="M 110.21172684928248 118.3499491758327 l 14.40622618862653 25.887249265330787 a50.6258169089603,50.6258169089603 0 0,0 -0.7651180674961162,0.4172033751616124 l -13.958485309261764 -26.13139329225217" fill="#8fff24" stroke="none" /><path d="M 109.2508944713604 118.85261126421891 l 2.2008091357533885 4.4850797111080585 a25.995948445191235,25.995948445191235 0 0,0 -0.4034166800765176,0.1936645220280038 l -2.1232797876766383 -4.522298509635622" fill="#ff3d05" stroke="none" /><path d="M 108.59647513512805 119.15986991738527 l 3.819041431475999 8.51190003879364 a30.329390104703812,30.329390104703812 0 0,0 -0.4781635244717684,0.20961283719775894 l -3.6719572323464766 -8.576377429285852" fill="#ff790b" stroke="none" /><path d="M 108.2653958097858 119.30500536409082 l 4.657344578264837 10.877889472561387 a32.83297671331921,32.83297671331921 0 0,0 -0.5214635620736763,0.21797181123874382 l -4.4694095566937 -10.956446326820105" fill="#ff9a0e" stroke="none" /><path d="M 107.59598834532513 119.57807347666477 l 4.664036825642087 12.021194809558741 a33.894276410885084,33.894276410885084 0 0,0 -0.5457459143001333,0.20635440716672382 l -4.456420690581679 -12.099697466832096" fill="#ffa80f" stroke="none" /><path d="M 107.2578585660854 119.70592522655815 l 1.2901660706959952 3.502950062678095 a24.732986422636923,24.732986422636923 0 0,0 -0.40076911842065216,0.143701547183391 l -1.2296773916456083 -3.524639150901446" fill="#ff2c04" stroke="none" /><path d="M 106.91757812671514 119.82793768551818 l 3.0966279618698622 8.875902105979527 a30.400571415034626,30.400571415034626 0 0,0 -0.4955731300652242,0.16812531241582965 l -2.9433850988674113 -8.92789040529348" fill="#ff7a0b" stroke="none" /><path d="M 105.53697534728816 120.25689768951611 l 2.997865675935934 10.967623020768684 a32.36995837004912,32.36995837004912 0 0,0 -0.5387433245774348,0.1422870085827806 l -2.8086319085470017 -11.01760137865505" fill="#ff940d" stroke="none" /><path d="M 103.7750983002368 120.6578951692458 l 0.9330892865254781 5.106002316119962 a26.19056020761257,26.19056020761257 0 0,0 -0.4441807121744961,0.0772265103517401 l -0.845059602878932 -5.1213074049927085" fill="#ff4006" stroke="none" /><path d="M 101.62511606390274 120.93702456842531 l 0.3142696840432911 4.048862873291658 a25.061041245915664,25.061041245915664 0 0,0 -0.43037832033011336,0.029681408758646766 l -0.24452860293424736 -4.05367262656659" fill="#ff3004" stroke="none" /><path d="M 101.26447882468166 120.96189622390904 l 0.12836874106576476 2.128032653525726 a23.131900914244035,23.131900914244035 0 0,0 -0.3976615347771065,0.020554559096066304 l -0.09171913787517867 -2.1299270193839943" fill="#ff1502" stroke="none" /><path d="M 100.90346689309514 120.98055641714683 l 1.2736017627109635 29.575930053168086 a50.603339337984686,50.603339337984686 0 0,0 -0.8705693638150163,0.029984169128348635 l -0.764312047221295 -29.59347102072253" fill="#8fff24" stroke="none" /><line stroke="#e1ed5e" stroke-width="0.3" x1="102.19456741930631" x2="102.32365962044197" y1="184.97166512339345" y2="189.96999836594603" /><path d="M 102.22038585953345 185.97133177190398 a86.0,86.0 0 0,1 -42.740103519485714,-10.115201625700543" fill="none" id="id67" stroke="none" /><text fill="#e1ed5e" style="font-size:6.75px; font-family:Arial;" text-anchor="middle"><textPath startOffset="22.20632615414155" xlink:href="#id67">July</textPath></text><path d="M 99.45781275523022 120.99299961872073 l -0.33094536711782024 12.813905219536856 a33.818178178325134,33.818178178325134 0 0,0 -0.581800929489027,-0.02003840037786553 l 0.5514666482814902 -12.806310020732898" fill="#ffa70f" stroke="none" /><path d="M 98.37488393609728 120.93702456842531 l -1.688099375765919 21.748463934001343 a42.813880053558066,42.813880053558066 0 0,0 -0.7342696276581431,-0.06335587311980644 l 2.0622133211656037 -21.71618380860287" fill="#e8ff1a" stroke="none" /><path d="M 96.58105272829116 120.7198165907248 l -1.9207707625871946 11.640430445638778 a32.797837991859524,32.797837991859524 0 0,0 -0.5562373206806593,-0.09670898809017571 l 2.1208570547399037 -11.605642879027595" fill="#ff9a0e" stroke="none" /><path d="M 95.86986931433489 120.58985236759428 l -0.7782604927520756 3.8798454259361828 a24.95713152722229,24.95713152722229 0 0,0 -0.42047839202671883,-0.08811533528402934 l 0.8449303462081812 -3.8658741099256124" fill="#ff2f04" stroke="none" /><path d="M 95.16358092515715 120.4354850818985 l -1.2639310387819218 5.340530563600033 a26.488058707005823,26.488058707005823 0 0,0 -0.4427879048868284,-0.1088264940449793 l 1.3556722284119607 -5.3179828112410235" fill="#ff4406" stroke="none" /><path d="M 94.46302465271185 120.25689768951611 l -1.891985869685841 6.921787038659489 a28.175705285172,28.175705285172 0 0,0 -0.4667356993038781,-0.13190417072016478 l 2.010852737094333 -6.888194074600802" fill="#ff5c08" stroke="none" /><path d="M 93.08242187328487 119.8279376855182 l -2.3169212066095515 6.641019221668656 a28.03358089313044,28.03358089313044 0 0,0 -0.45425139159221556,-0.16287838753457626 l 2.4308921588314933 -6.600153293094122" fill="#ff5a08" stroke="none" /><path d="M 92.40401165467489 119.57807347666478 l -2.572989648398992 6.631682159182839 a28.1133314270595,28.1133314270595 0 0,0 -0.4496512146952075,-0.17892549807069533 l 2.6867619391360575 -6.586409816706078" fill="#ff5b08" stroke="none" /><path d="M 91.7346041902142 119.30500536409082 l -3.1489666049545884 7.354858569267554 a29.000620929218407,29.000620929218407 0 0,0 -0.4572145719881981,-0.20042943206192246 l 3.27510185160053 -7.299564583911179" fill="#ff6709" stroke="none" /><path d="M 90.7491055286396 118.85261126421891 l -3.2142643621593088 6.550423497730254 a28.29654324933828,28.29654324933828 0 0,0 -0.4354246370052109,-0.2183309522615997 l 3.3265429068472803 -6.494124704559352" fill="#ff5d08" stroke="none" /><path d="M 90.10565033884886 118.52300852407294 l -3.3128160739981927 6.2018548443147665 a28.031198606929784,28.031198606929784 0 0,0 -0.42364109494376456,-0.2310029029194204 l 3.4190799808105976 -6.1439112896355805" fill="#ff5a08" stroke="none" /><line stroke="#e1ed5e" stroke-width="0.3" x1="58.666819895761336" x2="56.23545636021788" y1="174.27360380694188" y2="178.64263932499728" /><path d="M 58.180547188652646 175.14741091055294 a86.0,86.0 0 0,1 -31.652253787137756,-30.449443065178592" fill="none" id="id68" stroke="none" /><text fill="#e1ed5e" style="font-size:6.75px; font-family:Arial;" text-anchor="middle"><textPath startOffset="22.20632615414155" xlink:href="#id68">August</textPath></text><path d="M 89.1626897886671 117.98757091392108 l -1.8279059749047795 3.033925181286827 a24.54202516348189,24.54202516348189 0 0,0 -0.3599740107684335,-0.22112543849137772 l 1.8798591856055216 -3.002011275967071" fill="#ff2904" stroke="none" /><path d="M 88.54995079064634 117.60387380957326 l -1.9514000554849047 3.0001792743989104 a24.578971619764435,24.578971619764435 0 0,0 -0.35267933466606893,-0.23373663200034667 l 2.0027540888909354 -2.966144621307245" fill="#ff2904" stroke="none" /><path d="M 88.24862548938628 117.40417183066458 l -3.9794185918113247 5.893649708421093 a28.11132049723718,28.11132049723718 0 0,0 -0.3987030130600725,-0.27423156795088866 l 4.080278489494288 -5.824277351105104" fill="#ff5b08" stroke="none" /><path d="M 87.95078237400918 117.19931262002967 l -2.030253415599002 2.8980274302165614 a24.538430714008545,24.538430714008545 0 0,0 -0.34385664650505904,-0.2453325873211498 l 2.079837389952948 -2.8626505810511924" fill="#ff2904" stroke="none" /><path d="M 87.07902340077011 116.55440617244103 l -3.0309136909150385 3.8832185731232176 a25.926035351926064,25.926035351926064 0 0,0 -0.34943666904321735,-0.27761362356915376 l 3.097307852675614 -3.830471035548933" fill="#ff3c05" stroke="none" /><path d="M 86.79598089348748 116.32954008644616 l -27.395775275265223 33.88062429689046 a64.5709215610581,64.5709215610581 0 0,0 -0.8582701445280538,-0.7062978982126266 l 27.974915548337965 -33.40403127982065" fill="#35ff65" stroke="none" /><path d="M 86.24171649860922 115.8653595955263 l -2.30121298438191 2.653642912607711 a24.51246379442138,24.51246379442138 0 0,0 -0.31639479812277693,-0.2791816227509631 l 2.3465501354112748 -2.613638148084459" fill="#ff2803" stroke="none" /><path d="M 85.97065885151581 115.62618273729859 l -1.752744913422536 1.952245085434419 a23.623618799507927,23.623618799507927 0 0,0 -0.3002454524196166,-0.2742671020343515 l 1.7860899153090073 -1.9217852168134917" fill="#ff1c02" stroke="none" /><path d="M 84.9287848128048 114.62390073753433 l -2.680330287063475 2.600777944908225 a24.7347310969427,24.7347310969427 0 0,0 -0.2938644458138274,-0.30811569658122573 l 2.7247012842562595 -2.554255131744499" fill="#ff2c04" stroke="none" /><path d="M 84.67929136418377 114.36230785411682 l -2.96955691192548 2.7837935942263936 a25.070353182270587,25.070353182270587 0 0,0 -0.2924320507053756,-0.3173772350092269 l 3.0170353706265844 -2.7322651044158226" fill="#ff3004" stroke="none" /><path d="M 84.19399662182784 113.82643327865904 l -3.2685991081954815 2.859234330327939 a25.342690535350425,25.342690535350425 0 0,0 -0.28439023106119327,-0.33081008783818516 l 3.3173318488274535 -2.8025471433282236" fill="#ff3405" stroke="none" /><path d="M 83.95833913139862 113.55231037782056 l -4.310242200486052 3.6413773226500172 a26.642500920049606,26.642500920049606 0 0,0 -0.2929457159656948,-0.3528719863451457 l 4.372283916345284 -3.5666440791911103" fill="#ff4606" stroke="none" /><path d="M 83.72743513129214 113.27417163493432 l -4.018813772614856 3.2783045707264455 a26.186342159692586,26.186342159692586 0 0,0 -0.2819172814813868,-0.35173515541168776 l 4.074648966151104 -3.208641581736498" fill="#ff4006" stroke="none" /><path d="M 83.06392112726016 112.41649034213515 l -12.17156510691613 8.9234421812919 a36.09221049133485,36.09221049133485 0 0,0 -0.3630192473144298,-0.5042019839591195 l 12.323364146606167 -8.712606591881643" fill="#ffc412" stroke="none" /><path d="M 82.44556493220864 111.52570212397912 l -7.029637768527726 4.615443940328275 a29.409407227802948,29.409407227802948 0 0,0 -0.27420090029370375,-0.42556588645920734 l 7.108043532198476 -4.493756453947619" fill="#ff6c0a" stroke="none" /><path d="M 82.24976979558568 111.22182372390057 l -34.94657727250967 22.093478528985255 a62.34471014016451,62.34471014016451 0 0,0 -0.5656605624453852,-0.9120249369060833 l 35.32170247462301 -21.488657260713907" fill="#32ff4b" stroke="none" /><line stroke="#e1ed5e" stroke-width="0.3" x1="26.63291911575756" x2="22.317208475507996" y1="142.92168965132927" y2="145.44649492493687" /><path d="M 25.769776987707644 143.4266507060508 a86.0,86.0 0 0,1 -11.730757126820373,-40.83630448921669" fill="none" id="id69" stroke="none" /><text fill="#e1ed5e" style="font-size:6.75px; font-family:Arial;" text-anchor="middle"><textPath startOffset="21.46611528233685" xlink:href="#id69">September</textPath></text><path d="M 81.35079622478065 109.6543875284942 l -11.509224039083515 5.958136892322447 a33.96000128122955,33.96000128122955 0 0,0 -0.2642756468304105,-0.5214409230335186 l 11.610078355700193 -5.759141757586243" fill="#ffa90f" stroke="none" /><path d="M 81.18737489456691 109.33194174019688 l -6.553364771793294 3.250775365473684 a28.315335283426997,28.315335283426997 0 0,0 -0.21283254582625216,-0.43849808331982393 l 6.608350574234265 -3.1374883261885755" fill="#ff5d08" stroke="none" /><path d="M 80.87730276802145 108.67885076344099 l -7.907972022732816 3.589039150397282 a29.684309041910552,29.684309041910552 0 0,0 -0.20716667303256528,-0.467106157284012 l 7.968579780496661 -3.452384656620574" fill="#ff700a" stroke="none" /><path d="M 80.58989483394504 108.01547362559985 l -27.6647141105514 11.42424445492862 a50.93074954264442,50.93074954264442 0 0,0 -0.32764814843442874,-0.8131958341851632 l 27.857264873243217 -10.946349252900653" fill="#8cff24" stroke="none" /><path d="M 80.45479744820244 107.68017299344265 l -2.6101215300088536 1.0256319846904618 a23.804399288517214,23.804399288517214 0 0,0 -0.1465735713735942,-0.3826573431189027 l 2.627389380975957 -0.9805510747384012" fill="#ff1e03" stroke="none" /><path d="M 80.32549172779594 107.34259656027581 l -3.769731733860835 1.4068773094224984 a25.02370241308242,25.02370241308242 0 0,0 -0.1471342927543191,-0.4048503819956236 l 3.793390287620378 -1.3417791304207578" fill="#ff3004" stroke="none" /><path d="M 80.20201598880116 107.00284435728193 l -3.9225905332144135 1.3874791981804773 a25.16074693013729,25.16074693013729 0 0,0 -0.14091116853815058,-0.40955381482776676 l 3.9458925326957925 -1.3197526802634136" fill="#ff3204" stroke="none" /><path d="M 80.0844068197444 106.66101706037122 l -16.343436850679506 5.466265086967335 a38.233339261244375,38.233339261244375 0 0,0 -0.20337906023836508,-0.625936385501793 l 16.43510816193412 -5.184129801487738" fill="#ffdf14" stroke="none" /><path d="M 79.86692584326677 105.97154293290107 l -4.539250588989431 1.3463582145641453 a25.73470974311681,25.73470974311681 0 0,0 -0.1223101676172369,-0.42577773906214167 l 4.561753393492771 -1.2680229999974078" fill="#ff3a05" stroke="none" /><path d="M 79.76711848015287 105.62410040840567 l -30.524022141541813 8.484711642483152 a52.68132351012855,52.68132351012855 0 0,0 -0.23533982377840185,-0.8757870328427867 l 30.665550041661987 -7.958033676464827" fill="#79ff26" stroke="none" /><path d="M 79.29508885075956 103.50808413554451 l -2.8331008915011946 0.48001926790383515 a23.873478581612154,23.873478581612154 0 0,0 -0.06516123379006235,-0.4057590650119797 l 2.840943879652548 -0.4311809731986417" fill="#ff1f03" stroke="none" /><path d="M 79.04373962182676 101.35467743843564 l -29.60979068496798 1.914068382138726 a50.671591837633514,50.671591837633514 0 0,0 -0.04877417987505429,-0.8708957463099197 l 29.638351215730566 -1.404100919493369" fill="#8fff24" stroke="none" /><line stroke="#e1ed5e" stroke-width="0.3" x1="15.007084014347285" x2="10.007500721073583" y1="101.09737516637583" y2="101.16192664675087" /><path d="M 14.007167355692545 101.11028546245083 a86.0,86.0 0 0,1 10.666146001902534,-42.60595125391555" fill="none" id="id70" stroke="none" /><text fill="#e1ed5e" style="font-size:6.75px; font-family:Arial;" text-anchor="middle"><textPath startOffset="22.20632615414155" xlink:href="#id70">October</textPath></text><path d="M 79.00175016825051 100.2711162175752 l -3.6412521874513373 0.047013561997276014 a24.641555679600522,24.641555679600522 0 0,0 -0.0018254730934103309,-0.42417565811866564 l 3.6415219578342506 0.01567157432506504" fill="#ff2a04" stroke="none" /><path d="M 79.01574976396665 99.18683210126434 l -2.544992029116179 -0.0986218615074326 a23.546902177122647,23.546902177122647 0 0,0 0.019181073025206663,-0.40488213569492737 l 2.5429173478574736 0.14241510382536904" fill="#ff1b02" stroke="none" /><path d="M 79.03285615573316 98.82574320788736 l -4.092282649250866 -0.22918670906345306 a25.098695381334288,25.098695381334288 0 0,0 0.027870797278713343,-0.4311488979948163 l 4.08773126096774 0.29959467131128115" fill="#ff3104" stroke="none" /><path d="M 79.05617556472873 98.46500227214037 l -5.276631398898398 -0.3867305722073071 a26.290784389419045,26.290784389419045 0 0,0 0.03696423713751931,-0.4510573200570799 l 5.269192677941382 0.47750180947216536" fill="#ff4106" stroke="none" /><path d="M 79.26566170972629 96.67025291283419 l -11.507688122416607 -1.8480305698303268 a32.65513204171603,32.65513204171603 0 0,0 0.09390393503859762,-0.5542263401947983 l 11.474172325857786 2.045842698340953" fill="#ff980e" stroke="none" /><path d="M 79.3925641242962 95.95851677861259 l -5.485234559704701 -1.0757516642115377 a26.58972627398093,26.58972627398093 0 0,0 0.09195069730686015,-0.4483842556937254 l 5.4659045664828465 1.1700115760686656" fill="#ff4606" stroke="none" /><path d="M 79.46518482838121 95.60439243477599 l -29.826851564336927 -6.384626951218745 a51.50253326442276,51.50253326442276 0 0,0 0.19302564054877827,-0.8652960980556073 l 29.71253153678611 6.897101218824311" fill="#86ff25" stroke="none" /><path d="M 79.62865764111835 94.90015583598534 l -2.1312172187898892 -0.5335375305179367 a23.196986374590814,23.196986374590814 0 0,0 0.10030340249368316,-0.38650992614112517 l 2.121717484425899 0.5701438822079258" fill="#ff1602" stroke="none" /><path d="M 79.71946130924805 94.55025226153421 l -0.6766673314408054 -0.18183275678445396 a21.70067241195801,21.70067241195801 0 0,0 0.10004343700395886,-0.3599094718711127 l 0.6734371238704857 0.19345353207450924" fill="#ff0000" stroke="none" /><path d="M 80.14247586403 93.16781622104843 l -27.969104576649855 -9.623055789429758 a50.57826927908483,50.57826927908483 0 0,0 0.2903359304555015,-0.8208187724545776 l 27.799315565384543 10.103072188310946" fill="#90ff24" stroke="none" /><path d="M 80.52162464483688 92.15188598940014 l -6.7839006106546895 -2.733329882919801 a28.313849857913645,28.313849857913645 0 0,0 0.18603320195963516,-0.45049415456646896 l 6.735845721808855 2.8496986079395814" fill="#ff5d08" stroke="none" /><path d="M 80.95270993114464 91.15688171328213 l -3.5628370238710945 -1.6541245040367747 a24.928095662470753,24.928095662470753 0 0,0 0.18404271312357454,-0.38764089058181794 l 3.5338361169057686 1.7152078102591248" fill="#ff2e04" stroke="none" /><path d="M 81.10775173730289 90.83032412892265 l -27.546483805422785 -13.370157133831102 a51.619762765667446,51.619762765667446 0 0,0 0.3948665724773678,-0.796026915029511 l 27.312257219992006 13.842343637359575" fill="#84ff25" stroke="none" /><line stroke="#e1ed5e" stroke-width="0.3" x1="26.266209847984243" x2="21.928928074336255" y1="57.711370442889674" y2="55.22380399835377" /><path d="M 25.398753493254645 57.213857153982495 a86.0,86.0 0 0,1 29.58750427330803,-30.492523968695096" fill="none" id="id71" stroke="none" /><text fill="#e1ed5e" style="font-size:6.75px; font-family:Arial;" text-anchor="middle"><textPath startOffset="21.46611528233685" xlink:href="#id71">November</textPath></text><path d="M 82.34701348167596 88.62581576622439 l -26.179494197038025 -16.867989438222253 a52.14313703050361,52.14313703050361 0 0,0 0.4926368490402352,-0.7503197189597802 l 25.88526071263987 17.3161272211597" fill="#7fff26" stroke="none" /><path d="M 82.95767976084542 87.72973835380427 l -5.917858889946899 -4.260785852274071 a28.292143026591184,28.292143026591184 0 0,0 0.28795660651877264,-0.392772487679466 l 5.843639670914493 4.362020783625038" fill="#ff5d08" stroke="none" /><path d="M 83.84228863543731 86.58626213691792 l -11.381809784095152 -9.448900862665415 a35.79281316970519,35.79281316970519 0 0,0 0.397623020282405,-0.4706602392576764 l 11.217476150325622 9.643420051552209" fill="#ffc011" stroke="none" /><path d="M 84.80347519578584 85.50635884689758 l -2.6375883446323933 -2.515592181056173 a24.644869860109083,24.644869860109083 0 0,0 0.2954283076273993,-0.30446483989142437 l 2.5938957733018757 2.560621216497721" fill="#ff2a04" stroke="none" /><path d="M 85.05521093208273 85.24692304244772 l -3.3912979764778766 -3.3477943252056885 a25.765357154415852,25.765357154415852 0 0,0 0.31429343327925374,-0.3129437573946285 l 3.33316874303131 3.4056739332504264" fill="#ff3a05" stroke="none" /><path d="M 85.31137513191541 84.99185889309783 l -10.174356049778066 -10.395675064090943 a35.54605035966182,35.54605035966182 0 0,0 0.4409686543851619,-0.4242114961395142 l 9.993904151780477 10.56926964699277" fill="#ffbd11" stroke="none" /><path d="M 85.57189188830299 84.74124197986013 l -9.596985928619805 -10.149500189063458 a34.96833894927832,34.96833894927832 0 0,0 0.44092097478848397,-0.40978799276212735 l 9.420857070036465 10.313192767900233" fill="#ffb610" stroke="none" /><path d="M 86.65592168130627 83.78471172551755 l -4.681382960656403 -5.6886637216413325 a28.367241095704845,28.367241095704845 0 0,0 0.37971119352876515,-0.30703337802342806 l 4.582768368563137 5.768403196928895" fill="#ff5e08" stroke="none" /><path d="M 87.22198572758235 83.33499621200491 l -13.831882898999757 -18.039452452679278 a43.731978121670764,43.731978121670764 0 0,0 0.6013227088755416,-0.45290379759792 l 13.519314036365826 18.27487283978305" fill="#ddff1b" stroke="none" /><path d="M 89.00827224532344 82.1063720568725 l -15.954774745660712 -25.97305988531193 a51.48203859637299,51.48203859637299 0 0,0 0.7590853360897223,-0.45734042153026705 l 15.505327343353342 26.243846916300814" fill="#86ff25" stroke="none" /><line stroke="#e1ed5e" stroke-width="0.3" x1="56.762969772571076" x2="54.21961505331055" y1="26.818313649435495" y2="22.513508569990535" /><path d="M 56.25429882871897 25.957352633546506 a86.0,86.0 0 0,1 42.265352541879196,-11.944610805530505" fill="none" id="id72" stroke="none" /><text fill="#e1ed5e" style="font-size:6.75px; font-family:Arial;" text-anchor="middle"><textPath startOffset="22.20632615414155" xlink:href="#id72">December</textPath></text><path d="M 89.63071344664047 81.73862282372117 l -14.606922128543285 -25.724288069504755 a50.58210896390236,50.58210896390236 0 0,0 0.7608414164585574,-0.42340742451366664 l 14.161956623012681 25.971910891578606" fill="#90ff24" stroke="none" /><path d="M 91.56875222667455 80.76684994638697 l -5.4842729039853815 -12.510585210297004 a34.65986791991381,34.65986791991381 0 0,0 0.5484779553633334,-0.23482963659013434 l 5.26811119083174 12.603134374849924" fill="#ffb210" stroke="none" /><path d="M 91.90106846888425 80.62456947434976 l -2.332538629731915 -5.5802348735920155 a27.0481201793321,27.0481201793321 0 0,0 0.4311162914921181,-0.17586315998505303 l 2.2361384686514163 5.619558919760646" fill="#ff4c07" stroke="none" /><path d="M 93.94186890950719 79.89281104454417 l -1.0758782188013905 -3.5708845377162417 a24.729441020232414,24.729441020232414 0 0,0 0.40863609258344497,-0.11929208096457242 l 1.0142519084945243 3.588874947599513" fill="#ff2b04" stroke="none" /><path d="M 94.28887869178378 79.79150937346287 l -2.098583706440382 -7.4257237540362775 a28.716568333410628,28.716568333410628 0 0,0 0.47683466629102356,-0.1303369268312103 l 1.9704511509256357 7.460747221693784" fill="#ff6309" stroke="none" /><path d="M 94.98787191387505 79.60689891045804 l -1.5399572445091483 -6.265702556122714 a27.452169932411802,27.452169932411802 0 0,0 0.4598582439858003,-0.10883358892746439 l 1.431875313560814 6.29128205719105" fill="#ff5207" stroke="none" /><path d="M 96.40284397218896 79.31037775812273 l -2.7806213732539833 -15.993191667397172 a37.23311537972607,37.23311537972607 0 0,0 0.6323792771623507,-0.10434799916652039 l 2.5049128899527466 16.03868592950332" fill="#ffd213" stroke="none" /><path d="M 96.75951476605007 79.25152402106235 l -2.449727394663755 -15.685339180259309 a36.875485173938586,36.875485173938586 0 0,0 0.6279913028544715,-0.09254959370985594 l 2.179367111380635 15.725183258130134" fill="#ffce13" stroke="none" /><path d="M 98.55514903715128 79.0497635885617 l -0.6653306222713549 -9.64724680037032 a30.67016213225959,30.67016213225959 0 0,0 0.5269980221695777,-0.03178995986643912 l 0.49917055126215415 9.657270029617065" fill="#ff7d0b" stroke="none" /><path d="M 99.63851952072746 79.00311137660856 l -0.2556440640030727 -14.84929407503809 a35.851494484206675,35.851494484206675 0 0,0 0.6171245432756047,-0.005311785777144665 l 3.637567036527655e-15 14.851494484206675" fill="#ffc111" stroke="none" /></svg>