<?xml version="1.0" encoding="utf-8" ?>
<svg baseProfile="full" height="200mm" version="1.1" viewBox="0,0,200,200" width="200mm" xmlns="http://www.w3.org/2000/svg" xmlns:ev="http://www.w3.org/2001/xml-events" xmlns:xlink="http://www.w3.org/1999/xlink"><defs /><rect fill="#1a1a1a" height="200" width="200" x="0" y="0" /><text alignment-baseline="middle" fill="#e1ed5e" style="dominant-baseline: central; font-size:9.0px; font-family:Arial;" text-anchor="middle" x="100.0" y="100.0">2018</text><line stroke="#e1ed5e" stroke-width="0.3" x1="100.0" x2="100.0" y1="15.0" y2="10.0" /><path d="M 100.0 14.0 a86.0,86.0 0 0,1 42.46469731375804,11.215312516191453" fill="none" id="id61" stroke="none" /><text fill="#e1ed5e" style="font-size:6.75px; font-family:Arial;" text-anchor="middle"><textPath startOffset="22.20632615414155" xlink:href="#id61">January</textPath></text><path d="M 100.0 79.0 l 0.0 -9.317367251973906 a30.317367251973906,30.317367251973906 0 0,0 0.5218636402154659,0.004491845109565728 l -0.16038316094293753 9.3159867834729" fill="#ff7a0b" stroke="none" /><path d="M 101.08401301168833 79.027996857942 l 0.39546560834257105 -7.650928440258289 a28.661142150184585,28.661142150184585 0 0,0 0.4924775148280593,0.029707588592184767 l -0.5271051720102423 7.6429875822858" fill="#ff6409" stroke="none" /><path d="M 101.44485096284872 79.0497635885617 l 0.48463803107029146 -7.027217052808016 a28.04390896650684,28.04390896650684 0 0,0 0.4812999961980225,0.03735814288326656 l -0.6055282166306551 7.0178336477362855" fill="#ff5c08" stroke="none" /><path d="M 101.80526077348638 79.07773832637324 l 0.6076070478848765 -7.041926483583006 a28.068091321200306,28.068091321200306 0 0,0 0.48100003795411334,0.045676749400012984 l -0.728732212929234 7.030424189667815" fill="#ff5c08" stroke="none" /><path d="M 104.307194497241 79.44645832069477 l 2.4899671110892205 -11.881897330304826 a33.139992602230485,33.139992602230485 0 0,0 0.5573156909036169,0.12180762390928093 l -2.6941255261463657 11.837276208299674" fill="#ffa00e" stroke="none" /><path d="M 105.36241919743992 79.69619591428918 l 2.2059858197954805 -8.35255548882989 a29.638955760456298,29.638955760456298 0 0,0 0.49215078261315076,0.1345233999916924 l -2.3494344916323424 8.313345548011903" fill="#ff710a" stroke="none" /><path d="M 106.0581310904928 79.89281104454417 l 5.49381677862451 -18.23420629306175 a40.04385207711478,40.04385207711478 0 0,0 0.6582725461918243,0.2045284844083633 l -5.806874697527053 18.136937673770866" fill="#fff717" stroke="none" /><path d="M 106.74666289553966 80.11325718540242 l 2.674271118807499 -7.88279224553977 a29.324069894182163,29.324069894182163 0 0,0 0.47661108423765464,0.1662802487865604 l -2.8095642071084272 7.835591143581002" fill="#ff6d0a" stroke="none" /><path d="M 107.4271985657038 80.35727306442388 l 2.2867900822105356 -6.047878314613053 a27.46577458534268,27.46577458534268 0 0,0 0.4407823057897511,0.17101668668243555 l -2.390555552999954 6.007618924040071" fill="#ff5407" stroke="none" /><path d="M 108.09893153111575 80.62456947434976 l 2.249597763517459 -5.381811787176072 a26.833059935420692,26.833059935420692 0 0,0 0.4246219830822024,0.18180097303878007 l -2.3419035043899767 5.3422912861745" fill="#ff4b07" stroke="none" /><path d="M 108.76106565485865 80.91482961587045 l 2.38485581997623 -5.195187601474913 a26.716424712754744,26.716424712754744 0 0,0 0.41629506105653485,0.19545611307338714 l -2.4739290923323627 5.153366505761523" fill="#ff4906" stroke="none" /><path d="M 109.41281617654863 81.2277094730956 l 5.884384304306557 -11.735422179773435 a34.12806582777096,34.12806582777096 0 0,0 0.5228736789983753,0.2678362069068418 l -6.085518470893687 11.632393447554092" fill="#ffac10" stroke="none" /><path d="M 110.05341064243156 81.56283822128135 l 10.937230980091497 -20.058018533538018 a43.846162237969594,43.846162237969594 0 0,0 0.6595212589339992,0.36702286654825417 l -11.280876328097532 19.866780269429583" fill="#daff1b" stroke="none" /><line stroke="#e1ed5e" stroke-width="0.3" x1="143.23703022742887" x2="145.7803849466894" y1="26.81831364943548" y2="22.513508569990506" /><path d="M 143.74570117128098 25.957352633546492 a86.0,86.0 0 0,1 28.547481713284135,27.462654790039103" fill="none" id="id62" stroke="none" /><text fill="#e1ed5e" style="font-size:6.75px; font-family:Arial;" text-anchor="middle"><textPath startOffset="19.985693538727396" xlink:href="#id62">February</textPath></text><path d="M 110.68208982089419 81.91981866633111 l 3.879130963554442 -6.565699447773694 a28.62601247513421,28.62601247513421 0 0,0 0.4220809216775566,0.2542990326150611 l -3.9915739514496362 6.497953805700019" fill="#ff6409" stroke="none" /><path d="M 113.89432698308785 84.25364557470407 l 7.651959610244551 -8.67191827409999 a32.565234646538016,32.565234646538016 0 0,0 0.4171281098227195,0.37450173556187377 l -7.800098707663261 8.53891752976882" fill="#ff980e" stroke="none" /><path d="M 114.16331599549186 84.49514656593476 l 3.840364325623637 -4.204120420751755 a26.6941221154542,26.6941221154542 0 0,0 0.3365901469138047,0.3128238586369902 l -3.9121623563322885 4.137391976040124" fill="#ff4906" stroke="none" /><path d="M 115.4437574822437 85.77008943001954 l 4.425366481779341 -4.077541967847605 a27.017492583926845,27.017492583926845 0 0,0 0.31218887571899734,0.3447267539442299 l -4.494898998114374 4.000762426633825" fill="#ff4e07" stroke="none" /><path d="M 116.15771136456269 86.58626213691792 l 9.593252911408907 -7.96408457265264 a33.468245446036875,33.468245446036875 0 0,0 0.36416878818934706,0.4464278745179293 l -9.728920191674664 7.797772528526609" fill="#ffa40f" stroke="none" /><path d="M 116.38621287248628 86.86637796730983 l 10.87375888236417 -8.715365798486031 a34.935430859259924,34.935430859259924 0 0,0 0.372055550207866,0.4724727659313123 l -11.022168513166001 8.526900638601681" fill="#ffb711" stroke="none" /><path d="M 117.04232023915458 87.72973835380427 l 8.842958556099878 -6.366821752387948 a31.896528587196034,31.896528587196034 0 0,0 0.31697157086726174,0.4483338081118885 l -8.951242746771022 6.213661443944267" fill="#ff8f0d" stroke="none" /><path d="M 117.45458315368197 88.32363383020206 l 38.18184809720979 -25.54201584175783 a66.9374367741498,66.9374367741498 0 0,0 0.6324101274527376,0.9632040112754585 l -38.61585486002045 24.880993766504698" fill="#38ff80" stroke="none" /><path d="M 117.65298651832404 88.62581576622439 l 16.09328433494651 -10.369235866249053 a40.14457764316937,40.14457764316937 0 0,0 0.36927736004866163,0.5841081014471471 l -16.26938929124113 10.090680117087699" fill="#fff817" stroke="none" /><line stroke="#e1ed5e" stroke-width="0.3" x1="172.23445277983987" x2="176.4835382374775" y1="55.19839476539836" y2="52.563006222186495" /><path d="M 173.08426987136738 54.67131705675599 a86.0,86.0 0 0,1 12.851231095245387,41.99856678651699" fill="none" id="id63" stroke="none" /><text fill="#e1ed5e" style="font-size:6.75px; font-family:Arial;" text-anchor="middle"><textPath startOffset="22.20632615414155" xlink:href="#id63">March</textPath></text><path d="M 117.84615892207809 88.93136811851018 l 20.7700728225776 -12.882116046856176 a45.44063908533993,45.44063908533993 0 0,0 0.40655134285299543,0.6682635121723267 l -20.988739963716817 12.522684761476768" fill="#c8ff1d" stroke="none" /><path d="M 118.3937258080291 89.86733742301442 l 11.422792717124365 -6.29254265815717 a34.04132993843485,34.04132993843485 0 0,0 0.27831526867910755,0.5156759240985823 l -11.529416085021936 6.094985750726129" fill="#ffab0f" stroke="none" /><path d="M 119.04729006885535 91.15688171328212 l 11.08094600985116 -5.144569959275946 a33.21695397957776,33.21695397957776 0 0,0 0.2363112362897166,0.5206804849230027 l -11.167859563104223 4.953067465510881" fill="#ffa10e" stroke="none" /><path d="M 119.34039704204932 91.81776055985345 l 2.577369073910101 -1.0903938963874877 a23.7985335789351,23.7985335789351 0 0,0 0.1563657865620787,0.3786521549830086 l -2.595756547358377 1.0458671709511762" fill="#ff2003" stroke="none" /><path d="M 119.97218684219823 93.5106431181261 l 5.38492339900397 -1.7496676750418396 a26.662043534469404,26.662043534469404 0 0,0 0.13806433456699532,0.4377016700590426 l -5.4142432173391715 1.6567158385563778" fill="#ff4906" stroke="none" /><path d="M 120.28053869075195 94.5502522615342 l 22.287821022902346 -5.989140824463424 a44.07849158338088,44.07849158338088 0 0,0 0.19059470101880827,0.7344391314971372 l -22.387612055791458 5.604605267417436" fill="#d8ff1c" stroke="none" /><path d="M 120.37134235888165 94.90015583598534 l 5.504861798034195 -1.378109346936187 a26.674741296972854,26.674741296972854 0 0,0 0.1076734820719746,0.44637609682957086 l -5.5277680803669895 1.28314801844721" fill="#ff4906" stroke="none" /><path d="M 120.45610955862082 95.25157060432595 l 10.600934655528562 -2.460770441010751 a31.88279406835114,31.88279406835114 0 0,0 0.11949308815416078,0.5356640839551049 l -10.64172213068476 2.2779281875056823" fill="#ff8f0d" stroke="none" /><path d="M 120.53481517161879 95.60439243477599 l 5.326171637672447 -1.140100855477484 a26.44682790939891,26.44682790939891 0 0,0 0.09145653636168853,0.4459745514273836 l -5.345007469949133 1.0482506478866886" fill="#ff4606" stroke="none" /><path d="M 120.67395015179393 96.31383870115 l 6.556237664257417 -1.1689759028441546 a27.65963639935829,27.65963639935829 0 0,0 0.07953875967546326,0.4694422620356115 l -6.575388285453104 1.055947852492705" fill="#ff5608" stroke="none" /><path d="M 120.78858239683441 97.02765380044208 l 23.334734659141866 -3.336394399473543 a44.572046351587616,44.572046351587616 0 0,0 0.10205725327447181,0.7604450792579733 l -23.388707911474174 2.9342309781509055" fill="#d2ff1c" stroke="none" /><path d="M 120.83666639777658 97.38593545837742 l 5.697972472311519 -0.7148392892924783 a26.742637504207977,26.742637504207977 0 0,0 0.053370214169254304,0.4572434023616432 l -5.709433039484362 0.6166521486059824" fill="#ff4a06" stroke="none" /><path d="M 120.96714384426684 98.82574320788733 l 8.944148927618878 -0.5009136058746275 a29.958164682566192,29.958164682566192 0 0,0 0.024403623888828906,0.5151219301349408 l -8.951446159741202 0.3468805691166869" fill="#ff760a" stroke="none" /><line stroke="#e1ed5e" stroke-width="0.3" x1="184.98032266829074" x2="189.97916517819016" y1="98.17113171792111" y2="98.06355123074" /><path d="M 185.9800911702706 98.14961562048488 a86.0,86.0 0 0,1 -9.607161424134198,41.387399972396054" fill="none" id="id64" stroke="none" /><text fill="#e1ed5e" style="font-size:6.75px; font-family:Arial;" text-anchor="middle"><textPath startOffset="21.466115282336823" xlink:href="#id64">April</textPath></text><path d="M 120.95626037817324 101.35467743843564 l 50.68373472680518 3.276353256307703 a71.78952112904074,71.78952112904074 0 0,0 -0.09032981905088089,1.2324786135738999 l -50.61982834908996 -4.148305006378373" fill="#3effb5" stroke="none" /><path d="M 120.92983693683757 101.71520430193887 l 48.12744085112827 3.9440533549439363 a69.28877840394696,69.28877840394696 0 0,0 -0.10764639851890634,1.187869037626418 l -48.052419856332286 -4.771903781118925" fill="#3bff9a" stroke="none" /><path d="M 120.5718875245553 104.21870165774334 l 7.717602573455652 1.5826580196678097 a28.878210195788643,28.878210195788643 0 0,0 -0.10405226354199697,0.4860975344860178 l -7.689216271189212 -1.7152693735699964" fill="#ff6709" stroke="none" /><path d="M 120.41448212921028 104.9243191809786 l 22.51759934520476 5.431626708106577 a44.16343776228785,44.16343776228785 0 0,0 -0.18462143606491088,0.7374708637971482 l -22.420766594844793 -5.818425411301122" fill="#d7ff1c" stroke="none" /><path d="M 120.23288151984713 105.62410040840565 l 12.7449269733485 3.542686143127831 a34.22814381025154,34.22814381025154 0 0,0 -0.16267717990402783,0.5663006044869529 l -12.682057156558372 -3.761544223119366" fill="#ffae10" stroke="none" /><path d="M 120.13307415673323 105.97154293290107 l 5.345516828998225 1.5854997102979722 a26.57569363402063,26.57569363402063 0 0,0 -0.13385699469326598,0.4374524035714731 l -5.317433061798826 -1.6772790864215024" fill="#ff4706" stroke="none" /><path d="M 120.02730092923936 106.31721596034902 l 10.058883650971664 3.1728758941470314 a31.547430101377508,31.547430101377508 0 0,0 -0.16781392394510347,0.5164781510346287 l -10.002777476010312 -3.3455529451594552" fill="#ff8b0c" stroke="none" /><path d="M 119.79798401119884 107.00284435728193 l 22.955005041080614 8.119530121469953 a45.348696594058055,45.348696594058055 0 0,0 -0.2666411344952893,0.733681884320561 l -22.811839645580097 -8.513459802796646" fill="#c9ff1d" stroke="none" /><path d="M 118.97047184881838 109.00673069616215 l 5.218354287903984 2.4775510131152454 a26.776632279855995,26.776632279855995 0 0,0 -0.20126686686669462,0.41466935902218455 l -5.1749341644225755 -2.5670093281027055" fill="#ff4a06" stroke="none" /><path d="M 118.81262510543309 109.33194174019688 l 4.958831880016199 2.4598124899845977 a26.535403427045694,26.535403427045694 0 0,0 -0.20649766313360962,0.4074394798009893 l -4.91575554709632 -2.544806181488281" fill="#ff4706" stroke="none" /><path d="M 118.64920377521936 109.65438752849418 l 21.7493830032811 11.259299568506677 a45.49096747367869,45.49096747367869 0 0,0 -0.365980231100047,0.6922966739901313 l -21.552350263956157 -11.632011257582942" fill="#c7ff1e" stroke="none" /><line stroke="#e1ed5e" stroke-width="0.3" x1="174.80103733775053" x2="179.2010983576182" y1="140.37084112569926" y2="142.7455964860345" /><path d="M 175.68104954172406 140.8457921977663 a86.0,86.0 0 0,1 -30.038265399797805,32.042727171017184" fill="none" id="id65" stroke="none" /><text fill="#e1ed5e" style="font-size:6.75px; font-family:Arial;" text-anchor="middle"><textPath startOffset="22.206326154141568" xlink:href="#id65">May</textPath></text><path d="M 118.12598468904814 110.60418214915192 l 5.107458637081501 2.987998866599266 a26.9172857761221,26.9172857761221 0 0,0 -0.23740933809685236,0.39791170640993795 l -5.055268423286421 -3.075472666895308" fill="#ff4c07" stroke="none" /><path d="M 117.75023020441432 111.22182372390056 l 3.195104455812514 2.0199681113803485 a24.780074556744413,24.780074556744413 0 0,0 -0.23103895635069768,0.35857759095860015 l -3.159860636084766 -2.0746673022604014" fill="#ff2e04" stroke="none" /><path d="M 117.55443506779139 111.5257021239791 l 2.27155391293673 1.491432430491875 a23.717411980929846,23.717411980929846 0 0,0 -0.2270060074219742,0.3393431805163023 l -2.245544800104035 -1.5303125252139842" fill="#ff1f03" stroke="none" /><path d="M 116.93607887273984 112.41649034213515 l 7.493459646632063 5.493743270252876 a30.291563517253266,30.291563517253266 0 0,0 -0.31191472975219087,0.41786075287970403 l -7.39778365018478 -5.621916902641895" fill="#ff7a0b" stroke="none" /><path d="M 116.27256486870786 113.27417163493432 l 2.3365495379005075 1.9060154222682575 a24.015353798974097,24.015353798974097 0 0,0 -0.264059107435948,0.3180762055054615 l -2.303394430571016 -1.9459528848874894" fill="#ff2303" stroke="none" /><path d="M 116.0416608686014 113.55231037782055 l 1.4656348511865713 1.2381971272506396 a22.918649953207833,22.918649953207833 0 0,0 -0.2571881681904165,0.2991679432607068 l -1.4441041734253761 -1.2632421696728744" fill="#ff1402" stroke="none" /><path d="M 115.80600337817218 113.82643327865902 l 1.007657080791344 0.881456435380124 a22.338782372135952,22.338782372135952 0 0,0 -0.25566326917974175,0.2872403931911479 l -0.992334961963264 -0.8986709983121384" fill="#ff0b01" stroke="none" /><path d="M 115.56566222782051 114.09645910891815 l 6.18140757830892 5.59796029798529 a29.339481947159218,29.339481947159218 0 0,0 -0.3422291185953009,0.37142211716338897 l -6.084132051717897 -5.703533669950014" fill="#ff6d0a" stroke="none" /><path d="M 115.32070863581623 114.36230785411682 l 8.01261465653442 7.5113783016881195 a31.98284105435298,31.98284105435298 0 0,0 -0.37997663387376,0.3984039814900745 l -7.882131471281696 -7.648189399760701" fill="#ff910d" stroke="none" /><path d="M 114.81725581225074 114.88116024355365 l 4.737327367946499 4.757758695796967 a27.714055287121678,27.714055287121678 0 0,0 -0.34094892872798843,0.3336902869974698 l -4.654728486842716 -4.838599085717009" fill="#ff5708" stroke="none" /><path d="M 114.29624159901734 115.38237550388516 l 2.9539758616967586 3.178399414931233 a25.339146947537305,25.339146947537305 0 0,0 -0.32204903506776406,0.294184157825481 l -2.8988272771621304 -3.2287763393432973" fill="#ff3605" stroke="none" /><path d="M 113.48314897796784 116.09983520530334 l 7.218188769117049 8.619028822825564 a32.24232658106432,32.24232658106432 0 0,0 -0.4285617368567891,0.3526771330986389 l -7.068756903715569 -8.742001074781381" fill="#ff940d" stroke="none" /><path d="M 112.92097659922987 116.55440617244103 l 2.6927117668690266 3.4499129343456953 a25.37636789061439,25.37636789061439 0 0,0 -0.3466548058570204,0.26580012301191897 l -2.6329282325185126 -3.4957523991849855" fill="#ff3705" stroke="none" /><path d="M 112.34349029814194 116.9893568818739 l 13.400933096462264 18.444802031414437 a43.799029142354456,43.799029142354456 0 0,0 -0.6137551115878678,0.4378979759090277 l -13.081450657025512 -18.672744269167683" fill="#dbff1b" stroke="none" /><path d="M 111.45004920935366 117.60387380957326 l 2.280784988404376 3.5065920144552867 a25.183081127491114,25.183081127491114 0 0,0 -0.36541633809881174,0.23322599605030805 l -2.2200868482586333 -3.5453324393294032" fill="#ff3404" stroke="none" /><path d="M 111.1453310114006 117.79835938074945 l 7.912493501383738 12.635730853701645 a35.90869704624209,35.90869704624209 0 0,0 -0.5266964568367538,0.32353998201498835 l -7.693817844614675 -12.770059302545013" fill="#ffc312" stroke="none" /><line stroke="#e1ed5e" stroke-width="0.3" x1="143.8653032363475" x2="146.44561519142675" y1="172.8068346515853" y2="177.08958963109032" /><path d="M 144.38136562736335 173.6633856474863 a86.0,86.0 0 0,1 -40.68145358897372,12.25698825130547" fill="none" id="id66" stroke="none" /><text fill="#e1ed5e" style="font-size:6.75px; font-family:Arial;" text-anchor="middle"><textPath startOffset="21.466115282336833" xlink:href="#id66">June</textPath></text><path d="M 110.21172684928248 118.3499491758327 l 11.393516512241089 20.47356456154373 a44.43030226801203,44.43030226801203 0 0,0 -0.6714840191260789,0.36614662631516914 l -11.039409681246362 -20.666651839618666" fill="#d3ff1c" stroke="none" /><path d="M 109.2508944713604 118.85261126421891 l 3.3568417314067482 6.840985207824181 a28.620201114365887,28.620201114365887 0 0,0 -0.44414099916464117,0.21321467000309852 l -3.238588064241874 -6.897754154326839" fill="#ff6309" stroke="none" /><path d="M 108.59647513512805 119.15986991738527 l 2.924901279848771 6.519035670107991 a28.14512935957085,28.14512935957085 0 0,0 -0.44372716381128396,0.19451694867555608 l -2.8122534413797333 -6.568417172078002" fill="#ff5d08" stroke="none" /><path d="M 108.2653958097858 119.30500536409082 l 3.5635938658814115 8.323279402401011 a30.054069872238703,30.054069872238703 0 0,0 -0.4773280981261476,0.1995231837291847 l -3.419794308257803 -8.38338762915017" fill="#ff770a" stroke="none" /><path d="M 107.59598834532513 119.57807347666477 l 3.6099557096324624 9.304382118251494 a30.98014563160008,30.98014563160008 0 0,0 -0.4988242763441654,0.1886126586167374 l -3.449261212528022 -9.365143026974863" fill="#ff830c" stroke="none" /><path d="M 107.2578585660854 119.70592522655815 l 0.9875044103004141 2.6811886582094324 a23.85726050287223,23.85726050287223 0 0,0 -0.3865790040994398,0.13861347704788943 l -0.9412058455712395 -2.697789676297282" fill="#ff2103" stroke="none" /><path d="M 106.91757812671514 119.82793768551818 l 2.3539457980498337 6.747143255031499 a28.14597809429007,28.14597809429007 0 0,0 -0.45882000941720374,0.15565665841436704 l -2.237456055695403 -6.786662900343989" fill="#ff5d08" stroke="none" /><path d="M 105.53697534728816 120.25689768951611 l 4.587960178814878 16.78494739756159 a38.40068497908346,38.40068497908346 0 0,0 -0.6391145906083162,0.16879597220177736 l -4.298355145395065 -16.861434719066953" fill="#ffe215" stroke="none" /><path d="M 103.7750983002368 120.6578951692458 l 0.7243191050419869 3.9635810649223857 a25.029219902678445,25.029219902678445 0 0,0 -0.4244848767424365,0.07380213689924632 l -0.6559852568275004 -3.975461780342638" fill="#ff3204" stroke="none" /><path d="M 101.62511606390274 120.93702456842531 l 0.5171425858801272 6.662556149958329 a27.68259612018251,27.68259612018251 0 0,0 -0.4753988113930721,0.03278628540933335 l -0.40238101370812474 -6.6704707798839475" fill="#ff5708" stroke="none" /><path d="M 101.26447882468166 120.96189622390904 l 0.1723984769260853 2.857935547789314 a23.86313059956479,23.86313059956479 0 0,0 -0.4102321367357279,0.021204315630794855 l -0.12317827177687779 -2.8604796701823103" fill="#ff2103" stroke="none" /><path d="M 100.90346689309514 120.98055641714683 l 0.9701534106125359 22.529169048920807 a43.550047797620614,43.550047797620614 0 0,0 -0.7492259977560218,0.025804858252335416 l -0.5822070611818618 -22.542530705599233" fill="#deff1b" stroke="none" /><line stroke="#e1ed5e" stroke-width="0.3" x1="102.19456741930631" x2="102.32365962044197" y1="184.97166512339345" y2="189.96999836594603" /><path d="M 102.22038585953345 185.97133177190398 a86.0,86.0 0 0,1 -42.740103519485714,-10.115201625700543" fill="none" id="id67" stroke="none" /><text fill="#e1ed5e" style="font-size:6.75px; font-family:Arial;" text-anchor="middle"><textPath startOffset="22.20632615414155" xlink:href="#id67">July</textPath></text><path d="M 99.45781275523022 120.99299961872073 l -0.5098066806518811 19.73925346969494 a40.74583577346122,40.74583577346122 0 0,0 -0.7009829151885152,-0.024143268944116992 l 0.8495099475150394 -19.72755340232473" fill="#ffff18" stroke="none" /><path d="M 98.37488393609728 120.93702456842531 l -2.5985717534833994 33.4784461577723 a54.57914430560821,54.57914430560821 0 0,0 -0.9360470930699607,-0.08076608187083358 l 3.174463164294902 -33.428755823622794" fill="#65ff29" stroke="none" /><path d="M 96.58105272829116 120.7198165907248 l -1.4741957474615854 8.934055742533749 a30.05486637739807,30.05486637739807 0 0,0 -0.5097176939324013,-0.08862095468808125 l 1.6277624128660366 -8.90735620932466" fill="#ff770a" stroke="none" /><path d="M 95.86986931433489 120.58985236759428 l -0.6176068894307977 3.0789424457501005 a24.140274646287168,24.140274646287168 0 0,0 -0.40671596634743284,-0.08523128517337643 l 0.6705143172076173 -3.067855179850183" fill="#ff2503" stroke="none" /><path d="M 95.16358092515715 120.4354850818985 l -0.9823190464528624 4.150625888453328 a25.265283809422655,25.265283809422655 0 0,0 -0.42234737577754133,-0.10380270930551898 l 1.0536197069736142 -4.133101920833779" fill="#ff3505" stroke="none" /><path d="M 94.46302465271185 120.25689768951611 l -1.4560039780363279 5.326757258013749 a26.522163567829168,26.522163567829168 0 0,0 -0.439344479032338,-0.12416313826792347 l 1.5474796251732796 -5.300905326407304" fill="#ff4706" stroke="none" /><path d="M 93.08242187328487 119.8279376855182 l -3.377785932992744 9.681788592419341 a31.254095189602296,31.254095189602296 0 0,0 -0.5064360592018198,-0.18158995269783823 l 3.5439415528242906 -9.622211098681545" fill="#ff870c" stroke="none" /><path d="M 92.40401165467489 119.57807347666478 l -1.9659069527986588 5.0669733839001765 a26.43498016741689,26.43498016741689 0 0,0 -0.42280727111841937,-0.168243738925634 l 2.0528352999589363 -5.032382800568476" fill="#ff4506" stroke="none" /><path d="M 91.7346041902142 119.30500536409082 l -2.4294236591073908 5.674263864676649 a27.172468689382388,27.172468689382388 0 0,0 -0.42839250483639596,-0.18779468482504874 l 2.52673683860153 -5.631604626557149" fill="#ff5007" stroke="none" /><path d="M 90.7491055286396 118.85261126421891 l -4.880651842781633 9.946392988571713 a32.07932741160565,32.07932741160565 0 0,0 -0.4936337760583652,-0.24751822298475581 l 5.05113952652276 -9.860906924677654" fill="#ff920d" stroke="none" /><path d="M 90.10565033884886 118.52300852407294 l -4.606323002953041 8.623402565136928 a30.77656807923642,30.77656807923642 0 0,0 -0.4651324113010195,-0.2536272768030405 l 4.754078226122701 -8.542834636574122" fill="#ff810b" stroke="none" /><line stroke="#e1ed5e" stroke-width="0.3" x1="58.666819895761336" x2="56.23545636021788" y1="174.27360380694188" y2="178.64263932499728" /><path d="M 58.180547188652646 175.14741091055294 a86.0,86.0 0 0,1 -31.652253787137756,-30.449443065178592" fill="none" id="id68" stroke="none" /><text fill="#e1ed5e" style="font-size:6.75px; font-family:Arial;" text-anchor="middle"><textPath startOffset="22.20632615414155" xlink:href="#id68">August</textPath></text><path d="M 89.1626897886671 117.98757091392108 l -9.34979434598021 15.518619062230622 a39.117565838454986,39.117565838454986 0 0,0 -0.5737630441076902,-0.35245212410647275 l 9.61553659002021 -15.35537847129577" fill="#ffeb16" stroke="none" /><path d="M 88.54995079064634 117.60387380957326 l -1.5030414683316489 2.310850534812646 a23.756658094463013,23.756658094463013 0 0,0 -0.3408801027259901,-0.22591674446291488 l 1.5425962697976008 -2.2846357692584127" fill="#ff2003" stroke="none" /><path d="M 88.24862548938628 117.40417183066458 l -4.526285020246256 6.703576860373151 a29.088584474890276,29.088584474890276 0 0,0 -0.4125635534243594,-0.2837649740005998 l 4.641005458293505 -6.62467109700745" fill="#ff6a09" stroke="none" /><path d="M 87.95078237400918 117.19931262002967 l -1.5599524548981372 2.226709714853336 a23.71876586262314,23.71876586262314 0 0,0 -0.3323706957390815,-0.23713766642053213 l 1.5980504784861056 -2.1995277865885847" fill="#ff1f03" stroke="none" /><path d="M 87.07902340077011 116.55440617244103 l -2.3472838857531686 3.007349370874926 a24.814956340355458,24.814956340355458 0 0,0 -0.33446130765159526,-0.2657162907804428 l 2.3987026861221223 -2.9664991660893527" fill="#ff2f04" stroke="none" /><path d="M 86.79598089348748 116.32954008644616 l -21.26622148154915 26.300144930789973 a54.82232693773242,54.82232693773242 0 0,0 -0.7286928129052521,-0.5996645758668859 l 21.71578442299909 -25.930185236065906" fill="#62ff29" stroke="none" /><path d="M 86.24171649860922 115.8653595955263 l -1.7543853981330695 2.0230688812094964 a23.677811760243944,23.677811760243944 0 0,0 -0.3056215211453548,-0.26967545840582374 l 1.788949272185012 -1.9925702810313837" fill="#ff1f03" stroke="none" /><path d="M 85.97065885151581 115.62618273729859 l -1.360584292832774 1.5154481286243597 a23.036608123438167,23.036608123438167 0 0,0 -0.2927848136619602,-0.26745198541926996 l 1.3864686559615889 -1.491803376618514" fill="#ff1602" stroke="none" /><path d="M 84.9287848128048 114.62390073753433 l -2.005739189383809 1.9462087460506974 a23.794766211874304,23.794766211874304 0 0,0 -0.28269706101580855,-0.29640673826711905 l 2.038942801778575 -1.9113948912010783" fill="#ff2003" stroke="none" /><path d="M 84.67929136418377 114.36230785411682 l -2.3891753277331236 2.239718304814263 a24.274827756015384,24.274827756015384 0 0,0 -0.2831526787676641,-0.3073063094690568 l 2.4273744144965166 -2.198260740543862" fill="#ff2703" stroke="none" /><path d="M 84.43433777217949 114.09645910891817 l -3.7271429551146156 3.375347446892541 a26.028375979886995,26.028375979886995 0 0,0 -0.29788999165674285,-0.3346825635364731 l 3.7846917964196964 -3.3106907136152035" fill="#ff4006" stroke="none" /><path d="M 84.19399662182784 113.82643327865904 l -2.500590170757959 2.187412107035355 a24.322306868441892,24.322306868441892 0 0,0 -0.27293970466982986,-0.3174905387552727 l 2.537872384998568 -2.144044469118552" fill="#ff2803" stroke="none" /><path d="M 83.95833913139862 113.55231037782056 l -3.3929018602867895 2.8663901742301525 a25.441618586108078,25.441618586108078 0 0,0 -0.2797415000340622,-0.3369666576443462 l 3.441739360214388 -2.807562259472045" fill="#ff3805" stroke="none" /><path d="M 83.72743513129214 113.27417163493432 l -6.276126003436359 5.119683002910901 a29.09943897200941,29.09943897200941 0 0,0 -0.31327913908685895,-0.39086389488056744 l 6.363323054578079 -5.010891274452074" fill="#ff6a09" stroke="none" /><path d="M 83.06392112726016 112.41649034213515 l -18.70341387133214 13.712191555280754 a44.19141840619181,44.19141840619181 0 0,0 -0.44448193195105884,-0.6173465279916523 l 18.936675595658805 -13.388211421837964" fill="#d6ff1c" stroke="none" /><path d="M 82.44556493220864 111.52570212397912 l -4.78952996057391 3.1446580551449057 a26.729613558262272,26.729613558262272 0 0,0 -0.24921563516755876,-0.38678820013346205 l 4.842950459118514 -3.0617482550899955" fill="#ff4a06" stroke="none" /><path d="M 82.24976979558568 111.22182372390057 l -53.25069061324296 33.6654711717017 a84.0,84.0 0 0,0 -0.7621414413281764,-1.2288146745389432 l 53.82229669423909 -32.743860165797486" fill="#4dd2ff" stroke="none" /><line stroke="#e1ed5e" stroke-width="0.3" x1="26.63291911575756" x2="22.317208475507996" y1="142.92168965132927" y2="145.44649492493687" /><path d="M 25.769776987707644 143.4266507060508 a86.0,86.0 0 0,1 -11.730757126820373,-40.83630448921669" fill="none" id="id69" stroke="none" /><text fill="#e1ed5e" style="font-size:6.75px; font-family:Arial;" text-anchor="middle"><textPath startOffset="21.46611528233685" xlink:href="#id69">September</textPath></text><path d="M 81.87401531095188 110.60418214915194 l -2.0321574059040453 1.1888660206678259 a23.354371707583407,23.354371707583407 0 0,0 -0.2000112920344892,-0.3487365466641143 l 2.052320694090912 -1.1537096281454045" fill="#ff1a02" stroke="none" /><path d="M 81.35079622478065 109.6543875284942 l -10.11840198510804 5.23813108113078 a32.39386132772146,32.39386132772146 0 0,0 -0.252087995663593,-0.4973935310386216 l 10.2070686505579 -5.063183338389473" fill="#ff960d" stroke="none" /><path d="M 81.18737489456691 109.33194174019688 l -5.694094390624778 2.8245370764947806 a27.356156120316605,27.356156120316605 0 0,0 -0.20562286453006193,-0.42364400441261085 l 5.741870511769559 -2.7261041161168853" fill="#ff5207" stroke="none" /><path d="M 80.87730276802145 108.67885076344099 l -8.585872363662796 3.896704738574789 a30.42875983704855,30.42875983704855 0 0,0 -0.21236219212810628,-0.47882068126747324 l 8.651675640522182 -3.74833572081462" fill="#ff7c0b" stroke="none" /><path d="M 80.58989483394504 108.01547362559985 l -21.134345434898144 8.727504924805775 a43.86547395472285,43.86547395472285 0 0,0 -0.2821957550306525,-0.7003867212806443 l 21.281443804186186 -8.362418835682325" fill="#daff1c" stroke="none" /><path d="M 80.45479744820244 107.68017299344265 l -3.9627333121698256 1.5571328710299397 a25.25768928897147,25.25768928897147 0 0,0 -0.15552208139589357,-0.4060190790574925 l 3.988949673159228 -1.4886902251392895" fill="#ff3505" stroke="none" /><path d="M 80.32549172779594 107.34259656027581 l -2.8423086945695637 1.0607597280321015 a24.033797935894953,24.033797935894953 0 0,0 -0.14131385528503532,-0.3888350378585783 l 2.8601468108598236 -1.011676893167406" fill="#ff2403" stroke="none" /><path d="M 80.20201598880116 107.00284435728193 l -7.998411739261468 2.829158387228792 a29.484027789368838,29.484027789368838 0 0,0 -0.16512342898830618,-0.4799259772038097 l 8.045925999193003 -2.6910597069356856" fill="#ff6f0a" stroke="none" /><path d="M 80.0844068197444 106.66101706037122 l -18.789524035351736 6.2843892734169 a40.812616233473506,40.812616233473506 0 0,0 -0.21709930902757174,-0.6681629693262833 l 18.894915595395556 -5.960027404112814" fill="#feff18" stroke="none" /><path d="M 79.86692584326677 105.97154293290107 l -6.848701894657094 2.0313498614372434 a28.143605525324084,28.143605525324084 0 0,0 -0.13375900266667945,-0.4656326358153048 l 6.882653534209878 -1.9131597501173425" fill="#ff5d08" stroke="none" /><path d="M 79.76711848015287 105.62410040840567 l -24.27184493920023 6.746804349217906 a46.192098477086134,46.192098477086134 0 0,0 -0.2063509340926486,-0.7679085901904357 l 24.384383949634653 -6.328004825851932" fill="#bfff1e" stroke="none" /><path d="M 79.29508885075956 103.50808413554451 l -2.1139012435617133 0.3581634986595296 a23.144028814942512,23.144028814942512 0 0,0 -0.06317024422305903,-0.3933611710777019 l 2.119753242146063 -0.32172309788861403" fill="#ff1702" stroke="none" /><path d="M 79.04373962182676 101.35467743843564 l -22.29119309058524 1.4409716147199634 a43.33771896582513,43.33771896582513 0 0,0 -0.041714925929045465,-0.7448480249653533 l 22.312694367401818 -1.0570518734191725" fill="#e0ff1b" stroke="none" /><line stroke="#e1ed5e" stroke-width="0.3" x1="15.007084014347285" x2="10.007500721073583" y1="101.09737516637583" y2="101.16192664675087" /><path d="M 14.007167355692545 101.11028546245083 a86.0,86.0 0 0,1 10.666146001902534,-42.60595125391555" fill="none" id="id70" stroke="none" /><text fill="#e1ed5e" style="font-size:6.75px; font-family:Arial;" text-anchor="middle"><textPath startOffset="22.20632615414155" xlink:href="#id70">October</textPath></text><path d="M 79.00175016825051 100.2711162175752 l -2.786639442646662 0.03597933882536785 a23.78687170428357,23.78687170428357 0 0,0 -0.0017621571802189538,-0.4094632697277951 l 2.786845897116384 0.011993409106102628" fill="#ff2003" stroke="none" /><path d="M 79.01574976396665 99.18683210126434 l -2.7018753756536316 -0.10470130203142211 a23.703903272717152,23.703903272717152 0 0,0 0.019308964560873783,-0.4075817238790795 l 2.6996728028592587 0.15119413253351072" fill="#ff1f03" stroke="none" /><path d="M 79.03285615573316 98.82574320788736 l -4.30390126197309 -0.24103832772797965 a25.3106456068955,25.3106456068955 0 0,0 0.028106156992835665,-0.43478980859961325 l 4.299114513975842 0.3150872005806047" fill="#ff3605" stroke="none" /><path d="M 79.05617556472873 98.46500227214037 l -4.011570725067315 -0.2940127753246607 a25.022330567503275,25.022330567503275 0 0,0 0.03518082028784337,-0.4292951172618011 l 4.005915420959975 0.36302180979424015" fill="#ff3204" stroke="none" /><path d="M 79.26566170972629 96.67025291283419 l -11.12306097986758 -1.7862629315474932 a32.26557680824526,32.26557680824526 0 0,0 0.092783720020295,-0.5476147677450398 l 11.090665398327062 1.977463487608361" fill="#ff940d" stroke="none" /><path d="M 79.3925641242962 95.95851677861259 l -4.188589782161795 -0.8214566541895646 a25.268380887168167,25.268380887168167 0 0,0 0.08738131481496411,-0.4261023238800785 l 4.173829171431836 0.8934346342330456" fill="#ff3505" stroke="none" /><path d="M 79.46518482838121 95.60439243477599 l -23.209667445168343 -4.968176677300615 a44.73544696044675,44.73544696044675 0 0,0 0.167663370274276,-0.751602013456454 l 23.120709687892028 5.366956860307028" fill="#d0ff1d" stroke="none" /><path d="M 79.62865764111835 94.90015583598534 l -1.6543768863879411 -0.41416339485590253 a22.705430795973037,22.705430795973037 0 0,0 0.09817792393996376,-0.37831959023637485 l 1.6470026305776702 0.4425794106411412" fill="#ff1101" stroke="none" /><path d="M 79.71946130924805 94.55025226153421 l -0.5252692137806161 -0.1411493429014275 a21.543903377400078,21.543903377400078 0 0,0 0.09932070764630424,-0.35730942983728164 l 0.522761735567951 0.15017007615765168" fill="#ff0000" stroke="none" /><path d="M 80.14247586403 93.16781622104843 l -21.15762656645131 -7.279497284688172 a43.37490207002455,43.37490207002455 0 0,0 0.24898622927227015,-0.7039175989989365 l 21.02918725636923 7.642612510113719" fill="#e0ff1b" stroke="none" /><path d="M 80.52162464483688 92.15188598940014 l -5.187041382979028 -2.0899326257478843 a26.592246121989128,26.592246121989128 0 0,0 0.17472158389614556,-0.4231021741962326 l 5.150298112196683 2.1789093703974283" fill="#ff4806" stroke="none" /><path d="M 80.95270993114464 91.15688171328213 l -2.9507211985377366 -1.3699364316639098 a24.253226309112236,24.253226309112236 0 0,0 0.17906019105378626,-0.3771464284012944 l 2.9267028136421986 1.4205252757057363" fill="#ff2703" stroke="none" /><path d="M 81.10775173730289 90.83032412892265 l -21.145373928706547 -10.263268955755672 a44.504500170031285,44.504500170031285 0 0,0 0.34043820622993637,-0.6863026499386176 l 20.965575709523197 10.625731194193252" fill="#d3ff1c" stroke="none" /><line stroke="#e1ed5e" stroke-width="0.3" x1="26.266209847984243" x2="21.928928074336255" y1="57.711370442889674" y2="55.22380399835377" /><path d="M 25.398753493254645 57.213857153982495 a86.0,86.0 0 0,1 29.58750427330803,-30.492523968695096" fill="none" id="id71" stroke="none" /><text fill="#e1ed5e" style="font-size:6.75px; font-family:Arial;" text-anchor="middle"><textPath startOffset="21.46611528233685" xlink:href="#id71">November</textPath></text><path d="M 82.34701348167596 88.62581576622439 l -20.02680734780176 -12.903686078940833 a44.823898232023616,44.823898232023616 0 0,0 0.4234862964575074,-0.6449986832295679 l 19.80172441598633 13.246502826148069" fill="#cfff1d" stroke="none" /><path d="M 82.95767976084542 87.72973835380427 l -4.523961459396298 -3.2571967904090835 a26.57454556152825,26.57454556152825 0 0,0 0.2704749496170699,-0.3689275273118245 l 4.467223897265594 3.334586761392409" fill="#ff4706" stroke="none" /><path d="M 83.84228863543731 86.58626213691792 l -8.76497424970034 -7.2764678307104385 a32.39174076641818,32.39174076641818 0 0,0 0.3598404443562765,-0.4259375865990525 l 8.638423191856939 7.426264366938606" fill="#ff960d" stroke="none" /><path d="M 84.80347519578584 85.50635884689758 l -3.957252031971481 -3.774217568998068 a26.468506368532097,26.468506368532097 0 0,0 0.31728899711243463,-0.32699420201460955 l 3.891698771155928 3.841775966562801" fill="#ff4606" stroke="none" /><path d="M 85.05521093208273 85.24692304244772 l -2.5849454314820455 -2.5517856898760827 a24.63229308988086,24.63229308988086 0 0,0 0.3004719833054072,-0.29918166111941197 l 2.540637648009325 2.5959032016456036" fill="#ff2c04" stroke="none" /><path d="M 85.31137513191541 84.99185889309783 l -15.495949274612414 -15.833026943461476 a43.15421373269063,43.15421373269063 0 0,0 0.5353521802903142,-0.5150083732803001 l 15.221113850709672 16.09741840350409" fill="#e2ff1b" stroke="none" /><path d="M 85.57189188830299 84.74124197986013 l -14.403136811501357 -15.232349081131089 a41.96365446529447,41.96365446529447 0 0,0 0.5291259461698455,-0.4917649007360528 l 14.138802981536656 15.47801856794179" fill="#f0ff19" stroke="none" /><path d="M 86.65592168130627 83.78471172551755 l -7.046956873581054 -8.563231902115234 a32.09001991826504,32.09001991826504 0 0,0 0.42954264471532333,-0.3473269460044823 l 6.898510830301231 8.68326494538385" fill="#ff920d" stroke="none" /><path d="M 87.22198572758235 83.33499621200491 l -7.991839563635556 -10.422905606587383 a34.134171496319105,34.134171496319105 0 0,0 0.46935110989680356,-0.35350552530531115 l 7.811242299980362 10.558927721398549" fill="#ffad10" stroke="none" /><path d="M 89.00827224532344 82.1063720568725 l -12.242167797763026 -19.92924139676839 a44.38900030012512,44.38900030012512 0 0,0 0.6545008731235663,-0.39432945279670045 l 11.89730485842181 20.13701745902371" fill="#d4ff1c" stroke="none" /><line stroke="#e1ed5e" stroke-width="0.3" x1="56.762969772571076" x2="54.21961505331055" y1="26.818313649435495" y2="22.513508569990535" /><path d="M 56.25429882871897 25.957352633546506 a86.0,86.0 0 0,1 42.265352541879196,-11.944610805530505" fill="none" id="id72" stroke="none" /><text fill="#e1ed5e" style="font-size:6.75px; font-family:Arial;" text-anchor="middle"><textPath startOffset="22.20632615414155" xlink:href="#id72">December</textPath></text><path d="M 89.63071344664047 81.73862282372117 l -11.049914578597969 -19.46003293930219 a43.378415810620695,43.378415810620695 0 0,0 0.6524855527995901,-0.36310750370185535 l 10.713304936726333 19.64735584056423" fill="#e0ff1b" stroke="none" /><path d="M 91.56875222667455 80.76684994638697 l -8.423696137059926 -19.21592345117529 a41.98119087875964,41.98119087875964 0 0,0 0.6643348379198663,-0.2844335073768713 l 8.091677541349751 19.358076486514946" fill="#f0ff19" stroke="none" /><path d="M 91.90106846888425 80.62456947434976 l -3.5851249224437596 -8.576852217321633 a30.295994549659675,30.295994549659675 0 0,0 0.48288371726826673,-0.1969803927617959 l 3.4369573355871124 8.637293496267006" fill="#ff7a0b" stroke="none" /><path d="M 93.94186890950719 79.89281104454417 l -1.6518684146926306 -5.482619944606069 a26.7260624094094,26.7260624094094 0 0,0 0.4416288141809243,-0.12892356111887232 l 1.557249382788285 5.51024183464364" fill="#ff4906" stroke="none" /><path d="M 94.28887869178378 79.79150937346287 l -1.5964531811480862 -5.6489623325849 a26.870216196577505,26.870216196577505 0 0,0 0.4461762430838807,-0.12195682164005196 l 1.498979048840483 5.675605695051248" fill="#ff4b07" stroke="none" /><path d="M 94.98787191387505 79.60689891045804 l -1.2699344222265823 -5.167046931870873 a26.32081830482043,26.32081830482043 0 0,0 0.440906686638037,-0.10434836760350913 l 1.1808040486260112 5.188141211615253" fill="#ff4406" stroke="none" /><path d="M 96.40284397218896 79.31037775812273 l -4.280491674557784 -24.61993727027555 a45.989276103326034,45.989276103326034 0 0,0 0.7810967436605367,-0.12888765539914504 l 3.856065724758362 24.689971188614322" fill="#c2ff1e" stroke="none" /><path d="M 96.75951476605007 79.25152402106235 l -3.7403016230749317 -23.94874618384114 a45.23906557624742,45.23906557624742 0 0,0 0.770423483166123,-0.11354039463199393 l 3.32750915948016 24.009581062634105" fill="#caff1d" stroke="none" /><path d="M 98.55514903715128 79.0497635885617 l -1.0180488474283191 -14.761636030586764 a35.796699691325344,35.796699691325344 0 0,0 0.6150860845200542,-0.0371036723454832 l 0.7638007140686421 14.776972972312555" fill="#ffc212" stroke="none" /><path d="M 99.63851952072746 79.00311137660856 l -0.39374973659494483 -22.871274768174732 a43.87466389646883,43.87466389646883 0 0,0 0.755230215867475,-0.0065005049026597836 l 5.602676784476415e-15 22.87466389646883" fill="#daff1c" stroke="none" /></svg>