<?xml version="1.0" encoding="utf-8" ?>
<svg baseProfile="full" height="200mm" version="1.1" viewBox="0,0,200,200" width="200mm" xmlns="http://www.w3.org/2000/svg" xmlns:ev="http://www.w3.org/2001/xml-events" xmlns:xlink="http://www.w3.org/1999/xlink"><defs /><rect fill="#1a1a1a" height="200" width="200" x="0" y="0" /><text alignment-baseline="middle" fill="#e1ed5e" style="dominant-baseline: central; font-size:9.0px; font-family:Arial;" text-anchor="middle" x="100.0" y="100.0">2022</text><line stroke="#e1ed5e" stroke-width="0.3" x1="100.0" x2="100.0" y1="15.0" y2="10.0" /><path d="M 100.0 14.0 a86.0,86.0 0 0,1 42.46469731375804,11.215312516191453" fill="none" id="id97" stroke="none" /><text fill="#e1ed5e" style="font-size:6.75px; font-family:Arial;" text-anchor="middle"><textPath startOffset="22.20632615414155" xlink:href="#id97">January</textPath></text><path d="M 100.0 79.0 l 0.0 -2.550248474595943 a23.550248474595943,23.550248474595943 0 0,0 0.40537881455162245,0.003489223439505095 l -0.043898335279094085 2.5498706277649967" fill="#ff1502" stroke="none" /><path d="M 100.36148047927253 79.00311137660856 l 0.1411518413180031 -8.198919889409284 a29.200134827870734,29.200134827870734 0 0,0 0.5024833797862465,0.012977663229506714 l -0.28226185629911743 8.195275434037416" fill="#ff6509" stroke="none" /><path d="M 101.08401301168833 79.027996857942 l 0.7408623101531406 -14.333192063963205 a35.35232635167774,35.35232635167774 0 0,0 0.6074505242615615,0.036643074498883176 l -0.9874748832543141 14.318315720084017" fill="#ffb610" stroke="none" /><path d="M 101.80526077348638 79.07773832637324 l 0.36946386018883215 -4.281940689870829 a25.297850580878436,25.297850580878436 0 0,0 0.43352670298493423,0.04116858421609062 l -0.44311569026401054 4.2749465611395605" fill="#ff2e04" stroke="none" /><path d="M 102.16513564639614 79.11191278185805 l 1.2579667659881204 -12.136200135645579 a33.20122264843874,33.20122264843874 0 0,0 0.567951650452677,0.06381598551497729 l -1.4666851199505226 12.11274819666" fill="#ff9a0e" stroke="none" /><path d="M 102.52436894288641 79.15227682838746 l 1.5134617581095542 -12.499057181321781 a33.59035332765573,33.59035332765573 0 0,0 0.5734117586753351,0.07444530330372467 l -1.7283882452927355 12.471153554853919" fill="#ffa00e" stroke="none" /><path d="M 102.88285421437855 79.19881850522331 l 0.9198753273502605 -6.637343484573183 a27.700783472854038,27.700783472854038 0 0,0 0.4717456874438967,0.069523051527718 l -1.0339899952228129 6.620525948884495" fill="#ff5007" stroke="none" /><path d="M 103.2404852339499 79.25152402106235 l 2.2260071344028747 -14.252882584749306 a35.425663580475685,35.425663580475685 0 0,0 0.6016809310621619,0.09928250902641098 l -2.471017271603912 14.21245381278327" fill="#ffb711" stroke="none" /><path d="M 103.59715602781102 79.31037775812273 l 1.3422766401203394 -7.72032027898596 a28.83613755550109,28.83613755550109 0 0,0 0.48829862872781227,0.08923345327372045 l -1.4749703899510527 7.6960713443615" fill="#ff6008" stroke="none" /><path d="M 103.95276090670814 79.375362276772 l 1.054825615573372 -5.503848245782145 a26.604016648072072,26.604016648072072 0 0,0 0.4490170068177408,0.090068587434953 l -1.1494090318582382 5.484875702269984" fill="#ff4006" stroke="none" /><path d="M 104.307194497241 79.44645832069477 l 2.331315751315068 -11.124827423736814 a32.36647783353561,32.36647783353561 0 0,0 0.5443074828779362,0.11896453347276954 l -2.522465958346532 11.083049392168174" fill="#ff8f0d" stroke="none" /><path d="M 104.66035177308747 79.52364482259891 l 1.6787012451488512 -7.375770028973763 a28.564391673543348,28.564391673543348 0 0,0 0.4784893517655939,0.11324297019199134 l -1.8054142838769687 7.3457811466409035" fill="#ff5c08" stroke="none" /><path d="M 105.36241919743992 79.69619591428918 l 2.1113469709773676 -7.994223069346994 a29.268336502243663,29.268336502243663 0 0,0 0.4859967008210989,0.13284125696613816 l -2.2486415610221773 7.956695271554562" fill="#ff6509" stroke="none" /><path d="M 105.71112130821622 79.79150937346287 l 4.498580827096266 -15.917982401513504 a37.541444712987186,37.541444712987186 0 0,0 0.6203451693429372,0.18109576591579551 l -4.77191621416263 15.838188306679005" fill="#ffd213" stroke="none" /><path d="M 106.0581310904928 79.89281104454417 l 4.53220408840281 -15.042573795277828 a36.71050286545005,36.71050286545005 0 0,0 0.6034763125856405,0.18750302789252452 l -4.790465773699169 14.962330632502782" fill="#ffc812" stroke="none" /><path d="M 106.40334571778207 80.00007090966166 l 4.356962233274496 -13.608344692804508 a35.28881258818804,35.28881258818804 0 0,0 0.5769169306758556,0.19020044153194227 l -4.5905619861927685 13.53133052701333" fill="#ffb610" stroke="none" /><path d="M 106.74666289553966 80.11325718540242 l 4.441220110045336 -13.09112423119307 a34.82396360319288,34.82396360319288 0 0,0 0.5660021651245378,0.19746704166810988 l -4.665904279233147 13.012736336352754" fill="#ffb010" stroke="none" /><path d="M 107.08798089147638 80.2323363322302 l 3.5197508161178432 -9.816229952178 a31.4281837479783,31.4281837479783 0 0,0 0.5076664474372052,0.18697783696451348 l -3.688199589327625 9.754188847407162" fill="#ff830c" stroke="none" /><path d="M 107.4271985657038 80.35727306442388 l 5.034254445856284 -13.314102824823902 a35.234080646659535,35.234080646659535 0 0,0 0.565451349699223,0.21938633886950548 l -5.262688960555174 13.22547378206385" fill="#ffb510" stroke="none" /><path d="M 108.43124777332544 80.76684994638697 l 5.909821167053726 -13.48133518926719 a35.719795674938226,35.719795674938226 0 0,0 0.5610013018241711,0.25170493133306643 l -6.1410045873446775 13.377609927417593" fill="#ffbb11" stroke="none" /><path d="M 108.76106565485865 80.91482961587045 l 5.815322885714059 -12.668142493719436 a34.93914683566716,34.93914683566716 0 0,0 0.5444214344396666,0.2556131633638672 l -6.032522531453322 12.566164347715567" fill="#ffb110" stroke="none" /><path d="M 109.08828744355905 81.06846463323043 l 19.377065932137686 -40.36377714466669 a65.77393426451073,65.77393426451073 0 0,0 1.0164538833619434,0.4987695061549571 l -20.06899108251006 40.0242524783769" fill="#36ff71" stroke="none" /><path d="M 109.41281617654863 81.2277094730956 l 3.1440221654988814 -6.270227358823554 a28.014315826115023,28.014315826115023 0 0,0 0.429205348306136,0.2198556498285746 l -3.2514880013937733 6.215179183682479" fill="#ff5407" stroke="none" /><path d="M 109.73455568895987 81.39251694778311 l 4.818334129644353 -9.210186219280375 a31.394415518860008,31.394415518860008 0 0,0 0.4766792809303321,0.25462556342406334 l -4.976158457102997 9.12588192935456" fill="#ff820c" stroke="none" /><path d="M 110.05341064243156 81.56283822128135 l 5.4037825372543 -9.910110747478159 a32.2876552364615,32.2876552364615 0 0,0 0.4856615480735882,0.27027012568835046 l -5.573568174399923 9.81562522422963" fill="#ff8e0d" stroke="none" /><path d="M 110.36928655335952 81.73862282372117 l 3.138711592415897 -5.527593045260706 a27.35655530412349,27.35655530412349 0 0,0 0.40748666131537054,0.23604257567792217 l -3.233394986196596 5.472746312192735" fill="#ff4b07" stroke="none" /><line stroke="#e1ed5e" stroke-width="0.3" x1="143.23703022742887" x2="145.7803849466894" y1="26.81831364943548" y2="22.513508569990506" /><path d="M 143.74570117128098 25.957352633546492 a86.0,86.0 0 0,1 28.547481713284135,27.462654790039103" fill="none" id="id98" stroke="none" /><text fill="#e1ed5e" style="font-size:6.75px; font-family:Arial;" text-anchor="middle"><textPath startOffset="19.985693538727396" xlink:href="#id98">February</textPath></text><path d="M 110.68208982089419 81.91981866633111 l 8.363015669045565 -14.154986742098064 a37.440914839195344,37.440914839195344 0 0,0 0.5520536909395162,0.33260617182015056 l -8.605431426202719 14.0089339608193" fill="#ffd113" stroke="none" /><path d="M 110.99172775467656 82.1063720568725 l 3.7026146005605147 -6.0275517696508905 a28.073947640186876,28.073947640186876 0 0,0 0.40958666067891214,0.25648312934158235 l -3.8058204136116904 5.962924298986364" fill="#ff5507" stroke="none" /><path d="M 111.60114157652 82.49532879139004 l 3.8532363702777666 -5.814051600515234 a27.97500011030001,27.97500011030001 0 0,0 0.39910374795344555,0.26947663217890866 l -3.952744812637754 5.746863056037655" fill="#ff5407" stroke="none" /><path d="M 112.19680574252982 82.90503203632743 l 7.826932761016136 -10.970180851272424 a34.47611755495966,34.47611755495966 0 0,0 0.4801286691850152,0.34883389707752843 l -8.01460674655494 10.83382771937822" fill="#ffab0f" stroke="none" /><path d="M 112.48926042617603 83.11751280151076 l 3.5224935242877575 -4.761567122574402 a26.92287785552181,26.92287785552181 0 0,0 0.370194501555961,0.27882282363506583 l -3.603934179602102 4.700227709433488" fill="#ff4506" stroke="none" /><path d="M 113.06298171725822 83.55741782278167 l 8.568880970023816 -10.785786320919012 a34.775300636971956,34.775300636971956 0 0,0 0.46548661061670965,0.37639113336145497 l -8.753270979205016 10.636689090293427" fill="#ffaf10" stroke="none" /><path d="M 113.34407831869373 83.78471172551755 l 9.385448570818951 -11.40489065834983 a35.77017859757974,35.77017859757974 0 0,0 0.47206835237835787,0.39534366915783964 l -9.580374460156426 11.241645831798172" fill="#ffbc11" stroke="none" /><path d="M 113.89432698308785 84.25364557470407 l 8.977817195446812 -10.17450443602592 a34.56914669806365,34.56914669806365 0 0,0 0.4427962204743563,0.3975468187419971 l -9.15162440351716 10.018458608514624" fill="#ffac10" stroke="none" /><path d="M 114.16331599549186 84.49514656593476 l 1.5149689130496482 -1.6584655006974725 a23.24624990250652,23.24624990250652 0 0,0 0.29311541454850176,0.2724188329509376 l -1.5432922113929968 1.6321420816718943" fill="#ff1101" stroke="none" /><path d="M 114.42810811169701 84.74124197986012 l 9.418592337378993 -9.96083618543846 a34.70868845407446,34.70868845407446 0 0,0 0.4305807111677423,0.41421830299471774 l -9.588656292159154 9.797234795681439" fill="#ffae10" stroke="none" /><path d="M 114.68862486808459 84.99185889309783 l 9.672131584998429 -9.882525895775768 a34.82803122205771,34.82803122205771 0 0,0 0.42484260713075817,0.4230181979612027 l -9.84080999229651 9.714571847164445" fill="#ffb010" stroke="none" /><path d="M 115.4437574822437 85.77008943001954 l 4.511562760102771 -4.1569633996732325 a27.134699931094346,27.134699931094346 0 0,0 0.3135432142026506,0.34622224832447096 l -4.582449614921457 4.078688364079213" fill="#ff4806" stroke="none" /><path d="M 115.68641384162765 86.03803664274999 l 5.409192537938979 -4.814545170713015 a28.241492188308342,28.241492188308342 0 0,0 0.32008118692952503,0.36590812828831765 l -5.4912655884463515 4.720721486221749" fill="#ff5708" stroke="none" /><path d="M 115.9244219780498 86.31012108654704 l 3.2268368596624257 -2.774041402767156 a25.255323938684626,25.255323938684626 0 0,0 0.2805618584685647,0.3320967466612163 l -3.274109331618108 2.718085706476833" fill="#ff2d04" stroke="none" /><path d="M 116.38621287248628 86.86637796730983 l 12.171915236895476 -9.755843853569553 a36.599102853350225,36.599102853350225 0 0,0 0.3897733336701707,0.4949725516593581 l -12.33804265115961 9.544878907957157" fill="#ffc612" stroke="none" /><path d="M 116.60985879189232 87.15038557335679 l 6.99114378057961 -5.4084446536970345 a29.83896854462335,29.83896854462335 0 0,0 0.31078573045738067,0.4089575913880742 l -7.083205451261104 5.287302286427926" fill="#ff6d0a" stroke="none" /><path d="M 116.82858285166822 87.43820079747576 l 5.613569528215262 -4.190283510168452 a28.005043807407386,28.005043807407386 0 0,0 0.28503451903984284,0.38878676364211034 l -5.684866659768732 4.093034302854848" fill="#ff5407" stroke="none" /><path d="M 117.04232023915458 87.72973835380427 l 5.604109281504927 -4.034889980529472 a27.9055324193017,27.9055324193017 0 0,0 0.27731106921723264,0.3922368411576136 l -5.6727329705260425 3.937826639040065" fill="#ff5307" stroke="none" /><path d="M 117.2510076193507 88.02491185347247 l 1.9631450011882898 -1.3627513796512658 a23.389776060310254,23.389776060310254 0 0,0 0.22674219806506327,0.33271619714278117 l -1.9863116649220864 1.3287571592380782" fill="#ff1302" stroke="none" /><path d="M 117.45458315368197 88.32363383020206 l 1.3160966025233252 -0.8804120791992509 a22.58342530495549,22.58342530495549 0 0,0 0.21336321741172143,0.32496681812700184 l -1.3310564552929716 0.857627197094575" fill="#ff0701" stroke="none" /><line stroke="#e1ed5e" stroke-width="0.3" x1="172.23445277983987" x2="176.4835382374775" y1="55.19839476539836" y2="52.563006222186495" /><path d="M 173.08426987136738 54.67131705675599 a86.0,86.0 0 0,1 12.851231095245387,41.99856678651699" fill="none" id="id99" stroke="none" /><text fill="#e1ed5e" style="font-size:6.75px; font-family:Arial;" text-anchor="middle"><textPath startOffset="22.20632615414155" xlink:href="#id99">March</textPath></text><path d="M 118.03404312379186 89.2402003453031 l 6.078014107749679 -3.626375608003823 a28.077630644808277,28.077630644808277 0 0,0 0.24406189704786746,0.4171808958811122 l -6.1395356792678735 3.5212152997688158" fill="#ff5507" stroke="none" /><path d="M 118.21658344932153 89.55222093294921 l 6.423720540405174 -3.6842041857815553 a28.40523774525529,28.40523774525529 0 0,0 0.23960813399255879,0.42623613417869316 l -6.486186315690166 3.573084541668068" fill="#ff5a08" stroke="none" /><path d="M 118.56541770881063 90.18545643968196 l 10.591696645340525 -5.59926362734279 a32.98064234485788,32.98064234485788 0 0,0 0.2610034117159714,0.5041755157178535 l -10.686509490216611 5.416115389364591" fill="#ff970e" stroke="none" /><path d="M 119.04729006885535 91.15688171328212 l 6.384121995441851 -2.9639673548544 a28.038616066623256,28.038616066623256 0 0,0 0.19947163218608513,0.43950930055522414 l -6.434195944591283 2.853636045457113" fill="#ff5507" stroke="none" /><path d="M 119.196687751892 91.48605970444005 l 7.688739276248757 -3.4100396897718395 a29.411009591241083,29.411009591241083 0 0,0 0.20126834815082686,0.4645550971422046 l -7.746298334242264 3.2771854480430322" fill="#ff6709" stroke="none" /><path d="M 119.34039704204932 91.81776055985345 l 6.360445841692748 -2.6908801670237072 a27.906236846386612,27.906236846386612 0 0,0 0.18335502311517463,0.44400873206337077 l -6.40582255169412 2.5809968645070334" fill="#ff5307" stroke="none" /><path d="M 119.47837535516314 92.15188598940014 l 6.259634293142368 -2.522095539360268 a27.74862855649538,27.74862855649538 0 0,0 0.17469274652883474,0.4445739852671488 l -6.302120589552903 2.413972549197335" fill="#ff5107" stroke="none" /><path d="M 119.85752413597 93.16781622104841 l 6.600490760039492 -2.2709661886889 a27.980241092078046,27.980241092078046 0 0,0 0.15277572212076154,0.4567799634801276 l -6.638603775932024 2.157013122286459" fill="#ff5407" stroke="none" /><path d="M 119.97218684219823 93.5106431181261 l 6.653841743076196 -2.1619642379421498 a27.996263238904326,27.996263238904326 0 0,0 0.1449733382006002,0.4596050996330679 l -6.690070565045002 2.047108971882663" fill="#ff5407" stroke="none" /><path d="M 120.08093135843002 93.85539295169968 l 6.738710681969102 -2.061992465080627 a28.047129527781774,28.047129527781774 0 0,0 0.1372895008762006,0.4628719466877542 l -6.7732060799570055 1.9456911316463426" fill="#ff5507" stroke="none" /><path d="M 120.53481517161879 95.60439243477599 l 6.758407592954047 -1.4466800551248582 a27.911508979549616,27.911508979549616 0 0,0 0.09652159210332283,0.47067356204152605 l -6.782308480972366 1.3301308369199205" fill="#ff5307" stroke="none" /><path d="M 120.6074358757038 95.95851677861258 l 13.576463034619625 -2.6625848985361924 a34.8350896951305,34.8350896951305 0 0,0 0.1103347987431774,0.5894129067732303 l -13.620283557272662 2.4284939143003994" fill="#ffb010" stroke="none" /><path d="M 120.67395015179393 96.31383870115 l 6.789723089524954 -1.210606308845305 a27.89680413433964,27.89680413433964 0 0,0 0.08022076529560557,0.4734674978118161 l -6.809555716340783 1.0935530227176509" fill="#ff5307" stroke="none" /><path d="M 120.73433829027371 96.67025291283417 l 6.871281476097397 -1.1034656211268847 a27.95932076432522,27.95932076432522 0 0,0 0.07222039880499298,0.4758421932421106 l -6.88925776834169 0.9850243154926921" fill="#ff5307" stroke="none" /><path d="M 120.78858239683441 97.02765380044208 l 6.518084170584873 -0.9319540093213242 a27.58437237178451,27.58437237178451 0 0,0 0.06316033271970875,0.47061784126041056 l -6.533160502362418 0.8196178259962493" fill="#ff4e07" stroke="none" /><path d="M 120.83666639777658 97.38593545837742 l 7.24492356790982 -0.9089120804688643 a28.301714776330105,28.301714776330105 0 0,0 0.05648166074614792,0.483900376504065 l -7.259495581659556 0.7840679656399466" fill="#ff5808" stroke="none" /><path d="M 120.94382443527127 98.46500227214037 l 34.83579177175066 -2.5531564869201016 a55.929228397024076,55.929228397024076 0 0,0 0.062106502466555365,0.9607601041689608 l -34.87457886522163 1.9531373184981056" fill="#59ff2a" stroke="none" /><path d="M 120.98425023603335 99.18683210126433 l 6.981954418742849 -0.27056011722583007 a27.987194736261188,27.987194736261188 0 0,0 0.014511101315132096,0.48155280704957604 l -6.985577214513627 0.15033716275125497" fill="#ff5407" stroke="none" /><line stroke="#e1ed5e" stroke-width="0.3" x1="184.98032266829074" x2="189.97916517819016" y1="98.17113171792111" y2="98.06355123074" /><path d="M 185.9800911702706 98.14961562048488 a86.0,86.0 0 0,1 -9.607161424134198,41.387399972396054" fill="none" id="id100" stroke="none" /><text fill="#e1ed5e" style="font-size:6.75px; font-family:Arial;" text-anchor="middle"><textPath startOffset="21.466115282336823" xlink:href="#id100">April</textPath></text><path d="M 120.99513854157772 99.54816195383933 l 10.225119282786634 -0.22005560522235515 a31.22748692576064,31.22748692576064 0 0,0 0.006939926629245505,0.5375049655025438 l -10.227392216533596 0.044014381659348685" fill="#ff800b" stroke="none" /><path d="M 120.99824983174949 100.27111621757518 l 20.7538146080654 0.2679602234414658 a41.7555444030576,41.7555444030576 0 0,0 -0.015465333662874751,0.7186132854520517 l -20.746127211717518 -0.6251633246836323" fill="#f8ff18" stroke="none" /><path d="M 120.9764740272857 100.99374915477107 l 4.345668616354042 0.20587370922298762 a25.350542461270052,25.350542461270052 0 0,0 -0.02440128429156677,0.43570132288153207 l -4.3414809811749455 -0.280646748439943" fill="#ff2f04" stroke="none" /><path d="M 120.95626037817324 101.35467743843564 l 13.962924694444096 0.9026066061786607 a34.99206792108422,34.99206792108422 0 0,0 -0.04402908828220383,0.6007419283371654 l -13.945319047497554 -1.1428216710125965" fill="#ffb210" stroke="none" /><path d="M 120.92983693683757 101.71520430193887 l 11.202280701183792 0.918029132677057 a32.23983409114915,32.23983409114915 0 0,0 -0.050087504913516705,0.5527114429961892 l -11.1848185999932 -1.1107219642218167" fill="#ff8e0d" stroke="none" /><path d="M 120.89721153311464 102.0752229133903 l 4.672591547222918 0.46401736558703355 a25.695574925687524,25.695574925687524 0 0,0 -0.047497289534403304,0.4397659114084297 l -4.663911956187463 -0.5443795988802547" fill="#ff3404" stroke="none" /><path d="M 120.70491114924044 103.5080841355445 l 2.3077513403346472 0.39100799841425665 a23.340641686298927,23.340641686298927 0 0,0 -0.07052603586104307,0.39554746295278015 l -2.3006788621344154 -0.4306742121002552" fill="#ff1202" stroke="none" /><path d="M 120.64145759157962 103.86396538481128 l 2.1750844655033927 0.40716364367477254 a23.212865713233565,23.212865713233565 0 0,0 -0.07690098207126511,0.39211645081832214 l -2.1677535504564633 -0.4445438215610396" fill="#ff1001" stroke="none" /><path d="M 120.32669344350535 105.2749913415812 l 2.1232139699818404 0.5509964195163772 a23.19354384880857,23.19354384880857 0 0,0 -0.1036109983289558,0.385575069019503 l -2.113414895311107 -0.5874624217114285" fill="#ff1001" stroke="none" /><path d="M 120.13307415673323 105.97154293290107 l 3.317587180397544 0.9840084096029921 a24.460441770888153,24.460441770888153 0 0,0 -0.12320285104917367,0.40263404569795375 l -3.3001575568422377 -1.0409694278530028" fill="#ff2203" stroke="none" /><path d="M 120.02730092923936 106.31721596034902 l 4.515252846298351 1.4242472036760183 a25.734552604331725,25.734552604331725 0 0,0 -0.13689280678732743,0.4213127378070734 l -4.490067788494777 -1.5017588414608871" fill="#ff3405" stroke="none" /><path d="M 119.9155931802556 106.66101706037122 l 6.943748314839853 2.322422715178126 a28.321836376744336,28.321836376744336 0 0,0 -0.15861464963955624,0.46100841772426854 l -6.902742834257066 -2.441603835991695" fill="#ff5808" stroke="none" /><path d="M 119.79798401119884 107.00284435728193 l 6.657123985791366 2.3547247595136476 a28.0613050107799,28.0613050107799 0 0,0 -0.16499477968398962,0.45399477125216015 l -6.61560494510215 -2.4689673277719386" fill="#ff5507" stroke="none" /><path d="M 119.54520255179757 107.68017299344265 l 9.345168818694974 3.6721294133583986 a31.040752694811317,31.040752694811317 0 0,0 -0.19969164478818138,0.4956182857716726 l -9.2805745596494 -3.8324470669728847" fill="#ff7e0b" stroke="none" /><path d="M 119.41010516605496 108.01547362559984 l 6.018221427573031 2.485246458638112 a27.51117801257748,27.51117801257748 0 0,0 -0.18452011568167917,0.43615104711047487 l -5.974550330699043 -2.5884720314147502" fill="#ff4d07" stroke="none" /><path d="M 118.81262510543309 109.33194174019688 l 9.436476667302466 4.6809336814223705 a31.53367134585175,31.53367134585175 0 0,0 -0.24539402466008117,0.4841856911914918 l -9.354503972856117 -4.8426735843165565" fill="#ff840c" stroke="none" /><path d="M 118.64920377521936 109.65438752849418 l 28.174953713820962 14.585712346178408 a52.72650345407472,52.72650345407472 0 0,0 -0.4241909766017826,0.8024094671872073 l -27.919710228994287 -15.06853682845175" fill="#7bff26" stroke="none" /><line stroke="#e1ed5e" stroke-width="0.3" x1="174.80103733775053" x2="179.2010983576182" y1="140.37084112569926" y2="142.7455964860345" /><path d="M 175.68104954172406 140.8457921977663 a86.0,86.0 0 0,1 -30.038265399797805,32.042727171017184" fill="none" id="id101" stroke="none" /><text fill="#e1ed5e" style="font-size:6.75px; font-family:Arial;" text-anchor="middle"><textPath startOffset="22.206326154141568" xlink:href="#id101">May</textPath></text><path d="M 118.48025628344425 109.97397251340804 l 9.386619799126848 5.066049216761956 a31.666465483936776,31.666465483936776 0 0,0 -0.26301802903276633,0.4774541214453667 l -9.298025360642573 -5.2268738566051285" fill="#ff860c" stroke="none" /><path d="M 118.30583269289576 110.29060199501025 l 12.99200280578164 7.303438867560534 a35.90410534710594,35.90410534710594 0 0,0 -0.3074896036481752,0.5361340423364178 l -12.864361205981085 -7.525992755755268" fill="#ffbe11" stroke="none" /><path d="M 118.12598468904814 110.60418214915192 l 8.785129606641705 5.13953399778736 a31.17807997217082,31.17807997217082 0 0,0 -0.2749893652312438,0.4608979934863001 l -8.695359365712234 -5.289994085159765" fill="#ff7f0b" stroke="none" /><path d="M 117.94076556474637 110.91462005526583 l 52.666710497347275 32.040836416077 a82.64736484922284,82.64736484922284 0 0,0 -0.7498688305733339,1.2090273183178093 l -52.107377027105976 -32.94266006576009" fill="#4bdeff" stroke="none" /><path d="M 117.75023020441432 111.22182372390056 l 5.8216118294277575 3.680465041099338 a27.887451430775215,27.887451430775215 0 0,0 -0.26001082680735743,0.4035425772881981 l -5.75739613924335 -3.780129218308989" fill="#ff5207" stroke="none" /><path d="M 117.55443506779139 111.5257021239791 l 3.0380470832932422 1.994688270254141 a24.634351575700407,24.634351575700407 0 0,0 -0.23578229366363296,0.352462537665428 l -3.003261684218888 -2.046687722125376" fill="#ff2503" stroke="none" /><path d="M 117.14729908036423 112.12312394758627 l 11.069412972804427 7.826064318782323 a34.55651822129151,34.55651822129151 0 0,0 -0.3475730930227361,0.4827486266067895 l -10.933060087406089 -8.015446550840243" fill="#ffac0f" stroke="none" /><path d="M 116.71984013943494 112.70617746262583 l 5.470058864434399 4.156949951846964 a27.870354931336358,27.870354931336358 0 0,0 -0.29355869107259003,0.3794641803211091 l -5.39769335614374 -4.250492126281325" fill="#ff5207" stroke="none" /><path d="M 116.498646956653 112.99209946851258 l 5.780689396414383 4.552087927701643 a28.357844412553497,28.357844412553497 0 0,0 -0.30529527021017566,0.3809027908809464 l -5.701476214149354 -4.65091855216084" fill="#ff5908" stroke="none" /><path d="M 116.27256486870786 113.27417163493432 l 5.39803696560928 4.40339121406787 a27.966251306564697,27.966251306564697 0 0,0 -0.30750091879372415,0.3704046657927752 l -5.321440046922012 -4.495657136974415" fill="#ff5407" stroke="none" /><path d="M 116.0416608686014 113.55231037782055 l 2.6262144699677052 2.2186775987384952 a24.437954730564638,24.437954730564638 0 0,0 -0.2742374801441799,0.31900014482388755 l -2.5876344802527464 -2.2635548427239107" fill="#ff2203" stroke="none" /><path d="M 115.80600337817218 113.82643327865902 l 5.492304948748416 4.804439560274243 a28.29712636168338,28.29712636168338 0 0,0 -0.32385542387682453,0.363855001893389 l -5.408790675223253 -4.898268731908499" fill="#ff5808" stroke="none" /><path d="M 115.56566222782051 114.09645910891815 l 5.053614497533292 4.576616726873991 a27.817949849799533,27.817949849799533 0 0,0 -0.32448127323348863,0.35216033626517157 l -4.974086816304082 -4.662928317940497" fill="#ff5107" stroke="none" /><path d="M 115.07121518719521 114.62390073753431 l 5.417990065143049 5.257183838561088 a28.549344227044934,28.549344227044934 0 0,0 -0.34525588642736593,0.34974239014407343 l -5.326693553660148 -5.349666722685825" fill="#ff5c08" stroke="none" /><path d="M 114.55890576462653 115.13401014063108 l 12.523074492464314 13.017759674035164 a39.063484206396794,39.063484206396794 0 0,0 -0.4885989278505275,0.4620007830900809 l -12.297139730222979 -13.231395093871166" fill="#ffe615" stroke="none" /><path d="M 114.29624159901734 115.38237550388516 l 4.794791208695498 5.159067739870258 a28.043152893381887,28.043152893381887 0 0,0 -0.35641572102920205,0.3255773106249952 l -4.705275938199432 -5.240837817081836" fill="#ff5507" stroke="none" /><path d="M 114.0293411484842 115.62618273729858 l 4.568227320769295 5.08819011130637 a27.83800990515654,27.83800990515654 0 0,0 -0.35931930784070654,0.3170575118298688 l -4.4799656600220015 -5.166070764908528" fill="#ff5207" stroke="none" /><path d="M 113.48314897796784 116.09983520530334 l 2.8782737671179914 3.4368628131357757 a25.482910424578563,25.482910424578563 0 0,0 -0.3387162624342745,0.27874042429766616 l -2.818687376139026 -3.48589835629062" fill="#ff3104" stroke="none" /><path d="M 113.20401910651253 116.32954008644616 l 5.421114212241636 6.704345179138717 a29.621874713959187,29.621874713959187 0 0,0 -0.3992499852119765,0.3171883346075491 l -5.304906734312308 -6.796667427751393" fill="#ff6a09" stroke="none" /><path d="M 112.92097659922987 116.55440617244103 l 4.341893407424655 5.562850955726969 a28.05672368150193,28.05672368150193 0 0,0 -0.38326990461043636,0.2938750193881304 l -4.245494774320725 -5.636765316942471" fill="#ff5507" stroke="none" /><path d="M 112.04921762599082 117.19931262002967 l 8.209646112185434 11.71862558766569 a35.308196076068235,35.308196076068235 0 0,0 -0.5007763389353453,0.34443853224218185 l -8.006712888627204 -11.858204909272965" fill="#ffb610" stroke="none" /><line stroke="#e1ed5e" stroke-width="0.3" x1="143.8653032363475" x2="146.44561519142675" y1="172.8068346515853" y2="177.08958963109032" /><path d="M 144.38136562736335 173.6633856474863 a86.0,86.0 0 0,1 -40.68145358897372,12.25698825130547" fill="none" id="id102" stroke="none" /><text fill="#e1ed5e" style="font-size:6.75px; font-family:Arial;" text-anchor="middle"><textPath startOffset="21.466115282336833" xlink:href="#id102">June</textPath></text><path d="M 110.8373102113329 117.98757091392108 l 2.0619784671232266 3.4224344580974697 a24.995599181456114,24.995599181456114 0 0,0 -0.37044921657932456,0.2188679268504446 l -2.0027613795155204 -3.4574209572416637" fill="#ff2a04" stroke="none" /><path d="M 110.21172684928248 118.3499491758327 l 4.942085827041906 8.880674648597171 a31.163198046682204,31.163198046682204 0 0,0 -0.47097562710649604,0.25681346395428645 l -4.788487388066762 -8.964428764311227" fill="#ff7f0b" stroke="none" /><path d="M 109.89434966115114 118.52300852407294 l 3.3142011992146982 6.204447908747586 a28.03413842920641,28.03413842920641 0 0,0 -0.42759950374792344,0.223699850760303 l -3.2069107929402794 -6.260577178452606" fill="#ff5407" stroke="none" /><path d="M 109.57404056367764 118.69057910512821 l 3.92602046677299 7.664433382595359 a29.611456077909388,29.611456077909388 0 0,0 -0.4556583961619043,0.22847657914871558 l -3.793508162928325 -7.730877802653376" fill="#ff6a09" stroke="none" /><path d="M 109.2508944713604 118.85261126421891 l 1.5670868396747724 3.193602423757544 a24.55736666708844,24.55736666708844 0 0,0 -0.3810921287655938,0.18294738073801137 l -1.511882042908946 -3.2201040809951156" fill="#ff2303" stroke="none" /><path d="M 108.2653958097858 119.30500536409082 l 21.581737103673323 50.40721099642154 a75.8330037190179,75.8330037190179 0 0,0 -1.2044033834441734,0.5034407119596711 l -20.710862260731687 -50.77123675140118" fill="#43ffde" stroke="none" /><path d="M 107.59598834532513 119.57807347666477 l 22.787965035975386 58.73422042999433 a84.0,84.0 0 0,0 -1.3525191169589008,0.5114069995734765 l -21.77357569825621 -59.11777567967444" fill="#4dd2ff" stroke="none" /><path d="M 106.57524785965236 119.94407469862006 l 2.3265836517393526 7.057005170498797 a28.430633449779876,28.430633449779876 0 0,0 -0.46609810677632063,0.14922989489669342 l -2.2047641998720913 -7.096007912055197" fill="#ff5a08" stroke="none" /><path d="M 106.2309692047433 120.05430185196036 l 12.712803647618625 40.91601055257494 a63.8454816301711,63.8454816301711 0 0,0 -1.0523104267198946,0.31705249933664625 l -12.006618246458485 -41.12877842101731" fill="#34ff5b" stroke="none" /><path d="M 105.18746579009965 120.34920634021253 l 3.4556738301250074 13.55579442044579 a34.98932607346044,34.98932607346044 0 0,0 -0.584899427958905,0.14375404885991763 l -3.2218211174228912 -13.613269727619738" fill="#ffb210" stroke="none" /><path d="M 104.83641907484287 120.43548508189849 l 9.282241994586846 39.22057101991604 a61.30400982004581,61.30400982004581 0 0,0 -1.0289727725232507,0.23419085297856126 l -8.605749072670733 -39.374538606472285" fill="#31ff3d" stroke="none" /><path d="M 104.48393922423573 120.51570834832081 l 1.531389296044013 7.006681980783159 a28.17208097806136,28.17208097806136 0 0,0 -0.47464394282576705,0.09946625309575352 l -1.4105538917888678 -7.032004214605453" fill="#ff5608" stroke="none" /><path d="M 104.13013068566511 120.58985236759428 l 4.110987079046684 20.494416154056363 a41.902662707409675,41.902662707409675 0 0,0 -0.708419156990902,0.1357702174891104 l -3.7576003074840774 -20.56214356989394" fill="#f6ff19" stroke="none" /><path d="M 103.7750983002368 120.6578951692458 l 2.709672542217487 14.82772814594027 a36.07328256405872,36.07328256405872 0 0,0 -0.6117874613128038,0.10636709208475804 l -2.4540361094326335 -14.872173816546034" fill="#ffc011" stroke="none" /><path d="M 103.41894727170886 120.7198165907248 l 1.0425286575901784 6.318027409953709 a27.403462840902815,27.403462840902815 0 0,0 -0.4660730542717688,0.07279102580077375 l -0.9336197397098924 -6.335036743101589" fill="#ff4c07" stroke="none" /><path d="M 103.06178313531738 120.77559828337769 l 1.362138577259488 9.24273295551395 a30.34256570705297,30.34256570705297 0 0,0 -0.5173716785586011,0.07170300034675049 l -1.2028383075140567 -9.264810521353304" fill="#ff740a" stroke="none" /><path d="M 102.70371172650421 120.8252237178851 l 0.9529860993594447 7.340334594345007 a28.40193856111427,28.40193856111427 0 0,0 -0.4853655657982595,0.05877101063563276 l -0.8264931105098048 -7.355651133705991" fill="#ff5a08" stroke="none" /><path d="M 102.34483914955558 120.86867818915974 l 1.0834735693049866 9.64273444878783 a30.703413967528235,30.703413967528235 0 0,0 -0.5257117540784475,0.054492172815907895 l -0.9173292186209365 -9.659955990059496" fill="#ff790b" stroke="none" /><path d="M 101.98527174616119 120.90594882070398 l 1.4397582895792218 15.161407084107886 a36.22961485732482,36.22961485732482 0 0,0 -0.6213476979476665,0.05361249387368638 l -1.1785662738900136 -15.183943830260237" fill="#ffc212" stroke="none" /><path d="M 101.62511606390274 120.93702456842531 l 0.4155175857885109 5.353280356711511 a26.36938222160174,26.36938222160174 0 0,0 -0.45284672401731463,0.03123096142543207 l -0.32330810099226587 -5.359639662653228" fill="#ff3d05" stroke="none" /><path d="M 101.26447882468166 120.96189622390904 l 2.7270750429824027 45.20808330673375 a66.29026092394076,66.29026092394076 0 0,0 -1.1395988162631567,0.058904241839275784 l -1.9484881583057665 -45.24832735533522" fill="#37ff77" stroke="none" /><path d="M 100.90346689309514 120.98055641714683 l 0.3379607092761974 7.848216444829396 a28.855489724129555,28.855489724129555 0 0,0 -0.4964238657042481,0.017097841673863023 l -0.20281649189729706 -7.852871084929353" fill="#ff6008" stroke="none" /><line stroke="#e1ed5e" stroke-width="0.3" x1="102.19456741930631" x2="102.32365962044197" y1="184.97166512339345" y2="189.96999836594603" /><path d="M 102.22038585953345 185.97133177190398 a86.0,86.0 0 0,1 -42.740103519485714,-10.115201625700543" fill="none" id="id103" stroke="none" /><text fill="#e1ed5e" style="font-size:6.75px; font-family:Arial;" text-anchor="middle"><textPath startOffset="22.20632615414155" xlink:href="#id103">July</textPath></text><path d="M 100.54218724476979 120.99299961872073 l 0.4003508607914516 15.501223145738011 a36.506392224682706,36.506392224682706 0 0,0 -0.628327701266153,0.01081723119399987 l -0.13346346963263067 -15.505817854211172" fill="#ffc512" stroke="none" /><path d="M 100.18074693466247 120.99922214144158 l 0.22178198649965217 25.766684288027406 a46.76763874413824,46.76763874413824 0 0,0 -0.8050578423241975,0.0 l 0.22178198649963443 -25.766684288027406" fill="#bdff1f" stroke="none" /><path d="M 99.45781275523022 120.99299961872073 l -0.17540411429237365 6.791488623133109 a27.793753330925192,27.793753330925192 0 0,0 -0.47815797281135103,-0.0164687273901014 l 0.29228243877836774 -6.787463097316913" fill="#ff5107" stroke="none" /><path d="M 99.09653310690486 120.98055641714683 l -0.4787914743072732 11.118627163347377 a32.12893127274113,32.12893127274113 0 0,0 -0.5523298827896446,-0.028549146003489716 l 0.6701094255104066 -11.108738210581684" fill="#ff8c0c" stroke="none" /><path d="M 98.73552117531835 120.96189622390904 l -0.407206461761365 6.750464639291952 a27.7627353895322,27.7627353895322 0 0,0 -0.4767750592431423,-0.032881199518761076 l 0.5233442817834373 -6.742455095256906" fill="#ff5107" stroke="none" /><path d="M 98.37488393609728 120.93702456842531 l -0.5217401980308393 6.721789038423214 a27.742007172297264,27.742007172297264 0 0,0 -0.47578292954084594,-0.04105255315094381 l 0.6373674453132269 -6.711812232993608" fill="#ff5007" stroke="none" /><path d="M 97.65516085044442 120.86867818915974 l -2.134962141029343 19.000807742238997 a40.120375472285005,40.120375472285005 0 0,0 -0.6856239301849882,-0.08301950968993513 l 2.4617134942657204 -18.961242703823714" fill="#fff316" stroke="none" /><path d="M 97.2962882734958 120.8252237178851 l -1.386041263856369 10.675923442234 a31.765521433240195,31.765521433240195 0 0,0 -0.5416345243469157,-0.07506560968945317 l 1.569604379390116 -10.650483267051943" fill="#ff870c" stroke="none" /><path d="M 96.93821686468263 120.77559828337769 l -0.6734274474940909 4.569513092143759 a25.61886938831481,25.61886938831481 0 0,0 -0.43572101716207884,-0.06805066182541034 l 0.7519843282646869 -4.557244122971243" fill="#ff3304" stroke="none" /><path d="M 96.58105272829116 120.7198165907248 l -1.1065774145491327 6.70618153799039 a27.796865777317763,27.796865777317763 0 0,0 -0.4714229684021475,-0.08196292579011011 l 1.2218493544233302 -6.686140033679274" fill="#ff5107" stroke="none" /><path d="M 96.22490169976321 120.6578951692458 l -1.2372018149255886 6.770150963838562 a27.882267969500997,27.882267969500997 0 0,0 -0.4713861003982457,-0.09034226804969603 l 1.3535555298955293 -6.747851497440398" fill="#ff5207" stroke="none" /><path d="M 95.86986931433489 120.58985236759428 l -1.3261638658515962 6.61129641923795 a27.742992728908952,27.742992728908952 0 0,0 -0.46741465299954404,-0.09795128512360253 l 1.4397699802805268 -6.587489153387807" fill="#ff5007" stroke="none" /><path d="M 94.81253420990036 120.34920634021253 l -0.8528405404662919 3.3454925459688867 a24.452485678840134,24.452485678840134 0 0,0 -0.4069703543699912,-0.10748456948510601 l 0.9103013376477723 -3.3303166271801987" fill="#ff2203" stroke="none" /><path d="M 94.46302465271185 120.25689768951611 l -1.7784709419787936 6.506495271481821 a27.745178990158692,27.745178990158692 0 0,0 -0.45960395266832915,-0.12988866788386697 l 1.8902060627517367 -6.4749178102594325" fill="#ff5007" stroke="none" /><path d="M 94.11515582081647 120.15858648285463 l -3.6377339714371755 12.461090324911298 a33.98121259869609,33.98121259869609 0 0,0 -0.560083241870244,-0.16874848634261377 l 3.8516921877476653 -12.39662646946296" fill="#ffa50f" stroke="none" /><path d="M 93.76903079525671 120.05430185196036 l -2.007437279060979 6.460913514469125 a27.76558998689793,27.76558998689793 0 0,0 -0.45519523683074636,-0.1457391402414054 l 2.118353860982666 -6.425401527568012" fill="#ff5107" stroke="none" /><path d="M 93.42475214034765 119.94407469862007 l -0.7474539947973862 2.267181195935818 a23.387215543168136,23.387215543168136 0 0,0 -0.3812453210832101,-0.1293391122834923 l 0.786369048817822 -2.2539790967542026" fill="#ff1302" stroke="none" /><path d="M 93.08242187328487 119.8279376855182 l -2.226747182754258 6.382552328616851 a27.75983559292949,27.75983559292949 0 0,0 -0.4498156691623143,-0.1612878952866585 l 2.336282412546299 -6.343276892290234" fill="#ff5107" stroke="none" /><path d="M 92.7421414339146 119.70592522655815 l -1.420839534197891 3.857743625740406 a25.111079038875367,25.111079038875367 0 0,0 -0.4043239815183816,-0.15288073318242185 l 1.4870337364765556 -3.832714642451351" fill="#ff2b04" stroke="none" /><path d="M 91.07499286063937 119.00905698771935 l -2.903505757459021 6.184074202506873 a27.831772787915938,27.831772787915938 0 0,0 -0.4319058180322567,-0.20734103952882385 l 3.0095242434915197 -6.133178886478487" fill="#ff5207" stroke="none" /><line stroke="#e1ed5e" stroke-width="0.3" x1="58.666819895761336" x2="56.23545636021788" y1="174.27360380694188" y2="178.64263932499728" /><path d="M 58.180547188652646 175.14741091055294 a86.0,86.0 0 0,1 -31.652253787137756,-30.449443065178592" fill="none" id="id104" stroke="none" /><text fill="#e1ed5e" style="font-size:6.75px; font-family:Arial;" text-anchor="middle"><textPath startOffset="22.20632615414155" xlink:href="#id104">August</textPath></text><path d="M 89.7882731507175 118.34994917583269 l -3.209394054687462 5.767116439554245 a27.59998804738615,27.59998804738615 0 0,0 -0.4131471559836085,-0.2345957376459235 l 3.308189977592278 -5.711017536113689" fill="#ff4e07" stroke="none" /><path d="M 89.1626897886671 117.98757091392108 l -3.529699591333177 5.85853135749031 a27.83967607944666,27.83967607944666 0 0,0 -0.40834282379126324,-0.2508375139996871 l 3.630021615056749 -5.796905376662245" fill="#ff5207" stroke="none" /><path d="M 88.54995079064634 117.60387380957326 l -1.853692538229621 2.8499588890923038 a24.399770829894923,24.399770829894923 0 0,0 -0.3501080140949514,-0.23203250093563524 l 1.9024752510645342 -2.81762836706535" fill="#ff2103" stroke="none" /><path d="M 87.95078237400918 117.19931262002967 l -2.31396007875691 3.3029964284951587 a25.032889367777457,25.032889367777457 0 0,0 -0.35078548790090763,-0.2502761316849386 l 2.3704728945067046 -3.262676034966001" fill="#ff2a04" stroke="none" /><path d="M 87.36589467227662 116.77436683061367 l -4.407622315623343 5.852022890044064 a28.32620682091221,28.32620682091221 0 0,0 -0.3869511889367407,-0.29669767123152296 l 4.507702233053571 -5.7752858769851745" fill="#ff5908" stroke="none" /><path d="M 87.07902340077011 116.55440617244103 l -5.632001431900861 7.215742444190582 a30.15348999834636,30.15348999834636 0 0,0 -0.40641521011685805,-0.32288082261969453 l 5.755374134735077 -7.117727707565757" fill="#ff720a" stroke="none" /><path d="M 86.79598089348748 116.32954008644616 l -1.4827051775879938 1.8336760526090548 a23.358131147658707,23.358131147658707 0 0,0 -0.3104739116515369,-0.2554988923329204 l 1.5140492177842195 -1.8078820414189536" fill="#ff1202" stroke="none" /><path d="M 86.51685102203217 116.09983520530335 l -4.366112845211741 5.213448090689399 a27.800219288481504,27.800219288481504 0 0,0 -0.3642285754756989,-0.31040349379058885 l 4.455206897264496 -5.137520206675858" fill="#ff5107" stroke="none" /><path d="M 85.18274418774928 114.88116024355367 l -4.76588084526552 4.786435319652231 a27.754523173435942,27.754523173435942 0 0,0 -0.3356438741432147,-0.34000547244763457 l 4.847565344464268 -4.703689353223932" fill="#ff5107" stroke="none" /><path d="M 84.67929136418377 114.36230785411682 l -3.1262459567819003 2.9306808142035745 a25.285125881119026,25.285125881119026 0 0,0 -0.29493725756477446,-0.3200961422707405 l 3.1762296223424036 -2.87643341713149" fill="#ff2e04" stroke="none" /><path d="M 84.43433777217949 114.09645910891817 l -2.853374511680429 2.5840517761231445 a24.849554478844624,24.849554478844624 0 0,0 -0.2843985956748478,-0.319524837129507 l 2.8974319570036156 -2.534552769252773" fill="#ff2803" stroke="none" /><path d="M 84.19399662182784 113.82643327865904 l -6.263994666292621 5.479481576663218 a29.322400346554716,29.322400346554716 0 0,0 -0.32904967995381007,-0.38275911631164417 l 6.35738685581721 -5.370845361190044" fill="#ff6609" stroke="none" /><path d="M 83.72743513129214 113.27417163493432 l -5.294747352370582 4.319133811175408 a27.832954441840943,27.832954441840943 0 0,0 -0.2996444025663492,-0.37385246463465127 l 5.368309666991792 -4.227353512962496" fill="#ff5207" stroke="none" /><path d="M 83.50135304334701 112.99209946851258 l -3.0015322332779775 2.363600205225871 a24.820445219807564,24.820445219807564 0 0,0 -0.2614339655349435,-0.33793864210711944 l 3.0417730160309895 -2.311583569005499" fill="#ff2703" stroke="none" /><path d="M 83.28015986056508 112.70617746262583 l -6.042825247970249 4.592221536571516 a28.589745425141608,28.589745425141608 0 0,0 -0.29439096839250517,-0.394384810846248 l 6.120977483057839 -4.487523846215961" fill="#ff5c08" stroke="none" /><path d="M 83.06392112726016 112.41649034213515 l -6.839241893065032 5.014111090935786 a29.480362003128228,29.480362003128228 0 0,0 -0.29651658014966653,-0.4118355957549043 l 6.924538265590306 -4.895641889729743" fill="#ff6809" stroke="none" /><path d="M 82.44556493220864 111.52570212397912 l -3.649364148666007 2.396060252410336 a25.365657272708138,25.365657272708138 0 0,0 -0.23649868244004404,-0.36705120709387756 l 3.690067694483097 -2.33288744539501" fill="#ff2f04" stroke="none" /><path d="M 82.05923443525364 110.91462005526583 l -5.924107589437216 3.604048181326205 a27.934278190594053,27.934278190594053 0 0,0 -0.24637916878399096,-0.4129456585852805 l 5.985267633919438 -3.5015404288548133" fill="#ff5307" stroke="none" /><line stroke="#e1ed5e" stroke-width="0.3" x1="26.63291911575756" x2="22.317208475507996" y1="142.92168965132927" y2="145.44649492493687" /><path d="M 25.769776987707644 143.4266507060508 a86.0,86.0 0 0,1 -11.730757126820373,-40.83630448921669" fill="none" id="id105" stroke="none" /><text fill="#e1ed5e" style="font-size:6.75px; font-family:Arial;" text-anchor="middle"><textPath startOffset="21.46611528233685" xlink:href="#id105">September</textPath></text><path d="M 81.87401531095188 110.60418214915194 l -5.905526156069351 3.4548895477870496 a27.84189308360102,27.84189308360102 0 0,0 -0.23844328068688467,-0.4157459583215307 l 5.964121432908613 -3.352723743607212" fill="#ff5207" stroke="none" /><path d="M 81.69416730710424 110.29060199501025 l -6.108866691142449 3.4340921177280705 a28.00794127566661,28.00794127566661 0 0,0 -0.23263074672251627,-0.42229237746945464 l 6.167073847316481 -3.328429221860793" fill="#ff5407" stroke="none" /><path d="M 81.18737489456691 109.33194174019688 l -4.596509653561554 2.2800837232918165 a26.130953398785145,26.130953398785145 0 0,0 -0.1964136140738465,-0.4046702207829242 l 4.6350765242501195 -2.2006245465436076" fill="#ff3a05" stroke="none" /><path d="M 81.02952815118164 109.00673069616217 l -9.276850062783137 4.4044286768421745 a31.269320282119416,31.269320282119416 0 0,0 -0.22666591719541937,-0.48821822049229147 l 9.351290596818384 -4.244090389071055" fill="#ff810b" stroke="none" /><path d="M 80.87730276802145 108.67885076344099 l -2.4454562046102093 1.1098721687048798 a23.68553016731003,23.68553016731003 0 0,0 -0.16530121947073834,-0.37271061165904934 l 2.464198508812227 -1.0676132205531348" fill="#ff1702" stroke="none" /><path d="M 80.73074385275274 108.34839909993369 l -6.4393343511999115 2.7898395605379465 a28.017708433675892,28.017708433675892 0 0,0 -0.18791746391063266,-0.4441813747632766 l 6.48640279630285 -2.678583660108511" fill="#ff5407" stroke="none" /><path d="M 80.58989483394504 108.01547362559985 l -3.0935517532288013 1.277493464115702 a24.346946668347634,24.346946668347634 0 0,0 -0.15662899265278893,-0.38874031471402215 l 3.115083360138978 -1.2240537815588743" fill="#ff2003" stroke="none" /><path d="M 80.45479744820244 107.68017299344265 l -1.0335070465024725 0.406110547386011 a22.110433515285102,22.110433515285102 0 0,0 -0.1361431206758934,-0.3554267277077404 l 1.040344446771875 -0.3882602528451128" fill="#ff0000" stroke="none" /><path d="M 80.32549172779594 107.34259656027581 l -6.441341193591505 2.4039314750472016 a27.875300932248816,27.875300932248816 0 0,0 -0.1639011134433895,-0.4509854714689987 l 6.481766568040118 -2.292698206572086" fill="#ff5207" stroke="none" /><path d="M 80.20201598880116 107.00284435728193 l -10.41683667273986 3.6845916166595885 a32.04928511932316,32.04928511932316 0 0,0 -0.17948999008319763,-0.5216819285837455 l 10.478717493766288 -3.504736984986546" fill="#ff8b0c" stroke="none" /><path d="M 80.0844068197444 106.66101706037122 l -6.500928092138002 2.17431600143893 a27.854904531301834,27.854904531301834 0 0,0 -0.14817184206423833,-0.45602603899404 l 6.53739218521849 -2.0620910624670867" fill="#ff5207" stroke="none" /><path d="M 79.86692584326677 105.97154293290107 l -3.2254254843495764 0.9566729157566457 a24.364311612029127,24.364311612029127 0 0,0 -0.11579703314675725,-0.4031046635274327 l 3.241415154382438 -0.9010107767246169" fill="#ff2103" stroke="none" /><path d="M 79.67330655649465 105.27499134158121 l -6.676061928514079 1.7325084852904973 a27.89720149951839,27.89720149951839 0 0,0 -0.11662184068993532,-0.46584628212392537 l 6.704895083499073 -1.6173343637691802" fill="#ff5307" stroke="none" /><path d="M 79.58551787078972 104.9243191809786 l -6.619840743703913 1.5968178150647931 a27.80970767408636,27.80970767408636 0 0,0 -0.10824522699602458,-0.46631760485808044 l 6.646346536630493 -1.4826315528581386" fill="#ff5107" stroke="none" /><path d="M 79.4281124754447 104.21870165774334 l -6.742364660428243 1.3826648107086437 a27.882677036805056,27.882677036805056 0 0,0 -0.09237141477468445,-0.47099985387638793 l 6.7651660081785945 -1.2664012297643008" fill="#ff5207" stroke="none" /><path d="M 79.35854240842038 103.8639653848113 l -1.4026584703316596 0.26256981862970913 a22.427022667671537,22.427022667671537 0 0,0 -0.06776544647635323,-0.38006461163359434 l 1.4069703591472014 -0.2383864562629011" fill="#ff0500" stroke="none" /><path d="M 79.29508885075956 103.50808413554451 l -4.5987265746835995 0.7791735798367003 a25.664268171558824,25.664268171558824 0 0,0 -0.07004908700929123,-0.43619573167393877 l 4.611457416054182 -0.6998986184695478" fill="#ff3304" stroke="none" /><path d="M 79.23777060512086 103.15116336523772 l -6.050469856058538 0.9183030680505497 a27.119760289738814,27.119760289738814 0 0,0 -0.06607658435365905,-0.4621394770709123 l 6.0653804914287965 -0.8140181189992368" fill="#ff4806" stroke="none" /><path d="M 79.18660465613746 102.79330883721812 l -1.7269209004879553 0.2317653286652307 a22.74240378905506,22.74240378905506 0 0,0 -0.04873208793363049,-0.3884426887600389 l 1.730654497668434 -0.20200488561778318" fill="#ff0901" stroke="none" /><path d="M 79.1416061653843 102.43462659150553 l -6.812558747477727 0.7951732436501135 a27.85880872858052,27.85880872858052 0 0,0 -0.051495944655519175,-0.4767884916647703 l 6.825236993634298 -0.6777884301005612" fill="#ff5207" stroke="none" /><path d="M 79.0235259727143 100.99374915477108 l -6.797205579580781 0.3220139519505177 a27.804828923370145,27.804828923370145 0 0,0 -0.018533728636401098,-0.47827318333355295 l 6.8017414410683825 -0.204963521602968" fill="#ff5107" stroke="none" /><line stroke="#e1ed5e" stroke-width="0.3" x1="15.007084014347285" x2="10.007500721073583" y1="101.09737516637583" y2="101.16192664675087" /><path d="M 14.007167355692545 101.11028546245083 a86.0,86.0 0 0,1 10.666146001902534,-42.60595125391555" fill="none" id="id106" stroke="none" /><text fill="#e1ed5e" style="font-size:6.75px; font-family:Arial;" text-anchor="middle"><textPath startOffset="22.20632615414155" xlink:href="#id106">October</textPath></text><path d="M 79.00175016825051 100.2711162175752 l -6.7326936912226945 0.08692831365863682 a27.733254849739865,27.733254849739865 0 0,0 -0.0020545095114592386,-0.4773956555591864 l 6.733192498023657 0.028976820104224945" fill="#ff5007" stroke="none" /><path d="M 79.00019446554 99.90962569577889 l -6.726895909448052 -0.028949722243220795 a27.72695820285565,27.72695820285565 0 0,0 0.0061619769800059865,-0.4772519078383378 l 6.72540092535033 0.14473788814203056" fill="#ff5007" stroke="none" /><path d="M 79.00486145842228 99.54816195383935 l -6.888599002450765 -0.14825008693739483 a27.890194068735845,27.890194068735845 0 0,0 0.014460807367226271,-0.4798837957687913 l 6.885026500627894 0.2668040301311806" fill="#ff5207" stroke="none" /><path d="M 79.01574976396665 99.18683210126434 l -6.73987426674167 -0.2611791859886263 a27.744932890598708,27.744932890598708 0 0,0 0.02260074721723171,-0.4770660530611983 l 6.734379911290939 0.3771563456728337" fill="#ff5007" stroke="none" /><path d="M 79.03285615573316 98.82574320788736 l -8.202521949145154 -0.4593790734101552 a29.2153755519328,29.2153755519328 0 0,0 0.03244215673596138,-0.5018658054668533 l 8.193399201404779 0.6005039431300204" fill="#ff6509" stroke="none" /><path d="M 79.05617556472873 98.46500227214037 l -5.109126906147274 -0.3744539693082567 a26.122830615806922,26.122830615806922 0 0,0 0.03672809800131163,-0.44817582447684734 l 5.101924324326466 0.4623437109928824" fill="#ff3a05" stroke="none" /><path d="M 79.08570108090925 98.10471618934814 l -6.795620302912175 -0.6158288735028958 a27.82346689761092,27.82346689761092 0 0,0 0.047330200527048845,-0.4766086601764733 l 6.784012976702897 0.7327130643837995" fill="#ff5207" stroke="none" /><path d="M 79.12142395522702 97.74499172005258 l -6.692670355966663 -0.7228475273073918 a27.731593053755503,27.731593053755503 0 0,0 0.055343870263381854,-0.4741524824846515 l 6.679236132699692 0.837943748116905" fill="#ff5007" stroke="none" /><path d="M 79.16333360222342 97.38593545837743 l -6.812786385973217 -0.8546982987221922 a27.866190175252985,27.866190175252985 0 0,0 0.06380561498292597,-0.47542594363481616 l 6.797064771932457 0.9718425844216677" fill="#ff5207" stroke="none" /><path d="M 79.21141760316559 97.0276538004421 l -6.750195133650168 -0.9651411755153909 a27.818843877889393,27.818843877889393 0 0,0 0.07185753960512606,-0.47345140448492784 l 6.73258170060574 1.0811916923924108" fill="#ff5107" stroke="none" /><path d="M 79.26566170972629 96.67025291283419 l -6.863209957077515 -1.1021694082181663 a27.9511458277999,27.9511458277999 0 0,0 0.08037703166274385,-0.4743897907564112 l 6.843221063894548 1.2201449872904053" fill="#ff5307" stroke="none" /><path d="M 79.32604984820605 96.31383870115002 l -6.691431779583726 -1.1930809873630313 a27.796962667488337,27.796962667488337 0 0,0 0.08804261187298042,-0.4703271531291928 l 6.669903443800884 1.3080862179547967" fill="#ff5107" stroke="none" /><path d="M 79.3925641242962 95.95851677861259 l -6.787385657716142 -1.331126561217966 a27.91668287465536,27.91668287465536 0 0,0 0.09653948409882313,-0.47076080976579565 l 6.763466877702324 1.447763027147164" fill="#ff5307" stroke="none" /><path d="M 79.46518482838121 95.60439243477599 l -28.09964366665122 -6.014907134491344 a49.7361981136915,49.7361981136915 0 0,0 0.1864056171774377,-0.8356198313380239 l 27.991943662471744 6.497705135379327" fill="#9bff22" stroke="none" /><path d="M 79.54389044137918 95.25157060432595 l -6.796132647701544 -1.577570551661723 a27.9768293522649,27.9768293522649 0 0,0 0.11292940389393043,-0.46816528598717894 l 6.767970443546798 1.6943210693082988" fill="#ff5407" stroke="none" /><path d="M 79.62865764111835 94.90015583598534 l -6.8041063232708225 -1.7033674714587077 a28.014080381717736,28.014080381717736 0 0,0 0.12113244085428719,-0.4667727076440231 l 6.773777550546228 1.8202366046515945" fill="#ff5407" stroke="none" /><path d="M 79.71946130924805 94.55025226153421 l -6.576784450868827 -1.7673009940235673 a27.81009886247378,27.81009886247378 0 0,0 0.12820883246404113,-0.46123538498101624 l 6.545388847838425 1.8802476824235261" fill="#ff5107" stroke="none" /><path d="M 79.81627453868168 94.20196356495316 l -6.566764805144846 -1.8863882028905807 a27.83233931081396,27.83233931081396 0 0,0 0.13623811193989016,-0.45932718586796184 l 6.533320796093249 1.999144775505082" fill="#ff5207" stroke="none" /><path d="M 79.91906864156998 93.8553929516997 l -6.574679826162983 -2.0118003133952937 a27.875591270395,27.875591270395 0 0,0 0.1443484613035421,-0.4576240691063795 l 6.539075881091238 2.1246745489280876" fill="#ff5207" stroke="none" /><path d="M 80.02781315780177 93.51064311812611 l -6.606253173305447 -2.146501774308078 a27.946225655484856,27.946225655484856 0 0,0 0.15258999345345797,-0.45622465840487936 l 6.568325886080217 2.259899535635279" fill="#ff5307" stroke="none" /><path d="M 80.14247586403 93.16781622104843 l -6.485403237210744 -2.2313691522584578 a27.858532163872546,27.858532163872546 0 0,0 0.15991715359598407,-0.4521073278913506 l 6.446033002804951 2.34267410657642" fill="#ff5207" stroke="none" /><path d="M 80.2630227832202 92.82701384747504 l -6.495175035278231 -2.360533736983151 a27.910818928487217,27.910818928487217 0 0,0 0.16799044970108112,-0.45013088560200615 l 6.453579997075522 2.471987759614499" fill="#ff5307" stroke="none" /><path d="M 80.38941819471856 92.48833698450439 l -6.493188930880456 -2.4871596176501236 a27.953234172367416,27.953234172367416 0 0,0 0.1759808504406905,-0.447852069222608 l 6.449414530558075 2.5985606917684954" fill="#ff5307" stroke="none" /><path d="M 80.52162464483688 92.15188598940014 l -6.511935053798524 -2.623751098332015 a28.02063871530849,28.02063871530849 0 0,0 0.18410668868140517,-0.44582894985357263 l 6.465806678230919 2.735454618638899" fill="#ff5407" stroke="none" /><path d="M 80.65960295795068 91.81776055985345 l -6.36501640691055 -2.69281381186603 a27.911199612629993,27.911199612629993 0 0,0 0.19100469922715715,-0.44086518033921657 l 6.317720997840713 2.801978136791846" fill="#ff5307" stroke="none" /><path d="M 80.803312248108 91.48605970444005 l -6.280104965250651 -2.7852950162573644 a27.870049978140916,27.870049978140916 0 0,0 0.19827242346904023,-0.4368670031083577 l 6.231230224818259 2.8929840282077928" fill="#ff5207" stroke="none" /><path d="M 80.95270993114464 91.15688171328213 l -6.911217756828688 -3.208683015167303 a28.619749180526043,28.619749180526043 0 0,0 0.21129798117832424,-0.4450474360650687 l 6.854961581808612 3.327172866872904" fill="#ff5d08" stroke="none" /><path d="M 81.10775173730289 90.83032412892265 l -6.296151539643967 -3.0559448537268747 a27.998594370241847,27.998594370241847 0 0,0 0.2141758969980143,-0.4317655391576085 l 6.24261562969254 3.1638699813834448" fill="#ff5407" stroke="none" /><path d="M 81.26839172434947 90.50648371742162 l -6.2032356553170525 -3.1439115014473047 a27.954445493662988,27.954445493662988 0 0,0 0.22122691153745466,-0.4273399779786886 l 6.148199310619484 3.250224201686329" fill="#ff5307" stroke="none" /><path d="M 81.43458229118936 90.18545643968196 l -6.124400299076373 -3.237642936931293 a27.927525590742185,27.927525590742185 0 0,0 0.22832999775234744,-0.42306080851829087 l 6.067762202105554 3.342584728782057" fill="#ff5307" stroke="none" /><path d="M 81.6062741919709 89.86733742301443 l -22.099542176025803 -12.174107970979087 a46.23090702450072,46.23090702450072 0 0,0 0.3899739007385902,-0.6937200549567609 l 21.886710633994785 12.552711535870632" fill="#c3ff1e" stroke="none" /><line stroke="#e1ed5e" stroke-width="0.3" x1="26.266209847984243" x2="21.928928074336255" y1="57.711370442889674" y2="55.22380399835377" /><path d="M 25.398753493254645 57.213857153982495 a86.0,86.0 0 0,1 29.58750427330803,-30.492523968695096" fill="none" id="id107" stroke="none" /><text fill="#e1ed5e" style="font-size:6.75px; font-family:Arial;" text-anchor="middle"><textPath startOffset="21.46611528233685" xlink:href="#id107">November</textPath></text><path d="M 82.15384107792192 88.93136811851018 l -2.8648005294161125 -1.776820581530029 a24.371078974496378,24.371078974496378 0 0,0 0.2241819003610926,-0.3546019289714282 l 2.833791032809057 1.825870158215673" fill="#ff2103" stroke="none" /><path d="M 82.7489923806493 88.02491185347247 l -23.88139879376623 -16.57768994878517 a50.071309093072365,50.071309093072365 0 0,0 0.4975833484582629,-0.7037963589510013 l 23.592502825504088 16.98631280806796" fill="#98ff23" stroke="none" /><path d="M 82.95767976084542 87.72973835380427 l -2.848844221206777 -2.0511329145868658 a24.510421574398844,24.510421574398844 0 0,0 0.24946635588102314,-0.34027182906578896 l 2.8131152528121204 2.0998671873241554" fill="#ff2303" stroke="none" /><path d="M 83.84228863543731 86.58626213691792 l -4.696324937615868 -3.8987744125196233 a27.103761941572625,27.103761941572625 0 0,0 0.3010961902638338,-0.3564029186451551 l 4.62851813386491 3.9790362807938946" fill="#ff4806" stroke="none" /><path d="M 84.31358615837235 86.03803664274999 l -5.753241867601107 -5.1207722142123755 a28.702084137229857,28.702084137229857 0 0,0 0.33165444016534107,-0.3662211163869252 l 5.66424378681972 5.2190461178688565" fill="#ff5e08" stroke="none" /><path d="M 84.5562425177563 85.77008943001954 l -3.1858147091578317 -2.9354163619809746 a25.331983908011665,25.331983908011665 0 0,0 0.29823305816090667,-0.3181342327474175 l 3.134814329026469 2.9898200116064424" fill="#ff2f04" stroke="none" /><path d="M 84.80347519578584 85.50635884689758 l -4.589741967957217 -4.377452998363067 a27.342540980183383,27.342540980183383 0 0,0 0.3277664136130535,-0.3377921007094089 l 4.513711290641045 4.455809294622599" fill="#ff4b07" stroke="none" /><path d="M 85.05521093208273 85.24692304244772 l -5.34668538654413 -5.2780979789699085 a28.51301290417438,28.51301290417438 0 0,0 0.3478101493055668,-0.3463165419907473 l 5.255039437071249 5.369350371610765" fill="#ff5b08" stroke="none" /><path d="M 85.31137513191541 84.99185889309783 l -4.106971284399161 -4.196308715881552 a26.87164542269565,26.87164542269565 0 0,0 0.3333578049675061,-0.3206899442596947 l 4.0341302358192275 4.266381746903561" fill="#ff4406" stroke="none" /><path d="M 85.57189188830299 84.74124197986013 l -3.975797000905838 -4.2046901717375995 a26.786741849496885,26.786741849496885 0 0,0 0.3377580028842462,-0.3139092534839761 l 3.9028311142267356 4.272504011296223" fill="#ff4306" stroke="none" /><path d="M 86.37877921826538 84.01681056812374 l -2.7233069865333324 -3.195538207946975 a25.198555154020276,25.198555154020276 0 0,0 0.33255188764080396,-0.27850264221887094 l 2.667897561933418 3.2419420075596586" fill="#ff2d04" stroke="none" /><path d="M 86.65592168130627 83.78471172551755 l -4.978303174902992 -6.049471471232003 a28.834513870209122,28.834513870209122 0 0,0 0.3859658977600265,-0.3120909138595849 l 4.873433878578465 6.134268482355722" fill="#ff6008" stroke="none" /><path d="M 87.80319425747018 82.90503203632743 l -4.418676414698844 -6.193189704392603 a28.60791035517706,28.60791035517706 0 0,0 0.40332911513095604,-0.28255782021495646 l 4.311416159984227 6.268332367371502" fill="#ff5c08" stroke="none" /><line stroke="#e1ed5e" stroke-width="0.3" x1="56.762969772571076" x2="54.21961505331055" y1="26.818313649435495" y2="22.513508569990535" /><path d="M 56.25429882871897 25.957352633546506 a86.0,86.0 0 0,1 42.265352541879196,-11.944610805530505" fill="none" id="id108" stroke="none" /><text fill="#e1ed5e" style="font-size:6.75px; font-family:Arial;" text-anchor="middle"><textPath startOffset="22.20632615414155" xlink:href="#id108">December</textPath></text><path d="M 89.94658935756843 81.56283822128135 l -3.693893660113395 -6.77430947836242 a28.71596522029855,28.71596522029855 0 0,0 0.4360108454387189,-0.23290189362155808 l 3.576737768146371 6.836890098485727" fill="#ff5e08" stroke="none" /><path d="M 90.26544431104013 81.39251694778311 l -3.812734379059465 -7.2879947074948745 a29.22507205450112,29.22507205450112 0 0,0 0.4477552587142113,-0.22935763442201926 l 3.68671863275649 7.352544867229399" fill="#ff6509" stroke="none" /><path d="M 91.23893434514133 80.91482961587045 l -3.089940330412026 -6.731148927071746 a28.40649020278336,28.40649020278336 0 0,0 0.446141353356016,-0.20017062054254003 l 2.9736168585892355 6.783339878130815" fill="#ff5a08" stroke="none" /><path d="M 94.63758080256005 79.69619591428918 l -0.89052486071238 -3.371806947504417 a24.48742263265952,24.48742263265952 0 0,0 0.40846316605878097,-0.10412635584015541 l 0.8323528059685996 3.3866362995134356" fill="#ff2203" stroke="none" /><path d="M 96.04723909329186 79.375362276772 l -1.286845174806003 -6.7144753155234325 a27.836676770675574,27.836676770675574 0 0,0 0.4713741939016186,-0.08614062098749978 l 1.1710758598014912 6.7356314178616685" fill="#ff5207" stroke="none" /><path d="M 96.40284397218896 79.31037775812273 l -1.2654982155461425 -7.278716804328427 a28.387909315304533,28.387909315304533 0 0,0 0.48214943578795194,-0.07955878812079269 l 1.1400195736193048 7.299421855388847" fill="#ff5908" stroke="none" /><path d="M 96.75951476605007 79.25152402106235 l -0.6915088448509007 -4.427656236878742 a25.481330632131293,25.481330632131293 0 0,0 0.4339482978097056,-0.06395269882054204 l 0.6151915666125463 4.438903419860253" fill="#ff3104" stroke="none" /><path d="M 98.19473922651362 79.07773832637324 l -0.14639910800519093 -1.6967080277021591 a22.703012281251567,22.703012281251567 0 0,0 0.38963754081859425,-0.030243372195244547 l 0.11717137782426253 1.698976662085866" fill="#ff0901" stroke="none" /><path d="M 98.55514903715128 79.0497635885617 l -0.4635948771625178 -6.722092814706038 a27.738059959636296,27.738059959636296 0 0,0 0.47661641547613576,-0.02875080376449105 l 0.34781641284675907 6.729076887850836" fill="#ff5007" stroke="none" /><path d="M 98.91598698831166 79.02799685794201 l -0.3605006054792156 -6.97447332209477 a27.983783989153913,27.983783989153913 0 0,0 0.48126667295808506,-0.020724355308916517 l 0.2403931001318064 6.979645403927879" fill="#ff5407" stroke="none" /><path d="M 99.27714615592234 79.0124445844662 l -0.11800069628208422 -3.426067624295211 a24.428099113293968,24.428099113293968 0 0,0 0.420364970112573,-0.010856786980543463 l 0.05900909097463219 3.427591203418114" fill="#ff2203" stroke="none" /><path d="M 99.63851952072746 79.00311137660856 l -0.16563663000332435 -9.62113882091969 a30.62256450768748,30.62256450768748 0 0,0 0.5271171092758578,-0.004537063376347803 l 2.3568485647856794e-15 9.622564507687478" fill="#ff780b" stroke="none" /></svg>