<?xml version="1.0" encoding="utf-8" ?>
<svg baseProfile="full" height="200mm" version="1.1" viewBox="0,0,200,200" width="200mm" xmlns="http://www.w3.org/2000/svg" xmlns:ev="http://www.w3.org/2001/xml-events" xmlns:xlink="http://www.w3.org/1999/xlink"><defs /><rect fill="#1a1a1a" height="200" width="200" x="0" y="0" /><rect fill="#1a1a1a" height="200" width="180" x="10" y="0" /><text alignment-baseline="middle" fill="#e1ed5e" style="dominant-baseline: central; font-size:9.0px; font-family:Arial;" text-anchor="middle" x="100.0" y="100.0">2017</text><line stroke="#e1ed5e" stroke-width="0.3" x1="100.0" x2="100.0" y1="15.0" y2="10.0" /><path d="M 100.0 14.0 a86.0,86.0 0 0,1 42.46469731375804,11.215312516191453" fill="none" id="id49" stroke="none" /><text fill="#e1ed5e" style="font-size:6.75px; font-family:Arial;" text-anchor="middle"><textPath startOffset="22.20632615414155" xlink:href="#id49">January</textPath></text><path d="M 100.0 79.0 l 0.0 -3.855296999725354 a24.855296999725354,24.855296999725354 0 0,0 0.4278430796153218,0.003682580461129948 l -0.06636260034279341 3.854725795872783" fill="#ff2603" stroke="none" /><path d="M 100.36148047927253 79.00311137660856 l 0.5136927646657665 -29.838263432746412 a50.842684948550485,50.842684948550485 0 0,0 0.8749139112183304,0.02259644507930212 l -1.0272333110789649 29.82500019552475" fill="#90ff24" stroke="none" /><path d="M 101.80526077348638 79.07773832637324 l 0.25026944447489025 -2.900524335940973 a23.911301464675823,23.911301464675823 0 0,0 0.40976555122414615,0.0389121765470818 l -0.3001601227892806 2.895786614878713" fill="#ff1902" stroke="none" /><path d="M 102.88285421437855 79.19881850522331 l 1.145807175665152 -8.267550575451516 a29.34657214678304,29.34657214678304 0 0,0 0.4997735484656205,0.07365362967159718 l -1.2879497045594284 8.246602461618949" fill="#ff6509" stroke="none" /><path d="M 103.59715602781102 79.31037775812273 l 2.023687276888984 -11.639563302458424 a32.81417555594038,32.81417555594038 0 0,0 0.5556609964132538,0.10154349539881655 l -2.2237433944051386 11.603004325708868" fill="#ff940d" stroke="none" /><path d="M 104.66035177308747 79.52364482259891 l 0.448265927438947 -1.9695621255830673 a23.019930025578606,23.019930025578606 0 0,0 0.38561267194184495,0.09126206080288463 l -0.4821022863433155 1.961554152639314" fill="#ff0c01" stroke="none" /><path d="M 107.76421540070413 80.48803036053334 l 5.936751536179253 -14.919436124927874 a37.05722868642437,37.05722868642437 0 0,0 0.5906501042713412,0.24094100787318223 l -6.192685510038982 14.815034230871113" fill="#ffcb13" stroke="none" /><line stroke="#e1ed5e" stroke-width="0.3" x1="143.23703022742887" x2="145.7803849466894" y1="26.81831364943548" y2="22.513508569990506" /><path d="M 143.74570117128098 25.957352633546492 a86.0,86.0 0 0,1 28.547481713284135,27.462654790039103" fill="none" id="id50" stroke="none" /><text fill="#e1ed5e" style="font-size:6.75px; font-family:Arial;" text-anchor="middle"><textPath startOffset="19.985693538727396" xlink:href="#id50">February</textPath></text><path d="M 111.2981086023043 82.29822771554956 l 4.275494994755771 -6.698806097955041 a28.946940328716536,28.946940328716536 0 0,0 0.41770844867885426,0.27168919433714167 l -4.390170469218906 6.624217979458371" fill="#ff6008" stroke="none" /><path d="M 111.60114157652 82.49532879139004 l 5.131719806859148 -7.743123153982473 a30.289268235649672,30.289268235649672 0 0,0 0.43212012253627086,0.2917694356791527 l -5.264244623801961 7.65364180600465" fill="#ff720a" stroke="none" /><path d="M 111.90073688211348 82.69761687909136 l 1.4408678921541056 -2.0948659350780443 a23.542550602955824,23.542550602955824 0 0,0 0.3319150537291125,0.23252770643095644 l -1.4767140854668692 2.0697533858831525" fill="#ff1302" stroke="none" /><path d="M 112.19680574252982 82.90503203632743 l 2.0651161910999525 -2.8944541606508167 a24.55563915082113,24.55563915082113 0 0,0 0.3419719847420911,0.2484571903015281 l -2.114633492195832 2.858477735532614" fill="#ff2203" stroke="none" /><path d="M 114.16331599549186 84.49514656593476 l 5.529818218583415 -6.053597972639322 a29.19908153056914,29.19908153056914 0 0,0 0.3681755518917241,0.3421790502621777 l -5.633201654269986 5.957514336302504" fill="#ff6309" stroke="none" /><path d="M 115.9244219780498 86.31012108654704 l 6.235864583655249 -5.360837033118158 a29.223416613630672,29.223416613630672 0 0,0 0.3246434730287755,0.3842754742435329 l -6.327218670171142 5.252702609245518" fill="#ff6409" stroke="none" /><path d="M 116.38621287248628 86.86637796730983 l 10.22461532603865 -8.195074369338858 a34.103511074687546,34.103511074687546 0 0,0 0.36319576615582977,0.4612217399103835 l -10.364165172788445 8.017860235475437" fill="#ffa50f" stroke="none" /><path d="M 116.60985879189232 87.15038557335679 l 7.694820746379605 -5.95281879948169 a30.72863392149055,30.72863392149055 0 0,0 0.3200519791750206,0.42115088852302274 l -7.796148665778739 5.819483135077634" fill="#ff780b" stroke="none" /><path d="M 116.82858285166822 87.43820079747576 l 11.254474535919845 -8.400971757175189 a35.04419892854425,35.04419892854425 0 0,0 0.35667883454951527,0.4865095294818023 l -11.397415982982986 8.205999784021893" fill="#ffb210" stroke="none" /><path d="M 117.2510076193507 88.02491185347247 l 12.06625988945802 -8.376004982635784 a35.688501870139206,35.688501870139206 0 0,0 0.34596694465219036,0.5076638011983705 l -12.208651299778943 8.167063158167007" fill="#ffba11" stroke="none" /><path d="M 117.65298651832404 88.62581576622439 l 9.857460134337394 -6.351365392403679 a32.726438617409556,32.726438617409556 0 0,0 0.3010402292397232,0.4761733476898158 l -9.965327959823073 6.180744396999657" fill="#ff930d" stroke="none" /><line stroke="#e1ed5e" stroke-width="0.3" x1="172.23445277983987" x2="176.4835382374775" y1="55.19839476539836" y2="52.563006222186495" /><path d="M 173.08426987136738 54.67131705675599 a86.0,86.0 0 0,1 12.851231095245387,41.99856678651699" fill="none" id="id51" stroke="none" /><text fill="#e1ed5e" style="font-size:6.75px; font-family:Arial;" text-anchor="middle"><textPath startOffset="22.20632615414155" xlink:href="#id51">March</textPath></text><path d="M 118.21658344932153 89.55222093294921 l 10.860418517651608 -6.228788925420441 a33.51984432235442,33.51984432235442 0 0,0 0.28275163270344333,0.5029836043044025 l -10.966027791647484 6.040921811181245" fill="#ff9e0e" stroke="none" /><path d="M 118.3937258080291 89.86733742301442 l 3.2000161367982147 -1.7628121726665875 a24.653438111131823,24.653438111131823 0 0,0 0.2015616976238173,0.37346321378034963 l -3.229885933640497 1.7074679755537792" fill="#ff2303" stroke="none" /><path d="M 118.56541770881063 90.18545643968196 l 16.678577154604355 -8.817071857764118 a39.86572797553983,39.86572797553983 0 0,0 0.3154908537971225,0.6094279108141508 l -16.827877441561593 8.528671224689623" fill="#ffef16" stroke="none" /><path d="M 118.89224826269711 90.83032412892265 l 9.49010102648023 -4.606182873873514 a31.54888326603185,31.54888326603185 0 0,0 0.2329236116114844,0.49059652898066386 l -9.567982831933472 4.44214392925231" fill="#ff830c" stroke="none" /><path d="M 119.04729006885535 91.15688171328212 l 8.310941984518506 -3.858535402016044 a30.16297179514613,30.16297179514613 0 0,0 0.21458467141403556,0.47280887918474873 l -8.376128972895888 3.7149045139892327" fill="#ff710a" stroke="none" /><path d="M 119.97218684219823 93.5106431181261 l 11.243727212032052 -3.6533084302591177 a32.822354423091554,32.822354423091554 0 0,0 0.16996433587274137,0.5388333916597094 l -11.304947031673 3.4592248721729892" fill="#ff940d" stroke="none" /><path d="M 120.37134235888165 94.90015583598534 l 28.87837090546489 -7.229528066140197 a50.76955461898464,50.76955461898464 0 0,0 0.2049329989074623,0.8495795845326484 l -28.998536704633175 6.731363249948142" fill="#91ff24" stroke="none" /><path d="M 120.53481517161879 95.60439243477599 l 8.167226434821057 -1.7482466729680808 a29.35224245739932,29.35224245739932 0 0,0 0.10150383398714573,0.49496874287423714 l -8.1961095647232 1.607402273930432" fill="#ff6509" stroke="none" /><path d="M 120.91429891909075 98.10471618934814 l 25.45057050841263 -2.3063672582597516 a46.554859990492126,46.554859990492126 0 0,0 0.0654550605681158,0.7987175305197705 l -25.48650005280024 1.8679358105322126" fill="#c0ff1e" stroke="none" /><line stroke="#e1ed5e" stroke-width="0.3" x1="184.98032266829074" x2="189.97916517819016" y1="98.17113171792111" y2="98.06355123074" /><path d="M 185.9800911702706 98.14961562048488 a86.0,86.0 0 0,1 -9.607161424134198,41.387399972396054" fill="none" id="id52" stroke="none" /><text fill="#e1ed5e" style="font-size:6.75px; font-family:Arial;" text-anchor="middle"><textPath startOffset="21.466115282336823" xlink:href="#id52">April</textPath></text><path d="M 120.99513854157772 99.54816195383933 l 7.478457339353011 -0.16094447511348708 a28.480188988293843,28.480188988293843 0 0,0 0.0063293732997373,0.490216937278757 l -7.480119719770464 0.032191279774267376" fill="#ff5908" stroke="none" /><path d="M 120.99824983174949 100.27111621757518 l 62.994749495248485 0.8133486527255557 a84.0,84.0 0 0,0 -0.03111174925997018,1.4456407368395405 l -62.97141568330351 -1.8975792053552112" fill="#4dd2ff" stroke="none" /><path d="M 120.9904718944345 100.63252640178507 l 45.374138353989764 1.3673032512793017 a66.39473482187074,66.39473482187074 0 0,0 -0.04425641321029237,1.1420613760062466 l -45.34387980792827 -2.1481418742995544" fill="#37ff78" stroke="none" /><path d="M 120.8583938346157 102.4346265915055 l 30.10415792462921 3.513807629643594 a51.308532930664214,51.308532930664214 0 0,0 -0.10994316879229915,0.8763552293233233 l -30.039213246590062 -4.031480613254312" fill="#8bff24" stroke="none" /><path d="M 120.5718875245553 104.21870165774334 l 8.175987496706485 1.6766595658698589 a29.346134365448695,29.346134365448695 0 0,0 -0.10573826030873004,0.49397395008296974 l -8.145915197673313 -1.8171473353689975" fill="#ff6509" stroke="none" /><path d="M 120.41448212921028 104.9243191809786 l 28.11592965362594 6.782038888279708 a49.922336554465666,49.922336554465666 0 0,0 -0.2086960149255324,0.8336368391373731 l -27.995022324405348 -7.265003566814476" fill="#9aff23" stroke="none" /><path d="M 119.67450827220406 107.3425965602758 l 4.021545123212743 1.500854963191809 a25.292480727804573,25.292480727804573 0 0,0 -0.15573630673219604,0.4065783538111294 l -3.9951145368870398 -1.5698568838360822" fill="#ff2d04" stroke="none" /><path d="M 119.41010516605496 108.01547362559984 l 2.018009341059168 0.8333443075703563 a23.183305850210175,23.183305850210175 0 0,0 -0.1554926610343194,0.3675387188956014 l -2.00336569883254 -0.8679575521321211" fill="#ff0e01" stroke="none" /><path d="M 118.81262510543309 109.33194174019688 l 27.167598068384184 13.476399012598616 a51.32641942518175,51.32641942518175 0 0,0 -0.39942055893195627,0.7880946558109939 l -26.931598839665956 -13.942047880112305" fill="#8aff24" stroke="none" /><line stroke="#e1ed5e" stroke-width="0.3" x1="174.80103733775053" x2="179.2010983576182" y1="140.37084112569926" y2="142.7455964860345" /><path d="M 175.68104954172406 140.8457921977663 a86.0,86.0 0 0,1 -30.038265399797805,32.042727171017184" fill="none" id="id53" stroke="none" /><text fill="#e1ed5e" style="font-size:6.75px; font-family:Arial;" text-anchor="middle"><textPath startOffset="22.206326154141568" xlink:href="#id53">May</textPath></text><path d="M 118.30583269289576 110.29060199501025 l 10.1255766904139 5.692080848714433 a32.61581196911154,32.61581196911154 0 0,0 -0.27932803221495417,0.48703196879667654 l -10.026096662046566 -5.865532663369424" fill="#ff920d" stroke="none" /><path d="M 118.12598468904814 110.60418214915192 l 3.0060860097386333 1.758640104255751 a24.48272423746742,24.48272423746742 0 0,0 -0.21593660684692872,0.3619221737258721 l -2.9753685271934773 -1.8101243718677271" fill="#ff2103" stroke="none" /><path d="M 117.55443506779139 111.5257021239791 l 5.820266538612403 3.8214079887590184 a27.96266196199718,27.96266196199718 0 0,0 -0.2676384866100565,0.4000832238153133 l -5.753624946591625 -3.9210281267801386" fill="#ff5207" stroke="none" /><path d="M 116.93607887273984 112.41649034213515 l 2.8627264926415594 2.098774817662857 a24.549656139251745,24.549656139251745 0 0,0 -0.25278983555346923,0.3386532950483955 l -2.826175390392998 -2.1477409922205677" fill="#ff2203" stroke="none" /><path d="M 116.71984013943494 112.70617746262583 l 6.662996925115094 5.063518589735979 a29.368676629712432,29.368676629712432 0 0,0 -0.30934052656282973,0.399864330105077 l -6.574849581334195 -5.177460913954309" fill="#ff6609" stroke="none" /><path d="M 116.498646956653 112.99209946851258 l 3.0419451412399137 2.395423937282974 a24.871884048059986,24.871884048059986 0 0,0 -0.26776607031976063,0.33407934363937325 l -3.000261158865299 -2.4474311145005974" fill="#ff2703" stroke="none" /><path d="M 115.80600337817218 113.82643327865902 l 22.489434204683842 19.67282013461215 a50.879667047937545,50.879667047937545 0 0,0 -0.582308462276707,0.6542297303775053 l -22.1474668927588 -20.05702403473052" fill="#8fff24" stroke="none" /><path d="M 114.81725581225074 114.88116024355365 l 5.611256239862466 5.635456681796313 a28.952645383883162,28.952645383883162 0 0,0 -0.35618653875109313,0.34860349549686326 l -5.513419748735578 -5.731210280215748" fill="#ff6008" stroke="none" /><path d="M 114.29624159901734 115.38237550388516 l 5.2609419121333865 5.660633491401392 a28.727889836612373,28.727889836612373 0 0,0 -0.3651184162027687,0.3335270163271373 l -5.162723946463754 -5.750353274315113" fill="#ff5d08" stroke="none" /><path d="M 113.20401910651253 116.32954008644616 l 2.297434397979654 2.8412596797353373 a24.653896739196373,24.653896739196373 0 0,0 -0.3322905117785554,0.2639916792507084 l -2.248186393483748 -2.880385272991172" fill="#ff2403" stroke="none" /><path d="M 112.92097659922987 116.55440617244103 l 7.702497805159624 9.86847056255391 a33.518593518542005,33.518593518542005 0 0,0 -0.45788197817970877,0.35108437577901436 l -7.531487098486421 -9.999594280160295" fill="#ff9e0e" stroke="none" /><path d="M 111.7513745106137 117.40417183066458 l 4.469735412586323 6.619825033062979 a28.987528912429394,28.987528912429394 0 0,0 -0.415936946777228,0.27566032797546536 l -4.355123767069132 -6.695783382129762" fill="#ff6008" stroke="none" /><path d="M 111.1453310114006 117.79835938074945 l 3.317362904318319 5.297610013289714 a27.25056545376934,27.25056545376934 0 0,0 -0.3997019511127153,0.2455295842524443 l -3.2256817532732946 -5.353928064370537" fill="#ff4806" stroke="none" /><line stroke="#e1ed5e" stroke-width="0.3" x1="143.8653032363475" x2="146.44561519142675" y1="172.8068346515853" y2="177.08958963109032" /><path d="M 144.38136562736335 173.6633856474863 a86.0,86.0 0 0,1 -40.68145358897372,12.25698825130547" fill="none" id="id54" stroke="none" /><text fill="#e1ed5e" style="font-size:6.75px; font-family:Arial;" text-anchor="middle"><textPath startOffset="21.466115282336833" xlink:href="#id54">June</textPath></text><path d="M 110.8373102113329 117.98757091392108 l 3.6238826793015804 6.014854738540351 a28.022179376737917,28.022179376737917 0 0,0 -0.41530488313555747,0.24536944529691507 l -3.519809925137641 -6.076342756131016" fill="#ff5307" stroke="none" /><path d="M 109.89434966115114 118.52300852407294 l 3.373317366835247 6.3151180704304055 a28.15960797117195,28.15960797117195 0 0,0 -0.4295132673549423,0.22470104142944136 l -3.2641131969538093 -6.372248530804564" fill="#ff5507" stroke="none" /><path d="M 109.57404056367764 118.69057910512821 l 0.5501833724268266 1.0740758592231991 a22.206789416037864,22.206789416037864 0 0,0 -0.34171605822402235,0.17134352550252732 l -0.5316134065200437 -1.0833872256350285" fill="#ff0000" stroke="none" /><path d="M 109.2508944713604 118.85261126421891 l 2.038002407180696 4.153292122947536 a25.626368907708546,25.626368907708546 0 0,0 -0.3976813805797585,0.19091122973598298 l -1.9662083586007049 -4.187757629183079" fill="#ff3104" stroke="none" /><path d="M 107.93186726928326 119.44442032107085 l 2.703445686868636 6.627308862596472 a28.157502451421053,28.157502451421053 0 0,0 -0.45035769641580076,0.17920662172744162 l -2.5889669144109693 -6.672862328729982" fill="#ff5507" stroke="none" /><path d="M 106.91757812671514 119.82793768551818 l 2.7099458965477234 7.7675506345729275 a29.226703448093296,29.226703448093296 0 0,0 -0.47643739032144033,0.16163343053694684 l -2.5758387732890564 -7.813047052007997" fill="#ff6409" stroke="none" /><path d="M 106.2309692047433 120.05430185196036 l 2.4747865205101567 7.965071607751262 a29.340679471044552,29.340679471044552 0 0,0 -0.48359730627885,0.14570390137262362 l -2.337314239791061 -8.006490878229611" fill="#ff6509" stroke="none" /><path d="M 105.88484417918355 120.15858648285463 l 1.3651978828654492 4.6764975843032985 a25.87169322878349,25.87169322878349 0 0,0 -0.4285693191739473,0.12111797046177959 l -1.2844973955868964 -4.699304348103597" fill="#ff3505" stroke="none" /><path d="M 105.53697534728816 120.25689768951611 l 0.9774062310763186 3.5758183452461254 a24.70699336103338,24.70699336103338 0 0,0 -0.41120620519400236,0.1086032961867762 l -0.9157095830708188 -3.592112990736486" fill="#ff2403" stroke="none" /><path d="M 105.18746579009965 120.34920634021253 l 7.156606557896634 28.073681723414136 a49.97151399102377,49.97151399102377 0 0,0 -0.835349325855122,0.20530854034706564 l -6.6723039472983015 -28.192711522075232" fill="#99ff23" stroke="none" /><path d="M 104.48393922423573 120.51570834832081 l 0.8972962722781903 4.105467916379377 a25.2023811598503,25.2023811598503 0 0,0 -0.424610364126972,0.08898123021204743 l -0.8264944467218404 -4.120305127317966" fill="#ff2b04" stroke="none" /><path d="M 104.13013068566511 120.58985236759428 l 1.6233856230057142 8.093029702274418 a29.254241978696626,29.254241978696626 0 0,0 -0.49458111017110695,0.0947876468772558 l -1.4838368982629029 -8.11977454750014" fill="#ff6409" stroke="none" /><path d="M 102.70371172650421 120.8252237178851 l 4.01624283114099 30.934938308680344 a52.194560657918394,52.194560657918394 0 0,0 -0.8919617374289627,0.10800414460964017 l -3.4831536706606463 -30.999487982015335" fill="#81ff25" stroke="none" /><line stroke="#e1ed5e" stroke-width="0.3" x1="102.19456741930631" x2="102.32365962044197" y1="184.97166512339345" y2="189.96999836594603" /><path d="M 102.22038585953345 185.97133177190398 a86.0,86.0 0 0,1 -42.740103519485714,-10.115201625700543" fill="none" id="id55" stroke="none" /><text fill="#e1ed5e" style="font-size:6.75px; font-family:Arial;" text-anchor="middle"><textPath startOffset="22.20632615414155" xlink:href="#id55">July</textPath></text><path d="M 99.45781275523022 120.99299961872073 l -0.17980023605132747 6.961702480614678 a27.964023948370702,27.964023948370702 0 0,0 -0.4810872732299632,-0.016569618419386544 l 0.2996078609559337 -6.957576063769197" fill="#ff5207" stroke="none" /><path d="M 99.09653310690486 120.98055641714683 l -0.3048731027022913 7.079846954217574 a28.086408152505413,28.086408152505413 0 0,0 -0.4828346884982434,-0.024957038261019956 l 0.42669585961402356 -7.073550109194352" fill="#ff5407" stroke="none" /><path d="M 97.65516085044442 120.86867818915974 l -1.2059339035228474 10.732611042759698 a31.800148905215764,31.800148905215764 0 0,0 -0.5434381611887772,-0.06580279319673028 l 1.390499487763014 -10.710262720837619" fill="#ff870c" stroke="none" /><path d="M 97.2962882734958 120.8252237178851 l -0.45073572207279317 3.4717725849956045 a24.500909535117916,24.500909535117916 0 0,0 -0.4177654854496989,-0.057898489595552674 l 0.510429798709323 -3.463499529907447" fill="#ff2103" stroke="none" /><path d="M 96.22490169976321 120.6578951692458 l -0.8115846956241979 4.441111258511416 a25.514658229439775,25.514658229439775 0 0,0 -0.43135857021837787,-0.0826708966243998 l 0.8879108804142707 -4.426483163538548" fill="#ff3004" stroke="none" /><path d="M 95.51606077576429 120.51570834832081 l -7.9935178323697755 36.57335042357815 a58.436697083774064,58.436697083774064 0 0,0 -0.9808456313363438,-0.22323727233293442 l 8.621883613098982 -36.430336417667526" fill="#41ff2d" stroke="none" /><path d="M 94.46302465271185 120.25689768951611 l -1.2869525272352198 4.708286391095494 a25.881004768275908,25.881004768275908 0 0,0 -0.42872356652471705,-0.12116156230384223 l 1.3678072618645507 -4.68543603545313" fill="#ff3505" stroke="none" /><path d="M 93.08242187328487 119.8279376855182 l -1.8376515311598776 5.267282765744129 a26.57864059465022,26.57864059465022 0 0,0 -0.4306757856862934,-0.1544250140365939 l 1.9280468774758974 -5.2348702106675775" fill="#ff3f05" stroke="none" /><path d="M 92.7421414339146 119.70592522655815 l -4.846045179072587 13.157573005012916 a35.02162191973016,35.02162191973016 0 0,0 -0.5638977756350092,-0.21321788793054247 l 5.071813175467879 -13.072206866975739" fill="#ffb110" stroke="none" /><path d="M 91.40352486487194 119.15986991738527 l -3.4347024644677435 7.655283286426245 a29.39050315623907,29.39050315623907 0 0,0 -0.45979623368205746,-0.211069899302288 l 3.56596669391722 -7.595026316789883" fill="#ff6609" stroke="none" /><path d="M 90.7491055286396 118.85261126421891 l -1.850539086696045 3.771256297294336 a25.200817655084784,25.200817655084784 0 0,0 -0.3877878927828546,-0.1944448997859222 l 1.91518088716166 -3.738843556599112" fill="#ff2b04" stroke="none" /><path d="M 90.42595943632237 118.69057910512821 l -1.9370974889746162 3.781629460541773 a25.248890214941923,25.248890214941923 0 0,0 -0.3851166303312211,-0.20147481925327965 l 2.0019050218323327 -3.7477252223437763" fill="#ff2c04" stroke="none" /><path d="M 90.10565033884886 118.52300852407294 l -3.2901075119665997 6.159342612335318 a27.98300142176906,27.98300142176906 0 0,0 -0.42291268127223325,-0.2306057137074714 l 3.3956430051074733 -6.101796246868081" fill="#ff5307" stroke="none" /><line stroke="#e1ed5e" stroke-width="0.3" x1="58.666819895761336" x2="56.23545636021788" y1="174.27360380694188" y2="178.64263932499728" /><path d="M 58.180547188652646 175.14741091055294 a86.0,86.0 0 0,1 -31.652253787137756,-30.449443065178592" fill="none" id="id56" stroke="none" /><text fill="#e1ed5e" style="font-size:6.75px; font-family:Arial;" text-anchor="middle"><textPath startOffset="22.20632615414155" xlink:href="#id56">August</textPath></text><path d="M 89.7882731507175 118.34994917583269 l -6.758796297252632 12.14521014661749 a34.89918907322497,34.89918907322497 0 0,0 -0.5224096723151523,-0.29663784599548515 l 6.966854736488991 -12.027069134827371" fill="#ffb010" stroke="none" /><path d="M 89.4739219176387 118.17145234162733 l -18.759258034667415 32.38461283243484 a58.425564929843574,58.425564929843574 0 0,0 -0.8659006171183196,-0.5115893473258988 l 19.313926522814114 -32.05690491281519" fill="#41ff2d" stroke="none" /><path d="M 85.44109423537348 115.13401014063109 l -5.180753544672086 5.385403130479646 a28.472802296890528,28.472802296890528 0 0,0 -0.35028332520934585,-0.3428259585845139 l 5.272686822257226 -5.295427068972562" fill="#ff5908" stroke="none" /><path d="M 85.18274418774928 114.88116024355367 l -2.478970630845712 2.4896620308180264 a24.513361981961513,24.513361981961513 0 0,0 -0.2964475279393524,-0.3002997806834559 l 2.5214587838405977 -2.446621756153906" fill="#ff2103" stroke="none" /><path d="M 84.9287848128048 114.62390073753433 l -8.594047201705438 8.338975434323567 a32.97481351000478,32.97481351000478 0 0,0 -0.391761901916516,-0.41076078791602283 l 8.736315655000912 -8.189807529825043" fill="#ff960d" stroke="none" /><path d="M 84.67929136418377 114.36230785411682 l -7.119985853710149 6.674588700739555 a30.759320308355125,30.759320308355125 0 0,0 -0.35879076176864333,-0.38939650986379726 l 7.233823023474521 -6.551040936074413" fill="#ff790b" stroke="none" /><path d="M 84.43433777217949 114.09645910891817 l -9.789371487920501 8.865377705218444 a34.207070681445416,34.207070681445416 0 0,0 -0.3914936532256758,-0.43984726959477344 l 9.940523990794516 -8.695556265882807" fill="#ffa70f" stroke="none" /><path d="M 83.06392112726016 112.41649034213515 l -24.097296235342178 17.66665402458013 a50.879597558836856,50.879597558836856 0 0,0 -0.5117523409630027,-0.710779242473002 l 24.397828368680788 -17.24924117665599" fill="#8fff24" stroke="none" /><path d="M 82.44556493220864 111.52570212397912 l -5.983214182166958 3.9283943995527317 a28.157592787251946,28.157592787251946 0 0,0 -0.26252951079778614,-0.40745163077397567 l 6.04994855634179 -3.8248211688573077" fill="#ff5507" stroke="none" /><line stroke="#e1ed5e" stroke-width="0.3" x1="26.63291911575756" x2="22.317208475507996" y1="142.92168965132927" y2="145.44649492493687" /><path d="M 25.769776987707644 143.4266507060508 a86.0,86.0 0 0,1 -11.730757126820373,-40.83630448921669" fill="none" id="id57" stroke="none" /><text fill="#e1ed5e" style="font-size:6.75px; font-family:Arial;" text-anchor="middle"><textPath startOffset="21.46611528233685" xlink:href="#id57">September</textPath></text><path d="M 81.69416730710424 110.29060199501025 l -7.427715837453732 4.175481590899398 a29.52089250477324,29.52089250477324 0 0,0 -0.24519714604182674,-0.44510404239142654 l 7.498489392947076 -4.04700703011015" fill="#ff6809" stroke="none" /><path d="M 81.18737489456691 109.33194174019688 l -6.6222124469981605 3.284927031727548 a28.3921879911804,28.3921879911804 0 0,0 -0.21341021009478622,-0.43968824281150864 l 6.6777759137076655 -3.1704498329507547" fill="#ff5808" stroke="none" /><path d="M 80.73074385275274 108.34839909993369 l -13.594791912751182 5.889939274298932 a35.815861493883304,35.815861493883304 0 0,0 -0.24022042615074818,-0.5678101274536312 l 13.694163320094237 -5.655054621179142" fill="#ffbb11" stroke="none" /><path d="M 80.45479744820244 107.68017299344265 l -5.6269531274225235 2.2110783109087597 a27.045781074036775,27.045781074036775 0 0,0 -0.16653210503497917,-0.4347627765326009 l 5.664179512051012 -2.113891967543001" fill="#ff4506" stroke="none" /><path d="M 80.20201598880116 107.00284435728193 l -7.351380338174583 2.60029366072318 a28.79771248498539,28.79771248498539 0 0,0 -0.1612797636235689,-0.46875448647400775 l 7.395050932741381 -2.473366471159875" fill="#ff5e08" stroke="none" /><path d="M 79.97269907076064 106.31721596034903 l -3.522989330353745 1.1112573034421012 a24.69409618394537,24.69409618394537 0 0,0 -0.12437972635333103,-0.4064801422854914 l 3.5415958292132066 -1.050450188604562" fill="#ff2403" stroke="none" /><path d="M 79.67330655649465 105.27499134158121 l -29.019752306132407 7.530931805270602 a50.98100995238342,50.98100995238342 0 0,0 -0.21312170760144195,-0.851315281414541 l 29.145085328028905 -7.030288684458669" fill="#8eff24" stroke="none" /><path d="M 79.4281124754447 104.21870165774334 l -7.1494273529237065 1.4661416454709513 a28.298210931407638,28.298210931407638 0 0,0 -0.09374802053175037,-0.478019136973924 l 7.173605306431123 -1.3428587814290724" fill="#ff5708" stroke="none" /><path d="M 79.23777060512086 103.15116336523772 l -14.535610195527815 2.2061254342378294 a35.702073091503905,35.702073091503905 0 0,0 -0.08698716430483533,-0.6083880245467319 l 14.571431410849248 -1.955591937710697" fill="#ffba11" stroke="none" /><path d="M 79.10278846688536 102.07522291339032 l -6.922939341572349 0.687490880152894 a27.956991651380903,27.956991651380903 0 0,0 -0.043433720928796965,-0.4792874911756896 l 6.933747658778221 -0.5682220004286382" fill="#ff5207" stroke="none" /><line stroke="#e1ed5e" stroke-width="0.3" x1="15.007084014347285" x2="10.007500721073583" y1="101.09737516637583" y2="101.16192664675087" /><path d="M 14.007167355692545 101.11028546245083 a86.0,86.0 0 0,1 10.666146001902534,-42.60595125391555" fill="none" id="id58" stroke="none" /><text fill="#e1ed5e" style="font-size:6.75px; font-family:Arial;" text-anchor="middle"><textPath startOffset="22.20632615414155" xlink:href="#id58">October</textPath></text><path d="M 79.00175016825051 100.2711162175752 l -3.5193365681531303 0.045439464068529035 a24.519629898843725,24.519629898843725 0 0,0 -0.001816440699714959,-0.4220768479231324 l 3.5195973061423484 0.015146862058278737" fill="#ff2203" stroke="none" /><path d="M 79.00486145842228 99.54816195383935 l -1.736929562033101 -0.03738059923127 a22.737331750893706,22.737331750893706 0 0,0 0.011789095969861595,-0.3912227014047341 l 1.7360287716075944 0.06727344806099853" fill="#ff0801" stroke="none" /><path d="M 79.08570108090925 98.10471618934814 l -5.549438027957558 -0.5028980456525372 a26.572178108286078,26.572178108286078 0 0,0 0.04520164661484467,-0.45517441276336024 l 5.539959255660485 0.5983479891203277" fill="#ff3f05" stroke="none" /><path d="M 79.12142395522702 97.74499172005258 l -31.374847278995556 -3.3886669399531915 a52.557314610248866,52.557314610248866 0 0,0 0.10488850011404043,-0.8986206146495278 l 31.31186842587793 3.9282312929275807" fill="#7dff26" stroke="none" /><path d="M 79.16333360222342 97.38593545837743 l -5.172036613574779 -0.6488579920328401 a26.212578961126916,26.212578961126916 0 0,0 0.06001931768873481,-0.4472136309025514 l 5.16010129682821 0.737789965000051" fill="#ff3a05" stroke="none" /><path d="M 79.21141760316559 97.0276538004421 l -8.202255856391437 -1.1727564466473241 a29.28567189893858,29.28567189893858 0 0,0 0.07564643367560271,-0.49841548242260075 l 8.180853529276531 1.313771041462017" fill="#ff6509" stroke="none" /><path d="M 79.3925641242962 95.95851677861259 l -7.056782486073076 -1.3839600514331742 a28.191211614165628,28.191211614165628 0 0,0 0.0974888398300043,-0.4753902054678605 l 7.031914350328077 1.5052259130644372" fill="#ff5507" stroke="none" /><path d="M 80.02781315780177 93.51064311812611 l -16.534281449920314 -5.372313706137482 a38.38517234951473,38.38517234951473 0 0,0 0.20958798764915682,-0.6266414062083815 l 16.439356168499383 5.656128215268186" fill="#ffdc14" stroke="none" /><path d="M 80.14247586403 93.16781622104843 l -6.574833059786478 -2.262138395139532 a27.953107210652348,27.953107210652348 0 0,0 0.1604600455255828,-0.4536421564829397 l 6.534919933451086 2.3749781780490826" fill="#ff5207" stroke="none" /><path d="M 80.52162464483688 92.15188598940014 l -9.672378919302803 -3.8971388079493794 a31.427972230831763,31.427972230831763 0 0,0 0.20649421871416784,-0.5000421295908604 l 9.603863013702435 4.0630555079935515" fill="#ff820b" stroke="none" /><path d="M 80.95270993114464 91.15688171328213 l -9.012987224867933 -4.184475159356562 a30.936990040998566,30.936990040998566 0 0,0 0.22840603871696016,-0.4810813683400669 l 8.939622992309221 4.3389989433371605" fill="#ff7b0b" stroke="none" /><path d="M 81.10775173730289 90.83032412892265 l -27.31432796437002 -13.257476325044859 a51.36170599051198,51.36170599051198 0 0,0 0.3928925611907841,-0.7920474287315596 l 27.08207539022582 13.72568334227538" fill="#8aff24" stroke="none" /><path d="M 81.6062741919709 89.86733742301443 l -2.6534916987564543 -1.4617449621106606 a24.029474629308737,24.029474629308737 0 0,0 0.2026970387780688,-0.3605754144428054 l 2.6279370186859548 1.5072038864882507" fill="#ff1b02" stroke="none" /><line stroke="#e1ed5e" stroke-width="0.3" x1="26.266209847984243" x2="21.928928074336255" y1="57.711370442889674" y2="55.22380399835377" /><path d="M 25.398753493254645 57.213857153982495 a86.0,86.0 0 0,1 29.58750427330803,-30.492523968695096" fill="none" id="id59" stroke="none" /><text fill="#e1ed5e" style="font-size:6.75px; font-family:Arial;" text-anchor="middle"><textPath startOffset="21.46611528233685" xlink:href="#id59">November</textPath></text><path d="M 81.78341655067845 89.55222093294921 l -12.447546264772875 -7.139056215620048 a35.34947844569427,35.34947844569427 0 0,0 0.307271681084822,-0.5252269065528076 l 12.322814909217728 7.352262534526747" fill="#ffb510" stroke="none" /><path d="M 82.34701348167596 88.62581576622439 l -5.771699860739526 -3.7188255647260844 a27.86601652075794,27.86601652075794 0 0,0 0.26327197318524553,-0.4009812772129976 l 5.70683125219636 3.8176249059167486" fill="#ff5107" stroke="none" /><path d="M 82.54541684631803 88.32363383020206 l -25.248984607218542 -16.89048584510512 a51.37761899456992,51.37761899456992 0 0,0 0.49805839235654503,-0.7308392336055886 l 24.95450174919326 17.32260310198112" fill="#8aff24" stroke="none" /><path d="M 84.07557802195018 86.31012108654704 l -22.2912592270329 -19.163310295790307 a50.39613408969829,50.39613408969829 0 0,0 0.5711757122652477,-0.6529525768246408 l 21.958091651189807 19.54417842881789" fill="#95ff23" stroke="none" /><path d="M 84.5562425177563 85.77008943001954 l -3.5804469164526895 -3.2990313063555075 a25.86859401489273,25.86859401489273 0 0,0 0.3045505607219507,-0.3248733040044115 l 3.523129033760283 3.360174027237969" fill="#ff3505" stroke="none" /><path d="M 84.80347519578584 85.50635884689758 l -6.324763529394106 -6.032224745742324 a29.74015841308954,29.74015841308954 0 0,0 0.3565076512240473,-0.36741247249364967 l 6.219991614466941 6.140201413786098" fill="#ff6b09" stroke="none" /><path d="M 86.10567301691215 84.25364557470407 l -7.527613940908709 -8.53099809977301 a32.377297579904194,32.377297579904194 0 0,0 0.42106860724431655,-0.36514654692331283 l 7.379651535017619 8.659309640116003" fill="#ff8e0d" stroke="none" /><path d="M 86.65592168130627 83.78471172551755 l -5.536752563834498 -6.7280809346932 a29.71336341586359,29.71336341586359 0 0,0 0.3977297844484362,-0.3216031587714633 l 5.4201193808215615 6.822390190728797" fill="#ff6a09" stroke="none" /><path d="M 86.93701828274178 83.55741782278169 l -5.102887662831632 -6.423085598165657 a29.20338290590183,29.20338290590183 0 0,0 0.396286352733131,-0.30930778409817694 l 4.991568754939076 6.509971771487056" fill="#ff6309" stroke="none" /><path d="M 87.22198572758235 83.33499621200491 l -2.5637577413409587 -3.3436363084344136 a25.213402131219688,25.213402131219688 0 0,0 0.34668889724886154,-0.261118889793239 l 2.5058226903337073 3.387271787733507" fill="#ff2c04" stroke="none" /><path d="M 87.51073957382395 83.11751280151077 l -3.432436528301139 -4.639831645052286 a26.77145200233395,26.77145200233395 0 0,0 0.3728303107663092,-0.2708770765011794 l 3.352060901181048 4.6982279563701335" fill="#ff4206" stroke="none" /><path d="M 87.80319425747018 82.90503203632743 l -17.15572867270228 -24.045363863643352 a50.538086424587235,50.538086424587235 0 0,0 0.7125120788261919,-0.4991602448650105 l 16.73928545429243 24.337108951272306" fill="#93ff23" stroke="none" /><path d="M 88.70189139769569 82.29822771554957 l -1.2648111307963077 -1.981694406409586 a23.35092745889389,23.35092745889389 0 0,0 0.3406798546547711,-0.21333369373078867 l 1.2305121237692944 2.0031724414633048" fill="#ff1101" stroke="none" /><line stroke="#e1ed5e" stroke-width="0.3" x1="56.762969772571076" x2="54.21961505331055" y1="26.818313649435495" y2="22.513508569990535" /><path d="M 56.25429882871897 25.957352633546506 a86.0,86.0 0 0,1 42.265352541879196,-11.944610805530505" fill="none" id="id60" stroke="none" /><text fill="#e1ed5e" style="font-size:6.75px; font-family:Arial;" text-anchor="middle"><textPath startOffset="22.20632615414155" xlink:href="#id60">December</textPath></text><path d="M 89.63071344664047 81.73862282372117 l -7.30721450435087 -12.868754227714314 a35.798655992552526,35.798655992552526 0 0,0 0.5384730034116192,-0.2996596434062172 l 7.084617411867205 12.992629268680716" fill="#ffbb11" stroke="none" /><path d="M 89.94658935756843 81.56283822128135 l -3.3278094725942693 -6.102939967061086 a27.95127269839414,27.95127269839414 0 0,0 0.42440008360576725,-0.22669982675654152 l 3.2222643424601967 6.159318520319378" fill="#ff5207" stroke="none" /><path d="M 90.91171255644093 81.06846463323043 l -1.4874679326055247 -3.0984992439928076 a24.437042102674006,24.437042102674006 0 0,0 0.3807777441611317,-0.1787802565557708 l 1.4339119771447846 3.123644483188586" fill="#ff2003" stroke="none" /><path d="M 92.23578459929587 80.48803036053334 l -11.307499299921373 -28.41646858719907 a51.58357774010415,51.58357774010415 0 0,0 0.8278349575220498,-0.32118710233083597 l 10.816681177399648 28.606898393420458" fill="#88ff25" stroke="none" /><path d="M 93.25333710446033 80.11325718540243 l -2.3782433759693222 -7.010208617313615 a28.40263915192413,28.40263915192413 0 0,0 0.4643387578336115,-0.15308518794357925 l 2.2572217958933014 7.050107529516428" fill="#ff5808" stroke="none" /><path d="M 93.59665428221793 80.00007090966166 l -1.9579398601076787 -6.115343461240432 a27.421133400322297,27.421133400322297 0 0,0 0.4507703022210309,-0.14005652713746913 l 1.852384185175919 6.1481401232604265" fill="#ff4b06" stroke="none" /><path d="M 94.63758080256005 79.69619591428918 l -8.718588919065384 -33.01131724298307 a55.1432403098552,55.1432403098552 0 0,0 0.919818425221396,-0.23448219720049704 l 8.14906160515899 33.15650243635243" fill="#62ff29" stroke="none" /><path d="M 95.692805502759 79.44645832069477 l -1.652963926841445 -7.887794012201226 a29.059130481780066,29.059130481780066 0 0,0 0.4904539025914424,-0.09838043890908106 l 1.516943614782866 7.915078407187518" fill="#ff6109" stroke="none" /><path d="M 97.11714578562143 79.19881850522333 l -4.246814929207764 -30.64281491466965 a51.9357001365355,51.9357001365355 0 0,0 0.8865801696943056,-0.11510355104756842 l 3.7187200310056 30.711376788881353" fill="#84ff25" stroke="none" /><path d="M 99.63851952072746 79.00311137660856 l -0.25645315109778133 -14.896290559186856 a35.8984979324235,35.8984979324235 0 0,0 0.6179336303703133,-0.005318749845206734 l 3.64907956100918e-15 14.898497932423503" fill="#ffbd11" stroke="none" /></svg>