<?xml version="1.0" encoding="utf-8" ?>
<svg baseProfile="full" height="200mm" version="1.1" viewBox="0,0,200,200" width="200mm" xmlns="http://www.w3.org/2000/svg" xmlns:ev="http://www.w3.org/2001/xml-events" xmlns:xlink="http://www.w3.org/1999/xlink"><defs /><rect fill="#1a1a1a" height="200" width="200" x="0" y="0" /><text alignment-baseline="middle" fill="#e1ed5e" style="dominant-baseline: central; font-size:9.0px; font-family:Arial;" text-anchor="middle" x="100.0" y="100.0">2017</text><line stroke="#e1ed5e" stroke-width="0.3" x1="100.0" x2="100.0" y1="15.0" y2="10.0" /><path d="M 100.0 14.0 a86.0,86.0 0 0,1 42.46469731375804,11.215312516191453" fill="none" id="id37" stroke="none" /><text fill="#e1ed5e" style="font-size:6.75px; font-family:Arial;" text-anchor="middle"><textPath startOffset="22.20632615414155" xlink:href="#id37">January</textPath></text><path d="M 100.0 79.0 l 0.0 -6.57838150174722 a27.57838150174722,27.57838150174722 0 0,0 0.4747165029910579,0.004086034814592805 l -0.11323602371852953 6.577406843541186" fill="#ff4f07" stroke="none" /><path d="M 100.36148047927253 79.00311137660856 l 0.4438833564908941 -25.78332699119217 a46.787147635380464,46.787147635380464 0 0,0 0.8051251890777106,0.02079400828319583 l -0.8876351807634726 25.771866190766616" fill="#bcff1f" stroke="none" /><path d="M 101.80526077348638 79.07773832637324 l 0.42969325705778055 -4.9799756886058 a25.998479184138485,25.998479184138485 0 0,0 0.44553330439232236,0.04230875569292412 l -0.5153516885403471 4.971841388397698" fill="#ff3905" stroke="none" /><path d="M 102.88285421437855 79.19881850522331 l 1.9705250677115032 -14.2182873379568 a35.35418628370073,35.35418628370073 0 0,0 0.6020835088931011,0.08873145834055442 l -2.21497755703326 14.182261395455278" fill="#ffb711" stroke="none" /><path d="M 103.59715602781102 79.31037775812273 l 1.7486738430856905 -10.057779245041782 a31.208662182259012,31.208662182259012 0 0,0 0.5284739302791759,0.09657523283816723 l -1.9215428944677673 10.026188530852878" fill="#ff810b" stroke="none" /><path d="M 104.66035177308747 79.52364482259891 l 1.1224351770538794 -4.931683801572314 a26.057802471961388,26.057802471961388 0 0,0 0.4365008418783532,0.10330564649602683 l -1.2071597058947563 4.9116322429354184" fill="#ff3a05" stroke="none" /><path d="M 107.76421540070413 80.48803036053334 l 5.12996362766823 -12.891926535880637 a34.87509627453959,34.87509627453959 0 0,0 0.5558693939403017,0.22675308283752335 l -5.35111689119692 12.801712566859534" fill="#ffb110" stroke="none" /><line stroke="#e1ed5e" stroke-width="0.3" x1="143.23703022742887" x2="145.7803849466894" y1="26.81831364943548" y2="22.513508569990506" /><path d="M 143.74570117128098 25.957352633546492 a86.0,86.0 0 0,1 28.547481713284135,27.462654790039103" fill="none" id="id38" stroke="none" /><text fill="#e1ed5e" style="font-size:6.75px; font-family:Arial;" text-anchor="middle"><textPath startOffset="19.985693538727396" xlink:href="#id38">February</textPath></text><path d="M 111.2981086023043 82.29822771554956 l 9.265859685544372 -14.517663437907041 a38.2226219667198,38.2226219667198 0 0,0 0.5515578484237241,0.35874856719448234 l -9.514384559752378 14.35601594655303" fill="#ffdc14" stroke="none" /><path d="M 111.60114157652 82.49532879139004 l 11.241102308565164 -16.961416998136936 a41.34826891153932,41.34826891153932 0 0,0 0.5898927266815766,0.3982982022797923 l -11.531399729653282 16.765406883558473" fill="#fcff18" stroke="none" /><path d="M 111.90073688211348 82.69761687909136 l 2.4728719445362914 -3.595288108387681 a25.363621458878917,25.363621458878917 0 0,0 0.35758945244580653,0.25051426347473277 l -2.5343925365657487 3.552189002149013" fill="#ff3004" stroke="none" /><path d="M 112.19680574252982 82.90503203632743 l 4.438710101954461 -6.221268797317308 a28.642403602118023,28.642403602118023 0 0,0 0.39888595639640617,0.28980761114607934 l -4.545141374704656 6.143941951354554" fill="#ff5e08" stroke="none" /><path d="M 114.16331599549186 84.49514656593476 l 9.48155321670332 -10.379638002786049 a35.05833334609965,35.05833334609965 0 0,0 0.44205572749235317,0.4108426217305537 l -9.65881682799052 10.214890794980855" fill="#ffb310" stroke="none" /><path d="M 115.9244219780498 86.31012108654704 l 5.388428049627246 -4.632314292784422 a28.105877324661925,28.105877324661925 0 0,0 0.3122287084988916,0.3695803088584581 l -5.467367371613254 4.538875034296857" fill="#ff5608" stroke="none" /><path d="M 116.38621287248628 86.86637796730983 l 25.288049523259918 -20.268483448064313 a53.4082839714679,53.4082839714679 0 0,0 0.568787846318933,0.7223028035149005 l -25.633191450172816 19.830188250596375" fill="#73ff27" stroke="none" /><path d="M 116.60985879189232 87.15038557335679 l 18.22991691775161 -14.1029135983498 a44.04825465823055,44.04825465823055 0 0,0 0.45878157547096615,0.6037027755479968 l -18.46997443344669 13.78702604692077" fill="#dcff1b" stroke="none" /><path d="M 116.82858285166822 87.43820079747576 l 27.269955276300838 -20.355825886357977 a55.02954757688044,55.02954757688044 0 0,0 0.5600891301733107,0.7639609441155714 l -27.616307018987772 19.883402498570913" fill="#62ff29" stroke="none" /><path d="M 117.2510076193507 88.02491185347247 l 10.426488960787585 -7.237729361627111 a33.692375599610365,33.692375599610365 0 0,0 0.3266163507419243,0.47926919237293014 l -10.549529777198243 7.0571821459837745" fill="#ffa20e" stroke="none" /><path d="M 117.65298651832404 88.62581576622439 l 8.517858906873675 -5.488232621914775 a31.13284844797635,31.13284844797635 0 0,0 0.28638129382885524,0.4529864322207761 l -8.611067796948486 5.340798541979793" fill="#ff800b" stroke="none" /><line stroke="#e1ed5e" stroke-width="0.3" x1="172.23445277983987" x2="176.4835382374775" y1="55.19839476539836" y2="52.563006222186495" /><path d="M 173.08426987136738 54.67131705675599 a86.0,86.0 0 0,1 12.851231095245387,41.99856678651699" fill="none" id="id39" stroke="none" /><text fill="#e1ed5e" style="font-size:6.75px; font-family:Arial;" text-anchor="middle"><textPath startOffset="22.20632615414155" xlink:href="#id39">March</textPath></text><path d="M 118.21658344932153 89.55222093294921 l 18.666894620788387 -10.706046576103692 a42.51911680514142,42.51911680514142 0 0,0 0.3586636495726334,0.638022611824223 l -18.84841591165345 10.383140454344675" fill="#eeff19" stroke="none" /><path d="M 118.3937258080291 89.86733742301442 l 2.765142905119988 -1.5232509349734993 a24.15694610290278,24.15694610290278 0 0,0 0.1975024758802132,0.3659420923783917 l -2.7909534802186657 1.4754278592626489" fill="#ff1f03" stroke="none" /><path d="M 118.56541770881063 90.18545643968196 l 28.545131540249958 -15.090284599620766 a53.28840695896477,53.28840695896477 0 0,0 0.42171574088117886,0.8146205819580646 l -28.800656714291254 14.596691295402357" fill="#75ff27" stroke="none" /><path d="M 118.89224826269711 90.83032412892265 l 16.116129557026234 -7.822239168114891 a38.91415801822808,38.91415801822808 0 0,0 0.2873010163939708,0.6051292114197552 l -16.24838876726196 7.543667541054595" fill="#ffe415" stroke="none" /><path d="M 119.04729006885535 91.15688171328212 l 14.2899557030057 -6.634422436830787 a36.75494827234253,36.75494827234253 0 0,0 0.2614811481914289,0.5761390494001719 l -14.402039168160478 6.387461378588553" fill="#ffc912" stroke="none" /><path d="M 119.97218684219823 93.5106431181261 l 19.360945547338087 -6.290752546022933 a41.35730286856008,41.35730286856008 0 0,0 0.21416094729015928,0.6789487276661079 l -19.466361978396453 5.956553651930406" fill="#fcff18" stroke="none" /><path d="M 120.37134235888165 94.90015583598534 l 24.953881170288934 -6.2470554474938105 a46.72395551280873,46.72395551280873 0 0,0 0.18860280331232593,0.7818803810709473 l -25.05771677386208 5.816589834763457" fill="#bdff1f" stroke="none" /><path d="M 120.53481517161879 95.60439243477599 l 7.057323233797776 -1.5106648458948502 a28.2171960970258,28.2171960970258 0 0,0 0.09757869751764832,0.47582838346512374 l -7.082281227230421 1.3889608062663146" fill="#ff5808" stroke="none" /><path d="M 120.91429891909075 98.10471618934814 l 43.92367188386618 -3.9804262408187485 a65.10365908652177,65.10365908652177 0 0,0 0.09153424475091411,1.1169496337011324 l -43.98568061243658 3.2237626899098473" fill="#36ff6a" stroke="none" /><line stroke="#e1ed5e" stroke-width="0.3" x1="184.98032266829074" x2="189.97916517819016" y1="98.17113171792111" y2="98.06355123074" /><path d="M 185.9800911702706 98.14961562048488 a86.0,86.0 0 0,1 -9.607161424134198,41.387399972396054" fill="none" id="id40" stroke="none" /><text fill="#e1ed5e" style="font-size:6.75px; font-family:Arial;" text-anchor="middle"><textPath startOffset="21.466115282336823" xlink:href="#id40">April</textPath></text><path d="M 120.99513854157772 99.54816195383933 l 12.791270799731263 -0.27528195608792855 a33.794232639256066,33.794232639256066 0 0,0 0.007510354437603469,0.5816852278933686 l -12.794114161286581 0.055060470134097116" fill="#ffa30f" stroke="none" /><path d="M 120.99824983174949 100.27111621757518 l 54.43393944909385 0.7028168485185325 a75.43847642495312,75.43847642495312 0 0,0 -0.02794074956056325,1.2982968410121614 l -54.413776636848276 -1.6397035053208087" fill="#42ffda" stroke="none" /><path d="M 120.9904718944345 100.63252640178507 l 62.97141568330351 1.8975792053552112 a84.0,84.0 0 0,0 -0.05599146859518722,1.4448910119439753 l -62.92942208185712 -2.9812474643131925" fill="#4dd2ff" stroke="none" /><path d="M 120.8583938346157 102.4346265915055 l 26.013087166237977 3.036291012828146 a47.18968818128379,47.18968818128379 0 0,0 -0.10111736891760091,0.8060049205400214 l -25.95696828807353 -3.4836136876555623" fill="#b7ff1f" stroke="none" /><path d="M 120.5718875245553 104.21870165774334 l 7.06489369190742 1.4488062261790227 a28.211918077666187,28.211918077666187 0 0,0 -0.10165151908447018,0.474882055629436 l -7.038908134098507 -1.5702021012246277" fill="#ff5808" stroke="none" /><path d="M 120.41448212921028 104.9243191809786 l 24.2950535494374 5.860378795757621 a45.99187201071173,45.99187201071173 0 0,0 -0.19226504747286474,0.7680032918168912 l -24.190577187669476 -6.277709926971908" fill="#c5ff1e" stroke="none" /><path d="M 119.67450827220406 107.3425965602758 l 3.4750284028873337 1.2968929766823993 a24.70914461754214,24.70914461754214 0 0,0 -0.1521444640666434,0.39720118602828086 l -3.4521896592271837 -1.3565177295438242" fill="#ff2703" stroke="none" /><path d="M 119.41010516605496 108.01547362559984 l 3.441467703201208 1.421166622868406 a24.723360648947693,24.723360648947693 0 0,0 -0.1658219566206173,0.39195412243701994 l -3.4164947653882822 -1.4801952709715893" fill="#ff2703" stroke="none" /><path d="M 118.81262510543309 109.33194174019688 l 23.475597570925938 11.644994126041448 a47.20514395128566,47.20514395128566 0 0,0 -0.3673489246404647,0.7248142787171475 l -23.271669976499204 -12.04736261646129" fill="#b7ff1f" stroke="none" /><line stroke="#e1ed5e" stroke-width="0.3" x1="174.80103733775053" x2="179.2010983576182" y1="140.37084112569926" y2="142.7455964860345" /><path d="M 175.68104954172406 140.8457921977663 a86.0,86.0 0 0,1 -30.038265399797805,32.042727171017184" fill="none" id="id41" stroke="none" /><text fill="#e1ed5e" style="font-size:6.75px; font-family:Arial;" text-anchor="middle"><textPath startOffset="22.206326154141568" xlink:href="#id41">May</textPath></text><path d="M 118.30583269289576 110.29060199501025 l 8.749539173811938 4.9185430014550455 a31.037255651383603,31.037255651383603 0 0,0 -0.2658089749433151,0.46346035291884524 l -8.663578202716243 -5.068423200232206" fill="#ff7e0b" stroke="none" /><path d="M 118.12598468904814 110.60418214915192 l 2.597567339246636 1.5196458389762513 a24.009431766602905,24.009431766602905 0 0,0 -0.21176218699015978,0.3549256059337458 l -2.5710242765582487 -1.5641335387961013" fill="#ff1d02" stroke="none" /><path d="M 117.55443506779139 111.5257021239791 l 5.0293086150665856 3.3020893445426256 a27.01645569957304,27.01645569957304 0 0,0 -0.258582080877286,0.38654512603408725 l -4.971723428778579 -3.38817138478252" fill="#ff4706" stroke="none" /><path d="M 116.93607887273984 112.41649034213515 l 2.4736899790596247 1.813557197343251 a24.067267810370577,24.067267810370577 0 0,0 -0.2478226431154533,0.331998929050686 l -2.4421060692490792 -1.8558690059032519" fill="#ff1d03" stroke="none" /><path d="M 116.71984013943494 112.70617746262583 l 5.757514302022433 4.375400593248477 a28.231396911343754,28.231396911343754 0 0,0 -0.29736154939048176,0.38437988732744427 l -5.681345935413883 -4.473858474689174" fill="#ff5808" stroke="none" /><path d="M 116.498646956653 112.99209946851258 l 2.628553315196662 2.069892532342024 a24.34570584873755,24.34570584873755 0 0,0 -0.2621013338467114,0.3270117138961935 l -2.5925340692950964 -2.114832079816468" fill="#ff2103" stroke="none" /><path d="M 115.80600337817218 113.82643327865902 l 19.43318307559073 16.999338970006775 a46.81910397102535,46.81910397102535 0 0,0 -0.5358360622300136,0.602017496274515 l -19.13768816371238 -17.331330636022155" fill="#bcff1f" stroke="none" /><path d="M 114.81725581225074 114.88116024355365 l 9.601643676672927 9.643054015166488 a34.60808774344183,34.60808774344183 0 0,0 -0.42576195793813754,0.4166976868559935 l -9.434231766358995 -9.806901804945054" fill="#ffae10" stroke="none" /><path d="M 114.29624159901734 115.38237550388516 l 4.545994638995575 4.891369251935791 a27.677691248969168,27.677691248969168 0 0,0 -0.3517708697174718,0.32133434908009123 l -4.461124219811239 -4.968896367602466" fill="#ff5007" stroke="none" /><path d="M 113.20401910651253 116.32954008644616 l 3.8939112877199644 4.815638325949283 a27.19297324416831,27.19297324416831 0 0,0 -0.36651272988092315,0.29117987904664094 l -3.8104410651216902 -4.881952119001051" fill="#ff4a06" stroke="none" /><path d="M 112.92097659922987 116.55440617244103 l 6.655749923483102 8.527373048729126 a31.81735171639238,31.81735171639238 0 0,0 -0.43464210204053344,0.33326502975465144 l -6.507979092949074 -8.64067742031115" fill="#ff890c" stroke="none" /><path d="M 111.7513745106137 117.40417183066458 l 7.512354861310595 11.126044424938495 a34.42476592376798,34.42476592376798 0 0,0 -0.4939549029897906,0.32736637516402917 l -7.3197252595808395 -11.253708821193843" fill="#ffab0f" stroke="none" /><path d="M 111.1453310114006 117.79835938074945 l 5.6585300158585765 9.036299656420217 a31.661785658180932,31.661785658180932 0 0,0 -0.4644042166668878,0.28527500034931824 l -5.50214659925938 -9.132363123597914" fill="#ff870c" stroke="none" /><line stroke="#e1ed5e" stroke-width="0.3" x1="143.8653032363475" x2="146.44561519142675" y1="172.8068346515853" y2="177.08958963109032" /><path d="M 144.38136562736335 173.6633856474863 a86.0,86.0 0 0,1 -40.68145358897372,12.25698825130547" fill="none" id="id42" stroke="none" /><text fill="#e1ed5e" style="font-size:6.75px; font-family:Arial;" text-anchor="middle"><textPath startOffset="21.466115282336833" xlink:href="#id42">June</textPath></text><path d="M 110.8373102113329 117.98757091392108 l 6.191143173339824 10.275947139746178 a32.99688890553088,32.99688890553088 0 0,0 -0.489032951595635,0.2889292877054074 l -6.013342350715807 -10.380994999745333" fill="#ff980e" stroke="none" /><path d="M 109.89434966115114 118.52300852407294 l 2.914892983307071 5.4569112094908085 a27.186637297627787,27.186637297627787 0 0,0 -0.4146727264829842,0.21693717185251063 l -2.8205293542975913 -5.506277800288037" fill="#ff4a06" stroke="none" /><path d="M 109.57404056367764 118.69057910512821 l 0.4754149928453813 0.9281119577925941 a22.04279011388667,22.04279011388667 0 0,0 -0.3391924518605503,0.1700781368826737 l -0.4593686333020705 -0.93615793558457" fill="#ff0000" stroke="none" /><path d="M 109.2508944713604 118.85261126421891 l 3.484860074040767 7.101876741701318 a28.910809250004803,28.910809250004803 0 0,0 -0.4486507853542028,0.21537964143334348 l -3.3620966206863314 -7.160810659634222" fill="#ff6109" stroke="none" /><path d="M 107.93186726928326 119.44442032107085 l 2.336054988741895 5.726676147259377 a27.184817912114745,27.184817912114745 0 0,0 -0.43480035182470955,0.17301603324764558 l -2.237133560875319 -5.766039024913091" fill="#ff4a06" stroke="none" /><path d="M 106.91757812671514 119.82793768551818 l 4.652502711991415 13.33552468295367 a35.123809686297605,35.123809686297605 0 0,0 -0.572568721436775,0.19424639741549418 l -4.422264257617413 -13.413634067267287" fill="#ffb410" stroke="none" /><path d="M 106.2309692047433 120.05430185196036 l 4.254416862773348 13.692791147993129 a35.33850034922792,35.33850034922792 0 0,0 -0.5824542541247569,0.17548868882268673 l -4.018087634208345 -13.76399520592154" fill="#ffb711" stroke="none" /><path d="M 105.88484417918355 120.15858648285463 l 2.339065910278464 8.01249124118479 a29.346930287398465,29.346930287398465 0 0,0 -0.4861372551806129,0.1373872442078336 l -2.2007974869932454 -8.051567278731143" fill="#ff6709" stroke="none" /><path d="M 105.53697534728816 120.25689768951611 l 1.6275016568784264 5.9541775942800665 a27.172600138302236,27.172600138302236 0 0,0 -0.45224206866658373,0.11944124069904415 l -1.5247691454003451 -5.981310184282695" fill="#ff4906" stroke="none" /><path d="M 105.18746579009965 120.34920634021253 l 6.184043768011442 24.258546994630443 a46.03436637135789,46.03436637135789 0 0,0 -0.7695339573139415,0.18913272403960446 l -5.765556525954289 -24.361400976984076" fill="#c5ff1e" stroke="none" /><path d="M 104.48393922423573 120.51570834832081 l 1.521898215293055 6.963256716777667 a28.127630621844926,28.127630621844926 0 0,0 -0.47389504208424893,0.09930931366394288 l -1.401811711779428 -6.988422011168152" fill="#ff5708" stroke="none" /><path d="M 104.13013068566511 120.58985236759428 l 2.7785574436285687 13.851883127514014 a35.12781114135701,35.12781114135701 0 0,0 -0.5938814563995543,0.11381879456875363 l -2.53970837265731 -13.897659120431237" fill="#ffb410" stroke="none" /><path d="M 102.70371172650421 120.8252237178851 l 3.470446677459615 26.7309668226107 a47.95530722163271,47.95530722163271 0 0,0 -0.8195164133804801,0.09923202476806714 l -3.009802841027754 -26.786744376104117" fill="#afff20" stroke="none" /><line stroke="#e1ed5e" stroke-width="0.3" x1="102.19456741930631" x2="102.32365962044197" y1="184.97166512339345" y2="189.96999836594603" /><path d="M 102.22038585953345 185.97133177190398 a86.0,86.0 0 0,1 -42.740103519485714,-10.115201625700543" fill="none" id="id43" stroke="none" /><text fill="#e1ed5e" style="font-size:6.75px; font-family:Arial;" text-anchor="middle"><textPath startOffset="22.20632615414155" xlink:href="#id43">July</textPath></text><path d="M 99.45781275523022 120.99299961872073 l -0.15536588748382849 6.015626609023487 a27.017632595812497,27.017632595812497 0 0,0 -0.46480575251423045,-0.01600884992568733 l 0.258891991672702 -6.012060960671706" fill="#ff4706" stroke="none" /><path d="M 99.09653310690486 120.98055641714683 l -0.5255060548154649 12.203445986644597 a33.214755444240375,33.214755444240375 0 0,0 -0.5709963342904192,-0.029513988330272956 l 0.735490457519373 -12.192592191552123" fill="#ff9b0e" stroke="none" /><path d="M 97.65516085044442 120.86867818915974 l -1.0420508631266698 9.274079257610559 a30.33243891369161,30.33243891369161 0 0,0 -0.5183562151472774,-0.06276571883167288 l 1.2015345013253367 -9.254768010053539" fill="#ff750a" stroke="none" /><path d="M 97.2962882734958 120.8252237178851 l -0.7676111471714837 5.912491968534489 a26.962112725472974,26.962112725472974 0 0,0 -0.45973150896140846,-0.06371459805899823 l 0.8692712473197233 -5.8984028049828865" fill="#ff4606" stroke="none" /><path d="M 96.22490169976321 120.6578951692458 l -0.7012926082474703 3.8375766753502782 a24.901128818890122,24.901128818890122 0 0,0 -0.42098605544895573,-0.08068297948204689 l 0.7672462782681211 -3.8249364975197633" fill="#ff2904" stroke="none" /><path d="M 95.51606077576429 120.51570834832081 l -6.907221143966737 31.603134520881085 a53.34915478766898,53.34915478766898 0 0,0 -0.8954524814083147,-0.20380206942554271 l 7.450193774767914 -31.479555717877854" fill="#74ff27" stroke="none" /><path d="M 94.46302465271185 120.25689768951611 l -1.1120592827607683 4.068443455612378 a25.21768988901384,25.21768988901384 0 0,0 -0.417735634513873,-0.11805626296209142 l 1.1819260853792553 -4.048698399311765" fill="#ff2e04" stroke="none" /><path d="M 93.08242187328487 119.8279376855182 l -1.587919834227397 4.5514737883575185 a25.820518960240516,25.820518960240516 0 0,0 -0.41839131126471985,-0.15002023856968275 l 1.6660307061218433 -4.523466008747878" fill="#ff3605" stroke="none" /><path d="M 92.7421414339146 119.70592522655815 l -4.187481210082553 11.369495680047548 a33.11612276693391,33.11612276693391 0 0,0 -0.5332165371647015,-0.20161686883028876 l 4.382567968007538 -11.295730561110625" fill="#ff9a0e" stroke="none" /><path d="M 91.40352486487194 119.15986991738527 l -5.8782248711489435 13.101419140517866 a35.35969049566605,35.35969049566605 0 0,0 -0.5531804755992809,-0.25393802455865633 l 6.102873342515644 -12.998294045625135" fill="#ffb711" stroke="none" /><path d="M 90.7491055286396 118.85261126421891 l -1.5990560070564581 3.2587531275033905 a24.62993829971206,24.62993829971206 0 0,0 -0.3790032531222222,-0.19004009909395322 l 1.6549131678614408 -3.230745187500135" fill="#ff2503" stroke="none" /><path d="M 90.42595943632237 118.69057910512821 l -3.313492696234356 6.468647896499355 a28.267918509235223,28.267918509235223 0 0,0 -0.4311653078641764,-0.22556531094361626 l 3.424348906625028 -6.410653166611021" fill="#ff5908" stroke="none" /><path d="M 90.10565033884886 118.52300852407294 l -5.640955649592741 10.560317065767347 a32.9724966974399,32.9724966974399 0 0,0 -0.498319918452572,-0.27172375182439157 l 5.821898379913954 -10.46165266218319" fill="#ff980e" stroke="none" /><line stroke="#e1ed5e" stroke-width="0.3" x1="58.666819895761336" x2="56.23545636021788" y1="174.27360380694188" y2="178.64263932499728" /><path d="M 58.180547188652646 175.14741091055294 a86.0,86.0 0 0,1 -31.652253787137756,-30.449443065178592" fill="none" id="id44" stroke="none" /><text fill="#e1ed5e" style="font-size:6.75px; font-family:Arial;" text-anchor="middle"><textPath startOffset="22.20632615414155" xlink:href="#id44">August</textPath></text><path d="M 89.7882731507175 118.34994917583269 l -5.840294807762663 10.494710099091073 a33.010328201408306,33.010328201408306 0 0,0 -0.49413511306896896,-0.28058281333483454 l 6.020078687752839 -10.392624119961605" fill="#ff990e" stroke="none" /><path d="M 89.4739219176387 118.17145234162733 l -16.209927401108803 27.98363463824982 a53.33953546228321,53.33953546228321 0 0,0 -0.7905227228706435,-0.46705475876156255 l 16.68921799500783 -27.70046130719451" fill="#74ff27" stroke="none" /><path d="M 89.1626897886671 117.98757091392108 l -8.716814985872103 14.46801140175353 a37.891009958531036,37.891009958531036 0 0,0 -0.5557723429904565,-0.3414007660797548 l 8.964566528794869 -14.315822168845397" fill="#ffd714" stroke="none" /><path d="M 88.8546689885994 117.79835938074946 l -10.045395492305364 16.041834819524425 a39.92750472127098,39.92750472127098 0 0,0 -0.5793636803537451,-0.36977731244555434 l 10.320040974706032 -15.866543078255066" fill="#fff116" stroke="none" /><path d="M 88.54995079064634 117.60387380957326 l -9.759643564512675 15.00496029272463 a38.899706028104944,38.899706028104944 0 0,0 -0.5581650303736022,-0.369921346322787 l 10.016483293626239 -14.834740925310525" fill="#ffe415" stroke="none" /><path d="M 88.24862548938628 117.40417183066458 l -9.009957779970359 13.344043562564316 a37.10101977504725,37.10101977504725 0 0,0 -0.5262039673079918,-0.3619278868983787 l 9.23831863190124 -13.186974886300836" fill="#ffce13" stroke="none" /><path d="M 85.44109423537348 115.13401014063109 l -9.033790764106316 9.390642624015342 a34.030485196708,34.030485196708 0 0,0 -0.4186560700592543,-0.4097430799753635 l 9.194096786541364 -9.233749441117409" fill="#ffa60f" stroke="none" /><path d="M 85.18274418774928 114.88116024355367 l -2.1420854642134186 2.15132393286965 a24.035905927418067,24.035905927418067 0 0,0 -0.2906735069310046,-0.2944507278864184 l 2.1787995961999562 -2.1141327110025667" fill="#ff1d02" stroke="none" /><path d="M 84.9287848128048 114.62390073753433 l -14.093928785664351 13.67562024716805 a40.63826412288344,40.63826412288344 0 0,0 -0.48280860295195116,-0.5062228899517627 l 14.327243939995261 -13.430990240633786" fill="#fff917" stroke="none" /><path d="M 84.67929136418377 114.36230785411682 l -11.81176170598122 11.072866272267724 a37.190308276324096,37.190308276324096 0 0,0 -0.43380474285865506,-0.470809370895807 l 12.000612856835605 -10.867905646570573" fill="#ffcf13" stroke="none" /><path d="M 84.43433777217949 114.09645910891817 l -8.459023316829661 7.6605977016482445 a32.41226676086597,32.41226676086597 0 0,0 -0.370952451371974,-0.41676901155635354 l 8.589634617849972 -7.5138545203510265" fill="#ff910d" stroke="none" /><path d="M 83.06392112726016 112.41649034213515 l -20.822541158933124 15.265805216268388 a46.81904392529884,46.81904392529884 0 0,0 -0.4709108656512941,-0.6540540053614149 l 21.082231816960025 -14.905117605455835" fill="#bcff1f" stroke="none" /><path d="M 82.44556493220864 111.52570212397912 l -5.170112130180018 3.394536601713798 a27.1848959715592,27.1848959715592 0 0,0 -0.2534604962301064,-0.3933763187685369 l 5.22777748978717 -3.3050386830238128" fill="#ff4a06" stroke="none" /><line stroke="#e1ed5e" stroke-width="0.3" x1="26.63291911575756" x2="22.317208475507996" y1="142.92168965132927" y2="145.44649492493687" /><path d="M 25.769776987707644 143.4266507060508 a86.0,86.0 0 0,1 -11.730757126820373,-40.83630448921669" fill="none" id="id45" stroke="none" /><text fill="#e1ed5e" style="font-size:6.75px; font-family:Arial;" text-anchor="middle"><textPath startOffset="21.46611528233685" xlink:href="#id45">September</textPath></text><path d="M 81.87401531095188 110.60418214915194 l -2.2434567034535293 1.3124817181121917 a23.599174145887364,23.599174145887364 0 0,0 -0.2021078267900129,-0.3523920317278103 l 2.2657165263959196 -1.2736698405260745" fill="#ff1702" stroke="none" /><path d="M 81.69416730710424 110.29060199501025 l -11.37627314459006 6.395158367361937 a34.05058010986333,34.05058010986333 0 0,0 -0.2828202115724351,-0.5134008346875925 l 11.484669765614013 -6.198387014276522" fill="#ffa60f" stroke="none" /><path d="M 81.18737489456691 109.33194174019688 l -5.722272320268896 2.8385146472125613 a27.387610344233266,27.387610344233266 0 0,0 -0.2058592905686789,-0.4241311120792413 l 5.770284867452294 -2.739594579168035" fill="#ff4c07" stroke="none" /><path d="M 80.73074385275274 108.34839909993369 l -11.747297762610296 5.089513021084571 a33.80242740714503,33.80242740714503 0 0,0 -0.22671613017212675,-0.535889960864714 l 11.833164873974729 -4.886548534553698" fill="#ffa30f" stroke="none" /><path d="M 80.45479744820244 107.68017299344265 l -4.8622659551032905 1.9105989603512967 a26.224176356656805,26.224176356656805 0 0,0 -0.16147314361258924,-0.42155542462944945 l 4.894433378309389 -1.8266199688886893" fill="#ff3c05" stroke="none" /><path d="M 80.20201598880116 107.00284435728193 l -6.352348336993351 2.246921034083078 a27.738025194959363,27.738025194959363 0 0,0 -0.15534505211690305,-0.45150543685875894 l 6.390084220053482 -2.137242894135022" fill="#ff5107" stroke="none" /><path d="M 79.97269907076064 106.31721596034903 l -3.044224946124187 0.9602405478649177 a24.19207885747967,24.19207885747967 0 0,0 -0.12185115526389673,-0.3982166256630759 l 3.060302873894214 -0.9076969496497941" fill="#ff1f03" stroke="none" /><path d="M 79.67330655649465 105.27499134158121 l -25.07604923452965 6.507499262526243 a46.90667465855729,46.90667465855729 0 0,0 -0.1960893009078109,-0.783279283295233 l 25.184349849732516 -6.074892139833618" fill="#bbff1f" stroke="none" /><path d="M 79.4281124754447 104.21870165774334 l -6.177840196889716 1.2668971016287671 a27.30640450371063,27.30640450371063 0 0,0 -0.09046230435793867,-0.461265340991482 l 6.198732434223321 -1.1603680335693303" fill="#ff4b07" stroke="none" /><path d="M 79.23777060512086 103.15116336523772 l -12.560261475421422 1.9063191657499305 a33.704102529996405,33.704102529996405 0 0,0 -0.08211916145624344,-0.5743412239617166 l 12.591214687894265 -1.6898324698078133" fill="#ffa20e" stroke="none" /><path d="M 79.10278846688536 102.07522291339032 l -11.850742873767375 1.1768523811594667 a32.90903388974895,32.90903388974895 0 0,0 -0.051127167465927104,-0.5641840326283616 l 11.869244637510377 -0.9726869599825387" fill="#ff970e" stroke="none" /><line stroke="#e1ed5e" stroke-width="0.3" x1="15.007084014347285" x2="10.007500721073583" y1="101.09737516637583" y2="101.16192664675087" /><path d="M 14.007167355692545 101.11028546245083 a86.0,86.0 0 0,1 10.666146001902534,-42.60595125391555" fill="none" id="id46" stroke="none" /><text fill="#e1ed5e" style="font-size:6.75px; font-family:Arial;" text-anchor="middle"><textPath startOffset="22.20632615414155" xlink:href="#id46">October</textPath></text><path d="M 79.00175016825051 100.2711162175752 l -6.030325716473043 0.07785977936716644 a27.03082833381943,27.03082833381943 0 0,0 -0.0020024729955191254,-0.4653042018561553 l 6.030772486758066 0.025953900692664227" fill="#ff4706" stroke="none" /><path d="M 79.00486145842228 99.54816195383935 l -1.5008856986435415 -0.03230068047622401 a22.501233231164278,22.501233231164278 0 0,0 0.011666681073605217,-0.3871603469605907 l 1.5001073231142912 0.058131174861809146" fill="#ff0701" stroke="none" /><path d="M 79.08570108090925 98.10471618934814 l -4.795284940582634 -0.43455560956207373 a25.81493470767574,25.81493470767574 0 0,0 0.0439135080039892,-0.4422030327437351 l 4.7870943068964165 0.5170341730102392" fill="#ff3605" stroke="none" /><path d="M 79.12142395522702 97.74499172005258 l -27.111093395779427 -2.928156592423172 a48.26876392769621,48.26876392769621 0 0,0 0.09632985034108807,-0.8252953300742079 l 27.05667319243475 3.394395660822241" fill="#abff21" stroke="none" /><path d="M 79.16333360222342 97.38593545837743 l -4.469171321541031 -0.5606800079749554 a25.504204077595464,25.504204077595464 0 0,0 0.05839734156649037,-0.43512802482105606 l 4.458857980916707 0.6375263748606709" fill="#ff3204" stroke="none" /><path d="M 79.21141760316559 97.0276538004421 l -7.087592255072999 -1.0133821297305103 a28.159672291035946,28.159672291035946 0 0,0 0.07273791735568012,-0.47925199388400275 l 7.069098444278017 1.1352332360066053" fill="#ff5708" stroke="none" /><path d="M 79.3925641242962 95.95851677861259 l -6.097785508001766 -1.1958837560797106 a27.213946094041344,27.213946094041344 0 0,0 0.09410932982288885,-0.45891051446461556 l 6.0762968822638825 1.3006699267077289" fill="#ff4a06" stroke="none" /><path d="M 80.02781315780177 93.51064311812611 l -14.287318903413125 -4.6422313180796495 a36.022576112584204,36.022576112584204 0 0,0 0.19668790773243866,-0.5880718092105581 l 14.205293701908914 4.88747623021253" fill="#ffc011" stroke="none" /><path d="M 80.14247586403 93.16781622104843 l -5.681331659098231 -1.9547201221235664 a27.00819941217888,27.00819941217888 0 0,0 0.15503596342916554,-0.4383075459816176 l 5.646842614859255 2.052225294531795" fill="#ff4706" stroke="none" /><path d="M 80.52162464483688 92.15188598940014 l -8.357929710661574 -3.3675285574813048 a30.010840007114297,30.010840007114297 0 0,0 0.19718309901475145,-0.47749451468733406 l 8.298724924760624 3.51089764262195" fill="#ff700a" stroke="none" /><path d="M 80.95270993114464 91.15688171328213 l -7.788147500942487 -3.6158167033878437 a29.586580921934832,29.586580921934832 0 0,0 0.2184360449611406,-0.46008201882490257 l 7.724753262139594 3.749341137853279" fill="#ff6b09" stroke="none" /><path d="M 81.10775173730289 90.83032412892265 l -23.60238728494913 -11.455822418656012 a47.23563517120388,47.23563517120388 0 0,0 0.36133008676378625,-0.7284194062550282 l 23.40169718523193 11.86040141341" fill="#b7ff1f" stroke="none" /><path d="M 81.6062741919709 89.86733742301443 l -2.2928896077232075 -1.263097915224686 a23.61777751091456,23.61777751091456 0 0,0 0.19922422931971387,-0.35439767392288457 l 2.270807737111063 1.3023790990823552" fill="#ff1702" stroke="none" /><line stroke="#e1ed5e" stroke-width="0.3" x1="26.266209847984243" x2="21.928928074336255" y1="57.711370442889674" y2="55.22380399835377" /><path d="M 25.398753493254645 57.213857153982495 a86.0,86.0 0 0,1 29.58750427330803,-30.492523968695096" fill="none" id="id47" stroke="none" /><text fill="#e1ed5e" style="font-size:6.75px; font-family:Arial;" text-anchor="middle"><textPath startOffset="21.46611528233685" xlink:href="#id47">November</textPath></text><path d="M 81.78341655067845 89.55222093294921 l -10.75595958545002 -6.168878468102332 a33.39942450914762,33.39942450914762 0 0,0 0.29032103916207685,-0.4962527648755271 l 10.648178871817619 6.353110645331752" fill="#ff9e0e" stroke="none" /><path d="M 82.34701348167596 88.62581576622439 l -10.374601240612602 -6.684570100373459 a33.341629889464656,33.341629889464656 0 0,0 0.3150043596533677,-0.4797732509589769 l 10.258000245601314 6.862161415310103" fill="#ff9d0e" stroke="none" /><path d="M 82.54541684631803 88.32363383020206 l -21.817718306255095 -14.595116118805702 a47.24938564257306,47.24938564257306 0 0,0 0.4580389966195504,-0.6721157084956124 l 21.563254843966803 14.968509850571731" fill="#b7ff1f" stroke="none" /><path d="M 84.07557802195018 86.31012108654704 l -19.261939522434115 -16.559070091451463 a46.40128178772701,46.40128178772701 0 0,0 0.5258991717093454,-0.6011936641278194 l 18.974048487146927 16.888179311782224" fill="#c0ff1e" stroke="none" /><path d="M 84.5562425177563 85.77008943001954 l -3.0938742071762824 -2.850702190416136 a25.206965722260406,25.206965722260406 0 0,0 0.2967612209768267,-0.3165641794603209 l 3.0443456642289997 2.9035357867545066" fill="#ff2e04" stroke="none" /><path d="M 84.80347519578584 85.50635884689758 l -5.4652458775924515 -5.2124622954144835 a28.552395360656043,28.552395360656043 0 0,0 0.3422694413883055,-0.3527387456839389 l 5.374712172501027 5.305765236648546" fill="#ff5c08" stroke="none" /><path d="M 86.10567301691215 84.25364557470407 l -6.504632286639795 -7.371659348187504 a30.83115469973477,30.83115469973477 0 0,0 0.40096093063705907,-0.3477093679138348 l 6.376777557355963 7.48253370952102" fill="#ff7c0b" stroke="none" /><path d="M 86.65592168130627 83.78471172551755 l -4.784323395509572 -5.813753576959877 a28.529241728516492,28.529241728516492 0 0,0 0.38187966149608676,-0.30878679497949657 l 4.683540335448985 5.895246469203508" fill="#ff5c08" stroke="none" /><path d="M 86.93701828274178 83.55741782278169 l -4.409419519559427 -5.550206252558682 a28.088566141711112,28.088566141711112 0 0,0 0.38115842488756596,-0.29750019645949816 l 4.313228539512435 5.625284838241401" fill="#ff5608" stroke="none" /><path d="M 87.22198572758235 83.33499621200491 l -2.215350243829854 -2.8892454976241915 a24.64081258078175,24.64081258078175 0 0,0 0.3388156860580659,-0.2551889503531174 l 2.165288404013398 2.926951037483163" fill="#ff2603" stroke="none" /><path d="M 87.51073957382395 83.11751280151077 l -2.9659780162868166 -4.009291517856036 a25.987127837568337,25.987127837568337 0 0,0 0.36190748812428003,-0.26294118132588534 l 2.896525211808755 4.05975193399859" fill="#ff3905" stroke="none" /><path d="M 87.80319425747018 82.90503203632743 l -14.824313188917383 -20.77766625111695 a46.52394319782729,46.52394319782729 0 0,0 0.6559186116502499,-0.4595129044580358 l 14.464463437683472 21.02976399833893" fill="#bfff1e" stroke="none" /><path d="M 88.70189139769569 82.29822771554957 l -1.5795951294341508 -2.4748950702392256 a23.93602220387151,23.93602220387151 0 0,0 0.3492161319837611,-0.21867910981108266 l 1.5367598450781474 2.5017185213732387" fill="#ff1b02" stroke="none" /><line stroke="#e1ed5e" stroke-width="0.3" x1="56.762969772571076" x2="54.21961505331055" y1="26.818313649435495" y2="22.513508569990535" /><path d="M 56.25429882871897 25.957352633546506 a86.0,86.0 0 0,1 42.265352541879196,-11.944610805530505" fill="none" id="id48" stroke="none" /><text fill="#e1ed5e" style="font-size:6.75px; font-family:Arial;" text-anchor="middle"><textPath startOffset="22.20632615414155" xlink:href="#id48">December</textPath></text><path d="M 89.63071344664047 81.73862282372117 l -6.31418451630445 -11.11992656577685 a33.78756008526289,33.78756008526289 0 0,0 0.5082226819031147,-0.28282537223806253 l 6.12183774532929 11.226967335575099" fill="#ffa30f" stroke="none" /><path d="M 89.94658935756843 81.56283822128135 l -2.875569484453314 -5.273567516186652 a27.0066142049992,27.0066142049992 0 0,0 0.41005679598871564,-0.21903813925101936 l 2.784367641936293 5.322284381939421" fill="#ff4706" stroke="none" /><path d="M 90.91171255644093 81.06846463323043 l -1.285325206063804 -2.6774218737593274 a23.969957705999846,23.969957705999846 0 0,0 0.3734996397919049,-0.17536308896569383 l 1.2390473549722907 2.6991499453650287" fill="#ff1c02" stroke="none" /><path d="M 92.23578459929587 80.48803036053334 l -9.770841810538787 -24.554750083565988 a47.427355171355245,47.427355171355245 0 0,0 0.7611341491564941,-0.29530822494423253 l 9.346724496382615 24.719301012400773" fill="#b5ff20" stroke="none" /><path d="M 93.25333710446033 80.11325718540243 l -3.533602393275755 -10.415792680345614 a31.998867352309755,31.998867352309755 0 0,0 0.5231314681349759,-0.17246822016813002 l 3.35378810289837 10.475074624772978" fill="#ff8b0c" stroke="none" /><path d="M 93.59665428221793 80.00007090966166 l -1.6918613161261566 -5.284285410241721 a26.54851935293531,26.54851935293531 0 0,0 0.4364255815955032,-0.13559955261259568 l 1.6006503618199246 5.312625097736842" fill="#ff4106" stroke="none" /><path d="M 94.63758080256005 79.69619591428918 l -7.533757100466644 -28.525171674425124 a50.503269566342254,50.503269566342254 0 0,0 0.842421258163575,-0.21475193599764758 l 7.04162695361807 28.650626606591636" fill="#92ff23" stroke="none" /><path d="M 95.692805502759 79.44645832069477 l -1.4283307581373965 -6.815864894890525 a27.963917218063578,27.963917218063578 0 0,0 0.4719691230934305,-0.09467256603755682 l 1.3107952255768296 6.839441417005292" fill="#ff5407" stroke="none" /><path d="M 97.11714578562143 79.19881850522333 l -3.669684673092313 -26.478542179784842 a47.731625120193755,47.731625120193755 0 0,0 0.814813551903515,-0.10578618434260155 l 3.2133563926809403 26.537786687291582" fill="#b1ff20" stroke="none" /><path d="M 99.63851952072746 79.00311137660856 l -0.22160188603399222 -12.87192638770707 a33.87383378510238,33.87383378510238 0 0,0 0.5830823653065248,-0.005018774003865651 l 3.1531798675361363e-15 12.873833785102377" fill="#ffa40f" stroke="none" /></svg>