<?xml version="1.0" encoding="utf-8" ?>
<svg baseProfile="full" height="200mm" version="1.1" viewBox="0,0,200,200" width="200mm" xmlns="http://www.w3.org/2000/svg" xmlns:ev="http://www.w3.org/2001/xml-events" xmlns:xlink="http://www.w3.org/1999/xlink"><defs /><rect fill="#1a1a1a" height="200" width="200" x="0" y="0" /><rect fill="#1a1a1a" height="200" width="180" x="10" y="0" /><text alignment-baseline="middle" fill="#e1ed5e" style="dominant-baseline: central; font-size:9.0px; font-family:Arial;" text-anchor="middle" x="100.0" y="100.0">2016</text><line stroke="#e1ed5e" stroke-width="0.3" x1="100.0" x2="100.0" y1="15.0" y2="10.0" /><path d="M 100.0 14.0 a86.0,86.0 0 0,1 42.35913384403234,11.155469271406648" fill="none" id="id37" stroke="none" /><text fill="#e1ed5e" style="font-size:6.75px; font-family:Arial;" text-anchor="middle"><textPath startOffset="22.145653131862478" xlink:href="#id37">January</textPath></text><path d="M 100.36049292484886 79.00309439819443 l 0.3082310172419725 -17.952911489987486 a38.95555728256059,38.95555728256059 0 0,0 0.6685268660756861,0.017218880642058874 l -0.6163711973884 17.94497489199538" fill="#ffe115" stroke="none" /><path d="M 102.15924093988457 79.11130261209362 l 1.117701433302166 -10.812747470194918 a31.870361739528832,31.870361739528832 0 0,0 0.5437145911556553,0.060924354019100874 l -1.303151926058618 10.791967355668845" fill="#ff850c" stroke="none" /><path d="M 102.51750503828377 79.15144685158666 l 1.3617321505241826 -11.277095649214942 a32.35901407391125,32.35901407391125 0 0,0 0.5509078663414892,0.07132605285763045 l -1.5551178387564637 11.252058000156914" fill="#ff8b0c" stroke="none" /><path d="M 102.87502721639298 79.19773525538626 l 1.3829305843488928 -10.00619680224857 a31.10131038264131,31.10131038264131 0 0,0 0.5282407902948234,0.07763320520268487 l -1.5544964802513983 9.980982523747004" fill="#ff7a0b" stroke="none" /><path d="M 103.94208987418118 79.37332000966035 l 2.2357398840419687 -11.698335807057589 a32.91006269856636,32.91006269856636 0 0,0 0.5539915631114175,0.11081382806089338 l -2.436227932684343 11.658232582333836" fill="#ff930d" stroke="none" /><path d="M 104.29559338865022 79.4440306129975 l 2.3889653297226148 -11.4320639179071 a32.6790085525155,32.6790085525155 0 0,0 0.5481321428486051,0.11946284934344517 l -2.584859889190354 11.389369610429936" fill="#ff900d" stroke="none" /><path d="M 104.64783097203109 79.52079915486377 l 2.3838827124942448 -10.503827087129128 a31.770946117367615,31.770946117367615 0 0,0 0.5308287351355685,0.12527413612028357 l -2.563843601369698 10.461356807362616" fill="#ff830c" stroke="none" /><path d="M 104.9986988182912 79.60360301121754 l 1.9762423976370538 -8.063743376730983 a29.3023786507236,29.3023786507236 0 0,0 0.48752838078419214,0.12392780793043898 l -2.11437607164664 8.028630336965275" fill="#ff6209" stroke="none" /><path d="M 105.3480935250658 79.69241777938227 l 4.5265111571167225 -17.187900148877876 a38.773947642077104,38.773947642077104 0 0,0 0.6422047690047062,0.1750357655499913 l -4.820897327056121 17.10766388918374" fill="#ffdf14" stroke="none" /><path d="M 105.69591212413111 79.78721728523813 l 0.8388956159376871 -2.9769445939093435 a24.092886187632118,24.092886187632118 0 0,0 0.3971195869846854,0.11559572408836918 l -0.889875215303977 2.962105175518458" fill="#ff1802" stroke="none" /><path d="M 106.38641147887787 79.99465700312896 l 3.5439989344115843 -11.10152618539175 a32.653489266826874,32.653489266826874 0 0,0 0.5325275052548426,0.1750523683175404 l -3.7340491773141693 11.039052895672189" fill="#ff8f0d" stroke="none" /><path d="M 106.72888874123014 80.10723608172694 l 3.8545010525667966 -11.395147461960967 a33.02940414335116,33.02940414335116 0 0,0 0.5355391173144488,0.18628830466971447 l -4.049545941926263 11.327300724722662" fill="#ff940d" stroke="none" /><path d="M 107.06938296918511 80.22567764915836 l 3.9729048234041606 -11.112921875876703 a32.80173738714631,32.80173738714631 0 0,0 0.5285935131620381,0.19410685981616843 l -4.163087488220323 11.043084167051813" fill="#ff910d" stroke="none" /><path d="M 107.40779381753099 80.34994680014964 l 3.8001364395570696 -10.08031338929392 a31.77282483778641,31.77282483778641 0 0,0 0.5087097623523061,0.1967798644082389 l -3.9726184644029017 10.013593636747643" fill="#ff830c" stroke="none" /><path d="M 108.4095320186766 80.7573450057729 l 5.616036952239425 -12.850591598529933 a35.02417824619777,35.02417824619777 0 0,0 0.5488565541342398,0.2454965554907166 l -5.835806909229297 12.752291292129364" fill="#ffaf10" stroke="none" /><path d="M 109.06512990194946 81.05736502329252 l 6.4605575293644755 -13.500080456481111 a35.96632807076242,35.96632807076242 0 0,0 0.5546346055902106,0.27129957868869153 l -6.691352384216753 13.3871871276952" fill="#ffbb11" stroke="none" /><path d="M 109.3889696526874 81.21577127319529 l 8.338598615315135 -16.68278303639669 a39.650669604784184,39.650669604784184 0 0,0 0.6062262214726196,0.30954342821676306 l -8.623752058501333 16.53718165650709" fill="#ffea16" stroke="none" /><path d="M 109.71004243097381 81.37971332152246 l 7.976954366207502 -15.296861798061219 a38.25183415841752,38.25183415841752 0 0,0 0.5796267355183892,0.30861858905782763 l -8.23836991751245 15.157672741280818" fill="#ffd814" stroke="none" /><path d="M 110.34350942703115 81.72400993836675 l 8.786672824623814 -15.525208958381532 a38.83921894389978,38.83921894389978 0 0,0 0.5774236522240311,0.33337570104800124 l -9.051888944708242 15.37208636005736" fill="#ffdf14" stroke="none" /><line stroke="#e1ed5e" stroke-width="0.3" x1="143.13028292997686" x2="145.6673583964461" y1="26.7553504044142" y2="22.446841604673864" /><path d="M 143.63769802327073 25.89364864446614 a86.0,86.0 0 0,1 29.32050498858742,28.57503671076993" fill="none" id="id38" stroke="none" /><text fill="#e1ed5e" style="font-size:6.75px; font-family:Arial;" text-anchor="middle"><textPath startOffset="20.669276256404974" xlink:href="#id38">February</textPath></text><path d="M 110.65571695917076 81.90426304109057 l 7.401402627129986 -12.569199762035383 a35.586484960635204,35.586484960635204 0 0,0 0.523743657647326,0.31449301803966184 l -7.616079041334746 12.4402927434598" fill="#ffb610" stroke="none" /><path d="M 110.96478420261332 82.08984904055464 l 6.201591640943806 -10.129833877776225 a32.87742704765502,32.87742704765502 0 0,0 0.478814121155821,0.298815424540519 l -6.374569890889339 10.02188265639416" fill="#ff920d" stroke="none" /><path d="M 111.5731344415666 82.4767994020092 l 22.97465175541795 -34.78655099116548 a62.68859260209782,62.68859260209782 0 0,0 0.892875749583921,0.6007666520986988 l -23.56842379309887 34.387034665009665" fill="#32ff4c" stroke="none" /><path d="M 111.8722381534696 82.67804972795209 l 23.261743366256113 -33.939578756990485 a62.14612631390129,62.14612631390129 0 0,0 0.8747952382345113,0.6106750163096649 l -23.840933695664386 33.5352589248757" fill="#32ff46" stroke="none" /><path d="M 112.16784306229584 82.88440491214696 l 20.097604507656285 -28.269797631984915 a55.685662241040546,55.685662241040546 0 0,0 0.7743462297278642,0.5605669544445463 l -20.579931747758117 27.920629906167292" fill="#5eff2a" stroke="none" /><path d="M 112.45986205192187 83.09580414077388 l 24.675650913541507 -33.4772595601938 a62.588636136179666,62.588636136179666 0 0,0 0.8593926741913813,0.644904284255485 l -25.246696576643657 33.0487362486743" fill="#32ff4b" stroke="none" /><path d="M 112.7482090630111 83.31218511350987 l 27.23128995924005 -35.64663269279642 a65.85783738856958,65.85783738856958 0 0,0 0.892499313743681,0.6940128646009243 l -27.839199217618958 35.17391877657471" fill="#36ff71" stroke="none" /><path d="M 113.03279911837588 83.53348406188908 l 28.31099450891877 -35.77001671479584 a66.6180502198505,66.6180502198505 0 0,0 0.8906174418884601,0.7174183676845527 l -28.920862721162493 35.27875005331788" fill="#37ff7a" stroke="none" /><path d="M 114.13192950727249 84.46653392183569 l 16.485465877294253 -18.12041482770664 a45.49734717718643,45.49734717718643 0 0,0 0.5732020736798165,0.5305472819879639 l -16.794097722288036 17.8347497995863" fill="#ceff1d" stroke="none" /><path d="M 114.39649973595853 84.71141617570332 l 8.933881034190096 -9.487472064223645 a34.03174418496947,34.03174418496947 0 0,0 0.4218761602543201,0.40414781829880936 l -9.095429680309728 9.332712115619255" fill="#ffa20e" stroke="none" /><path d="M 114.65682725009322 84.96080404539774 l 8.24139396745246 -8.456396237787837 a32.80809941765541,32.80809941765541 0 0,0 0.3999589779094884,0.39654054564792485 l -8.385344865491911 8.313675681911253" fill="#ff910d" stroke="none" /><path d="M 114.91283532996326 85.21462403516908 l 10.281771559112277 -10.193893697769102 a35.47861509658941,35.47861509658941 0 0,0 0.4250898969139029,0.4361796826096296 l -10.455248257176992 10.01589132309173" fill="#ffb510" stroke="none" /><path d="M 115.16444852881244 85.47280134310134 l 45.49334558643732 -43.581595970695986 a84.0,84.0 0 0,0 0.9885766650549601,1.0498341602220207 l -46.23477808522854 42.794220350529464" fill="#4dd2ff" stroke="none" /><path d="M 115.41159269507618 85.73525988315684 l 34.81197813092297 -32.22144724532566 a68.43517138127746,68.43517138127746 0 0,0 0.7905966628751455,0.8690042246503659 l -35.35997249463999 31.619105445117626" fill="#3aff8e" stroke="none" /><path d="M 115.6541949942343 86.00192230759917 l 10.686079583706922 -9.55555825738738 a35.33530573373453,35.33530573373453 0 0,0 0.40044818172711466,0.4556365215466362 l -10.848538829392627 9.370709458029447" fill="#ffb310" stroke="none" /><path d="M 115.8921839302757 86.27271002978787 l 23.508012779831322 -20.30566154205078 a52.063588902717484,52.063588902717484 0 0,0 0.5784151587778463,0.6813716026360783 l -23.85312250211628 19.89912315696515" fill="#84ff25" stroke="none" /><path d="M 116.1254893667686 86.54754324733833 l 11.16335392177835 -9.31286687998809 a35.53788018616412,35.53788018616412 0 0,0 0.38677597876496966,0.47180380519880055 l -11.321576719781948 9.119860793090794" fill="#ffb510" stroke="none" /><path d="M 116.35404254752997 86.82634096563983 l 8.035632724690158 -6.47293691041565 a31.31844491831655,31.31844491831655 0 0,0 0.33366606992050857,0.4215761793340373 l -8.145565225252225 6.334040787166934" fill="#ff7d0b" stroke="none" /><path d="M 116.57777611688842 87.10902102172516 l 10.399567096384567 -8.086766275367879 a34.173715671162476,34.173715671162476 0 0,0 0.35613571909952607,0.46619308841144697 l -10.5368547928384 7.90705227371555" fill="#ffa30f" stroke="none" /><path d="M 116.7966241395341 87.39550010848427 l 8.296116934737102 -6.2255608112212055 a31.37223040666977,31.37223040666977 0 0,0 0.3195455583398837,0.43352492038946305 l -8.401764512660812 6.082229581562868" fill="#ff7e0b" stroke="none" /><path d="M 117.01052211995028 87.68569379921539 l 12.21038288386455 -8.839375570040819 a36.07408407296466,36.07408407296466 0 0,0 0.3588253093906257,0.5047327345825232 l -12.360323291785136 8.628465608748792" fill="#ffbc11" stroke="none" /><path d="M 117.21940702142032 87.97951657250589 l 5.9692068253328285 -4.166969956046696 a28.279771200951018,28.279771200951018 0 0,0 0.2744622672032485,0.40044865025377174 l -6.0398588293514015 4.063886570722875" fill="#ff5307" stroke="none" /><path d="M 117.62189284568427 88.57770195909679 l 9.614567975166791 -6.232046801588304 a32.45767536135886,32.45767536135886 0 0,0 0.29904695016062804,0.4701514760306838 l -9.72013261695331 6.066081650878949" fill="#ff8d0d" stroke="none" /><path d="M 117.81537515405839 88.88188828441811 l 13.531076424721103 -8.444392443111425 a36.949852442731896,36.949852442731896 0 0,0 0.331197425636569,0.5409861043245008 l -13.674041814813075 8.21086922266237" fill="#ffc812" stroke="none" /><line stroke="#e1ed5e" stroke-width="0.3" x1="172.87174338648825" x2="177.1583165268699" y1="56.24261187166439" y2="53.66864786411523" /><path d="M 173.72905801456457 55.72781907015455 a86.0,86.0 0 0,1 12.242430191666344,42.057860355516425" fill="none" id="id39" stroke="none" /><text fill="#e1ed5e" style="font-size:6.75px; font-family:Arial;" text-anchor="middle"><textPath startOffset="22.145653131862474" xlink:href="#id39">March</textPath></text><path d="M 118.00360718960297 89.18935116829356 l 9.946389414054984 -5.972521060159949 a32.60179598984912,32.60179598984912 0 0,0 0.28398693254901514,0.48227189694183076 l -10.047450056733767 5.800897994924562" fill="#ff8f0d" stroke="none" /><path d="M 118.18653347947321 89.5 l 7.8627571504605385 -4.539564957391048 a30.079129914782094,30.079129914782094 0 0,0 0.25433570866917726,0.44938682724152257 l -7.939526224151091 4.403921360050407" fill="#ff6c0a" stroke="none" /><path d="M 118.36410011445183 89.81374322990088 l 9.12988574175608 -5.064193718591602 a31.44034825458153,31.44034825458153 0 0,0 0.2577429600828285,0.47421801635780436 l -9.21547405145425 4.906720868759194" fill="#ff7f0b" stroke="none" /><path d="M 118.53625476483649 90.13048839642627 l 11.386084431371247 -6.062448635949134 a33.89946518820979,33.89946518820979 0 0,0 0.2690841577590159,0.5160043525790255 l -11.488476658105206 5.86609804026561" fill="#ffa00e" stroke="none" /><path d="M 119.0197475246899 91.09779779509293 l 12.909604051850812 -6.042346540388019 a35.253695257360526,35.253695257360526 0 0,0 0.25183818856523216,0.5503118915718436 l -13.011426705271095 5.819845666601491" fill="#ffb210" stroke="none" /><path d="M 119.16976305983485 91.42560881287824 l 10.254722811781786 -4.5868070789016695 a32.233794511452494,32.233794511452494 0 0,0 0.22159370388005167,0.5070497601039907 l -10.331950397678808 4.41009524902183" fill="#ff8a0c" stroke="none" /><path d="M 119.31412917781788 91.75594674310238 l 27.72241470747637 -11.833050361945332 a51.14221886460313,51.14221886460313 0 0,0 0.33771923855138936,0.8104032301513774 l -27.921459790564242 11.355414622352678" fill="#8eff24" stroke="none" /><path d="M 119.4528033332814 92.08871423366111 l 8.890776801066174 -3.6158015249982967 a30.59791293951745,30.59791293951745 0 0,0 0.19370128997383887,0.4882537857819136 l -8.951536766006138 3.462646722002818" fill="#ff730a" stroke="none" /><path d="M 119.58574465831526 92.42381321644754 l 6.9550674988088055 -2.6903695204062275 a28.457281815066224,28.457281815066224 0 0,0 0.17232824137722502,0.4571211340798005 l -7.000226424000471 2.5705801061322693" fill="#ff5608" stroke="none" /><path d="M 119.71291397450082 92.76114493625339 l 13.901853028915788 -5.104952992946668 a35.80952607944529,35.80952607944529 0 0,0 0.20694466646706955,0.5788610634541711 l -13.987437865426802 4.86555697311158" fill="#ffb911" stroke="none" /><path d="M 119.83427380445688 93.10060997987247 l 6.727594580778081 -2.3402066225209763 a28.12299767509478,28.12299767509478 0 0,0 0.15469601050285398,0.45733126737199586 l -6.7667760128533 2.2243736806748187" fill="#ff5107" stroke="none" /><path d="M 120.05942366710727 93.78553927170692 l 14.026252508203749 -4.3453688811750615 a35.68393646599496,35.68393646599496 0 0,0 0.17625091461951212,0.5866819722650376 l -14.098779742826888 4.103949305319301" fill="#ffb711" stroke="none" /><path d="M 120.16314734710363 94.1308016681162 l 7.5536078298656735 -2.19874515181383 a28.867113288241935,28.867113288241935 0 0,0 0.13441285079896031,0.4769837890863803 l -7.590239172739216 2.068753438824437" fill="#ff5c08" stroke="none" /><path d="M 120.51834098615036 95.52812308129327 l 29.869924644123518 -6.510011051562435 a51.57110796384525,51.57110796384525 0 0,0 0.18109388364655601,0.8665997899726311 l -29.977276238594442 5.996294810304399" fill="#89ff24" stroke="none" /><path d="M 120.65975698304385 96.23510406497455 l 11.339611834782671 -2.0664550186422286 a32.526362518488426,32.526362518488426 0 0,0 0.09538771295308851,0.5501709800151232 l -11.373414365227994 1.8714910057065126" fill="#ff8e0d" stroke="none" /><path d="M 120.7213421655516 96.59031103205396 l 9.07828080816767 -1.493827652292985 a30.200364312716133,30.200364312716133 0 0,0 0.07978434042620368,0.5122726989602587 l -9.102586640732138 1.3377667714012849" fill="#ff6e0a" stroke="none" /><path d="M 120.77682067341334 96.94652285012252 l 13.125620622346727 -1.929014225914866 a34.266612702779696,34.266612702779696 0 0,0 0.08053548742671367,0.5827146683115283 l -13.156800626328653 1.703411249403252" fill="#ffa50f" stroke="none" /><path d="M 120.9064616781168 98.02013634271609 l 15.74965502947791 -1.491508706146154 a36.82012110472194,36.82012110472194 0 0,0 0.05418935977035301,0.6297625016140623 l -15.772938011946003 1.2209251571564297" fill="#ffc612" stroke="none" /><path d="M 120.93736805541906 98.37931529534042 l 9.744821202695764 -0.7543107916452618 a30.773971815127226,30.773971815127226 0 0,0 0.0362488648535309,0.5270505394380803 l -9.75633402871436 0.5869168280528473" fill="#ff760a" stroke="none" /><path d="M 120.99303781780057 99.45929381324524 l 14.399701251699495 -0.3708852249869352 a35.40447680369925,35.40447680369925 0 0,0 0.010433477448244511,0.6076977548759546 l -14.403946160746406 0.12364055414191429" fill="#ffb410" stroke="none" /><line stroke="#e1ed5e" stroke-width="0.3" x1="184.99686870605535" x2="189.99668451229388" y1="99.2704041080226" y2="99.22748670261217" /><path d="M 185.99683186730306 99.26182062694052 a86.0,86.0 0 0,1 -10.086455211305974,41.156179273409016" fill="none" id="id40" stroke="none" /><text fill="#e1ed5e" style="font-size:6.75px; font-family:Arial;" text-anchor="middle"><textPath startOffset="21.40746469413373" xlink:href="#id40">April</textPath></text><path d="M 120.99922638620191 99.81974689727618 l 15.962201945440308 -0.13701630593689418 a36.96278999470678,36.96278999470678 0 0,0 0.0,0.6345388173214401 l -15.962201945440308 -0.13701630593689224" fill="#ffc812" stroke="none" /><path d="M 120.99303781780057 100.54070618675476 l 8.779053229214206 0.22611726973884697 a29.781964735812284,29.781964735812284 0 0,0 -0.01755053025974179,0.5109645392040827 l -8.773878011957619 -0.3767880735070403" fill="#ff6809" stroke="none" /><path d="M 120.96210409425399 101.26102812881392 l 9.520894853609542 0.5727533919255893 a30.538107006185815,30.538107006185815 0 0,0 -0.035971038135732374,0.5230109999358592 l -9.509659854308744 -0.7361078160157919" fill="#ff730a" stroke="none" /><path d="M 120.9064616781168 101.97986365728391 l 9.532774310799253 0.9027636384207707 a30.575425225413692,30.575425225413692 0 0,0 -0.05396942199818103,0.522105200719511 l -9.515872496319405 -1.0662733614232132" fill="#ff730a" stroke="none" /><path d="M 120.82617615685814 102.69636545807757 l 5.422712885706586 0.7020787495488674 a26.467973080710653,26.467973080710653 0 0,0 -0.06220664796200746,0.4500963164460566 l -5.409861721189368 -0.795063374195009" fill="#ff3a05" stroke="none" /><path d="M 120.77682067341334 103.0534771498775 l 19.067508475743864 2.802267120218356 a40.272326805179,40.272326805179 0 0,0 -0.10639279044149441,0.6831180356725518 l -19.0165941931641 -3.1291733378223583" fill="#fff116" stroke="none" /><path d="M 120.65975698304385 103.76489593502545 l 30.780562654680757 5.609243870173058 a52.2874839853543,52.2874839853543 0 0,0 -0.16849942421553077,0.8816601885750287 l -30.67973693818307 -6.136806623781402" fill="#82ff25" stroke="none" /><path d="M 120.26092885502905 105.52220625578681 l 29.206343593557264 7.960318821265093 a51.27172247892595,51.27172247892595 0 0,0 -0.23873458752014512,0.8471848299062525 l -29.06539051396254 -8.460511575074355" fill="#8dff24" stroke="none" /><path d="M 120.16314734710363 105.8691983318838 l 10.980819533693946 3.1963565300796817 a32.436568222108306,32.436568222108306 0 0,0 -0.1602114391643046,0.5332917750313381 l -10.924331774526012 -3.384385908701743" fill="#ff8c0c" stroke="none" /><path d="M 119.94978838288452 106.5578916946017 l 13.04984002157479 4.289741617850294 a34.73681941850485,34.73681941850485 0 0,0 -0.19107662147835588,0.5648840793101368 l -12.97427797852407 -4.513127371634591" fill="#ffab0f" stroke="none" /><path d="M 119.4528033332814 107.91128576633889 l 7.897089726014669 3.211677642267209 a29.525192045846563,29.525192045846563 0 0,0 -0.19497052723123082,0.4678582888267003 l -7.840793354246952 -3.346768440535187" fill="#ff6509" stroke="none" /><path d="M 119.31412917781788 108.2440532568976 l 13.2462852628526 5.654051505901369 a35.40251268689778,35.40251268689778 0 0,0 -0.24337730111678832,0.5568948936059148 l -13.147274079718846 -5.880608469283128" fill="#ffb410" stroke="none" /><path d="M 119.16976305983485 108.57439118712176 l 14.355388062864714 6.420982487354782 a36.72597159282553,36.72597159282553 0 0,0 -0.26235553724836813,0.573294196523741 l -14.243048060761291 -6.666465666093211" fill="#ffc512" stroke="none" /><path d="M 119.0197475246899 108.90220220490707 l 11.72902986015048 5.489778207986747 a33.95020487224769,33.95020487224769 0 0,0 -0.2515883845062951,0.5257229607992076 l -11.633062217684273 -5.690313670851059" fill="#ffa00e" stroke="none" /><path d="M 118.8641267826498 109.22738970284198 l 8.43262095546238 4.124817473341482 a30.38739662349932,30.38739662349932 0 0,0 -0.23323062976405393,0.4666174945331374 l -8.360570412486593 -4.2689668240383645" fill="#ff710a" stroke="none" /><path d="M 118.70294669586154 109.54985784667822 l 8.282575570821448 4.229142102148892 a30.299822633068686,30.299822633068686 0 0,0 -0.24051123544870273,0.4612120065679819 l -8.208756266397796 -4.370700351821377" fill="#ff6f0a" stroke="none" /><path d="M 118.5362547648365 109.86951160357373 l 10.592898757436224 5.640121940939489 a33.00085328607766,33.00085328607766 0 0,0 -0.2705357314219139,0.4977552747418501 l -10.49451767639897 -5.821132049155942" fill="#ff940d" stroke="none" /><line stroke="#e1ed5e" stroke-width="0.3" x1="174.33088141563837" x2="178.70328620479359" y1="141.23008692659167" y2="143.65538615756765" /><path d="M 175.20536237346943 141.71514677278685 a86.0,86.0 0 0,1 -30.301960400862466,31.631185727798858" fill="none" id="id41" stroke="none" /><text fill="#e1ed5e" style="font-size:6.75px; font-family:Arial;" text-anchor="middle"><textPath startOffset="22.145653131862474" xlink:href="#id41">May</textPath></text><path d="M 118.18653347947321 110.5 l 7.708831234697294 4.450695788489876 a29.901391576979755,29.901391576979755 0 0,0 -0.2604643153873329,0.44232535046599336 l -7.631293209180195 -4.582372307249418" fill="#ff6a09" stroke="none" /><path d="M 118.00360718960297 110.81064883170644 l 13.657569212001842 8.200977897970546 a36.93063825663059,36.93063825663059 0 0,0 -0.33102520061936574,0.5407047877021144 l -13.514776046927071 -8.434219801797218" fill="#ffc712" stroke="none" /><path d="M 117.81537515405839 111.11811171558189 l 13.852592320942996 8.645042141566755 a37.32884158903239,37.32884158903239 0 0,0 -0.34392716378940336,0.5407106262604633 l -13.702147465527702 -8.88156644250589" fill="#ffcc13" stroke="none" /><path d="M 117.62189284568427 111.42229804090321 l 7.646468396034539 4.95634843229931 a30.112292176719908,30.112292176719908 0 0,0 -0.2848845973139448,0.4313515902900297 l -7.5602593597998675 -5.086879900928401" fill="#ff6d0a" stroke="none" /><path d="M 117.423217284605 111.72311816256416 l 7.465885274028986 5.023380804240124 a29.998544195000157,29.998544195000157 0 0,0 -0.2911433898828679,0.42478690676472447 l -7.378552147330798 -5.150802446074892" fill="#ff6b09" stroke="none" /><path d="M 117.01052211995028 112.31430620078461 l 28.122949652386684 20.358846768293724 a55.71862524475213,55.71862524475213 0 0,0 -0.5675286386389531,0.7699615953447106 l -27.769318994163903 -20.838614672907312" fill="#5dff2a" stroke="none" /><path d="M 116.79662413953412 112.60449989151573 l 9.535902936709519 7.155919340265332 a32.922274381288524,32.922274381288524 0 0,0 -0.3430940309211445,0.44912109994213323 l -9.41165692843407 -7.3185613534483425" fill="#ff930d" stroke="none" /><path d="M 116.57777611688842 112.89097897827486 l 12.91403200518939 10.042029397059546 a37.358929581194,37.358929581194 0 0,0 -0.39802126964814677,0.5028868718713967 l -12.739744304899682 -10.262236212845625" fill="#ffcd13" stroke="none" /><path d="M 116.35404254752997 113.17365903436017 l 10.223746001027795 8.235526077421477 a34.12817093373715,34.12817093373715 0 0,0 -0.3714334295463545,0.4530883898157016 l -10.080865752242813 -8.409816748935672" fill="#ffa30f" stroke="none" /><path d="M 116.1254893667686 113.45245675266167 l 11.597903298426836 9.675383425272397 a36.103787781404236,36.103787781404236 0 0,0 -0.4011052365422391,0.4725009600819861 l -11.430103498377482 -9.87305116780394" fill="#ffbd11" stroke="none" /><path d="M 115.89218393027572 113.72728997021213 l 10.531303132915047 9.09668881910682 a34.91610912392574,34.91610912392574 0 0,0 -0.3956975076718577,0.45023112654096076 l -10.373594561284603 -9.276132223459074" fill="#ffad10" stroke="none" /><path d="M 115.41159269507618 114.26474011684316 l 23.11110625926642 21.391294924794472 a52.49143901263709,52.49143901263709 0 0,0 -0.6177596633696262,0.6560393546985331 l -22.740490762160533 -21.7848757394375" fill="#7fff26" stroke="none" /><path d="M 115.16444852881244 114.52719865689866 l 8.0386034145273 7.700800230551285 a32.13200202330689,32.13200202330689 0 0,0 -0.38499218164347543,0.3950358943262567 l -7.905224431733016 -7.837658816945279" fill="#ff880c" stroke="none" /><path d="M 114.91283532996324 114.78537596483092 l 13.754864717255273 13.637302477375922 a40.369365561355835,40.369365561355835 0 0,0 -0.4921373220444872,0.48793104542184534 l -13.51873547508082 -13.871413533026429" fill="#fff316" stroke="none" /><path d="M 114.65682725009322 115.03919595460226 l 9.916793614959778 10.175503870783501 a35.20857750184856,35.20857750184856 0 0,0 -0.43646483129879693,0.4181234351503281 l -9.740656297795669 -10.344239436239409" fill="#ffb110" stroke="none" /><path d="M 114.13192950727249 115.5334660781643 l 9.37077993217385 10.300128664486873 a34.92494764953234,34.92494764953234 0 0,0 -0.44693118427580975,0.3996486208938724 l -9.192583721074662 -10.459472815264132" fill="#ffad10" stroke="none" /><path d="M 113.86319453409587 115.77377054828091 l 6.328960589512949 7.201195359594712 a30.587124529839826,30.587124529839826 0 0,0 -0.39737120127567727,0.3432397793566247 l -6.204409908474417 -7.308779271416054" fill="#ff730a" stroke="none" /><path d="M 113.59037401385872 116.0094264158162 l 19.507015059797837 22.979214690750172 a51.142460821020705,51.142460821020705 0 0,0 -0.6741688461608693,0.5624156291132982 l -19.109671879475073 -23.31069250377534" fill="#8eff24" stroke="none" /><path d="M 113.31354834802062 116.24036423190432 l 8.21977014504358 10.026783061022764 a33.965376962902496,33.965376962902496 0 0,0 -0.4540834960442061,0.3657775215290773 l -8.04643587864412 -10.166408876345244" fill="#ffa10e" stroke="none" /><path d="M 111.8722381534696 117.32195027204791 l 7.34574212401131 10.717657289095534 a33.993386976419075,33.993386976419075 0 0,0 -0.4841689630858062,0.32577048613841675 l -7.160676872828501 -10.842177449291071" fill="#ffa10e" stroke="none" /><path d="M 111.5731344415666 117.5232005979908 l 3.8407682578450713 5.815412667365885 a27.969255720823412,27.969255720823412 0 0,0 -0.4029096052679481,0.2611611383189347 l -3.7403730203201135 -5.880487647388714" fill="#ff4f07" stroke="none" /><path d="M 111.27062007382361 117.71928675628689 l 6.432463236369115 10.112900611317459 a32.98529691170082,32.98529691170082 0 0,0 -0.48038509610094987,0.2997958290950826 l -6.25791401147845 -10.22183223725409" fill="#ff940d" stroke="none" /><line stroke="#e1ed5e" stroke-width="0.3" x1="143.1302829299769" x2="145.66735839644613" y1="173.24464959558577" y2="177.55315839532614" /><path d="M 143.63769802327073 174.10635135553383 a86.0,86.0 0 0,1 -40.68552437913181,11.842963189579606" fill="none" id="id42" stroke="none" /><text fill="#e1ed5e" style="font-size:6.75px; font-family:Arial;" text-anchor="middle"><textPath startOffset="21.407464694133747" xlink:href="#id42">June</textPath></text><path d="M 110.65571695917076 118.09573695890943 l 6.631251749630471 11.261315200977263 a34.06869235320576,34.06869235320576 0 0,0 -0.5065001125151277,0.29242797630518585 l -6.436959169254945 -11.373490074558621" fill="#ffa20f" stroke="none" /><path d="M 110.34350942703117 118.27599006163325 l 4.824084534378084 8.523695137393812 a30.794139594168378,30.794139594168378 0 0,0 -0.46228721322829086,0.2564229244084295 l -4.677053132993699 -8.605250977235384" fill="#ff760a" stroke="none" /><path d="M 110.02825361518725 118.45085714620011 l 5.761314243714089 10.60016929808687 a33.064672849394896,33.064672849394896 0 0,0 -0.5010261287160065,0.266768193132346 l -5.578499299211529 -10.697507958941785" fill="#ff950d" stroke="none" /><path d="M 109.71004243097381 118.62028667847754 l 2.6492230132822687 5.080234441116525 a26.72949950264514,26.72949950264514 0 0,0 -0.40867212702474737,0.20867089996302615 l -2.5616236645439394 -5.124963292752387" fill="#ff3e05" stroke="none" /><path d="M 109.06512990194946 118.94263497670748 l 5.8940484773237065 12.316294421434755 a34.6539706945821,34.6539706945821 0 0,0 -0.5388053590927206,0.2521881139328729 l -5.68175440435948 -12.415658766938162" fill="#ffaa0f" stroke="none" /><path d="M 108.07796709384702 119.3841803445677 l 4.007765127129152 9.617177329444063 a31.418842598878506,31.418842598878506 0 0,0 -0.4996277295454863,0.20319424802176758 l -3.8420829363932247 -9.684558834045122" fill="#ff7f0b" stroke="none" /><path d="M 106.72888874123015 119.89276391827305 l 4.022555406764111 11.891970298843498 a33.55388026026468,33.55388026026468 0 0,0 -0.5472114787062465,0.17987928205178919 l -3.8178211904101302 -11.959270502297308" fill="#ff9b0e" stroke="none" /><path d="M 106.38641147887787 120.00534299687104 l 2.188050271479516 6.854036311333255 a28.19481603292234,28.19481603292234 0 0,0 -0.46234042882848175,0.14323424669314697 l -2.0700692097794096 -6.890587145833046" fill="#ff5207" stroke="none" /><path d="M 106.0420521117495 120.11202640906438 l 0.42073209106878967 1.4004802954713738 a22.462313424153216,22.462313424153216 0 0,0 -0.3702430900246125,0.10777236752555376 l -0.3966289886625704 -1.4074963572994457" fill="#ff0000" stroke="none" /><path d="M 105.69591212413111 120.21278271476187 l 6.708547576885755 23.806268697292982 a45.73343970981496,45.73343970981496 0 0,0 -0.7574733776335916,0.20645273740852998 l -6.2988927983174685 -23.917921928845654" fill="#cbff1d" stroke="none" /><path d="M 104.64783097203109 120.47920084513623 l 6.917812652451059 30.48115896879532 a52.256314305678835,52.256314305678835 0 0,0 -0.87650656511539,0.1910305263120503 l -6.393543670716533 -30.59542095324109" fill="#82ff25" stroke="none" /><path d="M 103.58742460773223 120.69131181640829 l 1.8131410057730675 10.457715497826824 a31.613731376867566,31.613731376867566 0 0,0 -0.535510260151846,0.08811800952242993 l -1.6333532425681492 -10.487299505844923" fill="#ff810b" stroke="none" /><path d="M 102.15924093988457 120.88869738790638 l 3.0881895176559753 29.875432203628407 a51.034619422435796,51.034619422435796 0 0,0 -0.8722070091996089,0.08259891060141183 l -2.574882945071351 -29.924042869735004" fill="#8fff24" stroke="none" /><path d="M 101.44090949804482 120.95050786540614 l 1.3256254620144161 19.274303282892138 a40.31983565940579,40.31983565940579 0 0,0 -0.6909200277680002,0.041564033164742914 l -0.9945610821139507 -19.29421929388157" fill="#fff216" stroke="none" /><path d="M 101.08105385017728 120.97215588758144 l 0.9220313027889914 17.887160951463677 a38.910909207153324,38.910909207153324 0 0,0 -0.6673670060960298,0.028659610745254742 l -0.614838536092132 -17.900353130634763" fill="#ffe015" stroke="none" /><path d="M 100.72087961077811 120.9876233191556 l 0.4736240979526415 13.789048842670816 a34.797180428323855,34.797180428323855 0 0,0 -0.5971638349640956,0.01538082210272289 l -0.23684694891780197 -13.795147382123584" fill="#ffac0f" stroke="none" /><line stroke="#e1ed5e" stroke-width="0.3" x1="101.45913802915013" x2="101.54496967792366" y1="184.9874750549273" y2="189.98673829345242" /><path d="M 101.47630435890484 185.9873277026323 a86.0,86.0 0 0,1 -42.54439059252881,-10.42667462771756" fill="none" id="id43" stroke="none" /><text fill="#e1ed5e" style="font-size:6.75px; font-family:Arial;" text-anchor="middle"><textPath startOffset="22.145653131862474" xlink:href="#id43">July</textPath></text><path d="M 100.36049292484886 120.99690560180557 l 0.1779522217463678 10.364824783195537 a31.36635228899582,31.36635228899582 0 0,0 -0.5384451465952188,0.004621903994718 l -1.269512014955257e-15 -10.36635228899582" fill="#ff7e0b" stroke="none" /><path d="M 99.27912038922189 120.98762331915562 l -0.6075587613664789 17.68841043242846 a38.69884152351665,38.69884152351665 0 0,0 -0.6637298005410137,-0.028503413488795093 l 0.9111143225083314 -17.675374450513836" fill="#ffde14" stroke="none" /><path d="M 98.91894614982273 120.97215588758144 l -0.8825741122484613 17.121701996050813 a38.14443397447643,38.14443397447643 0 0,0 -0.6536423809726829,-0.0393215025020975 l 1.1763608453535903 -17.104028515724025" fill="#ffd714" stroke="none" /><path d="M 98.19965949673042 120.92268563240118 l -0.13599018083693773 1.5804120373770105 a22.586252040871884,22.586252040871884 0 0,0 -0.38601027233166707,-0.03655557412317606 l 0.1631000165536201 -1.5778447077486506" fill="#ff0200" stroke="none" /><path d="M 97.84075906011543 120.88869738790638 l -1.0604157189703844 10.258560149445701 a31.313221506243085,31.313221506243085 0 0,0 -0.5342096700432686,-0.05985930778309015 l 1.2363612906144523 -10.23884508115564" fill="#ff7d0b" stroke="none" /><path d="M 97.48249496171623 120.84855314841334 l -4.351384732196092 36.03570776574498 a57.2974762657924,57.2974762657924 0 0,0 -0.9754818340336491,-0.12629565324234124 l 4.969344388120534 -35.955700516302244" fill="#4dff2c" stroke="none" /><path d="M 92.93061703081489 119.77432235084164 l -15.504298002030707 43.36828091674396 a67.05638985210838,67.05638985210838 0 0,0 -1.0806004655649588,-0.3968114588315153 l 16.246487619249784 -43.09573860890372" fill="#38ff7f" stroke="none" /><path d="M 92.25597844496254 119.51999308798841 l -1.614507875744472 4.069614521480046 a25.37817291050527,25.37817291050527 0 0,0 -0.40356798221908763,-0.1641275850467063 l 1.6841303191540005 -4.041299679854048" fill="#ff2a04" stroke="none" /><path d="M 91.59046798132341 119.24265499422711 l -12.624924843641717 28.888298725150126 a52.52653692591548,52.52653692591548 0 0,0 -0.8231323474632073,-0.3681766291995123 l 13.118970593960558 -28.66731834504076" fill="#7fff26" stroke="none" /><path d="M 90.93487009805054 118.94263497670748 l -7.544977516148615 15.76610115263024 a38.478461925299854,38.478461925299854 0 0,0 -0.5933740723175266,-0.2902489931244576 l 7.814511837728211 -15.634258409408561" fill="#ffdb14" stroke="none" /><path d="M 90.6110303473126 118.78422872680471 l -7.2994801291615135 14.603849986211161 a37.32650742123935,37.32650742123935 0 0,0 -0.5706916876888526,-0.29139924207319323 l 7.5490990385639485 -14.47639279246513" fill="#ffcc13" stroke="none" /><path d="M 90.28995756902619 118.62028667847754 l -5.335753558056394 10.232010993051095 a32.53968435418534,32.53968435418534 0 0,0 -0.49307102344175247,-0.26253254764689177 l 5.510613397284709 -10.13890797768163" fill="#ff8e0d" stroke="none" /><path d="M 89.97174638481275 118.45085714620012 l -6.80852687224919 12.526922584574942 a35.25762349096346,35.25762349096346 0 0,0 -0.5292938436823883,-0.29359037279145345 l 7.022564904087681 -12.408199296350341" fill="#ffb210" stroke="none" /><line stroke="#e1ed5e" stroke-width="0.3" x1="58.13341422392154" x2="55.67067388415222" y1="173.97424548756322" y2="178.32567169271397" /><path d="M 57.64086615596768 174.84453072859336 a86.0,86.0 0 0,1 -31.369924170532247,-30.572349798747897" fill="none" id="id44" stroke="none" /><text fill="#e1ed5e" style="font-size:6.75px; font-family:Arial;" text-anchor="middle"><textPath startOffset="22.145653131862474" xlink:href="#id44">August</textPath></text><path d="M 88.4268655584334 117.5232005979908 l -4.277159299035494 6.476164323933587 a28.761107911884487,28.761107911884487 0 0,0 -0.40964543499462996,-0.2756277305592888 l 4.38770102212713 -6.4017869193171775" fill="#ff5a08" stroke="none" /><path d="M 87.83215693770417 117.11559508785305 l -17.462769702166735 24.563572508661224 a51.13830486373064,51.13830486373064 0 0,0 -0.7111121960712067,-0.5147903905467465 l 17.881862908611897 -24.260181346741412" fill="#8eff24" stroke="none" /><path d="M 87.2517909369889 116.68781488649013 l -18.266707396781115 23.911706351571432 a51.09056828581673,51.09056828581673 0 0,0 -0.6923746503370586,-0.5383947158927285 l 18.674491991753403 -23.59461058405791" fill="#8fff24" stroke="none" /><path d="M 86.68645165197938 116.24036423190432 l -4.5911353327441145 5.600438597784873 a28.241784043392208,28.241784043392208 0 0,0 -0.3722881272508611,-0.3105759966387423 l 4.686597794156868 -5.52080041723426" fill="#ff5307" stroke="none" /><path d="M 86.40962598614128 116.0094264158162 l -7.618406382166461 8.974463561981727 a32.77204791143718,32.77204791143718 0 0,0 -0.42575653144927067,-0.36775835149892444 l 7.771342393378594 -8.84236107801808" fill="#ff910d" stroke="none" /><path d="M 86.13680546590413 115.77377054828092 l -11.735360194752367 13.352685671270198 a38.77675148997484,38.77675148997484 0 0,0 -0.496222346263581,-0.4437250818877224 l 11.962847567839319 -13.149265059499093" fill="#ffdf14" stroke="none" /><path d="M 85.60350026404147 115.28858382429668 l -1.759547724639099 1.868578708323387 a23.56663097941292,23.56663097941292 0 0,0 -0.29214487901904934,-0.2798681855157263 l 1.7913650895234627 -1.8380983925020782" fill="#ff1001" stroke="none" /><path d="M 84.3458050057657 113.99807769240083 l -7.084772720535488 6.335247453579365 a30.504176176803945,30.504176176803945 0 0,0 -0.34569792538748667,-0.39334078019807345 l 7.192481709881567 -6.212694395569991" fill="#ff720a" stroke="none" /><path d="M 84.1078160697243 113.72728997021213 l -22.750149809147313 19.651037558216405 a51.06214552311723,51.06214552311723 0 0,0 -0.5672893404540106,-0.6682654166260663 l 23.084133713108436 -19.257605359140783" fill="#8fff24" stroke="none" /><path d="M 83.8745106332314 113.45245675266167 l -5.787066323212934 4.827776550970329 a28.53641579634273,28.53641579634273 0 0,0 -0.3105756475134827,-0.3788517910725415 l 5.869088789965046 -4.727722478199293" fill="#ff5708" stroke="none" /><path d="M 83.64595745247003 113.17365903436017 l -12.294524719138211 9.903598829997037 a36.7872292646626,36.7872292646626 0 0,0 -0.3919303861995316,-0.4951912396075394 l 12.462721535979304 -9.691087646474818" fill="#ffc512" stroke="none" /><path d="M 83.20337586046588 112.60449989151573 l -29.719892717689152 22.30236155932476 a58.15733244292167,58.15733244292167 0 0,0 -0.5923683788539392,-0.8036614735565791 l 30.098363116126922 -21.7888937764993" fill="#44ff2d" stroke="none" /><path d="M 82.37810715431573 111.42229804090323 l -26.04957532003414 16.885020000405806 a52.04326456364143,52.04326456364143 0 0,0 -0.4794976649094222,-0.7538499716828465 l 26.335590676569453 -16.435356354044288" fill="#84ff25" stroke="none" /><line stroke="#e1ed5e" stroke-width="0.3" x1="26.387840678322732" x2="22.057713659400548" y1="142.50000000000003" y2="145.00000000000006" /><path d="M 25.521815274538298 143.00000000000003 a86.0,86.0 0 0,1 -11.493303480769221,-40.785679425670985" fill="none" id="id45" stroke="none" /><text fill="#e1ed5e" style="font-size:6.75px; font-family:Arial;" text-anchor="middle"><textPath startOffset="21.40746469413373" xlink:href="#id45">September</textPath></text><path d="M 81.1358732173502 109.22738970284198 l -7.270783746781055 3.5565046741704642 a29.09401147700273,29.09401147700273 0 0,0 -0.2156015073797144,-0.450524228433126 l 7.330764512120682 -3.4311679436722335" fill="#ff5f08" stroke="none" /><path d="M 80.9802524753101 108.90220220490708 l -4.080949940285047 1.9100906312957626 a25.505840502600638,25.505840502600638 0 0,0 -0.1822034434437724,-0.3981474064108251 l 4.113137848583874 -1.8397542426702487" fill="#ff2c04" stroke="none" /><path d="M 80.83023694016515 108.57439118712176 l -14.627472580432125 6.542682431287341 a37.0240334338134,37.0240334338134 0 0,0 -0.2545245704244584,-0.5824020272893177 l 14.737631032873551 -6.290618334222175" fill="#ffc812" stroke="none" /><path d="M 80.41425534168474 107.57618678355246 l -17.450356251937762 6.750172674597976 a39.71041860719403,39.71041860719403 0 0,0 -0.24047365617711253,-0.6378849429988186 l 17.56366059192931 -6.449619451405012" fill="#ffea16" stroke="none" /><path d="M 80.28708602549918 107.23885506374661 l -4.363629852518012 1.6023853244160335 a25.64853785804636,25.64853785804636 0 0,0 -0.1482239139559043,-0.4146086677498712 l 4.39049393651786 -1.527241700285241" fill="#ff2e04" stroke="none" /><path d="M 80.16572619554312 106.89939002012753 l -7.801609392225503 2.7138047257146725 a29.26013590676161,29.26013590676161 0 0,0 -0.16095106019070501,-0.47582321032464514 l 7.847045873988575 -2.579479840915866" fill="#ff6109" stroke="none" /><path d="M 80.05021161711548 106.5578916946017 l -19.01790644650149 6.251563592585404 a41.01906124072811,41.01906124072811 0 0,0 -0.21414935417511502,-0.6708198018559636 l 19.12242051645386 -5.924174757038048" fill="#fffb17" stroke="none" /><path d="M 79.64726062577567 105.17358676015961 l -60.21687762132478 15.306894815072537 a83.13190307194283,83.13190307194283 0 0,0 -0.3397025822862452,-1.3861024595183244 l 60.470767730127314 -14.270936530946113" fill="#4cdaff" stroke="none" /><path d="M 79.48165901384964 104.47187691870673 l -7.464046308266051 1.6267541527174678 a28.639261506541295,28.639261506541295 0 0,0 -0.10056784303771184,-0.4812535349044511 l 7.490871862128129 -1.4983841665276076" fill="#ff5808" stroke="none" /><path d="M 79.22317932658666 103.0534771498775 l -60.94829524752145 8.957300531569716 a82.60298634313035,82.60298634313035 0 0,0 -0.19413858690230357,-1.4046901047962144 l 61.09307835097897 -7.9097221185734155" fill="#4bdfff" stroke="none" /><path d="M 79.13060592940153 102.33845913500099 l -7.245726406379583 0.8118987569738423 a28.291071988924678,28.291071988924678 0 0,0 -0.04993725489325671,-0.4830976416664963 l 7.258596053754506 -0.6873965930244146" fill="#ff5407" stroke="none" /><path d="M 79.06263194458094 101.62068470465958 l -11.729034102985901 0.9079014191671438 a32.76412028057908,32.76412028057908 0 0,0 -0.03859307388823095,-0.5611348243194432 l 11.742891138039198 -0.7064231706933572" fill="#ff910d" stroke="none" /><path d="M 79.01933749520258 100.90099992219065 l -19.27130248703246 0.827592648104339 a40.2890644961828,40.2890644961828 0 0,0 -0.023742370654496917,-0.6912332164069903 l 19.282669544683806 -0.4966531671332287" fill="#fff216" stroke="none" /><path d="M 79.00696218219943 100.54070618675478 l -3.332342651386262 0.08582932606654627 a24.333447797620515,24.333447797620515 0 0,0 -0.007170914577898288,-0.4176698239884945 l 3.3333249975628263 -0.028612586108999378" fill="#ff1b02" stroke="none" /><line stroke="#e1ed5e" stroke-width="0.3" x1="15.003131293944662" x2="10.003315487706104" y1="100.72959589197737" y2="100.7725132973878" /><path d="M 14.003168132696942 100.73817937305945 a86.0,86.0 0 0,1 10.791469493833604,-42.45332614584628" fill="none" id="id46" stroke="none" /><text fill="#e1ed5e" style="font-size:6.75px; font-family:Arial;" text-anchor="middle"><textPath startOffset="22.145653131862435" xlink:href="#id46">October</textPath></text><path d="M 79.01933749520258 99.09900007780938 l -3.4844905386064626 -0.1496390165677801 a24.487702130187916,24.487702130187916 0 0,0 0.0216406109236783,-0.41982207058365834 l 3.481408338226214 0.2094328805281504" fill="#ff1e03" stroke="none" /><path d="M 79.13060592940154 97.66154086499901 l -18.030674215931143 -2.0203746542825196 a39.143514720822736,39.143514720822736 0 0,0 0.08055719250942478,-0.6671291155249053 l 17.99333493716205 2.329597446730861" fill="#ffe315" stroke="none" /><path d="M 79.22317932658666 96.9465228501225 l -14.903124689590031 -2.190246112085356 a36.06321026690436,36.06321026690436 0 0,0 0.09527300449103643,-0.6117210330744001 l 14.863330192960728 2.445755327091206" fill="#ffbc11" stroke="none" /><path d="M 79.34024301695615 96.23510406497455 l -23.009337911376893 -4.193067848826493 a44.38827588995795,44.38827588995795 0 0,0 0.14304377184170916,-0.7484654588203656 l 22.933967847253026 4.587435872680174" fill="#dbff1b" stroke="none" /><path d="M 79.48165901384962 95.52812308129327 l -5.219140572722899 -1.1374873961983134 a26.3416575980076,26.3416575980076 0 0,0 0.10008467451848095,-0.44099154279019653 l 5.198845036646756 1.2269132729275183" fill="#ff3805" stroke="none" /><path d="M 79.83685265289637 94.1308016681162 l -33.3183570042893 -9.698488137010713 a55.70120438268694,55.70120438268694 0 0,0 0.27512066184772577,-0.915787205145209 l 33.146960022437945 10.269012945746645" fill="#5dff2a" stroke="none" /><path d="M 80.05021161711548 93.44210830539832 l -3.610796872883471 -1.1869406516557992 a24.800879130908815,24.800879130908815 0 0,0 0.1364220522591268,-0.4033075568940033 l 3.5898893990519793 1.248749883023964" fill="#ff2203" stroke="none" /><path d="M 80.16572619554312 93.10060997987247 l -20.218729416783653 -7.033123639065124 a42.40705134649537,42.40705134649537 0 0,0 0.2450720257308784,-0.6855100730997407 l 20.09501722100883 7.379168668545787" fill="#f3ff19" stroke="none" /><path d="M 80.28708602549916 92.7611449362534 l -10.453197432526192 -3.8385588890949993 a32.1357025332227,32.1357025332227 0 0,0 0.19460358649012519,-0.5162091334619708 l 10.38576316222163 4.017436302751115" fill="#ff880c" stroke="none" /><path d="M 80.41425534168474 92.42381321644754 l -28.600966708122534 -11.063468341445269 a51.66619683595107,51.66619683595107 0 0,0 0.32707488889676206,-0.8244423811509529 l 28.406833144259643 11.552811739809805" fill="#88ff25" stroke="none" /><path d="M 81.1358732173502 90.77261029715801 l -2.980626275219472 -1.457973672297227 a24.318104914200358,24.318104914200358 0 0,0 0.18664734574270136,-0.373419721585566 l 2.9551590162650268 1.5089252500465633" fill="#ff1b02" stroke="none" /><path d="M 81.63589988554816 89.8137432299009 l -5.896722924020323 -3.2708128049754723 a27.74311186677622,27.74311186677622 0 0,0 0.2345833818104371,-0.414486358313534 l 5.839706177188517 3.3715559333881115" fill="#ff4c07" stroke="none" /><line stroke="#e1ed5e" stroke-width="0.3" x1="26.387840678322718" x2="22.05771365940052" y1="57.49999999999999" y2="54.99999999999999" /><path d="M 25.521815274538284 56.99999999999999 a86.0,86.0 0 0,1 29.574782752854787,-30.34633250058573" fill="none" id="id47" stroke="none" /><text fill="#e1ed5e" style="font-size:6.75px; font-family:Arial;" text-anchor="middle"><textPath startOffset="21.40746469413373" xlink:href="#id47">November</textPath></text><path d="M 81.99639281039701 89.18935116829357 l -26.64764415423651 -16.001144665613992 a52.08268922697523,52.08268922697523 0 0,0 0.46683955284908196,-0.7625473252245237 l 26.369036636932034 16.456229106963058" fill="#84ff25" stroke="none" /><path d="M 82.576782715395 88.27688183743585 l -10.430875320079933 -7.018358430524703 a33.57221201707837,33.57221201707837 0 0,0 0.32582673175680205,-0.4753909390830226 l 10.308858851507818 7.19638410467776" fill="#ff9b0e" stroke="none" /><path d="M 82.78059297857968 87.97951657250589 l -50.4018985131846 -35.18443957090474 a82.46784656755113,82.46784656755113 0 0,0 0.8202994287956324,-1.1538538755129353 l 49.790483985859 36.0444706731272" fill="#4be0ff" stroke="none" /><path d="M 83.2033758604659 87.39550010848427 l -8.08192892453472 -6.064830135287015 a31.1044415833393,31.1044415833393 0 0,0 0.3241497874291563,-0.42432247709272886 l 7.976627159751258 6.202673525620628" fill="#ff7a0b" stroke="none" /><path d="M 85.08716467003674 85.21462403516908 l -22.2946368843366 -22.104085577341085 a52.39492686748673,52.39492686748673 0 0,0 0.6387392677274087,-0.6332799905511851 l 21.911905696479216 22.483545578120943" fill="#80ff25" stroke="none" /><path d="M 86.68645165197937 83.75963576809568 l -15.72549482059869 -19.182546751438878 a45.80446103473757,45.80446103473757 0 0,0 0.612360340466464,-0.49327414356569893 l 15.393883709776981 19.449669188797976" fill="#caff1d" stroke="none" /><path d="M 87.25179093698888 83.31218511350988 l -14.685892534223589 -19.22430475078228 a45.191927014558274,45.191927014558274 0 0,0 0.6205217657148241,-0.46565110129639975 l 14.353717779598012 19.47357487934268" fill="#d1ff1c" stroke="none" /><path d="M 87.83215693770416 82.88440491214696 l -3.1673188385275726 -4.455230600594088 a26.466350549439873,26.466350549439873 0 0,0 0.3725515781490637,-0.2600699353617025 l 3.0903721692047434 4.508945351760916" fill="#ff3a05" stroke="none" /><path d="M 88.12776184653039 82.6780497279521 l -17.04063829370582 -24.86280053616203 a51.14203383910734,51.14203383910734 0 0,0 0.7284177216926849,-0.4901119514048899 l 16.611324283916144 25.15166216162403" fill="#8eff24" stroke="none" /><path d="M 88.72937992617638 82.28071324371311 l -16.849973163603618 -26.490956519337246 a52.39573813312212,52.39573813312212 0 0,0 0.7630712485547723,-0.47621289560370944 l 16.392737786259147 26.776305211782493" fill="#80ff25" stroke="none" /><line stroke="#e1ed5e" stroke-width="0.3" x1="56.869717070023135" x2="54.33264160355391" y1="26.7553504044142" y2="22.446841604673864" /><path d="M 56.362301976729285 25.89364864446614 a86.0,86.0 0 0,1 42.16139366436587,-11.88097634709845" fill="none" id="id48" stroke="none" /><text fill="#e1ed5e" style="font-size:6.75px; font-family:Arial;" text-anchor="middle"><textPath startOffset="22.145653131862474" xlink:href="#id48">December</textPath></text><path d="M 89.34428304082924 81.90426304109057 l -10.414495794925106 -17.68609068603669 a41.524607826149236,41.524607826149236 0 0,0 0.6173473967841326,-0.35642568571683175 l 10.109355930280573 17.862263269029697" fill="#fdff18" stroke="none" /><path d="M 90.61103034731259 81.2157712731953 l -13.564709746730529 -27.138506132285908 a51.339740697724594,51.339740697724594 0 0,0 0.7917070871667601,-0.3872636092813327 l 13.096842410301715 27.367363491664456" fill="#8cff24" stroke="none" /><path d="M 90.93487009805054 81.0573650232925 l -10.447722787507999 -21.831722351715324 a45.2028719842708,45.2028719842708 0 0,0 0.702821327061199,-0.32895586859383785 l 10.071412746575277 22.007854451879705" fill="#d1ff1c" stroke="none" /><path d="M 91.5904679813234 80.7573450057729 l -7.419563446873273 -16.977413166259492 a39.52788383923159,39.52788383923159 0 0,0 0.6240980873250834,-0.2663903623128399 l 7.127030284377758 17.10227817823174" fill="#ffe815" stroke="none" /><path d="M 91.92203290615298 80.6158196554323 l -6.9666504773822915 -16.717425025661324 a39.11095023356363,39.11095023356363 0 0,0 0.6219489213857742,-0.25294121185767066 l 6.6786470948060765 16.834553494098287" fill="#ffe315" stroke="none" /><path d="M 92.592206182469 80.34994680014964 l -7.630135558766793 -20.239841084266256 a42.63030595626215,42.63030595626215 0 0,0 0.6869789525667997,-0.2522681870325297 l 7.281567454545867 20.36784012030751" fill="#f0ff19" stroke="none" /><path d="M 93.61358852112211 79.99465700312896 l -9.550342190204445 -29.916310886704373 a52.403736927632444,52.403736927632444 0 0,0 0.8593198896934203,-0.2662194984344241 l 9.035381667639408 30.07584697294544" fill="#80ff25" stroke="none" /><path d="M 95.70440661134978 79.44403061299748 l -1.0737408924927128 -5.138238869156214 a26.249230246495078,26.249230246495078 0 0,0 0.4418664354401236,-0.08838566227928618 l 0.9853779715216126 5.155913928098366" fill="#ff3705" stroke="none" /><path d="M 96.41257539226777 79.30868818359171 l -5.323057472640914 -30.701980954716298 a52.16001565148517,52.16001565148517 0 0,0 0.8835471908731954,-0.14538735402904734 l 4.795232778714645 30.788834307241014" fill="#83ff25" stroke="none" /><path d="M 97.12497278360702 79.19773525538626 l -0.972171027151308 -7.034145266011379 a28.101008106556613,28.101008106556613 0 0,0 0.47841588692002734,-0.061940514781536886 l 0.8512773183404867 7.049797376993311" fill="#ff5107" stroke="none" /><path d="M 97.48249496171623 79.15144685158666 l -1.5314975830133446 -12.682996963488554 a33.77512805503865,33.77512805503865 0 0,0 0.5762102762359986,-0.06456556331186662 l 1.3135514051765467 12.707418287307393" fill="#ff9e0e" stroke="none" /><path d="M 98.1996594967304 79.07731436759882 l -2.6861742605728556 -31.217416652986113 a52.3327725336316,52.3327725336316 0 0,0 0.8957152875220529,-0.06933402815359785 l 2.149889978275586 31.258928448134764" fill="#81ff25" stroke="none" /><path d="M 98.9189461498227 79.02784411241856 l -1.3045806089039151 -25.3085152912242 a46.34211666004356,46.34211666004356 0 0,0 0.7948207914371073,-0.034133024687690125 l 0.8699340568659878 25.327180884337718" fill="#c4ff1e" stroke="none" /><path d="M 99.27912038922189 79.0123766808444 l -0.39063759753315785 -11.372987429171916 a32.379694231248436,32.379694231248436 0 0,0 0.5556766997810607,-0.014312260665407717 l 0.19534758368135322 11.37801740718737" fill="#ff8c0c" stroke="none" /></svg>