<?xml version="1.0" encoding="utf-8" ?>
<svg baseProfile="full" height="200mm" version="1.1" viewBox="0,0,200,200" width="200mm" xmlns="http://www.w3.org/2000/svg" xmlns:ev="http://www.w3.org/2001/xml-events" xmlns:xlink="http://www.w3.org/1999/xlink"><defs /><rect fill="#1a1a1a" height="200" width="200" x="0" y="0" /><text alignment-baseline="middle" fill="#e1ed5e" style="dominant-baseline: central; font-size:9.0px; font-family:Arial;" text-anchor="middle" x="100.0" y="100.0">2025</text><line stroke="#e1ed5e" stroke-width="0.3" x1="100.0" x2="100.0" y1="15.0" y2="10.0" /><path d="M 100.0 14.0 a86.0,86.0 0 0,1 42.46469731375804,11.215312516191453" fill="none" id="id145" stroke="none" /><text fill="#e1ed5e" style="font-size:6.75px; font-family:Arial;" text-anchor="middle"><textPath startOffset="22.20632615414155" xlink:href="#id145">January</textPath></text><path d="M 100.0 79.0 l 0.0 -7.588581607390857 a28.588581607390857,28.588581607390857 0 0,0 0.49210543719816363,0.00423570686119582 l -0.13062495792563528 7.5874572771382205" fill="#ff5808" stroke="none" /><path d="M 100.36148047927253 79.00311137660856 l 0.1232049744315392 -7.156461480832773 a28.157521944944904,28.157521944944904 0 0,0 0.4845418309437662,0.012514285955630504 l -0.2463734405701732 7.153280402734783" fill="#ff5207" stroke="none" /><path d="M 102.16513564639614 79.11191278185805 l 1.588035114355886 -15.320525542753368 a36.40260881898212,36.40260881898212 0 0,0 0.6227156746137568,0.06996936172194815 l -1.851517492479368 15.290920227560818" fill="#ffc011" stroke="none" /><path d="M 102.52436894288641 79.15227682838746 l 1.9321716833607507 -15.957009964112109 a37.07356383658441,37.07356383658441 0 0,0 0.6328726951018887,0.08216503939219334 l -2.2065591069704853 15.921386601555778" fill="#ffc912" stroke="none" /><path d="M 103.2404852339499 79.25152402106235 l 0.7169745871799968 -4.590710626840299 a25.646361653815422,25.646361653815422 0 0,0 0.43558610336742176,0.07187543930137835 l -0.7958898966862937 4.577688924599297" fill="#ff2e04" stroke="none" /><path d="M 105.01212808612495 79.60689891045804 l 3.8717175001295776 -15.753054393973999 a37.22186546425266,37.22186546425266 0 0,0 0.620880410413788,0.15827624109348834 l -4.142306799228391 15.684075156711643" fill="#ffcb12" stroke="none" /><path d="M 105.36241919743992 79.69619591428918 l 2.750189874680926 -10.413083042945503 a31.770136619657,31.770136619657 0 0,0 0.5275387475678798,0.14419626760194051 l -2.9290265114725167 10.364200234517268" fill="#ff830c" stroke="none" /><path d="M 105.71112130821622 79.79150937346287 l 7.484294620978184 -26.482767486779117 a48.52002252419878,48.52002252419878 0 0,0 0.8017582120084109,0.234055207743023 l -7.939043050710022 26.35001395011739" fill="#abff21" stroke="none" /><path d="M 106.0581310904928 79.89281104454417 l 4.763790786794198 -15.811219675429461 a37.5132786049601,37.5132786049601 0 0,0 0.6166729758100137,0.19160329539440224 l -5.03524913531493 15.726876245152537" fill="#ffcf13" stroke="none" /><path d="M 106.40334571778207 80.00007090966166 l 4.676368530959701 -14.605964310151087 a36.33631690031076,36.33631690031076 0 0,0 0.5940419889676114,0.1958463040039214 l -4.92709334216973 14.52330428188793" fill="#ffc011" stroke="none" /><path d="M 106.74666289553966 80.11325718540242 l 5.164630544940064 -15.223478773119076 a37.07568706529631,37.07568706529631 0 0,0 0.6025999622430545,0.21023529446617653 l -5.425912511246391 15.132322625480693" fill="#ffc912" stroke="none" /><path d="M 107.08798089147638 80.2323363322302 l 4.976849029403031 -13.879929876336558 a35.74521887370581,35.74521887370581 0 0,0 0.577400476718509,0.21266146845849954 l -5.215031831894116 13.792205140071733" fill="#ffb811" stroke="none" /><path d="M 108.43124777332544 80.76684994638697 l 7.063354267407158 -16.112745842515782 a38.592940404958135,38.592940404958135 0 0,0 0.6061258022143378,0.2719509793105196 l -7.339662188088276 15.98877453268873" fill="#ffdc14" stroke="none" /><path d="M 109.73455568895987 81.39251694778311 l 2.5022509016898815 -4.783021714940119 a26.398014107113518,26.398014107113518 0 0,0 0.4008160742794603,0.21410206574039212 l -2.584212022497653 4.739240922697974" fill="#ff3905" stroke="none" /><line stroke="#e1ed5e" stroke-width="0.3" x1="143.23703022742887" x2="145.7803849466894" y1="26.81831364943548" y2="22.513508569990506" /><path d="M 143.74570117128098 25.957352633546492 a86.0,86.0 0 0,1 28.547481713284135,27.462654790039103" fill="none" id="id146" stroke="none" /><text fill="#e1ed5e" style="font-size:6.75px; font-family:Arial;" text-anchor="middle"><textPath startOffset="19.985693538727396" xlink:href="#id146">February</textPath></text><path d="M 110.68208982089419 81.91981866633111 l 7.953729790101661 -13.462241873566674 a36.636296679084936,36.636296679084936 0 0,0 0.5401898669118804,0.325458350588733 l -8.184281723231178 13.323336913519327" fill="#ffc312" stroke="none" /><path d="M 111.2981086023043 82.29822771554956 l 0.7955144160242559 -1.2464046449851676 a22.47863711746426,22.47863711746426 0 0,0 0.3243699172390986,0.21097921710856055 l -0.8168513590476346 1.232526503717079" fill="#ff0000" stroke="none" /><path d="M 113.06298171725822 83.55741782278167 l 9.493138758214563 -11.949164251333059 a36.261133961408355,36.261133961408355 0 0,0 0.48537531051188565,0.3924730788436531 l -9.69741746729094 11.783985075225276" fill="#ffbf11" stroke="none" /><path d="M 114.42810811169701 84.74124197986012 l 2.6653351714661166 -2.8187828999561058 a24.879374770931427,24.879374770931427 0 0,0 0.30864257220352814,0.2969139099226046 l -2.713460987282063 2.7724859032711993" fill="#ff2303" stroke="none" /><path d="M 114.68862486808459 84.99185889309783 l 10.773544876339626 -11.007897824184322 a36.40269728684511,36.40269728684511 0 0,0 0.44405084867789796,0.44214395321478 l -10.961431525184846 10.820818020319424" fill="#ffc011" stroke="none" /><path d="M 115.19652480421416 85.50635884689758 l 14.252050509777758 -13.592851552963392 a40.69483579708538,40.69483579708538 0 0,0 0.4790996779088424,0.5110701321341494 l -14.483917509657063 13.345512003951189" fill="#fff617" stroke="none" /><path d="M 115.4437574822437 85.77008943001954 l 11.317350000341294 -10.427830052316269 a36.38902370620747,36.38902370620747 0 0,0 0.4204775244802418,0.4643017845743141 l -11.495171165437572 10.231475480472405" fill="#ffc011" stroke="none" /><path d="M 115.68641384162765 86.03803664274999 l 11.165091670878702 -9.937682529799345 a35.947133707912165,35.947133707912165 0 0,0 0.4074147763589567,0.46574551814359755 l -11.334498310815507 9.744021455452799" fill="#ffba11" stroke="none" /><path d="M 115.9244219780498 86.31012108654704 l 15.092373170513033 -12.97458466660606 a40.90275295502988,40.90275295502988 0 0,0 0.4543894354079488,0.5378537697172913 l -15.313473219408099 12.712871947259663" fill="#fff917" stroke="none" /><path d="M 116.38621287248628 86.86637796730983 l 22.947674155152114 -18.392662247733345 a50.40894037006828,50.40894037006828 0 0,0 0.5368454197784744,0.6817391656127205 l -23.260873655524552 17.994930688167585" fill="#96ff23" stroke="none" /><path d="M 117.65298651832404 88.62581576622439 l 14.08051468570448 -9.072366762153443 a37.75018604318669,37.75018604318669 0 0,0 0.3472521038154642,0.549269435462954 l -14.2345943857659 8.828649678976284" fill="#ffd213" stroke="none" /><line stroke="#e1ed5e" stroke-width="0.3" x1="172.23445277983987" x2="176.4835382374775" y1="55.19839476539836" y2="52.563006222186495" /><path d="M 173.08426987136738 54.67131705675599 a86.0,86.0 0 0,1 12.851231095245387,41.99856678651699" fill="none" id="id147" stroke="none" /><text fill="#e1ed5e" style="font-size:6.75px; font-family:Arial;" text-anchor="middle"><textPath startOffset="22.20632615414155" xlink:href="#id147">March</textPath></text><path d="M 117.84615892207809 88.93136811851018 l 5.332613424963641 -3.307419553133738 a27.27501315062796,27.27501315062796 0 0,0 0.24402590821611803,0.4011144308149795 l -5.388755131465984 3.215137349111677" fill="#ff4506" stroke="none" /><path d="M 118.3937258080291 89.86733742301442 l 13.189731242894178 -7.265906731469964 a36.058632437582084,36.058632437582084 0 0,0 0.2948083401329138,0.5462350806390438 l -13.312847682245556 7.037790667498461" fill="#ffbc11" stroke="none" /><path d="M 118.56541770881063 90.18545643968196 l 12.031909687785939 -6.360627247753582 a34.60971820868832,34.60971820868832 0 0,0 0.2738956517747883,0.5290792199938946 l -12.139614772720844 6.152575305499343" fill="#ffa90f" stroke="none" /><path d="M 119.04729006885535 91.15688171328212 l 16.90527728920297 -7.848642310678645 a39.638390122159606,39.638390122159606 0 0,0 0.281994459216838,0.6213374111022438 l -17.037874065383157 7.556482890734339" fill="#ffe915" stroke="none" /><path d="M 119.196687751892 91.48605970444005 l 27.22547562150276 -12.074795243614444 a50.783001913713385,50.783001913713385 0 0,0 0.34752329319416836,0.802131675011377 l -27.42928962453961 11.604364424016465" fill="#92ff23" stroke="none" /><path d="M 119.7369772167798 92.82701384747503 l 10.517912148803136 -3.822512301057835 a32.1909819167792,32.1909819167792 0 0,0 0.18478684265594592,0.5224172878522039 l -10.582152072268892 3.640897386779016" fill="#ff890c" stroke="none" /><path d="M 120.08093135843002 93.85539295169968 l 37.65090809489983 -11.520881732296132 a60.37412343481628,60.37412343481628 0 0,0 0.29552875505472814,0.9963760468307133 l -37.84364274706627 10.871076298718888" fill="#2fff30" stroke="none" /><path d="M 120.28053869075195 94.5502522615342 l 14.589586717389157 -3.9204859609818468 a36.10715892398282,36.10715892398282 0 0,0 0.15612678457331308,0.601620189084634 l -14.654909833832772 3.668769346348362" fill="#ffbd11" stroke="none" /><path d="M 120.45610955862082 95.25157060432595 l 14.409732367386258 -3.3448978438941235 a35.79286072691103,35.79286072691103 0 0,0 0.13414757354582035,0.6013572685100933 l -14.465174327934115 3.096362405834066" fill="#ffb811" stroke="none" /><path d="M 120.6074358757038 95.95851677861258 l 21.004376962615872 -4.119330400061698 a42.404502669591295,42.404502669591295 0 0,0 0.13430975228715736,0.7174880672763365 l -21.07217243881289 3.757164255322799" fill="#f3ff19" stroke="none" /><path d="M 120.67395015179393 96.31383870115 l 61.49336501159441 -10.964255044511964 a83.46317978721777,83.46317978721777 0 0,0 0.24000885995014426,1.4165458775483197 l -61.672985733064785 9.904123378647807" fill="#4cd7ff" stroke="none" /><path d="M 120.94382443527127 98.46500227214037 l 3.0126979007654846 -0.22080420157717048 a24.020778564660258,24.020778564660258 0 0,0 0.026673826654365785,0.4126322922279131 l -3.016052318424266 0.16891284509622218" fill="#ff1702" stroke="none" /><path d="M 120.96714384426684 98.82574320788733 l 62.5577267984846 -3.5035213254539417 a83.65575666985237,83.65575666985237 0 0,0 0.06814514986275166,1.4384364095491713 l -62.60876555658085 2.4261738092817704" fill="#4dd5ff" stroke="none" /><line stroke="#e1ed5e" stroke-width="0.3" x1="184.98032266829074" x2="189.97916517819016" y1="98.17113171792111" y2="98.06355123074" /><path d="M 185.9800911702706 98.14961562048488 a86.0,86.0 0 0,1 -9.607161424134198,41.387399972396054" fill="none" id="id148" stroke="none" /><text fill="#e1ed5e" style="font-size:6.75px; font-family:Arial;" text-anchor="middle"><textPath startOffset="21.466115282336823" xlink:href="#id148">April</textPath></text><path d="M 120.95626037817324 101.35467743843564 l 14.771653232252428 0.9548853183256556 a35.80248442610454,35.80248442610454 0 0,0 -0.04504880223353035,0.6146551150365096 l -14.75302787135456 -1.2090135698589355" fill="#ffb911" stroke="none" /><path d="M 120.8583938346157 102.4346265915055 l 9.65892047027922 1.127405341400389 a30.724494200471153,30.724494200471153 0 0,0 -0.06583599372262712,0.5247776465813764 l -9.638082967309744 -1.2935007422691602" fill="#ff750a" stroke="none" /><path d="M 120.70491114924044 103.5080841355445 l 4.972065192013112 0.8424292620851981 a26.042927655166768,26.042927655166768 0 0,0 -0.07869125769635531,0.4413423632611984 l -4.956827491977568 -0.9278903760796148" fill="#ff3404" stroke="none" /><path d="M 120.64145759157962 103.86396538481128 l 61.924372774738885 11.591896154433844 a84.0,84.0 0 0,0 -0.2782802680973435,1.4189450917282203 l -61.715662573665874 -12.656104973230008" fill="#4dd2ff" stroke="none" /><path d="M 120.41448212921028 104.9243191809786 l 4.62484312804808 1.115590568514962 a25.757490543933123,25.757490543933123 0 0,0 -0.10767696390044224,0.4301159457496272 l -4.604954849852577 -1.1950343536619852" fill="#ff3004" stroke="none" /><path d="M 120.02730092923936 106.31721596034902 l 15.929514521347542 5.024650287645631 a37.70318961752394,37.70318961752394 0 0,0 -0.20055897341339082,0.6172570507071666 l -15.840663296917905 -5.298106238330593" fill="#ffd113" stroke="none" /><path d="M 119.41010516605496 108.01547362559984 l 7.630301739233728 3.1509608950061736 a29.255304912213198,29.255304912213198 0 0,0 -0.19621814246690733,0.4638017268895046 l -7.574932615574512 -3.2818371475618417" fill="#ff6108" stroke="none" /><path d="M 119.26925614724726 108.34839909993367 l 16.336992743800682 7.077996912582033 a38.804363852873735,38.804363852873735 0 0,0 -0.2708154987604847,0.6106174565011974 l -16.212736160308925 -7.358162705575918" fill="#ffdf14" stroke="none" /><line stroke="#e1ed5e" stroke-width="0.3" x1="174.80103733775053" x2="179.2010983576182" y1="140.37084112569926" y2="142.7455964860345" /><path d="M 175.68104954172406 140.8457921977663 a86.0,86.0 0 0,1 -30.038265399797805,32.042727171017184" fill="none" id="id149" stroke="none" /><text fill="#e1ed5e" style="font-size:6.75px; font-family:Arial;" text-anchor="middle"><textPath startOffset="22.206326154141568" xlink:href="#id149">May</textPath></text><path d="M 118.48025628344425 109.97397251340804 l 1.5964235473206747 0.8616051821206778 a22.81409250929966,22.81409250929966 0 0,0 -0.18949123478940316,0.34398163259257475 l -1.581355903079762 -0.8889573331110576" fill="#ff0500" stroke="none" /><path d="M 118.30583269289576 110.29060199501025 l 5.139348846512841 2.8890788187692413 a26.89573430432664,26.89573430432664 0 0,0 -0.23034019650710072,0.4016175480430738 l -5.0888566538533615 -2.97711621267063" fill="#ff4006" stroke="none" /><path d="M 117.94076556474637 110.91462005526583 l 1.2596676111252103 0.7663437394428927 a22.474464383259633,22.474464383259633 0 0,0 -0.2039133414063766,0.3287732337684693 l -1.2462896300508708 -0.7879133045766356" fill="#ff0000" stroke="none" /><path d="M 117.35343817320211 111.8261652097733 l 12.27264668701614 8.363665219147084 a35.85155724502649,35.85155724502649 0 0,0 -0.35192416606259547,0.5069730089577562 l -12.126861613791409 -8.573679490291859" fill="#ffb911" stroke="none" /><path d="M 116.93607887273984 112.41649034213515 l 6.070071814681692 4.450202944223129 a28.526624614006288,28.526624614006288 0 0,0 -0.293741008190349,0.3935140829404848 l -5.992569539796252 -4.554029906672929" fill="#ff5708" stroke="none" /><path d="M 116.498646956653 112.99209946851258 l 41.195392380754946 32.43991079155436 a73.43479918497226,73.43479918497226 0 0,0 -0.7905853679795734,0.9863768046119651 l -40.630889100720516 -33.14421542974458" fill="#40ffc5" stroke="none" /><path d="M 115.80600337817218 113.82643327865902 l 5.790190609300857 5.065017526237824 a28.692899962506477,28.692899962506477 0 0,0 -0.32838498018637896,0.3689440064246701 l -5.70214677946614 -5.163935702403361" fill="#ff5908" stroke="none" /><path d="M 115.32070863581623 114.36230785411682 l 5.713981500392076 5.356538221052537 a28.832118889573852,28.832118889573852 0 0,0 -0.34254403680054674,0.35915605311236126 l -5.620930912212565 -5.454101390747405" fill="#ff5b08" stroke="none" /><path d="M 115.07121518719521 114.62390073753431 l 8.707160434202343 8.448731460204057 a33.13242375263824,33.13242375263824 0 0,0 -0.4006804584102444,0.40588718894414316 l -8.560439350736564 -8.597359143128864" fill="#ff960d" stroke="none" /><path d="M 114.55890576462653 115.13401014063108 l 8.186937557123997 8.510337110036673 a32.80897050088257,32.80897050088257 0 0,0 -0.4103686124338537,0.3880291369735261 l -8.039233110299337 -8.650000883756121" fill="#ff910d" stroke="none" /><path d="M 114.29624159901734 115.38237550388516 l 8.038540504759048 8.649255658626636 a32.80795312045812,32.80795312045812 0 0,0 -0.41697416518667996,0.38089601353599895 l -7.888466790105505 -8.786344438749216" fill="#ff910d" stroke="none" /><path d="M 114.0293411484842 115.62618273729858 l 6.902543883843676 7.688202242684622 a31.332161719253556,31.332161719253556 0 0,0 -0.4044200968557692,0.3568537143568394 l -6.769181434081319 -7.805879098813751" fill="#ff7d0b" stroke="none" /><path d="M 113.75828350139079 115.86535959552629 l 5.60367742633982 6.461878577892903 a29.553190951563145,29.553190951563145 0 0,0 -0.38719538609932597,0.3299763080583552 l -5.491616563663447 -6.5573792761742045" fill="#ff6509" stroke="none" /><path d="M 113.48314897796784 116.09983520530334 l 16.900669416676067 20.180596751724465 a47.32278693427962,47.32278693427962 0 0,0 -0.629009687327259,0.5176321499088463 l -16.550789600804116 -20.46852402049049" fill="#b9ff1f" stroke="none" /><path d="M 113.20401910651253 116.32954008644616 l 3.105430848345072 3.840516824057448 a25.938954366029463,25.938954366029463 0 0,0 -0.349610794288152,0.2777519591946997 l -3.038862561339569 -3.8934026972572737" fill="#ff3204" stroke="none" /><path d="M 112.92097659922987 116.55440617244103 l 4.8116971995541125 6.164765426861267 a28.82027894057628,28.82027894057628 0 0,0 -0.39370047927882396,0.3018727392613288 l -4.704867991781795 -6.2466775079499675" fill="#ff5b08" stroke="none" /><path d="M 112.63410532772338 116.77436683061366 l 5.323929803088149 7.0686090689359435 a29.84926339972168,29.84926339972168 0 0,0 -0.4130783126616277,0.3055854603993476 l -5.201466520007957 -7.15920447807506" fill="#ff6909" stroke="none" /><path d="M 112.34349029814194 116.9893568818739 l 8.86247325775692 12.198147962635884 a36.07774008141852,36.07774008141852 0 0,0 -0.5055568085205918,0.3607013595136486 l -8.651189121387443 -12.348893583993751" fill="#ffbc11" stroke="none" /><path d="M 112.04921762599082 117.19931262002967 l 8.566926846783991 12.228615799330502 a35.93088342884586,35.93088342884586 0 0,0 -0.5096079170809271,0.35051297222134203 l -8.355162045080181 -12.374269560916938" fill="#ffba11" stroke="none" /><path d="M 111.7513745106137 117.40417183066458 l 4.131041570839249 6.118208323083224 a28.38227455088517,28.38227455088517 0 0,0 -0.4072522585471678,0.2699045901781562 l -4.025114613552118 -6.188410934352699" fill="#ff5507" stroke="none" /><path d="M 111.45004920935366 117.60387380957326 l 8.053621843805525 12.382037845964687 a35.77077134146769,35.77077134146769 0 0,0 -0.5190478563125399,0.331280899798013 l -7.8392921854460536 -12.51883317458651" fill="#ffb811" stroke="none" /><path d="M 111.1453310114006 117.79835938074945 l 1.7251933126534162 2.7550200661121926 a24.25060417933419,24.25060417933419 0 0,0 -0.35569954768778167,0.21849971414809347 l -1.6775145650333259 -2.7843082470886644" fill="#ff1a02" stroke="none" /><line stroke="#e1ed5e" stroke-width="0.3" x1="143.8653032363475" x2="146.44561519142675" y1="172.8068346515853" y2="177.08958963109032" /><path d="M 144.38136562736335 173.6633856474863 a86.0,86.0 0 0,1 -40.68145358897372,12.25698825130547" fill="none" id="id150" stroke="none" /><text fill="#e1ed5e" style="font-size:6.75px; font-family:Arial;" text-anchor="middle"><textPath startOffset="21.466115282336833" xlink:href="#id150">June</textPath></text><path d="M 110.8373102113329 117.98757091392108 l 1.2145354590301844 2.0158639247893375 a23.353466325339866,23.353466325339866 0 0,0 -0.3461118592048816,0.20448898713301608 l -1.1796557287969207 -2.0364714842161034" fill="#ff0d01" stroke="none" /><path d="M 110.21172684928248 118.3499491758327 l 5.635419218818872 10.126559178098562 a32.589009904187904,32.589009904187904 0 0,0 -0.4925242060655198,0.26856346732443537 l -5.460272200884704 -10.222063297182768" fill="#ff8e0d" stroke="none" /><path d="M 109.89434966115114 118.52300852407294 l 4.514760837270558 8.451990917731903 a30.582234389283876,30.582234389283876 0 0,0 -0.46646513790260413,0.24403251364672207 l -4.368604796841458 -8.528452850323342" fill="#ff730a" stroke="none" /><path d="M 109.57404056367764 118.69057910512821 l 3.445528234138745 6.726409564572145 a28.55752938747941,28.55752938747941 0 0,0 -0.43944066799041437,0.22034467356901638 l -3.3292336584655704 -6.784722079050463" fill="#ff5708" stroke="none" /><path d="M 108.2653958097858 119.30500536409082 l 2.907611048095842 6.791138400622415 a28.387405686938912,28.387405686938912 0 0,0 -0.4508576184484861,0.1884585210771027 l -2.790281970149895 -6.840181964719491" fill="#ff5507" stroke="none" /><path d="M 107.93186726928326 119.44442032107085 l 3.513583417698587 8.613305100483538 a30.302381049341196,30.302381049341196 0 0,0 -0.48466338762962213,0.19285756425019943 l -3.3647989540270986 -8.672509509139806" fill="#ff6f0a" stroke="none" /><path d="M 107.59598834532513 119.57807347666477 l 3.848618237166748 9.919516355926891 a31.639956159259004,31.639956159259004 0 0,0 -0.5094481614897538,0.19262970292908313 l -3.6772998549167197 -9.984294308962607" fill="#ff810b" stroke="none" /><path d="M 106.91757812671514 119.82793768551818 l 3.6865682963050808 10.56685520764111 a32.191479561817275,32.191479561817275 0 0,0 -0.5247675140734622,0.1780296325542656 l -3.504131049294392 -10.628747827093498" fill="#ff890c" stroke="none" /><path d="M 106.57524785965236 119.94407469862006 l 0.567160290291251 1.7203134295621503 a22.811394239478293,22.811394239478293 0 0,0 -0.3739750535889456,0.11973500241623143 l -0.537463891611365 -1.7298212786380884" fill="#ff0500" stroke="none" /><path d="M 106.2309692047433 120.05430185196036 l 18.515539411336107 59.59204805957624 a83.40222264973889,83.40222264973889 0 0,0 -1.3746474498276753,0.4141700002281007 l -17.487016987068184 -59.90193342891007" fill="#4cd7ff" stroke="none" /><path d="M 105.53697534728816 120.25689768951611 l 4.003879078663857 14.648100049318646 a36.185449704615635,36.185449704615635 0 0,0 -0.602245738234621,0.15905857319409977 l -3.751142897617739 -14.714849971816331" fill="#ffbe11" stroke="none" /><path d="M 105.18746579009965 120.34920634021253 l 1.8403544942065937 7.2192771686746875 a28.450158891090446,28.450158891090446 0 0,0 -0.4755873727262394,0.11688780523281889 l -1.7158138367371432 -7.249886232221536" fill="#ff5607" stroke="none" /><path d="M 104.48393922423573 120.51570834832081 l 1.909252044299046 8.735546167209893 a29.941756550483554,29.941756550483554 0 0,0 -0.5044594822554254,0.1057143892742983 l -1.7586011006142426 -8.767116537210732" fill="#ff6a09" stroke="none" /><path d="M 104.13013068566511 120.58985236759428 l 2.051433045916633 10.226965384904206 a31.430685429342965,31.430685429342965 0 0,0 -0.5313767249345718,0.10183961402097505 l -1.8750887064103567 -10.26076219727365" fill="#ff7f0b" stroke="none" /><path d="M 103.7750983002368 120.6578951692458 l 2.704581583810685 14.799869670023998 a36.044962738178654,36.044962738178654 0 0,0 -0.6113071691644744,0.10628358713835179 l -2.4494254431741607 -14.844231835683356" fill="#ffbc11" stroke="none" /><path d="M 103.06178313531738 120.77559828337769 l 1.0871623276413571 7.376893395017482 a28.456572811157624,28.456572811157624 0 0,0 -0.48521357697551176,0.06724618049262328 l -0.960020159479015 -7.394514141002707" fill="#ff5607" stroke="none" /><path d="M 102.70371172650421 120.8252237178851 l 1.101238119953995 8.482239430295058 a29.553426865864466,29.553426865864466 0 0,0 -0.5050435455721596,0.06115373994334046 l -0.9550671513304549 -8.49993869896375" fill="#ff6509" stroke="none" /><path d="M 102.34483914955558 120.86867818915974 l 1.099636748550054 9.786584054097833 a30.84816878544858,30.84816878544858 0 0,0 -0.5281902833169451,0.054749082505572796 l -0.9310138686275063 -9.804062505059164" fill="#ff770a" stroke="none" /><path d="M 101.98527174616119 120.90594882070398 l 1.0299076514254908 10.84546571137499 a31.894257031439793,31.894257031439793 0 0,0 -0.5469951381564204,0.04719704215564231 l -0.8430681955275287 -10.861587005809294" fill="#ff850c" stroke="none" /><path d="M 101.62511606390274 120.93702456842531 l 2.483247076639915 31.99267191305795 a53.0889010746739,53.0889010746739 0 0,0 -0.9117064150881368,0.06287661226372894 l -1.9321779007728475 -32.03067686983797" fill="#79ff26" stroke="none" /><path d="M 101.26447882468166 120.96189622390904 l 0.4443289413404931 7.365862500705465 a28.37925189889949,28.37925189889949 0 0,0 -0.48786897833343484,0.02521725354179111 l -0.31747189459357866 -7.372419561009458" fill="#ff5507" stroke="none" /><path d="M 100.90346689309514 120.98055641714683 l 0.3524929515135184 8.185688166768461 a29.193274195609465,29.193274195609465 0 0,0 -0.5022350397550113,0.017297990258013495 l -0.21153756008385485 -8.19054295545257" fill="#ff6008" stroke="none" /><line stroke="#e1ed5e" stroke-width="0.3" x1="102.19456741930631" x2="102.32365962044197" y1="184.97166512339345" y2="189.96999836594603" /><path d="M 102.22038585953345 185.97133177190398 a86.0,86.0 0 0,1 -42.740103519485714,-10.115201625700543" fill="none" id="id151" stroke="none" /><text fill="#e1ed5e" style="font-size:6.75px; font-family:Arial;" text-anchor="middle"><textPath startOffset="22.20632615414155" xlink:href="#id151">July</textPath></text><path d="M 100.54218724476979 120.99299961872073 l 0.3808355982607343 14.745609835357518 a35.75052694548554,35.75052694548554 0 0,0 -0.6153181688417535,0.010593260295252312 l -0.12695773952631284 -14.74998057293193" fill="#ffb811" stroke="none" /><path d="M 100.18074693466247 120.99922214144158 l 0.12762032151416658 14.826959506908553 a35.82750873093553,35.82750873093553 0 0,0 -0.6167345123532338,0.0 l 0.12762032151415637 -14.826959506908553" fill="#ffb911" stroke="none" /><path d="M 99.81925306533755 120.99922214144158 l -0.13153604019548662 15.281888640761963 a36.28245471639029,36.28245471639029 0 0,0 -0.6244734135308256,-0.010750876135266636 l 0.3945691436189802 -15.277360287347538" fill="#ffbf11" stroke="none" /><path d="M 99.45781275523022 120.99299961872073 l -0.3834851568507414 14.848198346995465 a35.85314966656041,35.85314966656041 0 0,0 -0.6168101572805398,-0.021244188969544744 l 0.6390156658059242 -14.839397359599827" fill="#ffb911" stroke="none" /><path d="M 99.09653310690486 120.98055641714683 l -0.6437980116275338 14.950454308209032 a35.964309536414355,35.964309536414355 0 0,0 -0.6182640406626727,-0.031957188838737 l 0.9010501207036954 -14.937157312608093" fill="#ffbb11" stroke="none" /><path d="M 98.73552117531835 120.96189622390904 l -0.9055203111639616 15.011261889687745 a36.03854881811148,36.03854881811148 0 0,0 -0.6188972738713084,-0.04268277953986225 l 1.1637803458142002 -14.993450765631598" fill="#ffbc11" stroke="none" /><path d="M 98.37488393609728 120.93702456842531 l -0.7383188018845712 9.51205839247243 a30.540669238319786,30.540669238319786 0 0,0 -0.5237807412455702,-0.04519400630908622 l 0.9019438608716831 -9.49794013388468" fill="#ff730a" stroke="none" /><path d="M 98.01472825383883 120.90594882070398 l -1.4084254973185482 14.83145640975925 a35.89817980882516,35.89817980882516 0 0,0 -0.6146578714497515,-0.0637118015601701 l 1.6635159653738931 -14.80501523974332" fill="#ffba11" stroke="none" /><path d="M 97.65516085044442 120.86867818915974 l -0.8324535749797718 7.408698275513255 a28.455319516431853,28.455319516431853 0 0,0 -0.4862778020360949,-0.05888146973989598 l 0.9598588000672561 -7.393271277048011" fill="#ff5607" stroke="none" /><path d="M 97.2962882734958 120.8252237178851 l -1.9184779801830378 14.776994434538178 a35.90101078044102,35.90101078044102 0 0,0 -0.6121488337128229,-0.0848382504397172 l 2.172555405082692 -14.741781618605856" fill="#ffba11" stroke="none" /><path d="M 96.93821686468263 120.77559828337769 l -1.194536251991286 8.10547455828553 a29.193023536664313,29.193023536664313 0 0,0 -0.49650957333947343,-0.07754458412051982 l 1.3338816889392766 -8.083711666817905" fill="#ff6008" stroke="none" /><path d="M 96.58105272829116 120.7198165907248 l -1.237937249175599 7.502260408047941 a28.603709611963104,28.603709611963104 0 0,0 -0.48510669514359384,-0.08434201708310067 l 1.3668929157912428 -7.479839812443834" fill="#ff5808" stroke="none" /><path d="M 96.22490169976321 120.6578951692458 l -2.803469955191205 15.341001435866575 a36.59505591028516,36.59505591028516 0 0,0 -0.6186871426052729,-0.11857286336810725 l 3.067124712368173 -15.29047137415" fill="#ffc312" stroke="none" /><path d="M 95.86986931433489 120.58985236759428 l -2.929989779129742 14.60681551802435 a35.89778170344168,35.89778170344168 0 0,0 -0.604806746781981,-0.12674313421401892 l 3.1809879873411093 -14.554216403083789" fill="#ffba11" stroke="none" /><path d="M 95.51606077576429 120.51570834832081 l -3.2125244067582397 14.698507382679402 a36.0454788007128,36.0454788007128 0 0,0 -0.605014522987523,-0.13769933567378226 l 3.4650590791386255 -14.641031313427934" fill="#ffbc11" stroke="none" /><path d="M 95.16358092515715 120.4354850818985 l -3.432619239797687 14.503962163163598 a35.90462321818001,35.90462321818001 0 0,0 -0.6002000020607023,-0.14751455771302074 l 3.6817725266015997 -14.442726347136547" fill="#ffba11" stroke="none" /><path d="M 94.81253420990036 120.34920634021253 l -3.6869518118890583 14.46304346329189 a35.92559010170996,35.92559010170996 0 0,0 -0.5979208137230758,-0.15791632132197378 l 3.9353630684236234 -14.397435792666334" fill="#ffba11" stroke="none" /><path d="M 94.46302465271185 120.25689768951611 l -3.896253271384546 14.254353494554541 a35.77725898475404,35.77725898475404 0 0,0 -0.5926568234021474,-0.16749073818244753 l 4.141041262891307 -14.185173963033574" fill="#ffb811" stroke="none" /><path d="M 94.11515582081647 120.15858648285463 l -4.176245063643876 14.30576489805036 a35.90288335020776,35.90288335020776 0 0,0 -0.5917564960599777,-0.1782913780103146 l 4.421876534144099 -14.231758150934319" fill="#ffba11" stroke="none" /><path d="M 93.76903079525671 120.05430185196036 l -4.421522165231998 14.230617618715863 a35.90168903405732,35.90168903405732 0 0,0 -0.5885802480765995,-0.1884448086825032 l 4.665823758399538 -14.152399963373652" fill="#ffba11" stroke="none" /><path d="M 93.42475214034765 119.94407469862007 l -4.6658976248283395 14.152624015394986 a35.90192494835864,35.90192494835864 0 0,0 -0.585253121697109,-0.198549634671911 l 4.908820479462674 -14.070211393824954" fill="#ffba11" stroke="none" /><path d="M 93.08242187328487 119.8279376855182 l -4.9542481009684884 14.200421133696196 a36.03983160212492,36.03983160212492 0 0,0 -0.5839833205905586,-0.20939564163243327 l 5.1979509821887735 -14.113037951023806" fill="#ffbc11" stroke="none" /><path d="M 92.7421414339146 119.70592522655815 l -5.154671244838788 13.995528459721621 a35.91460534205467,35.91460534205467 0 0,0 -0.5782760750376432,-0.21865453046244515 l 5.394817540636714 -13.904725679152543" fill="#ffba11" stroke="none" /><path d="M 92.40401165467489 119.57807347666478 l -5.392140203891971 13.897825050409136 a35.90720353085071,35.90720353085071 0 0,0 -0.574308232585149,-0.2285290981167536 l 5.630569512518979 -13.802949107886315" fill="#ffba11" stroke="none" /><path d="M 92.06813273071674 119.44442032107085 l -5.628068955449549 13.796819166342399 a35.900583185769875,35.900583185769875 0 0,0 -0.5701842434828464,-0.23833706001914196 l 5.864724658429857 -13.697897063303284" fill="#ffba11" stroke="none" /><path d="M 91.7346041902142 119.30500536409082 l -6.450746784433489 15.066634937003395 a37.38949731998545,37.38949731998545 0 0,0 -0.5894709308374714,-0.2584067331253319 l 6.709138389928704 -14.953363650583611" fill="#ffcd13" stroke="none" /><path d="M 91.40352486487194 119.15986991738527 l -7.279594657997018 16.22479964242204 a38.7830430978918,38.7830430978918 0 0,0 -0.6067367085328068,-0.27852306433109136 l 7.557799362297244 -16.097089507756877" fill="#ffdf14" stroke="none" /><path d="M 90.7491055286396 118.85261126421891 l -6.66901567207589 13.590940894404277 a36.13900407654296,36.13900407654296 0 0,0 -0.556103711789126,-0.27884194561475184 l 6.901973291547776 -13.474131107880224" fill="#ffbd11" stroke="none" /><path d="M 90.42595943632237 118.69057910512821 l -6.792186618117777 13.259803991676312 a35.898194553469,35.898194553469 0 0,0 -0.5475484903976154,-0.2864514914362097 l 7.0194260110418885 -13.140923081295387" fill="#ffba11" stroke="none" /><line stroke="#e1ed5e" stroke-width="0.3" x1="58.666819895761336" x2="56.23545636021788" y1="174.27360380694188" y2="178.64263932499728" /><path d="M 58.180547188652646 175.14741091055294 a86.0,86.0 0 0,1 -31.652253787137756,-30.449443065178592" fill="none" id="id152" stroke="none" /><text fill="#e1ed5e" style="font-size:6.75px; font-family:Arial;" text-anchor="middle"><textPath startOffset="22.20632615414155" xlink:href="#id152">August</textPath></text><line stroke="#e1ed5e" stroke-width="0.3" x1="26.63291911575756" x2="22.317208475507996" y1="142.92168965132927" y2="145.44649492493687" /><path d="M 25.769776987707644 143.4266507060508 a86.0,86.0 0 0,1 -11.730757126820373,-40.83630448921669" fill="none" id="id153" stroke="none" /><text fill="#e1ed5e" style="font-size:6.75px; font-family:Arial;" text-anchor="middle"><textPath startOffset="21.46611528233685" xlink:href="#id153">September</textPath></text><line stroke="#e1ed5e" stroke-width="0.3" x1="15.007084014347285" x2="10.007500721073583" y1="101.09737516637583" y2="101.16192664675087" /><path d="M 14.007167355692545 101.11028546245083 a86.0,86.0 0 0,1 10.666146001902534,-42.60595125391555" fill="none" id="id154" stroke="none" /><text fill="#e1ed5e" style="font-size:6.75px; font-family:Arial;" text-anchor="middle"><textPath startOffset="22.20632615414155" xlink:href="#id154">October</textPath></text><line stroke="#e1ed5e" stroke-width="0.3" x1="26.266209847984243" x2="21.928928074336255" y1="57.711370442889674" y2="55.22380399835377" /><path d="M 25.398753493254645 57.213857153982495 a86.0,86.0 0 0,1 29.58750427330803,-30.492523968695096" fill="none" id="id155" stroke="none" /><text fill="#e1ed5e" style="font-size:6.75px; font-family:Arial;" text-anchor="middle"><textPath startOffset="21.46611528233685" xlink:href="#id155">November</textPath></text><line stroke="#e1ed5e" stroke-width="0.3" x1="56.762969772571076" x2="54.21961505331055" y1="26.818313649435495" y2="22.513508569990535" /><path d="M 56.25429882871897 25.957352633546506 a86.0,86.0 0 0,1 42.265352541879196,-11.944610805530505" fill="none" id="id156" stroke="none" /><text fill="#e1ed5e" style="font-size:6.75px; font-family:Arial;" text-anchor="middle"><textPath startOffset="22.20632615414155" xlink:href="#id156">December</textPath></text></svg>