<?xml version="1.0" encoding="utf-8" ?>
<svg baseProfile="full" height="200mm" version="1.1" viewBox="0,0,200,200" width="200mm" xmlns="http://www.w3.org/2000/svg" xmlns:ev="http://www.w3.org/2001/xml-events" xmlns:xlink="http://www.w3.org/1999/xlink"><defs /><rect fill="#1a1a1a" height="200" width="200" x="0" y="0" /><text alignment-baseline="middle" fill="#e1ed5e" style="dominant-baseline: central; font-size:9.0px; font-family:Arial;" text-anchor="middle" x="100.0" y="100.0">2018</text><line stroke="#e1ed5e" stroke-width="0.3" x1="100.0" x2="100.0" y1="15.0" y2="10.0" /><path d="M 100.0 14.0 a86.0,86.0 0 0,1 42.46469731375804,11.215312516191453" fill="none" id="id49" stroke="none" /><text fill="#e1ed5e" style="font-size:6.75px; font-family:Arial;" text-anchor="middle"><textPath startOffset="22.20632615414155" xlink:href="#id49">January</textPath></text><path d="M 100.0 79.0 l 0.0 -9.34541853792718 a30.34541853792718,30.34541853792718 0 0,0 0.5223464969912088,0.004496001210277872 l -0.16086601771868042 9.344033913325461" fill="#ff7b0b" stroke="none" /><path d="M 101.08401301168833 79.027996857942 l 0.3970891463185051 -7.682338435493963 a28.692594076616274,28.692594076616274 0 0,0 0.4930179457182335,0.029740188859332817 l -0.5292691408763506 7.674364977254326" fill="#ff6409" stroke="none" /><path d="M 101.44485096284872 79.0497635885617 l 0.4892726437502436 -7.094418607720648 a28.111270146851076,28.111270146851076 0 0,0 0.48245607382907946,0.03744787675749539 l -0.6113189069416642 7.084945468774688" fill="#ff5d08" stroke="none" /><path d="M 104.307194497241 79.44645832069477 l 2.4899671110892205 -11.881897330304826 a33.139992602230485,33.139992602230485 0 0,0 0.5573156909036169,0.12180762390928093 l -2.6941255261463657 11.837276208299674" fill="#ffa00e" stroke="none" /><path d="M 105.36241919743992 79.69619591428918 l 2.2287683051068825 -8.438817137036938 a29.728175229118474,29.728175229118474 0 0,0 0.49363225961528595,0.13492834361949393 l -2.373698453945879 8.39920225259115" fill="#ff720a" stroke="none" /><path d="M 106.0581310904928 79.89281104454417 l 5.49381677862451 -18.23420629306175 a40.04385207711478,40.04385207711478 0 0,0 0.6582725461918243,0.2045284844083633 l -5.806874697527053 18.136937673770866" fill="#fff717" stroke="none" /><path d="M 106.74666289553966 80.11325718540242 l 2.7097979013455897 -7.987512460304351 a29.434652332470748,29.434652332470748 0 0,0 0.47840840691491443,0.16690729937730048 l -2.846888312323778 7.939684307754843" fill="#ff6f0a" stroke="none" /><path d="M 107.4271985657038 80.35727306442388 l 2.3086685021204283 -6.105740215607103 a27.52763462773192,27.52763462773192 0 0,0 0.44177506177541814,0.17140186058148477 l -2.4134267288955136 6.065095651135071" fill="#ff5507" stroke="none" /><path d="M 108.09893153111575 80.62456947434976 l 2.2702801493282343 -5.431291169467647 a26.886688009736126,26.886688009736126 0 0,0 0.42547062499331895,0.1821643172163061 l -2.3634345321118686 5.39140732428855" fill="#ff4c07" stroke="none" /><path d="M 108.76106565485865 80.91482961587045 l 2.4145881413791694 -5.2599567108784155 a26.787692156015538,26.787692156015538 0 0,0 0.41740554964033966,0.19597750235350975 l -2.5047719023191073 5.217614225884902" fill="#ff4a06" stroke="none" /><path d="M 109.41281617654863 81.2277094730956 l 5.9349809535448985 -11.836328750280614 a34.24094699044068,34.24094699044068 0 0,0 0.524603123295412,0.26872209544776493 l -6.1378445644290665 11.73241412952035" fill="#ffae10" stroke="none" /><path d="M 110.05341064243156 81.56283822128135 l 10.937230980091497 -20.058018533538018 a43.846162237969594,43.846162237969594 0 0,0 0.6595212589339992,0.36702286654825417 l -11.280876328097532 19.866780269429583" fill="#daff1b" stroke="none" /><line stroke="#e1ed5e" stroke-width="0.3" x1="143.23703022742887" x2="145.7803849466894" y1="26.81831364943548" y2="22.513508569990506" /><path d="M 143.74570117128098 25.957352633546492 a86.0,86.0 0 0,1 28.547481713284135,27.462654790039103" fill="none" id="id50" stroke="none" /><text fill="#e1ed5e" style="font-size:6.75px; font-family:Arial;" text-anchor="middle"><textPath startOffset="19.985693538727396" xlink:href="#id50">February</textPath></text><path d="M 110.68208982089419 81.91981866633111 l 3.874182591061703 -6.5573239825346485 a28.616284432767046,28.616284432767046 0 0,0 0.42193748496620825,0.254212613601398 l -3.9864821422455488 6.4896647594746355" fill="#ff6309" stroke="none" /><path d="M 113.89432698308785 84.25364557470407 l 7.711938643864453 -8.739892140168877 a32.655887450920055,32.655887450920055 0 0,0 0.41828928164759466,0.3755442470912121 l -7.861238913108038 8.605848884308367" fill="#ff990e" stroke="none" /><path d="M 114.16331599549186 84.49514656593476 l 3.8169216620566964 -4.178457287709661 a26.659363593151763,26.659363593151763 0 0,0 0.33615187154825105,0.31241652944968296 l -3.8882814173997944 4.1121361721853384" fill="#ff4906" stroke="none" /><path d="M 115.4437574822437 85.77008943001954 l 4.516416606345247 -4.161435743792226 a27.14130005876465,27.14130005876465 0 0,0 0.31361947910512417,0.3463064619346101 l -4.587379726066407 4.083076494588067" fill="#ff4f07" stroke="none" /><path d="M 116.15771136456269 86.58626213691792 l 9.628928780470135 -7.993701808957188 a33.51461298122685,33.51461298122685 0 0,0 0.3646733144612332,0.44704636407140386 l -9.765100587007778 7.826771275277683" fill="#ffa50f" stroke="none" /><path d="M 116.38621287248628 86.86637796730983 l 10.897253317014032 -8.734196691686567 a34.965540508846836,34.965540508846836 0 0,0 0.37237621212524025,0.47287997400265 l -11.045983609733236 8.54532432373088" fill="#ffb711" stroke="none" /><path d="M 117.04232023915458 87.72973835380427 l 8.954079934919447 -6.446827782873723 a32.03345530389096,32.03345530389096 0 0,0 0.3183322793332579,0.4502584337387894 l -9.063724834056588 6.291742848803141" fill="#ff910d" stroke="none" /><path d="M 117.45458315368197 88.32363383020206 l 38.18184809720979 -25.54201584175783 a66.9374367741498,66.9374367741498 0 0,0 0.6324101274527376,0.9632040112754585 l -38.61585486002045 24.880993766504698" fill="#38ff80" stroke="none" /><path d="M 117.65298651832404 88.62581576622439 l 16.09328433494651 -10.369235866249053 a40.14457764316937,40.14457764316937 0 0,0 0.36927736004866163,0.5841081014471471 l -16.26938929124113 10.090680117087699" fill="#fff817" stroke="none" /><line stroke="#e1ed5e" stroke-width="0.3" x1="172.23445277983987" x2="176.4835382374775" y1="55.19839476539836" y2="52.563006222186495" /><path d="M 173.08426987136738 54.67131705675599 a86.0,86.0 0 0,1 12.851231095245387,41.99856678651699" fill="none" id="id51" stroke="none" /><text fill="#e1ed5e" style="font-size:6.75px; font-family:Arial;" text-anchor="middle"><textPath startOffset="22.20632615414155" xlink:href="#id51">March</textPath></text><path d="M 117.84615892207809 88.93136811851018 l 20.7700728225776 -12.882116046856176 a45.44063908533993,45.44063908533993 0 0,0 0.40655134285299543,0.6682635121723267 l -20.988739963716817 12.522684761476768" fill="#c8ff1d" stroke="none" /><path d="M 118.3937258080291 89.86733742301442 l 11.422792717124365 -6.29254265815717 a34.04132993843485,34.04132993843485 0 0,0 0.27831526867910755,0.5156759240985823 l -11.529416085021936 6.094985750726129" fill="#ffab0f" stroke="none" /><path d="M 119.04729006885535 91.15688171328212 l 11.153013558505338 -5.178028884670524 a33.29640982428148,33.29640982428148 0 0,0 0.23687649910411926,0.5219259666061136 l -11.240492374572804 4.985280909222348" fill="#ffa20e" stroke="none" /><path d="M 119.34039704204932 91.81776055985345 l 2.5793942532816767 -1.091250678308327 a23.800732539313763,23.800732539313763 0 0,0 0.1563802346022526,0.37868714205829795 l -2.5977961747701266 1.0466889657967258" fill="#ff2003" stroke="none" /><path d="M 119.97218684219823 93.5106431181261 l 5.433290774405107 -1.76538318796476 a26.71290000258925,26.71290000258925 0 0,0 0.13832768513951677,0.43853656334096913 l -5.46287394331283 1.6715964581973715" fill="#ff4906" stroke="none" /><path d="M 120.28053869075195 94.5502522615342 l 22.36129873216021 -6.008885614577816 a44.15457594770395,44.15457594770395 0 0,0 0.19092368860775355,0.735706854879827 l -22.46141875263827 5.623082334149139" fill="#d7ff1c" stroke="none" /><path d="M 120.37134235888165 94.90015583598534 l 5.733584011562176 -1.4353685901069064 a26.910521855733798,26.910521855733798 0 0,0 0.1086252181538367,0.4503216573265324 l -5.757442029976832 1.3364617011209678" fill="#ff4c07" stroke="none" /><path d="M 120.45610955862082 95.25157060432595 l 10.600934655528562 -2.460770441010751 a31.88279406835114,31.88279406835114 0 0,0 0.11949308815416078,0.5356640839551049 l -10.64172213068476 2.2779281875056823" fill="#ff8f0d" stroke="none" /><path d="M 120.53481517161879 95.60439243477599 l 5.326171637672447 -1.140100855477484 a26.44682790939891,26.44682790939891 0 0,0 0.09145653636168853,0.4459745514273836 l -5.345007469949133 1.0482506478866886" fill="#ff4606" stroke="none" /><path d="M 120.67395015179393 96.31383870115 l 6.545320777279541 -1.1670294240151788 a27.648547341638206,27.648547341638206 0 0,0 0.07950687169673894,0.4692540573801056 l -6.564439510496504 1.0541895783192354" fill="#ff5608" stroke="none" /><path d="M 120.78858239683441 97.02765380044208 l 23.350427047134108 -3.3386380930992248 a44.58789832944481,44.58789832944481 0 0,0 0.10209354977533945,0.7607155303488414 l -23.404436595967283 2.936204220685719" fill="#d2ff1c" stroke="none" /><path d="M 120.83666639777658 97.38593545837742 l 5.665500255107448 -0.7107654864124702 a26.70991074512533,26.70991074512533 0 0,0 0.053304901458754765,0.45668384294388326 l -5.676895509569792 0.6131379051437342" fill="#ff4906" stroke="none" /><path d="M 120.96714384426684 98.82574320788733 l 8.935275540986332 -0.5004166552837555 a29.94927739106538,29.94927739106538 0 0,0 0.024396384389297667,0.5149691157419338 l -8.942565533609125 0.3465364329188218" fill="#ff750a" stroke="none" /><line stroke="#e1ed5e" stroke-width="0.3" x1="184.98032266829074" x2="189.97916517819016" y1="98.17113171792111" y2="98.06355123074" /><path d="M 185.9800911702706 98.14961562048488 a86.0,86.0 0 0,1 -9.607161424134198,41.387399972396054" fill="none" id="id52" stroke="none" /><text fill="#e1ed5e" style="font-size:6.75px; font-family:Arial;" text-anchor="middle"><textPath startOffset="21.466115282336823" xlink:href="#id52">April</textPath></text><path d="M 120.95626037817324 101.35467743843564 l 51.311777110705016 3.316951857035941 a72.41887435446799,72.41887435446799 0 0,0 -0.09112170848095169,1.2432833156881344 l -51.24707884355973 -4.199708309220846" fill="#3fffbc" stroke="none" /><path d="M 120.92983693683757 101.71520430193887 l 48.24820582820313 3.9539500688470333 a69.40994822128599,69.40994822128599 0 0,0 -0.10783464681460724,1.1899463418829999 l -48.172996585111456 -4.783877799278604" fill="#3bff9c" stroke="none" /><path d="M 120.5718875245553 104.21870165774334 l 7.717602573455652 1.5826580196678097 a28.878210195788643,28.878210195788643 0 0,0 -0.10405226354199697,0.4860975344860178 l -7.689216271189212 -1.7152693735699964" fill="#ff6709" stroke="none" /><path d="M 120.41448212921028 104.9243191809786 l 22.761964774683957 5.490571792480315 a44.41481195765479,44.41481195765479 0 0,0 -0.18567228417116804,0.7416684796166276 l -22.664081176217728 -5.881568111494339" fill="#d4ff1c" stroke="none" /><path d="M 120.23288151984713 105.62410040840565 l 12.7449269733485 3.542686143127831 a34.22814381025154,34.22814381025154 0 0,0 -0.16267717990402783,0.5663006044869529 l -12.682057156558372 -3.761544223119366" fill="#ffae10" stroke="none" /><path d="M 120.13307415673323 105.97154293290107 l 5.279971830580152 1.5660588256599173 a26.50732628206712,26.50732628206712 0 0,0 -0.13351264062320253,0.4363270345463126 l -5.252232417450816 -1.656712832758287" fill="#ff4606" stroke="none" /><path d="M 120.02730092923936 106.31721596034902 l 10.119353548611079 3.191949927329939 a31.610836940617325,31.610836940617325 0 0,0 -0.16815121133946798,0.5175162148955611 l -10.062910086255364 -3.3656650422032954" fill="#ff8c0c" stroke="none" /><path d="M 119.79798401119884 107.00284435728193 l 22.718656253432258 8.035930004761228 a45.097998111939475,45.097998111939475 0 0,0 -0.2651670782884103,0.7296259147211798 l -22.57696491413862 -8.42580371648854" fill="#ccff1d" stroke="none" /><path d="M 118.97047184881838 109.00673069616215 l 5.218354287903984 2.4775510131152454 a26.776632279855995,26.776632279855995 0 0,0 -0.20126686686669462,0.41466935902218455 l -5.1749341644225755 -2.5670093281027055" fill="#ff4a06" stroke="none" /><path d="M 118.81262510543309 109.33194174019688 l 5.2399500128282765 2.5992602290860165 a26.849207627999483,26.849207627999483 0 0,0 -0.2089396774167775,0.4122578056556346 l -5.19443166562523 -2.6890722464443457" fill="#ff4b07" stroke="none" /><path d="M 118.64920377521936 109.65438752849418 l 21.782663636258906 11.276528407433744 a45.52844324481389,45.52844324481389 0 0,0 -0.3662817281255532,0.6928669927402684 l -21.58532939990846 -11.649810415260148" fill="#c7ff1e" stroke="none" /><line stroke="#e1ed5e" stroke-width="0.3" x1="174.80103733775053" x2="179.2010983576182" y1="140.37084112569926" y2="142.7455964860345" /><path d="M 175.68104954172406 140.8457921977663 a86.0,86.0 0 0,1 -30.038265399797805,32.042727171017184" fill="none" id="id53" stroke="none" /><text fill="#e1ed5e" style="font-size:6.75px; font-family:Arial;" text-anchor="middle"><textPath startOffset="22.206326154141568" xlink:href="#id53">May</textPath></text><path d="M 118.12598468904814 110.60418214915192 l 5.172012132281857 3.025764374692329 a26.992074728141162,26.992074728141162 0 0,0 -0.2380689735349675,0.3990172933463785 l -5.119162283048662 -3.1143437619248115" fill="#ff4d07" stroke="none" /><path d="M 117.75023020441432 111.22182372390056 l 3.232770046666272 2.04378056993158 a24.82463608630318,24.82463608630318 0 0,0 -0.2314544292444161,0.359222414116094 l -3.1971107540448056 -2.0991245839691266" fill="#ff2f04" stroke="none" /><path d="M 117.55443506779139 111.5257021239791 l 2.27155391293673 1.491432430491875 a23.717411980929846,23.717411980929846 0 0,0 -0.2270060074219742,0.3393431805163023 l -2.245544800104035 -1.5303125252139842" fill="#ff1f03" stroke="none" /><path d="M 116.93607887273984 112.41649034213515 l 7.603154681802285 5.574164916550446 a30.42758058211723,30.42758058211723 0 0,0 -0.31331530869571633,0.41973705725389626 l -7.5060781064114765 -5.704214853313657" fill="#ff7c0b" stroke="none" /><path d="M 116.27256486870786 113.27417163493432 l 2.3526938690814516 1.9191849886369363 a24.036188311390255,24.036188311390255 0 0,0 -0.26428819182914604,0.31835215241460807 l -2.3193096773587625 -1.959398398165315" fill="#ff2403" stroke="none" /><path d="M 116.0416608686014 113.55231037782055 l 1.493564933301758 1.2617930095475844 a22.95521298301025,22.95521298301025 0 0,0 -0.2575984706592606,0.29964521772703445 l -1.4716239530717186 -1.2873153264361468" fill="#ff1402" stroke="none" /><path d="M 115.80600337817218 113.82643327865902 l 0.9786304609841295 0.8560651576189354 a22.300217340776204,22.300217340776204 0 0,0 -0.2552218994654394,0.286744509638201 l -0.9637497118703519 -0.8727838369980029" fill="#ff0b01" stroke="none" /><path d="M 115.56566222782051 114.09645910891815 l 6.18140757830892 5.59796029798529 a29.339481947159218,29.339481947159218 0 0,0 -0.3422291185953009,0.37142211716338897 l -6.084132051717897 -5.703533669950014" fill="#ff6d0a" stroke="none" /><path d="M 115.32070863581623 114.36230785411682 l 8.01261465653442 7.5113783016881195 a31.98284105435298,31.98284105435298 0 0,0 -0.37997663387376,0.3984039814900745 l -7.882131471281696 -7.648189399760701" fill="#ff910d" stroke="none" /><path d="M 114.81725581225074 114.88116024355365 l 2.557047227651937 2.5680753593767527 a24.62401732554916,24.62401732554916 0 0,0 -0.30293409755975687,0.2964847736379957 l -2.512463177716386 -2.6117102359373203" fill="#ff2c04" stroke="none" /><path d="M 114.29624159901734 115.38237550388516 l 2.9539758616967586 3.178399414931233 a25.339146947537305,25.339146947537305 0 0,0 -0.32204903506776406,0.294184157825481 l -2.8988272771621304 -3.2287763393432973" fill="#ff3605" stroke="none" /><path d="M 113.48314897796784 116.09983520530334 l 7.3804264470845995 8.81275210539381 a32.495011709952664,32.495011709952664 0 0,0 -0.43192040197799253,0.35544108583663203 l -7.2276359165619155 -8.938488310087621" fill="#ff970e" stroke="none" /><path d="M 112.92097659922987 116.55440617244103 l 2.720999165745159 3.4861548613363573 a25.422342385795673,25.422342385795673 0 0,0 -0.34728284213747396,0.26628167445092993 l -2.660587595114191 -3.5324758776146585" fill="#ff3705" stroke="none" /><path d="M 112.34349029814194 116.9893568818739 l 13.504849391275087 18.587830540837157 a43.97582210272141,43.97582210272141 0 0,0 -0.6162325085814244,0.4396655328849605 l -13.182889554844778 -18.81754033556634" fill="#d9ff1c" stroke="none" /><path d="M 111.45004920935366 117.60387380957326 l 2.3150305178097885 3.559242790637317 a25.245889252099538,25.245889252099538 0 0,0 -0.3663277085058351,0.23380767576406875 l -2.253421007257023 -3.5985648952251945" fill="#ff3505" stroke="none" /><path d="M 111.1453310114006 117.79835938074945 l 7.890527594912682 12.600652748161679 a35.86730894970011,35.86730894970011 0 0,0 -0.5260893904267472,0.32316707224347585 l -7.672459004553627 -12.734608287233533" fill="#ffc312" stroke="none" /><line stroke="#e1ed5e" stroke-width="0.3" x1="143.8653032363475" x2="146.44561519142675" y1="172.8068346515853" y2="177.08958963109032" /><path d="M 144.38136562736335 173.6633856474863 a86.0,86.0 0 0,1 -40.68145358897372,12.25698825130547" fill="none" id="id54" stroke="none" /><text fill="#e1ed5e" style="font-size:6.75px; font-family:Arial;" text-anchor="middle"><textPath startOffset="21.466115282336833" xlink:href="#id54">June</textPath></text><path d="M 110.21172684928248 118.3499491758327 l 11.182965028817183 20.095214349405385 a43.99731172516249,43.99731172516249 0 0,0 -0.6649401466986001,0.3625783853085156 l -10.835402070249934 -20.28473338647367" fill="#d8ff1c" stroke="none" /><path d="M 109.2508944713604 118.85261126421891 l 3.3568417314067482 6.840985207824181 a28.620201114365887,28.620201114365887 0 0,0 -0.44414099916464117,0.21321467000309852 l -3.238588064241874 -6.897754154326839" fill="#ff6309" stroke="none" /><path d="M 108.59647513512805 119.15986991738527 l 2.9645658906506283 6.6074403675381985 a28.242024518778052,28.242024518778052 0 0,0 -0.4452547820941054,0.1951866116381819 l -2.850390433898769 -6.657491532470835" fill="#ff5e08" stroke="none" /><path d="M 108.2653958097858 119.30500536409082 l 3.6153063865542783 8.44406133613471 a30.185456554633813,30.185456554633813 0 0,0 -0.47941482233665766,0.20039543461841627 l -3.469420104720159 -8.5050418137731" fill="#ff790b" stroke="none" /><path d="M 107.2578585660854 119.70592522655815 l 1.0015032293016721 2.719197070468656 a23.897764901841935,23.897764901841935 0 0,0 -0.3872353305126703,0.13884881234869859 l -0.9545483381592671 -2.7360334238573145" fill="#ff2203" stroke="none" /><path d="M 106.91757812671514 119.82793768551818 l 2.4037858181199105 6.8900003061688055 a28.297279662888126,28.297279662888126 0 0,0 -0.4612864430545937,0.15649340661696737 l -2.2848296421280896 -6.930356699683896" fill="#ff5f08" stroke="none" /><path d="M 105.53697534728816 120.25689768951611 l 4.587960178814878 16.78494739756159 a38.40068497908346,38.40068497908346 0 0,0 -0.6391145906083162,0.16879597220177736 l -4.298355145395065 -16.861434719066953" fill="#ffe215" stroke="none" /><path d="M 103.7750983002368 120.6578951692458 l 0.7243191050419869 3.9635810649223857 a25.029219902678445,25.029219902678445 0 0,0 -0.4244848767424365,0.07380213689924632 l -0.6559852568275004 -3.975461780342638" fill="#ff3204" stroke="none" /><path d="M 101.62511606390274 120.93702456842531 l 0.5171425858801272 6.662556149958329 a27.68259612018251,27.68259612018251 0 0,0 -0.4753988113930721,0.03278628540933335 l -0.40238101370812474 -6.6704707798839475" fill="#ff5708" stroke="none" /><path d="M 101.26447882468166 120.96189622390904 l 0.1723984769260853 2.857935547789314 a23.86313059956479,23.86313059956479 0 0,0 -0.4102321367357279,0.021204315630794855 l -0.12317827177687779 -2.8604796701823103" fill="#ff2103" stroke="none" /><path d="M 100.90346689309514 120.98055641714683 l 0.9886450335120346 22.95858659642875 a43.979863304815495,43.979863304815495 0 0,0 -0.7566204546743146,0.026059538299745732 l -0.5933042271630677 -22.972202933154588" fill="#d9ff1c" stroke="none" /><line stroke="#e1ed5e" stroke-width="0.3" x1="102.19456741930631" x2="102.32365962044197" y1="184.97166512339345" y2="189.96999836594603" /><path d="M 102.22038585953345 185.97133177190398 a86.0,86.0 0 0,1 -42.740103519485714,-10.115201625700543" fill="none" id="id55" stroke="none" /><text fill="#e1ed5e" style="font-size:6.75px; font-family:Arial;" text-anchor="middle"><textPath startOffset="22.20632615414155" xlink:href="#id55">July</textPath></text><path d="M 99.45781275523022 120.99299961872073 l -0.5098066806518811 19.73925346969494 a40.74583577346122,40.74583577346122 0 0,0 -0.7009829151885152,-0.024143268944116992 l 0.8495099475150394 -19.72755340232473" fill="#ffff18" stroke="none" /><path d="M 98.37488393609728 120.93702456842531 l -2.5985717534833994 33.4784461577723 a54.57914430560821,54.57914430560821 0 0,0 -0.9360470930699607,-0.08076608187083358 l 3.174463164294902 -33.428755823622794" fill="#65ff29" stroke="none" /><path d="M 96.58105272829116 120.7198165907248 l -1.4910158972337342 9.0359907507719 a30.1581798002572,30.1581798002572 0 0,0 -0.5114698454472595,-0.08892558868814304 l 1.6463347141530438 -9.00898658356275" fill="#ff780b" stroke="none" /><path d="M 95.86986931433489 120.58985236759428 l -0.6041318357633148 3.011765548267932 a24.07175959227222,24.07175959227222 0 0,0 -0.4055616229602369,-0.08498938129311898 l 0.6558849201529384 -3.0009201862482717" fill="#ff2403" stroke="none" /><path d="M 95.16358092515715 120.4354850818985 l -0.98113804548576 4.145635765126244 a25.260155837688743,25.260155837688743 0 0,0 -0.422261653985488,-0.10378164097463312 l 1.0523529842144586 -4.12813286583758" fill="#ff3505" stroke="none" /><path d="M 94.46302465271185 120.25689768951611 l -1.468671360471691 5.373100586978145 a26.57020695152834,26.57020695152834 0 0,0 -0.44014032644984913,-0.12438805269761709 l 1.5609428550261542 -5.3470237409420065" fill="#ff4706" stroke="none" /><path d="M 93.08242187328487 119.8279376855182 l -3.377785932992744 9.681788592419341 a31.254095189602296,31.254095189602296 0 0,0 -0.5064360592018198,-0.18158995269783823 l 3.5439415528242906 -9.622211098681545" fill="#ff870c" stroke="none" /><path d="M 92.40401165467489 119.57807347666478 l -1.9973067811659702 5.147904017147952 a26.521788672872187,26.521788672872187 0 0,0 -0.424195706709026,-0.1687962261011813 l 2.085623563916854 -5.112760946640704" fill="#ff4706" stroke="none" /><path d="M 91.7346041902142 119.30500536409082 l -2.444414169195942 5.709276329213109 a27.210555275809,27.210555275809 0 0,0 -0.4289929658525251,-0.1880579092885971 l 2.54232780970621 -5.66635386663006" fill="#ff5007" stroke="none" /><path d="M 90.7491055286396 118.85261126421891 l -4.880651842781633 9.946392988571713 a32.07932741160565,32.07932741160565 0 0,0 -0.4936337760583652,-0.24751822298475581 l 5.05113952652276 -9.860906924677654" fill="#ff920d" stroke="none" /><path d="M 90.10565033884886 118.52300852407294 l -4.61861990581666 8.646423344103013 a30.802667314555535,30.802667314555535 0 0,0 -0.46552685424949375,-0.25384235854846404 l 4.766769571934795 -8.565640333794782" fill="#ff810b" stroke="none" /><line stroke="#e1ed5e" stroke-width="0.3" x1="58.666819895761336" x2="56.23545636021788" y1="174.27360380694188" y2="178.64263932499728" /><path d="M 58.180547188652646 175.14741091055294 a86.0,86.0 0 0,1 -31.652253787137756,-30.449443065178592" fill="none" id="id56" stroke="none" /><text fill="#e1ed5e" style="font-size:6.75px; font-family:Arial;" text-anchor="middle"><textPath startOffset="22.20632615414155" xlink:href="#id56">August</textPath></text><path d="M 89.1626897886671 117.98757091392108 l -9.375111598011664 15.560640177930084 a39.166624348573535,39.166624348573535 0 0,0 -0.5744826175142066,-0.3528941448643131 l 9.64157341545818 -15.396957566237393" fill="#ffec16" stroke="none" /><path d="M 88.54995079064634 117.60387380957326 l -1.5147921663862276 2.3289166410751605 a23.778209500455624,23.778209500455624 0 0,0 -0.34118934005471874,-0.22612169010220004 l 1.554656205180908 -2.302496929881642" fill="#ff2003" stroke="none" /><path d="M 88.24862548938628 117.40417183066458 l -3.089060130291741 4.574999567437396 a26.520227670179047,26.520227670179047 0 0,0 -0.37613653475220743,-0.25871013839860396 l 3.1673535496668386 -4.521148639673691" fill="#ff4706" stroke="none" /><path d="M 87.95078237400918 117.19931262002967 l -1.5760028094106218 2.2496203363966853 a23.74673925103926,23.74673925103926 0 0,0 -0.3327626863942402,-0.23741734134499043 l 1.614492823653749 -2.2221587332074755" fill="#ff2003" stroke="none" /><path d="M 87.07902340077011 116.55440617244103 l -2.3527745133993045 3.014383984667291 a24.823880060608595,24.823880060608595 0 0,0 -0.3345815834684875,-0.26581184516357786 l 2.40431358958515 -2.9734382254985823" fill="#ff2f04" stroke="none" /><path d="M 86.79598089348748 116.32954008644616 l -21.26622148154915 26.300144930789973 a54.82232693773242,54.82232693773242 0 0,0 -0.7286928129052521,-0.5996645758668859 l 21.71578442299909 -25.930185236065906" fill="#62ff29" stroke="none" /><path d="M 86.24171649860922 115.8653595955263 l -1.7863376564585505 2.0599146162295416 a23.726582191872808,23.726582191872808 0 0,0 -0.3062510258332143,-0.27023092310160474 l 1.8215310351983525 -2.028860551355648" fill="#ff1f03" stroke="none" /><path d="M 85.97065885151581 115.62618273729859 l -1.360584292832774 1.5154481286243597 a23.036608123438167,23.036608123438167 0 0,0 -0.2927848136619602,-0.26745198541926996 l 1.3864686559615889 -1.491803376618514" fill="#ff1602" stroke="none" /><path d="M 84.9287848128048 114.62390073753433 l -2.0806309350865506 2.018877700850578 a23.899119221251663,23.899119221251663 0 0,0 -0.2839368415959772,-0.2977066432488484 l 2.1150743280614854 -1.9827639410192293" fill="#ff2203" stroke="none" /><path d="M 84.67929136418377 114.36230785411682 l -2.3051457517279905 2.1609452749156803 a24.159648939026297,24.159648939026297 0 0,0 -0.28180918043698416,-0.3058482073752466 l 2.3420013401607034 -2.1209458127390897" fill="#ff2603" stroke="none" /><path d="M 84.43433777217949 114.09645910891817 l -2.0274353080155443 1.8360708652881863 a23.735260526997052,23.735260526997052 0 0,0 -0.2716457056645171,-0.30519683001044157 l 2.0587398633283995 -1.8008998655368806" fill="#ff1f03" stroke="none" /><path d="M 84.19399662182784 113.82643327865904 l -2.5372799955779377 2.219506837293333 a24.37105330375416,24.37105330375416 0 0,0 -0.2734867266990232,-0.3181268489578124 l 2.5751092318477395 -2.1755028891739903" fill="#ff2903" stroke="none" /><path d="M 83.95833913139862 113.55231037782056 l -3.3458649866140275 2.826652498908558 a25.38004302013527,25.38004302013527 0 0,0 -0.27906445029635074,-0.3361511076199564 l 3.3940254368039144 -2.7686401341748406" fill="#ff3705" stroke="none" /><path d="M 83.72743513129214 113.27417163493432 l -6.276126003436359 5.119683002910901 a29.09943897200941,29.09943897200941 0 0,0 -0.31327913908685895,-0.39086389488056744 l 6.363323054578079 -5.010891274452074" fill="#ff6a09" stroke="none" /><path d="M 83.06392112726016 112.41649034213515 l -9.448288896371375 6.9269037250603755 a32.71546662688046,32.71546662688046 0 0,0 -0.3290556025456465,-0.45702945191959693 l 9.56612429129263 -6.76324066768964" fill="#ff9a0e" stroke="none" /><path d="M 82.44556493220864 111.52570212397912 l -5.456820703867678 3.5827806325785665 a27.52787938425175,27.52787938425175 0 0,0 -0.25665832880856093,-0.39833942594484617 l 5.517683896053285 -3.488319606712272" fill="#ff5507" stroke="none" /><path d="M 82.24976979558568 111.22182372390057 l -53.25069061324296 33.6654711717017 a84.0,84.0 0 0,0 -0.7621414413281764,-1.2288146745389432 l 53.82229669423909 -32.743860165797486" fill="#4dd2ff" stroke="none" /><line stroke="#e1ed5e" stroke-width="0.3" x1="26.63291911575756" x2="22.317208475507996" y1="142.92168965132927" y2="145.44649492493687" /><path d="M 25.769776987707644 143.4266507060508 a86.0,86.0 0 0,1 -11.730757126820373,-40.83630448921669" fill="none" id="id57" stroke="none" /><text fill="#e1ed5e" style="font-size:6.75px; font-family:Arial;" text-anchor="middle"><textPath startOffset="21.46611528233685" xlink:href="#id57">September</textPath></text><path d="M 81.35079622478065 109.6543875284942 l -8.93414057593412 4.625058334593579 a31.060319698148064,31.060319698148064 0 0,0 -0.24171041723500852,-0.47691758427790354 l 9.012429662955395 -4.470586538612991" fill="#ff840c" stroke="none" /><path d="M 81.18737489456691 109.33194174019688 l -5.087109427860088 2.523444152038438 a26.67859601657663,26.67859601657663 0 0,0 -0.20052997615753107,-0.41315114590148955 l 5.129792660632337 -2.4355040501716636" fill="#ff4906" stroke="none" /><path d="M 80.87730276802145 108.67885076344099 l -8.701046848342324 3.948976766530043 a30.55524116700578,30.55524116700578 0 0,0 -0.21324490481954803,-0.4808109653573296 l 8.767732837893153 -3.7986174646800177" fill="#ff7e0b" stroke="none" /><path d="M 80.58989483394504 108.01547362559985 l -21.47498771571189 8.868174395386584 a44.234018475007005,44.234018475007005 0 0,0 -0.28456667889827886,-0.7062711598820417 l 21.62445700886756 -8.497203867661735" fill="#d6ff1c" stroke="none" /><path d="M 80.45479744820244 107.68017299344265 l -3.9627333121698256 1.5571328710299397 a25.25768928897147,25.25768928897147 0 0,0 -0.15552208139589357,-0.4060190790574925 l 3.988949673159228 -1.4886902251392895" fill="#ff3505" stroke="none" /><path d="M 80.32549172779594 107.34259656027581 l -2.9262887862381435 1.092101397347849 a24.123435852159,24.123435852159 0 0,0 -0.14184090804468558,-0.3902852606929827 l 2.9446539552880533 -1.0415683396487494" fill="#ff2503" stroke="none" /><path d="M 80.20201598880116 107.00284435728193 l -5.904233158972781 2.0884159638679156 a27.262703125141098,27.262703125141098 0 0,0 -0.15268304098996635,-0.44376838646409333 l 5.939307030905977 -1.9864748743145255" fill="#ff5107" stroke="none" /><path d="M 80.0844068197444 106.66101706037122 l -12.686742548588004 4.243238340521154 a34.37753744560717,34.37753744560717 0 0,0 -0.18286844398349406,-0.5628111995168571 l 12.757903243587748 -4.024228241026494" fill="#ffb010" stroke="none" /><path d="M 79.86692584326677 105.97154293290107 l -6.848701894657094 2.0313498614372434 a28.143605525324084,28.143605525324084 0 0,0 -0.13375900266667945,-0.4656326358153048 l 6.882653534209878 -1.9131597501173425" fill="#ff5d08" stroke="none" /><path d="M 79.76711848015287 105.62410040840567 l -24.621823385466087 6.844087275559674 a46.55534616201789,46.55534616201789 0 0,0 -0.20797364666826026,-0.773947307348182 l 24.73598510847612 -6.419249035035953" fill="#bbff1f" stroke="none" /><path d="M 79.29508885075956 103.50808413554451 l -2.199220516041973 0.3726193533157897 a23.230564067819035,23.230564067819035 0 0,0 -0.0634064370269059,-0.3948319438927201 l 2.20530870743017 -0.33470817972985595" fill="#ff1802" stroke="none" /><path d="M 79.04373962182676 101.35467743843564 l -22.984871222000628 1.4858131130219867 a44.03284493280803,44.03284493280803 0 0,0 -0.04238402270931011,-0.7567951974507727 l 23.007041595597467 -1.0899461992357766" fill="#d8ff1c" stroke="none" /><line stroke="#e1ed5e" stroke-width="0.3" x1="15.007084014347285" x2="10.007500721073583" y1="101.09737516637583" y2="101.16192664675087" /><path d="M 14.007167355692545 101.11028546245083 a86.0,86.0 0 0,1 10.666146001902534,-42.60595125391555" fill="none" id="id58" stroke="none" /><text fill="#e1ed5e" style="font-size:6.75px; font-family:Arial;" text-anchor="middle"><textPath startOffset="22.20632615414155" xlink:href="#id58">October</textPath></text><path d="M 79.00175016825051 100.2711162175752 l -2.82655536156444 0.036494708108271795 a23.826790950124998,23.826790950124998 0 0,0 -0.0017651144411216443,-0.4101504330139348 l 2.8267647732950647 0.012165203109338387" fill="#ff2103" stroke="none" /><path d="M 79.01574976396665 99.18683210126434 l -2.7018753756536316 -0.10470130203142211 a23.703903272717152,23.703903272717152 0 0,0 0.019308964560873783,-0.4075817238790795 l 2.6996728028592587 0.15119413253351072" fill="#ff1f03" stroke="none" /><path d="M 79.03285615573316 98.82574320788736 l -4.30390126197309 -0.24103832772797965 a25.3106456068955,25.3106456068955 0 0,0 0.028106156992835665,-0.43478980859961325 l 4.299114513975842 0.3150872005806047" fill="#ff3605" stroke="none" /><path d="M 79.05617556472873 98.46500227214037 l -4.096033453259648 -0.30020314882902 a25.107019841781753,25.107019841781753 0 0,0 0.03529989145632072,-0.4307480871134348 l 4.09025907798383 0.37066515315023324" fill="#ff3304" stroke="none" /><path d="M 79.26566170972629 96.67025291283419 l -11.12306097986758 -1.7862629315474932 a32.26557680824526,32.26557680824526 0 0,0 0.092783720020295,-0.5476147677450398 l 11.090665398327062 1.977463487608361" fill="#ff940d" stroke="none" /><path d="M 79.3925641242962 95.95851677861259 l -4.2579635674792415 -0.8350620823978916 a25.339076217749493,25.339076217749493 0 0,0 0.08762578837126593,-0.4272944637636225 l 4.2429584831929805 0.9082322023249166" fill="#ff3605" stroke="none" /><path d="M 79.46518482838121 95.60439243477599 l -23.15336671772064 -4.956125149131092 a44.67787082613434,44.67787082613434 0 0,0 0.16744758146736594,-0.7506346745470092 l 23.064624749251237 5.35393799322806" fill="#d1ff1d" stroke="none" /><path d="M 79.62865764111835 94.90015583598534 l -1.6543768863879411 -0.41416339485590253 a22.705430795973037,22.705430795973037 0 0,0 0.09817792393996376,-0.37831959023637485 l 1.6470026305776702 0.4425794106411412" fill="#ff1101" stroke="none" /><path d="M 79.71946130924805 94.55025226153421 l -0.5252692137806161 -0.1411493429014275 a21.543903377400078,21.543903377400078 0 0,0 0.09932070764630424,-0.35730942983728164 l 0.522761735567951 0.15017007615765168" fill="#ff0000" stroke="none" /><path d="M 80.14247586403 93.16781622104843 l -21.711273603002187 -7.469985196297235 a43.96040244197212,43.96040244197212 0 0,0 0.252347194320984,-0.7134194997840715 l 21.57947332787139 7.842602322507918" fill="#d9ff1c" stroke="none" /><path d="M 80.52162464483688 92.15188598940014 l -5.266064984306324 -2.1217723568053524 a26.67744294141654,26.67744294141654 0 0,0 0.17528136072601486,-0.424457718190861 l 5.2287619366941085 2.2121046454495246" fill="#ff4906" stroke="none" /><path d="M 80.95270993114464 91.15688171328213 l -2.7656848726129946 -1.2840292967603613 a24.049220236312763,24.049220236312763 0 0,0 0.17755402581597285,-0.37397406029043456 l 2.7431726529552702 1.331445772691328" fill="#ff2403" stroke="none" /><path d="M 81.10775173730289 90.83032412892265 l -21.383210358457596 -10.378706935440576 a44.76887130020714,44.76887130020714 0 0,0 0.34246051932169547,-0.6903795097283862 l 21.20138982618249 10.745246033667923" fill="#d0ff1d" stroke="none" /><line stroke="#e1ed5e" stroke-width="0.3" x1="26.266209847984243" x2="21.928928074336255" y1="57.711370442889674" y2="55.22380399835377" /><path d="M 25.398753493254645 57.213857153982495 a86.0,86.0 0 0,1 29.58750427330803,-30.492523968695096" fill="none" id="id59" stroke="none" /><text fill="#e1ed5e" style="font-size:6.75px; font-family:Arial;" text-anchor="middle"><textPath startOffset="21.46611528233685" xlink:href="#id59">November</textPath></text><path d="M 82.34701348167596 88.62581576622439 l -20.3220721543808 -13.09393129916428 a45.1751453669899,45.1751453669899 0 0,0 0.42680480185742176,-0.6500529946232064 l 20.093670717165455 13.441802357765154" fill="#cbff1d" stroke="none" /><path d="M 82.95767976084542 87.72973835380427 l -4.593792166334193 -3.3074740433325562 a26.660592814784685,26.660592814784685 0 0,0 0.27135073605094645,-0.37012209902340354 l 4.536178817769613 3.3860585860274606" fill="#ff4906" stroke="none" /><path d="M 83.84228863543731 86.58626213691792 l -8.835234093483319 -7.334795839271909 a32.48305671371741,32.48305671371741 0 0,0 0.36085487489552787,-0.4271383523896631 l 8.707668605100666 7.485793141290688" fill="#ff970d" stroke="none" /><path d="M 84.80347519578584 85.50635884689758 l -2.0474521107912715 -1.9527514714246754 a23.829363613100103,23.829363613100103 0 0,0 0.28565249498237494,-0.2943900056425351 l 2.0135353521057784 1.9877056726173343" fill="#ff2103" stroke="none" /><path d="M 85.05521093208273 85.24692304244772 l -2.6325261159089357 -2.5987560081490826 a24.69915213810321,24.69915213810321 0 0,0 0.3012875497144287,-0.299993725227087 l 2.5874027660271937 2.643685584026279" fill="#ff2d04" stroke="none" /><path d="M 85.31137513191541 84.99185889309783 l -15.495949274612414 -15.833026943461476 a43.15421373269063,43.15421373269063 0 0,0 0.5353521802903142,-0.5150083732803001 l 15.221113850709672 16.09741840350409" fill="#e2ff1b" stroke="none" /><path d="M 85.57189188830299 84.74124197986013 l -14.403136811501357 -15.232349081131089 a41.96365446529447,41.96365446529447 0 0,0 0.5291259461698455,-0.4917649007360528 l 14.138802981536656 15.47801856794179" fill="#f0ff19" stroke="none" /><path d="M 86.65592168130627 83.78471172551755 l -3.633966401058731 -4.415877317686423 a26.718888378774427,26.718888378774427 0 0,0 0.3576470817813312,-0.2891924007797908 l 3.5574159207128995 4.477775815730348" fill="#ff4906" stroke="none" /><path d="M 87.22198572758235 83.33499621200491 l -10.737125789703835 -14.003290193832212 a38.64590622429465,38.64590622429465 0 0,0 0.5313882887503647,-0.4002306422522158 l 10.494491347195082 14.186037425590284" fill="#ffe515" stroke="none" /><path d="M 89.00827224532344 82.1063720568725 l -12.385040029722719 -20.161825629124696 a44.66196165234538,44.66196165234538 0 0,0 0.6585255964142291,-0.3967543035463885 l 12.036152367090839 20.372026542129703" fill="#d1ff1d" stroke="none" /><line stroke="#e1ed5e" stroke-width="0.3" x1="56.762969772571076" x2="54.21961505331055" y1="26.818313649435495" y2="22.513508569990535" /><path d="M 56.25429882871897 25.957352633546506 a86.0,86.0 0 0,1 42.265352541879196,-11.944610805530505" fill="none" id="id60" stroke="none" /><text fill="#e1ed5e" style="font-size:6.75px; font-family:Arial;" text-anchor="middle"><textPath startOffset="22.20632615414155" xlink:href="#id60">December</textPath></text><path d="M 89.63071344664047 81.73862282372117 l -11.338757090397232 -19.96871422854684 a43.963383032480266,43.963383032480266 0 0,0 0.6612844601361562,-0.36800408610827956 l 10.99334854118903 20.160933712215304" fill="#d9ff1c" stroke="none" /><path d="M 91.56875222667455 80.76684994638697 l -8.423696137059926 -19.21592345117529 a41.98119087875964,41.98119087875964 0 0,0 0.6643348379198663,-0.2844335073768713 l 8.091677541349751 19.358076486514946" fill="#f0ff19" stroke="none" /><path d="M 91.90106846888425 80.62456947434976 l -3.5851249224437596 -8.576852217321633 a30.295994549659675,30.295994549659675 0 0,0 0.48288371726826673,-0.1969803927617959 l 3.4369573355871124 8.637293496267006" fill="#ff7a0b" stroke="none" /><path d="M 93.94186890950719 79.89281104454417 l -1.6518684146926306 -5.482619944606069 a26.7260624094094,26.7260624094094 0 0,0 0.4416288141809243,-0.12892356111887232 l 1.557249382788285 5.51024183464364" fill="#ff4906" stroke="none" /><path d="M 94.28887869178378 79.79150937346287 l -1.6290448235288872 -5.764286077960145 a26.990056846611008,26.990056846611008 0 0,0 0.4481661805897609,-0.12250074673073379 l 1.5295807537154038 5.791473365517175" fill="#ff4d07" stroke="none" /><path d="M 94.98787191387505 79.60689891045804 l -1.1954059158681958 -4.863808998182269 a26.0085560069237,26.0085560069237 0 0,0 0.4356759018830504,-0.10311040985188114 l 1.1115063270226113 4.883665320175021" fill="#ff4006" stroke="none" /><path d="M 96.40284397218896 79.31037775812273 l -4.280491674557784 -24.61993727027555 a45.989276103326034,45.989276103326034 0 0,0 0.7810967436605367,-0.12888765539914504 l 3.856065724758362 24.689971188614322" fill="#c2ff1e" stroke="none" /><path d="M 96.75951476605007 79.25152402106235 l -3.7403016230749317 -23.94874618384114 a45.23906557624742,45.23906557624742 0 0,0 0.770423483166123,-0.11354039463199393 l 3.32750915948016 24.009581062634105" fill="#caff1d" stroke="none" /><path d="M 98.55514903715128 79.0497635885617 l -1.0180488474283191 -14.761636030586764 a35.796699691325344,35.796699691325344 0 0,0 0.6150860845200542,-0.0371036723454832 l 0.7638007140686421 14.776972972312555" fill="#ffc212" stroke="none" /><path d="M 99.63851952072746 79.00311137660856 l -0.1984460461843979 -11.5269005338035 a32.52860862157466,32.52860862157466 0 0,0 0.5599265254569308,-0.004819464379720655 l 2.8236947294067978e-15 11.528608621574662" fill="#ff980e" stroke="none" /></svg>