<?xml version="1.0" encoding="utf-8" ?>
<svg baseProfile="full" height="200mm" version="1.1" viewBox="0,0,200,200" width="200mm" xmlns="http://www.w3.org/2000/svg" xmlns:ev="http://www.w3.org/2001/xml-events" xmlns:xlink="http://www.w3.org/1999/xlink"><defs /><rect fill="#1a1a1a" height="200" width="200" x="0" y="0" /><text alignment-baseline="middle" fill="#e1ed5e" style="dominant-baseline: central; font-size:9.0px; font-family:Arial;" text-anchor="middle" x="100.0" y="100.0">2024</text><line stroke="#e1ed5e" stroke-width="0.3" x1="100.0" x2="100.0" y1="15.0" y2="10.0" /><path d="M 100.0 14.0 a86.0,86.0 0 0,1 42.35913384403234,11.155469271406648" fill="none" id="id121" stroke="none" /><text fill="#e1ed5e" style="font-size:6.75px; font-family:Arial;" text-anchor="middle"><textPath startOffset="22.145653131862478" xlink:href="#id121">January</textPath></text><path d="M 100.0 79.0 l 0.0 -8.889125963154783 a29.889125963154783,29.889125963154783 0 0,0 0.5130865923635005,0.004404231305410656 l -0.15259366751464576 8.887816130043808" fill="#ff720a" stroke="none" /><path d="M 101.08105385017728 79.02784411241856 l 0.4263774462866784 -8.271608550311102 a29.28259052086252,29.28259052086252 0 0,0 0.5017859801487999,0.030186198521243008 l -0.5683077785679407 8.263070373965167" fill="#ff6909" stroke="none" /><path d="M 102.15924093988457 79.11130261209362 l 0.904873048067906 -8.75382590540054 a29.80046948833875,29.80046948833875 0 0,0 0.5084018253863167,0.05696748495926564 l -1.0550107750550193 8.737002659934303" fill="#ff700a" stroke="none" /><path d="M 104.9986988182912 79.60360301121754 l 1.9817532784334762 -8.086229650973069 a29.325530374988602,29.325530374988602 0 0,0 0.4879135755418539,0.12402572293154422 l -2.1202721472007244 8.051018696206256" fill="#ff6a09" stroke="none" /><path d="M 106.04205211174951 79.88797359093562 l 2.39904394096977 -7.985637032733072 a29.338213876440303,29.338213876440303 0 0,0 0.4810899411032258,0.1490428935236685 l -2.535774514944626 7.9432775514027565" fill="#ff6a09" stroke="none" /><path d="M 106.38641147887787 79.99465700312896 l 2.9399963279453547 -9.209496623356056 a30.667388813114883,30.667388813114883 0 0,0 0.500137303057516,0.1644050655041155 l -3.0976563686506133 9.15767063644992" fill="#ff7c0b" stroke="none" /><path d="M 106.72888874123014 80.10723608172694 l 2.680155192511498 -7.923402594291974 a29.364421111301077,29.364421111301077 0 0,0 0.47611504264940124,0.16561752681611774 l -2.8157760072059177 7.876226634907266" fill="#ff6a09" stroke="none" /><path d="M 107.06938296918511 80.22567764915836 l 0.3389769073561795 -0.948178739894344 a22.0069499821284,22.0069499821284 0 0,0 0.35463764823606275,0.1302278566755533 l -0.35520370724636696 0.9422200342100688" fill="#ff0300" stroke="none" /><path d="M 107.40779381753099 80.34994680014964 l 2.9506008733383116 -7.826819369001724 a29.364517137810488,29.364517137810488 0 0,0 0.47015072191505264,0.1818643992245774 l -3.0845238577468903 7.775015081639109" fill="#ff6a09" stroke="none" /><path d="M 107.74402155503746 80.48000691201159 l 3.0846920600780385 -7.775439061391497 a29.364973263730207,29.364973263730207 0 0,0 0.46696675327070075,0.18991131330585206 l -3.217713274539179 7.721340491506352" fill="#ff6b09" stroke="none" /><path d="M 108.4095320186766 80.7573450057729 l 3.910515609962412 -8.948024998885503 a30.76520781737079,30.76520781737079 0 0,0 0.48211512147894636,0.21564396158075527 l -4.06354413429699 8.879577286394895" fill="#ff7d0b" stroke="none" /><path d="M 108.73861861582097 80.90454125486305 l 10.912430505570741 -23.845630034824868 a47.22394347341095,47.22394347341095 0 0,0 0.7342452628363216,0.3436638572241318 l -11.320164482278567 23.654789946030203" fill="#b5ff1f" stroke="none" /><path d="M 109.3889696526874 81.21577127319529 l 4.760681327893676 -9.524551709780738 a31.64805954050045,31.64805954050045 0 0,0 0.48387287638297893,0.24706893841189306 l -4.923481425990233 9.441424819696012" fill="#ff890c" stroke="none" /><path d="M 110.02825361518725 81.54914285379988 l 4.0124358751439155 -7.3824300801936245 a29.40237558914677,29.40237558914677 0 0,0 0.4413937993569393,0.24483369993398718 l -4.138573862656956 7.312463464826491" fill="#ff6b09" stroke="none" /><path d="M 110.34350942703115 81.72400993836675 l 4.098855642860329 -7.2422851761721665 a29.321737327866764,29.321737327866764 0 0,0 0.4359270118656642,0.25168257764767044 l -4.222575122586391 7.170855701248325" fill="#ff6a09" stroke="none" /><line stroke="#e1ed5e" stroke-width="0.3" x1="143.13028292997686" x2="145.6673583964461" y1="26.7553504044142" y2="22.446841604673864" /><path d="M 143.63769802327073 25.89364864446614 a86.0,86.0 0 0,1 29.32050498858742,28.57503671076993" fill="none" id="id122" stroke="none" /><text fill="#e1ed5e" style="font-size:6.75px; font-family:Arial;" text-anchor="middle"><textPath startOffset="20.669276256404974" xlink:href="#id122">February</textPath></text><path d="M 110.96478420261332 82.08984904055464 l 4.328391650421787 -7.070102469703014 a29.289832520114125,29.289832520114125 0 0,0 0.4265657831615482,0.2662085973617226 l -4.449121562373048 6.994758075499745" fill="#ff6909" stroke="none" /><path d="M 111.8722381534696 82.67804972795209 l 4.730735296879628 -6.902284177884568 a29.367878065639964,29.367878065639964 0 0,0 0.4133947103816006,0.28858161369751023 l -4.848525098434989 6.820057748381931" fill="#ff6b09" stroke="none" /><path d="M 112.16784306229584 82.88440491214696 l 4.813221654509141 -6.770399033328819 a29.306949245417087,29.306949245417087 0 0,0 0.4075326527461001,0.2950222125661725 l -4.928735317629209 6.686776049389572" fill="#ff6a09" stroke="none" /><path d="M 112.7482090630111 83.31218511350987 l 5.82899765342214 -7.630345041668013 a30.602050775668104,30.602050775668104 0 0,0 0.4147161583106196,0.3224857930905959 l -5.959123756367985 7.529158196956626" fill="#ff7b0b" stroke="none" /><path d="M 113.03279911837588 83.53348406188908 l 5.3660793882894104 -6.779866011120364 a29.64646697386682,29.64646697386682 0 0,0 0.39634394117149285,0.31926662329225497 l -5.481674099816163 6.686751094034701" fill="#ff6e0a" stroke="none" /><path d="M 113.31354834802062 83.75963576809568 l 1.617918512734424 -1.9735975156656478 a23.55200851638281,23.55200851638281 0 0,0 0.31046668758916407,0.2590023529172609 l -1.6515595344854808 1.9455329788365165" fill="#ff1902" stroke="none" /><path d="M 113.86319453409587 84.22622945171908 l 7.411244816218694 -8.432636137410611 a32.2265712464622,32.2265712464622 0 0,0 0.4124003218805998,0.3687709108122084 l -7.55491016492267 8.304169696715016" fill="#ff910d" stroke="none" /><path d="M 114.13192950727249 84.46653392183569 l 6.592122693404981 -7.2458976099765895 a30.79587228271017,30.79587228271017 0 0,0 0.38798433202012184,0.35911250544807577 l -6.715536796739068 7.131667358396139" fill="#ff7e0b" stroke="none" /><path d="M 114.39649973595853 84.71141617570332 l 5.669409477026094 -6.020716397283664 a29.269899017201702,29.269899017201702 0 0,0 0.36284571667245064,0.34759798867003455 l -5.7719276795638566 5.92250627830805" fill="#ff6909" stroke="none" /><path d="M 114.91283532996326 85.21462403516908 l 5.842240409239303 -5.792307030573482 a29.226943158657388,29.226943158657388 0 0,0 0.35018498384443725,0.35932064303768046 l -5.940812194234552 5.691163695468059" fill="#ff6909" stroke="none" /><path d="M 115.16444852881244 85.47280134310134 l 8.756515539374314 -8.388543806325456 a33.126179595484516,33.126179595484516 0 0,0 0.3898543827442351,0.41401184448796813 l -8.89922575585481 8.236990501892993" fill="#ff9d0e" stroke="none" /><path d="M 116.1254893667686 86.54754324733833 l 1.934769675447023 -1.6140536757259354 a23.5196235760831,23.5196235760831 0 0,0 0.2559754656487599,0.3122484470629641 l -1.9621919603344105 1.5806029469644762" fill="#ff1902" stroke="none" /><path d="M 116.35404254752997 86.82634096563983 l 6.429960457239979 -5.179520991333832 a29.256623352275284,29.256623352275284 0 0,0 0.3116994652371456,0.3938220919089672 l -6.517926353118683 5.068378955510187" fill="#ff6909" stroke="none" /><path d="M 116.57777611688842 87.10902102172516 l 0.634020773892738 -0.4930183886193601 a21.80314972031644,21.80314972031644 0 0,0 0.22721791446377396,0.2974355438261226 l -0.6423906657108187 0.48206193155235555" fill="#ff0000" stroke="none" /><path d="M 116.7966241395341 87.39550010848427 l 5.8898953344266936 -4.419887263481951 a28.36384888983956,28.36384888983956 0 0,0 0.28890333306505844,0.39195285679440306 l -5.964900687075578 4.318128097418673" fill="#ff5d08" stroke="none" /><path d="M 117.21940702142032 87.97951657250589 l 6.797710734046385 -4.745330029184914 a29.29017661510619,29.29017661510619 0 0,0 0.28426850498335265,0.4147562442379103 l -6.878168975845062 4.6279390498769555" fill="#ff6909" stroke="none" /><path d="M 117.62189284568427 88.57770195909679 l 8.326377306443973 -5.397057173600295 a30.922539250835726,30.922539250835726 0 0,0 0.2849030607162248,0.4479149325864882 l -8.417798058786088 5.253328566335136" fill="#ff800b" stroke="none" /><path d="M 117.81537515405839 88.88188828441811 l 9.69507531773444 -6.050444042936537 a32.428138891930296,32.428138891930296 0 0,0 0.29066736155004635,0.4747832905917322 l -9.797510643739889 5.88312363622025" fill="#ff940d" stroke="none" /><line stroke="#e1ed5e" stroke-width="0.3" x1="172.87174338648825" x2="177.1583165268699" y1="56.24261187166439" y2="53.66864786411523" /><path d="M 173.72905801456457 55.72781907015455 a86.0,86.0 0 0,1 12.242430191666344,42.057860355516425" fill="none" id="id123" stroke="none" /><text fill="#e1ed5e" style="font-size:6.75px; font-family:Arial;" text-anchor="middle"><textPath startOffset="22.145653131862474" xlink:href="#id123">March</textPath></text><path d="M 118.36410011445183 89.81374322990088 l 4.061056362703966 -2.252599507219697 a25.643962028374563,25.643962028374563 0 0,0 0.21022511035582317,0.38679052490706906 l -4.099126822675131 2.1825541488380247" fill="#ff3705" stroke="none" /><path d="M 118.53625476483649 90.13048839642627 l 15.71675582145093 -8.368287225130459 a38.8057475168383,38.8057475168383 0 0,0 0.3080288089739298,0.5906858563283645 l -15.858092699399805 8.097255125697597" fill="#ffe515" stroke="none" /><path d="M 118.70294669586156 90.45014215332178 l 2.854793645702755 -1.4576779767058907 a24.205412897477984,24.205412897477984 0 0,0 0.18578240721720202,0.37168926513522577 l -2.8793959661316944 1.4084568554069143" fill="#ff2303" stroke="none" /><path d="M 118.8641267826498 90.77261029715802 l 7.443496561199411 -3.6409871664519815 a29.286279539265827,29.286279539265827 0 0,0 0.21702631207114262,0.4535015222474194 l -7.504902131230465 3.512673142139459" fill="#ff6909" stroke="none" /><path d="M 119.0197475246899 91.09779779509293 l 18.912110720419737 -8.85182274560778 a41.88115652498861,41.88115652498861 0 0,0 0.29918210040883436,0.6537668831658399 l -19.061277285683623 8.525866880227257" fill="#f3ff19" stroke="none" /><path d="M 119.16976305983485 91.42560881287824 l 3.764593205991022 -1.6838546573473383 a25.124018490945947,25.124018490945947 0 0,0 0.17271700084151057,0.39521029843868444 l -3.7929440888495027 1.6189822891328045" fill="#ff3004" stroke="none" /><path d="M 119.31412917781788 91.75594674310238 l 3.680228824333958 -1.570870845175048 a25.00146465830694,25.00146465830694 0 0,0 0.16509795223055607,0.396174983554161 l -3.706652621100997 1.5074633521796093" fill="#ff2e04" stroke="none" /><path d="M 119.58574465831526 92.42381321644754 l 11.364570406636867 -4.396059972065403 a33.18518788551913,33.18518788551913 0 0,0 0.20095893575670365,0.5330674524524842 l -11.438360026208011 4.200324239418761" fill="#ff9d0e" stroke="none" /><path d="M 119.71291397450082 92.76114493625339 l 15.944436639313833 -5.855017987415865 a37.985473069009785,37.985473069009785 0 0,0 0.21951955011692387,0.6140352510601389 l -16.0425963594747 5.58044777997481" fill="#ffdb14" stroke="none" /><path d="M 119.94978838288452 93.4421083053983 l 12.66778237600158 -4.164151681121282 a34.33464920982631,34.33464920982631 0 0,0 0.1792518583241657,0.5615038931427574 l -12.737398950103003 3.946078754287138" fill="#ffac10" stroke="none" /><path d="M 120.26092885502905 94.47779374421319 l 2.857757415379673 -0.7788944914444867 a23.962001700532948,23.962001700532948 0 0,0 0.10476018176589838,0.3977914736694257 l -2.8707070779503017 0.7297225134022625" fill="#ff1f03" stroke="none" /><path d="M 120.43855184770803 95.1765574152323 l 8.00797200217503 -1.8898595879360232 a29.22795143700623,29.22795143700623 0 0,0 0.11105109826633777,0.48931162926423283 l -8.039233961999035 1.7521136247327642" fill="#ff6909" stroke="none" /><path d="M 120.51834098615036 95.52812308129327 l 8.069304564130748 -1.7586673725087267 a29.258727933273263,29.258727933273263 0 0,0 0.10274312267460065,0.4916630354270635 l -8.098305397629716 1.6198878857962586" fill="#ff6909" stroke="none" /><path d="M 120.65975698304385 96.23510406497455 l 9.91990984059658 -1.8077380225398256 a31.08327962538484,31.08327962538484 0 0,0 0.09115568803186856,0.525761784886385 l -9.949480346120682 1.6371832047328478" fill="#ff820b" stroke="none" /><path d="M 120.86939407059847 97.66154086499901 l 4.970347033709628 -0.5569377522789771 a26.00145271850286,26.00145271850286 0 0,0 0.04589579258457052,0.44400015994901454 l -4.979175218775865 0.47153307004703116" fill="#ff3c05" stroke="none" /><path d="M 120.93736805541906 98.37931529534042 l 4.934668811893389 -0.38197457506729554 a25.949430357028085,25.949430357028085 0 0,0 0.03056600557408856,0.4444230127311569 l -4.940498778632544 0.29720813818180447" fill="#ff3b05" stroke="none" /><path d="M 120.98066250479742 99.09900007780936 l 3.0760468304662743 -0.13209868631513186 a24.078881966907435,24.078881966907435 0 0,0 0.014189700052687075,0.41311763471317764 l -3.0778612175158093 0.07927478703783428" fill="#ff2103" stroke="none" /><path d="M 120.99303781780057 99.45929381324524 l 3.9647720051514876 -0.10211846283817602 a24.966086891797175,24.966086891797175 0 0,0 0.007357349354454013,0.42852871506345513 l -3.9659407861046074 0.034042831805654504" fill="#ff2d04" stroke="none" /><line stroke="#e1ed5e" stroke-width="0.3" x1="184.99686870605535" x2="189.99668451229388" y1="99.2704041080226" y2="99.22748670261217" /><path d="M 185.99683186730306 99.26182062694052 a86.0,86.0 0 0,1 -10.086455211305974,41.156179273409016" fill="none" id="id124" stroke="none" /><text fill="#e1ed5e" style="font-size:6.75px; font-family:Arial;" text-anchor="middle"><textPath startOffset="21.40746469413373" xlink:href="#id124">April</textPath></text><path d="M 120.99922638620191 99.81974689727618 l 62.99767915860572 -0.5407593081714844 a84.0,84.0 0 0,0 0.0,1.442024821790615 l -62.99767915860572 -0.5407593081714768" fill="#4dd2ff" stroke="none" /><path d="M 120.99922638620191 100.18025310272382 l 14.342975320944314 0.12311719281193394 a35.343503717724744,35.343503717724744 0 0,0 -0.010415509061898033,0.6066511864529756 l -14.338748380283748 -0.3693152952339806" fill="#ffb911" stroke="none" /><path d="M 120.99303781780057 100.54070618675476 l 6.649703025338202 0.17127276181217663 a27.651908349047723,27.651908349047723 0 0,0 -0.016295286712095163,0.4744194929052028 l -6.645783051629261 -0.2853985192814901" fill="#ff5307" stroke="none" /><path d="M 120.98066250479742 100.90099992219065 l 5.329952241313342 0.22889108261500712 a26.334864761395718,26.334864761395718 0 0,0 -0.023273011040362813,0.451490196748173 l -5.325237640816407 -0.32035307273991076" fill="#ff4106" stroke="none" /><path d="M 120.86939407059847 102.33845913500097 l 8.115426011730245 0.9093504117731653 a29.166214393662457,29.166214393662457 0 0,0 -0.060023949418926685,0.49708440722377556 l -8.098619976051655 -1.0485284959203494" fill="#ff6809" stroke="none" /><path d="M 120.82617615685814 102.69636545807757 l 5.7930851330758415 0.7500308520815333 a26.841436607388502,26.841436607388502 0 0,0 -0.06308438476715895,0.4564471827240323 l -5.779356231753472 -0.8493663430056506" fill="#ff4806" stroke="none" /><line stroke="#e1ed5e" stroke-width="0.3" x1="174.33088141563837" x2="178.70328620479359" y1="141.23008692659167" y2="143.65538615756765" /><path d="M 175.20536237346943 141.71514677278685 a86.0,86.0 0 0,1 -30.301960400862466,31.631185727798858" fill="none" id="id125" stroke="none" /><text fill="#e1ed5e" style="font-size:6.75px; font-family:Arial;" text-anchor="middle"><textPath startOffset="22.145653131862474" xlink:href="#id125">May</textPath></text><line stroke="#e1ed5e" stroke-width="0.3" x1="143.1302829299769" x2="145.66735839644613" y1="173.24464959558577" y2="177.55315839532614" /><path d="M 143.63769802327073 174.10635135553383 a86.0,86.0 0 0,1 -40.68552437913181,11.842963189579606" fill="none" id="id126" stroke="none" /><text fill="#e1ed5e" style="font-size:6.75px; font-family:Arial;" text-anchor="middle"><textPath startOffset="21.407464694133747" xlink:href="#id126">June</textPath></text><line stroke="#e1ed5e" stroke-width="0.3" x1="101.45913802915013" x2="101.54496967792366" y1="184.9874750549273" y2="189.98673829345242" /><path d="M 101.47630435890484 185.9873277026323 a86.0,86.0 0 0,1 -42.54439059252881,-10.42667462771756" fill="none" id="id127" stroke="none" /><text fill="#e1ed5e" style="font-size:6.75px; font-family:Arial;" text-anchor="middle"><textPath startOffset="22.145653131862474" xlink:href="#id127">July</textPath></text><line stroke="#e1ed5e" stroke-width="0.3" x1="58.13341422392154" x2="55.67067388415222" y1="173.97424548756322" y2="178.32567169271397" /><path d="M 57.64086615596768 174.84453072859336 a86.0,86.0 0 0,1 -31.369924170532247,-30.572349798747897" fill="none" id="id128" stroke="none" /><text fill="#e1ed5e" style="font-size:6.75px; font-family:Arial;" text-anchor="middle"><textPath startOffset="22.145653131862474" xlink:href="#id128">August</textPath></text><line stroke="#e1ed5e" stroke-width="0.3" x1="26.387840678322732" x2="22.057713659400548" y1="142.50000000000003" y2="145.00000000000006" /><path d="M 25.521815274538298 143.00000000000003 a86.0,86.0 0 0,1 -11.493303480769221,-40.785679425670985" fill="none" id="id129" stroke="none" /><text fill="#e1ed5e" style="font-size:6.75px; font-family:Arial;" text-anchor="middle"><textPath startOffset="21.40746469413373" xlink:href="#id129">September</textPath></text><line stroke="#e1ed5e" stroke-width="0.3" x1="15.003131293944662" x2="10.003315487706104" y1="100.72959589197737" y2="100.7725132973878" /><path d="M 14.003168132696942 100.73817937305945 a86.0,86.0 0 0,1 10.791469493833604,-42.45332614584628" fill="none" id="id130" stroke="none" /><text fill="#e1ed5e" style="font-size:6.75px; font-family:Arial;" text-anchor="middle"><textPath startOffset="22.145653131862435" xlink:href="#id130">October</textPath></text><line stroke="#e1ed5e" stroke-width="0.3" x1="26.387840678322718" x2="22.05771365940052" y1="57.49999999999999" y2="54.99999999999999" /><path d="M 25.521815274538284 56.99999999999999 a86.0,86.0 0 0,1 29.574782752854787,-30.34633250058573" fill="none" id="id131" stroke="none" /><text fill="#e1ed5e" style="font-size:6.75px; font-family:Arial;" text-anchor="middle"><textPath startOffset="21.40746469413373" xlink:href="#id131">November</textPath></text><line stroke="#e1ed5e" stroke-width="0.3" x1="56.869717070023135" x2="54.33264160355391" y1="26.7553504044142" y2="22.446841604673864" /><path d="M 56.362301976729285 25.89364864446614 a86.0,86.0 0 0,1 42.16139366436587,-11.88097634709845" fill="none" id="id132" stroke="none" /><text fill="#e1ed5e" style="font-size:6.75px; font-family:Arial;" text-anchor="middle"><textPath startOffset="22.145653131862474" xlink:href="#id132">December</textPath></text></svg>