<?xml version="1.0" encoding="utf-8" ?>
<svg baseProfile="full" height="200mm" version="1.1" viewBox="0,0,200,200" width="200mm" xmlns="http://www.w3.org/2000/svg" xmlns:ev="http://www.w3.org/2001/xml-events" xmlns:xlink="http://www.w3.org/1999/xlink"><defs /><rect fill="#1a1a1a" height="200" width="200" x="0" y="0" /><text alignment-baseline="middle" fill="#e1ed5e" style="dominant-baseline: central; font-size:9.0px; font-family:Arial;" text-anchor="middle" x="100.0" y="100.0">2024</text><line stroke="#e1ed5e" stroke-width="0.3" x1="100.0" x2="100.0" y1="15.0" y2="10.0" /><path d="M 100.0 14.0 a86.0,86.0 0 0,1 42.35913384403234,11.155469271406648" fill="none" id="id133" stroke="none" /><text fill="#e1ed5e" style="font-size:6.75px; font-family:Arial;" text-anchor="middle"><textPath startOffset="22.145653131862478" xlink:href="#id133">January</textPath></text><path d="M 100.0 79.0 l 0.0 -8.72486343833991 a29.72486343833991,29.72486343833991 0 0,0 0.5102668076961876,0.00438002684540111 l -0.14977388284733284 8.723577809688942" fill="#ff6f0a" stroke="none" /><path d="M 101.08105385017728 79.02784411241856 l 0.4216326054936918 -8.179559906521568 a29.19041966680527,29.19041966680527 0 0,0 0.5002065419392153,0.03009118344064546 l -0.5619834995653695 8.171116745256231" fill="#ff6809" stroke="none" /><path d="M 102.15924093988457 79.11130261209362 l 0.8906244703910883 -8.615983841645008 a29.661892951702143,29.661892951702143 0 0,0 0.5060376826264406,0.056702577831891615 l -1.0383980546183256 8.599425503306145" fill="#ff6e0a" stroke="none" /><path d="M 104.9986988182912 79.60360301121754 l 1.952645771198959 -7.96746108849504 a29.2032470220312,29.2032470220312 0 0,0 0.48587904429185547,0.12350855304376718 l -2.089130108716209 7.932767303616005" fill="#ff6809" stroke="none" /><path d="M 106.04205211174951 79.88797359093562 l 2.3599224243386936 -7.855414227451931 a29.20224155543781,29.20224155543781 0 0,0 0.47886025813144506,0.14835213203945918 l -2.494423315341769 7.813745507605825" fill="#ff6809" stroke="none" /><path d="M 106.38641147887787 79.99465700312896 l 2.8508910445085713 -8.930375592103703 a30.37439000488569,30.37439000488569 0 0,0 0.49535894926157276,0.16283432570122272 l -3.0037727314178864 8.880120345000458" fill="#ff780b" stroke="none" /><path d="M 106.72888874123014 80.10723608172694 l 2.636585059347825 -7.79459523749888 a29.22844430567628,29.22844430567628 0 0,0 0.47391031324697264,0.16485060748314073 l -2.770001144639816 7.748186197447149" fill="#ff6809" stroke="none" /><path d="M 107.40779381753099 80.34994680014964 l 2.914873969054218 -7.732049510776593 a29.263236647498996,29.263236647498996 0 0,0 0.4685291357192917,0.181237134848418 l -3.047175367267035 7.680872487790137" fill="#ff6909" stroke="none" /><path d="M 107.74402155503746 80.48000691201159 l 3.050486851432924 -7.68921959110974 a29.272216628635338,29.272216628635338 0 0,0 0.46549172162856184,0.18931143077810408 l -3.1820330342519254 7.635720903752342" fill="#ff6909" stroke="none" /><path d="M 108.4095320186766 80.7573450057729 l 3.8476494584936782 -8.804174941493363 a30.608220582182028,30.608220582182028 0 0,0 0.4796550074302144,0.21454358385814487 l -3.9982178687795242 8.736827606725365" fill="#ff7b0b" stroke="none" /><path d="M 108.73861861582097 80.90454125486305 l 10.626641292500178 -23.22112902752448 a46.53715603728046,46.53715603728046 0 0,0 0.7235669843092808,0.3386658836955855 l -11.023696990680964 23.03528691225836" fill="#bdff1f" stroke="none" /><path d="M 109.3889696526874 81.21577127319529 l 4.6869754331039015 -9.377090546579659 a31.48320398681973,31.48320398681973 0 0,0 0.4813523701622068,0.24578194997624897 l -4.847255024979687 9.295250644930576" fill="#ff860c" stroke="none" /><path d="M 110.02825361518725 81.54914285379988 l 3.949177421438326 -7.266041650323468 a29.269907107714914,29.269907107714914 0 0,0 0.43940515846848555,0.24373063435565445 l -4.073326768062912 7.197178100534669" fill="#ff6909" stroke="none" /><path d="M 110.34350942703115 81.72400993836675 l 4.031619109357138 -7.123484663952235 a29.185229770782023,29.185229770782023 0 0,0 0.4338975505553864,0.25051086761387165 l -4.153309127772921 7.053226899062191" fill="#ff6709" stroke="none" /><line stroke="#e1ed5e" stroke-width="0.3" x1="143.13028292997686" x2="145.6673583964461" y1="26.7553504044142" y2="22.446841604673864" /><path d="M 143.63769802327073 25.89364864446614 a86.0,86.0 0 0,1 29.32050498858742,28.57503671076993" fill="none" id="id134" stroke="none" /><text fill="#e1ed5e" style="font-size:6.75px; font-family:Arial;" text-anchor="middle"><textPath startOffset="20.669276256404974" xlink:href="#id134">February</textPath></text><path d="M 110.96478420261332 82.08984904055464 l 4.239335856059966 -6.924636522415752 a29.119270870469208,29.119270870469208 0 0,0 0.42408178931801405,0.26465840148796693 l -4.357581774167692 6.85084232408624" fill="#ff6709" stroke="none" /><path d="M 111.8722381534696 82.67804972795209 l 4.638119794704572 -6.767155392363347 a29.204056760799666,29.204056760799666 0 0,0 0.4110886921967858,0.28697183391011194 l -4.7536035780751185 6.686538742648109" fill="#ff6809" stroke="none" /><path d="M 112.16784306229584 82.88440491214696 l 4.739268867862368 -6.666375177548932 a29.179317050324556,29.179317050324556 0 0,0 0.4057578420482585,0.29373738649043335 l -4.853007720284594 6.584037019685424" fill="#ff6709" stroke="none" /><path d="M 112.7482090630111 83.31218511350987 l 5.762689906385051 -7.543546072289189 a30.492822673046295,30.492822673046295 0 0,0 0.4132359091785943,0.32133474241232624 l -5.891335760198872 7.443510278256071" fill="#ff790b" stroke="none" /><path d="M 113.03279911837588 83.53348406188908 l 5.278715065157507 -6.669484042810471 a29.505695158917014,29.505695158917014 0 0,0 0.3944619612380238,0.3177506334762218 l -5.39242779675079 6.577885115540841" fill="#ff6c09" stroke="none" /><path d="M 113.31354834802062 83.75963576809568 l 2.7731071394087206 -3.382739809164973 a25.374134408445755,25.374134408445755 0 0,0 0.33448626917541074,0.2790403421625301 l -2.830767742746024 3.334637283090573" fill="#ff3304" stroke="none" /><path d="M 113.86319453409587 84.22622945171908 l 13.17302621942523 -14.98848569863581 a40.954531398052794,40.954531398052794 0 0,0 0.5240911855579495,0.4686455698325366 l -13.428382431806556 14.760144598919887" fill="#ffff18" stroke="none" /><path d="M 114.13192950727249 84.46653392183569 l 6.500193463611959 -7.144851282803303 a30.659265754588162,30.659265754588162 0 0,0 0.38626328343034827,0.35751952856714486 l -6.621886518356272 7.032214008103782" fill="#ff7b0b" stroke="none" /><path d="M 114.39649973595853 84.71141617570332 l 5.635708175428676 -5.984926782869746 a29.220739336270505,29.220739336270505 0 0,0 0.36223630631376147,0.3470141873318303 l -5.7376169676077495 5.887300465232335" fill="#ff6809" stroke="none" /><path d="M 114.91283532996326 85.21462403516908 l 5.859957571619942 -5.809872765125742 a29.251892164112164,29.251892164112164 0 0,0 0.3504839123716078,0.3596273700407234 l -5.958828285142362 5.708422703017277" fill="#ff6809" stroke="none" /><path d="M 115.16444852881244 85.47280134310134 l 8.68941437814395 -8.324262411756443 a33.033256705267945,33.033256705267945 0 0,0 0.3887607946380736,0.4128504918163501 l -8.831031006518282 8.173870459995598" fill="#ff9b0e" stroke="none" /><path d="M 116.1254893667686 86.54754324733833 l 1.8761967160402222 -1.5651900297692922 a23.443344827601972,23.443344827601972 0 0,0 0.25514528704924283,0.31123576415670545 l -1.9027888223280924 1.5327519839140915" fill="#ff1702" stroke="none" /><path d="M 116.35404254752997 86.82634096563983 l 6.359965873408111 -5.123138309255496 a29.166744274597868,29.166744274597868 0 0,0 0.3107418953866974,0.3926122336842649 l -6.446974199436368 5.013206131656553" fill="#ff6709" stroke="none" /><path d="M 116.7966241395341 87.39550010848427 l 5.730030208931332 -4.2999214929661544 a28.16397731996256,28.16397731996256 0 0,0 0.2868675175822346,0.38919088210226827 l -5.802999746097392 4.200924301595011" fill="#ff5908" stroke="none" /><path d="M 117.21940702142032 87.97951657250589 l 6.700131922604826 -4.677212440446305 a29.17117396665705,29.17117396665705 0 0,0 0.2831135544547768,0.41307113690060343 l -6.779435213874928 4.561506568475653" fill="#ff6709" stroke="none" /><path d="M 117.62189284568427 88.57770195909679 l 8.462435876452965 -5.485248694867116 a31.084680173789334,31.084680173789334 0 0,0 0.2863969369093187,0.4502635540882723 l -8.555350504988173 5.339171466100172" fill="#ff810b" stroke="none" /><path d="M 117.81537515405839 88.88188828441811 l 9.556475698894973 -5.963947629997221 a32.26476360679263,32.26476360679263 0 0,0 0.28920295857484907,0.47239129838590355 l -9.657446621925224 5.799019215486762" fill="#ff910d" stroke="none" /><line stroke="#e1ed5e" stroke-width="0.3" x1="172.87174338648825" x2="177.1583165268699" y1="56.24261187166439" y2="53.66864786411523" /><path d="M 173.72905801456457 55.72781907015455 a86.0,86.0 0 0,1 12.242430191666344,42.057860355516425" fill="none" id="id135" stroke="none" /><text fill="#e1ed5e" style="font-size:6.75px; font-family:Arial;" text-anchor="middle"><textPath startOffset="22.145653131862474" xlink:href="#id135">March</textPath></text><path d="M 118.36410011445183 89.81374322990088 l 3.974901604528036 -2.204810915169102 a25.545441005813228,25.545441005813228 0 0,0 0.20941745072750956,0.3853045221595718 l -4.012164404870886 2.136251559534927" fill="#ff3505" stroke="none" /><path d="M 118.53625476483649 90.13048839642627 l 15.71675582145093 -8.368287225130459 a38.8057475168383,38.8057475168383 0 0,0 0.3080288089739298,0.5906858563283645 l -15.858092699399805 8.097255125697597" fill="#ffe515" stroke="none" /><path d="M 118.70294669586156 90.45014215332178 l 2.8275428324627954 -1.4437635172958354 a24.174815201438687,24.174815201438687 0 0,0 0.1855475624884813,0.37121941836153727 l -2.851910308163014 1.3950122427705476" fill="#ff2203" stroke="none" /><path d="M 118.8641267826498 90.77261029715802 l 7.33072002448653 -3.5858225110413886 a29.160733984029804,29.160733984029804 0 0,0 0.21609595528706335,0.45155743439103607 l -7.391195237733505 3.459452574585249" fill="#ff6709" stroke="none" /><path d="M 119.0197475246899 91.09779779509293 l 18.912110720419737 -8.85182274560778 a41.88115652498861,41.88115652498861 0 0,0 0.29918210040883436,0.6537668831658399 l -19.061277285683623 8.525866880227257" fill="#f4ff19" stroke="none" /><path d="M 119.16976305983485 91.42560881287824 l 3.7159776326357488 -1.6621095297506534 a25.070761336057068,25.070761336057068 0 0,0 0.172350880426933,0.3943725432807978 l -3.7439623950796523 1.5980749166940063" fill="#ff2e04" stroke="none" /><path d="M 119.31412917781788 91.75594674310238 l 3.955338141508034 -1.6882986536654572 a25.3005874200668,25.3005874200668 0 0,0 0.167073218724221,0.4009149040684383 l -3.983737204768738 1.620151240155741" fill="#ff3204" stroke="none" /><path d="M 119.58574465831526 92.42381321644754 l 11.428265897749744 -4.420698756362858 a33.253482726318175,33.253482726318175 0 0,0 0.20137250757591396,0.5341645008382275 l -11.5024690891401 4.223865975330473" fill="#ff9e0e" stroke="none" /><path d="M 119.71291397450082 92.76114493625339 l 16.04823042040493 -5.893132501526187 a38.09604370335296,38.09604370335296 0 0,0 0.2201585421827344,0.6158226255939625 l -16.147029132631605 5.616774919551308" fill="#ffdc14" stroke="none" /><path d="M 119.94978838288452 93.4421083053983 l 12.728070755509709 -4.183969668944981 a34.39811133510664,34.39811133510664 0 0,0 0.17958317680714134,0.5625417435717585 l -12.798018648094107 3.964858891681835" fill="#ffad10" stroke="none" /><path d="M 120.26092885502905 94.47779374421319 l 4.480263266741005 -1.2211156761960584 a25.643692758350895,25.643692758350895 0 0,0 0.1121124164870559,0.42570910644929555 l -4.500565164032791 1.1440260653739645" fill="#ff3605" stroke="none" /><path d="M 120.43855184770803 95.1765574152323 l 7.904742444287563 -1.8654976933540943 a29.12188615744094,29.12188615744094 0 0,0 0.11064810506275874,0.4875359668520274 l -7.935601410907989 1.7295273925630406" fill="#ff6709" stroke="none" /><path d="M 120.51834098615036 95.52812308129327 l 7.946205670658249 -1.7318385416198365 a29.132739347516384,29.132739347516384 0 0,0 0.10230070902109051,0.48954592593947205 l -7.974764090503706 1.5951761643949602" fill="#ff6709" stroke="none" /><path d="M 120.65975698304385 96.23510406497455 l 9.92343094786977 -1.8083796855792558 a31.086858721344086,31.086858721344086 0 0,0 0.09116618418795727,0.5258223239254598 l -9.953011949549962 1.6377643287332033" fill="#ff810b" stroke="none" /><path d="M 120.86939407059847 97.66154086499901 l 4.901413557534706 -0.5492136124921051 a25.932087839255466,25.932087839255466 0 0,0 0.04577335495983247,0.4428156869961333 l -4.910119304976205 0.46499340321304045" fill="#ff3a05" stroke="none" /><path d="M 120.93736805541906 98.37931529534042 l 4.867927483086019 -0.37680837411594126 a25.882489378522813,25.882489378522813 0 0,0 0.03048715535294785,0.4432765478210158 l -4.873678599604033 0.2931884021405914" fill="#ff3a05" stroke="none" /><path d="M 120.98066250479742 99.09900007780936 l 5.00534089442854 -0.21495087466311144 a26.00995422613392,26.00995422613392 0 0,0 0.01532768213076476,0.4462487412690498 l -5.008293263556153 0.1289958688299417" fill="#ff3c05" stroke="none" /><path d="M 120.99303781780057 99.45929381324524 l 3.8478378369814266 -0.09910665346016585 a24.84911394329474,24.84911394329474 0 0,0 0.007322878159553392,0.4265209407760316 l -3.8489721467396456 0.033038796715067896" fill="#ff2b04" stroke="none" /><line stroke="#e1ed5e" stroke-width="0.3" x1="184.99686870605535" x2="189.99668451229388" y1="99.2704041080226" y2="99.22748670261217" /><path d="M 185.99683186730306 99.26182062694052 a86.0,86.0 0 0,1 -10.086455211305974,41.156179273409016" fill="none" id="id136" stroke="none" /><text fill="#e1ed5e" style="font-size:6.75px; font-family:Arial;" text-anchor="middle"><textPath startOffset="21.40746469413373" xlink:href="#id136">April</textPath></text><path d="M 120.99922638620191 99.81974689727618 l 62.99767915860572 -0.5407593081714844 a84.0,84.0 0 0,0 0.0,1.442024821790615 l -62.99767915860572 -0.5407593081714768" fill="#4dd2ff" stroke="none" /><path d="M 120.99922638620191 100.18025310272382 l 14.208552900763616 0.12196333800473315 a35.209076345407375,35.209076345407375 0 0,0 -0.010375894157679113,0.6043438168848818 l -14.204365575007268 -0.365854070858686" fill="#ffb711" stroke="none" /><path d="M 120.99303781780057 100.54070618675476 l 4.476107709618763 0.11528865675263612 a25.477592176883057,25.477592176883057 0 0,0 -0.015013960845506694,0.4371150883486375 l -4.47346906177641 -0.1921100096653843" fill="#ff3404" stroke="none" /><path d="M 120.98066250479742 100.90099992219065 l 3.6641078388748674 0.15735255628698555 a24.66748498045654,24.66748498045654 0 0,0 -0.02179949111148285,0.4229043037819143 l -3.660866758306812 -0.2202286534456305" fill="#ff2903" stroke="none" /><path d="M 120.86939407059847 102.33845913500097 l 8.091438186769674 0.9066625259525185 a29.1420764468458,29.1420764468458 0 0,0 -0.059974273623527107,0.4966730203765485 l -8.074681826886483 -1.0454292232524756" fill="#ff6709" stroke="none" /><path d="M 120.82617615685814 102.69636545807757 l 5.780802941955815 0.7484406765430132 a26.82905190404316,26.82905190404316 0 0,0 -0.06305527748044801,0.45623657689717056 l -5.767103147920157 -0.8475655616402687" fill="#ff4706" stroke="none" /><path d="M 120.65975698304385 103.76489593502545 l 17.614610195792803 3.209968751211686 a38.90470306186292,38.90470306186292 0 0,0 -0.12537264304085216,0.6560026458260102 l -17.556911260469793 -3.511873962071011" fill="#ffe615" stroke="none" /><path d="M 120.51834098615036 104.47187691870673 l 16.532268747981938 3.6031310269119228 a37.920356472385436,37.920356472385436 0 0,0 -0.14407774154085193,0.6348331133563855 l -16.467980144883423 -3.886398474207325" fill="#ffda14" stroke="none" /><path d="M 120.26092885502905 105.52220625578681 l 7.848573560978929 2.1391636251011654 a29.134871108816256,29.134871108816256 0 0,0 -0.13565960143965786,0.4814080672793528 l -7.810695467464691 -2.2735796162835267" fill="#ff6709" stroke="none" /><path d="M 120.16314734710363 105.8691983318838 l 7.780987219673262 2.264931978324084 a29.10392984786725,29.10392984786725 0 0,0 -0.1437507955322378,0.47849964591438654 l -7.740960104137395 -2.3981692278291944" fill="#ff6609" stroke="none" /><path d="M 120.05942366710727 106.21446072829308 l 7.194345202613837 2.2288265340713433 a28.53168444727693,28.53168444727693 0 0,0 -0.1489561587490897,0.46660304572099237 l -7.155024328087492 -2.351998613483719" fill="#ff5f08" stroke="none" /><path d="M 119.94978838288452 106.5578916946017 l 5.002848711775713 1.6445357407625298 a26.266212399396863,26.266212399396863 0 0,0 -0.14448240248604993,0.4271365501095273 l -4.973880887717298 -1.7301739653462176" fill="#ff3f05" stroke="none" /><path d="M 119.83427380445688 106.89939002012753 l 32.50206934250202 11.305906889556107 a55.41232398632969,55.41232398632969 0 0,0 -0.32023001030718556,0.8957403323359009 l -32.30319916215089 -11.86218217827293" fill="#5eff2a" stroke="none" /><path d="M 119.58574465831526 107.57618678355244 l 2.4690703373810807 0.9550894481709739 a23.647357963129025,23.647357963129025 0 0,0 -0.1497005286270829,0.37734312376339335 l -2.452311133787873 -0.9973335891479314" fill="#ff1a02" stroke="none" /><path d="M 119.4528033332814 107.91128576633889 l 7.55426491069923 3.0722537743914375 a29.15510034244117,29.15510034244117 0 0,0 -0.19252661511628813,0.46199378942580427 l -7.500412451046456 -3.20148007325852" fill="#ff6709" stroke="none" /><path d="M 119.31412917781788 108.2440532568976 l 7.4340961915684165 3.1731736054958883 a29.08299554101744,29.08299554101744 0 0,0 -0.19993329359878978,0.45748650246371614 l -7.378529015952661 -3.300322177735449" fill="#ff6609" stroke="none" /><path d="M 119.16976305983485 108.57439118712176 l 7.41493083518599 3.316604248466069 a29.1228728311808,29.1228728311808 0 0,0 -0.20804206441560646,0.4546094563629316 l -7.356904305915327 -3.4434026870436893" fill="#ff6709" stroke="none" /><path d="M 119.0197475246899 108.90220220490707 l 5.954542281007355 2.787026449977039 a27.574503038950997,27.574503038950997 0 0,0 -0.20434117258610554,0.42699445952546067 l -5.905821850461338 -2.8888334115676035" fill="#ff5107" stroke="none" /><path d="M 118.8641267826498 109.22738970284198 l 2.783737904025299 1.3616657037440547 a24.09892404022105,24.09892404022105 0 0,0 -0.18496507944317614,0.3700540620809984 l -2.7599529113703904 -1.409251621988799" fill="#ff2003" stroke="none" /><path d="M 118.70294669586154 109.54985784667822 l 6.10581587838528 3.117673093164111 a27.855718274300752,27.855718274300752 0 0,0 -0.221110641392047,0.42400880940013286 l -6.051397168018283 -3.2220281456687467" fill="#ff5507" stroke="none" /><path d="M 118.5362547648365 109.86951160357373 l 7.1890555123741215 3.8277671351771514 a29.144588412015615,29.144588412015615 0 0,0 -0.23892268707978057,0.43959083380371583 l -7.122287475679002 -3.9506128024554705" fill="#ff6709" stroke="none" /><line stroke="#e1ed5e" stroke-width="0.3" x1="174.33088141563837" x2="178.70328620479359" y1="141.23008692659167" y2="143.65538615756765" /><path d="M 175.20536237346943 141.71514677278685 a86.0,86.0 0 0,1 -30.301960400862466,31.631185727798858" fill="none" id="id137" stroke="none" /><text fill="#e1ed5e" style="font-size:6.75px; font-family:Arial;" text-anchor="middle"><textPath startOffset="22.145653131862474" xlink:href="#id137">May</textPath></text><path d="M 118.36410011445183 110.18625677009912 l 0.8273087063952318 0.45889419350575805 a21.946056856912232,21.946056856912232 0 0,0 -0.18556606986340057,0.32787746485123515 l -0.819309271510453 -0.4730284284561159" fill="#ff0100" stroke="none" /><path d="M 118.18653347947321 110.5 l 5.904374804575058 3.4088923828178523 a27.817784765635707,27.817784765635707 0 0,0 -0.2423144837898321,0.41150296848124907 l -5.844986610655461 -3.5097465195926505" fill="#ff5507" stroke="none" /><path d="M 118.00360718960297 110.81064883170644 l 5.844823140642093 3.5096483605464983 a27.817594088831633,27.817594088831633 0 0,0 -0.24934106472828957,0.40727989052517377 l -5.783714111458399 -3.609465367196229" fill="#ff5507" stroke="none" /><path d="M 117.01052211995028 112.31430620078461 l 6.3856902594822476 4.622747297474603 a28.883326243810743,28.883326243810743 0 0,0 -0.2941945310120255,0.39913138301345397 l -6.305393708886394 -4.731684989756934" fill="#ff6309" stroke="none" /><path d="M 116.79662413953412 112.60449989151573 l 6.508423775197827 4.884042536579308 a29.13716483406084,29.13716483406084 0 0,0 -0.30364813854456724,0.3974851605910369 l -6.423623659298955 -4.995048610411223" fill="#ff6709" stroke="none" /><path d="M 116.1254893667686 113.45245675266167 l 6.217978764813284 5.187259035685407 a29.097587061771478,29.097587061771478 0 0,0 -0.32326786906363486,0.38080873691146694 l -6.1280163322425345 -5.29323455504643" fill="#ff6609" stroke="none" /><path d="M 115.89218393027572 113.72728997021213 l 4.464709319017168 3.8565095724885468 a26.899686041308854,26.899686041308854 0 0,0 -0.3048489362294849,0.3468621290817799 l -4.397849318829097 -3.93258397938162" fill="#ff4806" stroke="none" /><path d="M 115.6541949942343 113.99807769240083 l 0.636102800509758 0.5688070466203408 a21.853327738387375,21.853327738387375 0 0,0 -0.25246035969469993,0.2774981598500552 l -0.6262447399731781 -0.5796427820280677" fill="#ff0000" stroke="none" /><path d="M 115.16444852881244 114.52719865689866 l 7.27911350363391 6.97322607627226 a31.080246788129195,31.080246788129195 0 0,0 -0.37239049120873996,0.38210544979188327 l -7.158336211274363 -7.09715421813188" fill="#ff810b" stroke="none" /><path d="M 114.65682725009322 115.03919595460226 l 4.695104593050937 4.817590928609538 a27.727049092663805,27.727049092663805 0 0,0 -0.34371970307541055,0.3292757002920011 l -4.611712404110214 -4.897478759207119" fill="#ff5307" stroke="none" /><path d="M 114.13192950727249 115.5334660781643 l 5.494211058688299 6.039100397613116 a29.16437926421009,29.16437926421009 0 0,0 -0.37321374663239676,0.33373003358885445 l -5.389732285232523 -6.132525961085358" fill="#ff6709" stroke="none" /><path d="M 113.86319453409587 115.77377054828091 l 2.5340909765896247 2.8833303546945244 a24.838647028828753,24.838647028828753 0 0,0 -0.3226901240186601,0.2787320435229192 l -2.484221372808109 -2.926406530682161" fill="#ff2b04" stroke="none" /><path d="M 113.59037401385872 116.0094264158162 l 5.7856463675899015 6.8154768732200415 a29.940046358951584,29.940046358951584 0 0,0 -0.39467491754954775,0.3292518533196972 l -5.667797115878459 -6.913790910451609" fill="#ff720a" stroke="none" /><path d="M 113.31354834802062 116.24036423190432 l 5.234115769908314 6.384770183968516 a29.255983175545857,29.255983175545857 0 0,0 -0.3911235590016282,0.31506145294767496 l -5.123741440551433 -6.4736799307095945" fill="#ff6809" stroke="none" /><path d="M 111.8722381534696 117.32195027204791 l 6.903905414257056 10.073004325114033 a33.21185187032556,33.21185187032556 0 0,0 -0.47303753207556465,0.31828076257474425 l -6.729971594084488 -10.190034761745897" fill="#ff9d0e" stroke="none" /><path d="M 111.5731344415666 117.5232005979908 l 3.3918621273405547 5.13571157046636 a27.154694308079748,27.154694308079748 0 0,0 -0.39117548475537733,0.2535552231703084 l -3.3032010103281677 -5.193180635340563" fill="#ff4c07" stroke="none" /><path d="M 111.27062007382361 117.71928675628689 l 4.397053983923485 6.9128991939821205 a29.19281752535085,29.19281752535085 0 0,0 -0.42515289433088366,0.2653268502345806 l -4.277736960802886 -6.987361841058249" fill="#ff6809" stroke="none" /><line stroke="#e1ed5e" stroke-width="0.3" x1="143.1302829299769" x2="145.66735839644613" y1="173.24464959558577" y2="177.55315839532614" /><path d="M 143.63769802327073 174.10635135553383 a86.0,86.0 0 0,1 -40.68552437913181,11.842963189579606" fill="none" id="id138" stroke="none" /><text fill="#e1ed5e" style="font-size:6.75px; font-family:Arial;" text-anchor="middle"><textPath startOffset="21.407464694133747" xlink:href="#id138">June</textPath></text><path d="M 110.65571695917076 118.09573695890943 l 1.0413449352491324 1.7684313598009946 a23.052254552558384,23.052254552558384 0 0,0 -0.34271845257657835,0.19786859085134026 l -1.0108340148121555 -1.7860468479285065" fill="#ff1101" stroke="none" /><path d="M 110.02825361518725 118.45085714620011 l 2.75315634814695 5.065497586128292 a26.765339163693096,26.765339163693096 0 0,0 -0.40557287005491965,0.21594470932149243 l -2.6657946623054767 -5.112012763172353" fill="#ff4606" stroke="none" /><path d="M 109.71004243097381 118.62028667847754 l 3.687012140154723 7.070331929519984 a28.973935798289205,28.973935798289205 0 0,0 -0.44298771736423853,0.22619268489863184 l -3.5650972010769024 -7.132582566091452" fill="#ff6509" stroke="none" /><path d="M 109.3889696526874 118.78422872680471 l 1.8350886671056634 3.6714066113754513 a25.104482540125005,25.104482540125005 0 0,0 -0.38713473181899105,0.18936699690147293 l -1.7717936860246029 -3.7023673583741474" fill="#ff2f04" stroke="none" /><path d="M 109.06512990194946 118.94263497670748 l 3.507650664522301 7.329640819549926 a29.125715213317303,29.125715213317303 0 0,0 -0.4528511777958319,0.2119572170048853 l -3.381310772854963 -7.388774268125346" fill="#ff6709" stroke="none" /><path d="M 108.4095320186766 119.2426549942271 l 0.3803863177736483 0.8703983362197413 a21.949887895724274,21.949887895724274 0 0,0 -0.3465625204839658,0.14792693211329463 l -0.36538872211925133 -0.8767999179924398" fill="#ff0100" stroke="none" /><path d="M 108.07796709384702 119.3841803445677 l 1.260935635204934 3.0257864969915578 a24.278008938594603,24.278008938594603 0 0,0 -0.3860729893439175,0.15701252374966768 l -1.2088081846705756 -3.0469862773205167" fill="#ff2303" stroke="none" /><path d="M 107.74402155503746 119.51999308798841 l 12.464804902866566 31.419450968444806 a54.801675408550885,54.801675408550885 0 0,0 -0.8774211111514787,0.33940533494566283 l -11.923611529221558 -31.628796191528508" fill="#64ff29" stroke="none" /><path d="M 107.06938296918513 119.77432235084164 l 2.749644764143509 7.691245778235878 a29.167974531682443,29.167974531682443 0 0,0 -0.4729298556750324,0.1645095534443763 l -2.6172091364234547 -7.737313764248844" fill="#ff6709" stroke="none" /><path d="M 106.72888874123015 119.89276391827305 l 2.606073767160099 7.7043940236471835 a29.133222470306002,29.133222470306002 0 0,0 -0.475117441672853,0.15618054010938281 l -2.4734335878395117 -7.747995485158586" fill="#ff6709" stroke="none" /><path d="M 105.69591212413111 120.21278271476187 l 2.355181661310734 8.357708850911687 a29.683212417900528,29.683212417900528 0 0,0 -0.491636826616763,0.13399780330625888 l -2.211363433759276 -8.396907148362088" fill="#ff6e0a" stroke="none" /><path d="M 105.3480935250658 120.30758222061773 l 2.0766658843021903 7.8854386133233625 a29.154304588345695,29.154304588345695 0 0,0 -0.485064747755357,0.1233015620484689 l -1.9409958433214358 -7.919925407207101" fill="#ff6709" stroke="none" /><path d="M 104.9986988182912 120.39639698878246 l 1.9314894239642648 7.881135972156283 a29.114367233894555,29.114367233894555 0 0,0 -0.48644263459918163,0.11479913725078353 l -1.795914635625204 -7.913131253053292" fill="#ff6609" stroke="none" /><path d="M 104.64783097203109 120.47920084513623 l 1.8159802748741887 8.001544161943228 a29.205028539515258,29.205028539515258 0 0,0 -0.48986231787276296,0.10676321219722454 l -1.6783555403822898 -8.03153883227417" fill="#ff6809" stroke="none" /><path d="M 104.29559338865022 120.5559693870025 l 1.7319438182927156 8.287978141250534 a29.46700720795542,29.46700720795542 0 0,0 -0.4960328861379435,0.09922046943877796 l -1.5894144466238136 -8.316488007352174" fill="#ff6b09" stroke="none" /><path d="M 103.94208987418118 120.62667999033965 l 0.3267255231883692 1.7095659983862301 a22.740507245127414,22.740507245127414 0 0,0 -0.38406038387034425,0.06998859566569716 l -0.2973304057669678 -1.7149227679832908" fill="#ff0d01" stroke="none" /><path d="M 103.58742460773223 120.69131181640829 l 0.718375726824902 4.143400291405498 a25.205214579508443,25.205214579508443 0 0,0 -0.42695532696694527,0.0702553365768519 l -0.6471428968048845 -4.155121626478021" fill="#ff3004" stroke="none" /><path d="M 103.2317021107853 120.74984581791261 l 5.197401169050792 33.37104386933618 a54.773355590483014,54.773355590483014 0 0,0 -0.9302990867022961,0.13672192913675135 l -4.62377697674081 -33.45534687177181" fill="#64ff29" stroke="none" /><path d="M 101.08105385017728 120.97215588758144 l 0.4218837070888201 8.184431210384696 a29.195297438154768,29.195297438154768 0 0,0 -0.5007330499438069,0.021503631686293934 l -0.28132489654418374 -8.19046741049682" fill="#ff6809" stroke="none" /><path d="M 100.72087961077811 120.9876233191556 l 0.15568957271276018 4.5327320373074915 a25.535405049726563,25.535405049726563 0 0,0 -0.4382199999872452,0.011286992726316551 l -0.07785625865477117 -4.534736747383853" fill="#ff3505" stroke="none" /><line stroke="#e1ed5e" stroke-width="0.3" x1="101.45913802915013" x2="101.54496967792366" y1="184.9874750549273" y2="189.98673829345242" /><path d="M 101.47630435890484 185.9873277026323 a86.0,86.0 0 0,1 -42.54439059252881,-10.42667462771756" fill="none" id="id139" stroke="none" /><text fill="#e1ed5e" style="font-size:6.75px; font-family:Arial;" text-anchor="middle"><textPath startOffset="22.145653131862474" xlink:href="#id139">July</textPath></text><path d="M 100.36049292484886 120.99690560180557 l 0.13618412297660182 7.93204242719404 a28.93321140410094,28.93321140410094 0 0,0 -0.4966770478254531,0.004263375101335882 l -9.715381952991498e-16 -7.933211404100941" fill="#ff6409" stroke="none" /><path d="M 100.0 121.0 l 1.3689750652834276e-15 11.178529729849956 a32.178529729849956,32.178529729849956 0 0,0 -0.552387252364255,-0.004741580204553229 l 0.19189432751540147 -11.176882547839837" fill="#ff900d" stroke="none" /><path d="M 99.63950707515114 120.99690560180557 l -0.02635592792056577 1.5351006703616783 a22.53532690430456,22.53532690430456 0 0,0 -0.38673484663689156,-0.009960917806420739 l 0.052704088628201244 -1.53442203520521" fill="#ff0a01" stroke="none" /><path d="M 99.27912038922189 120.98762331915562 l -0.36159549611105923 10.527458333979835 a31.533666516293806,31.533666516293806 0 0,0 -0.5408387787129962,-0.023225944243976882 l 0.5422600354248942 -10.51969982131003" fill="#ff870c" stroke="none" /><path d="M 98.91894614982273 120.97215588758144 l -0.42158987933331293 8.178731030424682 a29.18958969023405,29.18958969023405 0 0,0 -0.5001923194746305,-0.03009032785249219 l 0.5619265509403897 -8.170288724747499" fill="#ff6809" stroke="none" /><path d="M 98.55909050195518 120.95050786540614 l -1.5220747674200483 22.1306330687939 a43.182913055394934,43.182913055394934 0 0,0 -0.7391084689540086,-0.05721166994569227 l 1.901752231149293 -22.10124363185316" fill="#e4ff1a" stroke="none" /><path d="M 98.19965949673042 120.92268563240118 l -0.11111070429102797 1.2912748072122666 a22.29604637893446,22.29604637893446 0 0,0 -0.3810505133422632,-0.03608587979023752 l 0.1332607810183064 -1.2891771719168452" fill="#ff0601" stroke="none" /><path d="M 97.84075906011543 120.88869738790638 l -0.8527973457766195 8.250040725001197 a29.29399995642283,29.29399995642283 0 0,0 -0.4997613563282881,-0.05599930237902016 l 0.9942946037057069 -8.234185662115205" fill="#ff6909" stroke="none" /><path d="M 97.48249496171623 120.84855314841334 l -0.8445712448150714 6.994261468152769 a28.04506877698543,28.04506877698543 0 0,0 -0.4774635273509675,-0.06181721276841615 l 0.964512594056833 -6.978732659183955" fill="#ff5808" stroke="none" /><path d="M 96.41257539226777 120.69131181640829 l -2.6243933144419724 15.136803232317384 a36.36262517809966,36.36262517809966 0 0,0 -0.6141219117892264,-0.11191346980523192 l 2.883849959782256 -15.089521588580785" fill="#ffc612" stroke="none" /><path d="M 95.35216902796893 120.47920084513623 l -2.143362707993649 9.444051568380388 a30.68421983043786,30.68421983043786 0 0,0 -0.5126717202894073,-0.1209891300555788 l 2.305166582022944 -9.405866294678582" fill="#ff7c0b" stroke="none" /><path d="M 95.00130118170881 120.39639698878247 l -2.2949708861289113 9.364264376141172 a30.641386760961616,30.641386760961616 0 0,0 -0.5098065877387594,-0.12959084102004034 l 2.4553827670930493 -9.323488303285869" fill="#ff7b0b" stroke="none" /><path d="M 94.6519064749342 120.30758222061772 l -2.4828930302282215 9.427949253325343 a30.749409465338594,30.749409465338594 0 0,0 -0.5092960248723569,-0.1388108963177842 l 2.6443704560352734 -9.383937862863414" fill="#ff7d0b" stroke="none" /><path d="M 94.30408787586889 120.21278271476187 l -2.144540691137223 7.610218358053469 a28.906609781265125,28.906609781265125 0 0,0 -0.4764635024655635,-0.1386915815142396 l 2.274864205984393 -7.572283082236713" fill="#ff6409" stroke="none" /><path d="M 93.95794788825049 120.11202640906438 l -1.8877659027223488 6.2837587275773545 a27.561195306488422,27.561195306488422 0 0,0 -0.45195027490684064,-0.1400153504487407 l 1.995356810500823 -6.250426789321964" fill="#ff5107" stroke="none" /><path d="M 91.26138138417905 119.09545874513695 l -2.143529093727851 4.683997915205461 a26.151170104481782,26.151170104481782 0 0,0 -0.40660248497999,-0.19031049353367105 l 2.223620292579331 -4.646511190101264" fill="#ff3d05" stroke="none" /><path d="M 90.28995756902619 118.62028667847754 l -4.023202617779695 7.715021498741922 a29.701018103058942,29.701018103058942 0 0,0 -0.4500569591866262,-0.23962998120784115 l 4.155048392752883 -7.644821049811507" fill="#ff6e0a" stroke="none" /><line stroke="#e1ed5e" stroke-width="0.3" x1="58.13341422392154" x2="55.67067388415222" y1="173.97424548756322" y2="178.32567169271397" /><path d="M 57.64086615596768 174.84453072859336 a86.0,86.0 0 0,1 -31.369924170532247,-30.572349798747897" fill="none" id="id140" stroke="none" /><text fill="#e1ed5e" style="font-size:6.75px; font-family:Arial;" text-anchor="middle"><textPath startOffset="22.145653131862474" xlink:href="#id140">August</textPath></text><path d="M 89.65649057296885 118.27599006163327 l -3.879977810882563 6.855549019536246 a28.877358705315217,28.877358705315217 0 0,0 -0.42932042362364126,-0.24786826214771535 l 3.997090702366604 -6.787933860112359" fill="#ff6309" stroke="none" /><path d="M 89.34428304082925 118.09573695890944 l -4.809881468500072 8.168230274040974 a30.479184856873502,30.479184856873502 0 0,0 -0.44857703076621425,-0.26935761831016 l 4.949391255823714 -8.084458655194895" fill="#ff790b" stroke="none" /><path d="M 88.72937992617639 117.7192867562869 l -4.285007265520327 6.736743142187101 a28.984046306815042,28.984046306815042 0 0,0 -0.41752811633998604,-0.2706366805799896 l 4.400021014117322 -6.662192619903217" fill="#ff6509" stroke="none" /><path d="M 88.1277618465304 117.32195027204791 l -5.8353607638849905 8.51396574637743 a31.321775427472573,31.321775427472573 0 0,0 -0.44089859854827734,-0.30778146369745174 l 5.980654453607033 -8.41253946687485" fill="#ff840c" stroke="none" /><path d="M 87.83215693770417 117.11559508785305 l -4.623603447415656 6.503677278513196 a28.979694667216457,28.979694667216457 0 0,0 -0.40298195982818413,-0.2917278618330309 l 4.734566417617794 -6.4233486453071" fill="#ff6509" stroke="none" /><path d="M 86.68645165197938 116.24036423190432 l -2.108754532018009 2.5723376503712525 a24.326224085028546,24.326224085028546 0 0,0 -0.32067253236500143,-0.2675164316127122 l 2.152601398544903 -2.53575903484667" fill="#ff2403" stroke="none" /><path d="M 86.40962598614128 116.0094264158162 l -14.191491630404794 16.717541456618726 a42.928853755944814,42.928853755944814 0 0,0 -0.5577082007086122,-0.48173506067391614 l 14.47637931087627 -16.471462263480085" fill="#e7ff1a" stroke="none" /><path d="M 85.34317274990678 115.03919595460226 l -0.9386715609029135 0.9631597139375108 a22.3449092660102,22.3449092660102 0 0,0 -0.27240368171721335,-0.2700754591114401 l 0.9550671627500893 -0.9469042445974113" fill="#ff0701" stroke="none" /><path d="M 85.08716467003676 114.78537596483092 l -5.892805717111623 5.84244015892417 a29.298148361546286,29.298148361546286 0 0,0 -0.35103813474318246,-0.3601960510182882 l 5.992230653005615 -5.740421415838144" fill="#ff6909" stroke="none" /><path d="M 84.1078160697243 113.72728997021213 l -6.174858524718323 5.333695725252919 a29.15948453579439,29.15948453579439 0 0,0 -0.3239555365491011,-0.38161880748023025 l 6.265508624774537 -5.226910135323133" fill="#ff6709" stroke="none" /><path d="M 83.8745106332314 113.45245675266167 l -4.467721130179084 3.727131866803664 a26.81825094419208,26.81825094419208 0 0,0 -0.29187602646436744,-0.3560412939084728 l 4.53104397588208 -3.649888291196696" fill="#ff4706" stroke="none" /><path d="M 83.4222238831116 112.89097897827486 l -9.253714977941966 7.195744737442339 a32.72220044272476,32.72220044272476 0 0,0 -0.3410089935003202,-0.44639171902766567 l 9.375875948796581 -7.035832105173803" fill="#ff970d" stroke="none" /><path d="M 81.99639281039703 110.81064883170644 l -8.020899660664416 4.816319787063107 a30.355841365569542,30.355841365569542 0 0,0 -0.2644229255663282,-0.44904793598477327 l 8.102396296360514 -4.677920682784776" fill="#ff770b" stroke="none" /><line stroke="#e1ed5e" stroke-width="0.3" x1="26.387840678322732" x2="22.057713659400548" y1="142.50000000000003" y2="145.00000000000006" /><path d="M 25.521815274538298 143.00000000000003 a86.0,86.0 0 0,1 -11.493303480769221,-40.785679425670985" fill="none" id="id141" stroke="none" /><text fill="#e1ed5e" style="font-size:6.75px; font-family:Arial;" text-anchor="middle"><textPath startOffset="21.40746469413373" xlink:href="#id141">September</textPath></text><path d="M 81.81346652052679 110.50000000000001 l -29.299783612236677 16.91623795572265 a54.83247591144527,54.83247591144527 0 0,0 -0.4636389635781747,-0.8192056236151882 l 29.58585594083623 -16.41077556200834" fill="#64ff29" stroke="none" /><path d="M 81.63589988554817 110.18625677009913 l -4.793943172076414 2.659119466115562 a26.482044096153622,26.482044096153622 0 0,0 -0.21709557346879765,-0.3994314031985481 l 4.838884095160542 -2.576433229442427" fill="#ff4206" stroke="none" /><path d="M 81.4637452351635 109.86951160357371 l -4.712765695877494 2.5092822854712944 a26.339162677088957,26.339162677088957 0 0,0 -0.20907266134413827,-0.40092439539110214 l 4.755146426196582 -2.428011646975689" fill="#ff4006" stroke="none" /><path d="M 81.29705330413844 109.54985784667822 l -7.427931230871086 3.7927546125882174 a29.340212822336085,29.340212822336085 0 0,0 -0.22519324043286845,-0.4505373318371037 l 7.4919443845156914 -3.6646854245873612" fill="#ff6a09" stroke="none" /><path d="M 81.1358732173502 109.22738970284198 l -7.500981990638647 3.669106170622317 a29.350273703010224,29.350273703010224 0 0,0 -0.2175005415591492,-0.4544924794850595 l 7.562861790157708 -3.539801189072153" fill="#ff6a09" stroke="none" /><path d="M 80.9802524753101 108.90220220490708 l -4.537698233497328 2.123871895092439 a26.010143419608696,26.010143419608696 0 0,0 -0.1858059802042543,-0.4060195993868495 l 4.573488678556638 -2.0456633134909006" fill="#ff3c05" stroke="none" /><path d="M 80.83023694016515 108.57439118712176 l -9.221323360385359 4.12458064860242 a31.101731041936045,31.101731041936045 0 0,0 -0.2138112463369842,-0.48924197422768423 l 9.290768488739312 -3.965676604598886" fill="#ff810b" stroke="none" /><path d="M 80.68587082218212 108.24405325689762 l -7.345476073828514 3.135346946910665 a28.986640046270345,28.986640046270345 0 0,0 -0.19141418229244897,-0.4593243556155354 l 7.398216100657448 -3.0087900818538484" fill="#ff6509" stroke="none" /><path d="M 80.41425534168474 107.57618678355246 l -2.433978101405686 0.9415150174286034 a23.60973177283912,23.60973177283912 0 0,0 -0.14297302118459693,-0.37925292490889334 l 2.4497818064047188 -0.8995938123255651" fill="#ff1902" stroke="none" /><path d="M 80.28708602549918 107.23885506374661 l -7.689148008005238 2.8235616543370674 a29.19118413325287,29.19118413325287 0 0,0 -0.16869700679178623,-0.4718755521470114 l 7.7364851848409675 -2.6911511458091346" fill="#ff6809" stroke="none" /><path d="M 80.16572619554312 106.89939002012753 l -7.507171854399593 2.611384065898505 a28.948393296202575,28.948393296202575 0 0,0 -0.1592362594175309,-0.47075370653888493 l 7.550893535389491 -2.4821286848854585" fill="#ff6409" stroke="none" /><path d="M 80.05021161711548 106.5578916946017 l -4.2306310315384135 1.3906924510764394 a25.453343060948345,25.453343060948345 0 0,0 -0.13288497623362427,-0.4162602953907619 l 4.253880723549293 -1.3178631219942858" fill="#ff3404" stroke="none" /><path d="M 79.94057633289273 106.21446072829308 l -3.8656431083816587 1.1975861163960808 a25.046901178378743,25.046901178378743 0 0,0 -0.12371222679651751,-0.41179776778444654 l 3.8856316551818058 -1.1310507450209109" fill="#ff2e04" stroke="none" /><path d="M 79.73907114497094 105.5222062557868 l -32.87372203199054 8.959879122767601 a55.072878277762015,55.072878277762015 0 0,0 -0.2407747403932902,-0.9142609070443537 l 33.02268625318856 -8.394237711350446" fill="#61ff29" stroke="none" /><path d="M 79.64726062577567 105.17358676015961 l -1.7713091275576922 0.45025985357470294 a22.82764054483104,22.82764054483104 0 0,0 -0.09328077614042364,-0.380617398795837 l 1.7787774302144093 -0.41978663017076634" fill="#ff0e01" stroke="none" /><path d="M 79.48165901384964 104.47187691870673 l -7.9692246307383074 1.736855416831342 a29.156298667541698,29.156298667541698 0 0,0 -0.10238343845871374,-0.4899418162468863 l 7.997865780021388 -1.5997971492990464" fill="#ff6709" stroke="none" /><path d="M 79.2786578344484 103.40968896794605 l -34.0150941743541 5.597170802128567 a55.47252460552285,55.47252460552285 0 0,0 -0.1465491853541737,-0.9409508972659842 l 34.106164851846536 -5.012431722931133" fill="#5dff2a" stroke="none" /><path d="M 79.22317932658666 103.0534771498775 l -1.2278180116564263 0.18044696547813985 a22.241006920648797,22.241006920648797 0 0,0 -0.05227217375559453,-0.3782154099412617 l 1.2307347019672334 -0.15934324733679253" fill="#ff0600" stroke="none" /><path d="M 79.17382384314188 102.69636545807758 l -3.2788998112453225 0.424519226426863 a24.306266859433865,24.306266859433865 0 0,0 -0.05002219735622217,-0.4142555523513624 l 3.285704094861206 -0.36816999715210136" fill="#ff2303" stroke="none" /><path d="M 79.0935383218832 101.97986365728391 l -12.167906309387227 1.1523133784234612 a33.222347159041064,33.222347159041064 0 0,0 -0.048894399817331534,-0.568227040776501 l 12.185894331902299 -0.9432652902712982" fill="#ff9d0e" stroke="none" /><path d="M 79.03789590574601 101.26102812881392 l -8.229477593202892 0.4950649364114816 a29.244355083831152,29.244355083831152 0 0,0 -0.02584422608207165,-0.5013710816517055 l 8.236763408741536 -0.3537220613830453" fill="#ff6809" stroke="none" /><path d="M 79.01933749520258 100.90099992219065 l -11.330940396527133 0.48659933466273564 a32.341383918294305,32.341383918294305 0 0,0 -0.019058797568761627,-0.5548760962422932 l 11.337623881092743 -0.2920169738563226" fill="#ff920d" stroke="none" /><path d="M 79.00696218219943 100.54070618675478 l -2.451362739933599 0.06313840859841251 a23.452175715844014,23.452175715844014 0 0,0 -0.006911209217981151,-0.40254328876246054 l 2.452085380750246 -0.02104820386689959" fill="#ff1702" stroke="none" /><line stroke="#e1ed5e" stroke-width="0.3" x1="15.003131293944662" x2="10.003315487706104" y1="100.72959589197737" y2="100.7725132973878" /><path d="M 14.003168132696942 100.73817937305945 a86.0,86.0 0 0,1 10.791469493833604,-42.45332614584628" fill="none" id="id142" stroke="none" /><text fill="#e1ed5e" style="font-size:6.75px; font-family:Arial;" text-anchor="middle"><textPath startOffset="22.145653131862435" xlink:href="#id142">October</textPath></text><path d="M 79.00696218219943 99.45929381324524 l -4.445497330958094 -0.11450024198082712 a25.446971646521845,25.446971646521845 0 0,0 0.014995916147999016,-0.43658973666932427 l 4.442876727813245 0.19079624321428992" fill="#ff3404" stroke="none" /><path d="M 79.01933749520258 99.09900007780938 l -10.37014325960356 -0.44533857154758294 a31.379701232116904,31.379701232116904 0 0,0 0.0277313037236091,-0.5379798837606491 l 10.36097036642338 0.623290248684944" fill="#ff850c" stroke="none" /><path d="M 79.06263194458094 98.37931529534042 l -10.305654108228525 -0.7977228054886912 a31.336482393582656,31.336482393582656 0 0,0 0.046118911818171196,-0.5359716630979734 l 10.290441573712611 0.9745155159623453" fill="#ff840c" stroke="none" /><path d="M 79.0935383218832 98.0201363427161 l -15.980906986636485 -1.5134085069208167 a37.052407714244836,37.052407714244836 0 0,0 0.0654021003219525,-0.6327059926122817 l 15.95257249383287 1.7875190218160113" fill="#ffcf13" stroke="none" /><path d="M 79.13060592940154 97.66154086499901 l -8.100106915223302 -0.9076338750569892 a29.150799426387533,29.150799426387533 0 0,0 0.059992225479586984,-0.49682168749717925 l 8.083332603484047 1.0465492394776048" fill="#ff6709" stroke="none" /><path d="M 79.17382384314186 97.30363454192245 l -8.915561067839601 -1.1542978759827411 a29.989974012246947,29.989974012246947 0 0,0 0.07048426980339048,-0.5099890645975967 l 8.894432281481002 1.307175248780405" fill="#ff720a" stroke="none" /><path d="M 79.22317932658666 96.9465228501225 l -8.059892807843502 -1.1845266851007987 a29.146470127708277,29.146470127708277 0 0,0 0.07700012724389592,-0.4943960530700785 l 8.038371188461339 1.3227109201023273" fill="#ff6709" stroke="none" /><path d="M 79.2786578344484 96.59031103205396 l -8.37848510399568 -1.378676535474979 a29.491157849630802,29.491157849630802 0 0,0 0.08648658754927807,-0.4988316540679721 l 8.353583698954168 1.5223012224635437" fill="#ff6c09" stroke="none" /><path d="M 79.34024301695615 96.23510406497455 l -5.308609844785978 -0.9674055528181805 a26.39603669259041,26.39603669259041 0 0,0 0.08506274628779827,-0.44508423267298935 l 5.29122080621602 1.0583923505244843" fill="#ff4106" stroke="none" /><path d="M 79.407916724674 95.88100663000787 l -33.28666259651032 -6.658264766658023 a54.94605126545411,54.94605126545411 0 0,0 0.192945123879823,-0.9233122646860612 l 33.16745976180613 7.2286934826294935" fill="#62ff29" stroke="none" /><path d="M 79.48165901384962 95.52812308129327 l -3.4896584714487258 -0.7605548218140221 a24.571576666451165,24.571576666451165 0 0,0 0.09335928249457144,-0.4113582246147442 l 3.4760883273964924 0.8203473803677744" fill="#ff2703" stroke="none" /><path d="M 79.56144815229197 95.17655741523228 l -4.030431677551307 -0.9511709016056246 a25.141147859165415,25.141147859165415 0 0,0 0.10273448019116468,-0.41919173740727916 l 4.013509670843844 1.0202184636210214" fill="#ff2f04" stroke="none" /><path d="M 79.73907114497095 94.47779374421319 l -7.843239007903607 -2.137709668938786 a29.12934196376159,29.12934196376159 0 0,0 0.13563385629008398,-0.48131670682593874 l 7.805386659538941 2.272034299667738" fill="#ff6709" stroke="none" /><path d="M 79.83685265289637 94.1308016681162 l -7.8258140894947505 -2.2779804268153194 a29.150617215173845,29.150617215173845 0 0,0 0.1439813948439703,-0.4792672360247825 l 7.78555637464715 2.4119852664308254" fill="#ff6709" stroke="none" /><path d="M 79.94057633289273 93.78553927170692 l -3.7798809961238207 -1.1710167947921026 a24.957117723614395,24.957117723614395 0 0,0 0.1302943188099484,-0.4081450979094565 l 3.759221961536615 1.2357309263929508" fill="#ff2d04" stroke="none" /><path d="M 80.28708602549916 92.7611449362534 l -7.655838819747023 -2.8113300590283163 a29.155700137617963,29.155700137617963 0 0,0 0.17655764044820152,-0.4683401175984035 l 7.606450495484387 2.9423384568208646" fill="#ff6709" stroke="none" /><path d="M 80.41425534168474 92.42381321644754 l -7.627646140216685 -2.950537387537626 a29.17842628600514,29.17842628600514 0 0,0 0.18471517394593256,-0.4656029032261324 l 7.575872291304621 3.0810413079773413" fill="#ff6709" stroke="none" /><path d="M 80.9802524753101 91.09779779509293 l -30.851896089798295 -14.440245173582772 a55.06405984331421,55.06405984331421 0 0,0 0.4080528501217503,-0.8526735165040789 l 30.59946398171664 14.967731192151938" fill="#61ff29" stroke="none" /><path d="M 81.29705330413844 90.45014215332179 l -6.975840760458895 -3.5619139971236136 a28.832597630300235,28.832597630300235 0 0,0 0.22886482740301511,-0.43887848350391184 l 6.9136678640809395 3.681138723732012" fill="#ff6309" stroke="none" /><line stroke="#e1ed5e" stroke-width="0.3" x1="26.387840678322718" x2="22.05771365940052" y1="57.49999999999999" y2="54.99999999999999" /><path d="M 25.521815274538284 56.99999999999999 a86.0,86.0 0 0,1 29.574782752854787,-30.34633250058573" fill="none" id="id143" stroke="none" /><text fill="#e1ed5e" style="font-size:6.75px; font-family:Arial;" text-anchor="middle"><textPath startOffset="21.40746469413373" xlink:href="#id143">November</textPath></text><path d="M 81.99639281039701 89.18935116829357 l -3.4087491381161477 -2.046855916120899 a24.97607719089641,24.97607719089641 0 0,0 0.22387132616960292,-0.3656769867147158 l 3.3731098474911514 2.105070018960158" fill="#ff2d04" stroke="none" /><path d="M 82.18462484594161 88.88188828441811 l -28.6752369790996 -17.895468686315457 a54.80113926054,54.80113926054 0 0,0 0.5049071869362072,-0.793797960718382 l 28.363812100537505 18.38508032171251" fill="#64ff29" stroke="none" /><path d="M 83.2033758604659 87.39550010848427 l -0.9261667795072086 -0.6950128177451669 a22.157941155798873,22.157941155798873 0 0,0 0.23091531465934334,-0.30227555937026124 l 0.9140994874935585 0.7108092903563125" fill="#ff0400" stroke="none" /><path d="M 83.42222388311158 87.10902102172516 l -32.53754106454406 -25.301388733347164 a62.21713054499109,62.21713054499109 0 0,0 0.6628600329557514,-0.8375019977107419 l 32.09841460094675 25.856210674972587" fill="#32ff49" stroke="none" /><path d="M 84.10781606972428 86.27271002978789 l -3.1450253362530463 -2.7165979794735753 a25.155849966944608,25.155849966944608 0 0,0 0.28508637946906773,-0.3243759672509338 l 3.097927892825386 2.7701862245358093" fill="#ff2f04" stroke="none" /><path d="M 84.34580500576568 86.00192230759919 l -6.049270249426435 -5.409294758688545 a29.115056397645745,29.115056397645745 0 0,0 0.33635141058036194,-0.36970912032246384 l 5.955521138004207 5.512341454568666" fill="#ff6609" stroke="none" /><path d="M 85.08716467003674 85.21462403516908 l -2.747310741939168 -2.7238295946428366 a24.868716062652634,24.868716062652634 0 0,0 0.3031710594301196,-0.3005798693642151 l 2.7001477623790717 2.770589474235725" fill="#ff2b04" stroke="none" /><path d="M 85.34317274990677 84.96080404539775 l -1.8777454293688363 -1.9267322308760262 a23.690394950004936,23.690394950004936 0 0,0 0.29367912505733457,-0.2813379585143547 l 1.8443938184462012 1.9586823196959495" fill="#ff1b02" stroke="none" /><path d="M 85.60350026404147 84.71141617570332 l -6.12553293826005 -6.505103706643716 a29.93524079204912,29.93524079204912 0 0,0 0.3771415953392529,-0.3490766302489209 l 6.012961571606844 6.609298083025002" fill="#ff720a" stroke="none" /><path d="M 85.86807049272753 84.46653392183569 l -2.2556632905998217 -2.4793690904176713 a24.35190810838814,24.35190810838814 0 0,0 0.3116290177289006,-0.2786605892530631 l 2.2127692460475292 2.517725209554135" fill="#ff2403" stroke="none" /><path d="M 86.13680546590413 84.22622945171909 l -5.550308014886379 -6.315231664951314 a29.407619760795306,29.407619760795306 0 0,0 0.38204772009888144,-0.33000372127991123 l 5.441080815024648 6.409579518695936" fill="#ff6a09" stroke="none" /><path d="M 86.40962598614128 83.9905735841838 l -3.6205877952969843 -4.265043319021332 a26.59457330782089,26.59457330782089 0 0,0 0.35057430779130666,-0.2924615561668341 l 3.5468391533437686 4.326567059100049" fill="#ff4406" stroke="none" /><path d="M 86.68645165197937 83.75963576809568 l -1.0907106154881385 -1.3304896038301794 a22.72042210885547,22.72042210885547 0 0,0 0.3037495716316581,-0.24467915360246886 l 1.067710273501235 1.349017051226047" fill="#ff0d01" stroke="none" /><path d="M 86.96720088162412 83.53348406188908 l -1.7549664559766425 -2.2173427868955486 a23.827811220042975,23.827811220042975 0 0,0 0.3229122911587128,-0.2510985507225475 l 1.716644220182685 2.2471423892389013" fill="#ff1d02" stroke="none" /><path d="M 87.25179093698888 83.31218511350988 l -11.200118353850598 -14.661314453819616 a39.44984532872948,39.44984532872948 0 0,0 0.5416783327843936,-0.4064855193578664 l 10.946787032155452 14.851419000441483" fill="#ffed16" stroke="none" /><path d="M 87.54013794807813 83.09580414077388 l -1.7881163984798687 -2.425923312235659 a24.013712688920602,24.013712688920602 0 0,0 0.33392667221849626,-0.24173715899553863 l 1.7462087158874047 2.456261242604277" fill="#ff1f03" stroke="none" /><path d="M 88.4268655584334 82.4767994020092 l -1.8859617909828623 -2.8555865267443603 a24.42216689960779,24.42216689960779 0 0,0 0.3518122085022971,-0.22804042307667202 l 1.8366639502235393 2.887540791524939" fill="#ff2503" stroke="none" /><path d="M 88.72937992617638 82.28071324371311 l -1.7627652091551378 -2.771359696310772 a24.284474957880406,24.284474957880406 0 0,0 0.35366969312514773,-0.2207160458075008 l 1.7149313872402916 2.801211538959809" fill="#ff2303" stroke="none" /><line stroke="#e1ed5e" stroke-width="0.3" x1="56.869717070023135" x2="54.33264160355391" y1="26.7553504044142" y2="22.446841604673864" /><path d="M 56.362301976729285 25.89364864446614 a86.0,86.0 0 0,1 42.16139366436587,-11.88097634709845" fill="none" id="id144" stroke="none" /><text fill="#e1ed5e" style="font-size:6.75px; font-family:Arial;" text-anchor="middle"><textPath startOffset="22.145653131862474" xlink:href="#id144">December</textPath></text><path d="M 89.65649057296885 81.72400993836675 l -0.6177769072312959 -1.0915526008377552 a22.254246940400467,22.254246940400467 0 0,0 0.33408479457954854,-0.18531120389041236 l 0.5989479244956448 1.1019967201613134" fill="#ff0600" stroke="none" /><path d="M 89.97174638481275 81.54914285379989 l -1.978570966163472 -3.6403477266484825 a25.14329272910566,25.14329272910566 0 0,0 0.3809941406835162,-0.20285792033365432 l 1.915788009693394 3.673776114704712" fill="#ff2f04" stroke="none" /><path d="M 90.28995756902619 81.37971332152246 l -4.385244441547809 -8.409284432821085 a30.484009357028967,30.484009357028967 0 0,0 0.4660755036938306,-0.2379814731055155 l 4.240241716140397 8.483323857599434" fill="#ff790b" stroke="none" /><path d="M 90.61103034731259 81.2157712731953 l -3.546333532872218 -7.095042660399046 a28.931967717991313,28.931967717991313 0 0,0 0.4461581530548873,-0.21823830992930784 l 3.4240151305552775 7.154874720425568" fill="#ff6409" stroke="none" /><path d="M 91.5904679813234 80.7573450057729 l -1.585695335996414 -3.628381247466352 a24.959744963449825,24.959744963449825 0 0,0 0.39408456964625954,-0.16821126906496026 l 1.5231756911797234 3.655067166190716" fill="#ff2d04" stroke="none" /><path d="M 92.93061703081487 80.22567764915836 l -3.0348489391275937 -8.489012615387606 a30.01518958577876,30.01518958577876 0 0,0 0.4866666097586936,-0.16928790958527126 l 2.8886765573238957 8.539858957541464" fill="#ff730a" stroke="none" /><path d="M 93.27111125876988 80.10723608172694 l -1.0017510964565137 -2.961499117168875 a24.126336878879794,24.126336878879794 0 0,0 0.39346294308888635,-0.12933908456040694 l 0.9507654157198663 2.97825912313131" fill="#ff2103" stroke="none" /><path d="M 93.61358852112211 79.99465700312896 l -3.1016332793008665 -9.715822071305986 a31.19888854339252,31.19888854339252 0 0,0 0.5116014054243635,-0.1584954231642561 l 2.934391241004887 9.767634082276885" fill="#ff830c" stroke="none" /><path d="M 93.95794788825049 79.88797359093562 l -5.561364892754832 -18.511974992076308 a40.329304115193196,40.329304115193196 0 0,0 0.6647421346233658,-0.19349674733319142 l 5.242762745749841 18.60471543371202" fill="#fff717" stroke="none" /><path d="M 94.30408787586887 79.78721728523814 l -0.6882399302621893 -2.442320714021646 a23.53744057501777,23.53744057501777 0 0,0 0.3898456955421884,-0.10625417788682667 l 0.6462128337853233 2.4537753860526124" fill="#ff1802" stroke="none" /><path d="M 95.00130118170881 79.60360301121753 l -1.224644397403808 -4.996967052332876 a26.144845344827466,26.144845344827466 0 0,0 0.4368278846163266,-0.10309019134878904 l 1.1386843590475753 5.017253387327898" fill="#ff3d05" stroke="none" /><path d="M 96.05791012581881 79.37332000966035 l -0.9134801391532299 -4.779714088014875 a25.866221606934406,25.866221606934406 0 0,0 0.43685001801196555,-0.07960862552153566 l 0.8312953875902259 4.794690887467772" fill="#ff3905" stroke="none" /><path d="M 96.76829788921471 79.25015418208739 l -0.6333397254653258 -4.066495364751055 a25.11551986502244,25.11551986502244 0 0,0 0.42657501883166526,-0.06269183785071501 l 0.5634396010259757 4.076768275900655" fill="#ff2f04" stroke="none" /><path d="M 97.12497278360702 79.19773525538626 l -0.4580304245255521 -3.3140799842661304 a24.345581864475065,24.345581864475065 0 0,0 0.41448025978681474,-0.05366276781329379 l 0.40107234284794335 3.321454348279819" fill="#ff2403" stroke="none" /><path d="M 98.9189461498227 79.02784411241856 l -0.41353245601204913 -8.02241917054991 a29.033070299716172,29.033070299716172 0 0,0 0.4979506672677711,-0.021384144202331812 l 0.27575602814345795 8.028335883178071" fill="#ff6509" stroke="none" /><path d="M 99.27912038922189 79.0123766808444 l -0.326284488825477 -9.499416884548483 a30.50501881713513,30.50501881713513 0 0,0 0.5235048874150917,-0.013483628900135292 l 0.16316628733964142 9.503618230798663" fill="#ff790b" stroke="none" /><path d="M 99.63950707515114 79.00309439819443 l -0.02926125399281442 -1.7043213487065696 a22.704572521379543,22.704572521379543 0 0,0 0.38975417884166613,-0.0033455708674082546 l 4.174998564443981e-16 1.7045725213795428" fill="#ff0c01" stroke="none" /></svg>