<?xml version="1.0" encoding="utf-8" ?>
<svg baseProfile="full" height="200mm" version="1.1" viewBox="0,0,200,200" width="200mm" xmlns="http://www.w3.org/2000/svg" xmlns:ev="http://www.w3.org/2001/xml-events" xmlns:xlink="http://www.w3.org/1999/xlink"><defs /><rect fill="#1a1a1a" height="200" width="200" x="0" y="0" /><text alignment-baseline="middle" fill="#e1ed5e" style="dominant-baseline: central; font-size:9.0px; font-family:Arial;" text-anchor="middle" x="100.0" y="100.0">2025</text><line stroke="#e1ed5e" stroke-width="0.3" x1="100.0" x2="100.0" y1="15.0" y2="10.0" /><path d="M 100.0 14.0 a86.0,86.0 0 0,1 42.46469731375804,11.215312516191453" fill="none" id="id133" stroke="none" /><text fill="#e1ed5e" style="font-size:6.75px; font-family:Arial;" text-anchor="middle"><textPath startOffset="22.20632615414155" xlink:href="#id133">January</textPath></text><path d="M 100.0 79.0 l 0.0 -7.6302748011605885 a28.63027480116059,28.63027480116059 0 0,0 0.49282311699179626,0.004241884157759213 l -0.13134263771926788 7.629144293611388" fill="#ff5808" stroke="none" /><path d="M 100.36148047927253 79.00311137660856 l 0.12388188734334947 -7.195780519707622 a28.196846810222894,28.196846810222894 0 0,0 0.48521854327167174,0.012531763438564466 l -0.24772706580988899 7.192581964126698" fill="#ff5207" stroke="none" /><path d="M 102.16513564639614 79.11191278185805 l 1.5967600987023007 -15.404699591759574 a36.48723385001871,36.48723385001871 0 0,0 0.624163299797798,0.0701320192786297 l -1.861690102009824 15.374931619010344" fill="#ffc112" stroke="none" /><path d="M 102.52436894288641 79.15227682838746 l 1.9427874232392401 -16.044680986556052 a37.16187522944816,37.16187522944816 0 0,0 0.6343802347993462,0.08236076131160235 l -2.2186823865464325 16.008861902080316" fill="#ffca12" stroke="none" /><path d="M 103.2404852339499 79.25152402106235 l 0.7209137897790907 -4.615932914430804 a25.671889699342152,25.671889699342152 0 0,0 0.43601967995140944,0.07194698315276386 l -0.8002626758693753 4.602839668338415" fill="#ff2e04" stroke="none" /><path d="M 105.01212808612495 79.60689891045804 l 3.8929894948587838 -15.839604843490601 a37.31099165608921,37.31099165608921 0 0,0 0.6223670824512022,0.15865522689795894 l -4.165065465995011 15.770246620423775" fill="#ffcc13" stroke="none" /><path d="M 105.36241919743992 79.69619591428918 l 2.76529997104425 -10.47029461574153 a31.829309916623654,31.829309916623654 0 0,0 0.5285213120228257,0.14446483958406456 l -2.9451191722907866 10.421143235331172" fill="#ff840c" stroke="none" /><path d="M 105.71112130821622 79.79150937346287 l 7.525414841067571 -26.62826913827478 a48.67122306351053,48.67122306351053 0 0,0 0.8042566913525382,0.2347845823763884 l -7.982661750143536 26.494786226979688" fill="#a9ff21" stroke="none" /><path d="M 106.0581310904928 79.89281104454417 l 4.789964011598003 -15.898089696702131 a37.6040058792085,37.6040058792085 0 0,0 0.6181644225797582,0.19206669516575273 l -5.06291380688848 15.813282866653857" fill="#ffd013" stroke="none" /><path d="M 106.40334571778207 80.00007090966166 l 4.702061440305248 -14.68621241601369 a36.420577710211774,36.420577710211774 0 0,0 0.5954195215128868,0.1963004548259974 l -4.954163784060552 14.603098236928458" fill="#ffc111" stroke="none" /><path d="M 106.74666289553966 80.11325718540242 l 5.193006064002748 -15.307119627652268 a37.16401012360567,37.16401012360567 0 0,0 0.6040354979219665,0.21073612467706704 l -5.455723565987988 15.215462649802994" fill="#ffca12" stroke="none" /><path d="M 107.08798089147638 80.2323363322302 l 5.004192839047707 -13.956189002980294 a35.826232072151186,35.826232072151186 0 0,0 0.5787091009450979,0.21314344580508635 l -5.243684265765381 13.867982289368884" fill="#ffb911" stroke="none" /><path d="M 108.43124777332544 80.76684994638697 l 7.10216175652323 -16.201272509201438 a38.68959955830621,38.68959955830621 0 0,0 0.6076438935090072,0.27263210262313864 l -7.379987768499017 16.07662007606177" fill="#ffdd14" stroke="none" /><path d="M 109.73455568895987 81.39251694778311 l 2.5159987714634684 -4.8093005983314 a26.427671882411136,26.427671882411136 0 0,0 0.40126638516339347,0.2143426062193357 l -2.598410203155173 4.76527926561031" fill="#ff3905" stroke="none" /><line stroke="#e1ed5e" stroke-width="0.3" x1="143.23703022742887" x2="145.7803849466894" y1="26.81831364943548" y2="22.513508569990506" /><path d="M 143.74570117128098 25.957352633546492 a86.0,86.0 0 0,1 28.547481713284135,27.462654790039103" fill="none" id="id134" stroke="none" /><text fill="#e1ed5e" style="font-size:6.75px; font-family:Arial;" text-anchor="middle"><textPath startOffset="19.985693538727396" xlink:href="#id134">February</textPath></text><path d="M 110.68208982089419 81.91981866633111 l 7.997429181435582 -13.536206138306598 a36.72220563823049,36.72220563823049 0 0,0 0.541456565607272,0.326221522379518 l -8.229247813260491 13.396538006468466" fill="#ffc412" stroke="none" /><path d="M 111.2981086023043 82.29822771554956 l 0.7998851322410522 -1.2532526428149904 a22.486761047210695,22.486761047210695 0 0,0 0.32448714669592627,0.21105546640823078 l -0.8213393047212586 1.2392982522472316" fill="#ff0000" stroke="none" /><path d="M 113.06298171725822 83.55741782278167 l 9.545295972066448 -12.014815363265747 a36.344981701120226,36.344981701120226 0 0,0 0.486497658829555,0.39338060646244805 l -9.750697029460493 11.84872865953917" fill="#ffc011" stroke="none" /><path d="M 114.42810811169701 84.74124197986012 l 2.679979059021727 -2.834269860197556 a24.90068883624665,24.90068883624665 0 0,0 0.3089069851159736,0.29716827493488307 l -2.728369287750119 2.787718498500371" fill="#ff2303" stroke="none" /><path d="M 114.68862486808459 84.99185889309783 l 10.832736898954051 -11.068377429033548 a36.487322803941936,36.487322803941936 0 0,0 0.4450831357194472,0.44317180728771316 l -11.021655834840821 10.880269771095715" fill="#ffc112" stroke="none" /><path d="M 115.19652480421416 85.50635884689758 l 14.33035414203249 -13.667533413553642 a40.803043186507296,40.803043186507296 0 0,0 0.4803736018454788,0.5124290653679753 l -14.563495065848432 13.418834931307611" fill="#fff817" stroke="none" /><path d="M 115.4437574822437 85.77008943001954 l 11.379529797691633 -10.485122648148089 a36.473574097901874,36.473574097901874 0 0,0 0.42145450972943477,0.46538059608811333 l -11.558327948037103 10.287689264790426" fill="#ffc112" stroke="none" /><path d="M 115.68641384162765 86.03803664274999 l 11.226434930340703 -9.992282156550862 a36.02925626707119,36.02925626707119 0 0,0 0.40834553051436895,0.4668095310403582 l -11.39677232443292 9.797557069307556" fill="#ffbb11" stroke="none" /><path d="M 115.9244219780498 86.31012108654704 l 15.175293704494035 -13.045869644560266 a41.0121026831394,41.0121026831394 0 0,0 0.45560420355014025,0.53929167204005 l -15.397608521531291 12.78271902289111" fill="#fffa17" stroke="none" /><path d="M 116.38621287248628 86.86637796730983 l 23.073753292811197 -18.493715233747107 a50.57051900397498,50.57051900397498 0 0,0 0.5385662008325903,0.6839243828033958 l -23.38867357423775 18.093798456990672" fill="#94ff23" stroke="none" /><path d="M 117.65298651832404 88.62581576622439 l 14.157875865637873 -9.122212170022038 a37.84221493455387,37.84221493455387 0 0,0 0.3480986486802365,0.5506084661408349 l -14.312802110564064 8.877156056166998" fill="#ffd313" stroke="none" /><line stroke="#e1ed5e" stroke-width="0.3" x1="172.23445277983987" x2="176.4835382374775" y1="55.19839476539836" y2="52.563006222186495" /><path d="M 173.08426987136738 54.67131705675599 a86.0,86.0 0 0,1 12.851231095245387,41.99856678651699" fill="none" id="id135" stroke="none" /><text fill="#e1ed5e" style="font-size:6.75px; font-family:Arial;" text-anchor="middle"><textPath startOffset="22.20632615414155" xlink:href="#id135">March</textPath></text><path d="M 117.84615892207809 88.93136811851018 l 5.361911875758391 -3.3255911814354358 a27.309489335076176,27.309489335076176 0 0,0 0.24433436204436518,0.40162144780614456 l -5.41836203608898 3.2328019604222096" fill="#ff4606" stroke="none" /><path d="M 118.3937258080291 89.86733742301442 l 13.262198279414557 -7.305827084566375 a36.14136759318953,36.14136759318953 0 0,0 0.29548476661518513,0.5474883961793141 l -13.385991145248207 7.076457705054602" fill="#ffbd11" stroke="none" /><path d="M 118.56541770881063 90.18545643968196 l 12.098015419790476 -6.395573813272404 a34.68449273807779,34.68449273807779 0 0,0 0.27448740517595127,0.5302222992136167 l -12.206312258126545 6.186378791798442" fill="#ffaa0f" stroke="none" /><path d="M 119.04729006885535 91.15688171328212 l 16.998158283071874 -7.891764330262609 a39.74079318654283,39.74079318654283 0 0,0 0.28272297257658596,0.6229425937223432 l -17.131483572611806 7.597999727698203" fill="#ffeb16" stroke="none" /><path d="M 119.196687751892 91.48605970444005 l 27.375057860883945 -12.141136597488996 a50.94663571698214,50.94663571698214 0 0,0 0.3486430883233825,0.8047163165598911 l -27.57999165905001 11.668121136342503" fill="#90ff24" stroke="none" /><path d="M 119.7369772167798 92.82701384747503 l 10.575699673792776 -3.843513952525871 a32.252467422459915,32.252467422459915 0 0,0 0.18513978971712025,0.5234151167225061 l -10.640292544319706 3.66090120937675" fill="#ff8a0c" stroke="none" /><path d="M 120.08093135843002 93.85539295169968 l 37.857769757332 -11.584179773921585 a60.59045278894516,60.59045278894516 0 0,0 0.29658767800168445,0.9999462085890548 l -38.05156333244538 10.930804178586001" fill="#30ff33" stroke="none" /><path d="M 120.28053869075195 94.5502522615342 l 14.669744841462824 -3.9420258994445923 a36.1901606938675,36.1901606938675 0 0,0 0.1564856829145886,0.6030031707974158 l -14.735426856247715 3.6889263030983264" fill="#ffbe11" stroke="none" /><path d="M 120.45610955862082 95.25157060432595 l 14.488902335483889 -3.3632753854638957 a35.874135679280926,35.874135679280926 0 0,0 0.1344521828290419,0.6027227721988975 l -14.544648905314968 3.1133744437150344" fill="#ffb911" stroke="none" /><path d="M 120.6074358757038 95.95851677861258 l 21.1197792346112 -4.1419628298696685 a42.52210331270474,42.52210331270474 0 0,0 0.13468223427022524,0.7194778809240846 l -21.187947192791288 3.777806871483021" fill="#f1ff19" stroke="none" /><path d="M 120.67395015179393 96.31383870115 l 61.831221928160254 -11.02449486715107 a83.806365061236,83.806365061236 0 0,0 0.24099573232403151,1.4223704541626445 l -62.011829522004504 9.958538624672586" fill="#4dd4ff" stroke="none" /><path d="M 120.94382443527127 98.46500227214037 l 3.029250269026761 -0.22201734427468883 a24.037375329714372,24.037375329714372 0 0,0 0.026692256499713428,0.41291739377819847 l -3.03262311653089 0.1698408862434551" fill="#ff1702" stroke="none" /><path d="M 120.96714384426684 98.82574320788733 l 62.90143153280055 -3.5227703763380056 a84.0,84.0 0 0,0 0.0684255670660141,1.444355573508001 l -62.95275070810006 2.4395036962070047" fill="#4dd2ff" stroke="none" /><line stroke="#e1ed5e" stroke-width="0.3" x1="184.98032266829074" x2="189.97916517819016" y1="98.17113171792111" y2="98.06355123074" /><path d="M 185.9800911702706 98.14961562048488 a86.0,86.0 0 0,1 -9.607161424134198,41.387399972396054" fill="none" id="id136" stroke="none" /><text fill="#e1ed5e" style="font-size:6.75px; font-family:Arial;" text-anchor="middle"><textPath startOffset="21.466115282336823" xlink:href="#id136">April</textPath></text><path d="M 120.95626037817324 101.35467743843564 l 14.852811666380848 0.96013165033664 a35.88381225301358,35.88381225301358 0 0,0 -0.045151133712734534,0.6160513467675119 l -14.834083974003777 -1.2156561336009222" fill="#ffba11" stroke="none" /><path d="M 120.8583938346157 102.4346265915055 l 9.711988522203649 1.1335995331199926 a30.7779225276592,30.7779225276592 0 0,0 -0.06595047915533797,0.5256902081233038 l -9.691036533801462 -1.3006074955306914" fill="#ff760a" stroke="none" /><path d="M 120.70491114924044 103.5080841355445 l 4.999382718292915 0.8470577379030242 a26.070634514072893,26.070634514072893 0 0,0 -0.07877497668536482,0.44181190381171126 l -4.984061299268361 -0.9329883924479537" fill="#ff3404" stroke="none" /><path d="M 120.41448212921028 104.9243191809786 l 4.6502529464658595 1.1217198474958292 a25.783629153935376,25.783629153935376 0 0,0 -0.10778623410131136,0.4305524258850862 l -4.630255398069488 -1.2016001127783114" fill="#ff3004" stroke="none" /><path d="M 120.02730092923936 106.31721596034902 l 16.01703447829832 5.052256727018165 a37.79496030107536,37.79496030107536 0 0,0 -0.20104713991254464,0.6187594727050129 l -15.92769508736953 -5.327215099700973" fill="#ffd213" stroke="none" /><path d="M 119.41010516605496 108.01547362559984 l 7.672224151799677 3.1682729079689644 a29.30066121792887,29.30066121792887 0 0,0 -0.1965223515696118,0.46452078734638175 l -7.616550819037756 -3.29986822098151" fill="#ff6109" stroke="none" /><path d="M 119.26925614724726 108.34839909993367 l 16.42675146806854 7.116884851336018 a38.90218460917181,38.90218460917181 0 0,0 -0.2714981894239996,0.6121567437223517 l -16.30181219391327 -7.398589931551057" fill="#ffe015" stroke="none" /><line stroke="#e1ed5e" stroke-width="0.3" x1="174.80103733775053" x2="179.2010983576182" y1="140.37084112569926" y2="142.7455964860345" /><path d="M 175.68104954172406 140.8457921977663 a86.0,86.0 0 0,1 -30.038265399797805,32.042727171017184" fill="none" id="id137" stroke="none" /><text fill="#e1ed5e" style="font-size:6.75px; font-family:Arial;" text-anchor="middle"><textPath startOffset="22.206326154141568" xlink:href="#id137">May</textPath></text><path d="M 118.48025628344425 109.97397251340804 l 1.6051946194051019 0.8663390143003522 a22.82405949844461,22.82405949844461 0 0,0 -0.18957401945767077,0.34413191081191286 l -1.5900441904959217 -0.8938414435100701" fill="#ff0500" stroke="none" /><path d="M 118.30583269289576 110.29060199501025 l 5.1675854628390345 2.90495199892845 a26.92812665450256,26.92812665450256 0 0,0 -0.2306176107699137,0.402101243193606 l -5.116815855916741 -2.993473087980371" fill="#ff4006" stroke="none" /><path d="M 117.94076556474637 110.91462005526583 l 1.2665884783588102 0.770554186094964 a22.482565387165018,22.482565387165018 0 0,0 -0.20398684272533676,0.3288917412979625 l -1.2531369959655103 -0.7922422587582" fill="#ff0000" stroke="none" /><path d="M 117.35343817320211 111.8261652097733 l 12.340075076517921 8.409616878185373 a35.933154687873525,35.933154687873525 0 0,0 -0.3527251385790896,0.5081268696071192 l -12.193489030776695 -8.62078500997951" fill="#ffba11" stroke="none" /><line stroke="#e1ed5e" stroke-width="0.3" x1="143.8653032363475" x2="146.44561519142675" y1="172.8068346515853" y2="177.08958963109032" /><path d="M 144.38136562736335 173.6633856474863 a86.0,86.0 0 0,1 -40.68145358897372,12.25698825130547" fill="none" id="id138" stroke="none" /><text fill="#e1ed5e" style="font-size:6.75px; font-family:Arial;" text-anchor="middle"><textPath startOffset="21.466115282336833" xlink:href="#id138">June</textPath></text><line stroke="#e1ed5e" stroke-width="0.3" x1="102.19456741930631" x2="102.32365962044197" y1="184.97166512339345" y2="189.96999836594603" /><path d="M 102.22038585953345 185.97133177190398 a86.0,86.0 0 0,1 -42.740103519485714,-10.115201625700543" fill="none" id="id139" stroke="none" /><text fill="#e1ed5e" style="font-size:6.75px; font-family:Arial;" text-anchor="middle"><textPath startOffset="22.20632615414155" xlink:href="#id139">July</textPath></text><line stroke="#e1ed5e" stroke-width="0.3" x1="58.666819895761336" x2="56.23545636021788" y1="174.27360380694188" y2="178.64263932499728" /><path d="M 58.180547188652646 175.14741091055294 a86.0,86.0 0 0,1 -31.652253787137756,-30.449443065178592" fill="none" id="id140" stroke="none" /><text fill="#e1ed5e" style="font-size:6.75px; font-family:Arial;" text-anchor="middle"><textPath startOffset="22.20632615414155" xlink:href="#id140">August</textPath></text><line stroke="#e1ed5e" stroke-width="0.3" x1="26.63291911575756" x2="22.317208475507996" y1="142.92168965132927" y2="145.44649492493687" /><path d="M 25.769776987707644 143.4266507060508 a86.0,86.0 0 0,1 -11.730757126820373,-40.83630448921669" fill="none" id="id141" stroke="none" /><text fill="#e1ed5e" style="font-size:6.75px; font-family:Arial;" text-anchor="middle"><textPath startOffset="21.46611528233685" xlink:href="#id141">September</textPath></text><line stroke="#e1ed5e" stroke-width="0.3" x1="15.007084014347285" x2="10.007500721073583" y1="101.09737516637583" y2="101.16192664675087" /><path d="M 14.007167355692545 101.11028546245083 a86.0,86.0 0 0,1 10.666146001902534,-42.60595125391555" fill="none" id="id142" stroke="none" /><text fill="#e1ed5e" style="font-size:6.75px; font-family:Arial;" text-anchor="middle"><textPath startOffset="22.20632615414155" xlink:href="#id142">October</textPath></text><line stroke="#e1ed5e" stroke-width="0.3" x1="26.266209847984243" x2="21.928928074336255" y1="57.711370442889674" y2="55.22380399835377" /><path d="M 25.398753493254645 57.213857153982495 a86.0,86.0 0 0,1 29.58750427330803,-30.492523968695096" fill="none" id="id143" stroke="none" /><text fill="#e1ed5e" style="font-size:6.75px; font-family:Arial;" text-anchor="middle"><textPath startOffset="21.46611528233685" xlink:href="#id143">November</textPath></text><line stroke="#e1ed5e" stroke-width="0.3" x1="56.762969772571076" x2="54.21961505331055" y1="26.818313649435495" y2="22.513508569990535" /><path d="M 56.25429882871897 25.957352633546506 a86.0,86.0 0 0,1 42.265352541879196,-11.944610805530505" fill="none" id="id144" stroke="none" /><text fill="#e1ed5e" style="font-size:6.75px; font-family:Arial;" text-anchor="middle"><textPath startOffset="22.20632615414155" xlink:href="#id144">December</textPath></text></svg>