<?xml version="1.0" encoding="utf-8" ?>
<svg baseProfile="full" height="200mm" version="1.1" viewBox="0,0,200,200" width="200mm" xmlns="http://www.w3.org/2000/svg" xmlns:ev="http://www.w3.org/2001/xml-events" xmlns:xlink="http://www.w3.org/1999/xlink"><defs /><rect fill="#1a1a1a" height="200" width="200" x="0" y="0" /><text alignment-baseline="middle" fill="#e1ed5e" style="dominant-baseline: central; font-size:9.0px; font-family:Arial;" text-anchor="middle" x="100.0" y="100.0">2020</text><line stroke="#e1ed5e" stroke-width="0.3" x1="100.0" x2="100.0" y1="15.0" y2="10.0" /><path d="M 100.0 14.0 a86.0,86.0 0 0,1 42.35913384403234,11.155469271406648" fill="none" id="id85" stroke="none" /><text fill="#e1ed5e" style="font-size:6.75px; font-family:Arial;" text-anchor="middle"><textPath startOffset="22.145653131862478" xlink:href="#id85">January</textPath></text><path d="M 108.07796709384702 80.6158196554323 l 1.3553042943266052 -3.252236925179468 a24.523335741555286,24.523335741555286 0 0,0 0.3871941891294803,0.16527017534970148 l -1.4109335586265153 3.228492100170365" fill="#ff2903" stroke="none" /><line stroke="#e1ed5e" stroke-width="0.3" x1="143.13028292997686" x2="145.6673583964461" y1="26.7553504044142" y2="22.446841604673864" /><path d="M 143.63769802327073 25.89364864446614 a86.0,86.0 0 0,1 29.32050498858742,28.57503671076993" fill="none" id="id86" stroke="none" /><text fill="#e1ed5e" style="font-size:6.75px; font-family:Arial;" text-anchor="middle"><textPath startOffset="20.669276256404974" xlink:href="#id86">February</textPath></text><line stroke="#e1ed5e" stroke-width="0.3" x1="172.87174338648825" x2="177.1583165268699" y1="56.24261187166439" y2="53.66864786411523" /><path d="M 173.72905801456457 55.72781907015455 a86.0,86.0 0 0,1 12.242430191666344,42.057860355516425" fill="none" id="id87" stroke="none" /><text fill="#e1ed5e" style="font-size:6.75px; font-family:Arial;" text-anchor="middle"><textPath startOffset="22.145653131862474" xlink:href="#id87">March</textPath></text><path d="M 118.8641267826498 90.77261029715802 l 5.389055668022484 -2.6360571762531264 a26.99922648593307,26.99922648593307 0 0,0 0.2000780790594906,0.4180862336732459 l -5.433513005041887 2.543158440514777" fill="#ff4b07" stroke="none" /><path d="M 119.4528033332814 92.08871423366111 l 10.181804003014115 -4.140851048798944 a31.991623181502064,31.991623181502064 0 0,0 0.20252422741587306,0.5104933517051554 l -10.251386905396112 3.9654566798802238" fill="#ff8f0d" stroke="none" /><path d="M 119.58574465831526 92.42381321644754 l 5.55241820882372 -2.147794642701357 a26.95334946000097,26.95334946000097 0 0,0 0.16322090570184475,0.4329628441842856 l -5.588469798340006 2.0521635183229137" fill="#ff4b06" stroke="none" /><path d="M 119.83427380445688 93.10060997987247 l 5.768107748055399 -2.0064472954392296 a27.10711861212406,27.10711861212406 0 0,0 0.1491079704222576,0.4408112198033645 l -5.801701140050021 1.9071344011617035" fill="#ff4d07" stroke="none" /><path d="M 119.94978838288452 93.4421083053983 l 1.4543431594848613 -0.4780714834483645 a22.530903775169076,22.530903775169076 0 0,0 0.117627716151711,0.36846714549108056 l -1.4623355914138296 0.4530353042658969" fill="#ff0c01" stroke="none" /><path d="M 120.43855184770803 95.1765574152323 l 2.873255590023306 -0.6780804957761434 a23.952184080363587,23.952184080363587 0 0,0 0.09100591102782805,0.40098883570609883 l -2.8844723626088005 0.6286573261310183" fill="#ff2003" stroke="none" /><path d="M 120.51834098615036 95.52812308129327 l 3.0691916922953815 -0.668916044290638 a24.14123961492345,24.14123961492345 0 0,0 0.08477287013056842,0.4056688716992173 l -3.0802222732503166 0.6161307213060162" fill="#ff2303" stroke="none" /><path d="M 120.7213421655516 96.59031103205396 l 3.017106506451159 -0.49646372749286105 a24.057680150700204,24.057680150700204 0 0,0 0.06355639035122489,0.4080776183329904 l -3.025184388940649 0.4445979272284294" fill="#ff2203" stroke="none" /><path d="M 120.77682067341334 96.94652285012252 l 10.103743506411572 -1.4849023539260433 a31.212275350970963,31.212275350970963 0 0,0 0.0733569971123331,0.5307746883576193 l -10.127745020079118 1.3112393573683383" fill="#ff850c" stroke="none" /><path d="M 120.82617615685814 97.30363454192243 l 6.304700864319161 -0.8162697513947563 a27.35732249422576,27.35732249422576 0 0,0 0.05630125732009581,0.4662551763394641 l -6.31778420789892 0.7079208981318792" fill="#ff5007" stroke="none" /><path d="M 120.86939407059847 97.66154086499901 l 2.4798139825443384 -0.27786832914108095 a23.495333283624067,23.495333283624067 0 0,0 0.041472180603325,0.40120572680775785 l -2.4842185556293295 0.23525808005039173" fill="#ff1a02" stroke="none" /><path d="M 120.9064616781168 98.02013634271609 l 6.3611250777838855 -0.6024051585029419 a27.38958560707985,27.38958560707985 0 0,0 0.04031013652023514,0.46846488910312306 l -6.370528837001862 0.49311922202415687" fill="#ff5107" stroke="none" /><path d="M 120.98066250479742 99.09900007780936 l 7.568682785020384 -0.32503180482645394 a28.57565870234481,28.57565870234481 0 0,0 0.01683965336727417,0.4902681341146964 l -7.573147125384506 0.1950574061476376" fill="#ff6108" stroke="none" /><path d="M 120.99303781780057 99.45929381324524 l 6.391197282130175 -0.1646145708501402 a27.39331687436532,27.39331687436532 0 0,0 0.008072638819829805,0.47019074043817116 l -6.393081352548672 0.05487691444290265" fill="#ff5107" stroke="none" /><line stroke="#e1ed5e" stroke-width="0.3" x1="184.99686870605535" x2="189.99668451229388" y1="99.2704041080226" y2="99.22748670261217" /><path d="M 185.99683186730306 99.26182062694052 a86.0,86.0 0 0,1 -10.086455211305974,41.156179273409016" fill="none" id="id88" stroke="none" /><text fill="#e1ed5e" style="font-size:6.75px; font-family:Arial;" text-anchor="middle"><textPath startOffset="21.40746469413373" xlink:href="#id88">April</textPath></text><path d="M 120.99922638620191 99.81974689727618 l 6.915009802879384 -0.05935704246484576 a27.915264552597257,27.915264552597257 0 0,0 0.0,0.4792202903773444 l -6.915009802879384 -0.05935704246484492" fill="#ff5808" stroke="none" /><path d="M 120.99303781780057 100.54070618675476 l 3.2979084628053696 0.08494242351517614 a24.299002189201442,24.299002189201442 0 0,0 -0.014319417035985568,0.41689420314820186 l -3.295964358772538 -0.14154289122748873" fill="#ff2503" stroke="none" /><path d="M 120.9064616781168 101.97986365728391 l 3.221582686469825 0.3050872298755826 a24.235996480776098,24.235996480776098 0 0,0 -0.04277954311262528,0.4138532731415761 l -3.215870750875534 -0.36034502530009016" fill="#ff2403" stroke="none" /><path d="M 120.86939407059847 102.33845913500097 l 3.066196135195511 0.3435736724217709 a24.08538516361722,24.08538516361722 0 0,0 -0.049567623733523136,0.4104910306568441 l -3.059846425202324 -0.3961583800020236" fill="#ff2203" stroke="none" /><path d="M 120.82617615685814 102.69636545807757 l 4.829359879400854 0.6252573235415583 a25.869667705851086,25.869667705851086 0 0,0 -0.06080047410373078,0.43992194289229075 l -4.817914888741912 -0.7080675746339341" fill="#ff3c05" stroke="none" /><path d="M 120.592083275326 104.11899336999214 l 3.692417382852169 0.7385868887503813 a24.76556193966091,24.76556193966091 0 0,0 -0.0869652014357899,0.41615997062754995 l -3.6791944705920145 -0.8018633106633403" fill="#ff2c04" stroke="none" /><path d="M 120.35273937422433 105.17358676015961 l 7.1130829282535135 1.8081178648676242 a28.339294172975016,28.339294172975016 0 0,0 -0.12389739579277706,0.47045859242920507 l -7.080996051656006 -1.9299569616696326" fill="#ff5e08" stroke="none" /><path d="M 120.26092885502905 105.52220625578681 l 2.2618962257252346 0.6164898745271539 a23.344404892791466,23.344404892791466 0 0,0 -0.10869767200184328,0.38572969138087987 l -2.2509800616488116 -0.6552274898110422" fill="#ff1802" stroke="none" /><path d="M 120.05942366710727 106.21446072829308 l 6.1839693110579415 1.91580950012813 a27.473932536016083,27.473932536016083 0 0,0 -0.14343392391917376,0.4493047237686543 l -6.150170671361513 -2.021683257588168" fill="#ff5207" stroke="none" /><path d="M 119.71291397450082 107.23885506374661 l 6.675780501553576 2.4514390693654744 a28.111652326691342,28.111652326691342 0 0,0 -0.1702352192015013,0.4515691440926983 l -6.632714598537634 -2.5656764936523317" fill="#ff5b08" stroke="none" /><path d="M 119.58574465831526 107.57618678355244 l 1.6138524979614366 0.6242728157117857 a22.730386209380175,22.730386209380175 0 0,0 -0.14389560291460632,0.36271091890981555 l -1.6028982200807058 -0.6518847518351654" fill="#ff0f01" stroke="none" /><path d="M 119.31412917781788 108.2440532568976 l 4.823729514197436 2.058963292923641 a26.244777999853415,26.244777999853415 0 0,0 -0.18042174843644676,0.4128402687459059 l -4.787673883744024 -2.1414656314453917" fill="#ff4106" stroke="none" /><path d="M 119.16976305983485 108.57439118712176 l 10.107618836214332 4.521009341717381 a32.072645754565194,32.072645754565194 0 0,0 -0.2291140531612053,0.5006555546605598 l -10.02852031819807 -4.69385387859263" fill="#ff900d" stroke="none" /><path d="M 118.8641267826498 109.22738970284198 l 2.9254772970458975 1.4309975435219906 a24.256711744244022,24.256711744244022 0 0,0 -0.18617613829215443,0.3724769910351161 l -2.900481245542011 -1.4810063907208524" fill="#ff2503" stroke="none" /><path d="M 118.70294669586154 109.54985784667822 l 3.1165734603871833 1.591344615338788 a24.499343912615263,24.499343912615263 0 0,0 -0.1944687116971743,0.3729193963401094 l -3.0887966797150597 -1.6446102547834003" fill="#ff2803" stroke="none" /><path d="M 118.5362547648365 109.86951160357373 l 3.066411647694462 1.6326914860743749 a24.47398357535208,24.47398357535208 0 0,0 -0.20063381361593685,0.36914361919593897 l -3.0379324844631865 -1.685089938744917" fill="#ff2803" stroke="none" /><line stroke="#e1ed5e" stroke-width="0.3" x1="174.33088141563837" x2="178.70328620479359" y1="141.23008692659167" y2="143.65538615756765" /><path d="M 175.20536237346943 141.71514677278685 a86.0,86.0 0 0,1 -30.301960400862466,31.631185727798858" fill="none" id="id89" stroke="none" /><text fill="#e1ed5e" style="font-size:6.75px; font-family:Arial;" text-anchor="middle"><textPath startOffset="22.145653131862474" xlink:href="#id89">May</textPath></text><path d="M 118.36410011445183 110.18625677009912 l 3.2505093373089533 1.80300273561333 a24.71707274835479,24.71707274835479 0 0,0 -0.20899654449748345,0.3692768684649422 l -3.2190794277900916 -1.8585363741773948" fill="#ff2b04" stroke="none" /><path d="M 118.18653347947321 110.5 l 1.873737991299291 1.0818031336674738 a23.16360626733495,23.16360626733495 0 0,0 -0.20177297878564268,0.34265462976456273 l -1.854891302383883 -1.113808931725586" fill="#ff1502" stroke="none" /><path d="M 117.81537515405839 111.11811171558189 l 2.8052265329732635 1.7506688302326499 a24.306680700407185,24.306680700407185 0 0,0 -0.2239482233727244,0.3520838039531289 l -2.774760617974649 -1.7985663088644506" fill="#ff2503" stroke="none" /><path d="M 117.62189284568427 111.42229804090321 l 11.302692128314707 7.326268482321379 a34.46941198503197,34.46941198503197 0 0,0 -0.32610617934280256,0.493766319377064 l -11.175261510051177 -7.519214680037504" fill="#ffaf10" stroke="none" /><path d="M 117.423217284605 111.72311816256416 l 4.750776977959023 3.196534771210925 a26.726055923396657,26.726055923396657 0 0,0 -0.25938307103028285,0.3784476523901746 l -4.69520417011342 -3.2776171586711436" fill="#ff4706" stroke="none" /><path d="M 117.21940702142032 112.02048342749411 l 5.1936386552753095 3.625563139687037 a27.33392378872901,27.33392378872901 0 0,0 -0.27188780844753446,0.3824442520245438 l -5.130635748297815 -3.714184618421085" fill="#ff5007" stroke="none" /><path d="M 117.01052211995028 112.31430620078461 l 4.100868546396006 2.9687125776263064 a26.062645277261357,26.062645277261357 0 0,0 -0.2654641518623469,0.3601531058678351 l -4.049302374949831 -3.038671992763019" fill="#ff3e05" stroke="none" /><path d="M 116.79662413953412 112.60449989151573 l 2.467033455020022 1.8513078972205932 a24.084411613014606,24.084411613014606 0 0,0 -0.2509917075282512,0.3285562020965349 l -2.4348897701374663 -1.8933850125580054" fill="#ff2203" stroke="none" /><path d="M 116.35404254752997 113.17365903436017 l 5.693818350540405 4.586537018942218 a28.31135344755525,28.31135344755525 0 0,0 -0.30812618486181903,0.3758638449145672 l -5.614245346439958 -4.683603145555278" fill="#ff5d08" stroke="none" /><path d="M 116.1254893667686 113.45245675266167 l 7.526670143585854 6.279015929079277 a30.801877600132435,30.801877600132435 0 0,0 -0.34220216658568237,0.40311329178282496 l -7.417773413493057 -6.407296003311659" fill="#ff7f0b" stroke="none" /><path d="M 115.89218393027572 113.72728997021213 l 2.939144039265797 2.5387626186706322 a24.88379753817202,24.88379753817202 0 0,0 -0.28200326194188224,0.3208679454650739 l -2.8951297133653293 -2.5888428419469993" fill="#ff2e04" stroke="none" /><path d="M 115.6541949942343 113.99807769240083 l 1.6485979665612371 1.4741864674585905 a23.21158336858186,23.21158336858186 0 0,0 -0.268151594872302,0.29474557601006013 l -1.6230486708470553 -1.5022696190263225" fill="#ff1602" stroke="none" /><path d="M 115.41159269507618 114.26474011684316 l 5.775403813857062 5.345627548333579 a28.86962661748431,28.86962661748431 0 0,0 -0.33975999051064937,0.36081333590344844 l -5.682787989610152 -5.443982344181524" fill="#ff6509" stroke="none" /><path d="M 115.16444852881244 114.52719865689866 l 2.1947517290988725 2.1025225091840527 a24.039331514331415,24.039331514331415 0 0,0 -0.2880291952627209,0.295543328326728 l -2.1583357326853445 -2.139888529578518" fill="#ff2203" stroke="none" /><path d="M 114.91283532996324 114.78537596483092 l 1.4314059779025554 1.4191718122892931 a23.01568144962731,23.01568144962731 0 0,0 -0.2805809721342607,0.27818285857737063 l -1.40683308563833 -1.4435346810953256" fill="#ff1302" stroke="none" /><path d="M 114.65682725009322 115.03919595460226 l 5.151681435378739 5.286078991062323 a28.3812229820929,28.3812229820929 0 0,0 -0.35182920128716755,0.33704441613459324 l -5.060179748226259 -5.373735537502496" fill="#ff5e08" stroke="none" /><path d="M 114.39649973595853 115.28858382429668 l 2.0427824586593157 2.1693641806562654 a23.97978205943331,23.97978205943331 0 0,0 -0.3021112582526427,0.2796296703794456 l -2.0052414290927056 -2.2041115971680907" fill="#ff2103" stroke="none" /><path d="M 114.13192950727249 115.5334660781643 l 1.37668144983747 1.5132140724650196 a23.04574403174805,23.04574403174805 0 0,0 -0.2949141621051005,0.2637140622853482 l -1.3505022609089916 -1.5366236646337548" fill="#ff1302" stroke="none" /><path d="M 113.86319453409587 115.77377054828091 l 1.2792037050071696 1.4554989961128664 a22.93774080996134,22.93774080996134 0 0,0 -0.2979945895637348,0.25740062904147093 l -1.2540296356805791 -1.477243757619055" fill="#ff1202" stroke="none" /><path d="M 113.59037401385872 116.0094264158162 l 2.965436823461594 3.493277121552927 a25.582226598708,25.582226598708 0 0,0 -0.3372293767527915,0.2813287400655853 l -2.9050331125469073 -3.5436680455303824" fill="#ff3705" stroke="none" /><path d="M 112.7482090630111 116.68781488649013 l 2.7498976939095585 3.5997043542294804 a25.529879553015487,25.529879553015487 0 0,0 -0.3505459267895313,0.26305619864352514 l -2.6876987782092607 -3.6463795801370207" fill="#ff3705" stroke="none" /><path d="M 112.45986205192187 116.90419585922612 l 6.1838035578812205 8.389517160126172 a31.422256215547378,31.422256215547378 0 0,0 -0.4369474053254502,0.3163162250325834 l -6.038875142181802 -8.494434156531833" fill="#ff870c" stroke="none" /><path d="M 112.16784306229584 117.11559508785304 l 3.0638110477563587 4.309633930238608 a26.28771053945068,26.28771053945068 0 0,0 -0.37003696558404514,0.2583145404966657 l -2.989378990998555 -4.361593286540395" fill="#ff4106" stroke="none" /><path d="M 111.8722381534696 117.32195027204791 l 3.8543610550113314 5.6236279682372015 a27.817718875659786,27.817718875659786 0 0,0 -0.3962087129706618,0.26658690431970977 l -3.7572560539436664 -5.688964546614032" fill="#ff5708" stroke="none" /><path d="M 111.5731344415666 117.5232005979908 l 6.231891899955842 9.435878622104553 a32.30806269985381,32.30806269985381 0 0,0 -0.46541205526891255,0.30167447127638236 l -6.068994212429921 -9.541466935084829" fill="#ff930d" stroke="none" /><path d="M 111.27062007382361 117.71928675628689 l 1.3381884895995166 2.103854572850663 a23.493381739205066,23.493381739205066 0 0,0 -0.34214851770883736,0.2135259802452719 l -1.3018758431009643 -2.1265163499374826" fill="#ff1a02" stroke="none" /><path d="M 110.96478420261333 117.91015095944535 l 1.4111684102854531 2.305037544778051 a23.70270130888043,23.70270130888043 0 0,0 -0.3488442169370531,0.20947092916224055 l -1.3713914367909634 -2.3289224744762147" fill="#ff1d02" stroke="none" /><line stroke="#e1ed5e" stroke-width="0.3" x1="143.1302829299769" x2="145.66735839644613" y1="173.24464959558577" y2="177.55315839532614" /><path d="M 143.63769802327073 174.10635135553383 a86.0,86.0 0 0,1 -40.68552437913181,11.842963189579606" fill="none" id="id90" stroke="none" /><text fill="#e1ed5e" style="font-size:6.75px; font-family:Arial;" text-anchor="middle"><textPath startOffset="21.407464694133747" xlink:href="#id90">June</textPath></text><path d="M 110.34350942703117 118.27599006163325 l 3.773124211829141 6.666748948522948 a28.66041825623922,28.66041825623922 0 0,0 -0.4302554011979327,0.23865541823501216 l -3.6581246224751136 -6.730537282191104" fill="#ff6209" stroke="none" /><path d="M 110.02825361518725 118.45085714620011 l 6.76340845445416 12.443909777625384 a35.163141758644606,35.163141758644606 0 0,0 -0.5328240466515993,0.28369879340819887 l -6.548795592016007 -12.558179038756151" fill="#ffb811" stroke="none" /><path d="M 109.71004243097381 118.62028667847754 l 3.10856407967028 5.961081502305379 a27.72292074284263,27.72292074284263 0 0,0 -0.4238607231008876,0.21642630534253507 l -3.00577613485581 -6.01356575932075" fill="#ff5507" stroke="none" /><path d="M 109.3889696526874 118.78422872680471 l 2.7297314917686015 5.461291558170774 a27.105500757554665,27.105500757554665 0 0,0 -0.4179923147120615,0.20446098698767154 l -2.6355789277944703 -5.507346295255669" fill="#ff4d07" stroke="none" /><path d="M 108.4095320186766 119.2426549942271 l 8.429675204897833 19.288746546299077 a42.05030088591215,42.05030088591215 0 0,0 -0.6639240405856293,0.2833896935621998 l -8.097316089141772 -19.43061088952068" fill="#f1ff19" stroke="none" /><path d="M 108.07796709384702 119.3841803445677 l 1.8375355310262835 4.409416343141021 a25.77697491253023,25.77697491253023 0 0,0 -0.40990979885930456,0.16670674666464347 l -1.761571270976538 -4.440310346384956" fill="#ff3a05" stroke="none" /><path d="M 107.74402155503746 119.51999308798841 l 1.9372581703477798 4.883156099977407 a26.253397254665384,26.253397254665384 0 0,0 -0.420339064799749,0.16259618017610658 l -1.8531468430545015 -4.915692168291554" fill="#ff4106" stroke="none" /><path d="M 107.407793817531 119.65005319985036 l 2.7508227026995073 7.296884036307794 a28.798175567465158,28.798175567465158 0 0,0 -0.46407690593329887,0.17041546799365065 l -2.6251566451120816 -7.343030353310166" fill="#ff6409" stroke="none" /><path d="M 107.06938296918513 119.77432235084164 l 0.7276583574095852 2.0353899319673823 a23.161550105887486,23.161550105887486 0 0,0 -0.37554162483546205,0.13063287136583066 l -0.6926109605291013 -2.047581235901803" fill="#ff1502" stroke="none" /><path d="M 106.0420521117495 120.11202640906438 l 0.7319479245375593 2.4364165876246875 a23.543987726520623,23.543987726520623 0 0,0 -0.38807217238787856,0.11296215355766999 l -0.690015739768074 -2.4486224354848756" fill="#ff1b02" stroke="none" /><path d="M 105.3480935250658 120.30758222061773 l 2.5673478899877633 9.748638111973637 a31.081032696427958,31.081032696427958 0 0,0 -0.5171213478676325,0.1314502244406496 l -2.3996212488947335 -9.791273568249556" fill="#ff830c" stroke="none" /><path d="M 103.2317021107853 120.74984581791261 l 0.3947641836457768 2.534669243723557 a23.565226488200928,23.565226488200928 0 0,0 -0.40024403185762086,0.05882208952286852 l -0.3511950461804705 -2.541072406545308" fill="#ff1b02" stroke="none" /><path d="M 102.51750503828377 120.84855314841334 l 0.08421974423345532 0.6974602978328006 a21.70252674850981,21.70252674850981 0 0,0 -0.37024934183520974,0.04148721101885947 l -0.0722345007974463 -0.6988032693586309" fill="#ff0000" stroke="none" /><path d="M 102.15924093988457 120.88869738790638 l 1.7871136089373785 17.28870302769355 a38.38082355445303,38.38082355445303 0 0,0 -0.6559473491112325,0.06211889594672162 l -1.4900666964411309 -17.316833679145454" fill="#ffe115" stroke="none" /><path d="M 101.80034050326958 120.92268563240118 l 1.125248232933116 13.077090135625973 a34.12541313639328,34.12541313639328 0 0,0 -0.584082454634486,0.04521167598432337 l -0.900596783523394 -13.094479578605348" fill="#ffab0f" stroke="none" /><path d="M 101.44090949804482 120.95050786540614 l 1.6456962297555806 23.928061999971035 a44.98458811727001,44.98458811727001 0 0,0 -0.7708551476664004,0.046372731481417594 l -1.2346967299567149 -23.952786709277145" fill="#ceff1d" stroke="none" /><path d="M 101.08105385017728 120.97215588758144 l 0.16673310388738952 3.234577672308566 a24.23887212562167,24.23887212562167 0 0,0 -0.4157246348447399,0.017853004573242254 l -0.11118270844182006 -3.2369632453076393" fill="#ff2403" stroke="none" /><path d="M 100.72087961077811 120.9876233191556 l 0.09720762029027476 2.8300938019340953 a23.831762745921395,23.831762745921395 0 0,0 -0.40898333313594865,0.010533959897824175 l -0.048610973083582296 -2.8313454791819646" fill="#ff1f03" stroke="none" /><line stroke="#e1ed5e" stroke-width="0.3" x1="101.45913802915013" x2="101.54496967792366" y1="184.9874750549273" y2="189.98673829345242" /><path d="M 101.47630435890484 185.9873277026323 a86.0,86.0 0 0,1 -42.54439059252881,-10.42667462771756" fill="none" id="id91" stroke="none" /><text fill="#e1ed5e" style="font-size:6.75px; font-family:Arial;" text-anchor="middle"><textPath startOffset="22.145653131862474" xlink:href="#id91">July</textPath></text><path d="M 100.36049292484886 120.99690560180557 l 0.053868105171952674 3.137547067582116 a24.138009460477765,24.138009460477765 0 0,0 -0.41436103002080454,0.0035567910900835805 l -3.842953241468207e-16 -3.1380094604777646" fill="#ff2303" stroke="none" /><path d="M 100.0 121.0 l 6.67112976072274e-16 5.447390843929401 a26.4473908439294,26.4473908439294 0 0,0 -0.45400463237851724,-0.003897083736903311 l 0.09351170752966444 -5.446588158386933" fill="#ff4406" stroke="none" /><path d="M 99.63950707515114 120.99690560180557 l -0.13913209545400357 8.103747044838672 a29.10494132654376,29.10494132654376 0 0,0 -0.4994777785161215,-0.01286477580491736 l 0.278223188040869 -8.100164551683706" fill="#ff6809" stroke="none" /><path d="M 99.27912038922189 120.98762331915562 l -0.11316725204757767 3.294741067062287 a24.296684019726904,24.296684019726904 0 0,0 -0.4167161755584235,-0.017895585597828088 l 0.16970918820683992 -3.29231291303863" fill="#ff2503" stroke="none" /><path d="M 98.91894614982273 120.97215588758144 l -0.16617888561723612 3.2238259859282343 a24.228106164544645,24.228106164544645 0 0,0 -0.41517242097362306,-0.024975741881704056 l 0.2214956587233055 -3.2204982662218384" fill="#ff2403" stroke="none" /><path d="M 98.55909050195518 120.95050786540614 l -0.3249763832308578 4.7250852896644195 a25.736247527765087,25.736247527765087 0 0,0 -0.4404954914103786,-0.03409713692335499 l 0.4060408694164725 -4.718810385746011" fill="#ff3a05" stroke="none" /><path d="M 98.19965949673042 120.92268563240118 l -0.5826595707375887 6.771387416498582 a27.796409325495887,27.796409325495887 0 0,0 -0.47505444967853844,-0.04498815029680695 l 0.6988135838011423 -6.760387510696591" fill="#ff5608" stroke="none" /><path d="M 96.41257539226777 120.69131181640829 l -1.0893028445838544 6.282809336593432 a27.376540899829944,27.376540899829944 0 0,0 -0.46235753203278895,-0.08425694427612644 l 1.1969951101677005 -6.263184218385939" fill="#ff5007" stroke="none" /><path d="M 95.70440661134978 120.55596938700252 l -0.27709716978416704 1.3260102677218732 a22.354653487651447,22.354653487651447 0 0,0 -0.3749594819908066,-0.08172067391299905 l 0.2998190683941101 -1.3210581356751554" fill="#ff0901" stroke="none" /><path d="M 95.35216902796893 120.47920084513623 l -1.0524832493266203 4.637435392725237 a25.755368336082263,25.755368336082263 0 0,0 -0.43032050560557483,-0.10155446762092651 l 1.1319359086720828 -4.618684781458083" fill="#ff3a05" stroke="none" /><path d="M 95.00130118170881 120.39639698878247 l -1.063736324465342 4.340407204729403 a25.468855521367182,25.468855521367182 0 0,0 -0.42374682413206105,-0.10771478564530514 l 1.1380884418227817 -4.3215071872488355" fill="#ff3605" stroke="none" /><path d="M 94.30408787586889 120.21278271476187 l -2.7875441675353576 9.892010855906415 a31.277270126805597,31.277270126805597 0 0,0 -0.5155387568776014,-0.15006581858472431 l 2.9569429367945657 -9.842701343019174" fill="#ff850c" stroke="none" /><path d="M 93.95794788825049 120.11202640906438 l -1.8668824938613853 6.21424465143984 a27.488612088408026,27.488612088408026 0 0,0 -0.45076005057149277,-0.13964661590717922 l 1.9732831773045119 -6.181281447726011" fill="#ff5207" stroke="none" /><path d="M 93.27111125876986 119.89276391827306 l -1.8635234655131483 5.509175999369862 a26.815818076466204,26.815818076466204 0 0,0 -0.4347919653775004,-0.1512432154729611 l 1.9578212029356705 -5.476374351328311" fill="#ff4906" stroke="none" /><path d="M 92.25597844496254 119.51999308798841 l -1.3825888851321235 3.485027164439252 a24.749262109024972,24.749262109024972 0 0,0 -0.39356693667320714,-0.16006024688880363 l 1.4422102829957717 -3.460779660971157" fill="#ff2c04" stroke="none" /><path d="M 90.6110303473126 118.78422872680471 l -0.7464992481250303 1.4934985562717935 a22.66967034621723,22.66967034621723 0 0,0 -0.34660066861415156,-0.17697677102192458 l 0.7720271384527642 -1.4804638335770328" fill="#ff0e01" stroke="none" /><line stroke="#e1ed5e" stroke-width="0.3" x1="58.13341422392154" x2="55.67067388415222" y1="173.97424548756322" y2="178.32567169271397" /><path d="M 57.64086615596768 174.84453072859336 a86.0,86.0 0 0,1 -31.369924170532247,-30.572349798747897" fill="none" id="id92" stroke="none" /><text fill="#e1ed5e" style="font-size:6.75px; font-family:Arial;" text-anchor="middle"><textPath startOffset="22.145653131862474" xlink:href="#id92">August</textPath></text><path d="M 88.72937992617639 117.7192867562869 l -1.592183420935757 2.50317679234798 a23.96663818145257,23.96663818145257 0 0,0 -0.3452501141136731,-0.2237869527749424 l 1.6349191673064398 -2.4754759978691427" fill="#ff2103" stroke="none" /><path d="M 86.68645165197938 116.24036423190432 l -1.7752288695096718 2.1654905726252287 a23.800140524914656,23.800140524914656 0 0,0 -0.31373760704047715,-0.2617310702578279 l 1.8121408107120418 -2.1346973184555305" fill="#ff1e03" stroke="none" /><path d="M 84.83555147118756 114.52719865689866 l -3.0742044324437807 2.945018304963484 a25.25721337367849,25.25721337367849 0 0,0 -0.2972463305420634,-0.31566530228219786 l 3.1243065967220973 -2.891811542736796" fill="#ff3304" stroke="none" /><path d="M 83.8745106332314 113.45245675266167 l -2.101657858180207 1.7532777333458591 a23.736959729900498,23.736959729900498 0 0,0 -0.2583408403749196,-0.3151338196243315 l 2.131445517793756 -1.7169416320230324" fill="#ff1d03" stroke="none" /><path d="M 82.18462484594161 111.11811171558189 l -11.018030387583497 6.876065851856266 a33.98758157705957,33.98758157705957 0 0,0 -0.3046453173089481,-0.4976152308397434 l 11.134443669347851 -6.685913504891966" fill="#ffa90f" stroke="none" /><line stroke="#e1ed5e" stroke-width="0.3" x1="26.387840678322732" x2="22.057713659400548" y1="142.50000000000003" y2="145.00000000000006" /><path d="M 25.521815274538298 143.00000000000003 a86.0,86.0 0 0,1 -11.493303480769221,-40.785679425670985" fill="none" id="id93" stroke="none" /><text fill="#e1ed5e" style="font-size:6.75px; font-family:Arial;" text-anchor="middle"><textPath startOffset="21.40746469413373" xlink:href="#id93">September</textPath></text><path d="M 80.5471966667186 107.91128576633889 l -11.181359018473927 4.547361371809859 a33.07067872763734,33.07067872763734 0 0,0 -0.20935523094389097,-0.5277119429375361 l 11.257772924383943 -4.354748411658758" fill="#ff9d0e" stroke="none" /><path d="M 80.16572619554312 106.89939002012753 l -59.50282141337066 20.698170060382587 a84.0,84.0 0 0,0 -0.46205831371053074,-1.3659933021033535 l 59.849365148653554 -19.673675083805072" fill="#4dd2ff" stroke="none" /><path d="M 79.73907114497094 105.5222062557868 l -1.6259165196838148 0.4431507775694319 a22.68522613931814,22.68522613931814 0 0,0 -0.09917820904346904,-0.3765958140418097 l 1.6332842095320166 -0.4151744591548196" fill="#ff0e01" stroke="none" /><path d="M 79.64726062577567 105.17358676015961 l -5.296684255548658 1.3463964252378056 a26.46513013906075,26.46513013906075 0 0,0 -0.10814467991909484,-0.441267198532417 l 5.319016461984046 -1.255273402097289" fill="#ff4406" stroke="none" /><path d="M 79.22317932658666 103.0534771498775 l -2.859760283314531 0.42028628039332916 a23.890479101379228,23.890479101379228 0 0,0 -0.056148864084579204,-0.4062652099906683 l 2.8665536639543228 -0.37113276220257524" fill="#ff2003" stroke="none" /><path d="M 79.06263194458094 101.62068470465958 l -3.4529703573923047 0.2672817437729571 a24.463299556721054,24.463299556721054 0 0,0 -0.02881548227931779,-0.41897078821223166 l 3.4570498008366886 -0.2079675314063821" fill="#ff2803" stroke="none" /><line stroke="#e1ed5e" stroke-width="0.3" x1="15.003131293944662" x2="10.003315487706104" y1="100.72959589197737" y2="100.7725132973878" /><path d="M 14.003168132696942 100.73817937305945 a86.0,86.0 0 0,1 10.791469493833604,-42.45332614584628" fill="none" id="id94" stroke="none" /><text fill="#e1ed5e" style="font-size:6.75px; font-family:Arial;" text-anchor="middle"><textPath startOffset="22.145653131862435" xlink:href="#id94">October</textPath></text><path d="M 79.00077361379809 100.18025310272382 l -2.245177916295846 0.019272152132482814 a23.24526062889598,23.24526062889598 0 0,0 0.0,-0.39905050971259987 l 2.245177916295846 0.019272152132481988" fill="#ff1602" stroke="none" /><path d="M 79.00696218219943 99.45929381324524 l -3.3582734495358983 -0.08649721144400617 a24.359387195523215,24.359387195523215 0 0,0 0.014355001957595844,-0.4179302193144549 l 3.3562937605814525 0.1441336953225996" fill="#ff2603" stroke="none" /><path d="M 79.01933749520258 99.09900007780938 l -2.398106620079598 -0.10298501668393326 a23.400316911353787,23.400316911353787 0 0,0 0.020679651813679215,-0.40117972057196677 l 2.395985378809349 0.144136530632612" fill="#ff1902" stroke="none" /><path d="M 79.22317932658666 96.9465228501225 l -6.214415644458929 -0.9133050945796658 a27.28116931772111,27.28116931772111 0 0,0 0.07207231268906882,-0.4627559486524467 l 6.197821839631592 1.0198492251635625" fill="#ff4f07" stroke="none" /><path d="M 79.2786578344484 96.59031103205396 l -3.505184224691504 -0.5767767302939547 a24.55232147273227,24.55232147273227 0 0,0 0.07200281899464529,-0.41529312595656365 l 3.4947665882046244 0.636862889171111" fill="#ff2904" stroke="none" /><path d="M 80.16572619554312 93.10060997987247 l -1.4453707702177596 -0.5027749826254606 a22.530320014426366,22.530320014426366 0 0,0 0.13020360980030124,-0.3642026698309069 l 1.4365269903735152 0.5275126088372889" fill="#ff0c01" stroke="none" /><path d="M 80.41425534168474 92.42381321644754 l -5.240210932002056 -2.0270261610505482 a26.618598194341466,26.618598194341466 0 0,0 0.1685100816428522,-0.42475548467258034 l 5.204642175393072 2.1166826629367113" fill="#ff4606" stroke="none" /><path d="M 80.68587082218212 91.75594674310238 l -7.257298007540606 -3.0977089738042873 a28.89076518828437,28.89076518828437 0 0,0 0.19861179122817454,-0.45446264642329987 l 7.203052334295454 3.221833690003454" fill="#ff6509" stroke="none" /><line stroke="#e1ed5e" stroke-width="0.3" x1="26.387840678322718" x2="22.05771365940052" y1="57.49999999999999" y2="54.99999999999999" /><path d="M 25.521815274538284 56.99999999999999 a86.0,86.0 0 0,1 29.574782752854787,-30.34633250058573" fill="none" id="id95" stroke="none" /><text fill="#e1ed5e" style="font-size:6.75px; font-family:Arial;" text-anchor="middle"><textPath startOffset="21.40746469413373" xlink:href="#id95">November</textPath></text><path d="M 82.18462484594161 88.88188828441811 l -3.326755932750444 -2.0761417478412447 a24.921437184658142,24.921437184658142 0 0,0 0.22961224735657335,-0.36098859042511733 l 3.2906259937679807 2.132944012945034" fill="#ff2e04" stroke="none" /><path d="M 82.37810715431573 88.57770195909679 l -7.126959340387108 -4.619608938958989 a29.49319352119336,29.49319352119336 0 0,0 0.27902746527821953,-0.4224831458673811 l 7.046607436188159 4.741271963165431" fill="#ff6d0a" stroke="none" /><path d="M 82.576782715395 88.27688183743585 l -3.153481962668306 -2.121803399911705 a24.800854924454658,24.800854924454658 0 0,0 0.2406985128265874,-0.35118632357619495 l 3.1165937130264054 2.1756244585579347" fill="#ff2c04" stroke="none" /><path d="M 82.78059297857968 87.97951657250589 l -3.691840769682232 -2.577191580041528 a25.502399883276123,25.502399883276123 0 0,0 0.25366982318416087,-0.3568183742508093 l 3.6470558479680992 2.6401871810018576" fill="#ff3605" stroke="none" /><path d="M 82.98947788004972 87.6856937992154 l -5.797336433976948 -4.1968245003619815 a28.156985791208136,28.156985791208136 0 0,0 0.286796304540311,-0.3890942679340411 l 5.7244381098528185 4.295725077564886" fill="#ff5b08" stroke="none" /><path d="M 83.2033758604659 87.39550010848427 l -2.692364812364305 -2.0204007485939943 a24.36613241982199,24.36613241982199 0 0,0 0.25392761426672206,-0.33239939826106124 l 2.6572852207432764 2.06632106009594" fill="#ff2603" stroke="none" /><path d="M 84.58840730492382 85.73525988315684 l -1.3846440774920528 -1.2816058865908502 a22.88673073592342,22.88673073592342 0 0,0 0.26934866601105906,-0.28603894931397833 l 1.362439577744722 1.3051862958493397" fill="#ff1101" stroke="none" /><path d="M 85.34317274990677 84.96080404539775 l -1.3616456375857022 -1.3971683785964275 a22.950937805391536,22.950937805391536 0 0,0 0.28451240885417506,-0.27255645175123744 l 1.3374607428662268 1.4203369606532332" fill="#ff1202" stroke="none" /><path d="M 85.86807049272753 84.46653392183569 l -2.228528838689354 -2.449543574511727 a24.31158640356881,24.31158640356881 0 0,0 0.31111302476399305,-0.27819918516207226 l 2.186150787101969 2.4874382895572" fill="#ff2603" stroke="none" /><path d="M 86.40962598614128 83.9905735841838 l -9.91451031051979 -11.679268216110746 a36.32001373241088,36.32001373241088 0 0,0 0.4787767611772976,-0.39941260245968707 l 9.712559215180583 11.847743002482314" fill="#ffc712" stroke="none" /><path d="M 86.96720088162412 83.53348406188908 l -4.01468940496152 -5.072428913613315 a27.4689462899278,27.4689462899278 0 0,0 0.3722566164505735,-0.28946899652598174 l 3.927022843875702 5.140598961760102" fill="#ff5207" stroke="none" /><path d="M 87.25179093698888 83.31218511350988 l -6.147771596454502 -8.047630365878401 a31.127163971615197,31.127163971615197 0 0,0 0.42740117594762655,-0.3207298104138591 l 6.008717431596124 8.15197920355626" fill="#ff830c" stroke="none" /><path d="M 87.54013794807813 83.09580414077388 l -7.777437573974799 -10.551587769231809 a34.108185979336625,34.108185979336625 0 0,0 0.47429704798393696,-0.34335448599501484 l 7.595159515616894 10.683543026599903" fill="#ffab0f" stroke="none" /><path d="M 87.83215693770416 82.88440491214696 l -1.8885891752753048 -2.6565371895267877 a24.25944150312687,24.25944150312687 0 0,0 0.3414861901765328,-0.23838388189726187 l 1.8427078939250066 2.6885658872291764" fill="#ff2503" stroke="none" /><path d="M 88.4268655584334 82.4767994020092 l -4.8456869780205185 -7.33698769159302 a29.79272828395971,29.79272828395971 0 0,0 0.42917754096001387,-0.2781876968743348 l 4.719023804803479 7.41908923017126" fill="#ff710a" stroke="none" /><line stroke="#e1ed5e" stroke-width="0.3" x1="56.869717070023135" x2="54.33264160355391" y1="26.7553504044142" y2="22.446841604673864" /><path d="M 56.362301976729285 25.89364864446614 a86.0,86.0 0 0,1 42.16139366436587,-11.88097634709845" fill="none" id="id96" stroke="none" /><text fill="#e1ed5e" style="font-size:6.75px; font-family:Arial;" text-anchor="middle"><textPath startOffset="22.145653131862474" xlink:href="#id96">December</textPath></text><path d="M 89.34428304082924 81.90426304109057 l -3.32055558618075 -5.639029328125126 a27.544061518993498,27.544061518993498 0 0,0 0.40949826056887095,-0.2364239309721199 l 3.2232648577514795 5.69520015637342" fill="#ff5307" stroke="none" /><path d="M 89.97174638481275 81.54914285379989 l -3.126795288890282 -5.752951153265067 a27.547770288463113,27.547770288463113 0 0,0 0.41742898123483874,-0.22225742072667795 l 3.0275774918688816 5.80577904171432" fill="#ff5307" stroke="none" /><path d="M 90.28995756902619 81.37971332152246 l -3.025675825908273 -5.802132346490797 a27.543657537622252,27.543657537622252 0 0,0 0.42111993570352413,-0.21502683976856093 l 2.9256286684911665 5.853217137932192" fill="#ff5307" stroke="none" /><path d="M 90.93487009805054 81.0573650232925 l -0.9609616807874449 -2.008040319625788 a23.226134155253153,23.226134155253153 0 0,0 0.361123568324965,-0.16902406417399582 l 0.9263493985909574 2.0242406153703265" fill="#ff1602" stroke="none" /><path d="M 91.26138138417902 80.90454125486306 l -5.466487124252832 -11.945260910346466 a34.136656336217115,34.136656336217115 0 0,0 0.5349483843606129,-0.23927560805575293 l 5.2606253370366005 12.037340269312065" fill="#ffab0f" stroke="none" /><path d="M 91.92203290615298 80.6158196554323 l -1.261708572495645 -3.0276412651113223 a24.28001831581988,24.28001831581988 0 0,0 0.3861049427991635,-0.15702551894174063 l 1.2095491685060404 3.0488540406323543" fill="#ff2503" stroke="none" /><path d="M 92.592206182469 80.34994680014964 l -2.327455807021709 -6.173853046509399 a27.59799302618095,27.59799302618095 0 0,0 0.4447362015539706,-0.16331329344889148 l 2.2211304538136116 6.212897188967013" fill="#ff5407" stroke="none" /><path d="M 92.93061703081487 80.22567764915836 l -1.0607872037525568 -2.9672106043887023 a24.15112809362646,24.15112809362646 0 0,0 0.3915866530705499,-0.13621416507838002 l 1.0096947786370025 2.984983202035668" fill="#ff2303" stroke="none" /><path d="M 93.27111125876988 80.10723608172694 l -1.5702739124429947 -4.64223580274875 a25.90062377748194,25.90062377748194 0 0,0 0.42239879640606287,-0.13885087428483942 l 1.4903523783891708 4.6685075984356175" fill="#ff3c05" stroke="none" /><path d="M 93.61358852112211 79.99465700312896 l -0.9778579368200364 -3.0631260596028227 a24.215423362734658,24.215423362734658 0 0,0 0.39708608875891366,-0.12301828533539487 l 0.9251312151895066 3.0794609327448597" fill="#ff2403" stroke="none" /><path d="M 93.95794788825049 79.88797359093562 l -4.246923800066488 -14.136628093313345 a35.76077964107002,35.76077964107002 0 0,0 0.5894398010563543,-0.17157733549980234 l 4.00362398662851 14.207449123115667" fill="#ffc011" stroke="none" /><path d="M 94.30408787586887 79.78721728523814 l -1.032859173863807 -3.6652528341880286 a24.808001629668507,24.808001629668507 0 0,0 0.4108897320210254,-0.11198982360780718 l 0.9697880409081041 3.682443151939976" fill="#ff2d04" stroke="none" /><path d="M 94.6519064749342 79.69241777938228 l -0.8319385649020125 -3.1590062384038893 a24.266717341620776,24.266717341620776 0 0,0 0.40374583761705823,-0.10263061308644057 l 0.7775874340595761 3.1728220833255927" fill="#ff2503" stroke="none" /><path d="M 95.00130118170881 79.60360301121753 l -1.6844429969217491 -6.873102245022901 a28.076502150103366,28.076502150103366 0 0,0 0.4691019923773175,-0.1107067929025435 l 1.5662088508045258 6.901005181571676" fill="#ff5a08" stroke="none" /><path d="M 95.35216902796891 79.52079915486377 l -0.739160341929804 -3.2568768507786356 a24.339701308832804,24.339701308832804 0 0,0 0.40825512234455946,-0.0889773037590488 l 0.6831428029661262 3.2690856126713985" fill="#ff2603" stroke="none" /><path d="M 96.05791012581881 79.37332000966035 l -1.311250079786634 -6.8610144989868145 a27.985191244844177,27.985191244844177 0 0,0 0.47263691949894304,-0.08613019109687427 l 1.1932784267366523 6.88251286401505" fill="#ff5908" stroke="none" /><path d="M 98.5590905019552 79.04949213459386 l -0.44741724567886815 -6.505348557583019 a27.520716375320916,27.520716375320916 0 0,0 0.47159453433425097,-0.028369956113012004 l 0.33567835921213335 6.512070491520726" fill="#ff5207" stroke="none" /><path d="M 99.63950707515114 79.00309439819443 l -0.2183784102859684 -12.719447595731026 a33.72132211173928,33.72132211173928 0 0,0 0.5788713351348175,-0.004968914202691623 l 3.115825281012792e-15 12.721322111739283" fill="#ffa60f" stroke="none" /></svg>