<?xml version="1.0" encoding="utf-8" ?>
<svg baseProfile="full" height="200mm" version="1.1" viewBox="0,0,200,200" width="200mm" xmlns="http://www.w3.org/2000/svg" xmlns:ev="http://www.w3.org/2001/xml-events" xmlns:xlink="http://www.w3.org/1999/xlink"><defs /><rect fill="#1a1a1a" height="200" width="200" x="0" y="0" /><text alignment-baseline="middle" fill="#e1ed5e" style="dominant-baseline: central; font-size:9.0px; font-family:Arial;" text-anchor="middle" x="100.0" y="100.0">2022</text><line stroke="#e1ed5e" stroke-width="0.3" x1="100.0" x2="100.0" y1="15.0" y2="10.0" /><path d="M 100.0 14.0 a86.0,86.0 0 0,1 42.46469731375804,11.215312516191453" fill="none" id="id97" stroke="none" /><text fill="#e1ed5e" style="font-size:6.75px; font-family:Arial;" text-anchor="middle"><textPath startOffset="22.20632615414155" xlink:href="#id97">January</textPath></text><path d="M 100.0 79.0 l 0.0 -3.1086594108507484 a24.10865941085075,24.10865941085075 0 0,0 0.41499094087868954,0.003571958045458746 l -0.05351046160616115 3.1081988294138485" fill="#ff2203" stroke="none" /><path d="M 100.36148047927253 79.00311137660856 l 0.14245352302160308 -8.274529133395568 a29.275755275842396,29.275755275842396 0 0,0 0.5037846757734651,0.013011271865659448 l -0.284864833989936 8.270851069387549" fill="#ff6a09" stroke="none" /><path d="M 101.08401301168833 79.027996857942 l 0.739979037144375 -14.316103704215312 a35.33521517959394,35.33521517959394 0 0,0 0.6071565071055296,0.0366253385811053 l -0.9862975930895165 14.301245096253902" fill="#ffba11" stroke="none" /><path d="M 101.80526077348638 79.07773832637324 l 0.34872575761745456 -4.041594245199052 a25.056611109886177,25.056611109886177 0 0,0 0.42939260660568873,0.04077600195120458 l -0.41824349131338745 4.034992698732669" fill="#ff2f04" stroke="none" /><path d="M 102.16513564639614 79.11191278185805 l 1.256466989207612 -12.12173107997641 a33.18667607144108,33.18667607144108 0 0,0 0.567702811652319,0.06378802557636885 l -1.464936504369656 12.098307100929441" fill="#ff9e0e" stroke="none" /><path d="M 102.52436894288641 79.15227682838746 l 1.5116573743496877 -12.48415551917487 a33.57534282015286,33.57534282015286 0 0,0 0.5731555183964113,0.07441203596137512 l -1.7263276212539451 12.456285160049358" fill="#ffa30f" stroke="none" /><path d="M 102.88285421437855 79.19881850522331 l 0.9284184974784876 -6.698986571307041 a27.763015746618684,27.763015746618684 0 0,0 0.4728055060875488,0.06967924124631807 l -1.0435929839946922 6.682012845899754" fill="#ff5507" stroke="none" /><path d="M 103.2404852339499 79.25152402106235 l 2.223353237731127 -14.23588997180127 a35.40846497406859,35.40846497406859 0 0,0 0.6013888243668989,0.09923430891882584 l -2.4680712682369013 14.19550939994282" fill="#ffbb11" stroke="none" /><path d="M 103.59715602781102 79.31037775812273 l 1.362866961141907 -7.83874882656121 a28.956342722613634,28.956342722613634 0 0,0 0.49033413081799615,0.08960542827009964 l -1.4975962130628042 7.814127916940373" fill="#ff6509" stroke="none" /><path d="M 103.95276090670814 79.375362276772 l 0.14400913372078836 -0.7514080112426272 a21.765083413723374,21.765083413723374 0 0,0 0.3673465077415949,0.07368625363644293 l -0.1569220509295086 0.7488178015289759" fill="#ff0000" stroke="none" /><path d="M 104.307194497241 79.44645832069477 l 2.3654153713052577 -11.28754771908586 a32.532732693921574,32.532732693921574 0 0,0 0.5471033930488953,0.11957561114409106 l -2.559361488507681 11.245158609845898" fill="#ff950d" stroke="none" /><path d="M 104.66035177308747 79.52364482259891 l 1.6663339336958272 -7.321431327898868 a28.508663360926843,28.508663360926843 0 0,0 0.47755583270159224,0.11302203639033344 l -1.792113453359943 7.291663379367666" fill="#ff5f08" stroke="none" /><path d="M 105.36241919743992 79.69619591428918 l 2.114109989803703 -8.004684726832076 a29.279156878871575,29.279156878871575 0 0,0 0.48617637168631544,0.1328903678007081 l -2.251584250713729 7.967107818205074" fill="#ff6a09" stroke="none" /><path d="M 105.71112130821622 79.79150937346287 l 4.493217516035802 -15.899004618440213 a37.521723623871516,37.521723623871516 0 0,0 0.6200192926362569,0.18100063356898785 l -4.7662270263954865 15.81930565595252" fill="#ffd513" stroke="none" /><path d="M 106.0581310904928 79.89281104454417 l 4.526800690920386 -15.024639694388028 a36.691772444230054,36.691772444230054 0 0,0 0.6031684070913341,0.18740736015663637 l -4.784754470722438 14.94449219934887" fill="#ffcb12" stroke="none" /><path d="M 106.40334571778207 80.00007090966166 l 4.35176776314405 -13.592120512688433 a35.27177713866726,35.27177713866726 0 0,0 0.5766384277019839,0.19010862348018862 l -4.585089013088452 13.515198164949009" fill="#ffb911" stroke="none" /><path d="M 106.74666289553966 80.11325718540242 l 4.435925185745055 -13.075516693153476 a34.80748235727508,34.80748235727508 0 0,0 0.5657342915137186,0.1973735858251313 l -4.660341481322047 12.997222254156139" fill="#ffb310" stroke="none" /><path d="M 107.08798089147638 80.2323363322302 l 3.515554488607518 -9.804526818079024 a31.415751028552826,31.415751028552826 0 0,0 0.5074656189530228,0.18690387013892779 l -3.683802433333117 9.742559680133771" fill="#ff870c" stroke="none" /><path d="M 107.4271985657038 80.35727306442388 l 5.028252492442883 -13.298229446599724 a35.21711044981258,35.21711044981258 0 0,0 0.5651790048406184,0.2192806732954982 l -5.256414662283168 13.209706069413679" fill="#ffb811" stroke="none" /><path d="M 108.43124777332544 80.76684994638697 l 5.902775342948552 -13.465262432789208 a35.70224639751374,35.70224639751374 0 0,0 0.5607256796573814,0.25158126770102124 l -6.133683141072714 13.361660834571655" fill="#ffbe11" stroke="none" /><path d="M 108.76106565485865 80.91482961587045 l 5.808389724623504 -12.653039244191744 a34.92252826566239,34.92252826566239 0 0,0 0.5441624840490665,0.2554915826833348 l -6.025330419972169 12.551182678868406" fill="#ffb410" stroke="none" /><path d="M 109.08828744355905 81.06846463323043 l 19.353964150480852 -40.3156545253957 a65.72055375494759,65.72055375494759 0 0,0 1.0156289543555215,0.4983647170741331 l -20.045064371846806 39.976534648186735" fill="#36ff72" stroke="none" /><path d="M 109.41281617654863 81.2277094730956 l 3.1402737902884157 -6.262751850204782 a28.00595319818908,28.00595319818908 0 0,0 0.42907722507607077,0.21979002013380194 l -3.2476115029532417 6.207769304758479" fill="#ff5808" stroke="none" /><path d="M 109.73455568895987 81.39251694778311 l 4.812589601375599 -9.199205624395592 a31.382023058690443,31.382023058690443 0 0,0 0.47649111915362896,0.2545250539194035 l -4.970225767057539 9.115001843974435" fill="#ff860c" stroke="none" /><path d="M 110.05341064243156 81.56283822128135 l 5.397340023989709 -9.898295686545556 a32.27419783544921,32.27419783544921 0 0,0 0.4854591257496129,0.27015747788421623 l -5.5669232388113565 9.80392281110116" fill="#ff920d" stroke="none" /><path d="M 110.36928655335952 81.73862282372117 l 3.134969548592251 -5.521002922273737 a27.348976873351788,27.348976873351788 0 0,0 0.4073737776054575,0.23597718614700125 l -3.2295400586630367 5.466221578736686" fill="#ff4f07" stroke="none" /><line stroke="#e1ed5e" stroke-width="0.3" x1="143.23703022742887" x2="145.7803849466894" y1="26.81831364943548" y2="22.513508569990506" /><path d="M 143.74570117128098 25.957352633546492 a86.0,86.0 0 0,1 28.547481713284135,27.462654790039103" fill="none" id="id98" stroke="none" /><text fill="#e1ed5e" style="font-size:6.75px; font-family:Arial;" text-anchor="middle"><textPath startOffset="19.985693538727396" xlink:href="#id98">February</textPath></text><path d="M 110.68208982089419 81.91981866633111 l 8.47358592072192 -14.34213459742761 a37.65828572112349,37.65828572112349 0 0,0 0.5552587514511678,0.33453718491675377 l -8.719206738390726 14.19415080305224" fill="#ffd714" stroke="none" /><path d="M 110.99172775467656 82.1063720568725 l 3.6982002586595746 -6.020365584425772 a28.065513917846882,28.065513917846882 0 0,0 0.4094636163456177,0.2564060789913614 l -3.801283027377455 5.955815164111466" fill="#ff5908" stroke="none" /><path d="M 111.60114157652 82.49532879139004 l 3.8486424536543677 -5.807119955080002 a27.96668435547062,27.96668435547062 0 0,0 0.3989851117101431,0.26939652845785006 l -3.9480322597710527 5.740011514323482" fill="#ff5808" stroke="none" /><path d="M 112.19680574252982 82.90503203632743 l 11.713520365428373 -16.417598149537366 a41.1678974697661,41.1678974697661 0 0,0 0.5733211633761957,0.4165422073983132 l -11.994386845158356 16.213536707322376" fill="#fcff18" stroke="none" /><path d="M 112.48926042617603 83.11751280151076 l 3.5182939268579574 -4.7558902732312 a26.915816464933705,26.915816464933705 0 0,0 0.37009740614205006,0.27874969338230715 l -3.5996374867583905 4.694623990343046" fill="#ff4906" stroke="none" /><path d="M 113.06298171725822 83.55741782278167 l 12.833386335720096 -16.153586830661048 a41.63090333304757,41.63090333304757 0 0,0 0.5572526400766604,0.4505928806184826 l -13.109542374361249 15.930287852778434" fill="#f6ff19" stroke="none" /><path d="M 113.34407831869373 83.78471172551755 l 14.090676419189533 -17.12252990898041 a43.17494515064767,43.17494515064767 0 0,0 0.5697909828907385,0.47718356185955507 l -14.383324939039388 16.877445189727037" fill="#e4ff1a" stroke="none" /><path d="M 113.89432698308785 84.25364557470407 l 13.424878488523282 -15.214331363737587 a41.290471686908226,41.290471686908226 0 0,0 0.5288896762265324,0.474842373370076 l -13.684779152345804 14.980989981598213" fill="#faff18" stroke="none" /><path d="M 114.16331599549186 84.49514656593476 l 1.5131627324251533 -1.656488240155721 a23.243571871943164,23.243571871943164 0 0,0 0.29308164686373356,0.27238744956808075 l -1.5414522630837337 1.6301962045129996" fill="#ff1502" stroke="none" /><path d="M 114.42810811169701 84.74124197986012 l 14.112228577953246 -14.92469278223089 a41.540239776603755,41.540239776603755 0 0,0 0.515329929817296,0.49574698418887037 l -14.36704175138296 14.679562711279717" fill="#f7ff18" stroke="none" /><path d="M 114.68862486808459 84.99185889309783 l 14.508896893184087 -14.8245035756568 a41.74304691509201,41.74304691509201 0 0,0 0.5091940100753553,0.5070073691747681 l -14.761926703426765 14.572560355831914" fill="#f5ff19" stroke="none" /><path d="M 115.4437574822437 85.77008943001954 l 5.094941970038032 -4.694490228575402 a27.927963061697497,27.927963061697497 0 0,0 0.3227094210267309,0.35634380283908745 l -5.1749950316807976 4.606093638466766" fill="#ff5708" stroke="none" /><path d="M 115.68641384162765 86.03803664274999 l 5.356070959307805 -4.767263392875464 a28.170376306595834,28.170376306595834 0 0,0 0.31927517938302924,0.36498672233018026 l -5.437338002268683 4.674361114342336" fill="#ff5b08" stroke="none" /><path d="M 115.9244219780498 86.31012108654704 l 3.465075171091172 -2.978849692857723 a25.569495752700846,25.569495752700846 0 0,0 0.28405199893292105,0.3362279721240433 l -3.51583778351121 2.918762771104573" fill="#ff3605" stroke="none" /><path d="M 116.38621287248628 86.86637796730983 l 12.255436807916087 -9.822786761848443 a36.70614119131652,36.70614119131652 0 0,0 0.3909132711704643,0.49642015652226534 l -12.422704159680515 9.61037421137314" fill="#ffcb12" stroke="none" /><path d="M 116.60985879189232 87.15038557335679 l 7.02511357837903 -5.434724154886211 a29.88191687806349,29.88191687806349 0 0,0 0.31123305587883954,0.40954621920781753 l -7.117622574481984 5.31299315979736" fill="#ff720a" stroke="none" /><path d="M 116.82858285166822 87.43820079747576 l 5.430450856258968 -4.053593450903013 a27.77653424454179,27.77653424454179 0 0,0 0.28270875537400736,0.3856144246156565 l -5.499422224146602 3.959516582615863" fill="#ff5507" stroke="none" /><path d="M 117.04232023915458 87.72973835380427 l 5.498642908463817 -3.958955484878081 a27.7755739510425,27.7755739510425 0 0,0 0.276019607680313,0.3904101604010618 l -5.565975135948013 3.863718824145226" fill="#ff5507" stroke="none" /><path d="M 117.2510076193507 88.02491185347247 l 3.6083191848595217 -2.504777764461129 a25.3924798222831,25.3924798222831 0 0,0 0.24615655465796135,0.3612043698370822 l -3.6509002051862165 2.4422953713536404" fill="#ff3404" stroke="none" /><path d="M 117.45458315368197 88.32363383020206 l 2.642546842289665 -1.7677502968559071 a24.17930730281444,24.17930730281444 0 0,0 0.22844075826633725,0.3479309472592016 l -2.672584235913927 1.7220012856190317" fill="#ff2303" stroke="none" /><line stroke="#e1ed5e" stroke-width="0.3" x1="172.23445277983987" x2="176.4835382374775" y1="55.19839476539836" y2="52.563006222186495" /><path d="M 173.08426987136738 54.67131705675599 a86.0,86.0 0 0,1 12.851231095245387,41.99856678651699" fill="none" id="id99" stroke="none" /><text fill="#e1ed5e" style="font-size:6.75px; font-family:Arial;" text-anchor="middle"><textPath startOffset="22.20632615414155" xlink:href="#id99">March</textPath></text><path d="M 117.84615892207809 88.93136811851018 l 6.820167545837124 -4.230037638046797 a29.02545349326644,29.02545349326644 0 0,0 0.2596868647125094,0.4268569255237986 l -6.891970208835858 4.1120129393159175" fill="#ff6609" stroke="none" /><path d="M 118.03404312379186 89.2402003453031 l 12.245706214221425 -7.306256538860658 a35.25968812059595,35.25968812059595 0 0,0 0.3064911879813485,0.5238927908384156 l -12.369657076673102 7.094384335668346" fill="#ffb911" stroke="none" /><path d="M 118.21658344932153 89.55222093294921 l 12.93361581541167 -7.417832270988657 a35.90981735841146,35.90981735841146 0 0,0 0.30291189274413993,0.5388464573745347 l -13.059385349448243 7.194102303679329" fill="#ffc112" stroke="none" /><path d="M 118.56541770881063 90.18545643968196 l 10.691609820688354 -5.652082380310336 a33.09365766803634,33.09365766803634 0 0,0 0.2618977965074296,0.5059031824579892 l -10.7873170503559 5.467206475592002" fill="#ff9d0e" stroke="none" /><path d="M 119.04729006885535 91.15688171328212 l 12.928800207773826 -6.002476422072853 a35.25424841968432,35.25424841968432 0 0,0 0.2508049062428297,0.5526153654559318 l -13.030207430980003 5.779039047774858" fill="#ffb911" stroke="none" /><path d="M 119.196687751892 91.48605970444005 l 14.08068760337795 -6.244938456311321 a36.40340935335543,36.40340935335543 0 0,0 0.2491194341655726,0.5750020010700981 l -14.186097747386203 6.001637310654619" fill="#ffc712" stroke="none" /><path d="M 119.34039704204932 91.81776055985345 l 6.504196707612887 -2.7516960852351953 a28.062323000034834,28.062323000034834 0 0,0 0.18438057093330812,0.4464921774507043 l -6.550598965432393 2.639329337331188" fill="#ff5908" stroke="none" /><path d="M 119.47837535516314 92.15188598940014 l 6.279747170259888 -2.5301993031404257 a27.770312624687236,27.770312624687236 0 0,0 0.17482925956120465,0.444921396044342 l -6.322369979702794 2.4217289022002992" fill="#ff5507" stroke="none" /><path d="M 119.85752413597 93.16781622104841 l 6.714365171040917 -2.3101458416181546 a28.100667113703683,28.100667113703683 0 0,0 0.1534332637178994,0.4587459291620956 l -6.753135728530587 2.1942268095337454" fill="#ff5a08" stroke="none" /><path d="M 119.97218684219823 93.5106431181261 l 6.754325582595099 -2.194613416554948 a28.101918200304873,28.101918200304873 0 0,0 0.1455204523751236,0.4613396010787375 l -6.7911015187384285 2.078023649049791" fill="#ff5a08" stroke="none" /><path d="M 120.08093135843002 93.85539295169968 l 13.414540000340866 -4.104743727496381 a35.02849972339045,35.02849972339045 0 0,0 0.17146300974232886,0.5780880300230684 l -13.483208907194896 3.873226310726783" fill="#ffb610" stroke="none" /><path d="M 120.53481517161879 95.60439243477599 l 13.5612426457666 -2.9028700901071267 a34.86845185510615,34.86845185510615 0 0,0 0.12057959638437339,0.5879889349422444 l -13.60920153806597 2.6690054990014707" fill="#ffb410" stroke="none" /><path d="M 120.6074358757038 95.95851677861258 l 20.371279182616426 -3.995168710524086 a41.75934460819156,41.75934460819156 0 0,0 0.13226631317202772,0.7065719338136185 l -20.437031219698312 3.6439186992479042" fill="#f5ff19" stroke="none" /><path d="M 120.67395015179393 96.31383870115 l 13.741780350792284 -2.450156769000063 a34.95850262034212,34.95850262034212 0 0,0 0.10052756653727933,0.5933193882422834 l -13.781919778849787 2.2132515924419414" fill="#ffb510" stroke="none" /><path d="M 120.73433829027371 96.67025291283417 l 13.822158435223253 -2.219713556502491 a34.99925684032314,34.99925684032314 0 0,0 0.09040492464722862,0.5956554981118563 l -13.858319253309782 1.9814589459985523" fill="#ffb510" stroke="none" /><path d="M 120.78858239683441 97.02765380044208 l 12.598411921885548 -1.8013177176613944 a33.7265363895079,33.7265363895079 0 0,0 0.07722413369185809,0.5754094940023485 l -12.627552054635242 1.5841898815943813" fill="#ffa50f" stroke="none" /><path d="M 120.83666639777658 97.38593545837742 l 7.23628600415417 -0.907828454676302 a28.2930095047955,28.2930095047955 0 0,0 0.05646428765771824,0.4837515344919658 l -7.250840644815478 0.7831331818594836" fill="#ff5c08" stroke="none" /><path d="M 120.94382443527127 98.46500227214037 l 34.91175278380264 -2.5587237595672763 a56.005393151843414,56.005393151843414 0 0,0 0.06219107946982587,0.9620684729748878 l -34.950624454276884 1.9573962223393533" fill="#57ff2a" stroke="none" /><path d="M 120.98425023603335 99.18683210126433 l 7.097166233940253 -0.27502472990533006 a28.102493023878388,28.102493023878388 0 0,0 0.01457088240962338,0.4835366505384748 l -7.100848810805521 0.15281793194185622" fill="#ff5a08" stroke="none" /><line stroke="#e1ed5e" stroke-width="0.3" x1="184.98032266829074" x2="189.97916517819016" y1="98.17113171792111" y2="98.06355123074" /><path d="M 185.9800911702706 98.14961562048488 a86.0,86.0 0 0,1 -9.607161424134198,41.387399972396054" fill="none" id="id100" stroke="none" /><text fill="#e1ed5e" style="font-size:6.75px; font-family:Arial;" text-anchor="middle"><textPath startOffset="21.466115282336823" xlink:href="#id100">April</textPath></text><path d="M 120.99513854157772 99.54816195383933 l 10.178417870340118 -0.21905054041123284 a31.180774699526236,31.180774699526236 0 0,0 0.006929545408895427,0.536700928545924 l -10.180680422866729 0.0438133538048461" fill="#ff830c" stroke="none" /><path d="M 120.99824983174949 100.27111621757518 l 20.306432113441026 0.2621839015706537 a41.3081246198666,41.3081246198666 0 0,0 -0.0152996192330106,0.7109131870586133 l -20.29891043152301 -0.6116869044193819" fill="#faff18" stroke="none" /><path d="M 120.9764740272857 100.99374915477107 l 4.358914889052872 0.20650124425490984 a25.363803590204952,25.363803590204952 0 0,0 -0.024414048853810832,0.43592924271514766 l -4.354714489311531 -0.28150220330548087" fill="#ff3404" stroke="none" /><path d="M 120.95626037817324 101.35467743843564 l 13.946277775931692 0.9015304979169159 a34.97538625734976,34.97538625734976 0 0,0 -0.0440080984268196,0.6004555384369654 l -13.928693118840535 -1.1414591728506516" fill="#ffb510" stroke="none" /><path d="M 120.92983693683757 101.71520430193887 l 11.094763634582442 0.9092180876735526 a32.13195659523544,32.13195659523544 0 0,0 -0.04991990744414514,0.5508620188873459 l -11.077469130861221 -1.100061495109469" fill="#ff900d" stroke="none" /><path d="M 120.89721153311464 102.0752229133903 l 4.482640413231548 0.44515403805365855 a25.5046894667593,25.5046894667593 0 0,0 -0.047144445049045726,0.4364990096923576 l -4.47431366668145 -0.5222493696308076" fill="#ff3605" stroke="none" /><path d="M 120.70491114924044 103.5080841355445 l 2.023144053094585 0.3427862841537806 a23.051978142226652,23.051978142226652 0 0,0 -0.06965381067826383,0.3906555609202936 l -2.0169438000771325 -0.3775605958072925" fill="#ff1302" stroke="none" /><path d="M 120.64145759157962 103.86396538481128 l 2.1322057081127457 0.3991369801716696 a23.16924215122451,23.16924215122451 0 0,0 -0.07675646330303605,0.39137955273265007 l -2.1250193118340457 -0.4357802599722646" fill="#ff1402" stroke="none" /><path d="M 120.32669344350535 105.2749913415812 l 2.120682625674244 0.5503395089695514 a23.19092865560918,23.19092865560918 0 0,0 -0.10359931564777616,0.38553159341676946 l -2.1108952336846905 -0.5867620355618691" fill="#ff1502" stroke="none" /><path d="M 120.13307415673323 105.97154293290107 l 3.3808230930145684 1.0027644110041718 a24.526400608302627,24.526400608302627 0 0,0 -0.1235350738641771,0.4037197690796684 l -3.3630612466442584 -1.0608111526358972" fill="#ff2803" stroke="none" /><path d="M 120.02730092923936 106.31721596034902 l 4.641827340683007 1.464172624426673 a25.867274651674464,25.867274651674464 0 0,0 -0.13759881065157373,0.4234855942772464 l -4.6159362790151865 -1.5438571186817147" fill="#ff3b05" stroke="none" /><path d="M 119.9155931802556 106.66101706037122 l 7.030966824162862 2.3515940269900524 a28.41380394603567,28.41380394603567 0 0,0 -0.15912970818262884,0.4625054189439973 l -6.989446285037002 -2.4722721490233504" fill="#ff5e08" stroke="none" /><path d="M 119.79798401119884 107.00284435728193 l 6.757644218037052 2.3902802757104578 a28.16792823443567,28.16792823443567 0 0,0 -0.16562170260469922,0.4557197938772723 l -6.715498254427127 -2.5062478665938612" fill="#ff5b08" stroke="none" /><path d="M 119.54520255179757 107.68017299344265 l 9.216851773059732 3.6217079809954225 a30.90288469619637,30.90288469619637 0 0,0 -0.19880471116006498,0.49341698924358507 l -9.153144447642275 -3.779824338081821" fill="#ff800b" stroke="none" /><path d="M 119.41010516605496 108.01547362559984 l 6.16600280521049 2.5462733167964813 a27.67106426274649,27.67106426274649 0 0,0 -0.18559248813201948,0.43868581880937846 l -6.121259335886162 -2.6520336612720232" fill="#ff5407" stroke="none" /><path d="M 118.81262510543309 109.33194174019688 l 9.48739401977741 4.706191069171197 a31.59050894273051,31.59050894273051 0 0,0 -0.24583633302618016,0.48505840755961066 l -9.40497901696496 -4.868803688433502" fill="#ff890c" stroke="none" /><path d="M 118.64920377521936 109.65438752849418 l 28.09195430575051 14.54274491122483 a52.6330416853854,52.6330416853854 0 0,0 -0.4234390655828814,0.8009871349045122 l -27.837462731942736 -15.024147061215476" fill="#7aff26" stroke="none" /><line stroke="#e1ed5e" stroke-width="0.3" x1="174.80103733775053" x2="179.2010983576182" y1="140.37084112569926" y2="142.7455964860345" /><path d="M 175.68104954172406 140.8457921977663 a86.0,86.0 0 0,1 -30.038265399797805,32.042727171017184" fill="none" id="id101" stroke="none" /><text fill="#e1ed5e" style="font-size:6.75px; font-family:Arial;" text-anchor="middle"><textPath startOffset="22.206326154141568" xlink:href="#id101">May</textPath></text><path d="M 118.48025628344425 109.97397251340804 l 9.52146913933302 5.138828705965929 a31.819701245437905,31.819701245437905 0 0,0 -0.26429078768616915,0.47976454809903435 l -9.431601942195341 -5.301963772462768" fill="#ff8c0c" stroke="none" /><path d="M 118.30583269289576 110.29060199501025 l 13.237112081345666 7.441226754210104 a36.18528866573433,36.18528866573433 0 0,0 -0.30989771119915455,0.5403327808315398 l -13.107062373994133 -7.667979380899959" fill="#ffc512" stroke="none" /><path d="M 118.12598468904814 110.60418214915192 l 8.788757215118451 5.141656245031477 a31.18228276607794,31.18228276607794 0 0,0 -0.2750264336982484,0.46096012236917416 l -8.698949905721976 -5.292178461286755" fill="#ff830c" stroke="none" /><path d="M 117.94076556474637 110.91462005526583 l 50.945647164286655 30.993793451070083 a80.63282818612231,80.63282818612231 0 0,0 -0.7315907130016216,1.179557172912874 l -50.40459181161707 -31.866146955348228" fill="#49f1ff" stroke="none" /><path d="M 117.75023020441432 111.22182372390056 l 5.774971335114234 3.650978583765856 a27.832271843282292,27.832271843282292 0 0,0 -0.2594963556229777,0.4027441065851341 l -5.711270116114206 -3.7498442902724434" fill="#ff5608" stroke="none" /><path d="M 117.55443506779139 111.5257021239791 l 2.998793021767293 1.968915260837589 a24.58739277076812,24.58739277076812 0 0,0 -0.23533283776053707,0.35179066207327736 l -2.964457078596035 -2.0202428371166734" fill="#ff2903" stroke="none" /><path d="M 117.14729908036423 112.12312394758627 l 12.076842534461736 8.538316049343182 a35.79029974546343,35.79029974546343 0 0,0 -0.35998259729410453,0.4999843426738049 l -11.928080144792029 -8.744933997468118" fill="#ffc011" stroke="none" /><path d="M 116.71984013943494 112.70617746262583 l 5.440669244554717 4.134615424564637 a27.83344177832016,27.83344177832016 0 0,0 -0.29316988451058196,0.3789615954280617 l -5.368692542826066 -4.2276550141059515" fill="#ff5608" stroke="none" /><path d="M 116.498646956653 112.99209946851258 l 5.7386036841741905 4.518946921589787 a28.304276386074353,28.304276386074353 0 0,0 -0.3047185668161992,0.3801832647247602 l -5.659967205303137 -4.617058019892798" fill="#ff5c08" stroke="none" /><path d="M 116.27256486870786 113.27417163493432 l 5.367220400002616 4.378252928593973 a27.9264820456669,27.9264820456669 0 0,0 -0.30706363872598236,0.3698779337817453 l -5.29106076138309 -4.469992119489489" fill="#ff5708" stroke="none" /><path d="M 116.0416608686014 113.55231037782055 l 2.651354928725687 2.2399167523971943 a24.470865888470424,24.470865888470424 0 0,0 -0.27460680209080834,0.31942974968460597 l -2.6124056170641 -2.2852236012433282" fill="#ff2703" stroke="none" /><path d="M 115.80600337817218 113.82643327865902 l 5.4278567223585155 4.748062936735212 a28.211499861308404,28.211499861308404 0 0,0 -0.32287544427679077,0.36275398442405865 l -5.345322428433386 -4.8407910909001375" fill="#ff5b08" stroke="none" /><path d="M 115.56566222782051 114.09645910891815 l 5.013663060502504 4.540436203989429 a27.764050429051018,27.764050429051018 0 0,0 -0.3238525657706649,0.3514779984855083 l -4.934764086736116 -4.626065457276272" fill="#ff5507" stroke="none" /><path d="M 115.07121518719521 114.62390073753431 l 5.366973533922364 5.20768148063719 a28.47825857520283,28.47825857520283 0 0,0 -0.3443962260602545,0.3488715587308372 l -5.276536682806573 -5.299293533348691" fill="#ff5f08" stroke="none" /><path d="M 114.55890576462653 115.13401014063108 l 12.5728452957134 13.069496518359626 a39.13527441406269,39.13527441406269 0 0,0 -0.4894968666598358,0.4628498402807965 l -12.346012594662755 -13.283980995386344" fill="#ffe915" stroke="none" /><path d="M 114.29624159901734 115.38237550388516 l 4.87898912438632 5.249662456448753 a28.166832688330846,28.166832688330846 0 0,0 -0.3579876349812841,0.32701321675050204 l -4.7879019399381715 -5.332868439785838" fill="#ff5b08" stroke="none" /><path d="M 114.0293411484842 115.62618273729858 l 4.626844430991083 5.1534791128470445 a27.92575168159702,27.92575168159702 0 0,0 -0.3604518354346948,0.31805683575483795 l -4.5374502426498005 -5.232359090374171" fill="#ff5708" stroke="none" /><path d="M 113.48314897796784 116.09983520530334 l 2.892930110489579 3.454363525571756 a25.505737674452185,25.505737674452185 0 0,0 -0.3390196799258413,0.2789901162366679 l -2.8330403020190467 -3.5036487606656026" fill="#ff3605" stroke="none" /><path d="M 113.20401910651253 116.32954008644616 l 5.477581182439035 6.774178435661635 a29.7116811861083,29.7116811861083 0 0,0 -0.4004604161189905,0.3181499741260814 l -5.360163273602693 -6.867462323792842" fill="#ff700a" stroke="none" /><path d="M 112.92097659922987 116.55440617244103 l 4.4372662793377255 5.685043055322232 a28.21172979073781,28.21172979073781 0 0,0 -0.38538737126033035,0.2954986025218591 l -4.338750179583902 -5.760580999671463" fill="#ff5b08" stroke="none" /><path d="M 112.04921762599082 117.19931262002967 l 8.260126504269826 11.790682386006546 a35.396175915646,35.396175915646 0 0,0 -0.502024157483451,0.34529679321778595 l -8.055945462163491 -11.931119968589426" fill="#ffbb11" stroke="none" /><line stroke="#e1ed5e" stroke-width="0.3" x1="143.8653032363475" x2="146.44561519142675" y1="172.8068346515853" y2="177.08958963109032" /><path d="M 144.38136562736335 173.6633856474863 a86.0,86.0 0 0,1 -40.68145358897372,12.25698825130547" fill="none" id="id102" stroke="none" /><text fill="#e1ed5e" style="font-size:6.75px; font-family:Arial;" text-anchor="middle"><textPath startOffset="21.466115282336833" xlink:href="#id102">June</textPath></text><path d="M 110.8373102113329 117.98757091392108 l 2.128957109946323 3.533604394548929 a25.125387059800147,25.125387059800147 0 0,0 -0.37237274789797803,0.22000438305848583 l -2.0678164910199626 -3.5697273499011644" fill="#ff3004" stroke="none" /><path d="M 110.21172684928248 118.3499491758327 l 4.982245056180695 8.952838722755615 a31.245783864376087,31.245783864376087 0 0,0 -0.4722237630397919,0.2574940471820955 l -4.827398481272255 -9.037273421697481" fill="#ff840c" stroke="none" /><path d="M 109.89434966115114 118.52300852407294 l 3.345409811513896 6.262872910030113 a28.100376320601782,28.100376320601782 0 0,0 -0.4286098179960853,0.22422839942454106 l -3.237109090991315 -6.319530728399371" fill="#ff5a08" stroke="none" /><path d="M 109.57404056367764 118.69057910512821 l 4.051295474948165 7.908997047708375 a29.886238198810297,29.886238198810297 0 0,0 -0.4598867184765601,0.23059674773581537 l -3.9145548487888444 -7.977561636353492" fill="#ff720a" stroke="none" /><path d="M 109.2508944713604 118.85261126421891 l 1.5786039186728056 3.2170733447502564 a24.583511020989295,24.583511020989295 0 0,0 -0.3814978484674798,0.18314215085046234 l -1.522993402205093 -3.243769772100279" fill="#ff2903" stroke="none" /><path d="M 108.2653958097858 119.30500536409082 l 21.571620690610526 50.38358267747141 a75.80730081510285,75.80730081510285 0 0,0 -1.2039951619189608,0.5032700753290246 l -20.701154069194104 -50.74743779582041" fill="#43ffde" stroke="none" /><path d="M 107.59598834532513 119.57807347666477 l 22.787965035975386 58.73422042999433 a84.0,84.0 0 0,0 -1.3525191169589008,0.5114069995734765 l -21.77357569825621 -59.11777567967444" fill="#4dd2ff" stroke="none" /><path d="M 106.57524785965236 119.94407469862006 l 2.323809845440861 7.048591647359072 a28.42177447845109,28.42177447845109 0 0,0 -0.46595287083665626,0.1491833949352127 l -2.202135629513265 -7.087547888953992" fill="#ff5e08" stroke="none" /><path d="M 106.2309692047433 120.05430185196036 l 12.697647152040709 40.86722954799125 a63.794400265992,63.794400265992 0 0,0 -1.0514684963159844,0.3167988326124085 l -11.99230368128448 -41.07974374970938" fill="#34ff5c" stroke="none" /><path d="M 105.18746579009965 120.34920634021253 l 3.4515538966644757 13.539632891967605 a34.972647678619495,34.972647678619495 0 0,0 -0.5846206234005874,0.14368552548276436 l -3.217979988520677 -13.597039675764398" fill="#ffb510" stroke="none" /><path d="M 104.83641907484287 120.43548508189849 l 9.271175493156969 39.17381135716154 a61.255958456747656,61.255958456747656 0 0,0 -1.0281662421729267,0.2340072892966649 l -8.59548910159118 -39.327595380035895" fill="#31ff3e" stroke="none" /><path d="M 104.48393922423573 120.51570834832081 l 1.5295635386629567 6.998328454102402 a28.163530258909113,28.163530258909113 0 0,0 -0.4744998800901964,0.09943606334881894 l -1.4088721971433822 -7.023620498177762" fill="#ff5b08" stroke="none" /><path d="M 104.13013068566511 120.58985236759428 l 4.121070021731347 20.54468243304571 a41.95393028524028,41.95393028524028 0 0,0 -0.7092859022505368,0.1359363312809905 l -3.766816504909105 -20.61257596267517" fill="#f2ff19" stroke="none" /><path d="M 103.7750983002368 120.6578951692458 l 2.7064420085726604 14.810050188952669 a36.055311851471686,36.055311851471686 0 0,0 -0.6114826857046489,0.10631410293864473 l -2.4511103513959616 -14.854442870412319" fill="#ffc312" stroke="none" /><path d="M 103.41894727170886 120.7198165907248 l 1.0412857310551202 6.310494913019564 a27.395828485891784,27.395828485891784 0 0,0 -0.4659432105663202,0.07277074688435334 l -0.9325066568802828 -6.327483967251023" fill="#ff5007" stroke="none" /><path d="M 103.06178313531738 120.77559828337769 l 1.3605146044604897 9.231713557665048 a30.331427286311936,30.331427286311936 0 0,0 -0.5171817571297108,0.0716766789672743 l -1.2014042561439484 -9.253764802124925" fill="#ff780b" stroke="none" /><path d="M 102.70371172650421 120.8252237178851 l 0.9518499275124529 7.3315832793791325 a28.393113800488745,28.393113800488745 0 0,0 -0.4852147579608006,0.05875274990672288 l -0.8255077465002719 -7.346881558011207" fill="#ff5e08" stroke="none" /><path d="M 102.34483914955558 120.86867818915974 l 1.082181827308717 9.63123816000031 a30.691845335229168,30.691845335229168 0 0,0 -0.5255136729795619,0.05447164090010364 l -0.9162355577235525 -9.648439169356172" fill="#ff7d0b" stroke="none" /><path d="M 101.98527174616119 120.90594882070398 l 1.4380417767820337 15.143331307450365 a36.2114577617984,36.2114577617984 0 0,0 -0.6210362988463738,0.05358562504892775 l -1.1771611601941183 -15.165841184777955" fill="#ffc512" stroke="none" /><path d="M 101.62511606390274 120.93702456842531 l 0.40693572155041224 5.242716744433591 a26.25848605055087,26.25848605055087 0 0,0 -0.45094228168550643,0.031099619932058724 l -0.3166306790859755 -5.248944708881935" fill="#ff4006" stroke="none" /><path d="M 101.26447882468166 120.96189622390904 l 2.723823761677721 45.15418519474232 a66.23626483791259,66.23626483791259 0 0,0 -1.1386705671529116,0.05885626196311528 l -1.9461651261113295 -45.19438126346764" fill="#37ff78" stroke="none" /><path d="M 100.90346689309514 120.98055641714683 l 0.33755778478073306 7.838859621493036 a28.846124229423086,28.846124229423086 0 0,0 -0.4962627436740602,0.01709229230536436 l -0.20257468943202056 -7.843508712224494" fill="#ff6409" stroke="none" /><line stroke="#e1ed5e" stroke-width="0.3" x1="102.19456741930631" x2="102.32365962044197" y1="184.97166512339345" y2="189.96999836594603" /><path d="M 102.22038585953345 185.97133177190398 a86.0,86.0 0 0,1 -42.740103519485714,-10.115201625700543" fill="none" id="id103" stroke="none" /><text fill="#e1ed5e" style="font-size:6.75px; font-family:Arial;" text-anchor="middle"><textPath startOffset="22.20632615414155" xlink:href="#id103">July</textPath></text><path d="M 100.54218724476979 120.99299961872073 l 0.40263030102507813 15.589481009450271 a36.59467951909606,36.59467951909606 0 0,0 -0.6298472530314531,0.010843391655687899 l -0.13422335810095715 -15.594101878385118" fill="#ffca12" stroke="none" /><path d="M 100.18074693466247 120.99922214144158 l 0.22224884164171416 25.820923630201268 a46.82188009545969,46.82188009545969 0 0,0 -0.8059915526083214,0.0 l 0.2222488416416964 -25.820923630201268" fill="#baff1f" stroke="none" /><path d="M 99.45781275523022 120.99299961872073 l -0.17468542145186214 6.76366148652601 a27.765916915007384,27.765916915007384 0 0,0 -0.47767908088023564,-0.01645223338370329 l 0.2910848540067408 -6.759652454716212" fill="#ff5507" stroke="none" /><path d="M 99.09653310690486 120.98055641714683 l -0.4689304419294188 10.88963156017025 a31.899723449502012,31.899723449502012 0 0,0 -0.5483895609323926,-0.028345476371429864 l 0.6563080712753002 -10.879946277036616" fill="#ff8d0d" stroke="none" /><path d="M 98.73552117531835 120.96189622390904 l -0.4072559189909806 6.751284516457539 a27.763556757040817,27.763556757040817 0 0,0 -0.47678916475317534,-0.03288217231731821 l 0.523407844523086 -6.743273999623936" fill="#ff5507" stroke="none" /><path d="M 98.37488393609728 120.93702456842531 l -0.5235078017272529 6.744561788530783 a27.764848419423664,27.764848419423664 0 0,0 -0.4761746631095337,-0.04108635357157908 l 0.6395267825783283 -6.73455118268054" fill="#ff5507" stroke="none" /><path d="M 97.65516085044442 120.86867818915974 l -2.126322789043217 18.92391894737411 a40.043002833849215,40.043002833849215 0 0,0 -0.6843016959878089,-0.08285940554258503 l 2.4517519080824153 -18.884514013106173" fill="#fff517" stroke="none" /><path d="M 97.2962882734958 120.8252237178851 l -1.38438879372714 10.663195361872853 a31.752686532102757,31.752686532102757 0 0,0 -0.5414156761977605,-0.07503527933012913 l 1.5677330611117315 -10.63778551705012" fill="#ff8b0c" stroke="none" /><path d="M 96.93821686468263 120.77559828337769 l -0.6270664306200638 4.254932398471004 a25.30089084074088,25.30089084074088 0 0,0 -0.43031289652706645,-0.06720602460583974 l 0.7002151907556474 -4.243508066518058" fill="#ff3304" stroke="none" /><path d="M 96.58105272829116 120.7198165907248 l -1.1012359467229216 6.673810686705211 a27.764057191681292,27.764057191681292 0 0,0 -0.47086654880600576,-0.08186618511109461 l 1.2159514670009772 -6.653865923073111" fill="#ff5507" stroke="none" /><path d="M 96.22490169976321 120.6578951692458 l -1.2156536217369123 6.652236069820993 a27.7624003472635,27.7624003472635 0 0,0 -0.4693595819287887,-0.08995388096187 l 1.3299808182373962 -6.630324990510655" fill="#ff5507" stroke="none" /><path d="M 95.86986931433489 120.58985236759428 l -1.3390263253294705 6.6754193639798185 a27.808392995775293,27.808392995775293 0 0,0 -0.4685165183729778,-0.09818219172584193 l 1.453734305131835 -6.6513811915274355" fill="#ff5607" stroke="none" /><path d="M 94.81253420990036 120.34920634021253 l -0.8517829484901233 3.341343861771705 a24.448204314413225,24.448204314413225 0 0,0 -0.40689909828499066,-0.10746575010542089 l 0.9091724895866032 -3.3261867623627026" fill="#ff2703" stroke="none" /><path d="M 94.46302465271185 120.25689768951611 l -1.80135230068749 6.5902061990708685 a27.831960762289565,27.831960762289565 0 0,0 -0.4610415085588519,-0.13029493553788637 l 1.9145249773509558 -6.558222470194461" fill="#ff5608" stroke="none" /><path d="M 94.11515582081647 120.15858648285463 l -3.650641254707733 12.505304339445212 a34.02727209329418,34.02727209329418 0 0,0 -0.560842401096198,-0.16897721478991562 l 3.8653586302441765 -12.440611755549572" fill="#ffa90f" stroke="none" /><path d="M 93.76903079525671 120.05430185196036 l -2.028512858161325 6.528745020466852 a27.83662021455021,27.83662021455021 0 0,0 -0.456359722127604,-0.1461119716602256 l 2.1405939253798696 -6.49286020214692" fill="#ff5608" stroke="none" /><path d="M 93.42475214034765 119.94407469862007 l -1.7550400844566911 5.323396363240273 a26.605239917988303,26.605239917988303 0 0,0 -0.4337037564949579,-0.1471358617587613 l 1.8464135738888747 -5.292397514583389" fill="#ff4506" stroke="none" /><path d="M 93.08242187328487 119.8279376855182 l -2.251120661629327 6.452414325324599 a27.83382724824593,27.83382724824593 0 0,0 -0.45101461739949583,-0.1617177954679767 l 2.36185483965855 -6.412708988816664" fill="#ff5608" stroke="none" /><path d="M 92.7421414339146 119.70592522655815 l -1.4020498060178972 3.80672734109241 a25.05671254934033,25.05671254934033 0 0,0 -0.40344860394197585,-0.15254974028610688 l 1.467368630720156 -3.78202935069967" fill="#ff2f04" stroke="none" /><path d="M 91.07499286063937 119.00905698771935 l -2.9314013816048754 6.243488105579061 a27.8974094981074,27.8974094981074 0 0,0 -0.4329243976687108,-0.20783001965330442 l 3.0384384472738284 -6.192103809426194" fill="#ff5708" stroke="none" /><line stroke="#e1ed5e" stroke-width="0.3" x1="58.666819895761336" x2="56.23545636021788" y1="174.27360380694188" y2="178.64263932499728" /><path d="M 58.180547188652646 175.14741091055294 a86.0,86.0 0 0,1 -31.652253787137756,-30.449443065178592" fill="none" id="id104" stroke="none" /><text fill="#e1ed5e" style="font-size:6.75px; font-family:Arial;" text-anchor="middle"><textPath startOffset="22.20632615414155" xlink:href="#id104">August</textPath></text><path d="M 89.7882731507175 118.34994917583269 l -3.0081393959847715 5.405472144411998 a27.18611604560484,27.18611604560484 0 0,0 -0.4069518619790017,-0.23107788802286627 l 3.1007400248849804 -5.352891090594499" fill="#ff4d07" stroke="none" /><path d="M 89.1626897886671 117.98757091392108 l -3.5593435700253013 5.907733895619905 a27.897118705005504,27.897118705005504 0 0,0 -0.409185372528531,-0.2513550762497534 l 3.6605081424861408 -5.845590352541773" fill="#ff5708" stroke="none" /><path d="M 88.54995079064634 117.60387380957326 l -1.8633455254106452 2.8647998705687296 a24.417474922435932,24.417474922435932 0 0,0 -0.35036204700059215,-0.23220086009350294 l 1.9123822711511993 -2.832300989383908" fill="#ff2603" stroke="none" /><path d="M 87.95078237400918 117.19931262002967 l -2.6324041116198735 3.757550296073987 a25.58789010705345,25.58789010705345 0 0,0 -0.35856270459579287,-0.25582496929882886 l 2.6966941440645535 -3.711681064930939" fill="#ff3705" stroke="none" /><path d="M 87.36589467227662 116.77436683061367 l -4.428563665980128 5.879826828961866 a28.361014854095806,28.361014854095806 0 0,0 -0.38742668535283686,-0.29706226160717814 l 4.529119079826452 -5.802725225527321" fill="#ff5d08" stroke="none" /><path d="M 87.07902340077011 116.55440617244103 l -5.657941764301563 7.248977300357332 a30.19564989053649,30.19564989053649 0 0,0 -0.40698345019268,-0.32333226690268313 l 5.781882707211601 -7.150511119449519" fill="#ff760a" stroke="none" /><path d="M 86.79598089348748 116.32954008644616 l -1.480937462527622 1.8314899020357402 a23.35531972971328,23.35531972971328 0 0,0 -0.3104365425691696,-0.25546814012220626 l 1.5122441336414802 -1.8057266430563532" fill="#ff1702" stroke="none" /><path d="M 86.51685102203217 116.09983520530335 l -4.367756970230621 5.215411292453627 a27.802780012645638,27.802780012645638 0 0,0 -0.36426212517200923,-0.31043208556962965 l 4.456884571979687 -5.139454816661046" fill="#ff5607" stroke="none" /><path d="M 85.18274418774928 114.88116024355367 l -4.774177749034687 4.794768006627387 a27.766282097042325,27.766282097042325 0 0,0 -0.33578607837602886,-0.34014952458469633 l 4.856004452466249 -4.711877988062026" fill="#ff5507" stroke="none" /><path d="M 84.67929136418377 114.36230785411682 l -3.4145394106361833 3.2009398103770397 a25.680287924523906,25.680287924523906 0 0,0 -0.299546608134097,-0.32509868195594643 l 3.4691324267660093 -3.141689873619749" fill="#ff3805" stroke="none" /><path d="M 84.43433777217949 114.09645910891817 l -2.849972653257443 2.580971010431837 a24.844964951856493,24.844964951856493 0 0,0 -0.2843460693798051,-0.31946582328019907 l 2.8939775722855865 -2.5315310174107735" fill="#ff2c04" stroke="none" /><path d="M 84.19399662182784 113.82643327865904 l -6.328151694784825 5.535603472412621 a29.40763995875149,29.40763995875149 0 0,0 -0.330006220577403,-0.38387178915744063 l 6.422500424933007 -5.42585458409365" fill="#ff6c09" stroke="none" /><path d="M 83.72743513129214 113.27417163493432 l -5.347186907893713 4.361910820582959 a27.900628510119105,27.900628510119105 0 0,0 -0.30037296897854293,-0.37476146325607 l 5.421477788927116 -4.269221523748629" fill="#ff5708" stroke="none" /><path d="M 83.50135304334701 112.99209946851258 l -2.9520314915123076 2.324620126285191 a24.757439109075563,24.757439109075563 0 0,0 -0.26077032162220437,-0.33708079288980436 l 2.99160863035258 -2.273461339282134" fill="#ff2b04" stroke="none" /><path d="M 83.28015986056508 112.70617746262583 l -6.100212505511718 4.635832759665421 a28.66182341143338,28.66182341143338 0 0,0 -0.2951331613665481,-0.3953790996224209 l 6.179106933573351 -4.530140780533692" fill="#ff6109" stroke="none" /><path d="M 83.06392112726016 112.41649034213515 l -6.974346734365369 5.113161642706743 a29.647886120642454,29.647886120642454 0 0,0 -0.2982015553345926,-0.4141758789146723 l 7.061328082075569 -4.992352158340932" fill="#ff6f0a" stroke="none" /><path d="M 82.44556493220864 111.52570212397912 l -3.6379104559476234 2.388540110065574 a25.351955461960188,25.351955461960188 0 0,0 -0.23637093253969277,-0.3668529364115792 l 3.6784862518643617 -2.3255655737325465" fill="#ff3304" stroke="none" /><path d="M 82.05923443525364 110.91462005526583 l -5.987747363756931 3.6427646984444855 a28.008769730873702,28.008769730873702 0 0,0 -0.24703618106296651,-0.4140468489561192 l 6.04956442051813 -3.5391557556022555" fill="#ff5808" stroke="none" /><line stroke="#e1ed5e" stroke-width="0.3" x1="26.63291911575756" x2="22.317208475507996" y1="142.92168965132927" y2="145.44649492493687" /><path d="M 25.769776987707644 143.4266507060508 a86.0,86.0 0 0,1 -11.730757126820373,-40.83630448921669" fill="none" id="id105" stroke="none" /><text fill="#e1ed5e" style="font-size:6.75px; font-family:Arial;" text-anchor="middle"><textPath startOffset="21.46611528233685" xlink:href="#id105">September</textPath></text><path d="M 81.87401531095188 110.60418214915194 l -5.956544218215946 3.484736468281588 a27.901000454784324,27.901000454784324 0 0,0 -0.23894948748307504,-0.4166285725389865 l 6.015645701851398 -3.3816880498842945" fill="#ff5708" stroke="none" /><path d="M 81.69416730710424 110.29060199501025 l -8.116574568003871 4.562722703926207 a30.31113425909491,30.31113425909491 0 0,0 -0.2517608033842133,-0.4570189870110106 l 8.193911780839601 -4.422333198517373" fill="#ff780b" stroke="none" /><path d="M 81.18737489456691 109.33194174019688 l -5.138196825205526 2.548785889994415 a26.735623429722942,26.735623429722942 0 0,0 -0.20095862336938022,-0.41403428611900917 l 5.181308705189625 -2.459962647910121" fill="#ff4706" stroke="none" /><path d="M 81.02952815118164 109.00673069616217 l -9.197643856823694 4.366823446343603 a31.18164031620165,31.18164031620165 0 0,0 -0.22603034022364304,-0.4868492442386671 l 9.271448813887163 -4.20785413482611" fill="#ff830c" stroke="none" /><path d="M 80.87730276802145 108.67885076344099 l -2.697363271057321 1.2242003834660617 a23.96216731379703,23.96216731379703 0 0,0 -0.1672318689998892,-0.37706371667069416 l 2.71803622478849 -1.1775883303026717" fill="#ff2003" stroke="none" /><path d="M 80.73074385275274 108.34839909993369 l -6.474550679710887 2.805097023669755 a28.056087854919724,28.056087854919724 0 0,0 -0.1881748783784708,-0.44478982652624144 l 6.521876539281664 -2.693232671477355" fill="#ff5908" stroke="none" /><path d="M 80.58989483394504 108.01547362559985 l -3.123124237800431 1.2897055293311905 a24.378941455119335,24.378941455119335 0 0,0 -0.1568348217980389,-0.3892511657726072 l 3.144861673855858 -1.235754995715778" fill="#ff2603" stroke="none" /><path d="M 80.45479744820244 107.68017299344265 l -1.0585739504247442 0.41596044062824544 a22.13736621045532,22.13736621045532 0 0,0 -0.1363089564640588,-0.35585967262065143 l 1.0655771864823123 -0.39767720117443617" fill="#ff0500" stroke="none" /><path d="M 80.32549172779594 107.34259656027581 l -6.440221191220853 2.4035134861734533 a27.874105474173916,27.874105474173916 0 0,0 -0.16389408439247352,-0.45096613053973517 l 6.4806395366185505 -2.292299558627601" fill="#ff5708" stroke="none" /><path d="M 80.20201598880116 107.00284435728193 l -10.019258306819944 3.54396217606681 a31.62756815664678,31.62756815664678 0 0,0 -0.17712819096141122,-0.5148174348021713 l 10.078777328724584 -3.3709720381753416" fill="#ff890c" stroke="none" /><path d="M 80.0844068197444 106.66101706037122 l -6.478309704995705 2.166751001427668 a27.83105456983249,27.83105456983249 0 0,0 -0.1480449741828531,-0.45563557980410435 l 6.5146469301948065 -2.0549165216457603" fill="#ff5608" stroke="none" /><path d="M 79.86692584326677 105.97154293290107 l -3.2428616724554047 0.9618445524897906 a24.382498598644876,24.382498598644876 0 0,0 -0.1158834710123337,-0.40340556507708697 l 3.2589377803538424 -0.9058815119081076" fill="#ff2603" stroke="none" /><path d="M 79.67330655649465 105.27499134158121 l -6.749713740122964 1.751621907235313 a27.973292972442174,27.973292972442174 0 0,0 -0.1169399345185702,-0.4671169088483834 l 6.778864988936593 -1.6351771589895376" fill="#ff5808" stroke="none" /><path d="M 79.58551787078972 104.9243191809786 l -6.590235027730563 1.5896764144595057 a27.779252821913023,27.779252821913023 0 0,0 -0.10812668593024757,-0.465806933049221 l 6.616622279591365 -1.4760008240617104" fill="#ff5507" stroke="none" /><path d="M 79.4281124754447 104.21870165774334 l -6.692245069019722 1.3723867259627414 a27.831514428691307,27.831514428691307 0 0,0 -0.09220192019965526,-0.47013560468992344 l 6.714876922195043 -1.256987394204863" fill="#ff5608" stroke="none" /><path d="M 79.35854240842038 103.8639653848113 l -1.651615399521357 0.3091731630122456 a22.680303982219613,22.680303982219613 0 0,0 -0.0685307607857381,-0.38435690071156114 l 1.6566926026462838 -0.2806975115674708" fill="#ff0d01" stroke="none" /><path d="M 79.29508885075956 103.50808413554451 l -4.647865902136184 0.787499377219997 a25.714107838537647,25.714107838537647 0 0,0 -0.07018512140331236,-0.43704281797536326 l 4.660732777900787 -0.70737732955142" fill="#ff3905" stroke="none" /><path d="M 79.23777060512086 103.15116336523772 l -7.023172201495012 1.0659338420837188 a28.10360209524377,28.10360209524377 0 0,0 -0.06847368909785922,-0.4789048220687659 l 7.040479941609471 -0.9448835480345523" fill="#ff5a08" stroke="none" /><path d="M 79.18660465613746 102.79330883721812 l -1.7104876916840275 0.22955987267799324 a22.72582324661203,22.72582324661203 0 0,0 -0.048696559391449304,-0.3881594913220104 l 1.714185760322325 -0.20008262706857424" fill="#ff0e01" stroke="none" /><path d="M 79.1416061653843 102.43462659150553 l -6.854868990242553 0.800111765903795 a27.901406212600925,27.901406212600925 0 0,0 -0.05157468447892479,-0.477517524637884 l 6.86762597622253 -0.6819979193811289" fill="#ff5708" stroke="none" /><path d="M 79.0235259727143 100.99374915477108 l -6.918425193395474 0.3277566658410092 a27.92618448993473,27.92618448993473 0 0,0 -0.018614620022045777,-0.4803606305642499 l 6.923041946268721 -0.20861878826276256" fill="#ff5708" stroke="none" /><line stroke="#e1ed5e" stroke-width="0.3" x1="15.007084014347285" x2="10.007500721073583" y1="101.09737516637583" y2="101.16192664675087" /><path d="M 14.007167355692545 101.11028546245083 a86.0,86.0 0 0,1 10.666146001902534,-42.60595125391555" fill="none" id="id106" stroke="none" /><text fill="#e1ed5e" style="font-size:6.75px; font-family:Arial;" text-anchor="middle"><textPath startOffset="22.20632615414155" xlink:href="#id106">October</textPath></text><path d="M 79.00175016825051 100.2711162175752 l -6.766718971857093 0.0873676267186036 a27.767282966323275,27.767282966323275 0 0,0 -0.0020570303511355205,-0.47798140992201893 l 6.7672202994977315 0.0291232614070907" fill="#ff5507" stroke="none" /><path d="M 79.00019446554 99.90962569577889 l -6.777201849353489 -0.029166217786938228 a27.777264608611674,27.777264608611674 0 0,0 0.006173156962748685,-0.4781178098225331 l 6.775695685273025 0.1458202856699433" fill="#ff5507" stroke="none" /><path d="M 79.00486145842228 99.54816195383935 l -6.780070094160564 -0.14591442767148044 a27.781640030400695,27.781640030400695 0 0,0 0.014404523103537379,-0.4780159950703122 l 6.7765538766013815 0.26260057016678706" fill="#ff5507" stroke="none" /><path d="M 79.01574976396665 99.18683210126434 l -6.7827438000774585 -0.26284043802052304 a27.787834599734147,27.787834599734147 0 0,0 0.0226356945240852,-0.47780373547432675 l 6.777214497319875 0.37955528011785894" fill="#ff5507" stroke="none" /><path d="M 79.03285615573316 98.82574320788736 l -8.191330007061255 -0.45875227301680827 a29.204166071733326,29.204166071733326 0 0,0 0.03242970919056141,-0.5016732474489297 l 8.182219706866281 0.5996845847187497" fill="#ff6909" stroke="none" /><path d="M 79.05617556472873 98.46500227214037 l -6.785108467297096 -0.49728864528878497 a27.803307497807218,27.803307497807218 0 0,0 0.03909080978085739,-0.4770068927167889 l 6.775543173696741 0.6140094552133523" fill="#ff5607" stroke="none" /><path d="M 79.08570108090925 98.10471618934814 l -6.782345555972787 -0.6146258968665739 a27.81013775438668,27.81013775438668 0 0,0 0.04730752646475536,-0.4763803354634969 l 6.770760903825804 0.7312817630345011" fill="#ff5607" stroke="none" /><path d="M 79.12142395522702 97.74499172005258 l -6.776206961602024 -0.7318699691148445 a27.8156154849108,27.8156154849108 0 0,0 0.05551155361716751,-0.47558909105738856 l 6.762605054981267 0.8484027984970948" fill="#ff5607" stroke="none" /><path d="M 79.16333360222342 97.38593545837743 l -6.769039975625745 -0.8492100916390861 a27.82210084734615,27.82210084734615 0 0,0 0.06370466301699207,-0.47467373423006776 l 6.7534193135509195 0.9656021679338133" fill="#ff5607" stroke="none" /><path d="M 79.21141760316559 97.0276538004421 l -6.759330598960887 -0.9664473620113804 a27.828072249880467,27.828072249880467 0 0,0 0.07188137697625299,-0.4736084629773462 l 6.741693328545332 1.0826549373808185" fill="#ff5608" stroke="none" /><path d="M 79.26566170972629 96.67025291283419 l -6.749919490160156 -1.083975984490789 a27.836403810381356,27.836403810381356 0 0,0 0.08004707657525242,-0.47244237715235016 l 6.7302605520646805 1.200004149958967" fill="#ff5608" stroke="none" /><path d="M 79.32604984820605 96.31383870115002 l -6.736591960514907 -1.2011330388565935 a27.842835071774488,27.842835071774488 0 0,0 0.08818790567124743,-0.47110331840930564 l 6.7149183309337985 1.3169144347284718" fill="#ff5608" stroke="none" /><path d="M 79.3925641242962 95.95851677861259 l -6.72278224315699 -1.3184566872190868 a27.85084878865237,27.85084878865237 0 0,0 0.09631182135223598,-0.469650645360658 l 6.69909112588976 1.4339829887431472" fill="#ff5608" stroke="none" /><path d="M 79.46518482838121 95.60439243477599 l -28.071396864574634 -6.0088607271648815 a49.70731142351919,49.70731142351919 0 0,0 0.18629735314612844,-0.8351345049141077 l 27.963805124426468 6.491173401628949" fill="#9aff23" stroke="none" /><path d="M 79.54389044137918 95.25157060432595 l -6.685456839033399 -1.5518796321951553 a27.863210876798163,27.863210876798163 0 0,0 0.11247077913183753,-0.4662639902616858 l 6.657753259640747 1.666728854116238" fill="#ff5608" stroke="none" /><path d="M 79.62865764111835 94.90015583598534 l -6.66355902216944 -1.6681822921679872 a27.869195804593037,27.869195804593037 0 0,0 0.12050596223246138,-0.46435862995741484 l 6.633856728066671 1.7826373476742658" fill="#ff5608" stroke="none" /><path d="M 79.71946130924805 94.55025226153421 l -6.643568239031522 -1.7852470064079322 a27.87925183581448,27.87925183581448 0 0,0 0.12852763830566263,-0.4623822992167084 l 6.6118538301594985 1.8993406090435834" fill="#ff5708" stroke="none" /><path d="M 79.81627453868168 94.20196356495316 l -6.619959037583678 -1.9016689348053002 a27.887684835769516,27.887684835769516 0 0,0 0.13650902592020864,-0.4602405731310419 l 6.5862441145517625 2.0153388946828814" fill="#ff5708" stroke="none" /><path d="M 79.91906864156998 93.8553929516997 l -6.5892511126560835 -2.0162590124511377 a27.890829458848177,27.890829458848177 0 0,0 0.14442736937171305,-0.4578742292460555 l 6.553568259516166 2.129383408123608" fill="#ff5708" stroke="none" /><path d="M 80.02781315780177 93.51064311812611 l -6.559691184215699 -2.1313728669570366 a27.89726748287159,27.89726748287159 0 0,0 0.15232267552184722,-0.4554254118142318 l 6.522031214922079 2.2439713816935907" fill="#ff5708" stroke="none" /><path d="M 80.14247586403 93.16781622104843 l -6.528969484775753 -2.2463585642256967 a27.904604936721803,27.904604936721803 0 0,0 0.16018162649243775,-0.45285502838392844 l 6.4893347774735055 2.3584112190362365" fill="#ff5708" stroke="none" /><path d="M 80.2630227832202 92.82701384747504 l -6.497069906596876 -2.3612223878125147 a27.91283505776854,27.91283505776854 0 0,0 0.16800258443870716,-0.45016340066583194 l 6.4554627336565416 2.4727089255076877" fill="#ff5708" stroke="none" /><path d="M 80.38941819471856 92.48833698450439 l -6.460691715875932 -2.474711841725885 a27.91843451563764,27.91843451563764 0 0,0 0.17576176762728193,-0.44729452735898806 l 6.417136398366958 2.5855553739806365" fill="#ff5708" stroke="none" /><path d="M 80.52162464483688 92.15188598940014 l -6.424538091704234 -2.5885376213253584 a27.926414419364136,27.926414419364136 0 0,0 0.1834875977571796,-0.44432977207470875 l 6.3790288070608545 2.6987419638533785" fill="#ff5708" stroke="none" /><path d="M 80.65960295795068 91.81776055985345 l -6.385032780595817 -2.7012820331678067 a27.932933594950867,27.932933594950867 0 0,0 0.1911534313781869,-0.44120847465004387 l 6.33758863937495 2.81078965240445" fill="#ff5708" stroke="none" /><path d="M 80.803312248108 91.48605970444005 l -6.34330072385429 -2.8133230241427856 a27.939182265326533,27.939182265326533 0 0,0 0.19876424268468573,-0.437950661556925 l 6.293934164206252 2.9220956945417815" fill="#ff5708" stroke="none" /><path d="M 80.95270993114464 91.15688171328213 l -6.300031160483659 -2.9249263575431783 a27.945904319821565,27.945904319821565 0 0,0 0.20632302287955875,-0.43456890511532126 l 6.248749943762348 3.032937678299032" fill="#ff5808" stroke="none" /><path d="M 81.10775173730289 90.83032412892265 l -6.255916743749645 -3.036416207270415 a27.95387069828751,27.95387069828751 0 0,0 0.21383378223213712,-0.4310758566657262 l 6.202722948564095 3.1436516524351026" fill="#ff5808" stroke="none" /><path d="M 81.26839172434947 90.50648371742162 l -6.2064206504207595 -3.145525714302497 a27.958016190647122,27.958016190647122 0 0,0 0.22125516944963594,-0.42739456327071 l 6.15135604781101 3.2518929998335424" fill="#ff5808" stroke="none" /><path d="M 81.43458229118936 90.18545643968196 l -6.156790614944839 -3.2547659648647103 a27.964163421568635,27.964163421568635 0 0,0 0.2286295415054477,-0.4236158175999738 l 6.099852974220919 3.360262765797157" fill="#ff5808" stroke="none" /><path d="M 81.6062741919709 89.86733742301443 l -22.137245199093062 -12.19487766249564 a46.273952326614925,46.273952326614925 0 0,0 0.3903370029456278,-0.6943659732670477 l 21.924050554855004 12.574127145697473" fill="#c0ff1e" stroke="none" /><line stroke="#e1ed5e" stroke-width="0.3" x1="26.266209847984243" x2="21.928928074336255" y1="57.711370442889674" y2="55.22380399835377" /><path d="M 25.398753493254645 57.213857153982495 a86.0,86.0 0 0,1 29.58750427330803,-30.492523968695096" fill="none" id="id107" stroke="none" /><text fill="#e1ed5e" style="font-size:6.75px; font-family:Arial;" text-anchor="middle"><textPath startOffset="21.46611528233685" xlink:href="#id107">November</textPath></text><path d="M 82.15384107792192 88.93136811851018 l -2.906130855553189 -1.8024546783432802 a24.419713353057517,24.419713353057517 0 0,0 0.22462927273308017,-0.35530956462720503 l 2.874673986574146 1.852211890684701" fill="#ff2603" stroke="none" /><path d="M 82.7489923806493 88.02491185347247 l -23.92482564733934 -16.607835457438302 a50.12417347903509,50.12417347903509 0 0,0 0.49810868799217906,-0.7045394144658789 l 23.635404339543282 17.017201372235967" fill="#95ff23" stroke="none" /><path d="M 82.95767976084542 87.72973835380427 l -2.86105995635517 -2.0599280941380074 a24.52547412795472,24.52547412795472 0 0,0 0.24961956033207225,-0.3404807997648453 l 2.8251777835094645 2.108871337574353" fill="#ff2803" stroke="none" /><path d="M 83.84228863543731 86.58626213691792 l -4.69072587149934 -3.8941262043996363 a27.096484896835648,27.096484896835648 0 0,0 0.3010153494399139,-0.3563072286081425 l 4.622999908572302 3.9742923826368948" fill="#ff4c07" stroke="none" /><path d="M 84.31358615837235 86.03803664274999 l -5.6247751890199975 -5.006428229852025 a28.53010089890396,28.53010089890396 0 0,0 0.32966716271356844,-0.36402671498950717 l 5.537764385690384 5.102507732111088" fill="#ff6008" stroke="none" /><path d="M 84.5562425177563 85.77008943001954 l -3.2158250318105606 -2.963067936283121 a25.37279112584268,25.37279112584268 0 0,0 0.29871348091077793,-0.31864671424047264 l 3.164344228929327 3.0179840674016436" fill="#ff3404" stroke="none" /><path d="M 84.80347519578584 85.50635884689758 l -4.4985776009559695 -4.2905052495659595 a27.21656140711051,27.21656140711051 0 0,0 0.32625624406134557,-0.33623573823872255 l 4.4240570931915055 4.367305183354805" fill="#ff4d07" stroke="none" /><path d="M 85.05521093208273 85.24692304244772 l -5.350683881782664 -5.28204518141622 a28.51863147795469,28.51863147795469 0 0,0 0.3478786863273113,-0.34638478469273937 l 5.258969395288039 5.373365816759069" fill="#ff5f08" stroke="none" /><path d="M 85.31137513191541 84.99185889309783 l -4.138730785740672 -4.22875906994117 a26.917051274786058,26.917051274786058 0 0,0 0.3339210899821541,-0.3212318239974959 l 4.06532645214609 4.29937398070098" fill="#ff4906" stroke="none" /><path d="M 85.57189188830299 84.74124197986013 l -3.997379197192241 -4.227514890552286 a26.8181545696197,26.8181545696197 0 0,0 0.33815409053363094,-0.3142773737868878 l 3.924017222863754 4.2956968504138215" fill="#ff4806" stroke="none" /><path d="M 86.37877921826538 84.01681056812374 l -2.7225636040157744 -3.1946659202285055 a25.197409072246927,25.197409072246927 0 0,0 0.33253676250149383,-0.27848997534967446 l 2.6671693045551703 3.2410570529719926" fill="#ff3104" stroke="none" /><path d="M 86.65592168130627 83.78471172551755 l -5.011666630110403 -6.09001365264764 a28.887018999647257,28.887018999647257 0 0,0 0.38666870792397845,-0.3126592041349966 l 4.906094523621924 6.175378954046771" fill="#ff6409" stroke="none" /><path d="M 87.80319425747018 82.90503203632743 l -4.423649724746562 -6.2001602651880985 a28.61647321279788,28.61647321279788 0 0,0 0.4034498387260848,-0.28264239480828085 l 4.316268746436816 6.275387502760322" fill="#ff6108" stroke="none" /><line stroke="#e1ed5e" stroke-width="0.3" x1="56.762969772571076" x2="54.21961505331055" y1="26.818313649435495" y2="22.513508569990535" /><path d="M 56.25429882871897 25.957352633546506 a86.0,86.0 0 0,1 42.265352541879196,-11.944610805530505" fill="none" id="id108" stroke="none" /><text fill="#e1ed5e" style="font-size:6.75px; font-family:Arial;" text-anchor="middle"><textPath startOffset="22.20632615414155" xlink:href="#id108">December</textPath></text><path d="M 89.94658935756843 81.56283822128135 l -3.679528781407669 -6.747965424384228 a28.685959238890902,28.685959238890902 0 0,0 0.43555524754321373,-0.23265852900413356 l 3.5628284873361498 6.8103026798901105" fill="#ff6209" stroke="none" /><path d="M 90.26544431104013 81.39251694778311 l -3.8280435873807583 -7.31725807024952 a29.25809804818995,29.25809804818995 0 0,0 0.4482612476240371,-0.2296168215943479 l 3.7015218521679576 7.382067417156373" fill="#ff6a09" stroke="none" /><path d="M 91.23893434514133 80.91482961587045 l -3.1051373861180367 -6.7642543059049105 a28.442917069376836,28.442917069376836 0 0,0 0.4467134596403376,-0.20042730795581723 l 2.9882418080109248 6.8167019443772565" fill="#ff5e08" stroke="none" /><path d="M 94.63758080256005 79.69619591428918 l -0.8899977023461574 -3.369810960283754 a24.485358205153375,24.485358205153375 0 0,0 0.4084287303156688,-0.10411757740249229 l 0.8318600833454892 3.3846315338551096" fill="#ff2703" stroke="none" /><path d="M 96.04723909329186 79.375362276772 l -1.3047876188840335 -6.808095045558367 a27.932000351972686,27.932000351972686 0 0,0 0.4729883620246281,-0.08643559989447676 l 1.1874041357565122 6.82954612680358" fill="#ff5708" stroke="none" /><path d="M 96.40284397218896 79.31037775812273 l -1.2798519423038537 -7.361274575546621 a28.471705586464715,28.471705586464715 0 0,0 0.4835726587668711,-0.0797936321069594 l 1.152950077398097 7.382214470593207" fill="#ff5f08" stroke="none" /><path d="M 96.75951476605007 79.25152402106235 l -0.6954785558003449 -4.4530738661322085 a25.50705638735614,25.50705638735614 0 0,0 0.43438640867019634,-0.06401726497289796 l 0.6187231667014997 4.464385615266075" fill="#ff3605" stroke="none" /><path d="M 98.19473922651362 79.07773832637324 l -0.14740082360280166 -1.70831751712528 a22.714664906655486,22.714664906655486 0 0,0 0.389837527509797,-0.030258895011458387 l 0.11797310673067049 1.7106016743252006" fill="#ff0e01" stroke="none" /><path d="M 98.55514903715128 79.0497635885617 l -0.47030347736841216 -6.819367041541312 a27.835565244227045,27.835565244227045 0 0,0 0.478291825338947,-0.028851869062761683 l 0.3528496031898422 6.826452179984381" fill="#ff5608" stroke="none" /><path d="M 98.91598698831166 79.02799685794201 l -0.3639236179031505 -7.0406970911233895 a28.050096164494573,28.050096164494573 0 0,0 0.4824071134365844,-0.020773465074900976 l 0.242675672077242 7.045918282722483" fill="#ff5908" stroke="none" /><path d="M 99.27714615592234 79.0124445844662 l -0.12247496943049647 -3.5559750134803036 a24.55808353114893,24.55808353114893 0 0,0 0.42260177518173886,-0.01091455705626226 l 0.06124655905387859 3.5575563626789255" fill="#ff2803" stroke="none" /><path d="M 99.63851952072746 79.00311137660856 l -0.16866815709978186 -9.797227546184216 a30.79867932626281,30.79867932626281 0 0,0 0.5301486363723151,-0.004563156687154273 l 2.399984254555819e-15 9.79867932626281" fill="#ff7e0b" stroke="none" /></svg>