<?xml version="1.0" encoding="utf-8" ?>
<svg baseProfile="full" height="200mm" version="1.1" viewBox="0,0,200,200" width="200mm" xmlns="http://www.w3.org/2000/svg" xmlns:ev="http://www.w3.org/2001/xml-events" xmlns:xlink="http://www.w3.org/1999/xlink"><defs /><rect fill="#1a1a1a" height="200" width="200" x="0" y="0" /><rect fill="#1a1a1a" height="200" width="180" x="10" y="0" /><text alignment-baseline="middle" fill="#e1ed5e" style="dominant-baseline: central; font-size:9.0px; font-family:Arial;" text-anchor="middle" x="100.0" y="100.0">2022</text><line stroke="#e1ed5e" stroke-width="0.3" x1="100.0" x2="100.0" y1="15.0" y2="10.0" /><path d="M 100.0 14.0 a86.0,86.0 0 0,1 42.46469731375804,11.215312516191453" fill="none" id="id109" stroke="none" /><text fill="#e1ed5e" style="font-size:6.75px; font-family:Arial;" text-anchor="middle"><textPath startOffset="22.20632615414155" xlink:href="#id109">January</textPath></text><path d="M 100.0 79.0 l 0.0 -5.036471154777583 a26.036471154777583,26.036471154777583 0 0,0 0.4481750510283029,0.003857584158113938 l -0.08669457175577454 5.0357249472280285" fill="#ff3705" stroke="none" /><path d="M 100.36148047927253 79.00311137660856 l 0.23079500349586357 -13.405916117490795 a34.40790264295047,34.40790264295047 0 0,0 0.5920999787604958,0.01529219558629094 l -0.46152161745122716 13.399957129762145" fill="#ffa90f" stroke="none" /><path d="M 101.08401301168833 79.027996857942 l 0.628421277172487 -12.157836536363218 a33.17406680392922,33.17406680392922 0 0,0 0.5700220141517935,0.03438528455623448 l -0.8376053401638924 12.14521798242668" fill="#ff990e" stroke="none" /><path d="M 101.80526077348638 79.07773832637324 l 0.5649854123734991 -6.54795850719762 a27.57228796753281,27.57228796753281 0 0,0 0.4725035061022409,0.04486990132195892 l -0.6776140455659841 6.537263061360483" fill="#ff4c07" stroke="none" /><path d="M 102.16513564639614 79.11191278185805 l 0.6389243560889339 -6.164005335183084 a27.197030426338827,27.197030426338827 0 0,0 0.4652418521333333,0.05227534293286788 l -0.7449329117319925 6.152094038779615" fill="#ff4706" stroke="none" /><path d="M 102.52436894288641 79.15227682838746 l 0.8321809138565878 -6.872639346031748 a27.922838771343073,27.922838771343073 0 0,0 0.47666316370364586,0.061884558973131595 l -0.9503588060680798 6.857296463894479" fill="#ff5107" stroke="none" /><path d="M 102.88285421437855 79.19881850522331 l 1.504170243221554 -10.853312689985819 a31.95704907660819,31.95704907660819 0 0,0 0.544230097321851,0.08020536934646978 l -1.6907693209720607 10.825812836478379" fill="#ff880c" stroke="none" /><path d="M 103.2404852339499 79.25152402106235 l 1.9147970125770055 -12.260237881586887 a33.40886298225877,33.40886298225877 0 0,0 0.5674269372323705,0.09363030654495069 l -2.1255531559482512 12.225461312102313" fill="#ff9c0e" stroke="none" /><path d="M 103.59715602781102 79.31037775812273 l 2.2080386528134035 -12.69988993220642 a33.89040879811327,33.89040879811327 0 0,0 0.5738854626869644,0.10487390012248032 l -2.426319236603269 12.660000550733201" fill="#ffa20f" stroke="none" /><path d="M 103.95276090670814 79.375362276772 l 0.23331531446565465 -1.217388035782471 a22.239544136217226,22.239544136217226 0 0,0 0.37535435619113383,0.07529255270149351 l -0.2542360801239138 1.213191527003769" fill="#ff0000" stroke="none" /><path d="M 104.307194497241 79.44645832069477 l 3.832309916314087 -18.28743550899112 a39.684670101186924,39.684670101186924 0 0,0 0.6673776183714816,0.14586289830142923 l -4.146530258839096 18.218759112593823" fill="#ffec16" stroke="none" /><path d="M 104.66035177308747 79.52364482259891 l 2.699698385095627 -11.861761879071912 a33.1651044486388,33.1651044486388 0 0,0 0.5555570554497603,0.13148240569639252 l -2.903479127507911 11.81353356123465" fill="#ff990e" stroke="none" /><path d="M 105.36241919743992 79.69619591428918 l 3.4251593933088724 -12.968729732520055 a34.41341372450435,34.41341372450435 0 0,0 0.5714300002263041,0.15619340495516248 l -3.6478872827588877 12.907849786738598" fill="#ffa90f" stroke="none" /><path d="M 105.71112130821622 79.79150937346287 l 3.99826295719579 -14.147634962101346 a35.70175777571364,35.70175777571364 0 0,0 0.5899456758400634,0.17222132015330777 l -4.241198850759281 14.076715313029336" fill="#ffba11" stroke="none" /><path d="M 106.0581310904928 79.89281104454417 l 4.1106604534281885 -13.643452945168434 a35.24925744136878,35.24925744136878 0 0,0 0.5794552033260032,0.18003955231678684 l -4.34490102946491 13.570673257969126" fill="#ffb410" stroke="none" /><path d="M 106.40334571778207 80.00007090966166 l 3.562508212263434 -11.126981857493018 a32.68337237356677,32.68337237356677 0 0,0 0.5343220553758612,0.17615758083869476 l -3.7535130898817126 11.064010552395088" fill="#ff920d" stroke="none" /><path d="M 106.74666289553966 80.11325718540242 l 3.626150130727451 -10.688590222074241 a32.286936063697524,32.286936063697524 0 0,0 0.5247672529618312,0.18308099048326607 l -3.809599387752556 10.624588378418768" fill="#ff8d0d" stroke="none" /><path d="M 107.08798089147638 80.2323363322302 l 2.8731251681049272 -8.012856251743184 a29.51238589014254,29.51238589014254 0 0,0 0.4767201382169706,0.17558005011205427 l -3.010627632094474 7.962212933824805" fill="#ff6709" stroke="none" /><path d="M 107.4271985657038 80.35727306442388 l 3.195241608944728 -8.450461888485233 a30.034371869049508,30.034371869049508 0 0,0 0.4820042356442905,0.18701015504489227 l -3.3402290095886857 8.394209029549794" fill="#ff6e0a" stroke="none" /><path d="M 108.43124777332544 80.76684994638697 l 5.079215739664534 -11.586579009658339 a33.65097805219467,33.65097805219467 0 0,0 0.5285092520331295,0.23712669571234418 l -5.277907110164444 11.497431983429463" fill="#ff9f0e" stroke="none" /><path d="M 108.76106565485865 80.91482961587045 l 4.738416137833756 -10.322200849084425 a32.35783508702792,32.35783508702792 0 0,0 0.5041994607452336,0.23672840739654558 l -4.915393809878587 10.239107459047876" fill="#ff8e0d" stroke="none" /><path d="M 109.08828744355905 81.06846463323043 l 15.75077126593923 -32.809952934131005 a57.3947771941501,57.3947771941501 0 0,0 0.8869644915731474,0.43522962397044906 l -16.313207024522807 32.53396815002572" fill="#4bff2c" stroke="none" /><path d="M 109.41281617654863 81.2277094730956 l 2.566459325204294 -5.118374689845846 a26.725772693146546,26.725772693146546 0 0,0 0.40946367024317715,0.20974319555379112 l -2.654183483036227 5.073438968979555" fill="#ff4106" stroke="none" /><path d="M 109.73455568895987 81.39251694778311 l 3.945060459151324 -7.540934376376539 a29.51053425439183,29.51053425439183 0 0,0 0.4480752393623232,0.23934627503912498 l -4.074280745041958 7.4719093748356595" fill="#ff6709" stroke="none" /><path d="M 110.05341064243156 81.56283822128135 l 4.471511079923838 -8.200398462580756 a30.34028619920067,30.34028619920067 0 0,0 0.4563697876660797,0.25396929273508806 l -4.612004956661953 8.122213772285487" fill="#ff730a" stroke="none" /><path d="M 110.36928655335952 81.73862282372117 l 2.703460018385315 -4.761070380558538 a26.475078742779846,26.475078742779846 0 0,0 0.39435672090377444,0.22843686671251345 l -2.785013471754418 4.713829356455975" fill="#ff3d05" stroke="none" /><line stroke="#e1ed5e" stroke-width="0.3" x1="143.23703022742887" x2="145.7803849466894" y1="26.81831364943548" y2="22.513508569990506" /><path d="M 143.74570117128098 25.957352633546492 a86.0,86.0 0 0,1 28.547481713284135,27.462654790039103" fill="none" id="id110" stroke="none" /><text fill="#e1ed5e" style="font-size:6.75px; font-family:Arial;" text-anchor="middle"><textPath startOffset="19.985693538727396" xlink:href="#id110">February</textPath></text><path d="M 110.68208982089419 81.91981866633111 l 13.728416473764154 -23.236301457068752 a47.988796273285224,47.988796273285224 0 0,0 0.707578653464894,0.4263082215610076 l -14.126357193446685 22.996546626049128" fill="#b0ff20" stroke="none" /><path d="M 110.99172775467656 82.1063720568725 l 2.923485000374229 -4.759192918670477 a26.585398981678598,26.585398981678598 0 0,0 0.38786938450134567,0.24288377299153693 l -3.004973537247838 4.708164804355995" fill="#ff3f05" stroke="none" /><path d="M 111.60114157652 82.49532879139004 l 3.1533620529418562 -4.758028817627137 a26.70811093675517,26.70811093675517 0 0,0 0.3810297456152927,0.2572729851195799 l -3.234796492963691 4.703043920208887" fill="#ff4006" stroke="none" /><path d="M 112.19680574252982 82.90503203632743 l 6.373243254152378 -8.932698573243746 a31.973209802834795,31.973209802834795 0 0,0 0.44527214085914246,0.3235091468701586 l -6.526060711365309 8.821670191556912" fill="#ff890c" stroke="none" /><path d="M 112.48926042617603 83.11751280151076 l 2.9628216063925437 -4.0050248080738085 a25.981820509070268,25.981820509070268 0 0,0 0.35725479068349375,0.269076901674263 l -3.0313225508344206 3.9534313168936985" fill="#ff3605" stroke="none" /><path d="M 113.06298171725822 83.55741782278167 l 6.99502835735712 -8.804753086798138 a32.245181129697805,32.245181129697805 0 0,0 0.4316195632490693,0.3490063363520979 l -7.145551319170681 8.68304065318191" fill="#ff8c0c" stroke="none" /><path d="M 113.34407831869373 83.78471172551755 l 7.667873363852551 -9.317749347507284 a33.06717592591787,33.06717592591787 0 0,0 0.4363961229483361,0.36546920288859513 l -7.827127023760005 9.18437898722487" fill="#ff970d" stroke="none" /><path d="M 113.89432698308785 84.25364557470407 l 7.321554289341915 -8.297471977185484 a32.0658573289176,32.0658573289176 0 0,0 0.41073158546635385,0.3687588728378995 l -7.463296862404259 8.170214095578288" fill="#ff8a0c" stroke="none" /><path d="M 114.16331599549186 84.49514656593476 l 1.3257041769830675 -1.4512737672161728 a22.96562639183548,22.96562639183548 0 0,0 0.2895769910605254,0.26913025395018636 l -1.3504890518384398 1.428238927191346" fill="#ff0b01" stroke="none" /><path d="M 114.42810811169701 84.74124197986012 l 7.6772311112158755 -8.119221930126933 a32.17415062927268,32.17415062927268 0 0,0 0.3991383505458853,0.383970776988241 l -7.815852705374179 7.98586806637639" fill="#ff8b0c" stroke="none" /><path d="M 114.68862486808459 84.99185889309783 l 7.892917488803122 -8.064609211613714 a32.284328434652146,32.284328434652146 0 0,0 0.3938137695522868,0.3921226080722255 l -8.030567058522731 7.92755075289137" fill="#ff8d0d" stroke="none" /><path d="M 115.4437574822437 85.77008943001954 l 8.254531898153385 -7.6057430222420725 a32.22428722806111,32.22428722806111 0 0,0 0.37235372488116614,0.4111622830944973 l -8.384229263650587 7.462527951878026" fill="#ff8c0c" stroke="none" /><path d="M 115.68641384162765 86.03803664274999 l 8.67759806537095 -7.723645916833809 a32.617031222853505,32.617031222853505 0 0,0 0.3696723246178334,0.42259937136100867 l -8.80926225356663 7.573130989269853" fill="#ff910d" stroke="none" /><path d="M 115.9244219780498 86.31012108654704 l 5.61391546704071 -4.826160916866132 a28.40323416261873,28.40323416261873 0 0,0 0.315532051084718,0.3734904245521895 l -5.6961581316125445 4.728811542684836" fill="#ff5808" stroke="none" /><path d="M 116.38621287248628 86.86637796730983 l 19.85555373381245 -15.91431406505921 a46.44618647730255,46.44618647730255 0 0,0 0.4946428608390725,0.6281462014966409 l -20.126550675245486 15.570175469609532" fill="#c1ff1e" stroke="none" /><path d="M 116.60985879189232 87.15038557335679 l 11.381684906697238 -8.805027448396638 a35.3899708019981,35.3899708019981 0 0,0 0.36860181376967194,0.48503677990194105 l -11.531562660691023 8.607805892613664" fill="#ffb610" stroke="none" /><path d="M 116.82858285166822 87.43820079747576 l 8.798104095778228 -6.567398930036253 a31.978950969304442,31.978950969304442 0 0,0 0.32548083022542695,0.44395548664476836 l -8.909847538517282 6.414980999719991" fill="#ff890c" stroke="none" /><path d="M 117.04232023915458 87.72973835380427 l 8.908584936077428 -6.4140719414418506 a31.977395157016865,31.977395157016865 0 0,0 0.3177751819435168,0.4494704589890398 l -9.017672737824828 6.259774982121018" fill="#ff890c" stroke="none" /><path d="M 117.2510076193507 88.02491185347247 l 3.5098228775273226 -2.4364048329526247 a25.27257827800136,25.27257827800136 0 0,0 0.24499422032728044,0.35949878763133114 l -3.5512415635233365 2.3756280220508867" fill="#ff2c04" stroke="none" /><path d="M 117.45458315368197 88.32363383020206 l 2.1724935022622534 -1.453304808861608 a23.613775599555552,23.613775599555552 0 0,0 0.22309773956451218,0.339793163212879 l -2.19718787718469 1.4156935816710552" fill="#ff1402" stroke="none" /><line stroke="#e1ed5e" stroke-width="0.3" x1="172.23445277983987" x2="176.4835382374775" y1="55.19839476539836" y2="52.563006222186495" /><path d="M 173.08426987136738 54.67131705675599 a86.0,86.0 0 0,1 12.851231095245387,41.99856678651699" fill="none" id="id111" stroke="none" /><text fill="#e1ed5e" style="font-size:6.75px; font-family:Arial;" text-anchor="middle"><textPath startOffset="22.20632615414155" xlink:href="#id111">March</textPath></text><path d="M 118.03404312379186 89.2402003453031 l 9.97688048225028 -5.952588359193045 a32.61772147760081,32.61772147760081 0 0,0 0.28352616650273565,0.4846381249103798 l -10.077866323223343 5.77997082192877" fill="#ff910d" stroke="none" /><path d="M 118.21658344932153 89.55222093294921 l 10.559179038036065 -6.056018683511344 a33.172576730189,33.172576730189 0 0,0 0.2798223088758776,0.49777266407789944 l -10.661858988204376 5.8733625094986515" fill="#ff990e" stroke="none" /><path d="M 118.56541770881063 90.18545643968196 l 11.720441199220689 -6.195970513569824 a34.2574051951887,34.2574051951887 0 0,0 0.2711075041834279,0.5236934062969405 l -11.825358136564233 5.9933043850125385" fill="#ffa70f" stroke="none" /><path d="M 119.04729006885535 91.15688171328212 l 10.488083590767793 -4.869320699105521 a32.563311873233815,32.563311873233815 0 0,0 0.2316611117076698,0.5104345518038339 l -10.57034701943881 4.688064138459625" fill="#ff910d" stroke="none" /><path d="M 119.196687751892 91.48605970444005 l 10.459314362293261 -4.638819944564696 a32.44184895055713,32.44184895055713 0 0,0 0.22200928971788275,0.5124280499091439 l -10.537614361853825 4.458092750068949" fill="#ff8f0d" stroke="none" /><path d="M 119.34039704204932 91.81776055985345 l 10.537725357930624 -4.458139708591843 a32.441969471227296,32.441969471227296 0 0,0 0.21315658198711546,0.5161755707102212 l -10.612903626803936 4.276089567428319" fill="#ff8f0d" stroke="none" /><path d="M 119.47837535516314 92.15188598940014 l 10.174085128757952 -4.099283363634109 a31.96887105870887,31.96887105870887 0 0,0 0.20126147414102596,0.5121884990505218 l -10.243140152780677 3.9235458596878034" fill="#ff890c" stroke="none" /><path d="M 119.85752413597 93.16781622104841 l 10.878228212635292 -3.7427654036422933 a32.504092398484815,32.504092398484815 0 0,0 0.17747653323346219,0.5306322447285214 l -10.941042039640525 3.5549600559914576" fill="#ff900d" stroke="none" /><path d="M 119.97218684219823 93.5106431181261 l 10.942969772750613 -3.555586414448006 a32.50611933702849,32.50611933702849 0 0,0 0.16832677247038672,0.5336418681696918 l -11.002552028989207 3.366694379851895" fill="#ff900d" stroke="none" /><path d="M 120.08093135843002 93.85539295169968 l 11.00127384539098 -3.3663032657244423 a32.50478265323212,32.50478265323212 0 0,0 0.15910952249609986,0.5364382122762578 l -11.057589264998782 3.1764356667016544" fill="#ff900d" stroke="none" /><path d="M 120.53481517161879 95.60439243477599 l 11.09786207266536 -2.3755678381679344 a32.34926716302168,32.34926716302168 0 0,0 0.1118679313339288,0.5455077622714067 l -11.137109299914286 2.1841844197331155" fill="#ff8e0d" stroke="none" /><path d="M 120.6074358757038 95.95851677861258 l 10.881446758301166 -2.134044466441552 a32.088734343399736,32.088734343399736 0 0,0 0.10163613978571763,0.5429443227947564 l -10.916568621996744 1.9464220661842329" fill="#ff8a0c" stroke="none" /><path d="M 120.67395015179393 96.31383870115 l 11.218941337267566 -2.0003350626206093 a32.39587579310166,32.39587579310166 0 0,0 0.09315841112226085,0.5498262158388743 l -11.25171160991005 1.8069230584658975" fill="#ff8e0d" stroke="none" /><path d="M 120.73433829027371 96.67025291283417 l 11.27266572663089 -1.8102880999800548 a32.41709838747517,32.41709838747517 0 0,0 0.08373507330090015,0.5517095113027062 l -11.30215669337109 1.6159794762852664" fill="#ff8f0d" stroke="none" /><path d="M 120.78858239683441 97.02765380044208 l 9.857702876598049 -1.4094518386250838 a30.957954633793683,30.957954633793683 0 0,0 0.07088487237041904,0.5281746339277384 l -9.880503748026305 1.239558862632681" fill="#ff7b0b" stroke="none" /><path d="M 120.83666639777658 97.38593545837742 l 6.030530738339509 -0.7565603954738404 a27.077802614272464,27.077802614272464 0 0,0 0.05403910233345982,0.4629740276694381 l -6.042660193676558 0.6526426294795495" fill="#ff4506" stroke="none" /><path d="M 120.94382443527127 98.46500227214037 l 34.15944255735309 -2.50358605098809 a55.25106507750974,55.25106507750974 0 0,0 0.061353437332576415,0.9491105198608243 l -34.19747658569008 1.9152164668742304" fill="#61ff29" stroke="none" /><path d="M 120.98425023603335 99.18683210126433 l 11.498420474476893 -0.445579246855999 a32.50705063311612,32.50705063311612 0 0,0 0.01685460474472309,0.5593222768053304 l -11.504386773677261 0.24758682262566947" fill="#ff900d" stroke="none" /><line stroke="#e1ed5e" stroke-width="0.3" x1="184.98032266829074" x2="189.97916517819016" y1="98.17113171792111" y2="98.06355123074" /><path d="M 185.9800911702706 98.14961562048488 a86.0,86.0 0 0,1 -9.607161424134198,41.387399972396054" fill="none" id="id112" stroke="none" /><text fill="#e1ed5e" style="font-size:6.75px; font-family:Arial;" text-anchor="middle"><textPath startOffset="21.466115282336823" xlink:href="#id112">April</textPath></text><path d="M 120.99513854157772 99.54816195383933 l 16.490487129695367 -0.35489308489979926 a37.49430552876835,37.49430552876835 0 0,0 0.008332650334712397,0.645372951326328 l -16.494152787147794 0.0709838755130085" fill="#ffd113" stroke="none" /><path d="M 120.99824983174949 100.27111621757518 l 32.89931320195859 0.42477527544462157 a53.90205530350948,53.90205530350948 0 0,0 -0.01996413368095039,0.9276548445967989 l -32.88712700559264 -0.9910199358315354" fill="#6fff27" stroke="none" /><path d="M 120.9764740272857 100.99374915477107 l 7.062063160800646 0.3345614371536783 a28.069983553189353,28.069983553189353 0 0,0 -0.027018895149380624,0.4824405231593109 l -7.055257914763736 -0.45607367664841253" fill="#ff5307" stroke="none" /><path d="M 120.95626037817324 101.35467743843564 l 11.373856592868876 0.7352412422976893 a32.397595951757644,32.397595951757644 0 0,0 -0.040764570287988536,0.5562001739777198 l -11.35951546391655 -0.9309145527721794" fill="#ff8e0d" stroke="none" /><path d="M 120.92983693683757 101.71520430193887 l 10.754077070869593 0.8812987559818389 a31.790127948430374,31.790127948430374 0 0,0 -0.0493888456533796,0.5450017962789134 l -10.73731362893914 -1.066281940809323" fill="#ff860c" stroke="none" /><path d="M 120.89721153311464 102.0752229133903 l 7.2625161378815575 0.721212965390905 a28.298238746056338,28.298238746056338 0 0,0 -0.05230821427122222,0.48430909950071216 l -7.249025622109283 -0.8461183867764086" fill="#ff5708" stroke="none" /><path d="M 120.70491114924044 103.5080841355445 l 3.277781615381954 0.5553626191302293 a24.324496947940112,24.324496947940112 0 0,0 -0.07349885093601648,0.4122205886485212 l -3.267736322106749 -0.6117019585119688" fill="#ff1e03" stroke="none" /><path d="M 120.64145759157962 103.86396538481128 l 3.454477035174161 0.6466587752980957 a24.514481349817594,24.514481349817594 0 0,0 -0.08121305288445914,0.4141036069950794 l -3.4428340493140377 -0.70602610936112" fill="#ff2103" stroke="none" /><path d="M 120.32669344350535 105.2749913415812 l 1.7995751431082836 0.46700873040686386 a22.859184727231113,22.859184727231113 0 0,0 -0.10211733773905796,0.38001660230911494 l -1.7912697290274484 -0.49791626589152704" fill="#ff0901" stroke="none" /><path d="M 120.13307415673323 105.97154293290107 l 5.47741509666184 1.6246212156377389 a26.713271412723124,26.713271412723124 0 0,0 -0.134549949249685,0.43971701915593275 l -5.4486383749060225 -1.718665207345729" fill="#ff4006" stroke="none" /><path d="M 120.02730092923936 106.31721596034902 l 7.520421640661468 2.3721682609552297 a28.885678405287187,28.885678405287187 0 0,0 -0.15365495773920174,0.47290133383930383 l -7.478474431906019 -2.5012684947723285" fill="#ff5f08" stroke="none" /><path d="M 119.9155931802556 106.66101706037122 l 11.391167998813794 3.809917369314308 a33.01141868132996,33.01141868132996 0 0,0 -0.1848783581188726,0.5373430483345901 l -11.32389880975169 -4.005433120738198" fill="#ff960d" stroke="none" /><path d="M 119.79798401119884 107.00284435728193 l 10.948346434992322 3.8725946041013617 a32.61306499716264,32.61306499716264 0 0,0 -0.19175820482901093,0.5276362228175353 l -10.880063969158083 -4.060478623925028" fill="#ff910d" stroke="none" /><path d="M 119.54520255179757 107.68017299344265 l 14.932613052059006 5.867682935493816 a37.04408413073206,37.04408413073206 0 0,0 -0.23831232968052932,0.5914716584151647 l -14.829398108121085 -6.123853961751794" fill="#ffcb12" stroke="none" /><path d="M 119.41010516605496 108.01547362559984 l 9.989803051541584 4.125325555917268 a31.80807457186032,31.80807457186032 0 0,0 -0.21333981398135213,0.5042723006896496 l -9.917312256367923 -4.296672382273081" fill="#ff860c" stroke="none" /><path d="M 118.81262510543309 109.33194174019688 l 15.370930037504957 7.6247000510956235 a38.15813338003437,38.15813338003437 0 0,0 -0.29694537692562795,0.5859013998894722 l -15.23740599079306 -7.888155662687789" fill="#ffd914" stroke="none" /><path d="M 118.64920377521936 109.65438752849418 l 45.512968403162 23.561318747565064 a72.25003447795507,72.25003447795507 0 0,0 -0.5812601002721669,1.0995250561268355 l -45.10065579466494 -24.341258818778034" fill="#3effb8" stroke="none" /><line stroke="#e1ed5e" stroke-width="0.3" x1="174.80103733775053" x2="179.2010983576182" y1="140.37084112569926" y2="142.7455964860345" /><path d="M 175.68104954172406 140.8457921977663 a86.0,86.0 0 0,1 -30.038265399797805,32.042727171017184" fill="none" id="id113" stroke="none" /><text fill="#e1ed5e" style="font-size:6.75px; font-family:Arial;" text-anchor="middle"><textPath startOffset="22.206326154141568" xlink:href="#id113">May</textPath></text><path d="M 118.48025628344425 109.97397251340804 l 15.426136586070044 8.325634663160923 a38.52945756481117,38.52945756481117 0 0,0 -0.32002125382571717,0.5809315321504728 l -15.280538922792818 -8.5899367137092" fill="#ffde14" stroke="none" /><path d="M 118.30583269289576 110.29060199501025 l 16.381553362231887 9.208870666460983 a39.79251418813503,39.79251418813503 0 0,0 -0.34079067832448573,0.5941972729905031 l -16.220610687755023 -9.489487785309802" fill="#ffed16" stroke="none" /><path d="M 118.12598468904814 110.60418214915192 l 14.239038875015767 8.330215679303421 a37.49674881144533,37.49674881144533 0 0,0 -0.3307197609056878,0.5543053422430382 l -14.093538238411853 -8.574083115432565" fill="#ffd113" stroke="none" /><path d="M 117.94076556474637 110.91462005526583 l 53.8222966942391 32.74386016579747 a84.0,84.0 0 0,0 -0.7621414413281484,1.228814674538906 l -53.25069061324299 -33.665471171701654" fill="#4dd2ff" stroke="none" /><path d="M 117.75023020441432 111.22182372390056 l 9.356276357405902 5.915105482338824 a32.06925382053133,32.06925382053133 0 0,0 -0.2990001872946182,0.4640549306045663 l -9.253071306734233 -6.075282012864843" fill="#ff8a0c" stroke="none" /><path d="M 117.55443506779139 111.5257021239791 l 4.858471951144345 3.189923245626986 a26.812087405833445,26.812087405833445 0 0,0 -0.2566260145728018,0.3836210723114447 l -4.802842831160823 -3.2730812321442375" fill="#ff4206" stroke="none" /><path d="M 117.14729908036423 112.12312394758627 l 9.639786078426834 6.815319480302826 a32.80567894093461,32.80567894093461 0 0,0 -0.3299629674839773,0.45828970245855905 l -9.521043318567255 -6.980242788212515" fill="#ff940d" stroke="none" /><path d="M 116.71984013943494 112.70617746262583 l 8.814659340691913 6.698666071050665 a32.07114928198028,32.07114928198028 0 0,0 -0.3378056945312228,0.43665939684748184 l -8.698046828942621 -6.8494034620113995" fill="#ff8a0c" stroke="none" /><path d="M 116.498646956653 112.99209946851258 l 9.297355581367453 7.3213378542261385 a32.833968429149586,32.833968429149586 0 0,0 -0.35348438752319744,0.44102612414445513 l -9.169953281789402 -7.4802918119488435" fill="#ff940d" stroke="none" /><path d="M 116.27256486870786 113.27417163493432 l 8.695661747823687 7.093393540062765 a32.22188777108238,32.22188777108238 0 0,0 -0.35429346558686853,0.4267693027652393 l -8.572272282343274 -7.242024099941775" fill="#ff8c0c" stroke="none" /><path d="M 116.0416608686014 113.55231037782055 l 4.295572738844954 3.6289842731482094 a26.62329725423305,26.62329725423305 0 0,0 -0.29876092466113036,0.3475264511054901 l -4.232469304613045 -3.7023878234152274" fill="#ff3f05" stroke="none" /><path d="M 115.80600337817218 113.82643327865902 l 8.793901229257802 7.6925384422833885 a32.68365724060534,32.68365724060534 0 0,0 -0.3740584656622145,0.4202586515380666 l -8.66018391394725 -7.842771263562322" fill="#ff920d" stroke="none" /><path d="M 115.56566222782051 114.09645910891815 l 8.122848484416064 7.356153553419455 a31.958725409565933,31.958725409565933 0 0,0 -0.37278117071197936,0.4045803356324667 l -7.995020905708363 -7.494885143853256" fill="#ff880c" stroke="none" /><path d="M 115.07121518719521 114.62390073753431 l 8.695261789601197 8.43718596799277 a33.11584436381521,33.11584436381521 0 0,0 -0.40047995882822257,0.40568408392610905 l -8.548741205717437 -8.585610545899545" fill="#ff980e" stroke="none" /><path d="M 114.55890576462653 115.13401014063108 l 14.262775183956306 14.8261818406703 a41.57285648422945,41.57285648422945 0 0,0 -0.5199856981152776,0.4916789334388248 l -14.005453651450221 -15.069495410855046" fill="#fbff18" stroke="none" /><path d="M 114.29624159901734 115.38237550388516 l 7.904657520111009 8.505201130086869 a32.61129005638385,32.61129005638385 0 0,0 -0.41447466707217284,0.3786127812709249 l -7.757083303571973 -8.640006677944378" fill="#ff910d" stroke="none" /><path d="M 114.0293411484842 115.62618273729858 l 7.496147192256271 8.349370409638949 a32.22070447722985,32.22070447722985 0 0,0 -0.41588896872809994,0.36697366032130396 l -7.351315870621583 -8.477167211732542" fill="#ff8c0c" stroke="none" /><path d="M 113.48314897796784 116.09983520530334 l 4.686958951955711 5.596561075147397 a28.299936991863202,28.299936991863202 0 0,0 -0.37615989403486266,0.3095539839554894 l -4.589928929376158 -5.676410177960064" fill="#ff5708" stroke="none" /><path d="M 113.20401910651253 116.32954008644616 l 8.874461939127878 10.975134223272482 a35.114164726538945,35.114164726538945 0 0,0 -0.47327624882550157,0.37599927547790846 l -8.684228197585025 -11.126267412755515" fill="#ffb210" stroke="none" /><path d="M 112.92097659922987 116.55440617244103 l 7.189003576250787 9.210579731525863 a32.6840297590404,32.6840297590404 0 0,0 -0.44648138928249564,0.34234289035868115 l -7.029393458474798 -9.332961963711915" fill="#ff920d" stroke="none" /><path d="M 112.04921762599082 117.19931262002967 l 11.912293626861512 17.003864356141584 a41.76136176879127,41.76136176879127 0 0,0 -0.5923016234098861,0.40739045747587216 l -11.617835118828742 -17.20639560298255" fill="#f9ff18" stroke="none" /><line stroke="#e1ed5e" stroke-width="0.3" x1="143.8653032363475" x2="146.44561519142675" y1="172.8068346515853" y2="177.08958963109032" /><path d="M 144.38136562736335 173.6633856474863 a86.0,86.0 0 0,1 -40.68145358897372,12.25698825130547" fill="none" id="id114" stroke="none" /><text fill="#e1ed5e" style="font-size:6.75px; font-family:Arial;" text-anchor="middle"><textPath startOffset="21.466115282336833" xlink:href="#id114">June</textPath></text><path d="M 110.8373102113329 117.98757091392108 l 3.4492138432974486 5.724942572808414 a27.68371480531216,27.68371480531216 0 0,0 -0.41028864270001913,0.24240576202921257 l -3.3501573295690474 -5.783466907131375" fill="#ff4e07" stroke="none" /><path d="M 110.21172684928248 118.3499491758327 l 8.071946841104754 14.504874295056464 a37.599629638067555,37.599629638067555 0 0,0 -0.568250701395719,0.3098555904399042 l -7.821073327840386 -14.641670537256138" fill="#ffd213" stroke="none" /><path d="M 109.89434966115114 118.52300852407294 l 5.420040535089867 10.146746423009482 a32.50362127222871,32.50362127222871 0 0,0 -0.49577169496800844,0.2593643191899157 l -5.244577937595363 -10.238540161144114" fill="#ff900d" stroke="none" /><path d="M 109.57404056367764 118.69057910512821 l 6.563675881583092 12.813702059146781 a35.3969719572922,35.3969719572922 0 0,0 -0.544685388945804,0.2731165615006163 l -6.3421365849545275 -12.9247864615567" fill="#ffb610" stroke="none" /><path d="M 109.2508944713604 118.85261126421891 l 2.557563261341196 5.212117174072891 a26.80579841813577,26.80579841813577 0 0,0 -0.41598429183856417,0.1996977394062952 l -2.467466301502399 -5.2553691899787465" fill="#ff4206" stroke="none" /><path d="M 108.2653958097858 119.30500536409082 l 21.192406198053597 49.49787339246837 a74.84382555911243,74.84382555911243 0 0,0 -1.1886929478265422,0.4968737485973472 l -20.337241790729593 -49.8553321840857" fill="#42ffd4" stroke="none" /><path d="M 107.59598834532513 119.57807347666477 l 20.438653682494152 52.67905180584478 a77.50505343343912,77.50505343343912 0 0,0 -1.247941267019613,0.47186460509734607 l -19.52884219471426 -53.02306466104876" fill="#45ffee" stroke="none" /><path d="M 106.57524785965236 119.94407469862006 l 1.9038535642978738 5.7747781546897246 a27.080519807563444,27.080519807563444 0 0,0 -0.4439640444564804,0.14214326711253092 l -1.804168174750453 -5.806694268461962" fill="#ff4606" stroke="none" /><path d="M 106.2309692047433 120.05430185196036 l 10.351669814738168 33.31672879695093 a55.88784151653611,55.88784151653611 0 0,0 -0.9211514558757405,0.2775353773347464 l -9.776643384422181 -33.48997954339141" fill="#5aff2a" stroke="none" /><path d="M 105.18746579009965 120.34920634021253 l 2.8269967279944144 11.08964223934841 a32.44430318965867,32.44430318965867 0 0,0 -0.5423555268345254,0.13329779305151687 l -2.635687916416678 -11.136661290713958" fill="#ff8f0d" stroke="none" /><path d="M 104.83641907484287 120.43548508189849 l 7.6064875958683285 32.1399492859422 a54.02779123176473,54.02779123176473 0 0,0 -0.9068432277145747,0.20639456619976704 l -7.052124218760891 -32.26612058571965" fill="#6eff28" stroke="none" /><path d="M 104.48393922423573 120.51570834832081 l 1.1809351266153238 5.403222350779482 a26.530770248820403,26.530770248820403 0 0,0 -0.4469910975660992,0.0936713305080118 l -1.0877525676198467 -5.422749662014035" fill="#ff3e05" stroke="none" /><path d="M 104.13013068566511 120.58985236759428 l 4.569165429772791 22.77856290810978 a44.23230941777734,44.23230941777734 0 0,0 -0.7478048726474263,0.1433185836334766 l -4.17639294255366 -22.853838690091727" fill="#dbff1b" stroke="none" /><path d="M 103.7750983002368 120.6578951692458 l 2.2189443640161914 12.142391114784969 a33.34347504048225,33.34347504048225 0 0,0 -0.5654910919220849,0.09831787483600056 l -2.0096043006220565 -12.178787568141976" fill="#ff9b0e" stroke="none" /><path d="M 103.41894727170886 120.7198165907248 l 0.8793014388971727 5.328822907761198 a26.40088183565676,26.40088183565676 0 0,0 -0.44902134099075874,0.0701278988724754 l -0.7874442342978968 -5.34316911398078" fill="#ff3c05" stroke="none" /><path d="M 103.06178313531738 120.77559828337769 l 1.1198279308850536 7.598544446278135 a28.680617963214587,28.680617963214587 0 0,0 -0.4890337752247878,0.06777562516024722 l -0.9888655644734354 -7.616694636930985" fill="#ff5c08" stroke="none" /><path d="M 102.70371172650421 120.8252237178851 l 0.7825694873903237 6.027707943097084 a27.078295653377683,27.078295653377683 0 0,0 -0.4627456066906789,0.05603204860172169 l -0.6786964576482645 -6.040285520424157" fill="#ff4506" stroke="none" /><path d="M 102.34483914955558 120.86867818915974 l 0.8818869977898415 7.848647511522682 a28.89803725219133,28.89803725219133 0 0,0 -0.4947996294269048,0.051288004703723376 l -0.746654771757334 -7.862664884682164" fill="#ff5f08" stroke="none" /><path d="M 101.98527174616119 120.90594882070398 l 1.1705610815130258 12.326619823678426 a33.38207452420857,33.38207452420857 0 0,0 -0.5725116107366208,0.04939871077757917 l -0.9582051530348633 -12.344942786734668" fill="#ff9b0e" stroke="none" /><path d="M 101.62511606390274 120.93702456842531 l 0.6592938474647372 8.493948087025396 a29.519496609682243,29.519496609682243 0 0,0 -0.5069442743100728,0.034961845225176424 l -0.512986812375734 -8.504038276766858" fill="#ff6709" stroke="none" /><path d="M 101.26447882468166 120.96189622390904 l 2.2282091962907895 36.93813532193081 a58.00528012708061,58.00528012708061 0 0,0 -0.9971713438521227,0.05154236838018736 l -1.5920497840251875 -36.9710174970732" fill="#45ff2d" stroke="none" /><path d="M 100.90346689309514 120.98055641714683 l 0.2770655415883828 6.434092129959489 a27.44005487951324,27.44005487951324 0 0,0 -0.4720730179475612,0.01625914924118248 l -0.16627217196616934 -6.437908077626766" fill="#ff4b06" stroke="none" /><line stroke="#e1ed5e" stroke-width="0.3" x1="102.19456741930631" x2="102.32365962044197" y1="184.97166512339345" y2="189.96999836594603" /><path d="M 102.22038585953345 185.97133177190398 a86.0,86.0 0 0,1 -42.740103519485714,-10.115201625700543" fill="none" id="id115" stroke="none" /><text fill="#e1ed5e" style="font-size:6.75px; font-family:Arial;" text-anchor="middle"><textPath startOffset="22.20632615414155" xlink:href="#id115">July</textPath></text><path d="M 100.54218724476979 120.99299961872073 l 0.6523184527948211 25.257180361409123 a46.2656026876979,46.2656026876979 0 0,0 -0.7962977991782926,0.013708988757979624 l -0.21746096372386062 -25.264666827446263" fill="#c3ff1e" stroke="none" /><path d="M 100.18074693466247 120.99922214144158 l 0.31115387407808837 36.14993158328173 a57.15127065829503,57.15127065829503 0 0,0 -0.9838016174810628,0.0 l 0.31115387407806344 -36.14993158328173" fill="#4eff2c" stroke="none" /><path d="M 99.45781275523022 120.99299961872073 l -0.28301527122319703 10.958095267260466 a31.961749382744607,31.961749382744607 0 0,0 -0.549863313183865,-0.018938404296388746 l 0.4715989360817051 -10.951600064537985" fill="#ff880c" stroke="none" /><path d="M 99.09653310690486 120.98055641714683 l -0.7597341272353405 17.64275463806551 a38.65910493663448,38.65910493663448 0 0,0 -0.6645903879323828,-0.03435173183418638 l 1.0633125835812123 -17.627063099469122" fill="#ffdf14" stroke="none" /><path d="M 98.73552117531835 120.96189622390904 l -0.659812612938892 10.938042812328991 a31.957925590573023,31.957925590573023 0 0,0 -0.5488199074388874,-0.037849834060139344 l 0.8479952811567095 -10.925064633752566" fill="#ff880c" stroke="none" /><path d="M 98.37488393609728 120.93702456842531 l -0.8481572260689575 10.927151035260607 a31.96001826766406,31.96001826766406 0 0,0 -0.5481229611515877,-0.04729435546929701 l 1.0361245049620869 -10.910932427512646" fill="#ff880c" stroke="none" /><path d="M 97.65516085044442 120.86867818915974 l -2.568373741513922 22.85809885565102 a44.00193963497019,44.00193963497019 0 0,0 -0.7519566413113791,-0.09105147723317893 l 2.9614578058766905 -22.810501849692493" fill="#deff1b" stroke="none" /><path d="M 97.2962882734958 120.8252237178851 l -1.1734098858820114 9.038139364756347 a30.113992206329996,30.113992206329996 0 0,0 -0.5134742673480653,-0.07116285466625884 l 1.3288127444169078 -9.016601944597484" fill="#ff700a" stroke="none" /><path d="M 96.93821686468263 120.77559828337769 l -1.0159369594892296 6.893596711054005 a27.968055935503877,27.968055935503877 0 0,0 -0.4756755497501395,-0.0742907381092015 l 1.134448372847886 -6.875087665597698" fill="#ff5207" stroke="none" /><path d="M 96.58105272829116 120.7198165907248 l -1.784159133327605 10.81252416997281 a31.958736365990493,31.958736365990493 0 0,0 -0.5420065155810054,-0.09423478021212117 l 1.9700146203806606 -10.780210811239684" fill="#ff880c" stroke="none" /><path d="M 96.22490169976321 120.6578951692458 l -1.9695320686170896 10.777570216756367 a31.956052041973194,31.956052041973194 0 0,0 -0.5402587326348952,-0.1035418719360958 l 2.1547584158236797 -10.742071146471803" fill="#ff880c" stroke="none" /><path d="M 95.86986931433489 120.58985236759428 l -2.169413426080045 10.815130456355494 a32.03056668540853,32.03056668540853 0 0,0 -0.5396518089787126,-0.11308928350774942 l 2.3552566964881447 -10.776185192121202" fill="#ff890c" stroke="none" /><path d="M 94.81253420990036 120.34920634021253 l -1.3800097351378426 5.413453117207469 a26.58658227553112,26.58658227553112 0 0,0 -0.44248879039413286,-0.11686531126112333 l 1.472988968343465 -5.388896456642764" fill="#ff3f05" stroke="none" /><path d="M 94.46302465271185 120.25689768951611 l -2.9184473764920784 10.67707298837647 a32.068749825001554,32.068749825001554 0 0,0 -0.531224692474698,-0.1501294043533802 l 3.10180323707139 -10.625254790684568" fill="#ff8a0c" stroke="none" /><path d="M 94.11515582081647 120.15858648285463 l -4.565845325928597 15.640344088573473 a37.293167486688375,37.293167486688375 0 0,0 -0.6146713595016289,-0.185195438391793 l 4.834391659870472 -15.559433281075954" fill="#ffce13" stroke="none" /><path d="M 93.76903079525671 120.05430185196036 l -3.2864798445156675 10.577497122298212 a32.07629880152367,32.07629880152367 0 0,0 -0.5258659526595072,-0.16836567174212475 l 3.468067142266115 -10.51935860389638" fill="#ff8a0c" stroke="none" /><path d="M 93.42475214034765 119.94407469862007 l -2.843414987821229 8.624660564397463 a30.081287279017175,30.081287279017175 0 0,0 -0.4903683384675229,-0.1663595645164068 l 2.991453059225978 -8.574438012982933" fill="#ff6f0a" stroke="none" /><path d="M 93.08242187328487 119.8279376855182 l -3.647136202391865 10.45383052087955 a32.071773798180224,32.071773798180224 0 0,0 -0.5196855847347042,-0.1863407611583915 l 3.826541347756296 -10.3895022186812" fill="#ff8a0c" stroke="none" /><path d="M 92.7421414339146 119.70592522655815 l -2.2715204441255117 6.167440659659831 a27.572452313901216,27.572452313901216 0 0,0 -0.44395558161890686,-0.1678660131992229 l 2.3773462465047013 -6.127426396353975" fill="#ff4c07" stroke="none" /><path d="M 91.07499286063937 119.00905698771935 l -4.749287892393349 10.115340277930366 a32.17478610189718,32.17478610189718 0 0,0 -0.49930262859096025,-0.23969560429443476 l 4.922703188984552 -10.03209039713637" fill="#ff8b0c" stroke="none" /><line stroke="#e1ed5e" stroke-width="0.3" x1="58.666819895761336" x2="56.23545636021788" y1="174.27360380694188" y2="178.64263932499728" /><path d="M 58.180547188652646 175.14741091055294 a86.0,86.0 0 0,1 -31.652253787137756,-30.449443065178592" fill="none" id="id116" stroke="none" /><text fill="#e1ed5e" style="font-size:6.75px; font-family:Arial;" text-anchor="middle"><textPath startOffset="22.20632615414155" xlink:href="#id116">August</textPath></text><path d="M 89.7882731507175 118.34994917583269 l -4.873614409010195 8.757635023720464 a31.022389366633444,31.022389366633444 0 0,0 -0.46437744525960245,-0.2636856329252527 l 5.023640621191006 -8.672446225000577" fill="#ff7c0b" stroke="none" /><path d="M 89.1626897886671 117.98757091392108 l -5.766643704293589 9.571370620896875 a32.17431497564109,32.17431497564109 0 0,0 -0.4719218209727081,-0.2898929269184631 l 5.930544725198605 -9.470689227150034" fill="#ff8b0c" stroke="none" /><path d="M 88.54995079064634 117.60387380957326 l -3.018885233087107 4.64138395540131 a26.536796282328627,26.536796282328627 0 0,0 -0.38077181591661596,-0.2523547967370272 l 3.0983317477436847 -4.588731137572965" fill="#ff3e05" stroke="none" /><path d="M 87.95078237400918 117.19931262002967 l -4.264869715097888 6.087766840183833 a28.433035637423043,28.433035637423043 0 0,0 -0.3984316844948717,-0.28427042786975115 l 4.369028727441647 -6.013452150469862" fill="#ff5808" stroke="none" /><path d="M 87.36589467227662 116.77436683061367 l -7.174904102698384 9.52615719682505 a32.925892831211414,32.925892831211414 0 0,0 -0.4497853686655623,-0.34487624086070706 l 7.337818199857432 -9.401241614136975" fill="#ff950d" stroke="none" /><path d="M 87.07902340077011 116.55440617244103 l -6.321759813238324 8.099463602402912 a31.27452956504212,31.27452956504212 0 0,0 -0.42152482200831587,-0.3348848121248498 l 6.460242127963998 -7.98944487627293" fill="#ff7f0b" stroke="none" /><path d="M 86.79598089348748 116.32954008644616 l -1.3780671396032793 1.7042691635357339 a23.191712212639505,23.191712212639505 0 0,0 -0.30826188803536364,-0.25367854749061086 l 1.4071991561833317 -1.6802954971879425" fill="#ff0e01" stroke="none" /><path d="M 86.51685102203217 116.09983520530335 l -7.076388592092503 8.449709364447669 a32.02147285302339,32.02147285302339 0 0,0 -0.41953393679606243,-0.35753592253199357 l 7.220788005465622 -8.326649051692725" fill="#ff890c" stroke="none" /><path d="M 85.18274418774928 114.88116024355367 l -7.734848158941203 7.768207309857867 a31.962341029670867,31.962341029670867 0 0,0 -0.38653029284081414,-0.3915531459292696 l 7.8674190768375505 -7.633913669947932" fill="#ff880c" stroke="none" /><path d="M 84.67929136418377 114.36230785411682 l -5.532040334973202 5.1859785497476585 a28.582733266191898,28.582733266191898 0 0,0 -0.3334020563263655,-0.3618420844364283 l 5.620488799295297 -5.0899852105098855" fill="#ff5a08" stroke="none" /><path d="M 84.43433777217949 114.09645910891817 l -2.4377153864875227 2.2076256545889033 a24.288779003873184,24.288779003873184 0 0,0 -0.2779806231632461,-0.312314176976263 l 2.475354859299107 -2.165337307871776" fill="#ff1e03" stroke="none" /><path d="M 84.19399662182784 113.82643327865904 l -6.202558822623551 5.425740060032798 a29.24077612529002,29.24077612529002 0 0,0 -0.3281337104708825,-0.38169363686822705 l 6.295035042665213 -5.3181693240030405" fill="#ff6409" stroke="none" /><path d="M 83.72743513129214 113.27417163493432 l -8.66320463631646 7.066916996727572 a32.18000135998793,32.18000135998793 0 0,0 -0.34644389988302315,-0.43224203328887373 l 8.783566448254344 -6.916747129860438" fill="#ff8b0c" stroke="none" /><path d="M 83.50135304334701 112.99209946851258 l -4.782711609737873 3.766215807040333 a27.08758670140491,27.08758670140491 0 0,0 -0.2853137864935845,-0.36880652972842254 l 4.846832213449526 -3.683331283198658" fill="#ff4606" stroke="none" /><path d="M 83.28015986056508 112.70617746262583 l -9.883213392494197 7.510709565329357 a33.41324555208293,33.41324555208293 0 0,0 -0.3440589473232617,-0.46092318524911075 l 10.011033606512544 -7.339473500570938" fill="#ff9c0e" stroke="none" /><path d="M 83.06392112726016 112.41649034213515 l -10.347416494215455 7.586088724071433 a33.83034567867311,33.83034567867311 0 0,0 -0.340269173250205,-0.47260412086161896 l 10.476465459841268 -7.406850997758676" fill="#ffa10e" stroke="none" /><path d="M 82.44556493220864 111.52570212397912 l -5.893933253379377 3.8697752878248983 a28.05078789735952,28.05078789735952 0 0,0 -0.26153370708309626,-0.4059061212948768 l 5.9596718238395185 -3.7677475666085734" fill="#ff5307" stroke="none" /><path d="M 82.05923443525364 110.91462005526583 l -9.701003839273652 5.901797817837096 a32.35520554513342,32.35520554513342 0 0,0 -0.28537156369872974,-0.4782991553007479 l 9.801156278670613 -5.733936568650237" fill="#ff8e0d" stroke="none" /><line stroke="#e1ed5e" stroke-width="0.3" x1="26.63291911575756" x2="22.317208475507996" y1="142.92168965132927" y2="145.44649492493687" /><path d="M 25.769776987707644 143.4266507060508 a86.0,86.0 0 0,1 -11.730757126820373,-40.83630448921669" fill="none" id="id117" stroke="none" /><text fill="#e1ed5e" style="font-size:6.75px; font-family:Arial;" text-anchor="middle"><textPath startOffset="21.46611528233685" xlink:href="#id117">September</textPath></text><path d="M 81.87401531095188 110.60418214915194 l -9.65045029779949 5.645769569751159 a32.18060396333876,32.18060396333876 0 0,0 -0.27560082787701784,-0.48053327386650224 l 9.746203121828884 -5.47881645002635" fill="#ff8b0c" stroke="none" /><path d="M 81.69416730710424 110.29060199501025 l -13.150007216829664 7.392260858607264 a36.08536411242265,36.08536411242265 0 0,0 -0.2997208940351499,-0.5440804824924859 l 13.27530452031633 -7.164809857716955" fill="#ffbf11" stroke="none" /><path d="M 81.18737489456691 109.33194174019688 l -8.32461092630126 4.129396282479173 a30.29252714454185,30.29252714454185 0 0,0 -0.22769413136553132,-0.46911735138697175 l 8.39445831428151 -3.9854899751269164" fill="#ff720a" stroke="none" /><path d="M 81.02952815118164 109.00673069616217 l -14.901493491090525 7.074876150390833 a37.49570795111208,37.49570795111208 0 0,0 -0.2717999290342854,-0.585432866683018 l 15.021068036964637 -6.817323216428988" fill="#ffd113" stroke="none" /><path d="M 80.87730276802145 108.67885076344099 l -4.37011280850443 1.9833790403262972 a25.799133085950018,25.799133085950018 0 0,0 -0.18005204571191344,-0.4059698307285006 l 4.403605938947624 -1.9078608731051008" fill="#ff3304" stroke="none" /><path d="M 80.73074385275274 108.34839909993369 l -10.48969456888343 4.544656837205206 a32.4318676477826,32.4318676477826 0 0,0 -0.21752365410910263,-0.5141616628652562 l 10.566369204184838 -4.363420648673792" fill="#ff8f0d" stroke="none" /><path d="M 80.58989483394504 108.01547362559985 l -5.059906235326014 2.089506709535623 a26.47436657518342,26.47436657518342 0 0,0 -0.17031512921423209,-0.42270818326763354 l 5.095123978797633 -2.0020991584251835" fill="#ff3d05" stroke="none" /><path d="M 80.45479744820244 107.68017299344265 l -1.715040621016155 0.6739151781762417 a22.8426953082677,22.8426953082677 0 0,0 -0.14065196061245358,-0.36719788600390335 l 1.7263868612221178 -0.6442937253391805" fill="#ff0901" stroke="none" /><path d="M 80.32549172779594 107.34259656027581 l -10.434075906403123 3.8940342904656298 a32.13703026286201,32.13703026286201 0 0,0 -0.18895921718115974,-0.5199346109280215 l 10.499559384589507 -3.713851882531491" fill="#ff8b0c" stroke="none" /><path d="M 80.20201598880116 107.00284435728193 l -16.232625960382855 5.7417236546021355 a38.21817458662541,38.21817458662541 0 0,0 -0.21403846457141132,-0.6220959672289282 l 16.329055255897494 -5.46145498428391" fill="#ffda14" stroke="none" /><path d="M 80.0844068197444 106.66101706037122 l -10.495784725415525 3.5104453322177793 a32.06728166411045,32.06728166411045 0 0,0 -0.17057923098693722,-0.5249888909925138 l 10.554656207418713 -3.329257541247462" fill="#ff8a0c" stroke="none" /><path d="M 79.86692584326677 105.97154293290107 l -5.253897939171689 1.5583252147487707 a26.480129654502193,26.480129654502193 0 0,0 -0.12585294836809258,-0.4381106236250406 l 5.279943524425886 -1.467657115619134" fill="#ff3d05" stroke="none" /><path d="M 79.67330655649465 105.27499134158121 l -10.935497930869122 2.837877053714553 a32.29772814188952,32.29772814188952 0 0,0 -0.1350178621348563,-0.5393292433367647 l 10.982727107299038 -2.649219970980396" fill="#ff8d0d" stroke="none" /><path d="M 79.58551787078972 104.9243191809786 l -10.677119694912559 2.5755022820799924 a31.98335545197773,31.98335545197773 0 0,0 -0.12449054163269299,-0.5363019951334627 l 10.719870802475807 -2.3913316295979556" fill="#ff890c" stroke="none" /><path d="M 79.4281124754447 104.21870165774334 l -10.842390495778428 2.22346202816068 a32.06802670098057,32.06802670098057 0 0,0 -0.10623689366311123,-0.5416996320091025 l 10.879057322417205 -2.0364986690836226" fill="#ff8a0c" stroke="none" /><path d="M 79.35854240842038 103.8639653848113 l -2.67585226269586 0.500904573819612 a23.722331854100076,23.722331854100076 0 0,0 -0.0716793501025257,-0.40201586170278164 l 2.6840780551375745 -0.4547699613836166" fill="#ff1602" stroke="none" /><path d="M 79.29508885075956 103.50808413554451 l -7.530204970565384 1.2758611908174227 a28.6375263454185,28.6375263454185 0 0,0 -0.07816441759770024,-0.4867299029946504 l 7.551051142524376 -1.1460520581295586" fill="#ff5b08" stroke="none" /><path d="M 79.23777060512086 103.15116336523772 l -11.378539599545615 1.7269646941112395 a32.50884748674403,32.50884748674403 0 0,0 -0.07920695390551945,-0.5539732511347584 l 11.406580604467733 -1.5308459709960807" fill="#ff900d" stroke="none" /><path d="M 79.18660465613746 102.79330883721812 l -2.7712337638850792 0.3719197004990382 a23.796079547816184,23.796079547816184 0 0,0 -0.05098988883303205,-0.4064395833983893 l 2.7772251619649593 -0.3241623628132403" fill="#ff1702" stroke="none" /><path d="M 79.1416061653843 102.43462659150553 l -11.105864418156907 1.2962950574472212 a32.181261348812384,32.181261348812384 0 0,0 -0.05948583335019293,-0.5507649378642986 l 11.126532553008152 -1.1049337976981406" fill="#ff8b0c" stroke="none" /><path d="M 79.0235259727143 100.99374915477108 l -11.208834522494984 0.5310124961044086 a32.22140568840172,32.22140568840172 0 0,0 -0.021477664579705145,-0.5542430889449206 l 11.21631431992589 -0.33799216014549127" fill="#ff8c0c" stroke="none" /><line stroke="#e1ed5e" stroke-width="0.3" x1="15.007084014347285" x2="10.007500721073583" y1="101.09737516637583" y2="101.16192664675087" /><path d="M 14.007167355692545 101.11028546245083 a86.0,86.0 0 0,1 10.666146001902534,-42.60595125391555" fill="none" id="id118" stroke="none" /><text fill="#e1ed5e" style="font-size:6.75px; font-family:Arial;" text-anchor="middle"><textPath startOffset="22.20632615414155" xlink:href="#id118">October</textPath></text><path d="M 79.00175016825051 100.2711162175752 l -10.963048829114944 0.14154800306965767 a31.963962580505807,31.963962580505807 0 0,0 -0.0023679249154627212,-0.5502223577097732 l 10.96386105131991 0.04718383284379097" fill="#ff890c" stroke="none" /><path d="M 79.00019446554 99.90962569577889 l -10.980032584217025 -0.047253428299394946 a31.98013426315697,31.98013426315697 0 0,0 0.007107193284793076,-0.5504599523090109 l 10.977592383814516 0.23624963866887783" fill="#ff890c" stroke="none" /><path d="M 79.00486145842228 99.54816195383935 l -10.984679549460388 -0.236402162124339 a31.987223069847555,31.987223069847555 0 0,0 0.016585078966663776,-0.5503780283862778 l 10.97898277603808 0.42545033793561127" fill="#ff890c" stroke="none" /><path d="M 79.01574976396665 99.18683210126434 l -10.989011333984543 -0.4258389580340635 a31.99725915474489,31.99725915474489 0 0,0 0.026064650026444425,-0.5501835666325535 l 10.980053075724598 0.6149336312896261" fill="#ff890c" stroke="none" /><path d="M 79.03285615573316 98.82574320788736 l -13.271121678954737 -0.7432440434526372 a34.291917932553986,34.291917932553986 0 0,0 0.03807939331011069,-0.5890713601689738 l 13.256361694640214 0.9715744678746228" fill="#ffa70f" stroke="none" /><path d="M 79.05617556472873 98.46500227214037 l -10.992842431788564 -0.8056784570394464 a32.0223274541391,32.0223274541391 0 0,0 0.045022654637359376,-0.549390424778171 l 10.977345293331707 0.9947827990253958" fill="#ff890c" stroke="none" /><path d="M 79.08570108090925 98.10471618934814 l -10.988366121794765 -0.9957815223317237 a32.03339344294511,32.03339344294511 0 0,0 0.05449166133019277,-0.5487235931428387 l 10.969597334782343 1.1847806461789927" fill="#ff890c" stroke="none" /><path d="M 79.12142395522702 97.74499172005258 l -10.978420724312077 -1.1857336238343694 a32.04226814683905,32.04226814683905 0 0,0 0.06394667366658914,-0.547856048399828 l 10.956383697641899 1.3745334105590592" fill="#ff8a0c" stroke="none" /><path d="M 79.16333360222342 97.38593545837743 l -10.966809185907378 -1.3758413404689414 a32.05277535799248,32.05277535799248 0 0,0 0.07339169907203572,-0.5468534046043132 l 10.941501487777508 1.5644130871379138" fill="#ff8a0c" stroke="none" /><path d="M 79.21141760316559 97.0276538004421 l -10.95107861235765 -1.5657824219634002 a32.06244988087931,32.06244988087931 0 0,0 0.08281899752073568,-0.5456737164909681 l 10.922503721397613 1.7540552508464604" fill="#ff8a0c" stroke="none" /><path d="M 79.26566170972629 96.67025291283419 l -10.935831275243808 -1.756195535382053 a32.07594819593774,32.07594819593774 0 0,0 0.0922384191203067,-0.5443963709655948 l 10.903980994603279 1.9441776946634757" fill="#ff8a0c" stroke="none" /><path d="M 79.32604984820605 96.31383870115002 l -10.914238778366078 -1.9460066555171478 a32.08636775569469,32.08636775569469 0 0,0 0.10162864398247573,-0.542904279914112 l 10.87912441047374 2.1335890128938324" fill="#ff8a0c" stroke="none" /><path d="M 79.3925641242962 95.95851677861259 l -10.891865068693663 -2.136087681662515 a32.09935111879877,32.09935111879877 0 0,0 0.11100368947233208,-0.541293412025008 l 10.853482083306337 2.3232567498509256" fill="#ff8a0c" stroke="none" /><path d="M 79.46518482838121 95.60439243477599 l -45.479662419516146 -9.73521049614102 a67.50993460753652,67.50993460753652 0 0,0 0.2530195612732628,-1.13423708103779 l 45.30534847124084 10.51662574672877" fill="#38ff85" stroke="none" /><path d="M 79.54389044137918 95.25157060432595 l -10.831392596041077 -2.514266109679327 a32.119379462895196,32.119379462895196 0 0,0 0.12965094544904385,-0.5374868711046307 l 10.786508850331218 2.7003382124433544" fill="#ff8b0c" stroke="none" /><path d="M 79.62865764111835 94.90015583598534 l -10.795915012809225 -2.7026929891671534 a32.12907589863116,32.12907589863116 0 0,0 0.13892561643871476,-0.5353370714639473 l 10.747793064500204 2.8881264861799645" fill="#ff8b0c" stroke="none" /><path d="M 79.71946130924805 94.55025226153421 l -10.763527095920002 -2.892354505142109 a32.145368101952485,32.145368101952485 0 0,0 0.14819509034681497,-0.533136588445111 l 10.712145235006826 3.0772023970061624" fill="#ff8b0c" stroke="none" /><path d="M 79.81627453868168 94.20196356495316 l -10.725276825831115 -3.080974616470565 a32.15903076337931,32.15903076337931 0 0,0 0.15741708176564737,-0.5307321434905371 l 10.67065384695376 3.2651361467076416" fill="#ff8b0c" stroke="none" /><path d="M 79.91906864156998 93.8553929516997 l -10.675525612307672 -3.2666268685868705 a32.164125500799905,32.164125500799905 0 0,0 0.16655582226682208,-0.528027472068604 l 10.617714306272646 3.449904507081889" fill="#ff8b0c" stroke="none" /><path d="M 80.02781315780177 93.51064311812611 l -10.62763431665539 -3.4531277138420777 a32.17455601698141,32.17455601698141 0 0,0 0.17567722212375203,-0.525252533531127 l 10.566619800759865 3.635553350295527" fill="#ff8b0c" stroke="none" /><path d="M 80.14247586403 93.16781622104843 l -10.577860786459402 -3.6394209261136363 a32.18644373762946,32.18644373762946 0 0,0 0.18476079201236334,-0.5223436391747838 l 10.51364691363723 3.8209621917150316" fill="#ff8b0c" stroke="none" /><path d="M 80.2630227832202 92.82701384747504 l -10.526178924886946 -3.825516685656539 a32.19977770631947,32.19977770631947 0 0,0 0.1938049596831604,-0.519300938187087 l 10.458769376702158 4.0061407608729676" fill="#ff8c0c" stroke="none" /><path d="M 80.38941819471856 92.48833698450439 l -10.467241072901778 -4.009385770513838 a32.20884962585549,32.20884962585549 0 0,0 0.20277227006803697,-0.5160333098943714 l 10.39667525295205 4.188968085303973" fill="#ff8c0c" stroke="none" /><path d="M 80.52162464483688 92.15188598940014 l -10.408667050721718 -4.193799750900943 a32.221778206836774,32.221778206836774 0 0,0 0.2117098382145881,-0.5126721659103557 l 10.334935525620931 4.372346487264609" fill="#ff8c0c" stroke="none" /><path d="M 80.65960295795068 91.81776055985345 l -10.344662818169398 -4.376461761452769 a32.23234020011301,32.23234020011301 0 0,0 0.22057555858416505,-0.5091188007787252 l 10.267796549742553 4.553879706818094" fill="#ff8c0c" stroke="none" /><path d="M 80.803312248108 91.48605970444005 l -10.277050940433735 -4.557984129978738 a32.24246393640682,32.24246393640682 0 0,0 0.22937854321389864,-0.505405214693732 l 10.197070080256484 4.7342113535145405" fill="#ff8c0c" stroke="none" /><path d="M 80.95270993114464 91.15688171328213 l -10.206948082901217 -4.738797430878202 a32.25335462241987,32.25335462241987 0 0,0 0.23812468358678424,-0.5015513129993671 l 10.123865205472681 4.913791159518102" fill="#ff8c0c" stroke="none" /><path d="M 81.10775173730289 90.83032412892265 l -10.135476442548729 -4.919426872058457 a32.26626129055203,32.26626129055203 0 0,0 0.2468215140836227,-0.49757711113963804 l 10.049294915511693 5.093163571697057" fill="#ff8d0d" stroke="none" /><path d="M 81.26839172434947 90.50648371742162 l -10.055285719353074 -5.09619981893098 a32.27297757880756,32.27297757880756 0 0,0 0.2554030684491886,-0.4933574350798962 l 9.966073217743771 5.268529976271212" fill="#ff8d0d" stroke="none" /><path d="M 81.43458229118936 90.18545643968196 l -9.97487799079568 -5.273184588950121 a32.28293696873297,32.28293696873297 0 0,0 0.2639389909986681,-0.48903886493490933 l 9.88263090057854 5.444104437217503" fill="#ff8d0d" stroke="none" /><path d="M 81.6062741919709 89.86733742301443 l -26.14745057806093 -14.404003665219712 a50.852378352818086,50.852378352818086 0 0,0 0.4289576308241874,-0.7630677608575417 l 25.895635305944314 14.851954936012039" fill="#90ff24" stroke="none" /><line stroke="#e1ed5e" stroke-width="0.3" x1="26.266209847984243" x2="21.928928074336255" y1="57.711370442889674" y2="55.22380399835377" /><path d="M 25.398753493254645 57.213857153982495 a86.0,86.0 0 0,1 29.58750427330803,-30.492523968695096" fill="none" id="id119" stroke="none" /><text fill="#e1ed5e" style="font-size:6.75px; font-family:Arial;" text-anchor="middle"><textPath startOffset="21.46611528233685" xlink:href="#id119">November</textPath></text><path d="M 82.15384107792192 88.93136811851018 l -4.70834603974744 -2.920233385356761 a26.540422858858122,26.540422858858122 0 0,0 0.24413701334734395,-0.3861661254849288 l 4.657381430154133 3.000847158555905" fill="#ff3e05" stroke="none" /><path d="M 82.7489923806493 88.02491185347247 l -38.7616262609261 -26.90705965816602 a68.1853105302892,68.1853105302892 0 0,0 0.6775911344011947,-0.9584046064375893 l 38.29272250672103 27.570290764935397" fill="#39ff8c" stroke="none" /><path d="M 82.95767976084542 87.72973835380427 l -4.635324761527515 -3.337377002713448 a26.711770382558345,26.711770382558345 0 0,0 0.2718716198430345,-0.3708325839304306 l 4.577190529170847 3.4166720303153792" fill="#ff4006" stroke="none" /><path d="M 83.84228863543731 86.58626213691792 l -3.799762634196298 -3.1544702567734513 a25.938509762782974,25.938509762782974 0 0,0 0.28815138236275617,-0.3410803490928725 l 3.7449006383464174 3.2194095554954396" fill="#ff3505" stroke="none" /><path d="M 84.31358615837235 86.03803664274999 l -9.112937201394802 -8.111127027972929 a33.1998363144953,33.1998363144953 0 0,0 0.3836262577246977,-0.42360969540838056 l 8.971967303054058 8.266789510650865" fill="#ff990e" stroke="none" /><path d="M 84.5562425177563 85.77008943001954 l -5.210094729256008 -4.8005922226945295 a28.084544641430135,28.084544641430135 0 0,0 0.33063891347338353,-0.3527025397618477 l 5.126688493812169 4.889564179334427" fill="#ff5407" stroke="none" /><path d="M 84.80347519578584 85.50635884689758 l -7.288336652661066 -6.9512297981035465 a31.0717151900044,31.0717151900044 0 0,0 0.37246957625536947,-0.38386263933124926 l 7.167602812702579 7.075656632984919" fill="#ff7d0b" stroke="none" /><path d="M 85.05521093208273 85.24692304244772 l -8.668870232251233 -8.557665758293629 a33.18125421844084,33.18125421844084 0 0,0 0.40475473506246956,-0.40301658959948017 l 8.52027969702145 8.705618198543219" fill="#ff990e" stroke="none" /><path d="M 85.31137513191541 84.99185889309783 l -6.705333542495829 -6.851192189765856 a30.58646610264848,30.58646610264848 0 0,0 0.37944223516287695,-0.3650231295949948 l 6.5864080637205245 6.965598406123164" fill="#ff760a" stroke="none" /><path d="M 85.57189188830299 84.74124197986013 l -6.476323829845667 -6.8491764418902275 a30.426239349877072,30.426239349877072 0 0,0 0.3836489669341986,-0.3565599031904689 l 6.357466979116612 6.959640931155343" fill="#ff740a" stroke="none" /><path d="M 86.37877921826538 84.01681056812374 l -4.410940938338477 -5.175813953828582 a27.80040072688051,27.80040072688051 0 0,0 0.36688912052244776,-0.3072590872712945 l 4.321194280856919 5.250974198493688" fill="#ff5007" stroke="none" /><path d="M 86.65592168130627 83.78471172551755 l -8.119613982737548 -9.86668979776315 a33.77809448994452,33.77809448994452 0 0,0 0.45213845543288467,-0.3655978535047777 l 7.948572128740162 10.004993748532062" fill="#ffa10e" stroke="none" /><path d="M 87.80319425747018 82.90503203632743 l -7.166942817781564 -10.045143003321833 a33.33977176898083,33.33977176898083 0 0,0 0.47004134448490525,-0.32929400017511556 l 6.992970333712998 10.16702184626089" fill="#ff9b0e" stroke="none" /><line stroke="#e1ed5e" stroke-width="0.3" x1="56.762969772571076" x2="54.21961505331055" y1="26.818313649435495" y2="22.513508569990535" /><path d="M 56.25429882871897 25.957352633546506 a86.0,86.0 0 0,1 42.265352541879196,-11.944610805530505" fill="none" id="id120" stroke="none" /><text fill="#e1ed5e" style="font-size:6.75px; font-family:Arial;" text-anchor="middle"><textPath startOffset="22.20632615414155" xlink:href="#id120">December</textPath></text><path d="M 89.94658935756843 81.56283822128135 l -5.961360870235058 -10.93266541027943 a33.452349031339025,33.452349031339025 0 0,0 0.5079260568526902,-0.271316508977411 l 5.772289766854063 11.033660645758589" fill="#ff9c0e" stroke="none" /><path d="M 90.26544431104013 81.39251694778311 l -6.201976015699373 -11.85500060709113 a34.37929541842325,34.37929541842325 0 0,0 0.5267227497602545,-0.269807850449795 l 5.9969927783503545 11.96000098285343" fill="#ffa80f" stroke="none" /><path d="M 91.23893434514133 80.91482961587045 l -5.030764972906771 -10.959055719116787 a33.058586089062516,33.058586089062516 0 0,0 0.51920537287516,-0.23295231633573074 l 4.8413774815648365 11.044028365969046" fill="#ff970d" stroke="none" /><path d="M 94.63758080256005 79.69619591428918 l -1.4419230810679364 -5.4595738726738645 a26.646776872066006,26.646776872066006 0 0,0 0.444482337308517,-0.11330844459201551 l 1.34773185507442 5.483585313434743" fill="#ff3f05" stroke="none" /><path d="M 96.04723909329186 79.375362276772 l -2.1139418434462476 -11.03008396360637 a32.23082821352367,32.23082821352367 0 0,0 0.545782845886835,-0.09973832652966413 l 1.9237638764565193 11.06483777148677" fill="#ff8c0c" stroke="none" /><path d="M 96.40284397218896 79.31037775812273 l -2.073542494652174 -11.926313616965789 a33.10522758841617,33.10522758841617 0 0,0 0.56226989547206,-0.09277935046725959 l 1.8679433930412284 11.960239230372677" fill="#ff980e" stroke="none" /><path d="M 96.75951476605007 79.25152402106235 l -1.126774349363736 -7.214614119058776 a28.302073494652483,28.302073494652483 0 0,0 0.48198568570837536,-0.071032161088087 l 1.002419683226712 7.232940764307832" fill="#ff5708" stroke="none" /><path d="M 98.19473922651362 79.07773832637324 l -0.23881033530875045 -2.767717771902232 a23.778001447291512,23.778001447291512 0 0,0 0.4080869047124037,-0.031675397912873646 l 0.1911332412340126 2.771418432003568" fill="#ff1602" stroke="none" /><path d="M 98.55514903715128 79.0497635885617 l -0.7619586402710369 -11.04834620308707 a32.07458959929225,32.07458959929225 0 0,0 0.5511299616818359,-0.03324566435928667 l 0.5716666297495779 11.059825136826662" fill="#ff8a0c" stroke="none" /><path d="M 98.91598698831166 79.02799685794201 l -0.5896081113658918 -11.406932417618869 a32.42216025562208,32.42216025562208 0 0,0 0.5575981147647814,-0.02401134776056636 l 0.3931691642117862 11.415391491903627" fill="#ff8f0d" stroke="none" /><path d="M 99.27714615592234 79.0124445844662 l -0.19842690021489043 -5.761186162752403 a26.764602261788635,26.764602261788635 0 0,0 0.46057211319111,-0.011895218863635456 l 0.09922815182890139 5.763748173758398" fill="#ff4106" stroke="none" /><path d="M 99.63851952072746 79.00311137660856 l -0.27326644565737856 -15.872904494109658 a36.87525658468073,36.87525658468073 0 0,0 0.6347469249299104,-0.005463467179627715 l 3.888316432414439e-15 15.875256584680727" fill="#ffc912" stroke="none" /></svg>