<?xml version="1.0" encoding="utf-8" ?>
<svg baseProfile="full" height="200mm" version="1.1" viewBox="0,0,200,200" width="200mm" xmlns="http://www.w3.org/2000/svg" xmlns:ev="http://www.w3.org/2001/xml-events" xmlns:xlink="http://www.w3.org/1999/xlink"><defs /><rect fill="#1a1a1a" height="200" width="200" x="0" y="0" /><text alignment-baseline="middle" fill="#e1ed5e" style="dominant-baseline: central; font-size:9.0px; font-family:Arial;" text-anchor="middle" x="100.0" y="100.0">2016</text><line stroke="#e1ed5e" stroke-width="0.3" x1="100.0" x2="100.0" y1="15.0" y2="10.0" /><path d="M 100.0 14.0 a86.0,86.0 0 0,1 42.35913384403234,11.155469271406648" fill="none" id="id25" stroke="none" /><text fill="#e1ed5e" style="font-size:6.75px; font-family:Arial;" text-anchor="middle"><textPath startOffset="22.145653131862478" xlink:href="#id25">January</textPath></text><path d="M 100.36049292484886 79.00309439819443 l 0.13038723286137036 -7.594402639715306 a28.595521857292496,28.595521857292496 0 0,0 0.4907354930746344,0.012639605542969152 l -0.2607360400067461 7.591045316822291" fill="#ff6209" stroke="none" /><path d="M 102.15924093988457 79.11130261209362 l 0.4728076958557695 -4.573985560838998 a25.598357427171585,25.598357427171585 0 0,0 0.4367129735307704,0.04893459958021607 l -0.5512565709873366 4.565195200751811" fill="#ff3905" stroke="none" /><path d="M 102.51750503828377 79.15144685158666 l 0.5760370536162691 -4.770413145215125 a25.80506610393449,25.80506610393449 0 0,0 0.43932778284432195,0.056879777137827006 l -0.6578426583513827 4.759821771876901" fill="#ff3c05" stroke="none" /><path d="M 102.87502721639298 79.19773525538626 l 0.585004370248226 -4.232800203515092 a25.273034949083254,25.273034949083254 0 0,0 0.4292503367351253,0.06308501745289419 l -0.6575798125910333 4.222134112763316" fill="#ff3405" stroke="none" /><path d="M 103.94208987418118 79.37332000966035 l 0.9457579561150585 -4.948605265666363 a26.0381695274113,26.0381695274113 0 0,0 0.4383135446800303,0.08767498462276231 l -1.0305679863260457 4.931640884380742" fill="#ff3f05" stroke="none" /><path d="M 104.29559338865022 79.4440306129975 l 1.0105750600036199 -4.835967494407133 a25.940429491336126,25.940429491336126 0 0,0 0.4351044855185705,0.09482899749690256 l -1.0934419621413245 4.817907038776512" fill="#ff3e05" stroke="none" /><path d="M 104.64783097203109 79.52079915486377 l 1.0084250220157795 -4.443306713905164 a25.556302840995343,25.556302840995343 0 0,0 0.426994520771014,0.10076954425615652 l -1.0845516965266786 4.42534102600278" fill="#ff3805" stroke="none" /><path d="M 104.9986988182912 79.60360301121754 l 1.6641627360550126 -6.790351860030609 a27.99130288251734,27.99130288251734 0 0,0 0.4657149077560151,0.1183829083875991 l -1.7804829370364221 6.760783719807741" fill="#ff5a08" stroke="none" /><path d="M 105.3480935250658 79.69241777938227 l 1.9147951740017173 -7.270789160554828 a28.518697731364245,28.518697731364245 0 0,0 0.47234921390905077,0.12874087869456702 l -2.039325788845461 7.236847787716119" fill="#ff6109" stroke="none" /><path d="M 105.69591212413111 79.78721728523813 l 0.3548678487985582 -1.259300804489574 a22.308346172195648,22.308346172195648 0 0,0 0.3677052698966992,0.10703364507290682 l -0.3764331310768619 1.2530234651141512" fill="#ff0a01" stroke="none" /><path d="M 106.38641147887787 79.99465700312896 l 1.499174932024484 -4.696144122039921 a25.92963437708931,25.92963437708931 0 0,0 0.42287191406002544,0.13900639745500865 l -1.5795695837322519 4.669716803182891" fill="#ff3d05" stroke="none" /><path d="M 106.72888874123014 80.10723608172694 l 1.6305228811897357 -4.820351173308317 a26.088653092921362,26.088653092921362 0 0,0 0.42300170444093355,0.14714195069047126 l -1.7130303576756876 4.791650790049255" fill="#ff4006" stroke="none" /><path d="M 107.06938296918511 80.22567764915836 l 1.6806097938501712 -4.700964702921668 a25.99234598333294,25.99234598333294 0 0,0 0.4188615168913907,0.1538117508390639 l -1.7610604623956867 4.6714221030738825" fill="#ff3e05" stroke="none" /><path d="M 107.40779381753099 80.34994680014964 l 1.607525677600868 -4.264152845375872 a25.557097573332534,25.557097573332534 0 0,0 0.40919071877684754,0.15828376044070003 l -1.6804886588712413 4.235929196797133" fill="#ff3805" stroke="none" /><path d="M 108.4095320186766 80.7573450057729 l 2.375684070999424 -5.436030073016703 a26.93247821403015,26.93247821403015 0 0,0 0.4220532194342866,0.18877903675273094 l -2.468650693289342 5.394447285354119" fill="#ff4b07" stroke="none" /><path d="M 109.06512990194946 81.05736502329252 l 2.732931378980043 -5.710775475735419 a27.331024439731287,27.331024439731287 0 0,0 0.4214701019988063,0.20616214702376337 l -2.8305617302409165 5.663019578614434" fill="#ff5107" stroke="none" /><path d="M 109.3889696526874 81.21577127319529 l 3.5273763462262697 -7.057115588191266 a28.88956680135283,28.88956680135283 0 0,0 0.44169778459054815,0.22553403603325137 l -3.6480013525303967 6.995523600485181" fill="#ff6609" stroke="none" /><path d="M 109.71004243097381 81.37971332152246 l 3.374394361014978 -6.470846117820264 a28.297834390020046,28.297834390020046 0 0,0 0.42879463771067144,0.2283089926269134 l -3.484977814512209 6.411966657470777" fill="#ff5e08" stroke="none" /><path d="M 110.34350942703115 81.72400993836675 l 3.7169197503621363 -6.567441050518239 a28.54630865938203,28.54630865938203 0 0,0 0.4243986942019539,0.24502670034122379 l -3.8291109124244875 6.502667452900844" fill="#ff6209" stroke="none" /><line stroke="#e1ed5e" stroke-width="0.3" x1="143.13028292997686" x2="145.6673583964461" y1="26.7553504044142" y2="22.446841604673864" /><path d="M 143.63769802327073 25.89364864446614 a86.0,86.0 0 0,1 29.32050498858742,28.57503671076993" fill="none" id="id26" stroke="none" /><text fill="#e1ed5e" style="font-size:6.75px; font-family:Arial;" text-anchor="middle"><textPath startOffset="20.669276256404974" xlink:href="#id26">February</textPath></text><path d="M 110.65571695917076 81.90426304109057 l 3.1309256819107136 -5.316996293617723 a27.17034401083057,27.17034401083057 0 0,0 0.3998792060387443,0.2401159737634687 l -3.2217376445068924 5.262466319318333" fill="#ff4f07" stroke="none" /><path d="M 110.96478420261332 82.08984904055464 l 2.6233841766939414 -4.285100897654731 a26.024364063402405,26.024364063402405 0 0,0 0.3790087645725891,0.2365295004603249 l -2.696557070056243 4.23943560035286" fill="#ff3f05" stroke="none" /><path d="M 111.5731344415666 82.4767994020092 l 26.56427338738725 -40.22169565707074 a69.20213088785468,69.20213088785468 0 0,0 0.985648296197834,0.6631881617677466 l -27.250817971682086 39.75975782124588" fill="#3bff99" stroke="none" /><path d="M 111.8722381534696 82.67804972795209 l 26.666530374502244 -38.907264755314095 a68.16862403075118,68.16862403075118 0 0,0 0.9595704710200182,0.6698547127703203 l -27.330495936696025 38.44376522673865" fill="#39ff8e" stroke="none" /><path d="M 112.16784306229584 82.88440491214696 l 21.166927904946345 -29.77393490531122 a57.5311652795104,57.5311652795104 0 0,0 0.8000091789014707,0.5791449505760307 l -21.674918094221784 29.406189183362116" fill="#47ff2c" stroke="none" /><path d="M 112.45986205192187 83.09580414077388 l 18.76466348689728 -25.457869877945694 a52.626187479664864,52.626187479664864 0 0,0 0.7226001840372864,0.5422526494398192 l -19.19891665984533 25.13199820124186" fill="#79ff26" stroke="none" /><path d="M 112.7482090630111 83.31218511350987 l 31.932157912134077 -41.80021974302324 a73.60153115157863,73.60153115157863 0 0,0 0.9974411345409476,0.7756162591878073 l -32.64500899131025 41.24590243221464" fill="#40ffc8" stroke="none" /><path d="M 113.03279911837588 83.53348406188908 l 32.33804875884853 -40.858068206098906 a73.10692022240323,73.10692022240323 0 0,0 0.9773672159113908,0.7872978449431275 l -33.03466674511518 40.29692206736237" fill="#40ffc3" stroke="none" /><path d="M 114.13192950727249 84.46653392183569 l 6.9736469009655515 -7.665259547289597 a31.362815979581068,31.362815979581068 0 0,0 0.39512701885503804,0.3657236697483514 l -7.104203691134554 7.54441813140887" fill="#ff870c" stroke="none" /><path d="M 114.39649973595853 84.71141617570332 l 3.77919145575886 -4.013370362180485 a26.512660856910163,26.512660856910163 0 0,0 0.32866548066549844,0.3148540957635932 l -3.8475294222896705 3.947904136111312" fill="#ff4606" stroke="none" /><path d="M 114.65682725009322 84.96080404539774 l 3.486257041720555 -3.5772068472877696 a25.995037236020234,25.995037236020234 0 0,0 0.3169018842354127,0.3141933373977273 l -3.5471508460859305 3.516833499661383" fill="#ff3e05" stroke="none" /><path d="M 114.91283532996326 85.21462403516908 l 11.528379902962207 -11.429847333472653 a37.23406767429269,37.23406767429269 0 0,0 0.4461229939855208,0.45776149311982844 l -11.722889698098541 11.230263148285081" fill="#ffd313" stroke="none" /><path d="M 115.16444852881244 85.47280134310134 l 45.49334558643732 -43.581595970695986 a84.0,84.0 0 0,0 0.9885766650549601,1.0498341602220207 l -46.23477808522854 42.794220350529464" fill="#4dd2ff" stroke="none" /><path d="M 115.41159269507618 85.73525988315684 l 43.7267220356116 -40.47280111410674 a80.58249617128911,80.58249617128911 0 0,0 0.9309285163359685,1.0232535141262185 l -44.41504825278945 39.71621002442285" fill="#49f1ff" stroke="none" /><path d="M 115.6541949942343 86.00192230759917 l 4.520402779458492 -4.042172039578564 a27.06409070562824,27.06409070562824 0 0,0 0.30671210247431774,0.3489820702516903 l -4.5891259458914 3.9639776915155758" fill="#ff4d07" stroke="none" /><path d="M 115.8921839302757 86.27271002978787 l 9.944309835715487 -8.589657989575679 a34.140453663652146,34.140453663652146 0 0,0 0.37929302114588453,0.446806225191119 l -10.090297420368485 8.41768498193501" fill="#ffac0f" stroke="none" /><path d="M 116.1254893667686 86.54754324733833 l 4.7222983602916875 -3.939509246516542 a27.14978332195557,27.14978332195557 0 0,0 0.29548425405785744,0.36044274488292677 l -4.789229433588172 3.85786421993512" fill="#ff4e07" stroke="none" /><path d="M 116.35404254752997 86.82634096563983 l 3.3992163560882243 -2.73816807856415 a25.364886741023803,25.364886741023803 0 0,0 0.2702369831877067,0.3414356003119258 l -3.44571976991749 2.679412534337546" fill="#ff3605" stroke="none" /><path d="M 116.57777611688842 87.10902102172516 l 4.399202873178899 -3.4208467625246093 a26.572717334663636,26.572717334663636 0 0,0 0.2769231735720987,0.3625013235591726 l -4.457278024105305 3.3448245257245546" fill="#ff4606" stroke="none" /><path d="M 116.7966241395341 87.39550010848427 l 6.9926733510811 -5.247432446121964 a29.74259846221553,29.74259846221553 0 0,0 0.3029467496855767,0.4110054485563908 l -7.081722120350503 5.126620688296699" fill="#ff720a" stroke="none" /><path d="M 117.01052211995028 87.68569379921539 l 10.277323107579964 -7.439989365329887 a33.687663772886594,33.687663772886594 0 0,0 0.33508782514072527,0.47134299025844345 l -10.40352603125065 7.262469148361939" fill="#ffa60f" stroke="none" /><path d="M 117.21940702142032 87.97951657250589 l 2.525081243596432 -1.7627028157223694 a24.07947341331567,24.07947341331567 0 0,0 0.23369732446267863,0.34097138052020637 l -2.5549683048744356 1.7190967001321142" fill="#ff2303" stroke="none" /><path d="M 117.62189284568427 88.57770195909679 l 4.067134205560539 -2.6362672543229104 a25.84680159303595,25.84680159303595 0 0,0 0.23813803982420098,0.37439255228071683 l -4.111789937010629 2.5660610273635216" fill="#ff3c05" stroke="none" /><path d="M 117.81537515405839 88.88188828441811 l 5.723887324649377 -3.5721290274573794 a27.747072838949155,27.747072838949155 0 0,0 0.24870895242283894,0.4062473825793022 l -5.784364241527618 3.4733445287535227" fill="#ff5708" stroke="none" /><line stroke="#e1ed5e" stroke-width="0.3" x1="172.87174338648825" x2="177.1583165268699" y1="56.24261187166439" y2="53.66864786411523" /><path d="M 173.72905801456457 55.72781907015455 a86.0,86.0 0 0,1 12.242430191666344,42.057860355516425" fill="none" id="id27" stroke="none" /><text fill="#e1ed5e" style="font-size:6.75px; font-family:Arial;" text-anchor="middle"><textPath startOffset="22.145653131862474" xlink:href="#id27">March</textPath></text><path d="M 118.00360718960297 89.18935116829356 l 4.207500608681953 -2.5264832242018485 a25.90776719641757,25.90776719641757 0 0,0 0.22567674914582742,0.38324845769950666 l -4.2502510679575485 2.4538835982087854" fill="#ff3d05" stroke="none" /><path d="M 118.18653347947321 89.5 l 3.32608689639006 -1.9203171649788886 a24.840634329957776,24.840634329957776 0 0,0 0.21004132612881377,0.3711228974984611 l -3.3585615875402497 1.8629374973813095" fill="#ff2e04" stroke="none" /><path d="M 118.36410011445183 89.81374322990088 l 3.8621049525120696 -2.1422445137074835 a25.41645403244821,25.41645403244821 0 0,0 0.20836003609399387,0.3833589983329952 l -3.8983103382214046 2.075630681899885" fill="#ff3605" stroke="none" /><path d="M 118.53625476483649 90.13048839642627 l 4.816517349280789 -2.5645241970734327 a26.456704475532643,26.456704475532643 0 0,0 0.21000567417075058,0.4027135705084784 l -4.859831092426484 2.481464383460456" fill="#ff4506" stroke="none" /><path d="M 119.0197475246899 91.09779779509293 l 5.460993396181642 -2.556020651134475 a27.029568014556716,27.029568014556716 0 0,0 0.1930883385924053,0.4219328667213931 l -5.504066199629099 2.4618988021983976" fill="#ff4d07" stroke="none" /><path d="M 119.16976305983485 91.42560881287824 l 4.33793115031943 -1.9403014272811947 a25.75209598952095,25.75209598952095 0 0,0 0.1770347679968327,0.405090194672 l -4.370599800333233 1.8655491628333454" fill="#ff3b05" stroke="none" /><path d="M 119.31412917781788 91.75594674310238 l 11.727077223722654 -5.005591931690877 a33.750697659256275,33.750697659256275 0 0,0 0.22287378543818367,0.5348159506988975 l -11.811276853697322 4.803543471550702" fill="#ffa70f" stroke="none" /><path d="M 119.4528033332814 92.08871423366111 l 3.760957594248331 -1.5295487119985145 a25.06008882761332,25.06008882761332 0 0,0 0.15864387686712078,0.3998862035557581 l -3.786660146081576 1.464761491229191" fill="#ff3104" stroke="none" /><path d="M 119.58574465831526 92.42381321644754 l 2.942117940135209 -1.1380744231361937 a24.154563577780962,24.154563577780962 0 0,0 0.1462723491879535,0.38800478442154335 l -2.961220973137603 1.0874013585204925" fill="#ff2403" stroke="none" /><path d="M 119.71291397450082 92.76114493625339 l 5.880732459390404 -2.1594864157202935 a27.264694393073647,27.264694393073647 0 0,0 0.1575637464451082,0.4407338414955104 l -5.916936375879455 2.0582176178438663" fill="#ff5007" stroke="none" /><path d="M 119.83427380445688 93.10060997987247 l 5.645282789984127 -1.9637223992169595 a26.977074823028182,26.977074823028182 0 0,0 0.14839263930442223,0.4386964704594941 l -5.678160850860914 1.8665242542833036" fill="#ff4c07" stroke="none" /><path d="M 120.05942366710727 93.78553927170692 l 5.933355663955887 -1.8381687516332559 a27.21156774047248,27.21156774047248 0 0,0 0.13440399735773262,0.4473871946728043 l -5.964035981317247 1.736043953369728" fill="#ff4f07" stroke="none" /><path d="M 120.16314734710363 94.1308016681162 l 6.308179301618597 -1.8362190583109603 a27.569994408785572,27.569994408785572 0 0,0 0.12837312508506643,0.45555093323270596 l -6.338770918778246 1.727660201175241" fill="#ff5407" stroke="none" /><path d="M 120.51834098615036 95.52812308129327 l 12.635512334138236 -2.753851103322965 a33.93212541871724,33.93212541871724 0 0,0 0.11915393357004288,0.5701947063421748 l -12.680923978532645 2.536539945695386" fill="#ffa90f" stroke="none" /><path d="M 120.65975698304385 96.23510406497455 l 4.7968586097831025 -0.8741474304700884 a25.875857488939534,25.875857488939534 0 0,0 0.07588425742863221,0.4376802313916753 l -4.81115768470397 0.7916741661578204" fill="#ff3d05" stroke="none" /><path d="M 120.7213421655516 96.59031103205396 l 3.8402751426739985 -0.6319158133309257 a24.89191864850455,24.89191864850455 0 0,0 0.06576030973498681,0.4222283617618318 l -3.8505569445472503 0.5658992696376527" fill="#ff2f04" stroke="none" /><path d="M 120.77682067341334 96.94652285012252 l 5.552372268857052 -0.8160075170819243 a26.612014440457813,26.612014440457813 0 0,0 0.0625451827689743,0.45254578566836384 l -5.565561968181239 0.7205734232134748" fill="#ff4706" stroke="none" /><path d="M 120.9064616781168 98.02013634271609 l 6.662385752705334 -0.6309348576375459 a27.692194162786457,27.692194162786457 0 0,0 0.04075549529154753,0.4736406331075927 l -6.672234870694623 0.5164731771542912" fill="#ff5607" stroke="none" /><path d="M 120.93736805541906 98.37931529534042 l 4.1222336503235315 -0.319086955362721 a25.13456488072715,25.13456488072715 0 0,0 0.02960617014232538,0.43046721620824063 l -4.1271037816309235 0.24827631500014624" fill="#ff3204" stroke="none" /><path d="M 120.99303781780057 99.45929381324524 l 6.091331161411228 -0.1568910832787796 a27.093351305315643,27.093351305315643 0 0,0 0.007984240846396044,0.4650420016540259 l -6.0931268338562905 0.05230216565568729" fill="#ff4e07" stroke="none" /><line stroke="#e1ed5e" stroke-width="0.3" x1="184.99686870605535" x2="189.99668451229388" y1="99.2704041080226" y2="99.22748670261217" /><path d="M 185.99683186730306 99.26182062694052 a86.0,86.0 0 0,1 -10.086455211305974,41.156179273409016" fill="none" id="id28" stroke="none" /><text fill="#e1ed5e" style="font-size:6.75px; font-family:Arial;" text-anchor="middle"><textPath startOffset="21.40746469413373" xlink:href="#id28">April</textPath></text><path d="M 120.99922638620191 99.81974689727618 l 6.7522968994599095 -0.05796034788404755 a27.752545654816615,27.752545654816615 0 0,0 0.0,0.47642690121574804 l -6.7522968994599095 -0.057960347884046734" fill="#ff5708" stroke="none" /><path d="M 120.99303781780057 100.54070618675476 l 3.713696525230964 0.09565164910146366 a24.71492814459289,24.71492814459289 0 0,0 -0.014564522459038193,0.4240301801069031 l -3.7115073157750804 -0.15938809377247745" fill="#ff2c04" stroke="none" /><path d="M 120.96210409425399 101.26102812881392 l 4.027508799841724 0.2422849282118654 a25.03478984821281,25.03478984821281 0 0,0 -0.029488644471895305,0.42875841875351534 l -4.022756194204763 -0.31138677111972424" fill="#ff3104" stroke="none" /><path d="M 120.9064616781168 101.97986365728391 l 4.0325340226915225 0.38188516455870264 a25.05057612236515,25.05057612236515 0 0,0 -0.04421737732437995,0.4277630148422535 l -4.025384252885476 -0.4510527016838875" fill="#ff3104" stroke="none" /><path d="M 120.82617615685814 102.69636545807757 l 2.293904533345249 0.296991867410229 a23.313050405289452,23.313050405289452 0 0,0 -0.05479175587265779,0.3964458510118862 l -2.288468260917381 -0.3363260266222002" fill="#ff1802" stroke="none" /><path d="M 120.77682067341334 103.0534771498775 l 8.065897098737612 1.1854091090931194 a29.15253891516899,29.15253891516899 0 0,0 -0.0770161599711745,0.4944989946803087 l -8.04435944662817 -1.3236962857048788" fill="#ff6a09" stroke="none" /><path d="M 120.65975698304385 103.76489593502545 l 25.830532732656728 4.707183524207804 a47.25593262452172,47.25593262452172 0 0,0 -0.1522849605888504,0.7968192633000786 l -25.745921479785718 -5.1499053525411975" fill="#b4ff20" stroke="none" /><path d="M 120.26092885502905 105.52220625578681 l 12.354805681911053 3.367357227985377 a33.80548000422659,33.80548000422659 0 0,0 -0.15740718147409138,0.5585825566724723 l -12.295180008362381 -3.5789477085608574" fill="#ffa80f" stroke="none" /><path d="M 120.16314734710363 105.8691983318838 l 4.645083049589571 1.352115977569793 a25.837872895641624,25.837872895641624 0 0,0 -0.12761901238163917,0.4248021863841676 l -4.621187717204303 -1.4316557675446842" fill="#ff3c05" stroke="none" /><path d="M 119.94978838288452 106.5578916946017 l 5.520315719429815 1.8146374243792143 a26.81092029063741,26.81092029063741 0 0,0 -0.1474786740299955,0.4359944945266395 l -5.488351623827455 -1.9091335933800142" fill="#ff4a06" stroke="none" /><path d="M 119.4528033332814 107.91128576633889 l 3.3406101898715606 1.3585970820360638 a24.60630870447756,24.60630870447756 0 0,0 -0.16248852755561669,0.3899133142620114 l -3.3167958177794583 -1.415742905739353" fill="#ff2b04" stroke="none" /><path d="M 119.31412917781788 108.2440532568976 l 5.6034155698218635 2.391764907070991 a27.092520448781308,27.092520448781308 0 0,0 -0.18624961921745392,0.4261755776002867 l -5.561532068587444 -2.4876025544471223" fill="#ff4e07" stroke="none" /><path d="M 119.16976305983485 108.57439118712176 l 6.072585890013397 2.716190428428771 a27.652367235434156,27.652367235434156 0 0,0 -0.1975373651832461,0.4316547927438505 l -6.025064059975095 -2.8200342033873103" fill="#ff5507" stroke="none" /><path d="M 119.0197475246899 108.90220220490707 l 9.76008701782098 4.568213540024235 a31.776264359354702,31.776264359354702 0 0,0 -0.2354783732792753,0.49205923336839913 l -9.680229386581793 -4.735085275457738" fill="#ff8d0d" stroke="none" /><path d="M 118.8641267826498 109.22738970284198 l 3.567149477654265 1.7448715616605655 a24.971036660951505,24.971036660951505 0 0,0 -0.19165875505738939,0.38344589722495653 l -3.5366708093851438 -1.8058493150492678" fill="#ff3004" stroke="none" /><path d="M 118.70294669586154 109.54985784667822 l 3.503677596459411 1.7890027454434392 a24.93399129677936,24.93399129677936 0 0,0 -0.1979188170200934,0.3795354282102453 l -3.472450710464368 -1.8488844167581873" fill="#ff2f04" stroke="none" /><path d="M 118.5362547648365 109.86951160357373 l 4.480985623450358 2.3858724519683427 a26.076575569675903,26.076575569675903 0 0,0 -0.2137716071631785,0.3933156795823374 l -4.4393686666718395 -2.4624429650252835" fill="#ff4006" stroke="none" /><line stroke="#e1ed5e" stroke-width="0.3" x1="174.33088141563837" x2="178.70328620479359" y1="141.23008692659167" y2="143.65538615756765" /><path d="M 175.20536237346943 141.71514677278685 a86.0,86.0 0 0,1 -30.301960400862466,31.631185727798858" fill="none" id="id29" stroke="none" /><text fill="#e1ed5e" style="font-size:6.75px; font-family:Arial;" text-anchor="middle"><textPath startOffset="22.145653131862474" xlink:href="#id29">May</textPath></text><path d="M 118.18653347947321 110.5 l 3.2609734811289792 1.882723917150046 a24.765447834300094,24.765447834300094 0 0,0 -0.21572626139539777,0.3663503541148747 l -3.228173509603816 -1.9384254395584704" fill="#ff2d04" stroke="none" /><path d="M 118.00360718960297 110.81064883170644 l 5.777396035933645 3.4691603215071503 a27.73894489459154,27.73894489459154 0 0,0 -0.24863609816039647,0.4061283806168148 l -5.716991973317843 -3.567825818248522" fill="#ff5708" stroke="none" /><path d="M 117.81537515405839 111.11811171558189 l 6.9908681253374985 4.362818752581634 a29.240535456736886,29.240535456736886 0 0,0 -0.2694060142030698,0.42355100147679975 l -6.914944419508538 -4.482183428737106" fill="#ff6b09" stroke="none" /><path d="M 117.62189284568427 111.42229804090321 l 3.2345928850443424 2.096624028843186 a24.85466255984906,24.85466255984906 0 0,0 -0.23514352521495333,0.35603726738549424 l -3.198124920908662 -2.1518411745677413" fill="#ff2e04" stroke="none" /><path d="M 117.423217284605 111.72311816256416 l 6.311436278480811 4.246615998613607 a28.607100323842506,28.607100323842506 0 0,0 -0.2776390783787084,0.40508371269891696 l -6.237607463286783 -4.354334446382568" fill="#ff6209" stroke="none" /><path d="M 117.01052211995028 112.31430620078461 l 11.896510668800435 8.612156291469415 a35.68659940495344,35.68659940495344 0 0,0 -0.3634900733638335,0.49314409480792976 l -11.746918575852773 -8.815106695546222" fill="#ffc011" stroke="none" /><path d="M 116.79662413953412 112.60449989151573 l 4.033857487405582 3.027081861212849 a26.04333528760303,26.04333528760303 0 0,0 -0.2714063062281329,0.35527956711210235 l -3.981299203823145 -3.0958823415658285" fill="#ff3f05" stroke="none" /><path d="M 116.57777611688842 112.89097897827486 l 5.462866499635745 4.247958031969382 a27.920119784672494,27.920119784672494 0 0,0 -0.2974603836352348,0.37583147745904727 l -5.389139685358949 -4.341109453343112" fill="#ff5908" stroke="none" /><path d="M 116.35404254752997 113.17365903436017 l 4.324827405364676 3.4837748192929725 a26.55345109618633,26.55345109618633 0 0,0 -0.28899408134404464,0.3525257894594001 l -4.264386504782004 -3.5575028904508654" fill="#ff4606" stroke="none" /><path d="M 116.1254893667686 113.45245675266167 l 10.566310884678929 8.814792343868305 a34.760359362211574,34.760359362211574 0 0,0 -0.3861800387452538,0.4549191146060135 l -10.413436282426561 -8.994878240923876" fill="#ffb410" stroke="none" /><path d="M 115.89218393027572 113.72728997021213 l 4.454929572668876 3.848062060519951 a26.886763042543222,26.886763042543222 0 0,0 -0.30470248238535647,0.34669549149132306 l -4.388216026324933 -3.923969829822567" fill="#ff4b07" stroke="none" /><path d="M 115.41159269507618 114.26474011684316 l 24.1543672469572 22.356921720018864 a53.91299752219372,53.91299752219372 0 0,0 -0.6344896582572214,0.6738060295090907 l -23.767021754963718 -22.76826920947245" fill="#6cff28" stroke="none" /><path d="M 115.16444852881244 114.52719865689866 l 3.4004730110187347 3.257576222744452 a25.709035946524175,25.709035946524175 0 0,0 -0.30803489399208733,0.31607093762892297 l -3.34405131587584 -3.3154698524411126" fill="#ff3a05" stroke="none" /><path d="M 114.91283532996324 114.78537596483092 l 5.818553774740589 5.768822844725782 a29.193588044524695,29.193588044524695 0 0,0 -0.35589497237121814,0.35285315327856764 l -5.718666882239406 -5.867856008233011" fill="#ff6a09" stroke="none" /><path d="M 114.65682725009322 115.03919595460226 l 4.194981056357613 4.3044201214833375 a27.010482397065136,27.010482397065136 0 0,0 -0.3348367494288911,0.3207660316391762 l -4.1204718210634095 -4.375798283428094" fill="#ff4c07" stroke="none" /><path d="M 114.13192950727249 115.5334660781643 l 3.964007503339055 4.357138638076188 a26.890501896947725,26.890501896947725 0 0,0 -0.34411515742772153,0.30770989569122864 l -3.8886273190879557 -4.424544063650804" fill="#ff4b07" stroke="none" /><path d="M 113.86319453409587 115.77377054828091 l 5.374813708841022 6.1155513597171245 a29.141780569266366,29.141780569266366 0 0,0 -0.3785940826449503,0.32702055150349046 l -5.269040146433216 -6.206916043685332" fill="#ff6a09" stroke="none" /><path d="M 113.59037401385872 116.0094264158162 l 8.251816244162756 9.720618786726915 a33.750800011148186,33.750800011148186 0 0,0 -0.44490893741213416,0.3711588593238947 l -8.083732972588727 -9.86083982996268" fill="#ffa70f" stroke="none" /><path d="M 113.31354834802062 116.24036423190432 l 3.47710977810962 4.241508559152211 a26.484586335029014,26.484586335029014 0 0,0 -0.3540727243342477,0.2852159232306057 l -3.4037862834201196 -4.300572776176221" fill="#ff4506" stroke="none" /><path d="M 111.8722381534696 117.32195027204791 l 6.19222966436805 9.034648137338511 a31.95301671603736,31.95301671603736 0 0,0 -0.45510790029834647,0.3062169061409893 l -6.036225475972699 -9.13961471753662" fill="#ff8f0d" stroke="none" /><path d="M 111.5731344415666 117.5232005979908 l 3.157109135854903 4.780265620922491 a26.728723898240514,26.728723898240514 0 0,0 -0.385039190983485,0.24957775168396584 l -3.0745843126144083 -4.833757214310352" fill="#ff4906" stroke="none" /><path d="M 111.27062007382361 117.71928675628689 l 5.319144896976164 8.362579264530698 a30.910904821992105,30.910904821992105 0 0,0 -0.4501744526729599,0.28094215322648974 l -5.1748063155134885 -8.452657214598736" fill="#ff810b" stroke="none" /><line stroke="#e1ed5e" stroke-width="0.3" x1="143.1302829299769" x2="145.66735839644613" y1="173.24464959558577" y2="177.55315839532614" /><path d="M 143.63769802327073 174.10635135553383 a86.0,86.0 0 0,1 -40.68552437913181,11.842963189579606" fill="none" id="id30" stroke="none" /><text fill="#e1ed5e" style="font-size:6.75px; font-family:Arial;" text-anchor="middle"><textPath startOffset="21.407464694133747" xlink:href="#id30">June</textPath></text><path d="M 110.65571695917076 118.09573695890943 l 5.531454101238584 9.393618355276182 a31.901240767852563,31.901240767852563 0 0,0 -0.4742765548724997,0.27382369662596706 l -5.369385078505686 -9.48718894917832" fill="#ff8f0d" stroke="none" /><path d="M 110.34350942703117 118.27599006163325 l 4.066882203727397 7.185791172860034 a29.25682297490674,29.25682297490674 0 0,0 -0.439208737091793,0.24362168272907433 l -3.9429292784795096 -7.254545771022252" fill="#ff6b09" stroke="none" /><path d="M 110.02825361518725 118.45085714620011 l 2.4371389635098226 4.48406119217581 a26.103572386342226,26.103572386342226 0 0,0 -0.39554517529806554,0.21060552667562096 l -2.359804972425203 -4.5252371865739995" fill="#ff4006" stroke="none" /><path d="M 109.71004243097381 118.62028667847754 l 1.120668714736666 2.1490300262163684 a23.423680759045848,23.423680759045848 0 0,0 -0.35812886947623596,0.1828631525237881 l -1.0836126235468477 -2.167951130412993" fill="#ff1a02" stroke="none" /><path d="M 109.06512990194946 118.94263497670748 l 4.960451669992116 10.365436162591855 a32.49122916015056,32.49122916015056 0 0,0 -0.5051787152845896,0.23644914672188458 l -4.78178424083602 -10.449061540884273" fill="#ff960d" stroke="none" /><path d="M 108.07796709384702 119.3841803445677 l 1.695356325786119 4.068238009086911 a25.40735675546721,25.40735675546721 0 0,0 -0.4040320686395804,0.16431632495374657 l -1.6252697959560978 -4.096741590619948" fill="#ff3605" stroke="none" /><path d="M 106.72888874123015 119.89276391827305 l 1.7016128785889615 5.030516118754399 a26.31051587038657,26.31051587038657 0 0,0 -0.4290834974459921,0.1410482682916986 l -1.6150066434952353 -5.058985308448117" fill="#ff4306" stroke="none" /><path d="M 106.38641147887787 120.00534299687104 l 0.9255843970946575 2.8993799409373726 a24.04353585785597,24.04353585785597 0 0,0 -0.3942674662637947,0.12214506888139882 l -0.8756762979592384 -2.914841597625416" fill="#ff2303" stroke="none" /><path d="M 106.0420521117495 120.11202640906438 l 0.17797719911936066 0.5924282119214358 a21.61858473121053,21.61858473121053 0 0,0 -0.35633603100897127,0.10372422532975042 l -0.1677811557287826 -0.5953961315537045" fill="#ff0000" stroke="none" /><path d="M 105.69591212413111 120.21278271476187 l 2.8378356042679083 10.07047742296978 a31.462687343287797,31.462687343287797 0 0,0 -0.5211098968843838,0.1420308196686209 l -2.6645443064488292 -10.117708736782543" fill="#ff890c" stroke="none" /><path d="M 104.64783097203109 120.47920084513623 l 2.9263584738403288 12.89407538511529 a34.221979955908765,34.221979955908765 0 0,0 -0.5740127389608417,0.1251034048091533 l -2.7045833182603514 -12.942410248058163" fill="#ffad10" stroke="none" /><path d="M 103.58742460773223 120.69131181640829 l 0.7669910726234326 4.423800686946017 a25.4897981940515,25.4897981940515 0 0,0 -0.4317759362029185,0.07104856599217432 l -0.6909376333674419 -4.436315251433863" fill="#ff3705" stroke="none" /><path d="M 102.15924093988457 120.88869738790638 l 2.6045742874128943 25.19689355139701 a46.33115180679877,46.33115180679877 0 0,0 -0.7918224101112009,0.07498640549218698 l -2.1716523139166783 -25.237891712394383" fill="#beff1f" stroke="none" /><path d="M 101.44090949804482 120.95050786540614 l 0.7101479141943912 10.325394816343008 a31.349786866085587,31.349786866085587 0 0,0 -0.5372094220573507,0.03231718482229563 l -0.5327941400045754 -10.336063978989996" fill="#ff870c" stroke="none" /><path d="M 101.08105385017728 120.97215588758144 l 0.39003573117965273 7.566588986002013 a28.576634922885212,28.576634922885212 0 0,0 -0.4901222737113311,0.021047959299511306 l -0.2600876968674921 -7.572169513727355" fill="#ff6209" stroke="none" /><path d="M 100.72087961077811 120.9876233191556 l 0.342713390053607 9.97772641830191 a30.983610416387545,30.983610416387545 0 0,0 -0.5317181274326233,0.013695172828618856 l -0.17138194855023997 -9.982139308480573" fill="#ff820c" stroke="none" /><line stroke="#e1ed5e" stroke-width="0.3" x1="101.45913802915013" x2="101.54496967792366" y1="184.9874750549273" y2="189.98673829345242" /><path d="M 101.47630435890484 185.9873277026323 a86.0,86.0 0 0,1 -42.54439059252881,-10.42667462771756" fill="none" id="id31" stroke="none" /><text fill="#e1ed5e" style="font-size:6.75px; font-family:Arial;" text-anchor="middle"><textPath startOffset="22.145653131862474" xlink:href="#id31">July</textPath></text><path d="M 100.36049292484886 120.99690560180557 l 0.07527697239122083 4.384506253349867 a25.385152415622116,25.385152415622116 0 0,0 -0.43576989724007253,0.003740560466683623 l -5.370262869564909e-16 -4.385152415622116" fill="#ff3605" stroke="none" /><path d="M 99.27912038922189 120.98762331915562 l -0.5105139546402542 14.86305676976648 a35.871821712190595,35.871821712190595 0 0,0 -0.6152431476690746,-0.02642118798924687 l 0.7655828629101675 -14.852103013351405" fill="#ffc212" stroke="none" /><path d="M 98.91894614982273 120.97215588758144 l -0.37334463390755435 7.242786157985884 a28.252402191410752,28.252402191410752 0 0,0 -0.4841326902097528,-0.029124220435494647 l 0.4976216762497535 -7.235309959725697" fill="#ff5e08" stroke="none" /><path d="M 98.19965949673042 120.92268563240118 l -0.05752627861499694 0.6685425567428205 a21.67101298266689,21.67101298266689 0 0,0 -0.3703683819699119,-0.03507427084310574 l 0.0689942239699241 -0.667456530394531" fill="#ff0100" stroke="none" /><path d="M 97.84075906011543 120.88869738790638 l -0.8837594148724343 8.549570656978355 a29.595125893321224,29.595125893321224 0 0,0 -0.5048986235800746,-0.05657494388989692 l 1.0303939400533082 -8.533139952581488" fill="#ff700a" stroke="none" /><path d="M 97.48249496171623 120.84855314841334 l -3.644892404561338 30.184937809915745 a51.404205485907866,51.404205485907866 0 0,0 -0.8751496909188083,-0.11330564859664141 l 4.16251991737094 -30.117920565118705" fill="#86ff25" stroke="none" /><path d="M 92.93061703081489 119.77432235084164 l -13.03691524650695 36.466572212701465 a59.7268905037414,59.7268905037414 0 0,0 -0.9624870325920324,-0.35343857020233876 l 13.660991430753102 -36.2374027934904" fill="#32ff2f" stroke="none" /><path d="M 92.25597844496254 119.51999308798841 l -1.1390698075520798 2.8712000105022075 a24.088894547695762,24.088894547695762 0 0,0 -0.38306566043128154,-0.15578946926165302 l 1.188189929173802 -2.851223284661263" fill="#ff2403" stroke="none" /><path d="M 91.59046798132341 119.24265499422711 l -5.340568999754301 12.220267014490656 a34.336288957074416,34.336288957074416 0 0,0 -0.5380767853071073,-0.240674902007463 l 5.549559187917043 -12.126788361573338" fill="#ffae10" stroke="none" /><path d="M 90.93487009805054 118.94263497670748 l -3.191660427735535 6.6693427569300106 a28.393701988543206,28.393701988543206 0 0,0 -0.4378575892617579,-0.21417808823153353 l 3.3056782662593625 -6.613570918601256" fill="#ff5f08" stroke="none" /><path d="M 90.6110303473126 118.78422872680471 l -3.0878106424337 6.1776897272145845 a27.906404631156462,27.906404631156462 0 0,0 -0.42666604128144564,-0.21785872079421137 l 3.1934039054287284 -6.123773054747537" fill="#ff5908" stroke="none" /><path d="M 90.28995756902619 118.62028667847754 l -4.485790784180994 8.602095302352438 a30.701461876964576,30.701461876964576 0 0,0 -0.4652165971882201,-0.2477016345736838 l 4.632796197155776 -8.523823200056182" fill="#ff7f0b" stroke="none" /><path d="M 89.97174638481275 118.45085714620012 l -2.8801286342897177 5.299112291444351 a27.031229727625384,27.031229727625384 0 0,0 -0.40579772728197305,-0.2250891587965077 l 2.970670549727793 -5.248890217214695" fill="#ff4d07" stroke="none" /><line stroke="#e1ed5e" stroke-width="0.3" x1="58.13341422392154" x2="55.67067388415222" y1="173.97424548756322" y2="178.32567169271397" /><path d="M 57.64086615596768 174.84453072859336 a86.0,86.0 0 0,1 -31.369924170532247,-30.572349798747897" fill="none" id="id32" stroke="none" /><text fill="#e1ed5e" style="font-size:6.75px; font-family:Arial;" text-anchor="middle"><textPath startOffset="22.145653131862474" xlink:href="#id32">August</textPath></text><path d="M 88.4268655584334 117.5232005979908 l -3.524728773067822 5.336888606611283 a27.395787123026338,27.395787123026338 0 0,0 -0.3901991247143539,-0.2625433851414654 l 3.6158241858791813 -5.2755955474126965" fill="#ff5207" stroke="none" /><path d="M 87.83215693770417 117.11559508785305 l -7.387063897509808 10.390830479204084 a33.749041966887134,33.749041966887134 0 0,0 -0.4693029112389242,-0.33973911612847546 l 7.564347819122686 -10.262490591702543" fill="#ffa70f" stroke="none" /><path d="M 87.2517909369889 116.68781488649013 l -7.727143920382482 10.115079436432843 a33.72884854068311,33.72884854068311 0 0,0 -0.45709023207538113,-0.3554361291473675 l 7.899644097093092 -9.980942255664683" fill="#ffa70f" stroke="none" /><path d="M 86.68645165197938 116.24036423190432 l -3.8195872875535595 4.659275434609722 a27.024790006531212,27.024790006531212 0 0,0 -0.35624549941395384,-0.2971926659213635 l 3.8990071211294057 -4.593020584776488" fill="#ff4d07" stroke="none" /><path d="M 86.40962598614128 116.0094264158162 l -3.2227221513021145 3.7963585908143065 a25.979786804125546,25.979786804125546 0 0,0 -0.33751518816911663,-0.2915375808432269 l 3.2874168192340933 -3.7404768775063575" fill="#ff3e05" stroke="none" /><path d="M 86.13680546590413 115.77377054828092 l -4.964267243825165 5.6484248455042 a28.5198838091705,28.5198838091705 0 0,0 -0.3649662004980006,-0.326355026978582 l 5.060498471146537 -5.5623742886422365" fill="#ff6109" stroke="none" /><path d="M 85.60350026404147 115.28858382429668 l -0.7443201562129224 0.7904422122796786 a22.08573080728992,22.08573080728992 0 0,0 -0.2737868285195061,-0.2622815884130667 l 0.7577794705977429 -0.7775484935610294" fill="#ff0701" stroke="none" /><path d="M 84.3458050057657 113.99807769240083 l -2.9969855686430082 2.6799229758106704 a25.02043650054722,25.02043650054722 0 0,0 -0.283551764859849,-0.32262985753096124 l 3.04254839746145 -2.628080840468409" fill="#ff3104" stroke="none" /><path d="M 84.1078160697243 113.72728997021213 l -9.623720245090311 8.312740336769037 a33.716825203733364,33.716825203733364 0 0,0 -0.3745866010148292,-0.44126207411085716 l 9.765001409612253 -8.146311480208626" fill="#ffa60f" stroke="none" /><path d="M 83.8745106332314 113.45245675266167 l -4.743957255777359 3.957577867456002 a27.17798939960407,27.17798939960407 0 0,0 -0.2957912344751576,-0.36081721107771897 l 4.811195309491147 -3.8755583746797875" fill="#ff4f07" stroke="none" /><path d="M 83.64595745247003 113.17365903436017 l -10.286895629882862 8.286394948299447 a34.20926049933552,34.20926049933552 0 0,0 -0.36446475983947474,-0.4604893179328318 l 10.427626820363898 -8.108585686451935" fill="#ffad10" stroke="none" /><path d="M 83.20337586046588 112.60449989151573 l -12.572046146005455 9.434297806931326 a36.718216164920236,36.718216164920236 0 0,0 -0.3739977277219424,-0.5073997459981565 l 12.732145893311227 -9.21709175166429" fill="#ffcd13" stroke="none" /><path d="M 82.37810715431573 111.42229804090323 l -21.893372604513864 14.191019614022201 a47.09032007633561,47.09032007633561 0 0,0 -0.43386399192595776,-0.6821062582012233 l 22.133754288065713 -13.813099681142305" fill="#b6ff1f" stroke="none" /><line stroke="#e1ed5e" stroke-width="0.3" x1="26.387840678322732" x2="22.057713659400548" y1="142.50000000000003" y2="145.00000000000006" /><path d="M 25.521815274538298 143.00000000000003 a86.0,86.0 0 0,1 -11.493303480769221,-40.785679425670985" fill="none" id="id33" stroke="none" /><text fill="#e1ed5e" style="font-size:6.75px; font-family:Arial;" text-anchor="middle"><textPath startOffset="21.40746469413373" xlink:href="#id33">September</textPath></text><path d="M 81.1358732173502 109.22738970284198 l -5.422671032118107 2.652500135319672 a27.036647918376865,27.036647918376865 0 0,0 -0.20035539101592423,-0.41866570900588895 l 5.467405681093943 -2.5590219242486785" fill="#ff4d07" stroke="none" /><path d="M 80.9802524753101 108.90220220490708 l -1.7263148106273196 0.8080024981183777 a22.906051117456396,22.906051117456396 0 0,0 -0.16363159602107916,-0.35756456810741644 l 1.7399308715034547 -0.7782489477962724" fill="#ff1302" stroke="none" /><path d="M 80.83023694016515 108.57439118712176 l -6.187682507049133 2.767671681258991 a27.778452724869062,27.778452724869062 0 0,0 -0.19096511349831066,-0.4369655513315554 l 6.234281502564412 -2.6610440601515863" fill="#ff5708" stroke="none" /><path d="M 80.41425534168474 107.57618678355246 l -7.381812786054183 2.8554437650456403 a28.914841697955243,28.914841697955243 0 0,0 -0.17509907839727626,-0.46447110847072826 l 7.429742548265894 -2.728304376380767" fill="#ff6709" stroke="none" /><path d="M 80.28708602549918 107.23885506374661 l -3.2152800611865247 1.1806953747371054 a24.42521056867884,24.42521056867884 0 0,0 -0.1411542572026545,-0.39483357957627335 l 3.2350744884331224 -1.1253268387799105" fill="#ff2803" stroke="none" /><path d="M 80.16572619554312 106.89939002012753 l -3.300220301057494 1.1479879341093846 a24.49418521723917,24.49418521723917 0 0,0 -0.13473502282370167,-0.39832015413366284 l 3.319440745453563 -1.09116610550156" fill="#ff2904" stroke="none" /><path d="M 80.05021161711548 106.5578916946017 l -8.044914553258923 2.6445232059633903 a29.46842093640344,29.46842093640344 0 0,0 -0.15384660499800404,-0.4819222989418027 l 8.089125874034183 -2.506031873330196" fill="#ff6e0a" stroke="none" /><path d="M 79.64726062577567 105.17358676015961 l -25.472816184597654 6.475090263451883 a47.282906199546304,47.282906199546304 0 0,0 -0.19321253021338797,-0.7883730572082246 l 25.580216241327335 -6.036861381635559" fill="#b3ff20" stroke="none" /><path d="M 79.48165901384964 104.47187691870673 l -3.1574250793842977 0.6881461003389591 a24.231544241896845,24.231544241896845 0 0,0 -0.08508997822181459,-0.40718634871024617 l 3.1687727684304794 -0.6338433003433038" fill="#ff2603" stroke="none" /><path d="M 79.22317932658666 103.0534771498775 l -25.78221892154203 3.7890983219972285 a47.05916496382956,47.05916496382956 0 0,0 -0.11060132558561009,-0.8002560959487823 l 25.843464763682853 -3.3459539178483606" fill="#b6ff1f" stroke="none" /><path d="M 79.13060592940153 102.33845913500099 l -3.0650718563366777 0.3434476946306174 a24.084253848737852,24.084253848737852 0 0,0 -0.042511698525568485,-0.4112621197308237 l 3.070515947343912 -0.29078105261686227" fill="#ff2303" stroke="none" /><path d="M 79.06263194458094 101.62068470465958 l -4.961591193868749 0.3840585377012315 a25.97643327449059,25.97643327449059 0 0,0 -0.03059781248908899,-0.4448854782945935 l 4.967452967522904 -0.29882963525229467" fill="#ff3e05" stroke="none" /><path d="M 79.01933749520258 100.90099992219065 l -8.152105610273551 0.3500864912567423 a29.159619257809396,29.159619257809396 0 0,0 -0.017183781684196486,-0.5002870545849607 l 8.156914078954596 -0.21009317210766176" fill="#ff6a09" stroke="none" /><path d="M 79.00696218219943 100.54070618675478 l -1.4096405389308448 0.03630733994362375 a22.41010803555296,22.41010803555296 0 0,0 -0.006604118402823979,-0.38465678832770406 l 1.410056088932335 -0.012103635646867311" fill="#ff0b01" stroke="none" /><line stroke="#e1ed5e" stroke-width="0.3" x1="15.003131293944662" x2="10.003315487706104" y1="100.72959589197737" y2="100.7725132973878" /><path d="M 14.003168132696942 100.73817937305945 a86.0,86.0 0 0,1 10.791469493833604,-42.45332614584628" fill="none" id="id34" stroke="none" /><text fill="#e1ed5e" style="font-size:6.75px; font-family:Arial;" text-anchor="middle"><textPath startOffset="22.145653131862435" xlink:href="#id34">October</textPath></text><path d="M 79.01933749520258 99.09900007780938 l -1.4740018163190078 -0.06329998023220601 a22.47536037699578,22.47536037699578 0 0,0 0.019862236427991415,-0.3853220804638999 l 1.4726979904344462 0.08859385407281786" fill="#ff0c01" stroke="none" /><path d="M 79.13060592940154 97.66154086499901 l -7.627297663539563 -0.8546546122201015 a28.67503121520852,28.67503121520852 0 0,0 0.059013096455247625,-0.48871309458766526 l 7.611502480824647 0.9854613837312031" fill="#ff6309" stroke="none" /><path d="M 79.22317932658666 96.9465228501225 l -6.304288279132365 -0.9265132769425135 a27.37200734139223,27.37200734139223 0 0,0 0.07231229164194418,-0.46429678567919164 l 6.287454495352153 1.0345982445531552" fill="#ff5107" stroke="none" /><path d="M 79.34024301695615 96.23510406497455 l -9.733361447791774 -1.7737426911168659 a30.89365898986061,30.89365898986061 0 0,0 0.09955659280068907,-0.520922162145006 l 9.701478562708926 1.9405674182951862" fill="#ff810b" stroke="none" /><path d="M 79.48165901384962 95.52812308129327 l -4.370723650921472 -0.9525788769079419 a25.473324462796715,25.473324462796715 0 0,0 0.09678545772136614,-0.4264545848357563 l 4.353727331642444 1.0274677956827063" fill="#ff3705" stroke="none" /><path d="M 79.83685265289637 94.1308016681162 l -14.094260896093129 -4.102633934893482 a35.679230068735876,35.679230068735876 0 0,0 0.1762276686745921,-0.586604594074746 l 14.021756907414908 4.343976132558951" fill="#ffc011" stroke="none" /><path d="M 80.05021161711548 93.44210830539832 l -1.5274316546480744 -0.5020971235304905 a22.607839849325345,22.607839849325345 0 0,0 0.12435881377877642,-0.36764473582385365 l 1.5185874192969329 0.5282435338285058" fill="#ff0e01" stroke="none" /><path d="M 80.16572619554312 93.10060997987247 l -8.55288414584716 -2.975137083461304 a30.055565574698818,30.055565574698818 0 0,0 0.17369230130374105,-0.4858482799433909 l 8.500551674499475 3.121520319785616" fill="#ff760a" stroke="none" /><path d="M 80.28708602549916 92.7611449362534 l -4.42188946452036 -1.6237790609230056 a25.710601328400458,25.710601328400458 0 0,0 0.15569521855487337,-0.4130000649215252 l 4.393363562151051 1.6994474060386757" fill="#ff3a05" stroke="none" /><path d="M 80.41425534168474 92.42381321644754 l -12.098720432488847 -4.680044973403767 a33.97234971223814,33.97234971223814 0 0,0 0.2150632945361382,-0.5420999919731159 l 12.016598462986577 4.887045982590466" fill="#ffaa0f" stroke="none" /><path d="M 81.1358732173502 90.77261029715801 l -1.2608582215289095 -0.6167489385610062 a22.403617721465917,22.403617721465917 0 0,0 0.17195319279603746,-0.3440215724694084 l 1.250085115521128 0.6383023671941849" fill="#ff0b01" stroke="none" /><path d="M 81.63589988554816 89.8137432299009 l -4.225020135779958 -2.34354744820984 a25.831460419972096,25.831460419972096 0 0,0 0.21841930968372095,-0.3859259916771033 l 4.184167461074868 2.4157302099860485" fill="#ff3c05" stroke="none" /><line stroke="#e1ed5e" stroke-width="0.3" x1="26.387840678322718" x2="22.05771365940052" y1="57.49999999999999" y2="54.99999999999999" /><path d="M 25.521815274538284 56.99999999999999 a86.0,86.0 0 0,1 29.574782752854787,-30.34633250058573" fill="none" id="id35" stroke="none" /><text fill="#e1ed5e" style="font-size:6.75px; font-family:Arial;" text-anchor="middle"><textPath startOffset="21.40746469413373" xlink:href="#id35">November</textPath></text><path d="M 81.99639281039701 89.18935116829357 l -11.272430057932011 -6.768770366565768 a34.148533442413566,34.148533442413566 0 0,0 0.30608799812993287,-0.499971741539141 l 11.154574095346685 6.961279224229452" fill="#ffac0f" stroke="none" /><path d="M 82.576782715395 88.27688183743585 l -4.41244681173502 -2.968891136179836 a26.318270531373685,26.318270531373685 0 0,0 0.25542541159833587,-0.3726733090028778 l 4.36083166332137 3.0441991802527486" fill="#ff4306" stroke="none" /><path d="M 82.78059297857968 87.97951657250589 l -21.320904485529717 -14.883647195788017 a47.00199842184769,47.00199842184769 0 0,0 0.46752418139247864,-0.6576313107858113 l 21.062265205607265 15.24745573328335" fill="#b7ff1f" stroke="none" /><path d="M 83.2033758604659 87.39550010848427 l -3.418800476608418 -2.565531613885361 a25.274359502978566,25.274359502978566 0 0,0 0.26339255242205933,-0.34478930613499414 l 3.374255946832052 2.6238418332612397" fill="#ff3405" stroke="none" /><path d="M 85.08716467003674 85.21462403516908 l -9.43103013125912 -9.350423520478746 a34.28061554857453,34.28061554857453 0 0,0 0.4179102173025256,-0.41433835656637935 l 9.26912799382662 9.510941887273798" fill="#ffae10" stroke="none" /><path d="M 86.68645165197937 83.75963576809568 l -6.652165552255353 -8.11456034676252 a31.49273063391334,31.49273063391334 0 0,0 0.42102666023242524,-0.3391492745697331 l 6.511888121667682 8.227557915125653" fill="#ff890c" stroke="none" /><path d="M 87.25179093698888 83.31218511350988 l -6.212395192316559 -8.132224727307129 a31.23361778849217,31.23361778849217 0 0,0 0.4288628730864607,-0.32182669519706386 l 6.071879330319345 8.237670449768194" fill="#ff860c" stroke="none" /><path d="M 87.83215693770416 82.88440491214696 l -1.3398325147176784 -1.8846422237731288 a23.3123640455437,23.3123640455437 0 0,0 0.3281547261050921,-0.22907748460171962 l 1.3072826974388208 1.9073645241799753" fill="#ff1802" stroke="none" /><path d="M 88.12776184653039 82.6780497279521 l -7.208494762107437 -10.517409286390667 a33.75061939016246,33.75061939016246 0 0,0 0.48071121612491996,-0.3234439596687922 l 7.0268872578855275 10.639602920116568" fill="#ffa70f" stroke="none" /><path d="M 88.72937992617638 82.28071324371311 l -7.127840002117258 -11.206148386084331 a34.28095872844741,34.28095872844741 0 0,0 0.4992546132685286,-0.3115718033911098 l 6.934421260059031 11.326855986316978" fill="#ffae10" stroke="none" /><line stroke="#e1ed5e" stroke-width="0.3" x1="56.869717070023135" x2="54.33264160355391" y1="26.7553504044142" y2="22.446841604673864" /><path d="M 56.362301976729285 25.89364864446614 a86.0,86.0 0 0,1 42.16139366436587,-11.88097634709845" fill="none" id="id36" stroke="none" /><text fill="#e1ed5e" style="font-size:6.75px; font-family:Arial;" text-anchor="middle"><textPath startOffset="22.145653131862474" xlink:href="#id36">December</textPath></text><path d="M 89.34428304082924 81.90426304109057 l -4.405517979654357 -7.481532667678458 a29.68227618350152,29.68227618350152 0 0,0 0.4412871521684306,-0.2547772560943654 l 4.276438359625527 7.556056821048997" fill="#ff710a" stroke="none" /><path d="M 90.61103034731259 81.2157712731953 l -5.738114821375643 -11.480073453484497 a33.834252927252535,33.834252927252535 0 0,0 0.5217560016364815,-0.25521700592706803 l 5.540198570477108 11.576884209508778" fill="#ffa80f" stroke="none" /><path d="M 90.93487009805054 81.0573650232925 l -4.419573591766191 -9.235209004949768 a31.23824770642625,31.23824770642625 0 0,0 0.4856971635726284,-0.22733079683947166 l 4.26038771432204 9.309716033359782" fill="#ff860c" stroke="none" /><path d="M 91.5904679813234 80.7573450057729 l -3.138608033459918 -7.181749402445719 a28.837626226557923,28.837626226557923 0 0,0 0.45531168438437525,-0.1943454835573701 l 3.0148612739051117 7.2345695356624935" fill="#ff6609" stroke="none" /><path d="M 91.92203290615298 80.6158196554323 l -2.9470177472279646 -7.071769769206028 a28.66125585469725,28.66125585469725 0 0,0 0.4557761204455002,-0.1853601803575849 l 2.8251871655920238 7.121317206142904" fill="#ff6309" stroke="none" /><path d="M 92.592206182469 80.34994680014964 l -3.495951634777941 -9.27342705528844 a30.91050589942119,30.91050589942119 0 0,0 0.4981166916296779,-0.18291534880152213 l 3.336245791494136 9.332073253098685" fill="#ff810b" stroke="none" /><path d="M 93.61358852112211 79.99465700312896 l -4.03996554987325 -12.655134544346254 a34.28434236157999,34.28434236157999 0 0,0 0.5621968780022155,-0.17417002990184008 l 3.8221280389994186 12.722621162054736" fill="#ffae10" stroke="none" /><path d="M 95.70440661134978 79.44403061299748 l -0.9020834473562446 -4.316795853483568 a25.410043195553424,25.410043195553424 0 0,0 0.42773997963989646,-0.08555997548477216 l 0.8278469821853713 4.331645225631207" fill="#ff3605" stroke="none" /><path d="M 96.41257539226777 79.30868818359171 l -2.2517485113278766 -12.987487034458113 a34.181243902928315,34.181243902928315 0 0,0 0.5790017823762662,-0.09527452295399678 l 2.0284692258985375 13.024227555907778" fill="#ffac10" stroke="none" /><path d="M 97.12497278360702 79.19773525538626 l -0.8018650972247557 -5.801896394866946 a26.85704613358281,26.85704613358281 0 0,0 0.45723760148847403,-0.05919856172837664 l 0.7021496738454877 5.814806552795718" fill="#ff4a06" stroke="none" /><path d="M 97.48249496171623 79.15144685158666 l -0.6478508677347831 -5.365134545042297 a26.4041076444896,26.4041076444896 0 0,0 0.45045922948992906,-0.05047489623238629 l 0.5556557366440547 5.375465201781655" fill="#ff4406" stroke="none" /><path d="M 98.1996594967304 79.07731436759882 l -1.136299753196412 -13.205525553153361 a34.25432315375254,34.25432315375254 0 0,0 0.5862888478308489,-0.04538246477192533 l 0.909441910590346 13.223085784920341" fill="#ffad10" stroke="none" /><path d="M 98.9189461498227 79.02784411241856 l -0.5518609293822234 -10.705954599182517 a31.72016857913792,31.72016857913792 0 0,0 0.5440375043621317,-0.023363311286618938 l 0.3679976644192716 10.713850478894965" fill="#ff8c0c" stroke="none" /><path d="M 99.27912038922189 79.0123766808444 l -0.3277659940144744 -9.54254929166219 a30.548176660003463,30.548176660003463 0 0,0 0.5242455308419095,-0.013502705247567016 l 0.16390714910182105 9.546769714259803" fill="#ff7d0b" stroke="none" /></svg>