<?xml version="1.0" encoding="utf-8" ?>
<svg baseProfile="full" height="200mm" version="1.1" viewBox="0,0,200,200" width="200mm" xmlns="http://www.w3.org/2000/svg" xmlns:ev="http://www.w3.org/2001/xml-events" xmlns:xlink="http://www.w3.org/1999/xlink"><defs /><rect fill="#1a1a1a" height="200" width="200" x="0" y="0" /><text alignment-baseline="middle" fill="#e1ed5e" style="dominant-baseline: central; font-size:9.0px; font-family:Arial;" text-anchor="middle" x="100.0" y="100.0">2025</text><line stroke="#e1ed5e" stroke-width="0.3" x1="100.0" x2="100.0" y1="15.0" y2="10.0" /><path d="M 100.0 14.0 a86.0,86.0 0 0,1 42.46469731375804,11.215312516191453" fill="none" id="id145" stroke="none" /><text fill="#e1ed5e" style="font-size:6.75px; font-family:Arial;" text-anchor="middle"><textPath startOffset="22.20632615414155" xlink:href="#id145">January</textPath></text><path d="M 100.0 79.0 l 0.0 -14.967547211590485 a35.967547211590485,35.967547211590485 0 0,0 0.6191222002049057,0.005328980241018067 l -0.25764172093237736 14.965329607958026" fill="red" stroke="none" /><path d="M 100.36148047927253 79.00311137660856 l 0.2590083861489039 -15.044713472322213 a36.04694283927366,36.04694283927366 0 0,0 0.6203050011793614,0.016020648102448656 l -0.5179400225231331 15.038026032077404" fill="red" stroke="none" /><path d="M 102.16513564639614 79.11191278185805 l 3.3718830974370766 -32.53015040691729 a53.704438248033604,53.704438248033604 0 0,0 0.9186867803809289,0.10322516401327968 l -3.931336581327731 32.46728928943342" fill="red" stroke="none" /><path d="M 102.52436894288641 79.15227682838746 l 4.087123803181136 -33.75387177731681 a55.00041824657565,55.00041824657565 0 0,0 0.938897136538366,0.12189579485092586 l -4.667535668227348 33.67851765930175" fill="red" stroke="none" /><path d="M 103.2404852339499 79.25152402106235 l 1.4951772191363768 -9.573457792829275 a30.689512321459112,30.689512321459112 0 0,0 0.5212406058526473,0.08600916612753827 l -1.6597470311278995 9.546302363762111" fill="red" stroke="none" /><path d="M 105.01212808612495 79.60689891045804 l 7.832207375690405 -31.86730147796321 a53.815672716907926,53.815672716907926 0 0,0 0.8976738953413645,0.22883706346555624 l -8.379590159716795 31.727761418328786" fill="red" stroke="none" /><path d="M 105.36241919743992 79.69619591428918 l 4.5979384621427135 -17.409239803197245 a39.006184177300824,39.006184177300824 0 0,0 0.6476923217120709,0.17703877824310635 l -4.896928673078496 17.327514484127843" fill="red" stroke="none" /><path d="M 105.71112130821622 79.79150937346287 l 15.766924680464548 -55.790401292316915 a78.97555338448439,78.97555338448439 0 0,0 1.3050137897677039,0.38096931106754334 l -16.72492868795568 55.510733652330664" fill="red" stroke="none" /><path d="M 106.0581310904928 79.89281104454417 l 9.429035695035 -31.295361482906515 a53.68495624112158,53.68495624112158 0 0,0 0.8825158171342946,0.27420196025049937 l -9.966336884880011 31.128419387773494" fill="red" stroke="none" /><path d="M 106.40334571778207 80.00007090966166 l 9.968979291542594 -31.136672564816976 a53.69362210774192,53.69362210774192 0 0,0 0.8778068002672427,0.28939910082891657 l -10.503468914052254 30.960459739728826" fill="red" stroke="none" /><path d="M 106.74666289553966 80.11325718540242 l 11.078089331044978 -32.654234666041795 a55.48221432639642,55.48221432639642 0 0,0 0.9017656287627406,0.3146083212430482 l -11.638536963870992 32.45870549162654" fill="red" stroke="none" /><path d="M 107.08798089147638 80.2323363322302 l 10.836996623776772 -30.223290342837664 a53.107441115280636,53.107441115280636 0 0,0 0.8578563171093022,0.3159557213386284 l -11.35563526665865 30.03227135369271" fill="red" stroke="none" /><path d="M 108.43124777332544 80.76684994638697 l 13.82246922604681 -31.5314686370735 a55.42810145674258,55.42810145674258 0 0,0 0.8705323333272006,0.39058248255547334 l -14.363183677840789 31.28886582400149" fill="red" stroke="none" /><path d="M 109.73455568895987 81.39251694778311 l 6.019617357301442 -11.506424282296695 a33.98589977215872,33.98589977215872 0 0,0 0.5160272614545309,0.2756438919132294 l -6.216789665284284 11.401101663881711" fill="red" stroke="none" /><line stroke="#e1ed5e" stroke-width="0.3" x1="143.23703022742887" x2="145.7803849466894" y1="26.81831364943548" y2="22.513508569990506" /><path d="M 143.74570117128098 25.957352633546492 a86.0,86.0 0 0,1 28.547481713284135,27.462654790039103" fill="none" id="id146" stroke="none" /><text fill="#e1ed5e" style="font-size:6.75px; font-family:Arial;" text-anchor="middle"><textPath startOffset="19.985693538727396" xlink:href="#id146">February</textPath></text><path d="M 110.68208982089419 81.91981866633111 l 16.930759892600232 -28.65649082787773 a54.284307069685575,54.284307069685575 0 0,0 0.8004038418030825,0.4822343589066449 l -17.421525800620955 28.360809859512468" fill="red" stroke="none" /><path d="M 111.2981086023043 82.29822771554956 l 1.8727360758421367 -2.934185599585367 a24.480888613928165,24.480888613928165 0 0,0 0.3532626899105906,0.22977188015885724 l -1.9229657915370075 2.9015147952669817" fill="red" stroke="none" /><path d="M 113.06298171725822 83.55741782278167 l 19.9606713884851 -25.124813516657323 a53.08869982604303,53.08869982604303 0 0,0 0.7106215759871708,0.5746065606968782 l -20.39019636303676 24.777500858696314" fill="red" stroke="none" /><path d="M 114.42810811169701 84.74124197986012 l 5.300721235947364 -5.605892473592254 a28.71515884779449,28.71515884779449 0 0,0 0.3562276210562662,0.34269068921735385 l -5.396432100616048 5.5138186976125985" fill="red" stroke="none" /><path d="M 114.68862486808459 84.99185889309783 l 22.53654835936816 -23.026777583164453 a53.220001517980485,53.220001517980485 0 0,0 0.6491932906641595,0.6464054483610993 l -22.92957745019964 22.635436284153236" fill="red" stroke="none" /><path d="M 115.19652480421416 85.50635884689758 l 30.147370124654167 -28.7529662160212 a62.66049677635334,62.66049677635334 0 0,0 0.7377010678418577,0.7869280644542112 l -30.637838514466488 28.229768734688932" fill="red" stroke="none" /><path d="M 115.4437574822437 85.77008943001954 l 23.939596555349535 -22.057994529874275 a53.552410139847815,53.552410139847815 0 0,0 0.6188015657510652,0.6832961443795316 l -24.315741761716634 21.642645598225194" fill="red" stroke="none" /><path d="M 115.68641384162765 86.03803664274999 l 23.61752442897568 -21.021185211322987 a52.61767998829148,52.61767998829148 0 0,0 0.596354093184305,0.6817358187383605 l -23.975870385737835 20.61153383638168" fill="red" stroke="none" /><path d="M 115.9244219780498 86.31012108654704 l 31.92490510180987 -27.445145938086796 a63.10030405261283,63.10030405261283 0 0,0 0.7009824391052579,0.8297421066576786 l -32.39259815440224 26.891544881800012" fill="red" stroke="none" /><path d="M 117.65298651832404 88.62581576622439 l 3.0547602935763907 -1.9682452220248474 a24.633944097703562,24.633944097703562 0 0,0 0.2265999140617214,0.35842664595857476 l -3.0881878038840678 1.9153709283520663" fill="red" stroke="none" /><line stroke="#e1ed5e" stroke-width="0.3" x1="172.23445277983987" x2="176.4835382374775" y1="55.19839476539836" y2="52.563006222186495" /><path d="M 173.08426987136738 54.67131705675599 a86.0,86.0 0 0,1 12.851231095245387,41.99856678651699" fill="none" id="id147" stroke="none" /><text fill="#e1ed5e" style="font-size:6.75px; font-family:Arial;" text-anchor="middle"><textPath startOffset="22.20632615414155" xlink:href="#id147">March</textPath></text><path d="M 117.84615892207809 88.93136811851018 l 11.28008005190442 -6.99618636331901 a34.273538699520294,34.273538699520294 0 0,0 0.30664078373645626,0.5040368226974344 l -11.3988366339271 6.800981767414495" fill="red" stroke="none" /><path d="M 118.3937258080291 89.86733742301442 l 27.900245606865052 -15.369576425129932 a52.85353331125611,52.85353331125611 0 0,0 0.4321201712966547,0.8006530497324729 l -28.160673877380173 14.887042392065" fill="red" stroke="none" /><path d="M 118.56541770881063 90.18545643968196 l 25.451105047322084 -13.454638245312907 a49.78864426196657,49.78864426196657 0 0,0 0.3940191910516926,0.761119663322249 l -25.678933671533894 13.014545859730314" fill="red" stroke="none" /><path d="M 119.04729006885535 91.15688171328212 l 35.759742161161974 -16.602237309902613 a60.42579667079801,60.42579667079801 0 0,0 0.4298797151552916,0.9471829696291075 l -36.04022419328061 15.984232331431441" fill="red" stroke="none" /><path d="M 119.196687751892 91.48605970444005 l 57.59006325567602 -25.541820886679833 a84.0,84.0 0 0,0 0.574837160629277,1.3268034216535889 l -58.02119112614798 24.54671832043964" fill="red" stroke="none" /><path d="M 119.7369772167798 92.82701384747503 l 22.248545237123814 -8.085762330618538 a44.672290080082966,44.672290080082966 0 0,0 0.25643366392021466,0.7249724996310036 l -22.384431981853837 7.701592204560919" fill="red" stroke="none" /><path d="M 120.08093135843002 93.85539295169968 l 33.48256586491207 -10.245401796184582 a56.01500356794837,56.01500356794837 0 0,0 0.274191049526288,0.9244359113304372 l -33.65396281155006 9.667536498107616" fill="red" stroke="none" /><path d="M 120.28053869075195 94.5502522615342 l 30.861360646533758 -8.293006066259908 a52.956181414093365,52.956181414093365 0 0,0 0.22898169154958947,0.882359865051181 l -30.99953866995365 7.760549775659876" fill="red" stroke="none" /><path d="M 120.45610955862082 95.25157060432595 l 30.48091464303793 -7.075464211963836 a52.29134626843251,52.29134626843251 0 0,0 0.1959820220259855,0.878548976529763 l -30.598191052065957 6.549737065884109" fill="red" stroke="none" /><path d="M 120.6074358757038 95.95851677861258 l 15.775694383411642 -3.09389312386331 a37.0762155976055,37.0762155976055 0 0,0 0.11743322098270063,0.627332962216843 l -15.826613328304202 2.8218820841839043" fill="red" stroke="none" /><path d="M 120.94382443527127 98.46500227214037 l 6.372761493220523 -0.46706724660138066 a27.389854525912313,27.389854525912313 0 0,0 0.030415010477110007,0.4705067500786117 l -6.379857094702048 0.3573014322697337" fill="red" stroke="none" /><line stroke="#e1ed5e" stroke-width="0.3" x1="184.98032266829074" x2="189.97916517819016" y1="98.17113171792111" y2="98.06355123074" /><path d="M 185.9800911702706 98.14961562048488 a86.0,86.0 0 0,1 -9.607161424134198,41.387399972396054" fill="none" id="id148" stroke="none" /><text fill="#e1ed5e" style="font-size:6.75px; font-family:Arial;" text-anchor="middle"><textPath startOffset="21.466115282336823" xlink:href="#id148">April</textPath></text><path d="M 120.95626037817324 101.35467743843564 l 31.246486043551176 2.0198694285016674 a52.31170328452341,52.31170328452341 0 0,0 -0.0658216772812942,0.8980844909371822 l -31.207087807605546 -2.55742705593562" fill="red" stroke="none" /><path d="M 120.8583938346157 102.4346265915055 l 20.43151967657786 2.3848011262934796 a41.57022782339464,41.57022782339464 0 0,0 -0.08907607201511622,0.7100239366895147 l -20.387442095315897 -2.736142817270389" fill="red" stroke="none" /><path d="M 120.70491114924044 103.5080841355445 l 10.517412180422177 1.781991072126627 a31.667307586923318,31.667307586923318 0 0,0 -0.09568587275854692,0.5366571897595097 l -10.485179865324442 -1.962767012619355" fill="red" stroke="none" /><path d="M 120.41448212921028 104.9243191809786 l 9.782933161377269 2.3598093308412174 a31.06352231169089,31.06352231169089 0 0,0 -0.12985837129092362,0.5187196421413258 l -9.740863475791285 -2.527856812379939" fill="red" stroke="none" /><path d="M 120.02730092923936 106.31721596034902 l 33.448953020085405 10.550810647027784 a56.073523681679255,56.073523681679255 0 0,0 -0.2982784337175027,0.9180066249467846 l -33.26238233535166 -11.125016171952364" fill="red" stroke="none" /><path d="M 119.41010516605496 108.01547362559984 l 16.796353472927883 6.936115343875229 a39.17215413898633,39.17215413898633 0 0,0 -0.262731403574279,0.6210194284476277 l -16.674471088161297 -7.224209297989019" fill="red" stroke="none" /><path d="M 119.26925614724726 108.34839909993367 l 34.71183007984173 15.038889346903993 a58.82960930647087,58.82960930647087 0 0,0 -0.4105716059828278,0.9257305837527886 l -34.44781738912763 -15.63416826714947" fill="red" stroke="none" /><line stroke="#e1ed5e" stroke-width="0.3" x1="174.80103733775053" x2="179.2010983576182" y1="140.37084112569926" y2="142.7455964860345" /><path d="M 175.68104954172406 140.8457921977663 a86.0,86.0 0 0,1 -30.038265399797805,32.042727171017184" fill="none" id="id149" stroke="none" /><text fill="#e1ed5e" style="font-size:6.75px; font-family:Arial;" text-anchor="middle"><textPath startOffset="22.206326154141568" xlink:href="#id149">May</textPath></text><path d="M 118.48025628344425 109.97397251340804 l 6.182006485344691 3.3364885105936715 a28.024909947192732,28.024909947192732 0 0,0 -0.2327716865613077,0.422548224215611 l -6.123658389331874 -3.4424072532070875" fill="red" stroke="none" /><path d="M 118.30583269289576 110.29060199501025 l 8.471001242305409 4.76196323577416 a30.71772380272276,30.71772380272276 0 0,0 -0.26307244326962975,0.4586889792828336 l -8.3877768028834 -4.907072060915309" fill="red" stroke="none" /><path d="M 117.94076556474637 110.91462005526583 l 2.664575576726803 1.6210473250741133 a24.11893530459016,24.11893530459016 0 0,0 -0.21883381090881796,0.3528297813873201 l -2.636277126150022 -1.666673437826707" fill="red" stroke="none" /><path d="M 117.35343817320211 111.8261652097733 l 39.03394588060236 26.601177712795195 a68.23633756672405,68.23633756672405 0 0,0 -0.6698179392658449,0.964922698894992 l -38.57026703417438 -27.269141673877208" fill="red" stroke="none" /><line stroke="#e1ed5e" stroke-width="0.3" x1="143.8653032363475" x2="146.44561519142675" y1="172.8068346515853" y2="177.08958963109032" /><path d="M 144.38136562736335 173.6633856474863 a86.0,86.0 0 0,1 -40.68145358897372,12.25698825130547" fill="none" id="id150" stroke="none" /><text fill="#e1ed5e" style="font-size:6.75px; font-family:Arial;" text-anchor="middle"><textPath startOffset="21.466115282336833" xlink:href="#id150">June</textPath></text><line stroke="#e1ed5e" stroke-width="0.3" x1="102.19456741930631" x2="102.32365962044197" y1="184.97166512339345" y2="189.96999836594603" /><path d="M 102.22038585953345 185.97133177190398 a86.0,86.0 0 0,1 -42.740103519485714,-10.115201625700543" fill="none" id="id151" stroke="none" /><text fill="#e1ed5e" style="font-size:6.75px; font-family:Arial;" text-anchor="middle"><textPath startOffset="22.20632615414155" xlink:href="#id151">July</textPath></text><line stroke="#e1ed5e" stroke-width="0.3" x1="58.666819895761336" x2="56.23545636021788" y1="174.27360380694188" y2="178.64263932499728" /><path d="M 58.180547188652646 175.14741091055294 a86.0,86.0 0 0,1 -31.652253787137756,-30.449443065178592" fill="none" id="id152" stroke="none" /><text fill="#e1ed5e" style="font-size:6.75px; font-family:Arial;" text-anchor="middle"><textPath startOffset="22.20632615414155" xlink:href="#id152">August</textPath></text><line stroke="#e1ed5e" stroke-width="0.3" x1="26.63291911575756" x2="22.317208475507996" y1="142.92168965132927" y2="145.44649492493687" /><path d="M 25.769776987707644 143.4266507060508 a86.0,86.0 0 0,1 -11.730757126820373,-40.83630448921669" fill="none" id="id153" stroke="none" /><text fill="#e1ed5e" style="font-size:6.75px; font-family:Arial;" text-anchor="middle"><textPath startOffset="21.46611528233685" xlink:href="#id153">September</textPath></text><line stroke="#e1ed5e" stroke-width="0.3" x1="15.007084014347285" x2="10.007500721073583" y1="101.09737516637583" y2="101.16192664675087" /><path d="M 14.007167355692545 101.11028546245083 a86.0,86.0 0 0,1 10.666146001902534,-42.60595125391555" fill="none" id="id154" stroke="none" /><text fill="#e1ed5e" style="font-size:6.75px; font-family:Arial;" text-anchor="middle"><textPath startOffset="22.20632615414155" xlink:href="#id154">October</textPath></text><line stroke="#e1ed5e" stroke-width="0.3" x1="26.266209847984243" x2="21.928928074336255" y1="57.711370442889674" y2="55.22380399835377" /><path d="M 25.398753493254645 57.213857153982495 a86.0,86.0 0 0,1 29.58750427330803,-30.492523968695096" fill="none" id="id155" stroke="none" /><text fill="#e1ed5e" style="font-size:6.75px; font-family:Arial;" text-anchor="middle"><textPath startOffset="21.46611528233685" xlink:href="#id155">November</textPath></text><line stroke="#e1ed5e" stroke-width="0.3" x1="56.762969772571076" x2="54.21961505331055" y1="26.818313649435495" y2="22.513508569990535" /><path d="M 56.25429882871897 25.957352633546506 a86.0,86.0 0 0,1 42.265352541879196,-11.944610805530505" fill="none" id="id156" stroke="none" /><text fill="#e1ed5e" style="font-size:6.75px; font-family:Arial;" text-anchor="middle"><textPath startOffset="22.20632615414155" xlink:href="#id156">December</textPath></text></svg>