<?xml version="1.0" encoding="utf-8" ?>
<svg baseProfile="full" height="200mm" version="1.1" viewBox="0,0,200,200" width="200mm" xmlns="http://www.w3.org/2000/svg" xmlns:ev="http://www.w3.org/2001/xml-events" xmlns:xlink="http://www.w3.org/1999/xlink"><defs /><rect fill="#1a1a1a" height="200" width="200" x="0" y="0" /><text alignment-baseline="middle" fill="#e1ed5e" style="dominant-baseline: central; font-size:9.0px; font-family:Arial;" text-anchor="middle" x="100.0" y="100.0">2025</text><line stroke="#e1ed5e" stroke-width="0.3" x1="100.0" x2="100.0" y1="15.0" y2="10.0" /><path d="M 100.0 14.0 a86.0,86.0 0 0,1 42.46469731375804,11.215312516191453" fill="none" id="id133" stroke="none" /><text fill="#e1ed5e" style="font-size:6.75px; font-family:Arial;" text-anchor="middle"><textPath startOffset="22.20632615414155" xlink:href="#id133">January</textPath></text><line stroke="#e1ed5e" stroke-width="0.3" x1="143.23703022742887" x2="145.7803849466894" y1="26.81831364943548" y2="22.513508569990506" /><path d="M 143.74570117128098 25.957352633546492 a86.0,86.0 0 0,1 28.547481713284135,27.462654790039103" fill="none" id="id134" stroke="none" /><text fill="#e1ed5e" style="font-size:6.75px; font-family:Arial;" text-anchor="middle"><textPath startOffset="19.985693538727396" xlink:href="#id134">February</textPath></text><path d="M 115.19652480421416 85.50635884689758 l 14.3717478532379 -13.70701254473237 a40.860244944574546,40.860244944574546 0 0,0 0.48104703726619136,0.5131474393208647 l -14.605562212474556 13.457595688533452" fill="#fff817" stroke="none" /><path d="M 115.4437574822437 85.77008943001954 l 11.401464435315782 -10.505333269309125 a36.50340021959776,36.50340021959776 0 0,0 0.42179915249635225,0.46576115923930245 l -11.58060722842817 10.307519322800275" fill="#ffc112" stroke="none" /><path d="M 115.68641384162765 86.03803664274999 l 11.251724973535334 -10.014791995954033 a36.063113011668726,36.063113011668726 0 0,0 0.4087292534042251,0.46724819263667244 l -11.422446090517406 9.819628247114412" fill="#ffbb11" stroke="none" /><path d="M 115.9244219780498 86.31012108654704 l 15.053352441753603 -12.941039395539542 a40.8512951812358,40.8512951812358 0 0,0 0.45381779005177064,0.5371771219218033 l -15.27388084529249 12.680003323988633" fill="#fff817" stroke="none" /><path d="M 116.38621287248628 86.86637796730983 l 23.276456204834048 -18.65618251353595 a50.83029599977047,50.83029599977047 0 0,0 0.5413327753595056,0.6874376515025362 l -23.59414306078752 18.252752468080374" fill="#92ff23" stroke="none" /><path d="M 116.60985879189232 87.15038557335679 l 1.2125862679524189 -0.9380733573627036 a22.53308417284261,22.53308417284261 0 0,0 0.23469179283599567,0.30882688910943956 l -1.228554001012528 0.9170616923722305" fill="#ff0000" stroke="none" /><path d="M 117.65298651832404 88.62581576622439 l 14.132172433688574 -9.105650917333822 a37.81163812136847,37.81163812136847 0 0,0 0.34781738218013347,0.550163570083968 l -14.286817412114663 8.861039699535647" fill="#ffd213" stroke="none" /><line stroke="#e1ed5e" stroke-width="0.3" x1="172.23445277983987" x2="176.4835382374775" y1="55.19839476539836" y2="52.563006222186495" /><path d="M 173.08426987136738 54.67131705675599 a86.0,86.0 0 0,1 12.851231095245387,41.99856678651699" fill="none" id="id135" stroke="none" /><text fill="#e1ed5e" style="font-size:6.75px; font-family:Arial;" text-anchor="middle"><textPath startOffset="22.20632615414155" xlink:href="#id135">March</textPath></text><path d="M 117.84615892207809 88.93136811851018 l 5.433190090911965 -3.3697997042973777 a27.393364107499796,27.393364107499796 0 0,0 0.2450847784567812,0.40285493507944625 l -5.49039066765497 3.27577699601085" fill="#ff4606" stroke="none" /><path d="M 118.3937258080291 89.86733742301442 l 13.021866566105532 -7.173434105410069 a35.8669824016213,35.8669824016213 0 0,0 0.29324144684915393,0.5433318653540846 l -13.14341611217315 6.948221256723526" fill="#ffb911" stroke="none" /><path d="M 118.56541770881063 90.18545643968196 l 12.101838653543432 -6.397594952510862 a34.68881733287395,34.68881733287395 0 0,0 0.2745216293121668,0.5302884093514615 l -12.210169716015715 6.188333820899056" fill="#ffa90f" stroke="none" /><path d="M 119.04729006885535 91.15688171328212 l 16.796655745793707 -7.798212398949384 a39.5186328021761,39.5186328021761 0 0,0 0.2811424846391135,0.6194601980537378 l -16.928400547396166 7.507930192053584" fill="#ffe715" stroke="none" /><path d="M 119.196687751892 91.48605970444005 l 27.34066029741608 -12.125880903097173 a50.90900689048034,50.90900689048034 0 0,0 0.3483855829926193,0.8041219587532792 l -27.545336590251377 11.65345979975729" fill="#91ff24" stroke="none" /><path d="M 119.7369772167798 92.82701384747503 l 9.765794314803772 -3.5491710113005612 a31.390734019621036,31.390734019621036 0 0,0 0.18019315605638186,0.509430317242746 l -9.825440551669963 3.3805430676312005" fill="#ff7d0b" stroke="none" /><path d="M 120.08093135843002 93.85539295169968 l 37.057674986688156 -11.339357067282409 a59.75373909854817,59.75373909854817 0 0,0 0.2924920002312694,0.9861376192176996 l -37.24737288403113 10.69979006131818" fill="#35ff2f" stroke="none" /><path d="M 120.28053869075195 94.5502522615342 l 14.36196732577922 -3.8593205115047637 a35.87146463120803,35.87146463120803 0 0,0 0.15510764617611375,0.5976930331075084 l -14.426271303825636 3.611531052848405" fill="#ffb911" stroke="none" /><path d="M 120.45610955862082 95.25157060432595 l 14.49352965207705 -3.3643495137614146 a35.87888602773687,35.87888602773687 0 0,0 0.13446998659509804,0.6028025829911594 l -14.549294025674186 3.114368761220291" fill="#ffb911" stroke="none" /><path d="M 120.6074358757038 95.95851677861258 l 20.822925830269416 -4.083744618729992 a42.21959495946865,42.21959495946865 0 0,0 0.13372408550228623,0.7143594118928712 l -20.89013563968156 3.7247071293745577" fill="#f5ff19" stroke="none" /><path d="M 120.67395015179393 96.31383870115 l 61.72328126334535 -11.005249067567949 a83.69672205907773,83.69672205907773 0 0,0 0.24068044009557096,1.4205095815826005 l -61.90357356496114 9.941153697669511" fill="#4dd5ff" stroke="none" /><path d="M 120.94382443527127 98.46500227214037 l 3.1327878126037976 -0.2296057336173376 a24.141190581882743,24.141190581882743 0 0,0 0.026807537943775047,0.41470074669305684 l -3.1362759415519883 0.17564592267124554" fill="#ff1802" stroke="none" /><path d="M 120.96714384426684 98.82574320788733 l 62.90143153280055 -3.5227703763380056 a84.0,84.0 0 0,0 0.0684255670660141,1.444355573508001 l -62.95275070810006 2.4395036962070047" fill="#4dd2ff" stroke="none" /><line stroke="#e1ed5e" stroke-width="0.3" x1="184.98032266829074" x2="189.97916517819016" y1="98.17113171792111" y2="98.06355123074" /><path d="M 185.9800911702706 98.14961562048488 a86.0,86.0 0 0,1 -9.607161424134198,41.387399972396054" fill="none" id="id136" stroke="none" /><text fill="#e1ed5e" style="font-size:6.75px; font-family:Arial;" text-anchor="middle"><textPath startOffset="21.466115282336823" xlink:href="#id136">April</textPath></text><path d="M 120.95626037817324 101.35467743843564 l 14.790994626113317 0.9561356058014943 a35.82186618905981,35.82186618905981 0 0,0 -0.04507318951336036,0.6149878600940061 l -14.77234487793562 -1.2105966023922705" fill="#ffb811" stroke="none" /><path d="M 120.8583938346157 102.4346265915055 l 9.994970708155943 1.1666296868463286 a31.062825859723823,31.062825859723823 0 0,0 -0.06656096581978807,0.5305563875021583 l -9.973408233089307 -1.3385038286358817" fill="#ff790b" stroke="none" /><path d="M 120.70491114924044 103.5080841355445 l 5.356314475425061 0.9075335653838507 a26.43265330496493,26.43265330496493 0 0,0 -0.07986885193403935,0.4479469371241259 l -5.339899181151834 -0.9995992532411949" fill="#ff3805" stroke="none" /><path d="M 120.64145759157962 103.86396538481128 l 61.71938482787847 11.553523557563782 a83.79145140962213,83.79145140962213 0 0,0 -0.2775893757444664,1.4154222465055593 l -61.51136551915834 -12.614209531137286" fill="#4dd4ff" stroke="none" /><path d="M 120.41448212921028 104.9243191809786 l 4.797182746970644 1.1571618063123008 a25.934773120805126,25.934773120805126 0 0,0 -0.10841807839672689,0.4330763297624321 l -4.776553354278856 -1.2395659754721289" fill="#ff3104" stroke="none" /><line stroke="#e1ed5e" stroke-width="0.3" x1="174.80103733775053" x2="179.2010983576182" y1="140.37084112569926" y2="142.7455964860345" /><path d="M 175.68104954172406 140.8457921977663 a86.0,86.0 0 0,1 -30.038265399797805,32.042727171017184" fill="none" id="id137" stroke="none" /><text fill="#e1ed5e" style="font-size:6.75px; font-family:Arial;" text-anchor="middle"><textPath startOffset="22.206326154141568" xlink:href="#id137">May</textPath></text><line stroke="#e1ed5e" stroke-width="0.3" x1="143.8653032363475" x2="146.44561519142675" y1="172.8068346515853" y2="177.08958963109032" /><path d="M 144.38136562736335 173.6633856474863 a86.0,86.0 0 0,1 -40.68145358897372,12.25698825130547" fill="none" id="id138" stroke="none" /><text fill="#e1ed5e" style="font-size:6.75px; font-family:Arial;" text-anchor="middle"><textPath startOffset="21.466115282336833" xlink:href="#id138">June</textPath></text><line stroke="#e1ed5e" stroke-width="0.3" x1="102.19456741930631" x2="102.32365962044197" y1="184.97166512339345" y2="189.96999836594603" /><path d="M 102.22038585953345 185.97133177190398 a86.0,86.0 0 0,1 -42.740103519485714,-10.115201625700543" fill="none" id="id139" stroke="none" /><text fill="#e1ed5e" style="font-size:6.75px; font-family:Arial;" text-anchor="middle"><textPath startOffset="22.20632615414155" xlink:href="#id139">July</textPath></text><line stroke="#e1ed5e" stroke-width="0.3" x1="58.666819895761336" x2="56.23545636021788" y1="174.27360380694188" y2="178.64263932499728" /><path d="M 58.180547188652646 175.14741091055294 a86.0,86.0 0 0,1 -31.652253787137756,-30.449443065178592" fill="none" id="id140" stroke="none" /><text fill="#e1ed5e" style="font-size:6.75px; font-family:Arial;" text-anchor="middle"><textPath startOffset="22.20632615414155" xlink:href="#id140">August</textPath></text><line stroke="#e1ed5e" stroke-width="0.3" x1="26.63291911575756" x2="22.317208475507996" y1="142.92168965132927" y2="145.44649492493687" /><path d="M 25.769776987707644 143.4266507060508 a86.0,86.0 0 0,1 -11.730757126820373,-40.83630448921669" fill="none" id="id141" stroke="none" /><text fill="#e1ed5e" style="font-size:6.75px; font-family:Arial;" text-anchor="middle"><textPath startOffset="21.46611528233685" xlink:href="#id141">September</textPath></text><line stroke="#e1ed5e" stroke-width="0.3" x1="15.007084014347285" x2="10.007500721073583" y1="101.09737516637583" y2="101.16192664675087" /><path d="M 14.007167355692545 101.11028546245083 a86.0,86.0 0 0,1 10.666146001902534,-42.60595125391555" fill="none" id="id142" stroke="none" /><text fill="#e1ed5e" style="font-size:6.75px; font-family:Arial;" text-anchor="middle"><textPath startOffset="22.20632615414155" xlink:href="#id142">October</textPath></text><line stroke="#e1ed5e" stroke-width="0.3" x1="26.266209847984243" x2="21.928928074336255" y1="57.711370442889674" y2="55.22380399835377" /><path d="M 25.398753493254645 57.213857153982495 a86.0,86.0 0 0,1 29.58750427330803,-30.492523968695096" fill="none" id="id143" stroke="none" /><text fill="#e1ed5e" style="font-size:6.75px; font-family:Arial;" text-anchor="middle"><textPath startOffset="21.46611528233685" xlink:href="#id143">November</textPath></text><line stroke="#e1ed5e" stroke-width="0.3" x1="56.762969772571076" x2="54.21961505331055" y1="26.818313649435495" y2="22.513508569990535" /><path d="M 56.25429882871897 25.957352633546506 a86.0,86.0 0 0,1 42.265352541879196,-11.944610805530505" fill="none" id="id144" stroke="none" /><text fill="#e1ed5e" style="font-size:6.75px; font-family:Arial;" text-anchor="middle"><textPath startOffset="22.20632615414155" xlink:href="#id144">December</textPath></text></svg>