<?xml version="1.0" encoding="utf-8" ?>
<svg baseProfile="full" height="200mm" version="1.1" viewBox="0,0,200,200" width="200mm" xmlns="http://www.w3.org/2000/svg" xmlns:ev="http://www.w3.org/2001/xml-events" xmlns:xlink="http://www.w3.org/1999/xlink"><defs /><rect fill="#1a1a1a" height="200" width="200" x="0" y="0" /><text alignment-baseline="middle" fill="#e1ed5e" style="dominant-baseline: central; font-size:9.0px; font-family:Arial;" text-anchor="middle" x="100.0" y="100.0">2015</text><line stroke="#e1ed5e" stroke-width="0.3" x1="100.0" x2="100.0" y1="15.0" y2="10.0" /><path d="M 100.0 14.0 a86.0,86.0 0 0,1 42.46469731375804,11.215312516191453" fill="none" id="id13" stroke="none" /><text fill="#e1ed5e" style="font-size:6.75px; font-family:Arial;" text-anchor="middle"><textPath startOffset="22.20632615414155" xlink:href="#id13">January</textPath></text><path d="M 110.36928655335952 81.73862282372117 l 11.309316035920713 -19.916865511906945 a43.90375866576754,43.90375866576754 0 0,0 0.6539637698907498,0.37881802596131736 l -11.650476538276791 19.719243328555578" fill="#efff19" stroke="none" /><line stroke="#e1ed5e" stroke-width="0.3" x1="143.23703022742887" x2="145.7803849466894" y1="26.81831364943548" y2="22.513508569990506" /><path d="M 143.74570117128098 25.957352633546492 a86.0,86.0 0 0,1 28.547481713284135,27.462654790039103" fill="none" id="id14" stroke="none" /><text fill="#e1ed5e" style="font-size:6.75px; font-family:Arial;" text-anchor="middle"><textPath startOffset="19.985693538727396" xlink:href="#id14">February</textPath></text><path d="M 111.2981086023043 82.29822771554956 l 9.800640736932776 -15.355553453567339 a39.216629235942364,39.216629235942364 0 0,0 0.5659015140991794,0.36807808634481654 l -10.063509276816236 15.184576443062994" fill="#ffd313" stroke="none" /><path d="M 111.60114157652 82.49532879139004 l 4.639095377378349 -6.999814522628181 a29.39753590475263,29.39753590475263 0 0,0 0.41939827395614393,0.2831795867287426 l -4.758898345741034 6.918923023600769" fill="#ff4b07" stroke="none" /><path d="M 111.90073688211348 82.69761687909136 l 4.64568364487765 -6.75432110452116 a29.197757627013843,29.197757627013843 0 0,0 0.4116450870163215,0.28838368995940833 l -4.761259871477622 6.673352571797816" fill="#ff4906" stroke="none" /><path d="M 112.48926042617603 83.11751280151076 l 27.929100779687875 -37.753451388535474 a67.96123680343686,67.96123680343686 0 0,0 0.934479453444273,0.7038305505434368 l -28.57482638689053 37.26710424848619" fill="#38ff84" stroke="none" /><path d="M 113.34407831869373 83.78471172551755 l 9.355226691419812 -11.368166017280604 a35.72261746580095,35.72261746580095 0 0,0 0.47144067574949183,0.3948180080321778 l -9.54952490412842 11.205446851854607" fill="#ffa40f" stroke="none" /><path d="M 113.6212207817346 84.01681056812373 l 14.28294814043057 -16.759662693397384 a43.02019303227574,43.02019303227574 0 0,0 0.5594800714537034,0.48517560475647803 l -14.569322010531037 16.511322095221235" fill="#faff18" stroke="none" /><path d="M 114.16331599549186 84.49514656593476 l 5.55386572285165 -6.079923236387777 a29.234736852373274,29.234736852373274 0 0,0 0.36862513513527134,0.34259688888970297 l -5.6576987417817675 5.9834217614234335" fill="#ff4906" stroke="none" /><path d="M 114.94478906791727 85.2469230424477 l 5.909366615797773 -5.833561120003461 a29.303676844670754,29.303676844670754 0 0,0 0.3512753650809213,0.3620201416922212 l -6.008906244581803 5.730976782761125" fill="#ff4a06" stroke="none" /><path d="M 115.19652480421416 85.50635884689758 l 5.989032428909595 -5.712022189101922 a29.276213320312827,29.276213320312827 0 0,0 0.34466841055928316,0.3676682290746934 l -6.086468161439341 5.6080845431491735" fill="#ff4a06" stroke="none" /><path d="M 115.4437574822437 85.77008943001954 l 19.918946447922846 -18.353359079101054 a48.08523983799367,48.08523983799367 0 0,0 0.5556280590091577,0.6135383803840784 l -20.231918147548036 18.007767911447427" fill="#bdff1f" stroke="none" /><path d="M 116.15771136456269 86.58626213691792 l 6.607142822725512 -5.485088812909539 a29.587230960292068,29.587230960292068 0 0,0 0.3219393757004904,0.3946596080685295 l -6.700580690502412 5.370545035232909" fill="#ff4e07" stroke="none" /><line stroke="#e1ed5e" stroke-width="0.3" x1="172.23445277983987" x2="176.4835382374775" y1="55.19839476539836" y2="52.563006222186495" /><path d="M 173.08426987136738 54.67131705675599 a86.0,86.0 0 0,1 12.851231095245387,41.99856678651699" fill="none" id="id15" stroke="none" /><text fill="#e1ed5e" style="font-size:6.75px; font-family:Arial;" text-anchor="middle"><textPath startOffset="22.20632615414155" xlink:href="#id15">March</textPath></text><path d="M 119.04729006885535 91.15688171328212 l 12.456855161653328 -5.7833656796739525 a34.7339200195443,34.7339200195443 0 0,0 0.24710319874763506,0.544459143670193 l -12.554560677364309 5.568084527161697" fill="#ff970d" stroke="none" /><path d="M 119.34039704204932 91.81776055985345 l 7.718652645757855 -3.265489532898408 a29.38099162124231,29.38099162124231 0 0,0 0.19304474578618008,0.4674731640931185 l -7.773719078430232 3.1321417983519866" fill="#ff4b07" stroke="none" /><path d="M 119.85752413597 93.16781622104841 l 12.957471149310084 -4.458150149856287 a34.70296177269231,34.70296177269231 0 0,0 0.18948264338055773,0.5665289859017932 l -13.032291086462411 4.23444806103218" fill="#ff960d" stroke="none" /><path d="M 120.08093135843002 93.85539295169968 l 8.04963011389886 -2.463123500161223 a29.41804741894662,29.41804741894662 0 0,0 0.1440000853883819,0.48549670165257114 l -8.090836096398945 2.324197411762122" fill="#ff4c07" stroke="none" /><path d="M 120.18372546131832 94.20196356495316 l 18.704811172531365 -5.3731991597315645 a40.461275143479014,40.461275143479014 0 0,0 0.1865327006496735,0.671057370558546 l -18.7945306437474 5.050430485754067" fill="#ffe315" stroke="none" /><path d="M 120.37134235888165 94.90015583598534 l 8.102190908486602 -2.028335211909242 a29.352223730805697,29.352223730805697 0 0,0 0.11848122913230107,0.49118118584011267 l -8.135904937879722 1.8885687944097234" fill="#ff4b07" stroke="none" /><path d="M 120.53481517161879 95.60439243477599 l 13.685997570561534 -2.9295746738418504 a34.996032911901565,34.996032911901565 0 0,0 0.12102078810686823,0.5901403424671803 l -13.734397654583399 2.6935586752112584" fill="#ff9a0e" stroke="none" /><path d="M 120.6074358757038 95.95851677861258 l 40.154265927143435 -7.874962852754081 a61.91919002228672,61.91919002228672 0 0,0 0.1961195285914412,1.047678363841896 l -40.283871179644734 7.182606411449623" fill="#31ff3b" stroke="none" /><path d="M 120.73433829027371 96.67025291283417 l 12.444625275047981 -1.9984941974202866 a33.60407383719588,33.60407383719588 0 0,0 0.08680109343326133,0.5719107531740865 l -12.477182261920543 1.783984331854118" fill="#ff870c" stroke="none" /><path d="M 120.78858239683441 97.02765380044208 l 17.807494257741155 -2.546110979106791 a38.98859452145754,38.98859452145754 0 0,0 0.08927274360492415,0.6651856326531597 l -17.848683000403916 2.239207004388967" fill="#ffd013" stroke="none" /><path d="M 120.83666639777658 97.38593545837742 l 8.361621604897719 -1.0490074626409902 a29.42716633988963,29.42716633988963 0 0,0 0.05872772159092595,0.5031432541758808 l -8.378439679492233 0.9049204701402568" fill="#ff4c07" stroke="none" /><path d="M 120.96714384426684 98.82574320788733 l 22.938807887811016 -1.2846790752854493 a43.97475370140836,43.97475370140836 0 0,0 0.03582139831675202,0.7561331024079853 l -22.957522894361265 0.8896348662544644" fill="#efff19" stroke="none" /><line stroke="#e1ed5e" stroke-width="0.3" x1="184.98032266829074" x2="189.97916517819016" y1="98.17113171792111" y2="98.06355123074" /><path d="M 185.9800911702706 98.14961562048488 a86.0,86.0 0 0,1 -9.607161424134198,41.387399972396054" fill="none" id="id16" stroke="none" /><text fill="#e1ed5e" style="font-size:6.75px; font-family:Arial;" text-anchor="middle"><textPath startOffset="21.466115282336823" xlink:href="#id16">April</textPath></text><path d="M 120.99513854157772 99.54816195383933 l 11.302461483481787 -0.24324117239756232 a32.30507858679181,32.30507858679181 0 0,0 0.007179408182199863,0.5560530756967897 l -11.304973898781704 0.04865183864030981" fill="#ff750a" stroke="none" /><path d="M 120.92983693683757 101.71520430193887 l 8.287259637881238 0.6791425764603212 a29.31504100680307,29.31504100680307 0 0,0 -0.04554357371433534,0.5025695408529026 l -8.274341467889828 -0.8216935058617945" fill="#ff4a06" stroke="none" /><line stroke="#e1ed5e" stroke-width="0.3" x1="174.80103733775053" x2="179.2010983576182" y1="140.37084112569926" y2="142.7455964860345" /><path d="M 175.68104954172406 140.8457921977663 a86.0,86.0 0 0,1 -30.038265399797805,32.042727171017184" fill="none" id="id17" stroke="none" /><text fill="#e1ed5e" style="font-size:6.75px; font-family:Arial;" text-anchor="middle"><textPath startOffset="22.206326154141568" xlink:href="#id17">May</textPath></text><path d="M 115.32070863581623 114.36230785411682 l 34.93810654987772 32.752521703611485 a68.88944525922335,68.88944525922335 0 0,0 -0.8184507272054133,0.8581423153519891 l -34.369149271293345 -33.349071135545984" fill="#3aff8e" stroke="none" /><path d="M 112.92097659922987 116.55440617244103 l 4.937729788361476 6.3262388766472295 a29.025115188411633,29.025115188411633 0 0,0 -0.3964986523677358,0.3040182590656848 l -4.828102407500246 -6.410296477540286" fill="#ff4606" stroke="none" /><path d="M 112.63410532772338 116.77436683061366 l 11.633265082848853 15.445546073553245 a40.33643581423646,40.33643581423646 0 0,0 -0.5582083089220957,0.412949162064653 l -11.365671803508192 -15.643505184357668" fill="#ffe115" stroke="none" /><path d="M 112.34349029814194 116.9893568818739 l 4.801306191686973 6.60843103688425 a29.168469986208354,29.168469986208354 0 0,0 -0.40873731454291146,0.29162322127757667 l -4.686841549295177 -6.690098520006046" fill="#ff4806" stroke="none" /><path d="M 112.04921762599082 117.19931262002967 l 18.394480282154994 26.256677128423906 a53.05885211102993,53.05885211102993 0 0,0 -0.7525339910039457,0.5175997409838 l -17.939789406528167 -26.5694176587728" fill="#84ff25" stroke="none" /><line stroke="#e1ed5e" stroke-width="0.3" x1="143.8653032363475" x2="146.44561519142675" y1="172.8068346515853" y2="177.08958963109032" /><path d="M 144.38136562736335 173.6633856474863 a86.0,86.0 0 0,1 -40.68145358897372,12.25698825130547" fill="none" id="id18" stroke="none" /><text fill="#e1ed5e" style="font-size:6.75px; font-family:Arial;" text-anchor="middle"><textPath startOffset="21.466115282336833" xlink:href="#id18">June</textPath></text><path d="M 105.53697534728816 120.25689768951611 l 2.333734950524725 8.537915949071506 a29.851120130961405,29.851120130961405 0 0,0 -0.4968215132644341,0.13121507719360329 l -2.1864229944487934 -8.576822375568694" fill="#ff5207" stroke="none" /><path d="M 101.26447882468166 120.96189622390904 l 0.19925430500752753 3.303138006116015 a24.30914233080297,24.30914233080297 0 0,0 -0.4178995441930871,0.02160063301609149 l -0.14236669240096084 -3.3060784458943084" fill="#ff0000" stroke="none" /><line stroke="#e1ed5e" stroke-width="0.3" x1="102.19456741930631" x2="102.32365962044197" y1="184.97166512339345" y2="189.96999836594603" /><path d="M 102.22038585953345 185.97133177190398 a86.0,86.0 0 0,1 -42.740103519485714,-10.115201625700543" fill="none" id="id19" stroke="none" /><text fill="#e1ed5e" style="font-size:6.75px; font-family:Arial;" text-anchor="middle"><textPath startOffset="22.20632615414155" xlink:href="#id19">July</textPath></text><path d="M 99.45781275523022 120.99299961872073 l -0.6352051267642621 24.59456785936336 a45.60276922913144,45.60276922913144 0 0,0 -0.7845405918934769,-0.027021164278400487 l 1.058466070332382 -24.579989896658866" fill="#dbff1b" stroke="none" /><path d="M 98.37488393609728 120.93702456842531 l -1.7955491781033845 23.132782999809695 a44.202362943615725,44.202362943615725 0 0,0 -0.7580824849235198,-0.06541054664394091 l 2.193475980768446 -23.09844820088709" fill="#ecff1a" stroke="none" /><path d="M 97.65516085044442 120.86867818915974 l -2.59087800728115 23.058383075687438 a44.20348419771828,44.20348419771828 0 0,0 -0.7554008706734452,-0.09146852544329793 l 2.9874063010059846 -23.01036902151879" fill="#ecff1a" stroke="none" /><path d="M 95.51606077576429 120.51570834832081 l -4.989579228107188 22.82920153587381 a44.36810526420792,44.36810526420792 0 0,0 -0.7447077673928453,-0.16949306329827576 l 5.381807144892896 -22.739931738997846" fill="#eaff1a" stroke="none" /><path d="M 94.81253420990036 120.34920634021253 l -5.554041142638362 21.787195098091804 a43.48397747856093,43.48397747856093 0 0,0 -0.7237174149203336,-0.1911403470456859 l 5.928249000370185 -21.688363401742535" fill="#f5ff19" stroke="none" /><path d="M 93.08242187328487 119.8279376855182 l -3.1158029627845663 8.930863642559553 a30.458781819287786,30.458781819287786 0 0,0 -0.49354893619764484,-0.17696908889041574 l 3.2690714596119377 -8.87590701262918" fill="#ff5b08" stroke="none" /><path d="M 91.40352486487194 119.15986991738527 l -7.229433995486188 16.113001288611873 a38.66050753579577,38.66050753579577 0 0,0 -0.6048197154944652,-0.2776430668497598 l 7.505721706748073 -15.98617115142804" fill="#ffcb13" stroke="none" /><line stroke="#e1ed5e" stroke-width="0.3" x1="58.666819895761336" x2="56.23545636021788" y1="174.27360380694188" y2="178.64263932499728" /><path d="M 58.180547188652646 175.14741091055294 a86.0,86.0 0 0,1 -31.652253787137756,-30.449443065178592" fill="none" id="id20" stroke="none" /><text fill="#e1ed5e" style="font-size:6.75px; font-family:Arial;" text-anchor="middle"><textPath startOffset="22.20632615414155" xlink:href="#id20">August</textPath></text><path d="M 89.7882731507175 118.34994917583269 l -28.26874968672834 50.79749269363281 a79.13353139807165,79.13353139807165 0 0,0 -1.1845582463268185,-0.6726230873355614 l 29.13895669997637 -50.303366440502614" fill="#47fffd" stroke="none" /><path d="M 89.4739219176387 118.17145234162733 l -31.57823424708386 54.51435702488198 a84.0,84.0 0 0,0 -1.2449285158864716,-0.735525710825002 l 32.511930633998716 -53.962712741763234" fill="#4dd2ff" stroke="none" /><path d="M 89.1626897886671 117.98757091392108 l -30.092746657976704 49.947395059243426 a79.3122257732056,79.3122257732056 0 0,0 -1.163324535133912,-0.7146089446572407 l 30.948050393042926 -49.42199764775781" fill="#47ffff" stroke="none" /><path d="M 88.8546689885994 117.79835938074946 l -26.539138322655376 42.38125552654014 a71.00496658247982,71.00496658247982 0 0,0 -1.0303097839396034,-0.6575924515304897 l 27.2647299086419 -41.91814864618584" fill="#3cffa6" stroke="none" /><path d="M 87.36589467227662 116.77436683061367 l -7.488975369617975 9.94315123839793 a33.44793190198271,33.44793190198271 0 0,0 -0.45691670257071665,-0.3503442436035016 l 7.659020800682179 -9.81276765296706" fill="#ff850c" stroke="none" /><path d="M 83.50135304334701 112.99209946851258 l -18.167390265027947 14.306175653473902 a44.124029295732214,44.124029295732214 0 0,0 -0.46475878462315234,-0.6007633792400646 l 18.41095586686917 -13.991334280120585" fill="#edff1a" stroke="none" /><path d="M 83.28015986056508 112.70617746262583 l -7.67642509123575 5.833669381667404 a30.641535180455318,30.641535180455318 0 0,0 -0.31551841685426885,-0.42268848065906367 l 7.775704774785104 -5.700668021499032" fill="#ff5d08" stroke="none" /><path d="M 82.85270091963577 112.12312394758628 l -9.72007040595184 6.872080422598921 a32.90400176542864,32.90400176542864 0 0,0 -0.32299052736480977,-0.4652919444408571 l 9.836921840478785 -6.703747215971051" fill="#ff7d0b" stroke="none" /><line stroke="#e1ed5e" stroke-width="0.3" x1="26.63291911575756" x2="22.317208475507996" y1="142.92168965132927" y2="145.44649492493687" /><path d="M 25.769776987707644 143.4266507060508 a86.0,86.0 0 0,1 -11.730757126820373,-40.83630448921669" fill="none" id="id21" stroke="none" /><text fill="#e1ed5e" style="font-size:6.75px; font-family:Arial;" text-anchor="middle"><textPath startOffset="21.46611528233685" xlink:href="#id21">September</textPath></text><path d="M 80.87730276802145 108.67885076344099 l -21.21061100478238 9.626452026028295 a44.29288727928806,44.29288727928806 0 0,0 -0.3091198816081976,-0.6969837277610595 l 21.373171971121856 -9.25991996177454" fill="#ebff1a" stroke="none" /><path d="M 80.58989483394504 108.01547362559985 l -21.674732173681576 8.950659596832875 a44.45012413654145,44.45012413654145 0 0,0 -0.2859569317514922,-0.7097216534499106 l 21.825591719690458 -8.57623857554016" fill="#e9ff1a" stroke="none" /><path d="M 79.67330655649465 105.27499134158121 l -22.435395585219823 5.822221788600704 a44.17855132705575,44.17855132705575 0 0,0 -0.18468461701669153,-0.7377232402929458 l 22.532291516531572 -5.435170708910365" fill="#ecff1a" stroke="none" /><path d="M 79.04373962182676 101.35467743843564 l -10.153663809633214 0.6563642096514941 a31.174856398729503,31.174856398729503 0 0,0 -0.03000750516073845,-0.5358041625467924 l 10.163457665681484 -0.4814883307692641" fill="#ff6509" stroke="none" /><line stroke="#e1ed5e" stroke-width="0.3" x1="15.007084014347285" x2="10.007500721073583" y1="101.09737516637583" y2="101.16192664675087" /><path d="M 14.007167355692545 101.11028546245083 a86.0,86.0 0 0,1 10.666146001902534,-42.60595125391555" fill="none" id="id22" stroke="none" /><text fill="#e1ed5e" style="font-size:6.75px; font-family:Arial;" text-anchor="middle"><textPath startOffset="22.20632615414155" xlink:href="#id22">October</textPath></text><path d="M 79.32604984820605 96.31383870115002 l -22.838261145077187 -4.072057528817626 a44.1984444445903,44.1984444445903 0 0,0 0.13999178745438676,-0.7478417263435952 l 22.764783633712938 4.4645773326237945" fill="#ecff1a" stroke="none" /><path d="M 79.54389044137918 95.25157060432595 l -22.790277575013416 -5.290254418253171 a44.39622926362294,44.39622926362294 0 0,0 0.1792068587455327,-0.742928124851065 l 22.69583791600707 5.681767774763633" fill="#e9ff1a" stroke="none" /><path d="M 79.81627453868168 94.20196356495316 l -16.997234170830293 -4.882675559889447 a38.68463994773947,38.68463994773947 0 0,0 0.18935965995164297,-0.638426637627495 l 16.910668613766944 5.174531584263481" fill="#ffcc13" stroke="none" /><path d="M 81.10775173730289 90.83032412892265 l -7.735732890891325 -3.754670288488935 a29.59878551508755,29.59878551508755 0 0,0 0.22641659627325605,-0.45644204195890137 l 7.669956281664656 3.887271918946798" fill="#ff4e07" stroke="none" /><line stroke="#e1ed5e" stroke-width="0.3" x1="26.266209847984243" x2="21.928928074336255" y1="57.711370442889674" y2="55.22380399835377" /><path d="M 25.398753493254645 57.213857153982495 a86.0,86.0 0 0,1 29.58750427330803,-30.492523968695096" fill="none" id="id23" stroke="none" /><text fill="#e1ed5e" style="font-size:6.75px; font-family:Arial;" text-anchor="middle"><textPath startOffset="21.46611528233685" xlink:href="#id23">November</textPath></text><line stroke="#e1ed5e" stroke-width="0.3" x1="56.762969772571076" x2="54.21961505331055" y1="26.818313649435495" y2="22.513508569990535" /><path d="M 56.25429882871897 25.957352633546506 a86.0,86.0 0 0,1 42.265352541879196,-11.944610805530505" fill="none" id="id24" stroke="none" /><text fill="#e1ed5e" style="font-size:6.75px; font-family:Arial;" text-anchor="middle"><textPath startOffset="22.20632615414155" xlink:href="#id24">December</textPath></text></svg>