<?xml version="1.0" encoding="utf-8" ?>
<svg baseProfile="full" height="200mm" version="1.1" viewBox="0,0,200,200" width="200mm" xmlns="http://www.w3.org/2000/svg" xmlns:ev="http://www.w3.org/2001/xml-events" xmlns:xlink="http://www.w3.org/1999/xlink"><defs /><rect fill="#1a1a1a" height="200" width="200" x="0" y="0" /><text alignment-baseline="middle" fill="#e1ed5e" style="dominant-baseline: central; font-size:9.0px; font-family:Arial;" text-anchor="middle" x="100.0" y="100.0">2016</text><line stroke="#e1ed5e" stroke-width="0.3" x1="100.0" x2="100.0" y1="15.0" y2="10.0" /><path d="M 100.0 14.0 a86.0,86.0 0 0,1 42.35913384403234,11.155469271406648" fill="none" id="id25" stroke="none" /><text fill="#e1ed5e" style="font-size:6.75px; font-family:Arial;" text-anchor="middle"><textPath startOffset="22.145653131862478" xlink:href="#id25">January</textPath></text><path d="M 100.36049292484886 79.00309439819443 l 0.1282251982317784 -7.468474961538513 a28.46957562064869,28.46957562064869 0 0,0 0.48857409560657133,0.01258393561119649 l -0.2564126079090911 7.465173308577271" fill="#ff6008" stroke="none" /><path d="M 102.15924093988457 79.11130261209362 l 0.4735961507167846 -4.581613146390729 a25.60602565528614,25.60602565528614 0 0,0 0.43684379499895043,0.048949258398593105 l -0.5521758473165317 4.572808127485165" fill="#ff3905" stroke="none" /><path d="M 102.51750503828377 79.15144685158666 l 0.5769976539174688 -4.778368293717071 a25.813079039765174,25.813079039765174 0 0,0 0.43946420200009506,0.05689743932874848 l -0.6589396778083555 4.767759258187925" fill="#ff3c05" stroke="none" /><path d="M 102.87502721639298 79.19773525538626 l 0.5790779944223339 -4.189919900259752 a25.22974704849083,25.22974704849083 0 0,0 0.4285151125745411,0.06297696482012279 l -0.650918212604557 4.1793618621407465" fill="#ff3304" stroke="none" /><path d="M 103.94208987418118 79.37332000966035 l 0.947335103577714 -4.956857567630059 a26.04657118687946,26.04657118687946 0 0,0 0.4384549740204764,0.08770327445181123 l -1.0322865631291473 4.939864896515388" fill="#ff3f05" stroke="none" /><path d="M 104.29559338865022 79.4440306129975 l 1.0122602965711809 -4.844031961445418 a25.94866815936562,25.94866815936562 0 0,0 0.43524267449556986,0.09485911514126183 l -1.0952653876858849 4.825941388170437" fill="#ff3d05" stroke="none" /><path d="M 104.64783097203109 79.52079915486377 l 1.0101066731765938 -4.450716379205174 a25.56390093881551,25.56390093881551 0 0,0 0.42712146973376813,0.10079950386570238 l -1.0863602966502468 4.432720731693244" fill="#ff3805" stroke="none" /><path d="M 104.9986988182912 79.60360301121754 l 1.6669378964643373 -6.8016754615264645 a28.002961590255953,28.002961590255953 0 0,0 0.4659088835070486,0.11843221626497555 l -1.7834520731967802 6.772058013426221" fill="#ff5a08" stroke="none" /><path d="M 105.3480935250658 79.69241777938227 l 1.8822515798146897 -7.147215832674525 a28.390910983670977,28.390910983670977 0 0,0 0.4702327087870611,0.1281640158118885 l -2.0046656895364436 7.113851322718494" fill="#ff5f08" stroke="none" /><path d="M 105.69591212413111 79.78721728523813 l 0.6205036659147837 -2.2019486079697836 a23.287706815034163,23.287706815034163 0 0,0 0.3838479308865119,0.11173253842137928 l -0.6582116091829 2.1909723752458885" fill="#ff1802" stroke="none" /><path d="M 106.38641147887787 79.99465700312896 l 1.5016749585109965 -4.703975419401415 a25.937855043169222,25.937855043169222 0 0,0 0.4230059803082997,0.13905046769371043 l -1.5822036764670386 4.677504030305682" fill="#ff3d05" stroke="none" /><path d="M 106.72888874123014 80.10723608172694 l 1.6332419437239085 -4.828389598544849 a26.097138938863168,26.097138938863168 0 0,0 0.42313929403914785,0.14718981149496313 l -1.7158870098080747 4.799641354481295" fill="#ff4006" stroke="none" /><path d="M 107.06938296918511 80.22567764915836 l 1.6834123813990731 -4.7088040390914605 a26.000671227386555,26.000671227386555 0 0,0 0.4189956765534322,0.15386101612527048 l -1.7639972096066299 4.679212173957468" fill="#ff3e05" stroke="none" /><path d="M 107.40779381753099 80.34994680014964 l 1.610206389961983 -4.2712637534015165 a25.5646969964496,25.5646969964496 0 0,0 0.40931239195975255,0.15833082624168537 l -1.6832910444152613 4.242993039021793" fill="#ff3805" stroke="none" /><path d="M 108.4095320186766 80.7573450057729 l 2.3796457655116616 -5.445095205359645 a26.942371224077824,26.942371224077824 0 0,0 0.42220825072057727,0.18884838027517042 l -2.4727674190878703 5.403443074174622" fill="#ff4b07" stroke="none" /><path d="M 109.06512990194946 81.05736502329252 l 2.7374888196678016 -5.720298773946251 a27.341582066094958,27.341582066094958 0 0,0 0.42163291052690133,0.20624178483329403 l -2.8352819794567696 5.672463239015736" fill="#ff5107" stroke="none" /><path d="M 109.3889696526874 81.21577127319529 l 3.53325860459725 -7.068884045301895 a28.902723455422453,28.902723455422453 0 0,0 0.44189893904174277,0.22563674692931354 l -3.6540847653525717 7.007189346699748" fill="#ff6609" stroke="none" /><path d="M 109.71004243097381 81.37971332152246 l 3.38002150638559 -6.4816369110353405 a28.310004270185132,28.310004270185132 0 0,0 0.4289790468525318,0.2284071801080678 l -3.4907893690246814 6.4226592632047" fill="#ff5e08" stroke="none" /><path d="M 110.34350942703115 81.72400993836675 l 3.741902837825679 -6.611583772233114 a28.59703079005108,28.59703079005108 0 0,0 0.42515278140390844,0.2454620727902647 l -3.854848087089985 6.546374802166678" fill="#ff6209" stroke="none" /><line stroke="#e1ed5e" stroke-width="0.3" x1="143.13028292997686" x2="145.6673583964461" y1="26.7553504044142" y2="22.446841604673864" /><path d="M 143.63769802327073 25.89364864446614 a86.0,86.0 0 0,1 29.32050498858742,28.57503671076993" fill="none" id="id26" stroke="none" /><text fill="#e1ed5e" style="font-size:6.75px; font-family:Arial;" text-anchor="middle"><textPath startOffset="20.669276256404974" xlink:href="#id26">February</textPath></text><path d="M 110.65571695917076 81.90426304109057 l 3.13614681852718 -5.325862925041974 a27.180633686257,27.180633686257 0 0,0 0.4000306442111236,0.24020690803481037 l -3.2271102192957377 5.271242016471242" fill="#ff4f07" stroke="none" /><path d="M 110.96478420261332 82.08984904055464 l 2.5752320229677856 -4.206447973317895 a25.9321419813656,25.9321419813656 0 0,0 0.37766567786761035,0.23569131502215498 l -2.6470618296251085 4.161620861454195" fill="#ff3d05" stroke="none" /><path d="M 111.5731344415666 82.4767994020092 l 26.608572011680383 -40.28876942033021 a69.28251283752033,69.28251283752033 0 0,0 0.9867931790318815,0.6639584900329912 l -27.296261478809267 39.826061256240095" fill="#3bff9a" stroke="none" /><path d="M 111.8722381534696 82.67804972795209 l 26.71099952270875 -38.97214657152398 a68.24728250274819,68.24728250274819 0 0,0 0.9606777010411177,0.6706276453168646 l -27.37607231492363 38.50787411040199" fill="#3aff8f" stroke="none" /><path d="M 112.16784306229584 82.88440491214696 l 21.202225907380935 -29.823585966225423 a57.592084708478325,57.592084708478325 0 0,0 0.8008563041441283,0.5797582039232789 l -21.711063221899032 29.45522699092907" fill="#47ff2c" stroke="none" /><path d="M 112.45986205192187 83.09580414077388 l 22.92060038743238 -31.096196454313716 a59.63065306263458,59.63065306263458 0 0,0 0.8187771704718922,0.6144256530749962 l -23.45103054681504 30.698151773974704" fill="#33ff2f" stroke="none" /><path d="M 112.7482090630111 83.31218511350987 l 31.985408029146132 -41.869925855543734 a73.68924954807855,73.68924954807855 0 0,0 0.9986298861274439,0.7765406396115665 l -32.6994478599088 41.31468416431138" fill="#40ffc9" stroke="none" /><path d="M 113.03279911837588 83.53348406188908 l 32.3919757400782 -40.92620318522711 a73.19381380493581,73.19381380493581 0 0,0 0.9785288971664905,0.7882336131311345 l -33.08975540759995 40.36412127830257" fill="#40ffc4" stroke="none" /><path d="M 114.13192950727249 84.46653392183569 l 6.9150979681177756 -7.600904013826482 a31.275812461118104,31.275812461118104 0 0,0 0.39403089786569345,0.36470911652475024 l -7.044558637297434 7.481077151169357" fill="#ff860c" stroke="none" /><path d="M 114.39649973595853 84.71141617570332 l 4.642715798573232 -4.930403289737389 a27.77227336909658,27.77227336909658 0 0,0 0.34428032800218605,0.32981276629000306 l -4.726668612440731 4.8499783931418055" fill="#ff5708" stroke="none" /><path d="M 114.65682725009322 84.96080404539774 l 3.492070729474343 -3.583172203081093 a26.00336696801109,26.00336696801109 0 0,0 0.3170034308398323,0.3142940160876662 l -3.553066080444138 3.5226981767647674" fill="#ff3e05" stroke="none" /><path d="M 114.91283532996326 85.21462403516908 l 11.547604647512244 -11.448907764954049 a37.26113963120886,37.26113963120886 0 0,0 0.44644735882736775,0.45809432002254635 l -11.742438807490425 11.248990752863762" fill="#ffd313" stroke="none" /><path d="M 115.16444852881244 85.47280134310134 l 45.49334558643732 -43.581595970695986 a84.0,84.0 0 0,0 0.9885766650549601,1.0498341602220207 l -46.23477808522854 42.794220350529464" fill="#4dd2ff" stroke="none" /><path d="M 115.41159269507618 85.73525988315684 l 43.799640786400616 -40.540293621223306 a80.6818560360913,80.6818560360913 0 0,0 0.9320763702238282,1.0245152066233811 l -44.48911485746632 39.78244083904225" fill="#49f0ff" stroke="none" /><path d="M 115.6541949942343 86.00192230759917 l 4.481991865071841 -4.007824763080569 a27.0125627156922,27.0125627156922 0 0,0 0.3061281457361639,0.3483176346791311 l -4.550131074766595 3.9302948505901396" fill="#ff4c07" stroke="none" /><path d="M 115.8921839302757 86.27271002978787 l 9.862401153781944 -8.51890722096435 a34.032219180075124,34.032219180075124 0 0,0 0.3780905595537645,0.4453897284591483 l -10.00718627684282 8.34835071005565" fill="#ffaa0f" stroke="none" /><path d="M 116.1254893667686 86.54754324733833 l 4.668911699165259 -3.894972195042475 a27.080258617423787,27.080258617423787 0 0,0 0.2947275829929892,0.35951972921678166 l -4.735086101396876 3.8142501841271987" fill="#ff4d07" stroke="none" /><path d="M 116.35404254752997 86.82634096563983 l 3.404884894657057 -2.7427342519804103 a25.37216563305307,25.37216563305307 0 0,0 0.2703145323541202,0.34153358115035787 l -3.4514658576527366 2.6838807269153744" fill="#ff3505" stroke="none" /><path d="M 116.57777611688842 87.10902102172516 l 4.406538990844394 -3.4265513719934093 a26.582010406900174,26.582010406900174 0 0,0 0.27702001978558777,0.36262809836143495 l -4.464710987984289 3.3504023603910924" fill="#ff4606" stroke="none" /><path d="M 116.7966241395341 87.39550010848427 l 7.004334344215258 -5.256183072764166 a29.757177633231265,29.757177633231265 0 0,0 0.3030952475539771,0.41120691443471735 l -7.093531611353061 5.135169849060573" fill="#ff720a" stroke="none" /><path d="M 117.01052211995028 87.68569379921539 l 10.294461587840377 -7.452396303356517 a33.7088217410507,33.7088217410507 0 0,0 0.33529828133573786,0.4716390232528801 l -10.420874967706077 7.274580053394133" fill="#ffa60f" stroke="none" /><path d="M 117.21940702142032 87.97951657250589 l 2.522798717744065 -1.761109435407526 a24.076689749346286,24.076689749346286 0 0,0 0.23367030830619206,0.34093196314050483 l -2.5526587628655824 1.7175427371969725" fill="#ff2303" stroke="none" /><path d="M 117.62189284568427 88.57770195909679 l 3.923608567987449 -2.5432356700755925 a25.675762169778245,25.675762169778245 0 0,0 0.23656217780349256,0.37191503544043875 l -3.966688437416831 2.4755069599564816" fill="#ff3a05" stroke="none" /><path d="M 117.81537515405839 88.88188828441811 l 6.807514178321566 -4.248392328844405 a29.024405689384924,29.024405689384924 0 0,0 0.2601582363516727,0.4249489274299605 l -6.879440379128641 4.13090628528989" fill="#ff6809" stroke="none" /><line stroke="#e1ed5e" stroke-width="0.3" x1="172.87174338648825" x2="177.1583165268699" y1="56.24261187166439" y2="53.66864786411523" /><path d="M 173.72905801456457 55.72781907015455 a86.0,86.0 0 0,1 12.242430191666344,42.057860355516425" fill="none" id="id27" stroke="none" /><text fill="#e1ed5e" style="font-size:6.75px; font-family:Arial;" text-anchor="middle"><textPath startOffset="22.145653131862474" xlink:href="#id27">March</textPath></text><path d="M 118.00360718960297 89.18935116829356 l 4.214517043348133 -2.530696391620347 a25.915951396752426,25.915951396752426 0 0,0 0.22574803987929457,0.38336952495057686 l -4.257338793357195 2.4579756983762135" fill="#ff3d05" stroke="none" /><path d="M 118.18653347947321 89.5 l 3.331633484156299 -1.9235194889188105 a24.84703897783762,24.84703897783762 0 0,0 0.21009548097511124,0.37121858392285156 l -3.3641623301527863 1.8660441348968408" fill="#ff2e04" stroke="none" /><path d="M 118.36410011445183 89.81374322990088 l 3.8685454048360257 -2.145816924044964 a25.423818918174174,25.423818918174174 0 0,0 0.20842041225243557,0.3834700836642195 l -3.9048111667038023 2.079092006906141" fill="#ff3605" stroke="none" /><path d="M 118.53625476483649 90.13048839642627 l 4.824549381226313 -2.568800801678426 a26.4658040845419,26.4658040845419 0 0,0 0.21007790423728992,0.4028520811849588 l -4.867935354438548 2.485602477388969" fill="#ff4506" stroke="none" /><path d="M 119.0197475246899 91.09779779509293 l 5.470100157401756 -2.560283075212819 a27.039622931709225,27.039622931709225 0 0,0 0.193160166867523,0.422089824465465 l -5.513244789124331 2.4660042685326697" fill="#ff4d07" stroke="none" /><path d="M 119.16976305983485 91.42560881287824 l 4.345165091163027 -1.943537077008523 a25.760020592305104,25.760020592305104 0 0,0 0.17708924628923775,0.40521485166636034 l -4.377888219469235 1.8686601555663132" fill="#ff3b05" stroke="none" /><path d="M 119.31412917781788 91.75594674310238 l 11.637601848036219 -4.967400214345057 a33.65341225373185,33.65341225373185 0 0,0 0.2222313582262777,0.533274359257738 l -11.721159050798981 4.76689334564604" fill="#ffa50f" stroke="none" /><path d="M 119.4528033332814 92.08871423366111 l 3.767229373077754 -1.5320993898485262 a25.066859438160364,25.066859438160364 0 0,0 0.158686738483188,0.3999942428275275 l -3.792974786527066 1.4672041298074334" fill="#ff3104" stroke="none" /><path d="M 119.58574465831526 92.42381321644754 l 2.9470242206630286 -1.1399722778432642 a24.15982413298995,24.15982413298995 0 0,0 0.14630420543598605,0.3880892869041996 l -2.966159109913455 1.0892147107449068" fill="#ff2403" stroke="none" /><path d="M 119.71291397450082 92.76114493625339 l 5.777480232140783 -2.121570767681863 a27.154700671442903,27.154700671442903 0 0,0 0.15692808838066338,0.43895579275688157 l -5.813048490565389 2.0220800185440644" fill="#ff4e07" stroke="none" /><path d="M 119.83427380445688 93.10060997987247 l 5.654696872488668 -1.9669971057941116 a26.98704220245152,26.98704220245152 0 0,0 0.14844746681071344,0.4388585582396346 l -5.687629760871746 1.8696368730803152" fill="#ff4c07" stroke="none" /><path d="M 120.05942366710727 93.78553927170692 l 5.784816587933225 -1.7921509661834463 a27.056063741541998,27.056063741541998 0 0,0 0.13363592845186492,0.44483054308604414 l -5.814728836388717 1.6925828195066788" fill="#ff4d07" stroke="none" /><path d="M 120.16314734710363 94.1308016681162 l 6.318698831393834 -1.8392811401152622 a27.580950541847393,27.580950541847393 0 0,0 0.12842413971420055,0.45573196615447337 l -6.349341463182617 1.7305412500577757" fill="#ff5407" stroke="none" /><path d="M 120.51834098615036 95.52812308129327 l 12.546338294149653 -2.7344160363532746 a33.84085805743183,33.84085805743183 0 0,0 0.1188334448010807,0.5686610515644505 l -12.5914294497751 2.51863853350342" fill="#ffa80f" stroke="none" /><path d="M 120.65975698304385 96.23510406497455 l 4.804857858783568 -0.8756051601069774 a25.88398847659576,25.88398847659576 0 0,0 0.07590810258857399,0.43781776393761473 l -4.819180778864376 0.79299436324877" fill="#ff3d05" stroke="none" /><path d="M 120.7213421655516 96.59031103205396 l 3.8466791915725604 -0.6329695971401578 a24.898408818195072,24.898408818195072 0 0,0 0.06577745568404393,0.4223384510544525 l -3.8569781393948697 0.566842964154264" fill="#ff2f04" stroke="none" /><path d="M 120.77682067341334 96.94652285012252 l 5.5616314136296925 -0.8173682925073407 a26.621373044610095,26.621373044610095 0 0,0 0.06256717793241737,0.45270493171415943 l -5.574843108117323 0.7217750525930956" fill="#ff4706" stroke="none" /><path d="M 120.9064616781168 98.02013634271609 l 6.56704382591363 -0.6219058780437439 a27.5964256633889,27.5964256633889 0 0,0 0.04061454970221172,0.4720026317119727 l -6.576751998313583 0.5090821989561092" fill="#ff5407" stroke="none" /><path d="M 120.93736805541906 98.37931529534042 l 4.129107893675165 -0.31961906527389095 a25.1414596876581,25.1414596876581 0 0,0 0.029614291580992203,0.4305853001440455 l -4.133986146421224 0.2486903409755113" fill="#ff3204" stroke="none" /><path d="M 120.99303781780057 99.45929381324524 l 6.347107642965116 -0.16347897814196535 a27.349212613204926,27.349212613204926 0 0,0 0.008059641570449739,0.46943371582130594 l -6.348978716134232 0.054498346351593" fill="#ff5107" stroke="none" /><line stroke="#e1ed5e" stroke-width="0.3" x1="184.99686870605535" x2="189.99668451229388" y1="99.2704041080226" y2="99.22748670261217" /><path d="M 185.99683186730306 99.26182062694052 a86.0,86.0 0 0,1 -10.086455211305974,41.156179273409016" fill="none" id="id28" stroke="none" /><text fill="#e1ed5e" style="font-size:6.75px; font-family:Arial;" text-anchor="middle"><textPath startOffset="21.40746469413373" xlink:href="#id28">April</textPath></text><path d="M 120.99922638620191 99.81974689727618 l 6.763557040443358 -0.058057002651801665 a27.76380621062489,27.76380621062489 0 0,0 0.0,0.47662021075125627 l -6.763557040443358 -0.05805700265180084" fill="#ff5708" stroke="none" /><path d="M 120.99303781780057 100.54070618675476 l 3.6552448488196356 0.09414614125947837 a24.65645708312521,24.65645708312521 0 0,0 -0.014530065426310136,0.42302700119494635 l -3.6530900963964794 -0.15687940701853542" fill="#ff2b04" stroke="none" /><path d="M 120.96210409425399 101.26102812881392 l 4.034225079882955 0.24268896294115125 a25.041518270141815,25.041518270141815 0 0,0 -0.02949656992456834,0.42887365309598346 l -4.029464548793321 -0.3119060401914782" fill="#ff3104" stroke="none" /><path d="M 120.9064616781168 101.97986365728391 l 4.0392586828023225 0.38252199686279814 a25.057330869509887,25.057330869509887 0 0,0 -0.04422930029181074,0.42787835873650226 l -4.032096990028846 -0.4518048778822318" fill="#ff3104" stroke="none" /><path d="M 120.82617615685814 102.69636545807757 l 1.9148379490987197 0.24791410890211169 a22.930819975218125,22.930819975218125 0 0,0 -0.053893414555349205,0.389945900748068 l -1.9103000179881602 -0.2807483178502648" fill="#ff1302" stroke="none" /><path d="M 120.77682067341334 103.0534771498775 l 8.003294915066713 1.176208743918089 a29.089264274753425,29.089264274753425 0 0,0 -0.07684899889328198,0.49342570064697244 l -7.981924424035162 -1.313422626496512" fill="#ff6909" stroke="none" /><path d="M 120.65975698304385 103.76489593502545 l 25.873607769874155 4.715033230893805 a47.29971705927129,47.29971705927129 0 0,0 -0.15242605844789006,0.7975575469208542 l -25.788855419144106 -5.158493342847975" fill="#b3ff20" stroke="none" /><path d="M 120.26092885502905 105.52220625578681 l 12.787229812060392 3.485216347562273 a34.25367795201624,34.25367795201624 0 0,0 -0.15949410867332714,0.5659883250727552 l -12.725517211312486 -3.704212596538037" fill="#ffad10" stroke="none" /><path d="M 120.16314734710363 105.8691983318838 l 4.652829197425932 1.3543707683113893 a25.84594054013002,25.84594054013002 0 0,0 -0.12765886027569814,0.4249348270636648 l -4.628894017146604 -1.4340431989657776" fill="#ff3c05" stroke="none" /><path d="M 119.94978838288452 106.5578916946017 l 5.529521406649954 1.8176635166166557 a26.820610590499875,26.820610590499875 0 0,0 -0.1475319774063503,0.43615207648744314 l -5.497504007671238 -1.9123172675782592" fill="#ff4a06" stroke="none" /><path d="M 119.4528033332814 107.91128576633889 l 3.6919942162824166 1.501501906550841 a24.98564038373241,24.98564038373241 0 0,0 -0.16499345613948446,0.395924230976062 l -3.6656749156064468 -1.564658646968181" fill="#ff3004" stroke="none" /><path d="M 119.31412917781788 108.2440532568976 l 5.612759834483881 2.395753418010883 a27.102680345512645,27.102680345512645 0 0,0 -0.18631946421032117,0.4263353966125496 l -5.5708064882565935 -2.491750884399277" fill="#ff4e07" stroke="none" /><path d="M 119.16976305983485 108.57439118712176 l 6.082712543843018 2.7207199518809233 a27.663460733551908,27.663460733551908 0 0,0 -0.19761661266213965,0.43182796278712576 l -6.035111466325822 -2.824736896882738" fill="#ff5507" stroke="none" /><path d="M 119.0197475246899 108.90220220490707 l 9.776362954360472 4.575831500144931 a31.79423487483529,31.79423487483529 0 0,0 -0.23561154399136727,0.49233750893819594 l -9.696372152409193 -4.74298151114823" fill="#ff8d0d" stroke="none" /><path d="M 118.8641267826498 109.22738970284198 l 3.4513100378697366 1.6882086868735993 a24.84208140829107,24.84208140829107 0 0,0 -0.19066899225664596,0.38146570860765433 l -3.4218211324013583 -1.7472062516449993" fill="#ff2e04" stroke="none" /><path d="M 118.70294669586154 109.54985784667822 l 3.4537041562921966 1.763485950819201 a24.877880232540285,24.877880232540285 0 0,0 -0.19747342360819423,0.378681327615606 l -3.4229226637090533 -1.8225135215393098" fill="#ff2e04" stroke="none" /><path d="M 118.5362547648365 109.86951160357373 l 4.459078440787471 2.3742081111273268 a26.051756595090307,26.051756595090307 0 0,0 -0.21356814516828854,0.39294133242814194 l -4.4176649460038435 -2.450404277030072" fill="#ff3f05" stroke="none" /><line stroke="#e1ed5e" stroke-width="0.3" x1="174.33088141563837" x2="178.70328620479359" y1="141.23008692659167" y2="143.65538615756765" /><path d="M 175.20536237346943 141.71514677278685 a86.0,86.0 0 0,1 -30.301960400862466,31.631185727798858" fill="none" id="id29" stroke="none" /><text fill="#e1ed5e" style="font-size:6.75px; font-family:Arial;" text-anchor="middle"><textPath startOffset="22.145653131862474" xlink:href="#id29">May</textPath></text><path d="M 118.18653347947321 110.5 l 3.263485663134939 1.8841743261074404 a24.768348652214883,24.768348652214883 0 0,0 -0.21575152976962356,0.36639326533850436 l -3.23066042323555 -1.9399187597394942" fill="#ff2d04" stroke="none" /><path d="M 118.00360718960297 110.81064883170644 l 5.787030430695973 3.4749454987432826 a27.750182769750566,27.750182769750566 0 0,0 -0.24873682807070027,0.40629291535514933 l -5.726525638169869 -3.573775530222989" fill="#ff5608" stroke="none" /><path d="M 117.81537515405839 111.11811171558189 l 7.002526108074352 4.370094196030106 a29.254277386691033,29.254277386691033 0 0,0 -0.269532624694929,0.42375005419944617 l -6.926475791753533 -4.489657924908224" fill="#ff6b09" stroke="none" /><path d="M 117.62189284568427 111.42229804090321 l 3.1959437447558146 2.071572123053828 a24.80860440065092,24.80860440065092 0 0,0 -0.2347077808996691,0.3553774949543769 l -3.159911524935419 -2.126129496347266" fill="#ff2d04" stroke="none" /><path d="M 117.423217284605 111.72311816256416 l 6.321961239595811 4.2536976621658695 a28.619785936367713,28.619785936367713 0 0,0 -0.2777621954276332,0.4052633441526958 l -6.248009307352857 -4.3615957413886095" fill="#ff6209" stroke="none" /><path d="M 117.01052211995028 112.31430620078461 l 11.276305544077431 8.163175610025334 a34.92093756768932,34.92093756768932 0 0,0 -0.3556913342841892,0.4825636074551847 l -11.134512190209414 -8.355545526749395" fill="#ffb610" stroke="none" /><path d="M 116.79662413953412 112.60449989151573 l 3.995398282953095 2.998221357201916 a25.995251619909276,25.995251619909276 0 0,0 -0.27090521024735525,0.3546236163878673 l -3.9433410953514354 -3.0663658868306607" fill="#ff3e05" stroke="none" /><path d="M 116.57777611688842 112.89097897827486 l 5.452634544260761 4.240001601582365 a27.90715839218175,27.90715839218175 0 0,0 -0.2973222932254343,0.3756570047373221 l -5.379045820393765 -4.33297855023437" fill="#ff5908" stroke="none" /><path d="M 116.35404254752997 113.17365903436017 l 4.3320394943824745 3.489584367688716 a26.56271204001313,26.56271204001313 0 0,0 -0.2890948726854002,0.352648738507411 l -4.2714978024584465 -3.56343538789462" fill="#ff4606" stroke="none" /><path d="M 116.1254893667686 113.45245675266167 l 10.583931281413259 8.82949190551521 a34.78330615923613,34.78330615923613 0 0,0 -0.38643497267363136,0.45521942613261995 l -10.430801745232513 -9.009878114097386" fill="#ffb410" stroke="none" /><path d="M 115.89218393027572 113.72728997021213 l 4.435686761359813 3.831440578422808 a26.861335509155538,26.861335509155538 0 0,0 -0.3044143170702568,0.34636761226051693 l -4.369261380330971 -3.907020468494618" fill="#ff4a06" stroke="none" /><path d="M 115.41159269507618 114.26474011684316 l 24.194647107961025 22.394204158020592 a53.967883288890015,53.967883288890015 0 0,0 -0.6351355962119786,0.6744919932327544 l -23.806655678012785 -22.806237611197844" fill="#6bff28" stroke="none" /><path d="M 115.16444852881244 114.52719865689866 l 3.406143645187317 3.2630085620030194 a25.71688874231256,25.71688874231256 0 0,0 -0.30812898290009805,0.31616748113732235 l -3.349627861136412 -3.320998735208079" fill="#ff3a05" stroke="none" /><path d="M 114.91283532996324 114.78537596483092 l 5.8203569446375605 5.77061060300684 a29.196127237575418,29.196127237575418 0 0,0 -0.35592592732061507,0.35288384365733727 l -5.720439097186981 -5.869674456892839" fill="#ff6a09" stroke="none" /><path d="M 114.65682725009322 115.03919595460226 l 4.252780815100953 4.363727765834833 a27.09329670011305,27.09329670011305 0 0,0 -0.3358633609359035,0.3217495022400023 l -4.177244968299738 -4.436089398380416" fill="#ff4d07" stroke="none" /><path d="M 114.13192950727249 115.5334660781643 l 3.9755550848586894 4.369831453004806 a26.907661564478442,26.907661564478442 0 0,0 -0.34433474803694,0.3079062549680546 l -3.8999553099983713 -4.437433237856247" fill="#ff4b07" stroke="none" /><path d="M 113.86319453409587 115.77377054828091 l 5.383776756678295 6.125749662831944 a29.155357815414057,29.155357815414057 0 0,0 -0.37877047080482656,0.3271729113949035 l -5.277826806110613 -6.217266706691564" fill="#ff6a09" stroke="none" /><path d="M 113.59037401385872 116.0094264158162 l 8.202966438214444 9.663073838150893 a33.67531673718763,33.67531673718763 0 0,0 -0.44391390371814504,0.37032876682676935 l -8.035878200334405 -9.802464788889534" fill="#ffa60f" stroke="none" /><path d="M 113.31354834802062 116.24036423190432 l 3.4829082118721484 4.248581705530355 a26.493732439871245,26.493732439871245 0 0,0 -0.35419499870990034,0.2853144188122826 l -3.4094624428069955 -4.307744418136041" fill="#ff4506" stroke="none" /><path d="M 111.8722381534696 117.32195027204791 l 6.2025558363449145 9.049714330854146 a31.971281984027357,31.971281984027357 0 0,0 -0.45536805312952316,0.30639194857605695 l -6.046291495118388 -9.154855953487324" fill="#ff8f0d" stroke="none" /><path d="M 111.5731344415666 117.5232005979908 l 3.162373936040556 4.788237199428499 a26.738277127269082,26.738277127269082 0 0,0 -0.3851768095091746,0.24966695434965797 l -3.0797114942743717 -4.841817995482051" fill="#ff4806" stroke="none" /><path d="M 111.27062007382361 117.71928675628689 l 5.3280151114147705 8.376524714931644 a30.92743226254024,30.92743226254024 0 0,0 -0.45041515191957493,0.2810923673584168 l -5.183435830705481 -8.46675287913161" fill="#ff810b" stroke="none" /><line stroke="#e1ed5e" stroke-width="0.3" x1="143.1302829299769" x2="145.66735839644613" y1="173.24464959558577" y2="177.55315839532614" /><path d="M 143.63769802327073 174.10635135553383 a86.0,86.0 0 0,1 -40.68552437913181,11.842963189579606" fill="none" id="id30" stroke="none" /><text fill="#e1ed5e" style="font-size:6.75px; font-family:Arial;" text-anchor="middle"><textPath startOffset="21.407464694133747" xlink:href="#id30">June</textPath></text><path d="M 110.65571695917076 118.09573695890943 l 5.540678362841834 9.409283168094705 a31.91941969418952,31.91941969418952 0 0,0 -0.4745468214310049,0.273979735096273 l -5.37833907355043 -9.503009800467149" fill="#ff8f0d" stroke="none" /><path d="M 110.34350942703117 118.27599006163325 l 4.073664142919187 7.197774209579064 a29.27059206595193,29.27059206595193 0 0,0 -0.4394154411858789,0.24373633800565567 l -3.9495045135772133 -7.266643463017863" fill="#ff6b09" stroke="none" /><path d="M 110.02825361518725 118.45085714620011 l 2.418053122120689 4.448945393702922 a26.06360504162282,26.06360504162282 0 0,0 -0.39493955357934984,0.21028306722218384 l -2.3413247527547854 -4.489798928647674" fill="#ff3f05" stroke="none" /><path d="M 109.71004243097381 118.62028667847754 l 1.127702087538021 2.162517445947932 a23.438891900488166,23.438891900488166 0 0,0 -0.3583614353545118,0.18298190231833322 l -1.090413430469927 -2.1815572999391013" fill="#ff1a02" stroke="none" /><path d="M 109.06512990194946 118.94263497670748 l 4.968723727038389 10.382721580322093 a32.51039195206316,32.51039195206316 0 0,0 -0.5054766613718845,0.23658860053491854 l -4.789758351794998 -10.466486412427544" fill="#ff960d" stroke="none" /><path d="M 108.07796709384702 119.3841803445677 l 1.691900856414887 4.059946140515409 a25.398373696245397,25.398373696245397 0 0,0 -0.40388921851805726,0.16425822905292634 l -1.6219571767063887 -4.088391626147627" fill="#ff3605" stroke="none" /><path d="M 106.72888874123015 119.89276391827305 l 1.7044504909151763 5.038905015386185 a26.319371695046797,26.319371695046797 0 0,0 -0.42922792214054,0.14109574355743543 l -1.617699831126902 -5.06742168034564" fill="#ff4306" stroke="none" /><path d="M 106.38641147887787 120.00534299687104 l 0.9272008789087909 2.904443547196834 a24.048851224429058,24.048851224429058 0 0,0 -0.39435462799089777,0.12217207180725956 l -0.8772056180462687 -2.919932206810738" fill="#ff2303" stroke="none" /><path d="M 105.69591212413111 120.21278271476187 l 2.8277416100885073 10.034657398603898 a31.42547225408911,31.42547225408911 0 0,0 -0.5204935111610897,0.14186282099879152 l -2.655066697992723 -10.081720713746831" fill="#ff880c" stroke="none" /><path d="M 104.64783097203109 120.47920084513623 l 2.8208304669049897 12.42909951533418 a33.74517945284019,33.74517945284019 0 0,0 -0.5660152600581915,0.1233603915052636 l -2.6070527902276623 -12.475691364973162" fill="#ffa70f" stroke="none" /><path d="M 103.58742460773223 120.69131181640829 l 0.7682701081485854 4.431177823964635 a25.497285388617293,25.497285388617293 0 0,0 -0.4319027630384457,0.07106943529969706 l -0.6920898420570674 -4.4437132577600025" fill="#ff3705" stroke="none" /><path d="M 102.15924093988457 120.88869738790638 l 2.6089176796118494 25.238911930914128 a46.37339407559483,46.37339407559483 0 0,0 -0.7925443514785586,0.07505477409027538 l -2.1752737647482756 -25.27997846050959" fill="#beff1f" stroke="none" /><path d="M 101.44090949804482 120.95050786540614 l 0.7527119200981799 10.944266120668871 a31.970120152244384,31.970120152244384 0 0,0 -0.5478394428470874,0.03295666047633599 l -0.5647281251186274 -10.955574758969899" fill="#ff8f0d" stroke="none" /><path d="M 101.08105385017728 120.97215588758144 l 0.3864457831134274 7.496944952579577 a28.506898425135013,28.506898425135013 0 0,0 -0.4889262122810673,0.020996595275360193 l -0.2576938102315306 -7.5024741162807675" fill="#ff6108" stroke="none" /><path d="M 100.72087961077811 120.9876233191556 l 0.34315048898401546 9.990452076743985 a30.9963435793198,30.9963435793198 0 0,0 -0.5319366446893162,0.013700801058017194 l -0.17160053022395544 -9.994870595152047" fill="#ff820c" stroke="none" /><line stroke="#e1ed5e" stroke-width="0.3" x1="101.45913802915013" x2="101.54496967792366" y1="184.9874750549273" y2="189.98673829345242" /><path d="M 101.47630435890484 185.9873277026323 a86.0,86.0 0 0,1 -42.54439059252881,-10.42667462771756" fill="none" id="id31" stroke="none" /><text fill="#e1ed5e" style="font-size:6.75px; font-family:Arial;" text-anchor="middle"><textPath startOffset="22.145653131862474" xlink:href="#id31">July</textPath></text><path d="M 100.36049292484886 120.99690560180557 l 0.07392617673208249 4.305829178191878 a25.306463745507997,25.306463745507997 0 0,0 -0.4344191015809342,0.0037289655105539276 l -5.273897041580491e-16 -4.3064637455079975" fill="#ff3405" stroke="none" /><path d="M 99.27912038922189 120.98762331915562 l -0.5113652885180239 14.887842426731003 a35.89662198558696,35.89662198558696 0 0,0 -0.615668500983714,-0.02643945449076016 l 0.7668595501025766 -14.876870403814415" fill="#ffc212" stroke="none" /><path d="M 98.91894614982273 120.97215588758144 l -0.3707664100977919 7.192769304854518 a28.202318932379637,28.202318932379637 0 0,0 -0.4832744643228023,-0.029072591697298585 l 0.4941852265530405 -7.185344735332528" fill="#ff5d08" stroke="none" /><path d="M 98.19965949673042 120.92268563240118 l -0.05452841878329058 0.6337028812953792 a21.63604456621928,21.63604456621928 0 0,0 -0.36977075435416035,-0.03501767488654298 l 0.06539873652246621 -0.6326734509036526" fill="#ff0000" stroke="none" /><path d="M 97.84075906011543 120.88869738790638 l -0.8852331734697071 8.563827934520946 a29.609459138847953,29.609459138847953 0 0,0 -0.5051431515460636,-0.05660234375852251 l 1.0321122266165699 -8.547369830255452" fill="#ff700a" stroke="none" /><path d="M 97.48249496171623 120.84855314841334 l -3.6509706328969656 30.235274259923376 a51.4549075870386,51.4549075870386 0 0,0 -0.8760128873774261,-0.11341740666000463 l 4.169461342165186 -30.168145257062974" fill="#86ff25" stroke="none" /><path d="M 92.93061703081489 119.77432235084164 l -13.05865562698055 36.52738392616907 a59.79147152756422,59.79147152756422 0 0,0 -0.9635277430234098,-0.3538207334880821 l 13.683772521658078 -36.29783234367227" fill="#31ff2f" stroke="none" /><path d="M 92.25597844496254 119.51999308798841 l -1.140969322163774 2.875988028178461 a24.094045593126367,24.094045593126367 0 0,0 -0.3831475732237461,-0.1558227824812442 l 1.190171356577961 -2.855977989117925" fill="#ff2303" stroke="none" /><path d="M 91.59046798132341 119.24265499422711 l -5.313721895505677 12.158835586023175 a34.26924727295109,34.26924727295109 0 0,0 -0.5370261891311562,-0.24020498370100396 l 5.5216614874924685 -12.065826851412316" fill="#ffad10" stroke="none" /><path d="M 90.93487009805054 118.94263497670748 l -3.1689646952365904 6.621917404959704 a28.34112575547948,28.34112575547948 0 0,0 -0.43704681429937237,-0.21378149756897927 l 3.2821717587980324 -6.566542157293504" fill="#ff5f08" stroke="none" /><path d="M 90.6110303473126 118.78422872680471 l -3.0258909574240103 6.053808878842601 a27.767910905720754,27.767910905720754 0 0,0 -0.4245485857956895,-0.21677753293571664 l 3.129366764933282 -6.000973394234049" fill="#ff5708" stroke="none" /><path d="M 90.28995756902619 118.62028667847754 l -4.493271295983753 8.616440170076682 a30.7176400501265,30.7176400501265 0 0,0 -0.46546174364728043,-0.2478321612552042 l 4.640521855417595 -8.538037541098905" fill="#ff7f0b" stroke="none" /><path d="M 89.97174638481275 118.45085714620012 l -2.3601775950462014 4.342460942542335 a25.942408857800388,25.942408857800388 0 0,0 -0.38945215074534173,-0.216022543028801 l 2.4343739339476453 -4.301305484080385" fill="#ff3d05" stroke="none" /><line stroke="#e1ed5e" stroke-width="0.3" x1="58.13341422392154" x2="55.67067388415222" y1="173.97424548756322" y2="178.32567169271397" /><path d="M 57.64086615596768 174.84453072859336 a86.0,86.0 0 0,1 -31.369924170532247,-30.572349798747897" fill="none" id="id32" stroke="none" /><text fill="#e1ed5e" style="font-size:6.75px; font-family:Arial;" text-anchor="middle"><textPath startOffset="22.145653131862474" xlink:href="#id32">August</textPath></text><path d="M 88.4268655584334 117.5232005979908 l -3.530606616341618 5.345788410488127 a27.406452747743042,27.406452747743042 0 0,0 -0.3903510355687601,-0.26264559754387595 l 3.6218539400073837 -5.284393138887129" fill="#ff5207" stroke="none" /><path d="M 87.83215693770417 117.11559508785305 l -7.3494510158690805 10.337923250786185 a33.68412737928016,33.68412737928016 0 0,0 -0.4684002306539252,-0.33908564499767785 l 7.52583225689696 -10.210236834415442" fill="#ffa60f" stroke="none" /><path d="M 87.2517909369889 116.68781488649013 l -7.65600273361734 10.021953339294498 a33.61165836011079,33.61165836011079 0 0,0 -0.45550208160027233,-0.3542011737320806 l 7.826914759852841 -9.889051113941624" fill="#ffa50f" stroke="none" /><path d="M 86.68645165197938 116.24036423190432 l -3.8259568373522193 4.667045249689776 a27.034836955869984,27.034836955869984 0 0,0 -0.3563779400539704,-0.2973031526136799 l 3.9055091115680822 -4.600679913164226" fill="#ff4d07" stroke="none" /><path d="M 86.40962598614128 116.0094264158162 l -3.1987135509408584 3.7680765199575146 a25.942688442662334,25.942688442662334 0 0,0 -0.3370332265370053,-0.29112127386442926 l 3.2629262572407263 -3.712611113628363" fill="#ff3d05" stroke="none" /><path d="M 86.13680546590413 115.77377054828092 l -4.770387223343079 5.427824972260058 a28.226193893753805,28.226193893753805 0 0,0 -0.3612078789960124,-0.3229943127165437 l 4.862860129162462 -5.3451351296601315" fill="#ff5d08" stroke="none" /><path d="M 85.60350026404147 115.28858382429668 l -0.7458927412070137 0.7921122430471536 a22.088024717996106,22.088024717996106 0 0,0 -0.2738152650943531,-0.26230883000850885 l 0.7593804921666812 -0.7791912827330623" fill="#ff0701" stroke="none" /><path d="M 84.3458050057657 113.99807769240083 l -2.97106345808665 2.656743264707509 a24.985662159108134,24.985662159108134 0 0,0 -0.2831576739779143,-0.32218145444958496 l 3.016232196023157 -2.6053495324466236" fill="#ff3004" stroke="none" /><path d="M 84.1078160697243 113.72728997021213 l -9.57978804606649 8.274792749598202 a33.658773007537555,33.658773007537555 0 0,0 -0.37394165373040855,-0.4405023278315065 l 9.72042426330401 -8.109123639317142" fill="#ffa50f" stroke="none" /><path d="M 83.8745106332314 113.45245675266167 l -4.751868286396256 3.9641775305638394 a27.188291824492904,27.188291824492904 0 0,0 -0.2959033607598194,-0.36095398691352754 l 4.819218466394705 -3.8820212619518166" fill="#ff4f07" stroke="none" /><path d="M 83.64595745247003 113.17365903436017 l -10.304050073296597 8.300213353614218 a34.23128828302518,34.23128828302518 0 0,0 -0.3646994433951863,-0.46078583293896647 l 10.445015947333346 -8.122107576760571" fill="#ffad10" stroke="none" /><path d="M 83.20337586046588 112.60449989151573 l -12.400491192320041 9.305559771409817 a36.503729372963384,36.503729372963384 0 0,0 -0.3718130471683465,-0.5044358072471548 l 12.558406259072218 -9.091317654893782" fill="#ffca12" stroke="none" /><path d="M 82.37810715431573 111.42229804090323 l -21.92988202727781 14.214684580763457 a47.13382833533802,47.13382833533802 0 0,0 -0.43426485280143995,-0.682736478078703 l 22.17066457170514 -13.836134428006082" fill="#b5ff1f" stroke="none" /><line stroke="#e1ed5e" stroke-width="0.3" x1="26.387840678322732" x2="22.057713659400548" y1="142.50000000000003" y2="145.00000000000006" /><path d="M 25.521815274538298 143.00000000000003 a86.0,86.0 0 0,1 -11.493303480769221,-40.785679425670985" fill="none" id="id33" stroke="none" /><text fill="#e1ed5e" style="font-size:6.75px; font-family:Arial;" text-anchor="middle"><textPath startOffset="21.40746469413373" xlink:href="#id33">September</textPath></text><path d="M 81.1358732173502 109.22738970284198 l -5.431713886903328 2.6569234487383557 a27.046714641988174,27.046714641988174 0 0,0 -0.20042999058727207,-0.41882159341843966 l 5.476523135450512 -2.5632893532548113" fill="#ff4d07" stroke="none" /><path d="M 80.9802524753101 108.90220220490708 l -1.811985356458257 0.8481006393267058 a23.000641303793742,23.000641303793742 0 0,0 -0.16430731018407232,-0.35904112550054723 l 1.8262771314973856 -0.8168705316114697" fill="#ff1402" stroke="none" /><path d="M 80.83023694016515 108.57439118712176 l -6.079831520646872 2.7194313068504252 a27.660304644093202,27.660304644093202 0 0,0 -0.19015289541408414,-0.4351070374047243 l 6.125618298077924 -2.6146621996698514" fill="#ff5507" stroke="none" /><path d="M 80.41425534168474 107.57618678355246 l -6.970056198502324 2.6961674714416275 a28.473352824826392,28.473352824826392 0 0,0 -0.17242556229730813,-0.4573792893827423 l 7.015312444614069 -2.5761199018647405" fill="#ff6008" stroke="none" /><path d="M 80.28708602549918 107.23885506374661 l -3.2206418672992148 1.1826643042104383 a24.430922455237678,24.430922455237678 0 0,0 -0.14118726642082158,-0.39492591223436113 l 3.24046930376398 -1.127203435595156" fill="#ff2803" stroke="none" /><path d="M 80.16572619554312 106.89939002012753 l -3.333171654010479 1.159450125160838 a24.529073230727075,24.529073230727075 0 0,0 -0.1349269311175223,-0.3988874969044744 l 3.3525840067003685 -1.1020609537822021" fill="#ff2a04" stroke="none" /><path d="M 80.05021161711548 106.5578916946017 l -7.995659479291209 2.628332084820121 a29.416572940150537,29.416572940150537 0 0,0 -0.1535759207215485,-0.4810743843011218 l 8.039600115790012 -2.490688666827608" fill="#ff6d0a" stroke="none" /><path d="M 79.64726062577567 105.17358676015961 l -25.344562906694183 6.442488781739363 a47.15057419320303,47.15057419320303 0 0,0 -0.19267178084265568,-0.7861666152444616 l 25.45142221405313 -6.006466341886801" fill="#b5ff20" stroke="none" /><path d="M 79.48165901384964 104.47187691870673 l -3.029561240284639 0.6602787717282811 a24.100678855513742,24.100678855513742 0 0,0 -0.08463043949963632,-0.40498728956973307 l 3.0404493906086425 -0.608175030873139" fill="#ff2303" stroke="none" /><path d="M 79.22317932658666 103.0534771498775 l -25.746143958974056 3.7837965448092996 a47.022702493183274,47.022702493183274 0 0,0 -0.11051562925864158,-0.7996360400164158 l 25.80730410478791 -3.3412721965927985" fill="#b7ff1f" stroke="none" /><path d="M 79.13060592940153 102.33845913500099 l -2.974704723652448 0.3333218689255483 a23.993321175755153,23.993321175755153 0 0,0 -0.04235119106686774,-0.40970935566852273 l 2.979988307200982 -0.2822079909740942" fill="#ff2203" stroke="none" /><path d="M 79.06263194458094 101.62068470465958 l -4.911870822860141 0.3802098665315621 a25.92656417019739,25.92656417019739 0 0,0 -0.03053907134144804,-0.4440313948998039 l 4.9176738553666555 -0.2958350474774148" fill="#ff3d05" stroke="none" /><path d="M 79.01933749520258 100.90099992219065 l -8.033122985929115 0.3449768654166687 a29.040526969343205,29.040526969343205 0 0,0 -0.01711360052486169,-0.4982438067052896 l 8.037861273450826 -0.20702679414725922" fill="#ff6809" stroke="none" /><path d="M 79.00696218219943 100.54070618675478 l -1.344478776732979 0.03462900409409016 a22.34492466294955,22.34492466294955 0 0,0 -0.006584909271396082,-0.38353795272377844 l 1.3448751176030411 -0.011544135401259325" fill="#ff0a01" stroke="none" /><line stroke="#e1ed5e" stroke-width="0.3" x1="15.003131293944662" x2="10.003315487706104" y1="100.72959589197737" y2="100.7725132973878" /><path d="M 14.003168132696942 100.73817937305945 a86.0,86.0 0 0,1 10.791469493833604,-42.45332614584628" fill="none" id="id34" stroke="none" /><text fill="#e1ed5e" style="font-size:6.75px; font-family:Arial;" text-anchor="middle"><textPath startOffset="22.145653131862435" xlink:href="#id34">October</textPath></text><path d="M 79.01933749520258 99.09900007780938 l -1.462966176310225 -0.0628260623667924 a22.46431456563823,22.46431456563823 0 0,0 0.019852474870755286,-0.38513270886133993 l 1.4616721119828995 0.08793056460484433" fill="#ff0c01" stroke="none" /><path d="M 79.13060592940154 97.66154086499901 l -7.557136244588078 -0.8467928788838721 a28.604430708409094,28.604430708409094 0 0,0 0.05886780090225328,-0.4875098389783355 l 7.541486357426156 0.9763963947856439" fill="#ff6209" stroke="none" /><path d="M 79.22317932658666 96.9465228501225 l -6.214685623011422 -0.9133447721296605 a27.28144219631459,27.28144219631459 0 0,0 0.07207303358893519,-0.46276057734672743 l 6.19809109728422 1.019893531407838" fill="#ff5007" stroke="none" /><path d="M 79.34024301695615 96.23510406497455 l -9.600282790978245 -1.749491326762139 a30.758388676885595,30.758388676885595 0 0,0 0.09912067643768088,-0.5186412635330253 l 9.568835822258405 1.914035155328479" fill="#ff7f0b" stroke="none" /><path d="M 79.48165901384962 95.52812308129327 l -4.378012276590912 -0.9541673989488934 a25.480784185742227,25.480784185742227 0 0,0 0.09681380081026333,-0.4265794697150882 l 4.360987614222987 1.0291812026029898" fill="#ff3705" stroke="none" /><path d="M 79.83685265289637 94.1308016681162 l -13.74657569542121 -4.001427840196294 a35.31711451760595,35.31711451760595 0 0,0 0.17443909926758688,-0.5806510282194991 l 13.675860276149994 4.236816472006517" fill="#ffbb11" stroke="none" /><path d="M 80.05021161711548 93.44210830539832 l -1.4984706307263647 -0.49257705972839616 a22.57735423761441,22.57735423761441 0 0,0 0.12419112175092417,-0.3671489841404292 l 1.4897940874030755 0.518227718342987" fill="#ff0e01" stroke="none" /><path d="M 80.16572619554312 93.10060997987247 l -8.49120250813812 -2.953681007991616 a29.990258702127623,29.990258702127623 0 0,0 0.17331489030611238,-0.4847925942126287 l 8.439247447788063 3.099008558585166" fill="#ff750a" stroke="none" /><path d="M 80.28708602549916 92.7611449362534 l -4.374149391962857 -1.606248245010983 a25.659744234162417,25.659744234162417 0 0,0 0.15538724417880498,-0.41218312629944676 l 4.345931463969616 1.6810996515045746" fill="#ff3905" stroke="none" /><path d="M 80.41425534168474 92.42381321644754 l -11.980082036671249 -4.634153093258503 a33.845144627334115,33.845144627334115 0 0,0 0.21425801774860548,-0.5400701684228016 l 11.89876534395651 4.839124278894888" fill="#ffa80f" stroke="none" /><path d="M 81.1358732173502 90.77261029715801 l -1.255322924085167 -0.6140413472039796 a22.397455695115166,22.397455695115166 0 0,0 0.17190589775118006,-0.34392695069799906 l 1.244597113122243 0.6355001540657489" fill="#ff0b01" stroke="none" /><path d="M 81.63589988554816 89.8137432299009 l -4.219901920132277 -2.3407084602677637 a25.825607558795593,25.825607558795593 0 0,0 0.21836982049971576,-0.3858385490309281 l 4.179098734611192 2.4128037793977968" fill="#ff3c05" stroke="none" /><line stroke="#e1ed5e" stroke-width="0.3" x1="26.387840678322718" x2="22.05771365940052" y1="57.49999999999999" y2="54.99999999999999" /><path d="M 25.521815274538284 56.99999999999999 a86.0,86.0 0 0,1 29.574782752854787,-30.34633250058573" fill="none" id="id35" stroke="none" /><text fill="#e1ed5e" style="font-size:6.75px; font-family:Arial;" text-anchor="middle"><textPath startOffset="21.40746469413373" xlink:href="#id35">November</textPath></text><path d="M 81.99639281039701 89.18935116829357 l -11.186328554373997 -6.717068887576316 a34.04810181470273,34.04810181470273 0 0,0 0.30518778623864395,-0.49850131306827056 l 11.06937280367996 6.90810731676913" fill="#ffaa0f" stroke="none" /><path d="M 82.576782715395 88.27688183743585 l -4.730487461939122 -3.182883079340404 a26.701601207057074,26.701601207057074 0 0,0 0.25914573187918327,-0.37810136747575274 l 4.675151993244625 3.2636191818861913" fill="#ff4806" stroke="none" /><path d="M 82.78059297857968 87.97951657250589 l -21.312750382115794 -14.877954998325515 a46.99205405085516,46.99205405085516 0 0,0 0.46742526572795695,-0.6574921735161134 l 21.054210017857866 15.24162439855115" fill="#b7ff1f" stroke="none" /><path d="M 83.2033758604659 87.39550010848427 l -3.499957694085993 -2.6264335028836454 a25.375826414000148,25.375826414000148 0 0,0 0.2644499730335374,-0.34617350365907656 l 3.4543557436981485 2.686127919783606" fill="#ff3505" stroke="none" /><path d="M 85.08716467003674 85.21462403516908 l -9.29864805347903 -9.219172906650035 a34.09419736773428,34.09419736773428 0 0,0 0.41563761918206016,-0.4120851822447574 l 9.139018514166992 9.377438099123466" fill="#ffab0f" stroke="none" /><path d="M 86.68645165197937 83.75963576809568 l -6.49417506846955 -7.921837645437168 a31.243525833451926,31.243525833451926 0 0,0 0.4176950385298864,-0.33646555595929384 l 6.357229259584418 8.032151495189861" fill="#ff860c" stroke="none" /><path d="M 87.25179093698888 83.31218511350988 l -6.147491412133944 -8.047263595608753 a31.126702426726606,31.126702426726606 0 0,0 0.4273948385624309,-0.32072505472186125 l 6.008443584660761 8.151607677594615" fill="#ff840c" stroke="none" /><path d="M 87.83215693770416 82.88440491214696 l -1.3290649721689947 -1.869496326722109 a23.293780768921483,23.293780768921483 0 0,0 0.3278931400197777,-0.22889487719837096 l 1.2967767409754516 1.8920360197256065" fill="#ff1802" stroke="none" /><path d="M 88.12776184653039 82.6780497279521 l -7.273916004328554 -10.612860833928789 a33.866338605771524,33.866338605771524 0 0,0 0.4823594088357378,-0.32455293728113405 l 7.090660307395827 10.736163445267032" fill="#ffa80f" stroke="none" /><path d="M 88.72937992617638 82.28071324371311 l -7.016600288376954 -11.031261079659227 a34.07369116257746,34.07369116257746 0 0,0 0.4962360486694108,-0.30968799582918777 l 6.826200110917844 11.150084872329952" fill="#ffab0f" stroke="none" /><line stroke="#e1ed5e" stroke-width="0.3" x1="56.869717070023135" x2="54.33264160355391" y1="26.7553504044142" y2="22.446841604673864" /><path d="M 56.362301976729285 25.89364864446614 a86.0,86.0 0 0,1 42.16139366436587,-11.88097634709845" fill="none" id="id36" stroke="none" /><text fill="#e1ed5e" style="font-size:6.75px; font-family:Arial;" text-anchor="middle"><textPath startOffset="22.145653131862474" xlink:href="#id36">December</textPath></text><path d="M 89.34428304082924 81.90426304109057 l -4.53395262124551 -7.69964276759483 a29.935391716107045,29.935391716107045 0 0,0 0.4450502272056197,-0.2569498684800673 l 4.401109926179491 7.776339533351071" fill="#ff740a" stroke="none" /><path d="M 90.61103034731259 81.2157712731953 l -5.632958825732179 -11.269691020988686 a33.5990539661098,33.5990539661098 0 0,0 0.5181290124483726,-0.25344286376441794 l 5.438669564021754 11.364727634850318" fill="#ffa50f" stroke="none" /><path d="M 90.93487009805054 81.0573650232925 l -4.381023830553013 -9.154654830547539 a31.148944520014915,31.148944520014915 0 0,0 0.48430866365593617,-0.22668090876898886 l 4.223226453025553 9.228511970887071" fill="#ff840c" stroke="none" /><path d="M 91.5904679813234 80.7573450057729 l -3.078334429082403 -7.043831600156694 a28.687113012610137,28.687113012610137 0 0,0 0.45293526045730603,-0.19333112949380585 l 2.9569640934546655 7.095637379309904" fill="#ff6309" stroke="none" /><path d="M 91.92203290615298 80.6158196554323 l -2.8824859700786343 -6.916916996016239 a28.49349491875977,28.49349491875977 0 0,0 0.45310835777203173,-0.18427522450289466 l 2.7633231511161616 6.965379477098424" fill="#ff6108" stroke="none" /><path d="M 92.592206182469 80.34994680014964 l -3.5093396955032996 -9.308940476959753 a30.94845907173643,30.94845907173643 0 0,0 0.49872829949827874,-0.18313993968252407 l 3.349022244350894 9.367811265651" fill="#ff820b" stroke="none" /><path d="M 93.61358852112211 79.99465700312896 l -3.989300383717797 -12.496426632980764 a34.117743561489604,34.117743561489604 0 0,0 0.5594649800325263,-0.1733236809275086 l 3.7741947708136547 12.563066901714915" fill="#ffab0f" stroke="none" /><path d="M 95.70440661134978 79.44403061299748 l -0.9035877631390531 -4.323994549072751 a25.417397390557646,25.417397390557646 0 0,0 0.4278637764865671,-0.08558473832123918 l 0.8292275011215093 4.338868684056856" fill="#ff3605" stroke="none" /><path d="M 96.41257539226777 79.30868818359171 l -2.2335788366750053 -12.882689179463496 a34.074882596578384,34.074882596578384 0 0,0 0.5772001104965836,-0.09497805853181157 l 2.012101223125349 12.919133236490975" fill="#ffab0f" stroke="none" /><path d="M 97.12497278360702 79.19773525538626 l -0.8032022887284617 -5.81157164646656 a26.866813352973885,26.866813352973885 0 0,0 0.45740388708612967,-0.0592200907281468 l 0.703320579751538 5.824503333395101" fill="#ff4a06" stroke="none" /><path d="M 97.48249496171623 79.15144685158666 l -0.6340580094499291 -5.250909892202537 a26.28905324754611,26.28905324754611 0 0,0 0.44849637902384226,-0.050254954743546985 l 0.5438257288252875 5.261020607453054" fill="#ff4206" stroke="none" /><path d="M 98.1996594967304 79.07731436759882 l -1.1231575732474322 -13.052793501023455 a34.1010267198683,34.1010267198683 0 0,0 0.5836650625294972,-0.045179367195622724 l 0.8989235159427177 13.07015063521413" fill="#ffab0f" stroke="none" /><path d="M 98.9189461498227 79.02784411241856 l -0.5458872699742862 -10.590067202544477 a31.604127322223558,31.604127322223558 0 0,0 0.5420472628646053,-0.023277841753233046 l 0.3640142465088608 10.597877612723538" fill="#ff8a0c" stroke="none" /><path d="M 99.27912038922189 79.0123766808444 l -0.3283125771042196 -9.558462461945659 a30.564099214495272,30.564099214495272 0 0,0 0.524518782110711,-0.013509743230962361 l 0.16418048092276474 9.562689922526665" fill="#ff7d0b" stroke="none" /></svg>