<?xml version="1.0" encoding="utf-8" ?>
<svg baseProfile="full" height="200mm" version="1.1" viewBox="0,0,200,200" width="200mm" xmlns="http://www.w3.org/2000/svg" xmlns:ev="http://www.w3.org/2001/xml-events" xmlns:xlink="http://www.w3.org/1999/xlink"><defs /><rect fill="#1a1a1a" height="200" width="200" x="0" y="0" /><text alignment-baseline="middle" fill="#e1ed5e" style="dominant-baseline: central; font-size:9.0px; font-family:Arial;" text-anchor="middle" x="100.0" y="100.0">2021</text><line stroke="#e1ed5e" stroke-width="0.3" x1="100.0" x2="100.0" y1="15.0" y2="10.0" /><path d="M 100.0 14.0 a86.0,86.0 0 0,1 42.46469731375804,11.215312516191453" fill="none" id="id85" stroke="none" /><text fill="#e1ed5e" style="font-size:6.75px; font-family:Arial;" text-anchor="middle"><textPath startOffset="22.20632615414155" xlink:href="#id85">January</textPath></text><path d="M 100.0 79.0 l 0.0 -6.39668645662514 a27.39668645662514,27.39668645662514 0 0,0 0.4715889214676211,0.004059114733007858 l -0.1101084421950927 6.3957387185006915" fill="#ff4a06" stroke="none" /><path d="M 101.44485096284872 79.0497635885617 l 2.5370927492340787 -36.787664790977644 a57.875047395109235,57.875047395109235 0 0,0 0.9932730891579452,0.0770971084146843 l -3.169956027754365 36.73854242037449" fill="#46ff2c" stroke="none" /><path d="M 102.52436894288641 79.15227682838746 l 2.9684079460774746 -24.51485837465514 a45.693920848333,45.693920848333 0 0,0 0.7800284581359832,0.10127008083269672 l -3.389951132721304 24.460129970658308" fill="#caff1d" stroke="none" /><path d="M 103.2404852339499 79.25152402106235 l 0.29729430994671685 -1.9035432669092847 a22.926619027135974,22.926619027135974 0 0,0 0.3893931147123884,0.06425320037649804 l -0.3300166307979805 1.898143803593162" fill="#ff0a01" stroke="none" /><path d="M 103.59715602781102 79.31037775812273 l 2.1275157851426534 -12.236749690009505 a33.420320704071166,33.420320704071166 0 0,0 0.5659251950796877,0.10341921209800056 l -2.337836101325242 12.198314996560766" fill="#ff9c0e" stroke="none" /><path d="M 103.95276090670814 79.375362276772 l 2.346970292577887 -12.245975199119632 a33.46884830815165,33.46884830815165 0 0,0 0.5648801941361103,0.11330965282674292 l -2.5574168961811226 12.20376159021568" fill="#ff9c0e" stroke="none" /><path d="M 104.307194497241 79.44645832069477 l 5.097692717942924 -24.325727527197856 a45.854124220620605,45.854124220620605 0 0,0 0.7711294093371479,0.1685390212603391 l -5.5156648514336 24.234375007841646" fill="#c8ff1d" stroke="none" /><path d="M 104.66035177308747 79.52364482259891 l 2.778636065115813 -12.208593202472747 a33.5208053401459,33.5208053401459 0 0,0 0.561515491076356,0.13289257489987363 l -2.9883752431546924 12.158954715432005" fill="#ff9d0e" stroke="none" /><path d="M 105.01212808612495 79.60689891045804 l 5.920427051617031 -24.088743400456472 a45.80562466632425,45.80562466632425 0 0,0 0.7640620556592072,0.19477643053886465 l -6.334197995961263 23.98326397374874" fill="#c9ff1d" stroke="none" /><path d="M 105.36241919743992 79.69619591428918 l 1.578431652808539 -5.976438219639641 a27.181363949465954,27.181363949465954 0 0,0 0.45134280871225285,0.12336903919443226 l -1.6810723507445027 5.948382639618915" fill="#ff4706" stroke="none" /><path d="M 105.71112130821622 79.79150937346287 l 3.902090872403351 -13.807335296032871 a35.34812953501496,35.34812953501496 0 0,0 0.5841022254204589,0.1705154567378642 l -4.139183315547237 13.738121510376303" fill="#ffb510" stroke="none" /><path d="M 106.0581310904928 79.89281104454417 l 3.619521542855113 -12.013342481932117 a33.546765869632985,33.546765869632985 0 0,0 0.551468298878388,0.17134388487164268 l -3.8257752144442194 11.949258462177953" fill="#ff9d0e" stroke="none" /><path d="M 106.40334571778207 80.00007090966166 l 5.666150833252476 -17.69740692986707 a39.582343159743736,39.582343159743736 0 0,0 0.6471094448873986,0.21334180987353762 l -5.9699431003822925 17.597251395734297" fill="#ffeb16" stroke="none" /><path d="M 106.74666289553966 80.11325718540242 l 11.087878476017293 -32.68308955496294 a55.512684508114624,55.512684508114624 0 0,0 0.9022608678751162,0.3147811004450812 l -11.648821347955682 32.48738760134565" fill="#5eff29" stroke="none" /><path d="M 107.08798089147638 80.2323363322302 l 4.2087444337306135 -11.73776364572783 a33.46950781351968,33.46950781351968 0 0,0 0.5406404094304155,0.19912242544532527 l -4.410167168933605 11.66357795247618" fill="#ff9c0e" stroke="none" /><path d="M 107.4271985657038 80.35727306442388 l 6.5963425547450605 -17.44536037782634 a39.65079981694549,39.65079981694549 0 0,0 0.6363327171208929,0.2468872082209997 l -6.89565843686562 17.329230465714794" fill="#ffeb16" stroke="none" /><path d="M 107.76421540070413 80.48803036053334 l 6.70194905484208 -16.842426405567213 a39.12687089270088,39.12687089270088 0 0,0 0.6236378485866473,0.25439753705232776 l -6.990870773017115 16.724567982331305" fill="#ffe515" stroke="none" /><path d="M 108.43124777332544 80.76684994638697 l 4.986951396177569 -11.376107913257034 a33.42117206554626,33.42117206554626 0 0,0 0.5249000080483662,0.2355073331433178 l -5.182033522692716 11.288580249597183" fill="#ff9c0e" stroke="none" /><path d="M 108.76106565485865 80.91482961587045 l 5.192428865813748 -11.311225542131472 a33.44608937745119,33.44608937745119 0 0,0 0.5211566281487188,0.2446900248632727 l -5.386363705262065 11.220170534628197" fill="#ff9c0e" stroke="none" /><path d="M 109.08828744355905 81.06846463323043 l 5.3861872651511735 -11.219802997595485 a33.445681683223675,33.445681683223675 0 0,0 0.516861176220428,0.25362153446792085 l -5.578519708382034 11.125426302992732" fill="#ff9c0e" stroke="none" /><path d="M 109.41281617654863 81.2277094730956 l 11.050796276698582 -22.03896839892224 a45.65433484070881,45.65433484070881 0 0,0 0.6994668300528258,0.35829407779213057 l -11.428523594340165 21.84548179581761" fill="#cbff1d" stroke="none" /><path d="M 109.73455568895987 81.39251694778311 l 11.491406326701991 -21.96568136260696 a45.78998945318342,45.78998945318342 0 0,0 0.6952554741220917,0.3713813960541642 l -11.867806847352394 21.764621240051042" fill="#c9ff1d" stroke="none" /><path d="M 110.05341064243156 81.56283822128135 l 5.5686260488989205 -10.21242073962515 a32.631987510120595,32.631987510120595 0 0,0 0.49084089429282457,0.27315242625179637 l -5.74359103226378 10.115052915813175" fill="#ff910d" stroke="none" /><line stroke="#e1ed5e" stroke-width="0.3" x1="143.23703022742887" x2="145.7803849466894" y1="26.81831364943548" y2="22.513508569990506" /><path d="M 143.74570117128098 25.957352633546492 a86.0,86.0 0 0,1 28.547481713284135,27.462654790039103" fill="none" id="id86" stroke="none" /><text fill="#e1ed5e" style="font-size:6.75px; font-family:Arial;" text-anchor="middle"><textPath startOffset="19.985693538727396" xlink:href="#id86">February</textPath></text><path d="M 110.68208982089419 81.91981866633111 l 6.322845627419359 -10.701856790693778 a33.430129347544806,33.430129347544806 0 0,0 0.49291600844051864,0.2969763798105503 l -6.506123702077516 10.591433801424614" fill="#ff9c0e" stroke="none" /><path d="M 110.99172775467656 82.1063720568725 l 19.403524581762625 -31.587340716628376 a58.07097058000283,58.07097058000283 0 0,0 0.847230151850792,0.5305354433639224 l -19.94437388598568 31.24866093194151" fill="#45ff2d" stroke="none" /><path d="M 111.2981086023043 82.29822771554956 l 21.182733301226005 -33.188911034548816 a60.372731753969845,60.372731753969845 0 0,0 0.8711870697587293,0.5666443038159849 l -21.750887396769013 32.819367806573304" fill="#30ff31" stroke="none" /><path d="M 111.60114157652 82.49532879139004 l 3.4439968233769878 -5.196560324608616 a27.234208315955378,27.234208315955378 0 0,0 0.38853528395307385,0.2623407581092509 l -3.5329368017366036 5.136507654200695" fill="#ff4706" stroke="none" /><path d="M 111.90073688211348 82.69761687909136 l 10.5849479431242 -15.389368443400437 a39.67816329421548,39.67816329421548 0 0,0 0.559403266187247,0.3918977370718068 l -10.848282348895097 15.204885863564696" fill="#ffec16" stroke="none" /><path d="M 112.19680574252982 82.90503203632743 l 6.244906032751838 -8.752821912526025 a31.752243616580497,31.752243616580497 0 0,0 0.4421948743783086,0.3212733819018274 l -6.394646223483935 8.644029295807522" fill="#ff850c" stroke="none" /><path d="M 112.77801427241765 83.33499621200491 l 7.601671255428953 -9.914050615851147 a33.492950231601554,33.492950231601554 0 0,0 0.4544952594129458,0.35474075905615277 l -7.771199070001329 9.78173146757177" fill="#ff9d0e" stroke="none" /><path d="M 113.06298171725822 83.55741782278167 l 7.759965866116522 -9.767592055760042 a33.474891775524156,33.474891775524156 0 0,0 0.4480799195962527,0.36231613311046545 l -7.926949184277266 9.632569825385447" fill="#ff9c0e" stroke="none" /><path d="M 113.34407831869373 83.78471172551755 l 26.193023936303096 -31.828907457218147 a62.22079393762211,62.22079393762211 0 0,0 0.8211440040110386,0.687684488521893 l -26.737025477273253 31.373321811302432" fill="#32ff47" stroke="none" /><path d="M 113.6212207817346 84.01681056812373 l 8.939534097236766 -10.489681446207111 a34.78218729805108,34.78218729805108 0 0,0 0.4523443356060714,0.39226855036248354 l -9.118772231489602 10.334247902424956" fill="#ffad10" stroke="none" /><path d="M 113.89432698308785 84.25364557470407 l 9.714130330525384 -11.008963536280323 a35.682016422194295,35.682016422194295 0 0,0 0.4570509694280814,0.4103448730985776 l -9.902192287549454 10.84011965441245" fill="#ffb911" stroke="none" /><path d="M 114.42810811169701 84.74124197986012 l 8.940947136332149 -9.455692164764939 a34.013479550430894,34.013479550430894 0 0,0 0.4219562555206476,0.4059215834953599 l -9.102386635465214 9.300387494507277" fill="#ffa30f" stroke="none" /><path d="M 114.68862486808459 84.99185889309783 l 8.7409148782933 -8.931052775531409 a33.4966914256893,33.4966914256893 0 0,0 0.40860253124303847,0.406847862120424 l -8.893353209703662 8.779269062760866" fill="#ff9d0e" stroke="none" /><path d="M 114.94478906791727 85.2469230424477 l 8.92909995457442 -8.814557247536417 a33.546921752719975,33.546921752719975 0 0,0 0.4021409070435786,0.41444155389210835 l -9.079505125321107 8.659551498094194" fill="#ff9d0e" stroke="none" /><path d="M 115.19652480421416 85.50635884689758 l 14.402136223414896 -13.735995364044511 a40.90223847809215,40.90223847809215 0 0,0 0.48154142649245235,0.513674819277148 l -14.636444971877811 13.486051127889308" fill="#fffb17" stroke="none" /><path d="M 115.4437574822437 85.77008943001954 l 13.648884268534804 -12.57611062233843 a39.55938038192952,39.55938038192952 0 0,0 0.4571112010935447,0.504753605270557 l -13.863339110244386 12.339304229798323" fill="#ffea16" stroke="none" /><path d="M 115.68641384162765 86.03803664274999 l 9.38376375476135 -8.352180875745294 a33.56240214235869,33.56240214235869 0 0,0 0.38038689465493464,0.4348479771141266 l -9.526142512994133 8.18941734242822" fill="#ff9d0e" stroke="none" /><path d="M 116.38621287248628 86.86637796730983 l 18.79085555158025 -15.0609537667923 a45.0817063499622,45.0817063499622 0 0,0 0.4801114126204869,0.6096927379507082 l -19.0473210447947 14.735268634888554" fill="#d1ff1c" stroke="none" /><path d="M 116.60985879189232 87.15038557335679 l 9.88798801660906 -7.649483060669638 a33.50147583735921,33.50147583735921 0 0,0 0.34893232398242724,0.4591540369736038 l -10.018196280815602 7.478144247815001" fill="#ff9d0e" stroke="none" /><path d="M 116.82858285166822 87.43820079747576 l 19.826600568621306 -14.799687971764353 a45.74115709034727,45.74115709034727 0 0,0 0.4655521627187924,0.6350126267503892 l -20.078415343853724 14.45621290134247" fill="#caff1d" stroke="none" /><path d="M 117.04232023915458 87.72973835380427 l 10.158456243097714 -7.313963960016684 a33.51751980431243,33.51751980431243 0 0,0 0.33308016183968725,0.4711182676589205 l -10.282849024741283 7.13801919202597" fill="#ff9d0e" stroke="none" /><path d="M 117.2510076193507 88.02491185347247 l 20.448563875480275 -14.194727651971876 a45.892449812809744,45.892449812809744 0 0,0 0.44488476154350387,0.6528134916688663 l -20.689873102692513 13.840636137032604" fill="#c8ff1d" stroke="none" /><line stroke="#e1ed5e" stroke-width="0.3" x1="172.23445277983987" x2="176.4835382374775" y1="55.19839476539836" y2="52.563006222186495" /><path d="M 173.08426987136738 54.67131705675599 a86.0,86.0 0 0,1 12.851231095245387,41.99856678651699" fill="none" id="id87" stroke="none" /><text fill="#e1ed5e" style="font-size:6.75px; font-family:Arial;" text-anchor="middle"><textPath startOffset="22.20632615414155" xlink:href="#id87">March</textPath></text><path d="M 117.84615892207809 88.93136811851018 l 10.859971997809474 -6.735624893395458 a33.77918755233424,33.77918755233424 0 0,0 0.30221788989572573,0.49676674814490573 l -10.974305685991423 6.547690372043471" fill="#ffa00e" stroke="none" /><path d="M 118.03404312379186 89.2402003453031 l 32.13839366070785 -19.174994461269115 a58.424013142370605,58.424013142370605 0 0,0 0.5078446846551526,0.8680711863488676 l -32.46369801983333 18.618943862566354" fill="#41ff2d" stroke="none" /><path d="M 118.21658344932153 89.55222093294921 l 10.955949007424348 -6.283578642388468 a33.629971465065275,33.629971465065275 0 0,0 0.28368059374237314,0.5046361223364003 l -11.062487242459154 6.094059010117274" fill="#ff9e0e" stroke="none" /><path d="M 118.3937258080291 89.86733742301442 l 11.032501681945044 -6.077540683703022 a33.59573714096105,33.59573714096105 0 0,0 0.27467218894706763,0.5089258506430344 l -11.135481970110575 5.886733849727529" fill="#ff9e0e" stroke="none" /><path d="M 118.56541770881063 90.18545643968196 l 8.685708163298914 -4.591669439274276 a30.824711422609965,30.824711422609965 0 0,0 0.24394172685711363,0.4712177711957586 l -8.763459323316143 4.441478945818172" fill="#ff790b" stroke="none" /><path d="M 118.89224826269711 90.83032412892265 l 11.638704167776767 -5.649044163187056 a33.93719964531204,33.93719964531204 0 0,0 0.2505564156648614,0.5277357112427529 l -11.734218777283385 5.447866036303762" fill="#ffa20f" stroke="none" /><path d="M 119.04729006885535 91.15688171328212 l 10.988912544895411 -5.10184142340559 a33.11548533195996,33.11548533195996 0 0,0 0.2355893705347184,0.5190899494187959 l -11.075104232393478 4.9119294651447305" fill="#ff980e" stroke="none" /><path d="M 119.196687751892 91.48605970444005 l 22.860757238902192 -10.138995057838558 a46.00826747935358,46.00826747935358 0 0,0 0.31484835527742755,0.7267134132852365 l -23.0318963040223 9.74398249996672" fill="#c6ff1e" stroke="none" /><path d="M 119.34039704204932 91.81776055985345 l 11.4863888198862 -4.859485739749453 a33.47203791593158,33.47203791593158 0 0,0 0.2199245394343562,0.532564716498284 l -11.568335046206752 4.661046452797866" fill="#ff9c0e" stroke="none" /><path d="M 119.47837535516314 92.15188598940014 l 11.609386933357376 -4.677586841040409 a33.5162967216299,33.5162967216299 0 0,0 0.21100336241325193,0.5369805421047876 l -11.688183845652329 4.477057294039837" fill="#ff9d0e" stroke="none" /><path d="M 119.85752413597 93.16781622104841 l 5.720270870719098 -1.9681175551660588 a27.049378938812666,27.049378938812666 0 0,0 0.1476930948055784,0.44158355473674554 l -5.753301259296447 1.869360897506999" fill="#ff4506" stroke="none" /><path d="M 120.08093135843002 93.85539295169968 l 17.833042254172444 -5.456770663260331 a39.649228995068896,39.649228995068896 0 0,0 0.19408128213146614,0.6543456003737284 l -17.92432943341561 5.148995676140073" fill="#ffeb16" stroke="none" /><path d="M 120.18372546131832 94.20196356495316 l 23.994262254749618 -6.892662459748938 a45.96464333680204,45.96464333680204 0 0,0 0.2119040743429098,0.7623317007898829 l -24.109353099658893 6.478619455540103" fill="#c7ff1e" stroke="none" /><path d="M 120.37134235888165 94.90015583598534 l 12.121763619520822 -3.034611286949678 a33.49584006421421,33.49584006421421 0 0,0 0.13520707453118536,0.5605206131685437 l -12.172203494312827 2.8255054421217283" fill="#ff9d0e" stroke="none" /><path d="M 120.45610955862082 95.25157060432595 l 12.700691178893589 -2.948182065920775 a34.03837926720351,34.03837926720351 0 0,0 0.12757197646106605,0.5718801561241572 l -12.749557542356692 2.729123740246654" fill="#ffa40f" stroke="none" /><path d="M 120.53481517161879 95.60439243477599 l 2.8480610847630587 -0.6096455578381392 a23.912579552344194,23.912579552344194 0 0,0 0.0826927792180897,0.40323935921019544 l -2.8581331598961452 0.560530542464532" fill="#ff1802" stroke="none" /><path d="M 120.6074358757038 95.95851677861258 l 12.311893056985204 -2.414580324958683 a33.546430121445624,33.546430121445624 0 0,0 0.10625316737792605,0.5676086688104692 l -12.35163194827299 2.202293578685651" fill="#ff9d0e" stroke="none" /><path d="M 120.73433829027371 96.67025291283417 l 15.25025623701263 -2.449053139426472 a36.445652351852196,36.445652351852196 0 0,0 0.0941410404689572,0.6202718333334083 l -15.290153170920886 2.186182193700981" fill="#ffc312" stroke="none" /><path d="M 120.83666639777658 97.38593545837742 l 31.06920377466026 -3.89778779260257 a52.31274776935945,52.31274776935945 0 0,0 0.10440041868695933,0.8944390310486239 l -31.131694546350808 3.362405023229093" fill="#80ff25" stroke="none" /><path d="M 120.98425023603335 99.18683210126433 l 3.433259695231994 -0.13304342736971658 a24.43583653401479,24.43583653401479 0 0,0 0.012669754972107818,0.42044748630392315 l -3.435041144659747 0.07392579364079438" fill="#ff2003" stroke="none" /><line stroke="#e1ed5e" stroke-width="0.3" x1="184.98032266829074" x2="189.97916517819016" y1="98.17113171792111" y2="98.06355123074" /><path d="M 185.9800911702706 98.14961562048488 a86.0,86.0 0 0,1 -9.607161424134198,41.387399972396054" fill="none" id="id88" stroke="none" /><text fill="#e1ed5e" style="font-size:6.75px; font-family:Arial;" text-anchor="middle"><textPath startOffset="21.466115282336823" xlink:href="#id88">April</textPath></text><path d="M 120.99824983174949 100.27111621757518 l 12.733759490476269 0.16441030734619128 a33.73482082757571,33.73482082757571 0 0,0 -0.012494634368066132,0.580576562361029 l -12.729042793423195 -0.38357668549733503" fill="#ffa00e" stroke="none" /><path d="M 120.9904718944345 100.63252640178507 l 12.761751403419751 0.3845623260056839 a33.7675442848368,33.7675442848368 0 0,0 -0.022508266611440876,0.5808383480069148 l -12.753241003957106 -0.604177921026605" fill="#ffa00e" stroke="none" /><path d="M 120.95626037817324 101.35467743843564 l 12.620489506311865 0.81582744667657 a33.64683082047351,33.64683082047351 0 0,0 -0.04233643144360651,0.5776469705966246 l -12.60457651620392 -1.0329475537699648" fill="#ff9f0e" stroke="none" /><path d="M 120.89721153311464 102.0752229133903 l 7.32965292056836 0.7278800649482875 a28.365705758781395,28.365705758781395 0 0,0 -0.05243292446925012,0.48546376104951366 l -7.316037694598058 -0.8539401478825926" fill="#ff5708" stroke="none" /><path d="M 120.76222939487914 103.15116336523771 l 12.775585560851015 1.9389997299010113 a33.921892522969735,33.921892522969735 0 0,0 -0.09258777943626442,0.5765441909315557 l -12.740316027053463 -2.1586231505257722" fill="#ffa20f" stroke="none" /><path d="M 120.70491114924044 103.5080841355445 l 27.76656360389482 4.704557318565654 a49.162295963447406,49.162295963447406 0 0,0 -0.14854869436449905,0.8331399668711866 l -27.68146846719113 -5.181816036170059" fill="#a3ff22" stroke="none" /><path d="M 120.64145759157962 103.86396538481128 l 12.0368551506476 2.25323194535752 a33.24593549375675,33.24593549375675 0 0,0 -0.11013914098035257,0.5615971070092757 l -11.996286076691584 -2.4600927794347403" fill="#ff990e" stroke="none" /><path d="M 120.5718875245553 104.21870165774334 l 15.846664317943333 3.2496944652265145 a37.17644225789164,37.17644225789164 0 0,0 -0.1339519638213622,0.6257789800684499 l -15.788378315397528 -3.521987264711133" fill="#ffcc13" stroke="none" /><path d="M 120.49622156327973 104.57218783832717 l 32.78045710175872 7.312489613401877 a54.5861708467392,54.5861708467392 0 0,0 -0.21246870062050563,0.9153096014506142 l -32.64972783520766 -7.875667872201056" fill="#68ff28" stroke="none" /><path d="M 120.41448212921028 104.9243191809786 l 25.238193994800557 6.08788026045621 a46.96206313421257,46.96206313421257 0 0,0 -0.19632084764499508,0.7842041974109629 l -25.129661832860503 -6.521412297264569" fill="#bbff1f" stroke="none" /><path d="M 120.32669344350535 105.2749913415812 l 5.917122850177649 1.5355557896570882 a27.113123130384654,27.113123130384654 0 0,0 -0.12112067796398282,0.450735100702145 l -5.889814095871889 -1.6371818235347813" fill="#ff4606" stroke="none" /><path d="M 120.23288151984713 105.62410040840565 l 24.646287993550708 6.850887661959646 a46.58073833214813,46.58073833214813 0 0,0 -0.22138574594429986,0.7706728247134301 l -24.524709610720308 -7.274117962177658" fill="#c0ff1e" stroke="none" /><path d="M 120.13307415673323 105.97154293290107 l 10.449684068827985 3.099414255690786 a31.899645217469082,31.899645217469082 0 0,0 -0.1606727824076673,0.52508794937323 l -10.394784513914184 -3.2788291776160734" fill="#ff870c" stroke="none" /><path d="M 119.79798401119884 107.00284435728193 l 6.897117085149897 2.439613924020439 a28.315869065568425,28.315869065568425 0 0,0 -0.16649156467382387,0.45811328070061025 l -6.854101259470847 -2.5579750017271805" fill="#ff5608" stroke="none" /><path d="M 119.54520255179757 107.68017299344265 l 47.111001025431314 18.511992229842093 a71.6175885827834,71.6175885827834 0 0,0 -0.46073090432017405,1.1434963202562178 l -46.785367506853746 -19.320187917941126" fill="#3effb2" stroke="none" /><path d="M 118.64920377521936 109.65438752849418 l 11.139904591559795 5.766946259672416 a33.544127848160855,33.544127848160855 0 0,0 -0.2698664887490615,0.5104856948715842 l -11.03898559458584 -5.957846969630134" fill="#ff9d0e" stroke="none" /><line stroke="#e1ed5e" stroke-width="0.3" x1="174.80103733775053" x2="179.2010983576182" y1="140.37084112569926" y2="142.7455964860345" /><path d="M 175.68104954172406 140.8457921977663 a86.0,86.0 0 0,1 -30.038265399797805,32.042727171017184" fill="none" id="id89" stroke="none" /><text fill="#e1ed5e" style="font-size:6.75px; font-family:Arial;" text-anchor="middle"><textPath startOffset="22.206326154141568" xlink:href="#id89">May</textPath></text><path d="M 117.94076556474637 110.91462005526583 l 43.92021296450511 26.719731414132134 a72.409426700663,72.409426700663 0 0,0 -0.6569788670403359,1.0592591202943331 l -43.45376945779681 -27.47178686579174" fill="#3fffba" stroke="none" /><path d="M 116.498646956653 112.99209946851258 l 13.946393869798765 10.982290660532884 a38.751411496666634,38.751411496666634 0 0,0 -0.41719047723752045,0.5205092663221645 l -13.755285480506389 -11.220727760433299" fill="#ffe015" stroke="none" /><path d="M 116.0416608686014 113.55231037782055 l 9.573962688956426 8.088271842248664 a33.53319205005821,33.53319205005821 0 0,0 -0.3763022802189443,0.4377245656731212 l -9.433317899166703 -8.251873507083314" fill="#ff9d0e" stroke="none" /><path d="M 115.80600337817218 113.82643327865902 l 18.815568806170177 16.45907573686817 a45.99853602936953,45.99853602936953 0 0,0 -0.5264448125614777,0.5914663277159607 l -18.529465143960362 -16.780516234324995" fill="#c7ff1e" stroke="none" /><path d="M 115.32070863581623 114.36230785411682 l 36.9266332574024 34.61665432492095 a71.61510644439825,71.61510644439825 0 0,0 -0.850833327627403,0.8920953424305149 l -36.32529337839603 -35.247156783933974" fill="#3effb2" stroke="none" /><path d="M 113.48314897796784 116.09983520530334 l 3.9734239829322835 4.74454976582566 a27.18860651750762,27.18860651750762 0 0,0 -0.361388202013375,0.29739788707347775 l -3.8911656523742173 -4.812242771756316" fill="#ff4706" stroke="none" /><path d="M 112.92097659922987 116.55440617244103 l 7.875490368204708 10.090109316518577 a33.799752128810155,33.799752128810155 0 0,0 -0.46172275570459576,0.35402932020594213 l -7.700638884006618 -10.22417797855189" fill="#ffa10e" stroke="none" /><path d="M 112.63410532772338 116.77436683061366 l 3.9333895521066182 5.2223816030690795 a27.53795250645765,27.53795250645765 0 0,0 -0.38109251820363627,0.28192313433167315 l -3.8429120634844174 -5.289314686140521" fill="#ff4c07" stroke="none" /><path d="M 112.34349029814194 116.9893568818739 l 7.756686095295092 10.676162504334304 a34.196462594191594,34.196462594191594 0 0,0 -0.47919449646230594,0.34189254982285905 l -7.571764270983902 -10.808099316001382" fill="#ffa60f" stroke="none" /><path d="M 111.45004920935366 117.60387380957326 l 6.113124079148641 9.398620294459944 a32.21179510366209,32.21179510366209 0 0,0 -0.467405721753401,0.2983204461593409 l -5.95043655534831 -9.502455169443094" fill="#ff8c0c" stroke="none" /><path d="M 111.1453310114006 117.79835938074945 l 6.843348557773141 10.928376813069955 a33.89421727952576,33.89421727952576 0 0,0 -0.4971487582908425,0.30538937224338797 l -6.65422059954999 -11.04455465214172" fill="#ffa20f" stroke="none" /><line stroke="#e1ed5e" stroke-width="0.3" x1="143.8653032363475" x2="146.44561519142675" y1="172.8068346515853" y2="177.08958963109032" /><path d="M 144.38136562736335 173.6633856474863 a86.0,86.0 0 0,1 -40.68145358897372,12.25698825130547" fill="none" id="id90" stroke="none" /><text fill="#e1ed5e" style="font-size:6.75px; font-family:Arial;" text-anchor="middle"><textPath startOffset="21.466115282336833" xlink:href="#id90">June</textPath></text><path d="M 110.8373102113329 117.98757091392108 l 6.642927303209371 11.025810243721411 a33.87233369231378,33.87233369231378 0 0,0 -0.5020075489664705,0.29659490852786613 l -6.452151883214518 -11.138523724543028" fill="#ffa20e" stroke="none" /><path d="M 110.5260780823613 118.17145234162733 l 6.616001232387931 11.42138127285445 a34.19922052573064,34.19922052573064 0 0,0 -0.5119317686951078,0.2906882188635372 l -6.418420696771624 -11.533572657512616" fill="#ffa60f" stroke="none" /><path d="M 110.21172684928248 118.3499491758327 l 1.311522151409665 2.3567380107740634 a23.697091842163616,23.697091842163616 0 0,0 -0.35813887503601294,0.19528586997112832 l -1.2707604645050035 -2.378964532504962" fill="#ff1502" stroke="none" /><path d="M 109.89434966115114 118.52300852407294 l 6.010589463209414 11.25230092674711 a33.75701618096167,33.75701618096167 0 0,0 -0.514889494586777,0.269365848387445 l -5.816009066096142 -11.35409619407927" fill="#ffa00e" stroke="none" /><path d="M 108.92500713936063 119.00905698771935 l 5.521448109361582 11.75993700920541 a33.99163221788747,33.99163221788747 0 0,0 -0.5317780504609204,0.2441132209002988 l -5.318202063133242 -11.853237300439785" fill="#ffa30f" stroke="none" /><path d="M 108.2653958097858 119.30500536409082 l 7.551619071981886 17.637878457021994 a40.186498040888054,40.186498040888054 0 0,0 -0.6382544780707395,0.26679042359754 l -7.2468931344136855 -17.765253923639506" fill="#fff216" stroke="none" /><path d="M 107.59598834532513 119.57807347666477 l 4.398038467616445 11.335604579381089 a33.15889277618318,33.15889277618318 0 0,0 -0.5339051949640256,0.20187726028388647 l -4.202263051892144 -11.409630089771607" fill="#ff980e" stroke="none" /><path d="M 106.57524785965236 119.94407469862006 l 4.8950393374901955 14.847657804454187 a36.63375682277762,36.63375682277762 0 0,0 -0.6005819296767364,0.19228736813025377 l -4.638736062722519 -14.929718019244147" fill="#ffc512" stroke="none" /><path d="M 106.2309692047433 120.05430185196036 l 3.7875469040187855 12.190175620484355 a33.765026173431586,33.765026173431586 0 0,0 -0.5565200260621322,0.16767491864913467 l -3.577151903516407 -12.253565908239217" fill="#ffa00e" stroke="none" /><path d="M 105.88484417918355 120.15858648285463 l 5.3836480573331835 18.4417346751329 a40.21148729883313,40.21148729883313 0 0,0 -0.6661106245438839,0.1882495160952905 l -5.065406264684694 -18.53167298456671" fill="#fff216" stroke="none" /><path d="M 105.53697534728816 120.25689768951611 l 3.3621369375654937 12.30030110135197 a33.751524299896964,33.751524299896964 0 0,0 -0.5617371577378082,0.14835988890813268 l -3.149909337016188 -12.356352339563687" fill="#ffa00e" stroke="none" /><path d="M 105.18746579009965 120.34920634021253 l 3.1290358085854275 12.274470404477675 a33.667023675741994,33.667023675741994 0 0,0 -0.5627951463734175,0.13832135424070388 l -2.917287377468799 -12.32651301703241" fill="#ff9f0e" stroke="none" /><path d="M 104.48393922423573 120.51570834832081 l 1.5447934657342675 7.068011098388123 a28.23485782436068,28.23485782436068 0 0,0 -0.47570160874220685,0.09968789727203656 l -1.4229003955626827 -7.0935549763867005" fill="#ff5507" stroke="none" /><path d="M 104.13013068566511 120.58985236759428 l 2.523101998160637 12.578366546806661 a33.82892624809057,33.82892624809057 0 0,0 -0.5719221134446417,0.10961023422776794 l -2.3062122701442904 -12.619933979382896" fill="#ffa10e" stroke="none" /><path d="M 103.7750983002368 120.6578951692458 l 2.3104975678209865 12.643383760854455 a33.852764369393256,33.852764369393256 0 0,0 -0.5741284213654166,0.09981958527363163 l -2.09252017498352 -12.681281924649092" fill="#ffa10e" stroke="none" /><path d="M 103.41894727170886 120.7198165907248 l 2.123865019007579 12.87124081188246 a34.04529197283191,34.04529197283191 0 0,0 -0.5790360621748759,0.09043352443364557 l -1.901993093224186 -12.905892643663211" fill="#ffa40f" stroke="none" /><path d="M 103.06178313531738 120.77559828337769 l 1.8666096715907023 12.665799952162894 a33.80260598840273,33.80260598840273 0 0,0 -0.5763688927535165,0.0798794766503257 l -1.6483121876503553 -12.69605399430582" fill="#ffa10e" stroke="none" /><path d="M 102.70371172650421 120.8252237178851 l 1.6064283440684022 12.373445483861236 a33.47728997686246,33.47728997686246 0 0,0 -0.572099110631087,0.06927323503107939 l -1.3932018103859347 -12.399264247617667" fill="#ff9c0e" stroke="none" /><path d="M 101.62511606390274 120.93702456842531 l 0.9995575538712484 12.87770241634263 a33.916436614925104,33.916436614925104 0 0,0 -0.5824538126201424,0.04016942508198423 l -0.7777409804721758 -12.893000185940899" fill="#ffa20f" stroke="none" /><path d="M 100.90346689309514 120.98055641714683 l 0.5571373775505436 12.937997253840114 a33.94998745164791,33.94998745164791 0 0,0 -0.5840685489133963,0.020116501775830548 l -0.3343484769624949 -12.945670554042039" fill="#ffa30f" stroke="none" /><line stroke="#e1ed5e" stroke-width="0.3" x1="102.19456741930631" x2="102.32365962044197" y1="184.97166512339345" y2="189.96999836594603" /><path d="M 102.22038585953345 185.97133177190398 a86.0,86.0 0 0,1 -42.740103519485714,-10.115201625700543" fill="none" id="id91" stroke="none" /><text fill="#e1ed5e" style="font-size:6.75px; font-family:Arial;" text-anchor="middle"><textPath startOffset="22.20632615414155" xlink:href="#id91">July</textPath></text><path d="M 100.54218724476979 120.99299961872073 l 0.2791465751761095 10.808302856197576 a31.81190702150741,31.81190702150741 0 0,0 -0.5475288351885358,0.00942620543974239 l -0.09305805009490575 -10.811506538916477" fill="#ff860c" stroke="none" /><path d="M 100.18074693466247 120.99922214144158 l 0.10833943220600688 12.586901171077328 a33.58736741829039,33.58736741829039 0 0,0 -0.578172733736916,0.0 l 0.10833943220599822 -12.586901171077328" fill="#ff9e0e" stroke="none" /><path d="M 99.81925306533755 120.99922214144158 l -0.058193527955695455 6.7609380099198155 a27.76118845031511,27.76118845031511 0 0,0 -0.4778101220204752,-0.0082259345661722 l 0.17456333986883854 -6.758934598074483" fill="#ff4f07" stroke="none" /><path d="M 99.09653310690486 120.98055641714683 l -0.5425152781229677 12.598438843540942 a33.61011435798415,33.61011435798415 0 0,0 -0.577792966915209,-0.02986529660307033 l 0.7592963134516656 -12.58723374017567" fill="#ff9e0e" stroke="none" /><path d="M 98.73552117531835 120.96189622390904 l -0.7620450352612268 12.632800672729816 a33.65576412045868,33.65576412045868 0 0,0 -0.5779772312513218,-0.039860693821200915 l 0.9793850272914787 -12.61781163439233" fill="#ff9f0e" stroke="none" /><path d="M 98.37488393609728 120.93702456842531 l -0.9653758900830215 12.437326279265433 a33.47473589243717,33.47473589243717 0 0,0 -0.5741007782744005,-0.04953583083960707 l 1.1793209860989637 -12.418866196147162" fill="#ff9c0e" stroke="none" /><path d="M 98.01472825383883 120.90594882070398 l -1.1818477599913846 12.4454744455108 a33.501463846352515,33.501463846352515 0 0,0 -0.5736206840545031,-0.05945812929571701 l 1.395901040651481 -12.423286947759323" fill="#ff9d0e" stroke="none" /><path d="M 97.65516085044442 120.86867818915974 l -1.4157435964726297 12.599882392253019 a33.67917056552048,33.67917056552048 0 0,0 -0.5755490823971491,-0.06969097856635689 l 1.6324201019211682 -12.573645884961314" fill="#ff9f0e" stroke="none" /><path d="M 96.93821686468263 120.77559828337769 l -1.3577112012957528 9.212691185601864 a30.312199449506558,30.312199449506558 0 0,0 -0.51554431135759,-0.0805174187297907 l 1.51609137626186 -9.187955459524968" fill="#ff720a" stroke="none" /><path d="M 96.58105272829116 120.7198165907248 l -4.115989141803936 24.944093409480022 a46.28139953871843,46.28139953871843 0 0,0 -0.7849127641632173,-0.13646714511784258 l 4.544750877439203 -24.869547685841173" fill="#c3ff1e" stroke="none" /><path d="M 96.22490169976321 120.6578951692458 l -3.29245154349629 18.01678086928269 a39.31514755763715,39.31514755763715 0 0,0 -0.664673839088272,-0.1273863231983339 l 3.6020929971562574 -17.95743734773589" fill="#ffe715" stroke="none" /><path d="M 95.86986931433489 120.58985236759428 l -2.5181613472214655 12.553736025116304 a33.803805089071886,33.803805089071886 0 0,0 -0.5695273750804944,-0.11934999885906625 l 2.7338801837313467 -12.508530045530698" fill="#ffa10e" stroke="none" /><path d="M 95.51606077576429 120.51570834832081 l -2.746794491912347 12.56761786249523 a33.86428772682379,33.86428772682379 0 0,0 -0.5684037656603792,-0.12936684650051702 l 2.9627184069655885 -12.518474282417026" fill="#ffa10e" stroke="none" /><path d="M 94.11515582081647 120.15858648285463 l -7.101994827950521 24.327946939776027 a46.34338834569667,46.34338834569667 0 0,0 -0.7638384036038034,-0.23013824514385695 l 7.5197082059945695 -24.20209332552644" fill="#c3ff1e" stroke="none" /><path d="M 93.76903079525671 120.05430185196036 l -3.770622043164503 12.135703152843908 a33.70798495460014,33.70798495460014 0 0,0 -0.5526161771364074,-0.1769302488753816 l 3.978959565391851 -12.069000057308818" fill="#ff9f0e" stroke="none" /><path d="M 93.42475214034765 119.94407469862007 l -3.912486698421356 11.867374224703159 a33.49568418112722,33.49568418112722 0 0,0 -0.546027929103601,-0.1852423196476145 l 4.116184360462183 -11.798268918157422" fill="#ff9d0e" stroke="none" /><path d="M 93.08242187328487 119.8279376855182 l -4.226494315700728 12.114451674390462 a33.83055702500061,33.83055702500061 0 0,0 -0.5481846099337283,-0.19655949764801212 l 4.434398486264183 -12.039904635702493" fill="#ffa10e" stroke="none" /><path d="M 92.06813273071674 119.44442032107085 l -2.2870997517134124 5.606665792398075 a27.055206568064733,27.055206568064733 0 0,0 -0.4296992171257763,-0.1796143076082135 l 2.383270428336651 -5.5664664417698875" fill="#ff4506" stroke="none" /><path d="M 91.40352486487194 119.15986991738527 l -0.5191570257246195 1.1570999651861589 a22.268228822726027,22.268228822726027 0 0,0 -0.3483726593257095,-0.15992080129650085 l 0.5389976808177485 -1.1479920935555836" fill="#ff0000" stroke="none" /><path d="M 91.07499286063937 119.00905698771935 l -0.864511204805389 1.8412918333917225 a23.03414238413861,23.03414238413861 0 0,0 -0.3574540574509274,-0.1715996700237457 l 0.8960779302565585 -1.8261378868684144" fill="#ff0b01" stroke="none" /><path d="M 90.7491055286396 118.85261126421891 l -5.194249761061365 10.585481421036196 a32.79121060347022,32.79121060347022 0 0,0 -0.5045881699458586,-0.25301098348943174 l 5.375691838689984 -10.494502596637462" fill="#ff930d" stroke="none" /><path d="M 90.42595943632237 118.69057910512821 l -4.32291658766221 8.439259674029934 a30.48202044237371,30.48202044237371 0 0,0 -0.4649365931936016,-0.24323285129845637 l 4.467544083382307 -8.36359740378676" fill="#ff740a" stroke="none" /><line stroke="#e1ed5e" stroke-width="0.3" x1="58.666819895761336" x2="56.23545636021788" y1="174.27360380694188" y2="178.64263932499728" /><path d="M 58.180547188652646 175.14741091055294 a86.0,86.0 0 0,1 -31.652253787137756,-30.449443065178592" fill="none" id="id92" stroke="none" /><text fill="#e1ed5e" style="font-size:6.75px; font-family:Arial;" text-anchor="middle"><textPath startOffset="22.20632615414155" xlink:href="#id92">August</textPath></text><path d="M 89.7882731507175 118.34994917583269 l -0.8192180259217504 1.4720927578126854 a22.684688476128358,22.684688476128358 0 0,0 -0.33956951402282043,-0.19281643228208953 l 0.8444363068657781 -1.4577731597359629" fill="#ff0601" stroke="none" /><path d="M 89.4739219176387 118.17145234162733 l -3.8798415163464535 6.697874997288742 a28.740458621507592,28.740458621507592 0 0,0 -0.42595019639964277,-0.2516588840121539 l 3.9945595837744787 -6.630097540982838" fill="#ff5c08" stroke="none" /><path d="M 89.1626897886671 117.98757091392108 l -7.590902068309801 12.599241563793822 a35.709271980404054,35.709271980404054 0 0,0 -0.523771358344707,-0.3217431476121281 l 7.806652626586818 -12.466709949353316" fill="#ffb911" stroke="none" /><path d="M 88.8546689885994 117.79835938074946 l -8.363259706462237 13.355574787136836 a36.75802940765564,36.75802940765564 0 0,0 -0.5333733562574772,-0.34042411165044334 l 8.591914864766638 -13.209636246662589" fill="#ffc712" stroke="none" /><path d="M 87.95078237400918 117.19931262002967 l -6.883079310104193 9.825055577681573 a32.99618680638628,32.99618680638628 0 0,0 -0.4623750505863139,-0.32989232177432687 l 7.051181688539394 -9.705118994063026" fill="#ff960d" stroke="none" /><path d="M 87.07902340077011 116.55440617244103 l -5.515623243588706 7.0666382503909375 a29.964344701488464,29.964344701488464 0 0,0 -0.40386586920907813,-0.3208554720202292 l 5.636446605515142 -6.970648864365578" fill="#ff6d0a" stroke="none" /><path d="M 86.51685102203217 116.09983520530335 l -4.927800537262874 5.8841429924254305 a28.675047680005484,28.675047680005484 0 0,0 -0.37569026559849944,-0.32017139476929646 l 5.02835627943843 -5.798447207433183" fill="#ff5b08" stroke="none" /><path d="M 85.97065885151581 115.62618273729859 l -8.174642358739352 9.105092958946559 a33.236318706390165,33.236318706390165 0 0,0 -0.4224184969904163,-0.3858692815548485 l 8.330160405196622 -8.963030910805134" fill="#ff990e" stroke="none" /><path d="M 85.70375840098266 115.38237550388516 l -8.409563448008134 9.048466471768352 a33.35295522847834,33.35295522847834 0 0,0 -0.4171726740804144,-0.3944628019484634 l 8.564071956479365 -8.902369033073958" fill="#ff9b0e" stroke="none" /><path d="M 85.44109423537348 115.13401014063109 l -43.67671729387956 45.40203042189327 a84.0,84.0 0 0,0 -1.033400190496823,-1.0113995883097213 l 44.45176743675218 -44.64348073066098" fill="#4dd2ff" stroke="none" /><path d="M 85.18274418774928 114.88116024355367 l -12.268706909556986 12.321619861038151 a38.388027065556955,38.388027065556955 0 0,0 -0.46423806471048173,-0.47027070856866937 l 12.478985599323002 -12.108608658488818" fill="#ffdc14" stroke="none" /><path d="M 84.9287848128048 114.62390073753433 l -29.9862126999778 29.096220349347675 a62.78232868936464,62.78232868936464 0 0,0 -0.7458942712937809,-0.7820671614055296 l 30.482613522650535 -28.575746071359642" fill="#33ff4e" stroke="none" /><path d="M 84.19399662182784 113.82643327865904 l -15.292449025365713 13.377197325448419 a41.317687011010705,41.317687011010705 0 0,0 -0.4636582110168959,-0.5393392485425816 l 15.520449745953387 -13.111980977744308" fill="#feff18" stroke="none" /><path d="M 83.95833913139862 113.55231037782056 l -10.22422558700975 8.637626718516426 a34.384445606094175,34.384445606094175 0 0,0 -0.37807171580429816,-0.45541173693901393 l 10.371393302707583 -8.460353724463651" fill="#ffa80f" stroke="none" /><path d="M 83.72743513129214 113.27417163493432 l -20.882398407453735 17.034594290828064 a47.94906243082936,47.94906243082936 0 0,0 -0.5162106737797012,-0.644052186559777 l 21.172526993288297 -16.672614270690026" fill="#b0ff20" stroke="none" /><path d="M 83.28015986056508 112.70617746262583 l -9.831917543242009 7.471727484265247 a33.348818331169774,33.348818331169774 0 0,0 -0.3433955349118038,-0.460034435910656 l 9.959074344848897 -7.301380168845283" fill="#ff9b0e" stroke="none" /><path d="M 83.06392112726016 112.41649034213515 l -42.33452435358439 31.037066886907407 a73.49296594008186,73.49296594008186 0 0,0 -0.7391999773712619,-1.0266841163116247 l 42.86250412333126 -30.303749165144644" fill="#40ffc6" stroke="none" /><path d="M 82.85270091963577 112.12312394758628 l -9.447543075201018 6.679403862033157 a32.57024226669097,32.57024226669097 0 0,0 -0.3197142949697715,-0.46057228732284594 l 9.561118277332923 -6.515790312523298" fill="#ff900d" stroke="none" /><path d="M 82.6465618267979 111.8261652097733 l -11.948985049306268 8.143093597465018 a35.45988302323433,35.45988302323433 0 0,0 -0.33939649381756487,-0.5073517083362673 l 12.087384648534563 -7.93620497492293" fill="#ffb610" stroke="none" /><path d="M 82.24976979558568 111.22182372390057 l -11.312440013098842 7.151806272496919 a34.383558271599,34.383558271599 0 0,0 -0.3119658887989024,-0.5029883448453061 l 11.433870541565701 -6.956021596286349" fill="#ffa80f" stroke="none" /><path d="M 82.05923443525364 110.91462005526583 l -10.248598096973314 6.234937629829374 a32.99617481537958,32.99617481537958 0 0,0 -0.2910248859339363,-0.4877744485454415 l 10.354403858605481 -6.057601087397821" fill="#ff960d" stroke="none" /><line stroke="#e1ed5e" stroke-width="0.3" x1="26.63291911575756" x2="22.317208475507996" y1="142.92168965132927" y2="145.44649492493687" /><path d="M 25.769776987707644 143.4266507060508 a86.0,86.0 0 0,1 -11.730757126820373,-40.83630448921669" fill="none" id="id93" stroke="none" /><text fill="#e1ed5e" style="font-size:6.75px; font-family:Arial;" text-anchor="middle"><textPath startOffset="21.46611528233685" xlink:href="#id93">September</textPath></text><path d="M 81.87401531095188 110.60418214915194 l -26.10625502767114 15.272852112299567 a51.24560403123036,51.24560403123036 0 0,0 -0.43887712338011764,-0.7652192576760658 l 26.365284147203635 -14.821213008765195" fill="#8cff24" stroke="none" /><path d="M 81.69416730710424 110.29060199501025 l -24.20536723098383 13.607018292797214 a48.7678005900234,48.7678005900234 0 0,0 -0.40505975628877766,-0.7353011152236892 l 24.43600339672412 -13.188346659175703" fill="#a7ff21" stroke="none" /><path d="M 81.51974371655577 109.97397251340807 l -12.96525294565306 6.997472033176028 a35.73303766369468,35.73303766369468 0 0,0 -0.287476527942233,-0.5437972525085119 l 13.083781981820179 -6.773259765581391" fill="#ffba11" stroke="none" /><path d="M 81.35079622478065 109.6543875284942 l -11.58559533568971 5.9976730624655135 a34.04599944222671,34.04599944222671 0 0,0 -0.2649448817764148,-0.5227613870723209 l 11.68711888725239 -5.797357463690507" fill="#ffa40f" stroke="none" /><path d="M 81.18737489456691 109.33194174019688 l -11.689836617029608 5.7987055847424305 a34.049033166919656,34.049033166919656 0 0,0 -0.25592995241979477,-0.5272915059326947 l 11.78791982606412 -5.596625122844451" fill="#ffa40f" stroke="none" /><path d="M 81.02952815118164 109.00673069616217 l -11.788418104755761 5.596861693764932 a34.049584753227464,34.049584753227464 0 0,0 -0.24681957550023076,-0.5316274075272426 l 11.883012297095819 -5.393114218958862" fill="#ffa40f" stroke="none" /><path d="M 80.87730276802145 108.67885076344099 l -11.891398139947224 5.39692014015032 a34.058793846366534,34.058793846366534 0 0,0 -0.23769618483259233,-0.5359421468373408 l 11.982535409511097 -5.191429656820284" fill="#ffa40f" stroke="none" /><path d="M 80.73074385275274 108.34839909993369 l -11.973007026798623 5.1873014880392585 a34.0484096345717,34.0484096345717 0 0,0 -0.22836595661865897,-0.5397896632334624 l 12.060523964609589 -4.980437299139638" fill="#ffa40f" stroke="none" /><path d="M 80.58989483394504 108.01547362559985 l -12.057354176206465 4.9791283234732715 a34.04498020665793,34.04498020665793 0 0,0 -0.21901846778945067,-0.5435858754795992 l 12.141275258253303 -4.770843080150867" fill="#ffa40f" stroke="none" /><path d="M 80.45479744820244 107.68017299344265 l -12.142022999484599 4.771136900693041 a34.04578360410626,34.04578360410626 0 0,0 -0.20963402741583126,-0.5472882949259213 l 12.22235130649394 -4.561425038933963" fill="#ffa40f" stroke="none" /><path d="M 80.32549172779594 107.34259656027581 l -12.223081526275957 4.561697559557375 a34.04656301954121,34.04656301954121 0 0,0 -0.200186882336669,-0.5508283233456758 l 12.29979266961785 -4.350621439205582" fill="#ffa40f" stroke="none" /><path d="M 80.20201598880116 107.00284435728193 l -12.301262274791107 4.351141260632307 a34.04812185041111,34.04812185041111 0 0,0 -0.19068434851288368,-0.5542179741434418 l 12.374337454247218 -4.138750583399569" fill="#ffa40f" stroke="none" /><path d="M 80.0844068197444 106.66101706037122 l -12.376361636436453 4.1394275962293525 a34.05025624960219,34.05025624960219 0 0,0 -0.18112749895061667,-0.5574531216500432 l 12.445781386403318 -3.9257755746015057" fill="#ffa40f" stroke="none" /><path d="M 79.97269907076064 106.31721596034903 l -12.44649039330647 3.925999216805736 a34.050999692017065,34.050999692017065 0 0,0 -0.17150876841987647,-0.560500578627087 l 12.512225934232479 -3.711171665626601" fill="#ffa40f" stroke="none" /><path d="M 79.86692584326677 105.97154293290107 l -12.507524073603147 3.7097770766833533 a34.04609537028024,34.04609537028024 0 0,0 -0.16181195253485195,-0.5632886345076883 l 12.569528663024103 -3.493930966671069" fill="#ffa40f" stroke="none" /><path d="M 79.76711848015287 105.62410040840567 l -12.569713510732823 3.493982348481074 a34.04628722638731,34.04628722638731 0 0,0 -0.15209274752989765,-0.565993693449602 l 12.627994334604496 -3.277097721855933" fill="#ffa40f" stroke="none" /><path d="M 79.67330655649465 105.27499134158121 l -24.381771834672467 6.327326954468322 a46.189399837764476,46.189399837764476 0 0,0 -0.19309079548844668,-0.771301744668887 l 24.48707394445597 -5.906697370402044" fill="#c4ff1e" stroke="none" /><path d="M 79.58551787078972 104.9243191809786 l -12.68621672077341 3.0601305454018197 a34.05007638450182,34.05007638450182 0 0,0 -0.1325349511281213,-0.570957100698011 l 12.737012237832086 -2.8413047873552344" fill="#ffa40f" stroke="none" /><path d="M 79.29508885075956 103.50808413554451 l -12.867088811044741 2.180102575824106 a34.05047208772264,34.05047208772264 0 0,0 -0.0929387296780047,-0.57872955842189 l 12.902709295084037 -1.958293787709002" fill="#ffa40f" stroke="none" /><path d="M 79.23777060512086 103.15116336523772 l -12.899472814673183 1.9578025746360213 a34.04719854289586,34.04719854289586 0 0,0 -0.08295510588921591,-0.580187817378933 l 12.931261971578998 -1.7354692852766878" fill="#ffa40f" stroke="none" /><path d="M 79.04373962182676 101.35467743843564 l -13.026353357759719 0.8420637404003137 a34.05354178543566,34.05354178543566 0 0,0 -0.03277839736607505,-0.5852803042531787 l 13.038918106013325 -0.6177117198116975" fill="#ffa40f" stroke="none" /><path d="M 79.0235259727143 100.99374915477108 l -18.44455266893726 0.8738007446363377 a39.46523898839459,39.46523898839459 0 0,0 -0.026306151064531214,-0.6788448702208782 l 18.456860952852992 -0.5561786274014627" fill="#ffe915" stroke="none" /><line stroke="#e1ed5e" stroke-width="0.3" x1="15.007084014347285" x2="10.007500721073583" y1="101.09737516637583" y2="101.16192664675087" /><path d="M 14.007167355692545 101.11028546245083 a86.0,86.0 0 0,1 10.666146001902534,-42.60595125391555" fill="none" id="id94" stroke="none" /><text fill="#e1ed5e" style="font-size:6.75px; font-family:Arial;" text-anchor="middle"><textPath startOffset="22.20632615414155" xlink:href="#id94">October</textPath></text><path d="M 79.00175016825051 100.2711162175752 l -18.233851629735607 0.2354240436841931 a39.235371390118615,39.235371390118615 0 0,0 -0.0029065987437601644,-0.6753911846041221 l 18.235202525768873 0.07847661912360439" fill="#ffe615" stroke="none" /><path d="M 79.00019446554 99.90962569577889 l -6.003098017230847 -0.025834801450335204 a27.003153608016948,27.003153608016948 0 0,0 0.006001120270849939,-0.4647933784438892 l 6.001763889842281 0.12916443795469637" fill="#ff4406" stroke="none" /><path d="M 79.00486145842228 99.54816195383935 l -2.224703941957245 -0.04787803045115396 a23.225219075767594,23.225219075767594 0 0,0 0.012042061030073254,-0.3996173802223482 l 2.2235501864715266 0.08616555809849658" fill="#ff0e01" stroke="none" /><path d="M 79.01574976396665 99.18683210126434 l -13.352454391206804 -0.5174255528852164 a34.36247609809037,34.36247609809037 0 0,0 0.027991332295284152,-0.5908527841882263 l 13.34156945067802 0.7471894436964517" fill="#ffa80f" stroke="none" /><path d="M 79.03285615573316 98.82574320788736 l -7.019387583210003 -0.3931180902500134 a28.030387178257296,28.030387178257296 0 0,0 0.031126288710211177,-0.4815099095254723 l 7.011580703495379 0.5138870640284974" fill="#ff5207" stroke="none" /><path d="M 79.12142395522702 97.74499172005258 l -11.929327288804819 -1.2884370922983657 a32.998704917791486,32.998704917791486 0 0,0 0.06585543211635123,-0.5642091251382482 l 11.905381503684879 1.4935899557614756" fill="#ff960d" stroke="none" /><path d="M 79.21141760316559 97.0276538004421 l -12.58737122082543 -1.799739121044743 a33.715383405728794,33.715383405728794 0 0,0 0.08708861191405401,-0.5738051407261143 l 12.554526715472074 2.0161433741629495" fill="#ff9f0e" stroke="none" /><path d="M 79.26566170972629 96.67025291283419 l -16.89628721867817 -2.7133908187801574 a38.112773343660805,38.112773343660805 0 0,0 0.10959806831073053,-0.6468540031608758 l 16.847077288847217 3.0038306102568613" fill="#ffd814" stroke="none" /><path d="M 79.32604984820605 96.31383870115002 l -5.918104684031413 -1.0551969163438486 a27.01143939364077,27.01143939364077 0 0,0 0.08555458749622201,-0.4570360274215066 l 5.89906437262533 1.1569110212279279" fill="#ff4406" stroke="none" /><path d="M 79.3925641242962 95.95851677861259 l -13.18078097570405 -2.584984637554816 a34.43187003755904,34.43187003755904 0 0,0 0.11906984024242569,-0.5806268278151236 l 13.134331839546629 2.811487121533342" fill="#ffa90f" stroke="none" /><path d="M 79.54389044137918 95.25157060432595 l -12.390978230589326 -2.876289115614927 a33.72043161954591,33.72043161954591 0 0,0 0.13611364582788504,-0.5642789364727561 l 12.339631784500625 3.0891532837470796" fill="#ffa00e" stroke="none" /><path d="M 80.14247586403 93.16781622104843 l -11.611505945478095 -3.9950570890251593 a33.279558276519694,33.279558276519694 0 0,0 0.1910356296307073,-0.5400834501005635 l 11.541017235037577 4.194338165552334" fill="#ff9a0e" stroke="none" /><path d="M 80.2630227832202 92.82701384747504 l -23.78629680918164 -8.6446255552777 a46.308446552197644,46.308446552197644 0 0,0 0.2787226265626384,-0.7468380670163194 l 23.63396959411737 9.052786759323363" fill="#c3ff1e" stroke="none" /><path d="M 80.38941819471856 92.48833698450439 l -5.057238764395472 -1.9371313795906546 a26.4155463161069,26.4155463161069 0 0,0 0.16630026697086978,-0.42321604020362946 l 5.023144947542911 2.0238964246900477" fill="#ff3c05" stroke="none" /><path d="M 80.52162464483688 92.15188598940014 l -2.339445948292473 -0.9425959911470992 a23.522200338495864,23.522200338495864 0 0,0 0.15455016778240577,-0.374255490094438 l 2.3228740936238674 0.9827260516948485" fill="#ff1202" stroke="none" /><path d="M 80.65960295795068 91.81776055985345 l -11.04606745666662 -4.673201310498015 a32.99393249712828,32.99393249712828 0 0,0 0.22578736279337203,-0.5211483634642595 l 10.963989384030567 4.862648818548873" fill="#ff960d" stroke="none" /><path d="M 80.803312248108 91.48605970444005 l -11.200600325804455 -4.967588350700223 a33.252770367570896,33.252770367570896 0 0,0 0.23656604035546713,-0.5212419119063285 l 11.113431968485637 5.159652271448622" fill="#ff990e" stroke="none" /><path d="M 80.95270993114464 91.15688171328213 l -16.319527184303144 -7.576695096909035 a38.99258947763592,38.99258947763592 0 0,0 0.28788007139998983,-0.6063488489398661 l 16.186688919061403 7.856486361489434" fill="#ffe315" stroke="none" /><path d="M 81.26839172434947 90.50648371742162 l -12.217546215048168 -6.192072363401243 a34.69708712356154,34.69708712356154 0 0,0 0.2745870750836953,-0.5304148297510918 l 12.109149706804358 6.40145991541267" fill="#ffac10" stroke="none" /><path d="M 81.43458229118936 90.18545643968196 l -11.721357049299868 -6.1964546745317675 a34.25844114557584,34.25844114557584 0 0,0 0.28009032752838237,-0.5189648385615687 l 11.612958622553014 6.3973004964258084" fill="#ffa70f" stroke="none" /><line stroke="#e1ed5e" stroke-width="0.3" x1="26.266209847984243" x2="21.928928074336255" y1="57.711370442889674" y2="55.22380399835377" /><path d="M 25.398753493254645 57.213857153982495 a86.0,86.0 0 0,1 29.58750427330803,-30.492523968695096" fill="none" id="id95" stroke="none" /><text fill="#e1ed5e" style="font-size:6.75px; font-family:Arial;" text-anchor="middle"><textPath startOffset="21.46611528233685" xlink:href="#id95">November</textPath></text><path d="M 81.78341655067845 89.55222093294921 l -10.568819468981062 -6.061547771493434 a33.183690178021195,33.183690178021195 0 0,0 0.2884457908272319,-0.49304735760059815 l 10.462914003683505 6.242574541447923" fill="#ff980e" stroke="none" /><path d="M 82.15384107792192 88.93136811851018 l -10.56813593594652 -6.554620905220252 a33.4357771116965,33.4357771116965 0 0,0 0.3075652112405065,-0.48649430223724094 l 10.453743128460053 6.735562855171708" fill="#ff9c0e" stroke="none" /><path d="M 82.34701348167596 88.62581576622439 l -10.146599686154735 -6.537663984329067 a33.07039914679994,33.07039914679994 0 0,0 0.3124418314657939,-0.4758703447243484 l 10.032561219331022 6.711352393031083" fill="#ff970d" stroke="none" /><path d="M 82.54541684631803 88.32363383020206 l -10.466465921542474 -7.001615995502123 a33.59243961412089,33.59243961412089 0 0,0 0.3256475639969159,-0.47784761736663733 l 10.344393891876816 7.180741636139175" fill="#ff9e0e" stroke="none" /><path d="M 82.95767976084542 87.72973835380427 l -4.045607541592911 -2.9127878338489803 a25.985105148902285,25.985105148902285 0 0,0 0.2644756422897575,-0.3607444788595275 l 3.99486928678952 2.9819947563800087" fill="#ff3605" stroke="none" /><path d="M 83.39014120810768 87.1503855733568 l -9.718675459409114 -7.518500545714707 a33.28741238590263,33.28741238590263 0 0,0 0.35450447369965854,-0.45018468110561305 l 9.587816905115485 7.684677620773367" fill="#ff9a0e" stroke="none" /><path d="M 83.84228863543731 86.58626213691792 l -36.6581720756385 -30.43272030721034 a68.64422362914537,68.64422362914537 0 0,0 0.762569943718856,-0.9026422864212412 l 36.12889151843252 31.059221543260694" fill="#3aff91" stroke="none" /><path d="M 84.07557802195018 86.31012108654704 l -10.05048170960886 -8.64018033534106 a34.25386354322379,34.25386354322379 0 0,0 0.3882237251038828,-0.4438068290503966 l 9.900266120927133 8.8119027205944" fill="#ffa70f" stroke="none" /><path d="M 84.31358615837235 86.03803664274999 l -9.984307506636167 -8.886705206338352 a34.36637294898779,34.36637294898779 0 0,0 0.39710566404917197,-0.43849399253981935 l 9.829858201970952 9.057251986147726" fill="#ffa80f" stroke="none" /><path d="M 84.5562425177563 85.77008943001954 l -24.868688491547257 -22.91406179061596 a54.81576400192344,54.81576400192344 0 0,0 0.6453451491633815,-0.6884092097382122 l 24.470576020413418 23.338740417232223" fill="#66ff29" stroke="none" /><path d="M 84.80347519578584 85.50635884689758 l -8.687277404032985 -8.285465454351307 a33.004904268250996,33.004904268250996 0 0,0 0.3956435179702979,-0.40774542331546926 l 8.543369622359569 8.4337750732169" fill="#ff960d" stroke="none" /><path d="M 85.05521093208273 85.24692304244772 l -10.93987119216072 -10.799534263761197 a36.37240130933421,36.37240130933421 0 0,0 0.4436812893999508,-0.441775980941818 l 10.752354102593454 10.986246095353124" fill="#ffc212" stroke="none" /><path d="M 85.31137513191541 84.99185889309783 l -8.735450693591886 -8.925469730435664 a33.48887940245634,33.48887940245634 0 0,0 0.4154482969991672,-0.39966093255394025 l 8.580519152980292 9.074513749751917" fill="#ff9c0e" stroke="none" /><path d="M 85.57189188830299 84.74124197986013 l -35.047555903306765 -37.06530132611974 a72.01144711916598,72.01144711916598 0 0,0 0.908003022556132,-0.8438898517216564 l 34.40434499695578 37.66309576391605" fill="#3effb6" stroke="none" /><path d="M 85.83668400450813 84.49514656593479 l -8.168324620117673 -8.942021492502372 a33.1112045425711,33.1112045425711 0 0,0 0.4241214385435232,-0.38078041513686095 l 8.013192193978178 9.081300916408512" fill="#ff970e" stroke="none" /><path d="M 86.10567301691215 84.25364557470407 l -8.024799146070198 -9.094455003084379 a33.12874738536076,33.12874738536076 0 0,0 0.43084125495269104,-0.3736212907147455 l 7.867064092470733 9.231241287218806" fill="#ff980e" stroke="none" /><path d="M 86.65592168130627 83.78471172551755 l -8.465158277125095 -10.286583941913019 a34.32188852418464,34.32188852418464 0 0,0 0.45941743899982734,-0.3714836186632023 l 8.286837439560767 10.430773657840357" fill="#ffa70f" stroke="none" /><path d="M 86.93701828274178 83.55741782278169 l -15.614622143865827 -19.654372433785696 a46.10200749863763,46.10200749863763 0 0,0 0.6255986323289412,-0.4882896556138139 l 15.27399095637746 19.92024047862273" fill="#c5ff1e" stroke="none" /><path d="M 87.51073957382395 83.11751280151077 l -7.3451630746408805 -9.928900298895295 a33.35048508109989,33.35048508109989 0 0,0 0.46445264589719004,-0.3374445994889242 l 7.173165112389909 10.053864133200888" fill="#ff9b0e" stroke="none" /><path d="M 88.39885842347998 82.49532879139004 l -7.360740267394063 -11.106436153963301 a34.324166815456024,34.324166815456024 0 0,0 0.4953025884554244,-0.32215858126923663 l 7.168470653154351 11.231493659392074" fill="#ffa70f" stroke="none" /><path d="M 88.70189139769569 82.29822771554957 l -9.219165349139827 -14.444503182584425 a38.13583035415769,38.13583035415769 0 0,0 0.556385144233105,-0.3484083262759007 l 8.96916105253448 14.601055850183256" fill="#ffd814" stroke="none" /><path d="M 89.00827224532344 82.1063720568725 l -4.587370746483691 -7.467861941890103 a29.764298736854247,29.764298736854247 0 0,0 0.43886456958858017,-0.26441099268793794 l 4.458144110677462 7.54571954403666" fill="#ff6a09" stroke="none" /><line stroke="#e1ed5e" stroke-width="0.3" x1="56.762969772571076" x2="54.21961505331055" y1="26.818313649435495" y2="22.513508569990535" /><path d="M 56.25429882871897 25.957352633546506 a86.0,86.0 0 0,1 42.265352541879196,-11.944610805530505" fill="none" id="id96" stroke="none" /><text fill="#e1ed5e" style="font-size:6.75px; font-family:Arial;" text-anchor="middle"><textPath startOffset="22.20632615414155" xlink:href="#id96">December</textPath></text><path d="M 89.63071344664047 81.73862282372117 l -12.062311610949934 -21.242967952698535 a45.42873408179463,45.42873408179463 0 0,0 0.6833258457328899,-0.3802700933291601 l 11.694861676144997 21.44745344358788" fill="#cdff1d" stroke="none" /><path d="M 89.94658935756843 81.56283822128135 l -11.086464427361168 -20.3317008994501 a44.15788753241203,44.15788753241203 0 0,0 0.6704743416455031,-0.3581441733101399 l 10.734845039187359 20.519523799261993" fill="#dcff1b" stroke="none" /><path d="M 90.26544431104013 81.39251694778311 l -6.73160312318986 -12.867376286219521 a35.521840554809295,35.521840554809295 0 0,0 0.5442276028597153,-0.27877451609952186 l 6.509115032741381 12.981343327631548" fill="#ffb711" stroke="none" /><path d="M 90.91171255644093 81.06846463323043 l -10.517052868524459 -21.9077532011559 a45.3014001934476,45.3014001934476 0 0,0 0.7058859619967708,-0.3314229240548707 l 10.13838869522808 22.085541107850776" fill="#cfff1d" stroke="none" /><path d="M 91.23893434514133 80.91482961587045 l -5.955371011814016 -12.973224370044965 a35.274837807971174,35.274837807971174 0 0,0 0.554012965583485,-0.2485694685669821 l 5.731175927763757 13.073814169128477" fill="#ffb410" stroke="none" /><path d="M 91.90106846888425 80.62456947434976 l -15.921236109890204 -38.089074212379884 a62.282724396811,62.282724396811 0 0,0 0.9927158334092355,-0.4049537140577659 l 15.263236406892588 38.35748881262123" fill="#32ff48" stroke="none" /><path d="M 92.23578459929587 80.48803036053334 l -4.501448289359918 -11.312427312057103 a33.17514059025015,33.17514059025015 0 0,0 0.5324086134484226,-0.20656627055390114 l 4.306056510911819 11.388236286501556" fill="#ff980e" stroke="none" /><path d="M 92.57280143429618 80.3572730644239 l -2.2987721502612746 -6.079567314006566 a27.499653231085013,27.499653231085013 0 0,0 0.444208019576643,-0.16360556243576524 l 2.193781804912062 6.118236144248653" fill="#ff4b07" stroke="none" /><path d="M 93.59665428221793 80.00007090966166 l -4.334200085203595 -13.537250398130132 a35.214163314112206,35.214163314112206 0 0,0 0.5788782982754654,-0.17986030510935253 l 4.100536414217401 13.609850838122009" fill="#ffb310" stroke="none" /><path d="M 93.94186890950719 79.89281104454417 l -3.4799949212807895 -11.550247824123494 a33.06310861473151,33.06310861473151 0 0,0 0.5463439105611836,-0.15949276922927938 l 3.2806607929961844 11.608438922271473" fill="#ff970d" stroke="none" /><path d="M 94.28887869178378 79.79150937346287 l -5.688445557075337 -20.128253720393815 a41.91662044137048,41.91662044137048 0 0,0 0.6960197154530452,-0.19024848053039115 l 5.341127952398569 20.2231887417505" fill="#f7ff19" stroke="none" /><path d="M 94.63758080256005 79.69619591428918 l -2.37895217302886 -9.007460452460256 a30.316316720903934,30.316316720903934 0 0,0 0.5056922035782369,-0.12891220239869122 l 2.223551080765624 9.047075651027809" fill="#ff720a" stroke="none" /><path d="M 95.33964822691252 79.52364482259891 l -0.4720431887464453 -2.0740331336494053 a23.127072685997703,23.127072685997703 0 0,0 0.3889282851471649,-0.0850046590435598 l 0.4362721794457595 2.0818512907888334" fill="#ff0d01" stroke="none" /><path d="M 96.40284397218896 79.31037775812273 l -0.8272596803872557 -4.758117287885287 a25.829496734036297,25.829496734036297 0 0,0 0.4386965288172279,-0.0723886861517493 l 0.7452339454311421 4.771652236976664" fill="#ff3304" stroke="none" /><path d="M 96.75951476605007 79.25152402106235 l -2.60125675026404 -16.655565232159596 a37.85747282019217,37.85747282019217 0 0,0 0.6447146001466687,-0.09501417301668219 l 2.3141731696887224 16.69787388933725" fill="#ffd513" stroke="none" /><path d="M 97.11714578562143 79.19881850522333 l -2.01443946131877 -14.535150836326457 a35.67407837576452,35.67407837576452 0 0,0 0.6089824605603764,-0.07906340129438531 l 1.763942272250536 14.56767256078498" fill="#ffb911" stroke="none" /><path d="M 97.83486435360386 79.11191278185805 l -1.2367888975474908 -11.93188722628183 a32.99581508517884,32.99581508517884 0 0,0 0.5654459409682284,-0.05369590541970374 l 1.031217829489026 11.951408676216714" fill="#ff960d" stroke="none" /><path d="M 98.19473922651362 79.07773832637324 l -1.2472466161250884 -14.455097267592334 a35.508806330535634,35.508806330535634 0 0,0 0.6094153412170428,-0.047302359385590874 l 0.9982410855457114 14.474424889166388" fill="#ffb711" stroke="none" /><path d="M 98.55514903715128 79.0497635885617 l -0.850148425852365 -12.327091834650409 a33.35637266538542,33.35637266538542 0 0,0 0.5731545319390323,-0.0345742465836931 l 0.6378318450737097 12.339899350614408" fill="#ff9b0e" stroke="none" /><path d="M 99.63851952072746 79.00311137660856 l -0.4997375812329904 -29.02766521497529 a50.03196661410975,50.03196661410975 0 0,0 0.861218060505519,-0.00741277574301616 l 7.110780997384464e-15 29.03196661410975" fill="#99ff23" stroke="none" /></svg>