<?xml version="1.0" encoding="utf-8" ?>
<svg baseProfile="full" height="200mm" version="1.1" viewBox="0,0,200,200" width="200mm" xmlns="http://www.w3.org/2000/svg" xmlns:ev="http://www.w3.org/2001/xml-events" xmlns:xlink="http://www.w3.org/1999/xlink"><defs /><rect fill="#1a1a1a" height="200" width="200" x="0" y="0" /><rect fill="#1a1a1a" height="200" width="180" x="10" y="0" /><text alignment-baseline="middle" fill="#e1ed5e" style="dominant-baseline: central; font-size:9.0px; font-family:Arial;" text-anchor="middle" x="100.0" y="100.0">2019</text><line stroke="#e1ed5e" stroke-width="0.3" x1="100.0" x2="100.0" y1="15.0" y2="10.0" /><path d="M 100.0 14.0 a86.0,86.0 0 0,1 42.46469731375804,11.215312516191453" fill="none" id="id73" stroke="none" /><text fill="#e1ed5e" style="font-size:6.75px; font-family:Arial;" text-anchor="middle"><textPath startOffset="22.20632615414155" xlink:href="#id73">January</textPath></text><path d="M 100.0 79.0 l 0.0 -3.92297088687409 a24.92297088687409,24.92297088687409 0 0,0 0.42900797433726273,0.0036926070777720827 l -0.06752749506473436 3.9223896564048766" fill="#ff2b04" stroke="none" /><path d="M 102.52436894288641 79.15227682838746 l 0.14536906565124055 -1.2005432276265358 a22.209312286652317,22.209312286652317 0 0,0 0.37912911165402785,0.0492218397710543 l -0.1660129058131145 1.1978630646913448" fill="#ff0400" stroke="none" /><path d="M 102.88285421437855 79.19881850522331 l 0.7172274852388101 -5.175141711670213 a26.224605918291914,26.224605918291914 0 0,0 0.44660631201978307,0.06581816107613724 l -0.806202777687249 5.162029066433107" fill="#ff3e05" stroke="none" /><path d="M 104.307194497241 79.44645832069477 l 1.2564843562353538 -5.995829443462748 a27.12606918444111,27.12606918444111 0 0,0 0.4561794617904835,0.099703161464591 l -1.3595065421793653 5.973312783902286" fill="#ff4a06" stroke="none" /><path d="M 104.66035177308747 79.52364482259891 l 0.8553807009862635 -3.7583169464663264 a24.854428934837912,24.854428934837912 0 0,0 0.41634282730234545,0.09853489572521582 l -0.9199472152511324 3.743036138600242" fill="#ff2a04" stroke="none" /><path d="M 105.01212808612495 79.60689891045804 l 1.2102499035753627 -4.924205487793572 a26.070749896723413,26.070749896723413 0 0,0 0.4348739025780006,0.11085904063848565 l -1.2948326948383884 4.9026434509862185" fill="#ff3c05" stroke="none" /><path d="M 107.76421540070413 80.48803036053334 l 6.192355538337984 -15.561785322168724 a37.74856499902159,37.74856499902159 0 0,0 0.6016692192887496,0.24543598156228397 l -6.459308627215122 15.45288845442286" fill="#ffd714" stroke="none" /><path d="M 108.76106565485865 80.91482961587045 l 1.7889771096508276 -3.8971210005781565 a25.2881221055378,25.2881221055378 0 0,0 0.39403926420229785,0.18500671803266788 l -1.8557945851527233 3.865749299905486" fill="#ff3104" stroke="none" /><path d="M 109.08828744355905 81.06846463323043 l 0.41310247772589703 -0.8605212165368434 a21.95454199552106,21.95454199552106 0 0,0 0.3392799855796531,0.16648321544713607 l -0.42785373031598195 0.8532828409548754" fill="#ff0100" stroke="none" /><path d="M 110.36928655335952 81.73862282372117 l 8.414870792369689 -14.819450560880577 a38.0418944187159,38.0418944187159 0 0,0 0.5666489941611106,0.32823967207990473 l -8.668716518996126 14.672406731410621" fill="#ffdb14" stroke="none" /><line stroke="#e1ed5e" stroke-width="0.3" x1="143.23703022742887" x2="145.7803849466894" y1="26.81831364943548" y2="22.513508569990506" /><path d="M 143.74570117128098 25.957352633546492 a86.0,86.0 0 0,1 28.547481713284135,27.462654790039103" fill="none" id="id74" stroke="none" /><text fill="#e1ed5e" style="font-size:6.75px; font-family:Arial;" text-anchor="middle"><textPath startOffset="19.985693538727396" xlink:href="#id74">February</textPath></text><path d="M 110.99172775467656 82.1063720568725 l 6.7089019951127105 -10.921540169731497 a33.81754288696106,33.81754288696106 0 0,0 0.4933832121140223,0.3089565221627379 l -6.895904359598996 10.804439306245815" fill="#ffa50f" stroke="none" /><path d="M 111.2981086023043 82.29822771554956 l 3.7748222265620743 -5.914356625608611 a28.016330745983083,28.016330745983083 0 0,0 0.4042796205984081,0.2629547110064647 l -3.8760688729447628 5.848502990442618" fill="#ff5708" stroke="none" /><path d="M 111.60114157652 82.49532879139004 l 2.3948106259125157 -3.6134696173631955 a25.335006414019524,25.335006414019524 0 0,0 0.36144042803906673,0.2440461904472827 l -2.4566557483581244 3.5717115146172427" fill="#ff3104" stroke="none" /><path d="M 111.90073688211348 82.69761687909136 l 4.518547962608963 -6.56947958548404 a28.973414432631053,28.973414432631053 0 0,0 0.4084821806399846,0.2861678719147537 l -4.630961282832598 6.490726870805351" fill="#ff6409" stroke="none" /><path d="M 112.77801427241765 83.33499621200491 l 2.0372273416166595 -2.6569387575605883 a24.34807688126454,24.34807688126454 0 0,0 0.33040044074455727,0.25788278472607795 l -2.082660337520647 2.6214775836112865" fill="#ff2303" stroke="none" /><path d="M 113.06298171725822 83.55741782278167 l 5.263076365826609 -6.624717658124618 a29.460901658948103,29.460901658948103 0 0,0 0.3943504443598122,0.3188706341038091 l -5.376330208750913 6.53314092675668" fill="#ff6b09" stroke="none" /><path d="M 113.34407831869373 83.78471172551755 l 6.420590724232796 -7.802092208950292 a31.104287608983974,31.104287608983974 0 0,0 0.4104913751945631,0.3437747216254736 l -6.553939636386477 7.690416329930999" fill="#ff810b" stroke="none" /><path d="M 113.89432698308785 84.25364557470407 l 3.0472076990297645 -3.4533815488017026 a25.60557476137673,25.60557476137673 0 0,0 0.32798182224284617,0.29446531837639717 l -3.106200508868601 3.4004172216560082" fill="#ff3505" stroke="none" /><path d="M 114.94478906791727 85.2469230424477 l 2.775415181104219 -2.739812089010353 a24.899935859804753,24.899935859804753 0 0,0 0.2984858898768242,0.3076159471685239 l -2.822165334684152 2.6916319462917144" fill="#ff2b04" stroke="none" /><path d="M 115.19652480421416 85.50635884689758 l 23.584884464892987 -22.49401468266912 a53.5918313656426,53.5918313656426 0 0,0 0.6309358090016745,0.6730383303158988 l -23.968587595865124 22.084706935475168" fill="#71ff27" stroke="none" /><path d="M 115.68641384162765 86.03803664274999 l 14.815185148609668 -13.186511223287967 a40.833652947187616,40.833652947187616 0 0,0 0.462797221012811,0.529057226206543 l -15.039974233200327 12.929538440878476" fill="#fffd17" stroke="none" /><path d="M 115.9244219780498 86.31012108654704 l 16.051098106758584 -13.798779623672681 a42.16705150783815,42.16705150783815 0 0,0 0.4684345513009853,0.5544787568770473 l -16.286243271546688 13.520441917166528" fill="#f1ff19" stroke="none" /><path d="M 116.15771136456269 86.58626213691792 l 15.271454824442221 -12.677989300653172 a40.84814210858175,40.84814210858175 0 0,0 0.44446962227086045,0.5448672022243656 l -15.487422938789491 12.413237928820704" fill="#fffd17" stroke="none" /><path d="M 116.38621287248628 86.86637796730983 l 14.213598826408482 -11.392262273351829 a39.215653469006156,39.215653469006156 0 0,0 0.4176390892944945,0.5303592314904602 l -14.407591996296942 11.14591064790833" fill="#ffe915" stroke="none" /><path d="M 116.82858285166822 87.43820079747576 l 3.6672867655012733 -2.737468768009479 a25.576322483856238,25.576322483856238 0 0,0 0.2603150642480205,0.3550694550863467 l -3.7138644422629206 2.6739368692516385" fill="#ff3505" stroke="none" /><path d="M 117.04232023915458 87.72973835380427 l 13.143246749148075 -9.462976533091988 a37.195458004478944,37.195458004478944 0 0,0 0.3696296517214002,0.5228149290925651 l -13.304189020673357 9.235335103667628" fill="#ffd013" stroke="none" /><path d="M 117.45458315368197 88.32363383020206 l 13.187198861944262 -8.821669432622501 a36.86581436305525,36.86581436305525 0 0,0 0.34830007666191903,0.5304849122508433 l -13.337095573964106 8.593366456393984" fill="#ffcc13" stroke="none" /><path d="M 117.65298651832404 88.62581576622439 l 13.372797136433304 -8.616369711312736 a36.908284956406405,36.908284956406405 0 0,0 0.3395077201651551,0.5370196803459216 l -13.519132452844415 8.384902383252609" fill="#ffcc13" stroke="none" /><line stroke="#e1ed5e" stroke-width="0.3" x1="172.23445277983987" x2="176.4835382374775" y1="55.19839476539836" y2="52.563006222186495" /><path d="M 173.08426987136738 54.67131705675599 a86.0,86.0 0 0,1 12.851231095245387,41.99856678651699" fill="none" id="id75" stroke="none" /><text fill="#e1ed5e" style="font-size:6.75px; font-family:Arial;" text-anchor="middle"><textPath startOffset="22.20632615414155" xlink:href="#id75">March</textPath></text><path d="M 117.84615892207809 88.93136811851018 l 8.415194894929199 -5.219313293670788 a30.902360141760703,30.902360141760703 0 0,0 0.27647929839553914,0.45445927122555657 l -8.503789991610962 5.07368624923815" fill="#ff7e0b" stroke="none" /><path d="M 118.3937258080291 89.86733742301442 l 7.334794609959503 -4.040562506470015 a29.374088448242127,29.374088448242127 0 0,0 0.24015681330493457,0.44497410155524614 l -7.4032595224829025 3.91370742158231" fill="#ff6909" stroke="none" /><path d="M 118.56541770881063 90.18545643968196 l 6.830153383736985 -3.6107368527737167 a28.72582784336747,28.72582784336747 0 0,0 0.22733150534448343,0.4391321101606785 l -6.891294322241585 3.4926320203526937" fill="#ff6108" stroke="none" /><path d="M 118.73160827565052 90.50648371742162 l 7.301416069759253 -3.7004891050515925 a29.185615202313397,29.185615202313397 0 0,0 0.22325604038316377,0.4500705541442131 l -7.364032123095825 3.5742589624084298" fill="#ff6709" stroke="none" /><path d="M 118.89224826269711 90.83032412892265 l 7.04922977931032 -3.4214642597436216 a28.83569130085013,28.83569130085013 0 0,0 0.21289226957644586,0.44840541402574774 l -7.1070802427285225 3.2996164300773336" fill="#ff6209" stroke="none" /><path d="M 119.04729006885535 91.15688171328212 l 7.190562864498069 -3.33837505120006 a28.92773248102972,28.92773248102972 0 0,0 0.20579696229380812,0.4534463269933131 l -7.246962143755224 3.2141067153646836" fill="#ff6309" stroke="none" /><path d="M 119.47837535516314 92.15188598940014 l 7.360410198103208 -2.965613781756391 a28.93539560367882,28.93539560367882 0 0,0 0.18216409216814422,0.46358774498056593 l -7.410367840153053 2.8384770318800405" fill="#ff6309" stroke="none" /><path d="M 119.61058180528143 92.48833698450437 l 7.317345526673781 -2.8028456427292143 a28.83578261909421,28.83578261909421 0 0,0 0.17355764809609975,0.4650482094637573 l -7.364507763271505 2.676474296236124" fill="#ff6209" stroke="none" /><path d="M 119.85752413597 93.16781622104841 l 3.847800967395963 -1.3238751807158637 a25.069179005500835,25.069179005500835 0 0,0 0.13688094798526915,0.40925661194004387 l -3.870019209153002 1.257445465853506" fill="#ff2e04" stroke="none" /><path d="M 119.97218684219823 93.5106431181261 l 31.50180075838558 -10.235555533204183 a54.12295349292284,54.12295349292284 0 0,0 0.28026544736303666,0.8885180575807526 l -31.673321689516825 9.69178730919701" fill="#6bff28" stroke="none" /><path d="M 120.18372546131832 94.20196356495316 l 11.559018683806984 -3.320477758704249 a33.026490987759004,33.026490987759004 0 0,0 0.15225720235170734,0.5477501666082055 l -11.614462656725054 3.1210162886770916" fill="#ff9a0e" stroke="none" /><path d="M 120.28053869075195 94.5502522615342 l 7.669473909509582 -2.0609264246334753 a28.94155197530059,28.94155197530059 0 0,0 0.12514281336778954,0.4822263088724479 l -7.703813054747674 1.928603690212177" fill="#ff6409" stroke="none" /><path d="M 120.37134235888165 94.90015583598534 l 7.690946151185708 -1.9253825375810238 a28.92828800034788,28.92828800034788 0 0,0 0.11676999843038234,0.4840870298158206 l -7.722948949876909 1.7927102761057971" fill="#ff6309" stroke="none" /><path d="M 120.45610955862082 95.25157060432595 l 7.781835930625314 -1.80637957473792 a28.98874067792925,28.98874067792925 0 0,0 0.10864650500454238,0.4870409784965914 l -7.811776822631894 1.6721604266913648" fill="#ff6409" stroke="none" /><path d="M 120.53481517161879 95.60439243477599 l 7.594297891705545 -1.6256076807295743 a28.766335094470897,28.766335094470897 0 0,0 0.09947769088121955,0.4850885495196631 l -7.621154878501761 1.4946434750464994" fill="#ff6109" stroke="none" /><path d="M 120.6074358757038 95.95851677861258 l 7.716784946781813 -1.5133982254552891 a28.863786880612267,28.863786880612267 0 0,0 0.09142161378971551,0.4883779164823814 l -7.741692284481387 1.3803422315103449" fill="#ff6209" stroke="none" /><path d="M 120.73433829027371 96.67025291283417 l 32.464186198483446 -5.213454508086084 a53.88013828191247,53.88013828191247 0 0,0 0.13917523630806275,0.9169909164948986 l -32.54911732823081 4.653864479199103" fill="#6eff28" stroke="none" /><path d="M 120.83666639777658 97.38593545837742 l 7.756172296916508 -0.973050803474412 a28.8169710608136,28.8169710608136 0 0,0 0.057509956412594855,0.49271018580460163 l -7.771772606332692 0.8393968793449577" fill="#ff6209" stroke="none" /><path d="M 120.87857604477298 97.74499172005257 l 7.812726567489952 -0.84382014658829 a28.858163198747633,28.858163198747633 0 0,0 0.04909031128526645,0.49433273531020466 l -7.826094004457448 0.7092118805736504" fill="#ff6209" stroke="none" /><path d="M 120.98425023603335 99.18683210126433 l 32.248386314128474 -1.2496683103619397 a53.272590394190416,53.272590394190416 0 0,0 0.027621344826248242,0.9166179634962492 l -32.26511935341037 0.6943801994406914" fill="#74ff27" stroke="none" /><line stroke="#e1ed5e" stroke-width="0.3" x1="184.98032266829074" x2="189.97916517819016" y1="98.17113171792111" y2="98.06355123074" /><path d="M 185.9800911702706 98.14961562048488 a86.0,86.0 0 0,1 -9.607161424134198,41.387399972396054" fill="none" id="id76" stroke="none" /><text fill="#e1ed5e" style="font-size:6.75px; font-family:Arial;" text-anchor="middle"><textPath startOffset="21.466115282336823" xlink:href="#id76">April</textPath></text><path d="M 120.9764740272857 100.99374915477107 l 4.622040987255039 0.21896670138304694 a25.62722479507751,25.62722479507751 0 0,0 -0.024667606177814553,0.4404566790654099 l -4.617587030189695 -0.2984950967838802" fill="#ff3505" stroke="none" /><path d="M 120.95626037817324 101.35467743843564 l 62.86878113451971 4.064032315306923 a84.0,84.0 0 0,0 -0.10569376534264929,1.4421074540129188 l -62.789510810512716 -5.145612905816612" fill="#4dd2ff" stroke="none" /><path d="M 120.76222939487914 103.15116336523771 l 16.140357813936106 2.449684148930945 a37.32519839975649,37.32519839975649 0 0,0 -0.10187689954242317,0.6343875506997638 l -16.095799160032392 -2.7271509293239133" fill="#ffd213" stroke="none" /><path d="M 120.70491114924044 103.5080841355445 l 7.920166098884922 1.3419332660789922 a29.0330452460157,29.0330452460157 0 0,0 -0.08772619098033335,0.4920150672462411 l -7.8958934655654 -1.4780670840584518" fill="#ff6509" stroke="none" /><path d="M 120.5718875245553 104.21870165774334 l 31.4643172308707 6.452425286848145 a53.11910725545192,53.11910725545192 0 0,0 -0.19139563393253237,0.8941366828453602 l -31.348587558213726 -6.993075789109674" fill="#76ff27" stroke="none" /><path d="M 120.49622156327973 104.57218783832717 l 3.7526940398169395 0.8371309803048542 a24.844931837453526,24.844931837453526 0 0,0 -0.09670526989940197,0.4166037717145665 l -3.737728203986985 -0.9016034093679857" fill="#ff2a04" stroke="none" /><path d="M 120.32669344350535 105.2749913415812 l 3.8062664886579562 0.9877662998768064 a24.932346226599698,24.932346226599698 0 0,0 -0.11137863623000711,0.414481339281541 l -3.7886997760861716 -1.0531385723338957" fill="#ff2c04" stroke="none" /><path d="M 120.23288151984713 105.62410040840565 l 8.8059643308246 2.4477792518487744 a30.13983758398017,30.13983758398017 0 0,0 -0.14324655780658557,0.4986600599076167 l -8.762525136131915 -2.598996787260973" fill="#ff740a" stroke="none" /><path d="M 120.02730092923936 106.31721596034902 l 10.955229273663244 3.455610392103731 a32.48731002543865,32.48731002543865 0 0,0 -0.17281353683233638,0.5318653773099148 l -10.89412348581466 -3.6436746693914412" fill="#ff930d" stroke="none" /><path d="M 119.9155931802556 106.66101706037122 l 8.06167346319498 2.696326641514302 a29.500632704976844,29.500632704976844 0 0,0 -0.16521642376577508,0.4801962635570293 l -8.014066208485975 -2.8346956081606316" fill="#ff6b09" stroke="none" /><path d="M 119.41010516605496 108.01547362559984 l 7.484212663423582 3.0906328790512516 a29.097249581458048,29.097249581458048 0 0,0 -0.19515805016908885,0.4612959818436641 l -7.429903632062184 -3.219003386561079" fill="#ff6609" stroke="none" /><path d="M 119.12269723197855 108.67885076344098 l 8.00915310465267 3.6349602618081414 a29.795423216576438,29.795423216576438 0 0,0 -0.215981891217273,0.4652057790309453 l -7.9453965965955655 -3.7722861081179175" fill="#ff6f0a" stroke="none" /><path d="M 118.97047184881838 109.00673069616215 l 8.236823267714705 3.910648588786135 a30.11802774335225,30.11802774335225 0 0,0 -0.22638250459408754,0.46641501174678024 l -8.168287506505903 -4.051852556498191" fill="#ff740a" stroke="none" /><line stroke="#e1ed5e" stroke-width="0.3" x1="174.80103733775053" x2="179.2010983576182" y1="140.37084112569926" y2="142.7455964860345" /><path d="M 175.68104954172406 140.8457921977663 a86.0,86.0 0 0,1 -30.038265399797805,32.042727171017184" fill="none" id="id77" stroke="none" /><text fill="#e1ed5e" style="font-size:6.75px; font-family:Arial;" text-anchor="middle"><textPath startOffset="22.206326154141568" xlink:href="#id77">May</textPath></text><path d="M 118.48025628344425 109.97397251340804 l 1.3438999234323004 0.7253157473304681 a22.527137825321244,22.527137825321244 0 0,0 -0.18710782210824972,0.33965504626726967 l -1.331215691872541 -0.7483413119955428" fill="#ff0901" stroke="none" /><path d="M 117.94076556474637 110.91462005526583 l 28.12078053090921 17.107833779150635 a53.9158969843237,53.9158969843237 0 0,0 -0.48918499331110044,0.7887219691102966 l -27.822130897930148 -17.589352079626206" fill="#6dff28" stroke="none" /><path d="M 117.55443506779139 111.5257021239791 l 3.217988670962162 2.1128323820514554 a24.84961189746266,24.84961189746266 0 0,0 -0.23784261062565684,0.35554243197617735 l -3.181142954925784 -2.16791172823344" fill="#ff2a04" stroke="none" /><path d="M 116.27256486870786 113.27417163493432 l 26.95237093642739 21.986109790629577 a55.782457113038944,55.782457113038944 0 0,0 -0.6133520230079789,0.7388220236440792 l -26.569922913525865 -22.446793071387425" fill="#5aff2a" stroke="none" /><path d="M 114.55890576462653 115.13401014063108 l 22.272596616368077 23.152406403321933 a53.126351836148984,53.126351836148984 0 0,0 -0.6644947084239266,0.6283212224832917 l -21.87076607355334 -23.532362262551146" fill="#76ff27" stroke="none" /><path d="M 114.0293411484842 115.62618273729858 l 3.121906899529033 3.4772472338192943 a25.673066553605985,25.673066553605985 0 0,0 -0.3313752863663342,0.2924001618744006 l -3.0615892602561114 -3.5304705374659835" fill="#ff3605" stroke="none" /><path d="M 113.48314897796784 116.09983520530334 l 1.8644267672989174 2.2262576609453975 a23.903844063227012,23.903844063227012 0 0,0 -0.31772747241220495,0.2614680790190525 l -1.8258291663420214 -2.2580208588216286" fill="#ff1d02" stroke="none" /><path d="M 113.20401910651253 116.32954008644616 l 1.7646220941025832 2.18232547155769 a23.80649881503707,23.80649881503707 0 0,0 -0.32086910067759533,0.25491781951328535 l -1.7267955007076368 -2.212377205076101" fill="#ff1c02" stroke="none" /><path d="M 112.63410532772338 116.77436683061366 l 19.781244322464953 26.263660150347462 a53.879742569521454,53.879742569521454 0 0,0 -0.7456315705086485,0.5516004103290222 l -19.326227781537742 -26.600270509416255" fill="#6eff28" stroke="none" /><line stroke="#e1ed5e" stroke-width="0.3" x1="143.8653032363475" x2="146.44561519142675" y1="172.8068346515853" y2="177.08958963109032" /><path d="M 144.38136562736335 173.6633856474863 a86.0,86.0 0 0,1 -40.68145358897372,12.25698825130547" fill="none" id="id78" stroke="none" /><text fill="#e1ed5e" style="font-size:6.75px; font-family:Arial;" text-anchor="middle"><textPath startOffset="21.466115282336833" xlink:href="#id78">June</textPath></text><path d="M 110.5260780823613 118.17145234162733 l 16.52217932510179 28.522683551911967 a53.962492118365844,53.962492118365844 0 0,0 -0.8077702827339704,0.45867304804574366 l -16.02876027544662 -28.802859765752338" fill="#6dff28" stroke="none" /><path d="M 109.2508944713604 118.85261126421891 l 1.0864951925781217 2.214193618739422 a23.466399234666145,23.466399234666145 0 0,0 -0.36416201134413,0.1748198955341674 l -1.0482205132337588 -2.2325677907731496" fill="#ff1702" stroke="none" /><path d="M 108.92500713936063 119.00905698771935 l 1.34384168659103 2.8622008704311 a24.16197790968191,24.16197790968191 0 0,0 -0.3779991918519588,0.17352088928964318 l -1.2943744989716517 -2.8849088300548176" fill="#ff2103" stroke="none" /><path d="M 108.59647513512805 119.15986991738527 l 2.800098714935707 6.240875043629924 a27.8402539516883,27.8402539516883 0 0,0 -0.43892059503246506,0.19240989017495755 l -2.6922574452454877 -6.288149487099336" fill="#ff5407" stroke="none" /><path d="M 105.88484417918355 120.15858648285463 l 9.180402128832322 31.447549778136086 a53.76016132889788,53.76016132889788 0 0,0 -0.8905468820948406,0.25167744431237316 l -8.637724078632877 -31.60091601578698" fill="#6fff28" stroke="none" /><path d="M 104.13013068566511 120.58985236759428 l 0.5273737378793613 2.6291050409543577 a23.681476529037027,23.681476529037027 0 0,0 -0.40036624297943857,0.07673114334669875 l -0.4820398803282183 -2.637793382649525" fill="#ff1a02" stroke="none" /><path d="M 102.70371172650421 120.8252237178851 l 0.8428301400496954 6.491863038004253 a27.54634618311482,27.54634618311482 0 0,0 -0.4707442019168186,0.057000567092176296 l -0.7309585150814966 -6.50540913382178" fill="#ff5007" stroke="none" /><path d="M 101.26447882468166 120.96189622390904 l 0.22949934635515506 3.804525143363186 a24.811440871436957,24.811440871436957 0 0,0 -0.4265345806877236,0.02204696576996264 l -0.16397669725395192 -3.8079119158953505" fill="#ff2a04" stroke="none" /><line stroke="#e1ed5e" stroke-width="0.3" x1="102.19456741930631" x2="102.32365962044197" y1="184.97166512339345" y2="189.96999836594603" /><path d="M 102.22038585953345 185.97133177190398 a86.0,86.0 0 0,1 -42.740103519485714,-10.115201625700543" fill="none" id="id79" stroke="none" /><text fill="#e1ed5e" style="font-size:6.75px; font-family:Arial;" text-anchor="middle"><textPath startOffset="22.20632615414155" xlink:href="#id79">July</textPath></text><path d="M 100.54218724476979 120.99299961872073 l 0.2191718818977293 8.48613698956878 a29.488966799295547,29.488966799295547 0 0,0 -0.5075476811753429,0.00873789361536776 l -0.07306451082971842 -8.488652360463309" fill="#ff6b09" stroke="none" /><path d="M 100.18074693466247 120.99922214144158 l 0.06451859549223246 7.495785870589221 a28.496063531406953,28.496063531406953 0 0,0 -0.49053106030937066,0.0 l 0.0645185954922273 -7.495785870589221" fill="#ff5d08" stroke="none" /><path d="M 99.45781275523022 120.99299961872073 l -0.19920594142824988 7.713073837112964 a28.71564585915248,28.71564585915248 0 0,0 -0.49401802083000484,-0.017014979511920936 l 0.33194431393289775 -7.70850205917495" fill="#ff6008" stroke="none" /><path d="M 99.09653310690486 120.98055641714683 l -0.32751239627447537 7.605582849650702 a28.612631269975864,28.612631269975864 0 0,0 -0.4918810134545997,-0.025424629930457823 l 0.458381478142564 -7.5988184129580425" fill="#ff5f08" stroke="none" /><path d="M 98.73552117531835 120.96189622390904 l -0.9695327398629328 16.07242785090187 a37.101643728393455,37.101643728393455 0 0,0 -0.6371540173700734,-0.043941871461530065 l 1.2460495180119362 -16.053357634924055" fill="#ffcf13" stroke="none" /><path d="M 98.37488393609728 120.93702456842531 l -0.3534364495235183 4.553464082608372 a25.567160220033482,25.567160220033482 0 0,0 -0.4384837158313083,-0.03783422004517871 l 0.43176448309636833 -4.546705610284529" fill="#ff3505" stroke="none" /><path d="M 97.65516085044442 120.86867818915974 l -1.0426495121459498 9.27940713425147 a30.33780031743961,30.33780031743961 0 0,0 -0.5184478370891396,-0.06277681297287094 l 1.2022247722864787 -9.26008479255325" fill="#ff760a" stroke="none" /><path d="M 97.2962882734958 120.8252237178851 l -1.2247052459689372 9.4332396777919 a30.51240840997543,30.51240840997543 0 0,0 -0.5202676697925088,-0.07210435834343462 l 1.386901506948277 -9.41076075395586" fill="#ff790b" stroke="none" /><path d="M 95.86986931433489 120.58985236759428 l -1.5345052330307303 7.649936190896973 a28.802322092492336,28.802322092492336 0 0,0 -0.4852622612849905,-0.10169142496886288 l 1.6659589557451073 -7.622388785201569" fill="#ff6209" stroke="none" /><path d="M 95.51606077576429 120.51570834832081 l -1.3748517642392908 6.290463899433279 a27.438955928076012,27.438955928076012 0 0,0 -0.4605561469687647,-0.10482107960800731 l 1.482928060600918 -6.265866086247585" fill="#ff4f07" stroke="none" /><path d="M 95.16358092515715 120.4354850818985 l -1.7602968470186988 7.4378417999545325 a28.64330659013328,28.64330659013328 0 0,0 -0.47881612821711617,-0.11768135477724538 l 1.8880662599790254 -7.406439186863258" fill="#ff5f08" stroke="none" /><path d="M 94.46302465271185 120.25689768951611 l -5.838912838205597 21.361529095386377 a43.14515361033201,43.14515361033201 0 0,0 -0.7147073423034855,-0.2019834339536472 l 6.205751348613696 -21.25785686809421" fill="#e5ff1a" stroke="none" /><path d="M 92.40401165467489 119.57807347666478 l -1.020425868950058 2.630068890520219 a23.82108690452895,23.82108690452895 0 0,0 -0.3810000493812652,-0.1516077825936961 l 1.0655469943731812 -2.612114263520456" fill="#ff1c02" stroke="none" /><path d="M 91.07499286063937 119.00905698771935 l -13.649978196625174 29.072605698706766 a53.11757006500989,53.11757006500989 0 0,0 -0.8243020567045849,-0.3957150799716981 l 14.14839292133 -28.833336342235505" fill="#76ff27" stroke="none" /><line stroke="#e1ed5e" stroke-width="0.3" x1="58.666819895761336" x2="56.23545636021788" y1="174.27360380694188" y2="178.64263932499728" /><path d="M 58.180547188652646 175.14741091055294 a86.0,86.0 0 0,1 -31.652253787137756,-30.449443065178592" fill="none" id="id80" stroke="none" /><text fill="#e1ed5e" style="font-size:6.75px; font-family:Arial;" text-anchor="middle"><textPath startOffset="22.20632615414155" xlink:href="#id80">August</textPath></text><path d="M 89.1626897886671 117.98757091392108 l -21.078010311708535 34.98489918741428 a61.84391863979302,61.84391863979302 0 0,0 -0.9071053951785834,-0.5572182220560133 l 21.677094906819427 -34.616892498529886" fill="#32ff44" stroke="none" /><path d="M 87.07902340077011 116.55440617244103 l -19.771395979011828 25.331190496253758 a53.13374100406583,53.13374100406583 0 0,0 -0.7161479654808244,-0.5689512558975897 l 20.20450143721001 -24.98710532635104" fill="#75ff27" stroke="none" /><path d="M 84.9287848128048 114.62390073753433 l -11.626541547074433 11.281465189992925 a37.2002446024395,37.2002446024395 0 0,0 -0.4419627293051882,-0.46339615473278256 l 11.819010827758579 -11.079661918677642" fill="#ffd013" stroke="none" /><path d="M 84.19399662182784 113.82643327865904 l -6.231858115920682 5.451369861203414 a29.27970343313113,29.27970343313113 0 0,0 -0.32857054436016836,-0.3822017733704764 l 6.324771169851629 -5.343290988671407" fill="#ff6809" stroke="none" /><path d="M 83.06392112726016 112.41649034213515 l -4.778088137345577 3.50300005432274 a26.92462113799926,26.92462113799926 0 0,0 -0.2708106698560148,-0.3761323346594722 l 4.8376785995772 -3.42023411421213" fill="#ff4806" stroke="none" /><path d="M 82.6465618267979 111.8261652097733 l -8.431256332974492 5.7458026083660565 a31.202956971713085,31.202956971713085 0 0,0 -0.29865225968175857,-0.4464446065535195 l 8.528911698066981 -5.599821087606717" fill="#ff820c" stroke="none" /><path d="M 82.05923443525364 110.91462005526583 l -5.209991610695109 3.1696015823092596 a27.09839214663101,27.09839214663101 0 0,0 -0.23900668873261458,-0.4005889579549134 l 5.263779175125955 -3.079450530468235" fill="#ff4a06" stroke="none" /><line stroke="#e1ed5e" stroke-width="0.3" x1="26.63291911575756" x2="22.317208475507996" y1="142.92168965132927" y2="145.44649492493687" /><path d="M 25.769776987707644 143.4266507060508 a86.0,86.0 0 0,1 -11.730757126820373,-40.83630448921669" fill="none" id="id81" stroke="none" /><text fill="#e1ed5e" style="font-size:6.75px; font-family:Arial;" text-anchor="middle"><textPath startOffset="21.46611528233685" xlink:href="#id81">September</textPath></text><path d="M 81.87401531095188 110.60418214915194 l -28.416463740505844 16.62438552765431 a53.92211423477486,53.92211423477486 0 0,0 -0.4617992670651307,-0.8051859473041276 l 28.69841500372335 -16.132779734491876" fill="#6dff28" stroke="none" /><path d="M 81.35079622478065 109.6543875284942 l -2.7603603174477005 1.428993352430882 a24.1083132215772,24.1083132215772 0 0,0 -0.18761012456568948,-0.3701725743452401 l 2.784549111799657 -1.3812665663829569" fill="#ff2003" stroke="none" /><path d="M 80.73074385275274 108.34839909993369 l -3.911639865355864 1.6947167281216895 a25.262979149000934,25.262979149000934 0 0,0 -0.16944122977599996,-0.4005090150603369 l 3.9402320763241705 -1.6271331873951937" fill="#ff3004" stroke="none" /><path d="M 80.58989483394504 108.01547362559985 l -5.659560929590116 2.337136299649686 a27.123139390776856,27.123139390776856 0 0,0 -0.17448882022982956,-0.4330669420864375 l 5.698952364077334 -2.2393699897204433" fill="#ff4a06" stroke="none" /><path d="M 80.20201598880116 107.00284435728193 l -4.1440402215078835 1.4658092796276874 a25.395641728089057,25.395641728089057 0 0,0 -0.14222668196685848,-0.4133773126297781 l 4.1686577344179705 -1.3942592639086124" fill="#ff3204" stroke="none" /><path d="M 80.0844068197444 106.66101706037122 l -4.361731268923721 1.4588351013244916 a25.59922814341313,25.59922814341313 0 0,0 -0.13617295960105524,-0.4190972759726003 l 4.3861964795410255 -1.383538925374088" fill="#ff3505" stroke="none" /><path d="M 79.76711848015287 105.62410040840567 l -7.158427178995941 1.9898160912691165 a28.429834974887484,28.429834974887484 0 0,0 -0.12700273848952776,-0.4726244360979236 l 7.191617993827244 -1.866300721995654" fill="#ff5c08" stroke="none" /><path d="M 79.67330655649465 105.27499134158121 l -9.182213517904655 2.382881256025091 a30.486367490705106,30.486367490705106 0 0,0 -0.12744562542508836,-0.5090819217566988 l 9.221870457624801 -2.2244714948710005" fill="#ff780b" stroke="none" /><path d="M 79.58551787078972 104.9243191809786 l -2.65980525718734 0.6415901203241552 a23.73609244885091,23.73609244885091 0 0,0 -0.09238927446614746,-0.3980105763482019 l 2.6704550975840426 -0.595710886627379" fill="#ff1b02" stroke="none" /><path d="M 79.50377843672027 104.57218783832718 l -3.7859757597978994 0.844555288969053 a24.879031591763965,24.879031591763965 0 0,0 -0.08964265909503939,-0.41878065971415446 l 3.7999524576173798 -0.7792608098387348" fill="#ff2b04" stroke="none" /><path d="M 79.29508885075956 103.50808413554451 l -4.024394338086281 0.6818630532077191 a25.08175048376927,25.08175048376927 0 0,0 -0.06845913977511911,-0.42629512872902564 l 4.03553523222269 -0.6124886947854797" fill="#ff2e04" stroke="none" /><path d="M 79.23777060512086 103.15116336523772 l -6.013084953860845 0.9126290177365008 a27.081947252842824,27.081947252842824 0 0,0 -0.06598445388143392,-0.46149511676275023 l 6.027903458758877 -0.80898842899335" fill="#ff4a06" stroke="none" /><path d="M 79.18660465613746 102.79330883721812 l -6.8370342150658425 0.917579653765511 a27.898332354923575,27.898332354923575 0 0,0 -0.05978013573816125,-0.47650650003334455 l 6.851815860050852 -0.7997553994447578" fill="#ff5507" stroke="none" /><path d="M 79.1416061653843 102.43462659150553 l -4.725288859628826 0.551543613636498 a25.757368512599744,25.757368512599744 0 0,0 -0.047611512621352214,-0.44082347533321176 l 4.73408267375123 -0.4701238164185041" fill="#ff3705" stroke="none" /><path d="M 79.10278846688536 102.07522291339032 l -3.8145411505969418 0.3788076312117024 a24.833303981040594,24.833303981040594 0 0,0 -0.03858078895978865,-0.4257357912859809 l 3.8204965358338057 -0.31309045137715535" fill="#ff2a04" stroke="none" /><path d="M 79.07016306316243 101.71520430193888 l -4.625909741406245 0.3790942238482544 a25.641417172178375,25.641417172178375 0 0,0 -0.03226354678154093,-0.4402104623268367 l 4.631749846852121 -0.2994106250246571" fill="#ff3605" stroke="none" /><path d="M 79.04373962182676 101.35467743843564 l -3.8387839938278048 0.24815086153838406 a24.846796251603507,24.846796251603507 0 0,0 -0.023916400999947983,-0.42704340598353985 l 3.8424867457152843 -0.18203573921940663" fill="#ff2a04" stroke="none" /><line stroke="#e1ed5e" stroke-width="0.3" x1="15.007084014347285" x2="10.007500721073583" y1="101.09737516637583" y2="101.16192664675087" /><path d="M 14.007167355692545 101.11028546245083 a86.0,86.0 0 0,1 10.666146001902534,-42.60595125391555" fill="none" id="id82" stroke="none" /><text fill="#e1ed5e" style="font-size:6.75px; font-family:Arial;" text-anchor="middle"><textPath startOffset="22.20632615414155" xlink:href="#id82">October</textPath></text><path d="M 79.12142395522702 97.74499172005258 l -9.917312272487987 -1.0711277072405236 a30.974988585219492,30.974988585219492 0 0,0 0.06181670653925771,-0.5296077908018567 l 9.89740521294514 1.2416792363672422" fill="#ff7f0b" stroke="none" /><path d="M 79.16333360222342 97.38593545837743 l -3.297103941874745 -0.41363826343250576 a24.32294914443502,24.32294914443502 0 0,0 0.05569260521796537,-0.4149745973973883 l 3.289495337598946 0.47033120289455344" fill="#ff2303" stroke="none" /><path d="M 79.21141760316559 97.0276538004421 l -7.1904186829587395 -1.028084226117171 a28.263544452416674,28.263544452416674 0 0,0 0.07300622462190041,-0.4810198035352039 l 7.171656564897537 1.151703142044467" fill="#ff5a08" stroke="none" /><path d="M 79.32604984820605 96.31383870115002 l -2.3260834745614165 -0.4147402319763635 a23.362768247341986,23.362768247341986 0 0,0 0.07399798178255348,-0.39530017759247216 l 2.3185997688690017 0.4547184870314083" fill="#ff1502" stroke="none" /><path d="M 79.46518482838121 95.60439243477599 l -4.5991890085561575 -0.9844856080246313 a25.703376600787077,25.703376600787077 0 0,0 0.09633333388011574,-0.43184344671602115 l 4.581561287674004 1.0635072242906116" fill="#ff3705" stroke="none" /><path d="M 79.62865764111835 94.90015583598534 l -2.6922759210960687 -0.6739952332170575 a23.77535929380558,23.77535929380558 0 0,0 0.10280427785613931,-0.39614681908393395 l 2.680275311369622 0.7202384778498553" fill="#ff1b02" stroke="none" /><path d="M 80.38941819471856 92.48833698450439 l -2.2219683592440758 -0.8511056791410514 a23.379395777618335,23.379395777618335 0 0,0 0.14718604388904286,-0.374572427348356 l 2.2069887654733416 0.8892271113851709" fill="#ff1502" stroke="none" /><path d="M 80.52162464483688 92.15188598940014 l -1.2354557560081303 -0.4977826667475903 a22.33196790815994,22.33196790815994 0 0,0 0.14672986954663958,-0.35531801761603843 l 1.226704199575291 0.51897525481694" fill="#ff0601" stroke="none" /><path d="M 81.6062741919709 89.86733742301443 l -0.7922170333577223 -0.436413371088217 a21.904469158350185,21.904469158350185 0 0,0 0.18477187299749323,-0.32868854466290826 l 0.7845875190677983 0.4499854256859098" fill="#ff0000" stroke="none" /><line stroke="#e1ed5e" stroke-width="0.3" x1="26.266209847984243" x2="21.928928074336255" y1="57.711370442889674" y2="55.22380399835377" /><path d="M 25.398753493254645 57.213857153982495 a86.0,86.0 0 0,1 29.58750427330803,-30.492523968695096" fill="none" id="id83" stroke="none" /><text fill="#e1ed5e" style="font-size:6.75px; font-family:Arial;" text-anchor="middle"><textPath startOffset="21.46611528233685" xlink:href="#id83">November</textPath></text><path d="M 82.95767976084542 87.72973835380427 l -3.707571410597341 -2.669405963600244 a25.568568042963058,25.568568042963058 0 0,0 0.2602361397747774,-0.35496180219354334 l 3.661072658308931 2.7328302094652877" fill="#ff3505" stroke="none" /><path d="M 89.00827224532344 82.1063720568725 l -9.244936135993406 -15.049994984187867 a38.66270628139065,38.66270628139065 0 0,0 0.5700685946382722,-0.3434599497285221 l 8.984505475137484 15.20690154337501" fill="#ffe215" stroke="none" /><line stroke="#e1ed5e" stroke-width="0.3" x1="56.762969772571076" x2="54.21961505331055" y1="26.818313649435495" y2="22.513508569990535" /><path d="M 56.25429882871897 25.957352633546506 a86.0,86.0 0 0,1 42.265352541879196,-11.944610805530505" fill="none" id="id84" stroke="none" /><text fill="#e1ed5e" style="font-size:6.75px; font-family:Arial;" text-anchor="middle"><textPath startOffset="22.20632615414155" xlink:href="#id84">December</textPath></text></svg>