<?xml version="1.0" encoding="utf-8" ?>
<svg baseProfile="full" height="200mm" version="1.1" viewBox="0,0,200,200" width="200mm" xmlns="http://www.w3.org/2000/svg" xmlns:ev="http://www.w3.org/2001/xml-events" xmlns:xlink="http://www.w3.org/1999/xlink"><defs /><rect fill="#1a1a1a" height="200" width="200" x="0" y="0" /><text alignment-baseline="middle" fill="#e1ed5e" style="dominant-baseline: central; font-size:9.0px; font-family:Arial;" text-anchor="middle" x="100.0" y="100.0">2020</text><line stroke="#e1ed5e" stroke-width="0.3" x1="100.0" x2="100.0" y1="15.0" y2="10.0" /><path d="M 100.0 14.0 a86.0,86.0 0 0,1 42.35913384403234,11.155469271406648" fill="none" id="id73" stroke="none" /><text fill="#e1ed5e" style="font-size:6.75px; font-family:Arial;" text-anchor="middle"><textPath startOffset="22.145653131862478" xlink:href="#id73">January</textPath></text><path d="M 108.07796709384702 80.6158196554323 l 1.3632065934674178 -3.2711995663864264 a24.5438790639072,24.5438790639072 0 0,0 0.3875185436595452,0.1654086230112736 l -1.419160212297393 3.2473162937157514" fill="#ff2904" stroke="none" /><path d="M 108.4095320186766 80.7573450057729 l 0.27015985503819784 -0.6181786182923111 a21.67463408703389,21.67463408703389 0 0,0 0.33965864647863414,0.15192499228632572 l -0.2807319043724636 0.6134498750961328" fill="#ff0000" stroke="none" /><line stroke="#e1ed5e" stroke-width="0.3" x1="143.13028292997686" x2="145.6673583964461" y1="26.7553504044142" y2="22.446841604673864" /><path d="M 143.63769802327073 25.89364864446614 a86.0,86.0 0 0,1 29.32050498858742,28.57503671076993" fill="none" id="id74" stroke="none" /><text fill="#e1ed5e" style="font-size:6.75px; font-family:Arial;" text-anchor="middle"><textPath startOffset="20.669276256404974" xlink:href="#id74">February</textPath></text><line stroke="#e1ed5e" stroke-width="0.3" x1="172.87174338648825" x2="177.1583165268699" y1="56.24261187166439" y2="53.66864786411523" /><path d="M 173.72905801456457 55.72781907015455 a86.0,86.0 0 0,1 12.242430191666344,42.057860355516425" fill="none" id="id75" stroke="none" /><text fill="#e1ed5e" style="font-size:6.75px; font-family:Arial;" text-anchor="middle"><textPath startOffset="22.145653131862474" xlink:href="#id75">March</textPath></text><path d="M 118.8641267826498 90.77261029715802 l 5.420477342220277 -2.651427091663441 a27.034205849979784,27.034205849979784 0 0,0 0.20033729403992107,0.4186278932862794 l -5.465193894220111 2.557986696312058" fill="#ff4c07" stroke="none" /><path d="M 119.4528033332814 92.08871423366111 l 10.010673907178663 -4.071253928621467 a31.806882095552975,31.806882095552975 0 0,0 0.20135471671328883,0.5075454207537078 l -10.079087298858077 3.8988074906541943" fill="#ff8d0d" stroke="none" /><path d="M 119.58574465831526 92.42381321644754 l 5.661263188614549 -2.1898982191409284 a27.07005396194785,27.07005396194785 0 0,0 0.1639276310212905,0.4348375170581344 l -5.69802150345028 2.0923924218886363" fill="#ff4d07" stroke="none" /><path d="M 119.83427380445688 93.10060997987247 l 5.801739540629492 -2.0181461787123123 a27.142727056931214,27.142727056931214 0 0,0 0.14930384158846532,0.4413902781022322 l -5.835528803790322 1.9182542261359183" fill="#ff4e07" stroke="none" /><path d="M 119.94978838288452 93.4421083053983 l 1.8315072898601907 -0.60205282453427 a22.927922860578377,22.927922860578377 0 0,0 0.11970044473603014,0.3749599382598938 l -1.841572450373478 0.5705238525829891" fill="#ff1202" stroke="none" /><path d="M 120.43855184770803 95.1765574152323 l 2.8700062990438613 -0.677313671952355 a23.948845531180808,23.948845531180808 0 0,0 0.090993226267688,0.40093294431242643 l -2.8812103868692156 0.6279463937009023" fill="#ff2103" stroke="none" /><path d="M 120.51834098615036 95.52812308129327 l 3.0137902642413645 -0.6568415609030493 a24.084537662756865,24.084537662756865 0 0,0 0.08457375909468788,0.40471605331352256 l -3.024621734160419 0.6050090563041224" fill="#ff2303" stroke="none" /><path d="M 120.7213421655516 96.59031103205396 l 3.1005999207932033 -0.5102025370498741 a24.142296373296915,24.142296373296915 0 0,0 0.06377993234029926,0.4095129182610508 l -3.1089013452717675 0.456901436857382" fill="#ff2303" stroke="none" /><path d="M 120.77682067341334 96.94652285012252 l 10.052924510973186 -1.4774337116448206 a31.160910470800836,31.160910470800836 0 0,0 0.07323627623171976,0.5299012122025406 l -10.07680530376012 1.3046441912421942" fill="#ff840c" stroke="none" /><path d="M 120.82617615685814 97.30363454192243 l 6.3213396851622585 -0.8184239798736938 a27.374100189520053,27.374100189520053 0 0,0 0.056335785748095356,0.4665411212552965 l -6.334457557170017 0.7097891816949843" fill="#ff5107" stroke="none" /><path d="M 120.86939407059847 97.66154086499901 l 2.4289232381775645 -0.2721659150868492 a23.444124052149164,23.444124052149164 0 0,0 0.041381789951247513,0.40033127924469747 l -2.433237420610478 0.23043011355922025" fill="#ff1a02" stroke="none" /><path d="M 120.9064616781168 98.02013634271609 l 6.398214544294979 -0.6059175695433154 a27.426841016853388,27.426841016853388 0 0,0 0.040364966508378536,0.46910209667750635 l -6.407673133501099 0.49599442549014705" fill="#ff5207" stroke="none" /><path d="M 120.98066250479742 99.09900007780936 l 7.694778844572964 -0.33044691218159317 a28.701870982343056,28.701870982343056 0 0,0 0.01691403034202749,0.4924335385822415 l -7.6993175619118395 0.1983071090352317" fill="#ff6309" stroke="none" /><path d="M 120.99303781780057 99.45929381324524 l 6.455650735940341 -0.1662746631881494 a27.45779170367591,27.45779170367591 0 0,0 0.008091639147989467,0.4712974142985221 l -6.457553806686996 0.0554303329205609" fill="#ff5207" stroke="none" /><line stroke="#e1ed5e" stroke-width="0.3" x1="184.99686870605535" x2="189.99668451229388" y1="99.2704041080226" y2="99.22748670261217" /><path d="M 185.99683186730306 99.26182062694052 a86.0,86.0 0 0,1 -10.086455211305974,41.156179273409016" fill="none" id="id76" stroke="none" /><text fill="#e1ed5e" style="font-size:6.75px; font-family:Arial;" text-anchor="middle"><textPath startOffset="21.40746469413373" xlink:href="#id76">April</textPath></text><path d="M 120.99922638620191 99.81974689727618 l 6.914117203699871 -0.05934938057442004 a27.914371920534293,27.914371920534293 0 0,0 0.0,0.479204966596493 l -6.914117203699871 -0.0593493805744192" fill="#ff5808" stroke="none" /><path d="M 120.99303781780057 100.54070618675476 l 3.4278822446743735 0.08829008708737689 a24.42901907589207,24.42901907589207 0 0,0 -0.01439603606781853,0.4191248826613215 l -3.425861521609709 -0.14712123431280905" fill="#ff2803" stroke="none" /><path d="M 120.9064616781168 101.97986365728391 l 3.4710804938739326 0.3287149316386439 a24.486610574932953,24.486610574932953 0 0,0 -0.043221908106947614,0.4181327531804717 l -3.4649261932853186 -0.388252207102047" fill="#ff2803" stroke="none" /><path d="M 120.86939407059847 102.33845913500097 l 2.9200177061384585 0.3271940745469029 a23.938291913098613,23.938291913098613 0 0,0 -0.04926490642815652,0.4079840971119632 l -2.913970713450638 -0.3772718485822747" fill="#ff2103" stroke="none" /><path d="M 120.82617615685814 102.69636545807757 l 4.541464941331157 0.587983559950978 a25.579369878063208,25.579369878063208 0 0,0 -0.060118198406900164,0.4349853358252827 l -4.530702226369047 -0.6658572039763457" fill="#ff3805" stroke="none" /><path d="M 120.592083275326 104.11899336999214 l 3.7139465603469755 0.7428933272091237 a24.787517597150536,24.787517597150536 0 0,0 -0.08704229955215376,0.4165289130241834 l -3.7006465499704575 -0.8065386915187162" fill="#ff2d04" stroke="none" /><path d="M 120.35273937422433 105.17358676015961 l 7.145286812782036 1.8163039663824638 a28.37252220988269,28.37252220988269 0 0,0 -0.12404266642707863,0.4710102086895591 l -7.113054665550227 -1.938694679444826" fill="#ff5f08" stroke="none" /><path d="M 120.26092885502905 105.52220625578681 l 2.28599906127887 0.623059209537846 a23.3693869432319,23.3693869432319 0 0,0 -0.10881399498104015,0.3861424805974268 l -2.27496657422325 -0.6622096140382813" fill="#ff1802" stroke="none" /><path d="M 120.05942366710727 106.21446072829308 l 6.220025845061521 1.9269799065307343 a27.511679742847193,27.511679742847193 0 0,0 -0.14363099181200917,0.4499220361361524 l -6.186030137472256 -2.03347097635827" fill="#ff5307" stroke="none" /><path d="M 119.71291397450082 107.23885506374661 l 6.714704612354752 2.4657325420067795 a28.153117851670654,28.153117851670654 0 0,0 -0.17048632122325816,0.4522352220381232 l -6.671387607317053 -2.580636044239062" fill="#ff5c08" stroke="none" /><path d="M 119.58574465831526 107.57618678355244 l 1.558983749566795 0.6030484051177745 a22.671555476293992,22.671555476293992 0 0,0 -0.14352317264750197,0.36177215134725554 l -1.5484019019531687 -0.6297215736785942" fill="#ff0e01" stroke="none" /><path d="M 119.31412917781788 108.2440532568976 l 4.944976794141394 2.1107165469227893 a26.376608581257386,26.376608581257386 0 0,0 -0.1813280279254343,0.4149140135745361 l -4.908014884198995 -2.1952926302731703" fill="#ff4306" stroke="none" /><path d="M 119.16976305983485 108.57439118712176 l 10.58392969744617 4.734057131516814 a32.59443248999054,32.59443248999054 0 0,0 -0.23284148727293702,0.5088006708894481 l -10.501103745318177 -4.915046784620952" fill="#ff970d" stroke="none" /><path d="M 118.8641267826498 109.22738970284198 l 2.9735217736967297 1.4544985045913397 a24.31019601209762,24.31019601209762 0 0,0 -0.18658664300331873,0.373298275443649 l -2.9481152174816785 -1.5053286361987346" fill="#ff2603" stroke="none" /><path d="M 118.70294669586154 109.54985784667822 l 3.305102536592248 1.6876089049719463 a24.711027700452952,24.711027700452952 0 0,0 -0.1961489964286677,0.3761415638665945 l -3.275645471188631 -1.7440967119430435" fill="#ff2c04" stroke="none" /><path d="M 118.5362547648365 109.86951160357373 l 3.0842908075483666 1.6422111316488952 a24.49423914270888,24.49423914270888 0 0,0 -0.20079986552625367,0.36944913600810547 l -3.055645592406774 -1.694915101131604" fill="#ff2803" stroke="none" /><line stroke="#e1ed5e" stroke-width="0.3" x1="174.33088141563837" x2="178.70328620479359" y1="141.23008692659167" y2="143.65538615756765" /><path d="M 175.20536237346943 141.71514677278685 a86.0,86.0 0 0,1 -30.301960400862466,31.631185727798858" fill="none" id="id77" stroke="none" /><text fill="#e1ed5e" style="font-size:6.75px; font-family:Arial;" text-anchor="middle"><textPath startOffset="22.145653131862474" xlink:href="#id77">May</textPath></text><path d="M 118.36410011445183 110.18625677009912 l 3.8076033859371385 2.1120134134605397 a25.35412955747038,25.35412955747038 0 0,0 -0.21438321277771552,0.37879459517552655 l -3.7707868081380447 -2.177064778735189" fill="#ff3505" stroke="none" /><path d="M 118.18653347947321 110.5 l 1.837558958524144 1.0609151593557224 a23.121830318711446,23.121830318711446 0 0,0 -0.20140907786718998,0.34203664644869036 l -1.8190761705271887 -1.0923029740979622" fill="#ff1502" stroke="none" /><path d="M 117.81537515405839 111.11811171558189 l 2.946718344836201 1.8389701855242826 a24.47346517861363,24.47346517861363 0 0,0 -0.22548488269864606,0.3544996876458076 l -2.914715770511665 -1.8892835478487622" fill="#ff2803" stroke="none" /><path d="M 117.62189284568427 111.42229804090321 l 11.368594121445206 7.368985358063275 a34.54794735395401,34.54794735395401 0 0,0 -0.32684918212780995,0.49489132029295996 l -11.240420500396668 -7.5630565566952965" fill="#ffb110" stroke="none" /><path d="M 117.423217284605 111.72311816256416 l 4.7784770752643055 3.2151726328939843 a26.759442526680594,26.759442526680594 0 0,0 -0.25970709638276573,0.3789204150630621 l -4.722580242066219 -3.2967277830270905" fill="#ff4806" stroke="none" /><path d="M 117.21940702142032 112.02048342749411 l 5.162716305419069 3.6039769379366673 a27.29621230736538,27.29621230736538 0 0,0 -0.2715126961109187,0.3819166095464888 l -5.10008851077819 -3.69207077419266" fill="#ff5007" stroke="none" /><path d="M 117.01052211995028 112.31430620078461 l 4.0833531727925365 2.9560327978844896 a26.04102202295563,26.04102202295563 0 0,0 -0.26524390565158407,0.35985429958342574 l -4.032007247557124 -3.0256934067367927" fill="#ff3e05" stroke="none" /><path d="M 116.79662413953412 112.60449989151573 l 2.5993539888933803 1.9506036926731138 a24.24984552332044,24.24984552332044 0 0,0 -0.2527157496305834,0.3308130285509829 l -2.5654862619084926 -1.994937634464974" fill="#ff2503" stroke="none" /><path d="M 116.35404254752997 113.17365903436017 l 5.730643620139228 4.616200849406971 a28.358640267271397,28.358640267271397 0 0,0 -0.3086408302453531,0.3764916286023099 l -5.650555970655247 -4.713894759707773" fill="#ff5e08" stroke="none" /><path d="M 116.1254893667686 113.45245675266167 l 7.570555490410044 6.315626646236463 a30.859028875504407,30.859028875504407 0 0,0 -0.3428371048355292,0.403861247444615 l -7.461023822067401 -6.444654676130635" fill="#ff800b" stroke="none" /><path d="M 115.89218393027572 113.72728997021213 l 2.9396439944899218 2.539194468085652 a24.884458181149263,24.884458181149263 0 0,0 -0.2820107488808945,0.3208764642273114 l -2.8956221816504417 -2.5892832101242567" fill="#ff2e04" stroke="none" /><path d="M 115.6541949942343 113.99807769240083 l 1.617355721157222 1.446249458969075 a23.169672101108446,23.169672101108446 0 0,0 -0.26766741535565053,0.29421337790549296 l -1.5922906049596917 -1.4738004124322397" fill="#ff1602" stroke="none" /><path d="M 115.41159269507618 114.26474011684316 l 5.802126931531457 5.370362067100018 a28.906039821639492,28.906039821639492 0 0,0 -0.34018852912883624,0.3612684290654157 l -5.709082568666361 -5.469171956109931" fill="#ff6609" stroke="none" /><path d="M 115.16444852881244 114.52719865689866 l 2.1219704754318376 2.032799714549598 a23.938542730347365,23.938542730347365 0 0,0 -0.28682158629384724,0.29430421514012 l -2.0867620879871835 -2.068926621757455" fill="#ff2103" stroke="none" /><path d="M 114.91283532996324 114.78537596483092 l 1.2162133864366582 1.2058184626900526 a22.712650917820653,22.712650917820653 0 0,0 -0.2768867690585551,0.2745202296972007 l -1.1953346972481382 -1.226518702615915" fill="#ff0f01" stroke="none" /><path d="M 114.65682725009322 115.03919595460226 l 5.14539416596978 5.279627698770526 a28.37221471206725,28.37221471206725 0 0,0 -0.35171752983276605,0.3369374374073871 l -5.054004150271702 -5.367177266483494" fill="#ff5f08" stroke="none" /><path d="M 114.39649973595853 115.28858382429668 l 1.9903457453406574 2.113678208250033 a23.903293260080133,23.903293260080133 0 0,0 -0.30114760781755745,0.27873772992319634 l -1.9537683662091327 -2.147533684305609" fill="#ff2003" stroke="none" /><path d="M 114.13192950727249 115.5334660781643 l 1.4648090932947084 1.6100817903153741 a23.17670141528507,23.17670141528507 0 0,0 -0.29659001110281963,0.2652126167929064 l -1.436954055368511 -1.6349899369916674" fill="#ff1602" stroke="none" /><path d="M 113.86319453409587 115.77377054828091 l 1.342523911393891 1.5275457674509902 a23.033658408957066,23.033658408957066 0 0,0 -0.2992406985760163,0.25847698832733945 l -1.316103733055019 -1.5503668882430472" fill="#ff1402" stroke="none" /><path d="M 113.59037401385872 116.0094264158162 l 2.982727234891905 3.5136451827417123 a25.60894393847115,25.60894393847115 0 0,0 -0.3375815693894275,0.2816225516892322 l -2.9219713313405826 -3.5643299183428145" fill="#ff3805" stroke="none" /><path d="M 112.7482090630111 116.68781488649013 l 2.7659313730433635 3.620692954903646 a25.55629167570234,25.55629167570234 0 0,0 -0.3509085866292111,0.26332834534823957 l -2.703369797503386 -3.6676403275159" fill="#ff3705" stroke="none" /><path d="M 112.45986205192187 116.90419585922612 l 6.297654572053218 8.543977926570863 a31.614142071718888,31.614142071718888 0 0,0 -0.4396157059846278,0.3182478689363488 l -6.150057855694622 -8.650826566880289" fill="#ff8a0c" stroke="none" /><path d="M 112.16784306229584 117.11559508785304 l 3.081675044433449 4.33476187873453 a26.31854130611148,26.31854130611148 0 0,0 -0.3704709525348932,0.2586174970934828 l -3.0068090007247976 -4.387024191633135" fill="#ff4206" stroke="none" /><path d="M 111.8722381534696 117.32195027204791 l 3.873315574844233 5.651283179136093 a27.85124624525476,27.85124624525476 0 0,0 -0.3966862444323856,0.2669082087987096 l -3.775733042314844 -5.716941061991923" fill="#ff5708" stroke="none" /><path d="M 111.5731344415666 117.5232005979908 l 6.2682278535957785 9.490895887113158 a32.3739960068841,32.3739960068841 0 0,0 -0.4663618539684113,0.3022901193182551 l -6.104380367370358 -9.597099848135308" fill="#ff940d" stroke="none" /><path d="M 111.27062007382361 117.71928675628689 l 1.381288145781656 2.1716143910316 a23.573687239159504,23.573687239159504 0 0,0 -0.34331805592510134,0.21425585859089308 l -1.3438059610668398 -2.1950060464640404" fill="#ff1b02" stroke="none" /><path d="M 110.96478420261333 117.91015095944535 l 1.3572646048807473 2.216989729677709 a23.599463534877636,23.599463534877636 0 0,0 -0.34732481625942496,0.20855857271125222 l -1.3190070320638858 -2.2399623029248845" fill="#ff1c02" stroke="none" /><line stroke="#e1ed5e" stroke-width="0.3" x1="143.1302829299769" x2="145.66735839644613" y1="173.24464959558577" y2="177.55315839532614" /><path d="M 143.63769802327073 174.10635135553383 a86.0,86.0 0 0,1 -40.68552437913181,11.842963189579606" fill="none" id="id78" stroke="none" /><text fill="#e1ed5e" style="font-size:6.75px; font-family:Arial;" text-anchor="middle"><textPath startOffset="21.407464694133747" xlink:href="#id78">June</textPath></text><path d="M 110.34350942703117 118.27599006163325 l 3.807939915766954 6.7282649614047445 a28.73110314204629,28.73110314204629 0 0,0 -0.4313165355341328,0.2392440115637752 l -3.6918791920767267 -6.792641888401664" fill="#ff6309" stroke="none" /><path d="M 110.02825361518725 118.45085714620011 l 6.802843492801138 12.516465806522886 a35.24572202008039,35.24572202008039 0 0,0 -0.5340753782127486,0.2843650569829805 l -6.586979298801835 -12.631401331228435" fill="#ffba11" stroke="none" /><path d="M 109.71004243097381 118.62028667847754 l 3.08668650331342 5.919128364974529 a27.67560590289625,27.67560590289625 0 0,0 -0.42313731800013715,0.21605692954362646 l -2.9846219635997007 -5.971243246190992" fill="#ff5507" stroke="none" /><path d="M 109.3889696526874 118.78422872680471 l 2.723634226187668 5.449092942612618 a27.091863203921402,27.091863203921402 0 0,0 -0.41778201080876287,0.2043581168101052 l -2.6296919661168356 -5.495044809519946" fill="#ff4d07" stroke="none" /><path d="M 108.4095320186766 119.2426549942271 l 8.478825654289782 19.401212393192818 a42.173037732021854,42.173037732021854 0 0,0 -0.6658619088310664,0.28421685428340815 l -8.144528670288285 -19.54390389713563" fill="#efff19" stroke="none" /><path d="M 108.07796709384702 119.3841803445677 l 1.8482495496483937 4.435126087532557 a25.804827760709777,25.804827760709777 0 0,0 -0.41035271954467123,0.16688687865146942 l -1.7718423689132816 -4.466200222763317" fill="#ff3b05" stroke="none" /><path d="M 107.74402155503746 119.51999308798841 l 1.9485536363469318 4.911628053039783 a26.28402795272018,26.28402795272018 0 0,0 -0.42082948814761606,0.162785886462555 l -1.8639518857057864 -4.944353827640378" fill="#ff4206" stroke="none" /><path d="M 107.407793817531 119.65005319985036 l 2.7250249250879164 7.228452366232689 a28.725042682940035,28.725042682940035 0 0,0 -0.462898383957388,0.16998269839986588 l -2.6005373894764015 -7.274165913641277" fill="#ff6309" stroke="none" /><path d="M 107.06938296918513 119.77432235084164 l 0.7421202506884769 2.0758424213496682 a23.20450997383926,23.20450997383926 0 0,0 -0.3762381766007615,0.13087516822758563 l -0.7063763020426936 -2.0882760221458443" fill="#ff1602" stroke="none" /><path d="M 106.0420521117495 120.11202640906438 l 0.7362156535482357 2.4506224694975933 a23.558820817590778,23.558820817590778 0 0,0 -0.38831666410022936,0.1130333215318749 l -0.6940389770663996 -2.4628994853319863" fill="#ff1b02" stroke="none" /><path d="M 105.3480935250658 120.30758222061773 l 2.5823171858943303 9.805478966753496 a31.139811626258666,31.139811626258666 0 0,0 -0.518099302484429,0.1316988166799775 l -2.413612590184504 -9.848363015268744" fill="#ff840c" stroke="none" /><path d="M 103.2317021107853 120.74984581791261 l 0.3970659137312683 2.5494480020221655 a23.580183414965312,23.580183414965312 0 0,0 -0.4004980680611504,0.05885942409657025 l -0.3532427400624324 -2.555888499417618" fill="#ff1b02" stroke="none" /><path d="M 102.51750503828377 120.84855314841334 l 0.08471079972208702 0.7015269417115104 a21.70662293306732,21.70662293306732 0 0,0 -0.37031922354317987,0.04149504140999682 l -0.07265567457810788 -0.7028777436284781" fill="#ff0000" stroke="none" /><path d="M 102.15924093988457 120.88869738790638 l 1.7975336351968372 17.389507329468 a38.482164978379686,38.482164978379686 0 0,0 -0.6576793244109688,0.06228291580833457 l -1.4987547474008531 -17.417802000781517" fill="#ffe215" stroke="none" /><path d="M 101.80034050326958 120.92268563240118 l 1.079660449356002 12.54729098778162 a33.593656252969964,33.593656252969964 0 0,0 -0.5749810302942943,0.04450716817896206 l -0.864110424286472 -12.563975922955636" fill="#ffa40f" stroke="none" /><path d="M 101.44090949804482 120.95050786540614 l 1.6552917013827815 24.06757805151399 a45.1244337525751,45.1244337525751 0 0,0 -0.7732515401280271,0.046516892501141625 l -1.2418958091222891 -24.092446921839827" fill="#ccff1d" stroke="none" /><path d="M 101.08105385017728 120.97215588758144 l 0.16770526554076123 3.253437348668904 a24.257756841417702,24.257756841417702 0 0,0 -0.4160485295184592,0.017866914004164767 l -0.11183097542147244 -3.2558368310989" fill="#ff2503" stroke="none" /><path d="M 100.72087961077811 120.9876233191556 l 0.09777440348244489 2.8465950761594203 a23.848273751167785,23.848273751167785 0 0,0 -0.40926668296747754,0.010541257984373312 l -0.04889440644422352 -2.8478540514938384" fill="#ff1f03" stroke="none" /><line stroke="#e1ed5e" stroke-width="0.3" x1="101.45913802915013" x2="101.54496967792366" y1="184.9874750549273" y2="189.98673829345242" /><path d="M 101.47630435890484 185.9873277026323 a86.0,86.0 0 0,1 -42.54439059252881,-10.42667462771756" fill="none" id="id79" stroke="none" /><text fill="#e1ed5e" style="font-size:6.75px; font-family:Arial;" text-anchor="middle"><textPath startOffset="22.145653131862474" xlink:href="#id79">July</textPath></text><path d="M 100.36049292484886 120.99690560180557 l 0.05521339675728388 3.215903558034587 a24.21637749864051,24.21637749864051 0 0,0 -0.41570632160613574,0.0035683388003594 l -3.938926408559673e-16 -3.2163774986405116" fill="#ff2503" stroke="none" /><path d="M 100.0 121.0 l 3.9391705633998436e-16 3.216576866197215 a24.216576866197215,24.216576866197215 0 0,0 -0.4157097440153564,-0.0035683681776264237 l 0.05521681916650385 -3.2161028962140237" fill="#ff2503" stroke="none" /><path d="M 99.63950707515114 120.99690560180557 l -0.15023415996454598 8.750386644244829 a29.75167622382127,29.75167622382127 0 0,0 -0.5105765711972948,-0.013150641334256308 l 0.30042404523258476 -8.746518285560525" fill="#ff710a" stroke="none" /><path d="M 99.27912038922189 120.98762331915562 l -0.11382709019784935 3.3139515348608732 a24.315905816194068,24.315905816194068 0 0,0 -0.41704585155473045,-0.017909743303618015 l 0.17069870235341855 -3.3115092231314267" fill="#ff2603" stroke="none" /><path d="M 98.91894614982273 120.97215588758144 l -0.16591511817191493 3.2187089679550427 a24.22298235285771,24.22298235285771 0 0,0 -0.4150846194224729,-0.024970459958417346 l 0.22114408972683414 -3.2153865301719335" fill="#ff2503" stroke="none" /><path d="M 98.55909050195518 120.95050786540614 l -0.3268712053787248 4.752635587838107 a25.763862908994234,25.763862908994234 0 0,0 -0.44096814970727655,-0.03413372366483488 l 0.4084083498612374 -4.746324097178218" fill="#ff3a05" stroke="none" /><path d="M 98.19965949673042 120.92268563240118 l -0.586056852251784 6.810868977346205 a27.836036780229332,27.836036780229332 0 0,0 -0.47573170257405145,-0.04505228685014922 l 0.7028881182108508 -6.799804934990872" fill="#ff5708" stroke="none" /><path d="M 96.41257539226777 120.69131181640829 l -1.1098143029230034 6.401113977585703 a27.49661049632926,27.49661049632926 0 0,0 -0.464385366101115,-0.08462648319408238 l 1.2195344025751755 -6.381119320460254" fill="#ff5207" stroke="none" /><path d="M 95.70440661134978 120.55596938700252 l -0.273688174891118 1.3096969930885907 a22.33798782908535,22.33798782908535 0 0,0 -0.37467994526229365,-0.08165975018407712 l 0.2961305367725481 -1.3048057847707948" fill="#ff0a01" stroke="none" /><path d="M 95.35216902796893 120.47920084513623 l -1.0586199062469068 4.6644746354052105 a25.783095203969996,25.783095203969996 0 0,0 -0.4307837659112561,-0.1016637957916749 l 1.1385358258980507 -4.645614695967308" fill="#ff3b05" stroke="none" /><path d="M 95.00130118170881 120.39639698878247 l -1.0827739794724716 4.418087333774192 a25.548834485830255,25.548834485830255 0 0,0 -0.42507750160047597,-0.10805303865420246 l 1.158456774298326 -4.398849063284727" fill="#ff3705" stroke="none" /><path d="M 94.30408787586889 120.21278271476187 l -1.9281312521686176 6.842257604451919 a28.108739638731286,28.108739638731286 0 0,0 -0.4633123233580517,-0.1348634649433808 l 2.045303587908276 -6.808150445206022" fill="#ff5b08" stroke="none" /><path d="M 93.95794788825049 120.11202640906438 l -1.877767624225831 6.250477710226294 a27.526444886508003,27.526444886508003 0 0,0 -0.45138043525770244,-0.13983881266880435 l 1.9847886923551672 -6.21732230975084" fill="#ff5307" stroke="none" /><path d="M 93.27111125876986 119.89276391827306 l -1.8743890105734355 5.54129805265977 a26.849728051060957,26.849728051060957 0 0,0 -0.43534178207367247,-0.15143447026070214 l 1.9692365646921297 -5.508305149830478" fill="#ff4a06" stroke="none" /><path d="M 92.25597844496254 119.51999308798841 l -1.4047368708920034 3.5408545566892764 a24.809322337118594,24.809322337118594 0 0,0 -0.3945220245413857,-0.1604486728101307 l 1.46531335662383 -3.5162186272998546" fill="#ff2d04" stroke="none" /><path d="M 90.6110303473126 118.78422872680471 l -1.0062648975984074 2.0132038653286015 a23.250679641244563,23.250679641244563 0 0,0 -0.3554838242600877,-0.18151257358972944 l 1.0406759435720774 -1.9956333400660358" fill="#ff1702" stroke="none" /><line stroke="#e1ed5e" stroke-width="0.3" x1="58.13341422392154" x2="55.67067388415222" y1="173.97424548756322" y2="178.32567169271397" /><path d="M 57.64086615596768 174.84453072859336 a86.0,86.0 0 0,1 -31.369924170532247,-30.572349798747897" fill="none" id="id80" stroke="none" /><text fill="#e1ed5e" style="font-size:6.75px; font-family:Arial;" text-anchor="middle"><textPath startOffset="22.145653131862474" xlink:href="#id80">August</textPath></text><path d="M 88.72937992617639 117.7192867562869 l -1.6014668783349137 2.517771929320743 a23.98393559757567,23.98393559757567 0 0,0 -0.3454992911090097,-0.22394846629284848 l 1.644451801700933 -2.4899096213239997" fill="#ff2103" stroke="none" /><path d="M 86.68645165197938 116.24036423190432 l -1.7855796000644226 2.178116780896778 a23.81646715219446,23.81646715219446 0 0,0 -0.3139528274913163,-0.2619106148124985 l 1.8227067617176316 -2.1471439821724094" fill="#ff1f03" stroke="none" /><path d="M 84.83555147118756 114.52719865689866 l -3.0921290292644907 2.96218966324694 a25.282035676482295,25.282035676482295 0 0,0 -0.29753845851021543,-0.3159755320609932 l 3.142523321510959 -2.908672671241457" fill="#ff3404" stroke="none" /><path d="M 83.8745106332314 113.45245675266167 l -2.023327318426799 1.6879316111613811 a23.63495095997061,23.63495095997061 0 0,0 -0.2572306294781086,-0.31377954284798887 l 2.0520047671435373 -1.652949786614897" fill="#ff1c02" stroke="none" /><path d="M 82.18462484594161 111.11811171558189 l -11.141049964581459 6.95283916639157 a34.1325917772163,34.1325917772163 0 0,0 -0.30594510612562575,-0.4997383381888645 l 11.258763035162488 -6.760563712078148" fill="#ffab0f" stroke="none" /><line stroke="#e1ed5e" stroke-width="0.3" x1="26.387840678322732" x2="22.057713659400548" y1="142.50000000000003" y2="145.00000000000006" /><path d="M 25.521815274538298 143.00000000000003 a86.0,86.0 0 0,1 -11.493303480769221,-40.785679425670985" fill="none" id="id81" stroke="none" /><text fill="#e1ed5e" style="font-size:6.75px; font-family:Arial;" text-anchor="middle"><textPath startOffset="21.40746469413373" xlink:href="#id81">September</textPath></text><path d="M 80.5471966667186 107.91128576633889 l -7.88339600611514 3.2061085255968154 a29.51040918329646,29.51040918329646 0 0,0 -0.18681680471996576,-0.47090038566352876 l 7.937271485801229 -3.0703071227197216" fill="#ff6e0a" stroke="none" /><path d="M 80.16572619554312 106.89939002012753 l -59.50282141337066 20.698170060382587 a84.0,84.0 0 0,0 -0.46205831371053074,-1.3659933021033535 l 59.849365148653554 -19.673675083805072" fill="#4dd2ff" stroke="none" /><path d="M 79.73907114497094 105.5222062557868 l -2.0869529620259395 0.5688083100677721 a23.16308010931426,23.16308010931426 0 0,0 -0.10126735290465301,-0.384528633565786 l 2.096409795735325 -0.5328991721291835" fill="#ff1602" stroke="none" /><path d="M 79.64726062577567 105.17358676015961 l -6.065888920831711 1.5419252432013122 a27.258797157241183,27.258797157241183 0 0,0 -0.11138784801207105,-0.45450043108558535 l 6.091464295360074 -1.4375689875076272" fill="#ff4f07" stroke="none" /><path d="M 79.22317932658666 103.0534771498775 l -2.8764345322816176 0.4227368207821923 a23.90733246089043,23.90733246089043 0 0,0 -0.056188473880119404,-0.4065518067395996 l 2.8832675227169497 -0.3732967058425071" fill="#ff2003" stroke="none" /><path d="M 79.06263194458094 101.62068470465958 l -3.4731034041204025 0.2688401689199984 a24.483492829350688,24.483492829350688 0 0,0 -0.028839268068649747,-0.4193166283688551 l 3.4772066333541183 -0.2091801163968" fill="#ff2803" stroke="none" /><line stroke="#e1ed5e" stroke-width="0.3" x1="15.003131293944662" x2="10.003315487706104" y1="100.72959589197737" y2="100.7725132973878" /><path d="M 14.003168132696942 100.73817937305945 a86.0,86.0 0 0,1 10.791469493833604,-42.45332614584628" fill="none" id="id82" stroke="none" /><text fill="#e1ed5e" style="font-size:6.75px; font-family:Arial;" text-anchor="middle"><textPath startOffset="22.145653131862435" xlink:href="#id82">October</textPath></text><path d="M 79.00077361379809 100.18025310272382 l -2.2582687532342236 0.019384521223229156 a23.258351948102224,23.258351948102224 0 0,0 0.0,-0.3992752478940926 l 2.2582687532342236 0.019384521223228326" fill="#ff1702" stroke="none" /><path d="M 79.00696218219943 99.45929381324524 l -3.377854352146456 -0.08700154603701078 a24.378974591992012,24.378974591992012 0 0,0 0.014366544822463375,-0.4182662772307028 l 3.3758631203271423 0.14497408783185212" fill="#ff2703" stroke="none" /><path d="M 79.01933749520258 99.09900007780938 l -2.412089130105396 -0.10358548582747877 a23.414312308804874,23.414312308804874 0 0,0 0.02069202001994663,-0.4014196604693617 l 2.409955520628879 0.14497693967355252" fill="#ff1902" stroke="none" /><path d="M 79.22317932658666 96.9465228501225 l -6.371434023638611 -0.9363813890942295 a27.439874348418744,27.439874348418744 0 0,0 0.07249158498874765,-0.4654479775820386 l 6.354420946511596 1.0456175486077182" fill="#ff5207" stroke="none" /><path d="M 79.2786578344484 96.59031103205396 l -3.384761770345699 -0.5569612612574708 a24.43027959334735,24.43027959334735 0 0,0 0.07164491559390666,-0.4132288342502309 l 3.374702037259558 0.6149831284282944" fill="#ff2803" stroke="none" /><path d="M 80.16572619554312 93.10060997987247 l -1.7423142468146269 -0.6060673380286634 a22.84471584610703,22.84471584610703 0 0,0 0.13202051573704687,-0.3692848791030561 l 1.7316535610336368 0.635887173512641" fill="#ff1101" stroke="none" /><path d="M 80.41425534168474 92.42381321644754 l -5.328362729288902 -2.0611251699573887 a26.713115292124513,26.713115292124513 0 0,0 0.1691084258436919,-0.42626370292605764 l 5.292195628479079 2.152289890097029" fill="#ff4806" stroke="none" /><path d="M 80.68587082218212 91.75594674310238 l -7.1851331798234845 -3.066906100037757 a28.812301315121502,28.812301315121502 0 0,0 0.19807238528672524,-0.45322838006815747 l 7.131426912519783 3.1897965498817813" fill="#ff6509" stroke="none" /><path d="M 81.63589988554816 89.8137432299009 l -0.6806074672544177 -0.37752148909515243 a21.778298785307477,21.778298785307477 0 0,0 0.18414758242220267,-0.325371133459481 l 0.674026519810846 0.3891493926537387" fill="#ff0200" stroke="none" /><line stroke="#e1ed5e" stroke-width="0.3" x1="26.387840678322718" x2="22.05771365940052" y1="57.49999999999999" y2="54.99999999999999" /><path d="M 25.521815274538284 56.99999999999999 a86.0,86.0 0 0,1 29.574782752854787,-30.34633250058573" fill="none" id="id83" stroke="none" /><text fill="#e1ed5e" style="font-size:6.75px; font-family:Arial;" text-anchor="middle"><textPath startOffset="21.40746469413373" xlink:href="#id83">November</textPath></text><path d="M 82.18462484594161 88.88188828441811 l -3.3635674578635744 -2.099114862080464 a24.964829031346234,24.964829031346234 0 0,0 0.2300120356738032,-0.36161712406287716 l 3.327037730563881 2.156545660822013" fill="#ff2f04" stroke="none" /><path d="M 82.37810715431573 88.57770195909679 l -7.168514115139832 -4.64654424190316 a29.542714323382377,29.542714323382377 0 0,0 0.279495968762029,-0.4231925198549643 l 7.087693707457074 4.768916640097185" fill="#ff6e0a" stroke="none" /><path d="M 82.576782715395 88.27688183743585 l -3.2088711285409275 -2.1590717026507376 a24.867614838213687,24.867614838213687 0 0,0 0.24134643452151192,-0.3521316606924642 l 3.1713349572041025 2.2138380984132366" fill="#ff2e04" stroke="none" /><path d="M 82.78059297857968 87.97951657250589 l -3.7454829443413185 -2.6146379840147995 a25.5678194221975,25.5678194221975 0 0,0 0.25432054480043736,-0.3577336956962028 l 3.7000473010109087 2.678548906420523" fill="#ff3805" stroke="none" /><path d="M 82.98947788004972 87.6856937992154 l -5.831138648662602 -4.22129469704193 a28.198715639556895,28.198715639556895 0 0,0 0.28722134883959066,-0.3896709221581352 l 5.757815280239193 4.320771928468929" fill="#ff5c08" stroke="none" /><path d="M 83.2033758604659 87.39550010848427 l -3.5916088308354888 -2.695210224540308 a25.49041336050503,25.49041336050503 0 0,0 0.2656441219222803,-0.3477366828871354 l 3.5448127315589018 2.7564678206683273" fill="#ff3705" stroke="none" /><path d="M 84.58840730492382 85.73525988315684 l -2.656762481624574 -2.459059689830878 a24.62013279340953,24.62013279340953 0 0,0 0.28974867583473696,-0.30770305280621574 l 2.6141579720535657 2.504304202581605" fill="#ff2a04" stroke="none" /><path d="M 85.34317274990677 84.96080404539775 l -1.3695849108522502 -1.4053147723797061 a22.962313032495782,22.962313032495782 0 0,0 0.28465342240630676,-0.272691539544324 l 1.345259002580643 1.4286184422295987" fill="#ff1302" stroke="none" /><path d="M 85.86807049272753 84.46653392183569 l -2.2004444005013735 -2.4186738572736957 a24.26985302231722,24.26985302231722 0 0,0 0.31057896671203045,-0.2777216271588419 l 2.158600406965951 2.4560910143159385" fill="#ff2503" stroke="none" /><path d="M 86.40962598614128 83.9905735841838 l -9.972318307319005 -11.747365890984081 a36.409339304433075,36.409339304433075 0 0,0 0.4799542664606982,-0.40039491924652654 l 9.769189706696398 11.916822994142489" fill="#ffc812" stroke="none" /><path d="M 86.96720088162412 83.53348406188908 l -4.1012064046166365 -5.181740316390161 a27.608352796255033,27.608352796255033 0 0,0 0.37414584051504374,-0.2909380685853834 l 4.011650619466348 5.251379436596348" fill="#ff5407" stroke="none" /><path d="M 87.54013794807813 83.09580414077388 l -7.822785056835888 -10.613110338969127 a34.184615167405845,34.184615167405845 0 0,0 0.4753598467590756,-0.3441238703475108 l 7.639444199702845 10.745834980689718" fill="#ffac0f" stroke="none" /><path d="M 87.83215693770416 82.88440491214696 l -1.9063897360423927 -2.681575907470995 a24.29016278825481,24.29016278825481 0 0,0 0.341918636018879,-0.23868576268065614 l 1.8600760088497483 2.7139064859567776" fill="#ff2603" stroke="none" /><path d="M 88.4268655584334 82.4767994020092 l -5.2380594944009955 -7.931089691218871 a30.50470677911963,30.50470677911963 0 0,0 0.43943390878429467,-0.284835750584113 l 5.101139953359675 8.01983928350689" fill="#ff7b0b" stroke="none" /><line stroke="#e1ed5e" stroke-width="0.3" x1="56.869717070023135" x2="54.33264160355391" y1="26.7553504044142" y2="22.446841604673864" /><path d="M 56.362301976729285 25.89364864446614 a86.0,86.0 0 0,1 42.16139366436587,-11.88097634709845" fill="none" id="id84" stroke="none" /><text fill="#e1ed5e" style="font-size:6.75px; font-family:Arial;" text-anchor="middle"><textPath startOffset="22.145653131862474" xlink:href="#id84">December</textPath></text><path d="M 89.34428304082924 81.90426304109057 l -3.3991871297272858 -5.772562879564528 a27.69902644728545,27.69902644728545 0 0,0 0.41180212808459576,-0.23775406950250083 l 3.29959253378229 5.830063846343203" fill="#ff5507" stroke="none" /><path d="M 89.97174638481275 81.54914285379989 l -3.194216136478205 -5.876997919058521 a27.688955170066244,27.688955170066244 0 0,0 0.4195683435380752,-0.22339651065309044 l 3.092858977153568 5.930964897434187" fill="#ff5507" stroke="none" /><path d="M 90.28995756902619 81.37971332152246 l -3.1051611024659076 -5.954555844816623 a27.71556109206871,27.71556109206871 0 0,0 0.4237482000760686,-0.21636885028430727 l 3.0024856806762568 6.006982646773764" fill="#ff5607" stroke="none" /><path d="M 90.93487009805054 81.0573650232925 l -0.9665647078686894 -2.019748491258474 a23.239113954768307,23.239113954768307 0 0,0 0.3613253802789356,-0.169118522358537 l 0.9317506137182312 2.036043245187554" fill="#ff1702" stroke="none" /><path d="M 91.26138138417902 80.90454125486306 l -5.498360273837081 -12.014909494375718 a34.21325152484995,34.21325152484995 0 0,0 0.5361486915027468,-0.23981249017313894 l 5.291298179478716 12.107525735458703" fill="#ffac0f" stroke="none" /><path d="M 91.92203290615298 80.6158196554323 l -1.2865866781122122 -3.0873396620347346 a24.34469303061859,24.34469303061859 0 0,0 0.3871334110125354,-0.1574437880106342 l 1.233398805909236 3.10897070662466" fill="#ff2603" stroke="none" /><path d="M 92.592206182469 80.34994680014964 l -2.382880220734632 -6.320872888699397 a27.755113042833806,27.755113042833806 0 0,0 0.44726815956004723,-0.16424306349999554 l 2.2740229095204576 6.360846801208115" fill="#ff5608" stroke="none" /><path d="M 92.93061703081487 80.22567764915836 l -1.0830903240050653 -3.029596401172537 a24.21738076763553,24.21738076763553 0 0,0 0.3926608746461057,-0.13658783510486366 l 1.0309236773139552 3.0477426688459865" fill="#ff2503" stroke="none" /><path d="M 93.27111125876988 80.10723608172694 l -1.6217230071136646 -4.794335909237568 a26.06118981292014,26.06118981292014 0 0,0 0.42501737813194995,-0.13971165410978045 l 1.5391828913339536 4.821468484749377" fill="#ff3f05" stroke="none" /><path d="M 93.61358852112211 79.99465700312896 l -0.9884416201966619 -3.0962792970382655 a24.250224964799326,24.250224964799326 0 0,0 0.3976567676952014,-0.12319508312863554 l 0.9351442196298444 3.112790967973543" fill="#ff2503" stroke="none" /><path d="M 93.95794788825049 79.88797359093562 l -4.392910947178125 -14.622571826301613 a36.26817845734019,36.26817845734019 0 0,0 0.5978031829602274,-0.17401179408278597 l 4.141247751836273 14.69582731468692" fill="#ffc712" stroke="none" /><path d="M 94.30408787586887 79.78721728523814 l -1.0393191750505273 -3.6881770994292515 a24.8318187149684,24.8318187149684 0 0,0 0.41128420941354105,-0.11209734017530036 l 0.9758535647023087 3.705474933748692" fill="#ff2d04" stroke="none" /><path d="M 94.6519064749342 79.69241777938228 l -0.8488223965592732 -3.2231168972717463 a24.33301395052275,24.33301395052275 0 0,0 0.40484887019931814,-0.10291099965547568 l 0.7933682331345769 3.2372131287624852" fill="#ff2603" stroke="none" /><path d="M 95.00130118170881 79.60360301121753 l -1.7198401469493292 -7.0175346964424925 a28.225208879114355,28.225208879114355 0 0,0 0.4715865833169589,-0.11129314959910848 l 1.5991214098924642 7.046023989687833" fill="#ff5d08" stroke="none" /><path d="M 95.35216902796891 79.52079915486377 l -0.7413540293060377 -3.2665426421208057 a24.349612907421076,24.349612907421076 0 0,0 0.40842137175094867,-0.08901353704339098 l 0.6851702409359706 3.278787637297911" fill="#ff2603" stroke="none" /><path d="M 96.05791012581881 79.37332000966035 l -1.328352998715944 -6.950504197830597 a28.076300607892403,28.076300607892403 0 0,0 0.4741756493332999,-0.08641059893048177 l 1.2088426158316055 6.97228297069244" fill="#ff5a08" stroke="none" /><path d="M 98.5590905019552 79.04949213459386 l -0.45563809903116587 -6.624877961096125 a27.640528147422152,27.640528147422152 0 0,0 0.4736476268519484,-0.02849346506059821 l 0.34184612004673365 6.631723403981417" fill="#ff5407" stroke="none" /><path d="M 99.63950707515114 79.00309439819443 l -0.2229802279587852 -12.987480404733772 a33.989394421812136,33.989394421812136 0 0,0 0.5834731528076341,-0.005008415272799596 l 3.1814840603069436e-15 12.989394421812136" fill="#ffa90f" stroke="none" /></svg>