<?xml version="1.0" encoding="utf-8" ?>
<svg baseProfile="full" height="200mm" version="1.1" viewBox="0,0,200,200" width="200mm" xmlns="http://www.w3.org/2000/svg" xmlns:ev="http://www.w3.org/2001/xml-events" xmlns:xlink="http://www.w3.org/1999/xlink"><defs /><rect fill="#1a1a1a" height="200" width="200" x="0" y="0" /><text alignment-baseline="middle" fill="#e1ed5e" style="dominant-baseline: central; font-size:9.0px; font-family:Arial;" text-anchor="middle" x="100.0" y="100.0">2015</text><line stroke="#e1ed5e" stroke-width="0.3" x1="100.0" x2="100.0" y1="15.0" y2="10.0" /><path d="M 100.0 14.0 a86.0,86.0 0 0,1 42.46469731375804,11.215312516191453" fill="none" id="id25" stroke="none" /><text fill="#e1ed5e" style="font-size:6.75px; font-family:Arial;" text-anchor="middle"><textPath startOffset="22.20632615414155" xlink:href="#id25">January</textPath></text><path d="M 110.36928655335952 81.73862282372117 l 11.340346298406418 -19.971512986852733 a43.96660151506547,43.96660151506547 0 0,0 0.6548998388717774,0.3793602575342006 l -11.682442869743523 19.773348571928484" fill="#efff19" stroke="none" /><line stroke="#e1ed5e" stroke-width="0.3" x1="143.23703022742887" x2="145.7803849466894" y1="26.81831364943548" y2="22.513508569990506" /><path d="M 143.74570117128098 25.957352633546492 a86.0,86.0 0 0,1 28.547481713284135,27.462654790039103" fill="none" id="id26" stroke="none" /><text fill="#e1ed5e" style="font-size:6.75px; font-family:Arial;" text-anchor="middle"><textPath startOffset="19.985693538727396" xlink:href="#id26">February</textPath></text><path d="M 111.2981086023043 82.29822771554956 l 9.799081017125692 -15.353109698968723 a39.21373015636173,39.21373015636173 0 0,0 0.5658596799702361,0.3680508762636598 l -10.061907722880209 15.182159898545535" fill="#ffd313" stroke="none" /><path d="M 111.60114157652 82.49532879139004 l 4.639076328486088 -6.999785780232986 a29.397501423082456,29.397501423082456 0 0,0 0.4193977820253576,0.28317925457487975 l -4.7588788049179875 6.918894613359436" fill="#ff4b07" stroke="none" /><path d="M 111.90073688211348 82.69761687909136 l 4.624756012192343 -6.7238945921025 a29.160828797249362,29.160828797249362 0 0,0 0.4111244452760892,0.28801894714835385 l -4.739811597052083 6.643290802190211" fill="#ff4806" stroke="none" /><path d="M 112.48926042617603 83.11751280151076 l 27.94171385990642 -37.770501250421354 a67.98244499956306,67.98244499956306 0 0,0 0.9347710700253818,0.7040501901064823 l -28.587731083690183 37.28393447080903" fill="#38ff84" stroke="none" /><path d="M 113.34407831869373 83.78471172551755 l 9.352450940061376 -11.364793014861075 a35.71824917770079,35.71824917770079 0 0,0 0.4713830263150466,0.3947697282887389 l -9.54669150333554 11.202122129178518" fill="#ffa40f" stroke="none" /><path d="M 113.6212207817346 84.01681056812373 l 14.282395156618998 -16.759013820204977 a43.01934049047871,43.01934049047871 0 0,0 0.5594689840988614,0.48516598991161564 l -14.568757939364623 16.51068283687369" fill="#faff18" stroke="none" /><path d="M 114.16331599549186 84.49514656593476 l 5.534549002447061 -6.058776852391594 a29.206095880963368,29.206095880963368 0 0,0 0.3682639968767094,0.3422612502366389 l -5.638020883118617 5.962611016080314" fill="#ff4906" stroke="none" /><path d="M 114.94478906791727 85.2469230424477 l 5.893224845635154 -5.817626416853219 a29.2809948802834,29.2809948802834 0 0,0 0.3510034669377922,0.36173992675520517 l -5.992492576276056 5.715322294547899" fill="#ff4a06" stroke="none" /><path d="M 115.19652480421416 85.50635884689758 l 5.987682620916266 -5.710734813670173 a29.27434802754194,29.27434802754194 0 0,0 0.34464645049609,0.3676448036104001 l -6.085096393382819 5.606820593181719" fill="#ff4a06" stroke="none" /><path d="M 115.4437574822437 85.77008943001954 l 19.927555800681905 -18.36129175480952 a48.096946600946154,48.096946600946154 0 0,0 0.5557633314128825,0.613687751550898 l -20.240662772710824 18.015551215989074" fill="#bdff1f" stroke="none" /><path d="M 116.15771136456269 86.58626213691792 l 6.609917906199894 -5.487392619521358 a29.590837705804915,29.590837705804915 0 0,0 0.3219786207856515,0.3947077179025459 l -6.703395019061955 5.3728007320107105" fill="#ff4e07" stroke="none" /><line stroke="#e1ed5e" stroke-width="0.3" x1="172.23445277983987" x2="176.4835382374775" y1="55.19839476539836" y2="52.563006222186495" /><path d="M 173.08426987136738 54.67131705675599 a86.0,86.0 0 0,1 12.851231095245387,41.99856678651699" fill="none" id="id27" stroke="none" /><text fill="#e1ed5e" style="font-size:6.75px; font-family:Arial;" text-anchor="middle"><textPath startOffset="22.20632615414155" xlink:href="#id27">March</textPath></text><path d="M 119.04729006885535 91.15688171328212 l 12.459560288262836 -5.784621593481216 a34.736902473142386,34.736902473142386 0 0,0 0.2471244164456026,0.544505894055152 l -12.557287021671785 5.569293690584001" fill="#ff970d" stroke="none" /><path d="M 119.34039704204932 91.81776055985345 l 7.715289201266847 -3.264066578234694 a29.377339558972977,29.377339558972977 0 0,0 0.19302075029135585,0.46741505709909603 l -7.7703316384444 3.130776950682295" fill="#ff4b07" stroke="none" /><path d="M 119.85752413597 93.16781622104841 l 12.962957649378236 -4.460037836181741 a34.70876393114078,34.70876393114078 0 0,0 0.18951432391339898,0.5666237066626143 l -13.037809267063404 4.2362410265968125" fill="#ff960d" stroke="none" /><path d="M 120.08093135843002 93.85539295169968 l 8.046959309445803 -2.4623062550059083 a29.41525437650685,29.41525437650685 0 0,0 0.1439864135649569,0.4854506070606095 l -8.088151620122463 2.323426261198769" fill="#ff4c07" stroke="none" /><path d="M 120.18372546131832 94.20196356495316 l 18.698281281829026 -5.371323364092073 a40.45448116954135,40.45448116954135 0 0,0 0.18650137938502623,0.6709446913048625 l -18.787969431780414 5.048667369368259" fill="#ffe315" stroke="none" /><path d="M 120.37134235888165 94.90015583598534 l 8.10405496710767 -2.028801867876854 a29.35414531409426,29.35414531409426 0 0,0 0.11848898566727425,0.4912133416851697 l -8.137776753035764 1.889003294532278" fill="#ff4b07" stroke="none" /><path d="M 120.53481517161879 95.60439243477599 l 13.633711250753343 -2.918382455115468 a34.94256212549344,34.94256212549344 0 0,0 0.12083587924225218,0.5892386611742658 l -13.681926425910593 2.68326813777779" fill="#ff9a0e" stroke="none" /><path d="M 120.6074358757038 95.95851677861258 l 40.14583112741429 -7.87330863911068 a61.91059454270447,61.91059454270447 0 0,0 0.19609230372943828,1.0475329275404535 l -40.27540915505359 7.1810976341076636" fill="#31ff3b" stroke="none" /><path d="M 120.73433829027371 96.67025291283417 l 12.460347517137798 -2.0010190472162814 a33.61999752278757,33.61999752278757 0 0,0 0.08684222515221728,0.5721817598104894 l -12.492945635729315 1.7862381750137097" fill="#ff870c" stroke="none" /><path d="M 120.78858239683441 97.02765380044208 l 17.81245752418293 -2.546820625674507 a38.993608263774725,38.993608263774725 0 0,0 0.08928422364255763,0.6652711722679149 l -17.85365774688332 2.239831111341928" fill="#ffd013" stroke="none" /><path d="M 120.83666639777658 97.38593545837742 l 8.351751405970967 -1.047769196569987 a29.41721877085412,29.41721877085412 0 0,0 0.05870786925250925,0.5029731714639453 l -8.368549628227065 0.9038522867811889" fill="#ff4c07" stroke="none" /><path d="M 120.96714384426684 98.82574320788733 l 22.93982767476608 -1.284736188059959 a43.97577508640077,43.97577508640077 0 0,0 0.03582223032683891,0.7561506648259196 l -22.95854351332641 0.8896744166110397" fill="#efff19" stroke="none" /><line stroke="#e1ed5e" stroke-width="0.3" x1="184.98032266829074" x2="189.97916517819016" y1="98.17113171792111" y2="98.06355123074" /><path d="M 185.9800911702706 98.14961562048488 a86.0,86.0 0 0,1 -9.607161424134198,41.387399972396054" fill="none" id="id28" stroke="none" /><text fill="#e1ed5e" style="font-size:6.75px; font-family:Arial;" text-anchor="middle"><textPath startOffset="21.466115282336823" xlink:href="#id28">April</textPath></text><path d="M 120.99513854157772 99.54816195383933 l 11.31805378381195 -0.2435767355329224 a32.32067449754443,32.32067449754443 0 0,0 0.00718287418241297,0.5563215212329611 l -11.320569665112078 0.048718956239498526" fill="#ff750a" stroke="none" /><path d="M 120.92983693683757 101.71520430193887 l 8.285613036536649 0.6790076371524643 a29.313388885559093,29.313388885559093 0 0,0 -0.045541006994212284,0.5025412173102262 l -8.272697433265362 -0.821530243011261" fill="#ff4a06" stroke="none" /><line stroke="#e1ed5e" stroke-width="0.3" x1="174.80103733775053" x2="179.2010983576182" y1="140.37084112569926" y2="142.7455964860345" /><path d="M 175.68104954172406 140.8457921977663 a86.0,86.0 0 0,1 -30.038265399797805,32.042727171017184" fill="none" id="id29" stroke="none" /><text fill="#e1ed5e" style="font-size:6.75px; font-family:Arial;" text-anchor="middle"><textPath startOffset="22.206326154141568" xlink:href="#id29">May</textPath></text><path d="M 115.32070863581623 114.36230785411682 l 34.95728740100911 32.77050267925702 a68.9157363325238,68.9157363325238 0 0,0 -0.8187630819933028,0.8584698180983132 l -34.388017767636846 -33.36737961393784" fill="#3aff8f" stroke="none" /><path d="M 112.92097659922987 116.55440617244103 l 4.93888102516923 6.327713845785194 a29.026986252319006,29.026986252319006 0 0,0 -0.3965242121049824,0.3040378571822823 l -4.829228084570754 -6.411791044794848" fill="#ff4606" stroke="none" /><path d="M 112.63410532772338 116.77436683061366 l 11.631172317652752 15.442767498404539 a40.332957287821,40.332957287821 0 0,0 -0.5581601702527087,0.4129135502278735 l -11.363627176981478 -15.640690997372182" fill="#ffe115" stroke="none" /><path d="M 112.34349029814194 116.9893568818739 l 4.796670900462549 6.602051105846835 a29.160583957754348,29.160583957754348 0 0,0 -0.408626807749301,0.29154437761447294 l -4.682316764864364 -6.683639745305527" fill="#ff4806" stroke="none" /><path d="M 112.04921762599082 117.19931262002967 l 18.378982727732776 26.2345555856294 a53.031842171217356,53.031842171217356 0 0,0 -0.7521509088791873,0.5173362536052619 l -17.924674934230705 -26.547032628599755" fill="#84ff25" stroke="none" /><line stroke="#e1ed5e" stroke-width="0.3" x1="143.8653032363475" x2="146.44561519142675" y1="172.8068346515853" y2="177.08958963109032" /><path d="M 144.38136562736335 173.6633856474863 a86.0,86.0 0 0,1 -40.68145358897372,12.25698825130547" fill="none" id="id30" stroke="none" /><text fill="#e1ed5e" style="font-size:6.75px; font-family:Arial;" text-anchor="middle"><textPath startOffset="21.466115282336833" xlink:href="#id30">June</textPath></text><path d="M 105.53697534728816 120.25689768951611 l 2.334664958369757 8.541318361505306 a29.854647357203298,29.854647357203298 0 0,0 -0.496880217992144,0.13123058164575044 l -2.1872942975661154 -8.58024029245464" fill="#ff5207" stroke="none" /><path d="M 101.98527174616119 120.90594882070398 l 3.409234526844253 35.901020942750066 a57.062531591539795,57.062531591539795 0 0,0 -0.9786378569878974,0.08444099219426142 l -2.790752352114814 -35.954386187222994" fill="#58ff2a" stroke="none" /><path d="M 101.26447882468166 120.96189622390904 l 0.1992954095571868 3.3038194167394828 a24.30982498007,24.30982498007 0 0,0 -0.4179112796469198,0.02160123960500751 l -0.1423960614967874 -3.3067604631066922" fill="#ff0000" stroke="none" /><line stroke="#e1ed5e" stroke-width="0.3" x1="102.19456741930631" x2="102.32365962044197" y1="184.97166512339345" y2="189.96999836594603" /><path d="M 102.22038585953345 185.97133177190398 a86.0,86.0 0 0,1 -42.740103519485714,-10.115201625700543" fill="none" id="id31" stroke="none" /><text fill="#e1ed5e" style="font-size:6.75px; font-family:Arial;" text-anchor="middle"><textPath startOffset="22.20632615414155" xlink:href="#id31">July</textPath></text><path d="M 99.45781275523022 120.99299961872073 l -0.6354213311602301 24.602939097982315 a45.61114325924581,45.61114325924581 0 0,0 -0.7846846569722762,-0.027026126171005204 l 1.0588263398071494 -24.58835617338522" fill="#daff1b" stroke="none" /><path d="M 98.37488393609728 120.93702456842531 l -1.7961129838184309 23.140046735840585 a44.20964852787581,44.20964852787581 0 0,0 -0.7582074346649409,-0.06542132783339182 l 2.1941647362249133 -23.10570115572853" fill="#ecff1a" stroke="none" /><path d="M 97.65516085044442 120.86867818915974 l -2.5913210601526506 23.06232617250834 a44.207452107544114,44.207452107544114 0 0,0 -0.7554686789603164,-0.09147673608251446 l 2.9879171621643565 -23.014303907700477" fill="#ecff1a" stroke="none" /><path d="M 95.51606077576429 120.51570834832081 l -4.991080448528085 22.83607018390436 a44.37513605282085,44.37513605282085 0 0,0 -0.7448257774556994,-0.16951992200437357 l 5.383426375376647 -22.7467735283223" fill="#eaff1a" stroke="none" /><path d="M 94.81253420990036 120.34920634021253 l -5.554061870791719 21.787276409754718 a43.48406139067488,43.48406139067488 0 0,0 -0.7237188114958474,-0.19114071589397236 l 5.928271125099056 -21.688444344557166" fill="#f5ff19" stroke="none" /><path d="M 93.08242187328487 119.8279376855182 l -3.111046208259747 8.917229299647085 a30.444341527730337,30.444341527730337 0 0,0 -0.4933149481616542,-0.17688518910560505 l 3.264080717051128 -8.862356569501523" fill="#ff5b08" stroke="none" /><path d="M 91.40352486487194 119.15986991738527 l -7.2366735707226075 16.129136892752705 a38.6781928169808,38.6781928169808 0 0,0 -0.6050963907741382,-0.27777007490059213 l 7.513237957264165 -16.00217974751804" fill="#ffcc13" stroke="none" /><line stroke="#e1ed5e" stroke-width="0.3" x1="58.666819895761336" x2="56.23545636021788" y1="174.27360380694188" y2="178.64263932499728" /><path d="M 58.180547188652646 175.14741091055294 a86.0,86.0 0 0,1 -31.652253787137756,-30.449443065178592" fill="none" id="id32" stroke="none" /><text fill="#e1ed5e" style="font-size:6.75px; font-family:Arial;" text-anchor="middle"><textPath startOffset="22.20632615414155" xlink:href="#id32">August</textPath></text><path d="M 89.7882731507175 118.34994917583269 l -28.250498460519037 50.76469617662052 a79.09599849535576,79.09599849535576 0 0,0 -1.1839964123149247,-0.6723040633206412 l 29.12014363975517 -50.27088894750524" fill="#47fffc" stroke="none" /><path d="M 89.4739219176387 118.17145234162733 l -31.57823424708386 54.51435702488198 a84.0,84.0 0 0,0 -1.2449285158864716,-0.735525710825002 l 32.511930633998716 -53.962712741763234" fill="#4dd2ff" stroke="none" /><path d="M 89.1626897886671 117.98757091392108 l -30.021975084041397 49.82992968453081 a79.17508814185061,79.17508814185061 0 0,0 -1.1613130473753714,-0.7133733245865643 l 30.87526733134908 -49.30576789311586" fill="#47fffd" stroke="none" /><path d="M 88.8546689885994 117.79835938074946 l -26.55120081795293 42.40051853686391 a71.02769470073756,71.02769470073756 0 0,0 -1.0306395778080968,-0.657802941581019 l 27.27712219780795 -41.93720116645909" fill="#3cffa7" stroke="none" /><path d="M 87.36589467227662 116.77436683061367 l -7.487904613843276 9.941729590431184 a33.446152126471475,33.446152126471475 0 0,0 -0.45689238988195924,-0.35032560167050864 l 7.657925732218723 -9.811364646933308" fill="#ff850c" stroke="none" /><path d="M 83.50135304334701 112.99209946851258 l -18.16598891186203 14.305072137544993 a44.12224560907224,44.12224560907224 0 0,0 -0.46473999703603774,-0.6007390937511269 l 18.409535726116136 -13.990255049680615" fill="#edff1a" stroke="none" /><path d="M 83.28015986056508 112.70617746262583 l -7.694839965708839 5.847663693877076 a30.664664131492522,30.664664131492522 0 0,0 -0.31575657757212394,-0.4230075358602988 l 7.794357809976049 -5.714343278507469" fill="#ff5e08" stroke="none" /><path d="M 82.85270091963577 112.12312394758628 l -9.752132383113834 6.894748209596618 a32.943267513185546,32.943267513185546 0 0,0 -0.3233759657277721,-0.46584719715005585 l 9.86936925600374 -6.725859750259549" fill="#ff7e0b" stroke="none" /><line stroke="#e1ed5e" stroke-width="0.3" x1="26.63291911575756" x2="22.317208475507996" y1="142.92168965132927" y2="145.44649492493687" /><path d="M 25.769776987707644 143.4266507060508 a86.0,86.0 0 0,1 -11.730757126820373,-40.83630448921669" fill="none" id="id33" stroke="none" /><text fill="#e1ed5e" style="font-size:6.75px; font-family:Arial;" text-anchor="middle"><textPath startOffset="21.46611528233685" xlink:href="#id33">September</textPath></text><path d="M 80.87730276802145 108.67885076344099 l -21.214959074711366 9.628425400890894 a44.29766220551322,44.29766220551322 0 0,0 -0.30915320579905703,-0.6970588650141181 l 21.377553365241702 -9.26181819938408" fill="#ebff1a" stroke="none" /><path d="M 80.58989483394504 108.01547362559985 l -21.67031657265281 8.948836158305136 a44.445346850647795,44.445346850647795 0 0,0 -0.28592619847362666,-0.7096453759746659 l 21.821145385383826 -8.574491414487664" fill="#e9ff1a" stroke="none" /><path d="M 79.67330655649465 105.27499134158121 l -22.438859555425754 5.82312072540489 a44.182130038690616,44.182130038690616 0 0,0 -0.1846995775114983,-0.7377830000330016 l 22.535770447232313 -5.436009885974497" fill="#ecff1a" stroke="none" /><path d="M 79.04373962182676 101.35467743843564 l -10.156708334933558 0.6565610171763432 a31.177907278521673,31.177907278521673 0 0,0 -0.030010441799481462,-0.5358565982042712 l 10.166505127620571 -0.48163270263663444" fill="#ff6509" stroke="none" /><line stroke="#e1ed5e" stroke-width="0.3" x1="15.007084014347285" x2="10.007500721073583" y1="101.09737516637583" y2="101.16192664675087" /><path d="M 14.007167355692545 101.11028546245083 a86.0,86.0 0 0,1 10.666146001902534,-42.60595125391555" fill="none" id="id34" stroke="none" /><text fill="#e1ed5e" style="font-size:6.75px; font-family:Arial;" text-anchor="middle"><textPath startOffset="22.20632615414155" xlink:href="#id34">October</textPath></text><path d="M 79.32604984820605 96.31383870115002 l -22.824112743707186 -4.069534871599835 a44.184072908111375,44.184072908111375 0 0,0 0.13994626781890113,-0.7475985586306663 l 22.75068075197842 4.461811507693073" fill="#ecff1a" stroke="none" /><path d="M 79.54389044137918 95.25157060432595 l -22.736576672769747 -5.277788952028652 a44.34110055286368,44.34110055286368 0 0,0 0.1789843298676139,-0.7420055989881896 l 22.64235954264132 5.668379782676238" fill="#eaff1a" stroke="none" /><path d="M 79.81627453868168 94.20196356495316 l -17.000156222609967 -4.883514957091719 a38.687680173761706,38.687680173761706 0 0,0 0.18937454172814455,-0.638476811579731 l 16.913575783770117 5.175421155417989" fill="#ffcc13" stroke="none" /><path d="M 81.10775173730289 90.83032412892265 l -7.725562233476757 -3.7497337859302897 a29.58748014778896,29.58748014778896 0 0,0 0.22633011560390356,-0.4562677022066087 l 7.65987210491944 3.8821610766358603" fill="#ff4e07" stroke="none" /><line stroke="#e1ed5e" stroke-width="0.3" x1="26.266209847984243" x2="21.928928074336255" y1="57.711370442889674" y2="55.22380399835377" /><path d="M 25.398753493254645 57.213857153982495 a86.0,86.0 0 0,1 29.58750427330803,-30.492523968695096" fill="none" id="id35" stroke="none" /><text fill="#e1ed5e" style="font-size:6.75px; font-family:Arial;" text-anchor="middle"><textPath startOffset="21.46611528233685" xlink:href="#id35">November</textPath></text><line stroke="#e1ed5e" stroke-width="0.3" x1="56.762969772571076" x2="54.21961505331055" y1="26.818313649435495" y2="22.513508569990535" /><path d="M 56.25429882871897 25.957352633546506 a86.0,86.0 0 0,1 42.265352541879196,-11.944610805530505" fill="none" id="id36" stroke="none" /><text fill="#e1ed5e" style="font-size:6.75px; font-family:Arial;" text-anchor="middle"><textPath startOffset="22.20632615414155" xlink:href="#id36">December</textPath></text></svg>