<?xml version="1.0" encoding="utf-8" ?>
<svg baseProfile="full" height="200mm" version="1.1" viewBox="0,0,200,200" width="200mm" xmlns="http://www.w3.org/2000/svg" xmlns:ev="http://www.w3.org/2001/xml-events" xmlns:xlink="http://www.w3.org/1999/xlink"><defs /><rect fill="#1a1a1a" height="200" width="200" x="0" y="0" /><text alignment-baseline="middle" fill="#e1ed5e" style="dominant-baseline: central; font-size:9.0px; font-family:Arial;" text-anchor="middle" x="100.0" y="100.0">2019</text><line stroke="#e1ed5e" stroke-width="0.3" x1="100.0" x2="100.0" y1="15.0" y2="10.0" /><path d="M 100.0 14.0 a86.0,86.0 0 0,1 42.46469731375804,11.215312516191453" fill="none" id="id61" stroke="none" /><text fill="#e1ed5e" style="font-size:6.75px; font-family:Arial;" text-anchor="middle"><textPath startOffset="22.20632615414155" xlink:href="#id61">January</textPath></text><path d="M 100.0 79.0 l 0.0 -6.007473839225501 a27.0074738392255,27.0074738392255 0 0,0 0.46488926606397646,0.004001448683791991 l -0.1034087867914481 6.006583767150268" fill="#ff4b07" stroke="none" /><path d="M 102.52436894288641 79.15227682838746 l 0.18993904488138913 -1.5686283252399675 a22.580085967128245,22.580085967128245 0 0,0 0.3854584880115306,0.05004357447657593 l -0.21691226140076586 1.565126427599255" fill="#ff0d01" stroke="none" /><path d="M 102.88285421437855 79.19881850522331 l 0.5297566929085874 -3.8224496619714157 a24.858984785145807,24.858984785145807 0 0,0 0.42334971782001085,0.06239074363503496 l -0.595475391157254 3.812764434175412" fill="#ff2d04" stroke="none" /><path d="M 104.307194497241 79.44645832069477 l 0.9596178524747229 -4.579209399454473 a25.678677713504147,25.678677713504147 0 0,0 0.43183866041145896,0.09438320505851974 l -1.0382992370397097 4.562012696300083" fill="#ff3905" stroke="none" /><path d="M 104.66035177308747 79.52364482259891 l 0.6502331079662349 -2.856952589654245 a23.930013855637466,23.930013855637466 0 0,0 0.400857716431994,0.0948700702860701 l -0.6993145113607524 2.8453366072273063" fill="#ff2003" stroke="none" /><path d="M 105.01212808612495 79.60689891045804 l 0.9661685368515615 -3.931099186410046 a25.048088740998104,25.048088740998104 0 0,0 0.41781537340001607,0.10651044172702122 l -1.0336927989366025 3.913885748514157" fill="#ff3004" stroke="none" /><path d="M 107.76421540070413 80.48803036053334 l 9.368000273292678 -23.542383548300975 a46.337783096706076,46.337783096706076 0 0,0 0.7385715928562898,0.3012818971543698 l -9.771855735737356 23.377640764963026" fill="#bfff1e" stroke="none" /><path d="M 108.76106565485865 80.91482961587045 l 2.7348787865234896 -5.957680227153189 a27.55541880172337,27.55541880172337 0 0,0 0.4293682585089814,0.20159415456975047 l -2.837025256332069 5.909721089943435" fill="#ff5307" stroke="none" /><path d="M 109.08828744355905 81.06846463323043 l 0.9103830934952907 -1.8963913541301702 a23.10359158225681,23.10359158225681 0 0,0 0.357037109699917,0.1751965591346062 l -0.9428914702056395 1.880439634860732" fill="#ff1402" stroke="none" /><path d="M 110.36928655335952 81.73862282372117 l 6.33026399017453 -11.148244168499728 a33.82012442317892,33.82012442317892 0 0,0 0.5037640679999771,0.29181266390625094 l -6.5212247906398355 11.037627347203427" fill="#ffa70f" stroke="none" /><line stroke="#e1ed5e" stroke-width="0.3" x1="143.23703022742887" x2="145.7803849466894" y1="26.81831364943548" y2="22.513508569990506" /><path d="M 143.74570117128098 25.957352633546492 a86.0,86.0 0 0,1 28.547481713284135,27.462654790039103" fill="none" id="id62" stroke="none" /><text fill="#e1ed5e" style="font-size:6.75px; font-family:Arial;" text-anchor="middle"><textPath startOffset="19.985693538727396" xlink:href="#id62">February</textPath></text><path d="M 110.99172775467656 82.1063720568725 l 5.030790724082651 -8.18971316298953 a30.61146487282558,30.61146487282558 0 0,0 0.4466079311839519,0.27966584553550033 l -5.171017807638867 8.101902976131086" fill="#ff7d0b" stroke="none" /><path d="M 111.2981086023043 82.29822771554956 l 5.74754714536814 -9.005203821522777 a31.683070441375826,31.683070441375826 0 0,0 0.45719119372077505,0.2973698699964111 l -5.9017053648731945 8.904935027366838" fill="#ff8b0c" stroke="none" /><path d="M 111.60114157652 82.49532879139004 l 3.640657500903935 -5.493296682583856 a27.59019692283735,27.59019692283735 0 0,0 0.3936139751657688,0.2657699130868516 l -3.7346761704762454 5.429814857198334" fill="#ff5407" stroke="none" /><path d="M 111.90073688211348 82.69761687909136 l 3.1431646093851895 -4.569821081029187 a26.546417625306475,26.546417625306475 0 0,0 0.3742651244981415,0.26219663741938926 l -3.2213608734669816 4.515039600845862" fill="#ff4506" stroke="none" /><path d="M 112.77801427241765 83.33499621200491 l 2.5583663652832587 -3.3366049105576727 a25.204541685864257,25.204541685864257 0 0,0 0.3420225639332553,0.26695403622192015 l -2.6154214843759442 3.2920724851125285" fill="#ff3204" stroke="none" /><path d="M 113.06298171725822 83.55741782278167 l 3.9995009173801246 -5.0342352094852 a27.429582547300015,27.429582547300015 0 0,0 0.36716011584956104,0.29688461274245415 l -4.085564431794177 4.964644499478616" fill="#ff5107" stroke="none" /><path d="M 113.34407831869373 83.78471172551755 l 9.740377966842468 -11.836189271574147 a36.32874226443504,36.32874226443504 0 0,0 0.47943986239728287,0.40151709680541003 l -9.942675366198868 11.666771017374918" fill="#ffc712" stroke="none" /><path d="M 113.89432698308785 84.25364557470407 l 2.304091910589595 -2.6112130437668757 a24.482423451044212,24.482423451044212 0 0,0 0.3135953764453884,0.2815490252931893 l -2.3486982746309732 2.571165009704389" fill="#ff2803" stroke="none" /><path d="M 114.94478906791727 85.2469230424477 l 2.0846198889658134 -2.0578783353442662 a23.929249617999655,23.929249617999655 0 0,0 0.28684987007710666,0.2956240059298981 l -2.1197340227460293 2.021690133864254" fill="#ff2003" stroke="none" /><path d="M 115.19652480421416 85.50635884689758 l 17.967383232468382 -17.13633928721985 a45.829035107895365,45.829035107895365 0 0,0 0.5395445276778402,0.5755484834724449 l -18.259695082116686 16.82452138686935" fill="#c4ff1e" stroke="none" /><path d="M 115.68641384162765 86.03803664274999 l 26.29766020007134 -23.406686308405472 a56.20567988178204,56.20567988178204 0 0,0 0.6370194821429986,0.7282233880414206 l -26.69667154579219 22.950547364161103" fill="#55ff2b" stroke="none" /><path d="M 115.9244219780498 86.31012108654704 l 33.260683763175635 -28.59348577450145 a64.86183435665444,64.86183435665444 0 0,0 0.7205513116744827,0.8529054794394981 l -33.74794568833723 28.016721345432842" fill="#35ff68" stroke="none" /><path d="M 116.15771136456269 86.58626213691792 l 31.72636848790248 -26.338457263052447 a62.234412672279106,62.234412672279106 0 0,0 0.677174149540706,0.8301354373641711 l -32.17504112951959 25.788437656080177" fill="#32ff4a" stroke="none" /><path d="M 116.38621287248628 86.86637796730983 l 29.26813609918386 -23.458540427815834 a58.509024377125826,58.509024377125826 0 0,0 0.6231097404939274,0.7912860926424202 l -29.66759992027175 22.951261941220373" fill="#3eff2d" stroke="none" /><path d="M 116.82858285166822 87.43820079747576 l 2.783450399632215 -2.0777236751637513 a24.473403489021784,24.473403489021784 0 0,0 0.24908958688778177,0.33975791658242627 l -2.8188025990336234 2.029503314909831" fill="#ff2803" stroke="none" /><path d="M 117.04232023915458 87.72973835380427 l 10.00156124240338 -7.201001482931167 a33.324189614036385,33.324189614036385 0 0,0 0.3311589441767575,0.4684008415229538 l -10.12403280638402 7.02777414107642" fill="#ffa00e" stroke="none" /><path d="M 117.45458315368197 88.32363383020206 l 27.083486366787554 -18.117688700382004 a53.58474915698933,53.58474915698933 0 0,0 0.506256882202299,0.7710639638823685 l -27.391339884347776 17.64880667252196" fill="#70ff27" stroke="none" /><path d="M 117.65298651832404 88.62581576622439 l 27.596190890432556 -17.7807964115536 a53.8284399978176,53.8284399978176 0 0,0 0.49515091165279856,0.7832098314860894 l -27.898169398331312 17.303138932353303" fill="#6dff28" stroke="none" /><line stroke="#e1ed5e" stroke-width="0.3" x1="172.23445277983987" x2="176.4835382374775" y1="55.19839476539836" y2="52.563006222186495" /><path d="M 173.08426987136738 54.67131705675599 a86.0,86.0 0 0,1 12.851231095245387,41.99856678651699" fill="none" id="id63" stroke="none" /><text fill="#e1ed5e" style="font-size:6.75px; font-family:Arial;" text-anchor="middle"><textPath startOffset="22.20632615414155" xlink:href="#id63">March</textPath></text><path d="M 117.84615892207809 88.93136811851018 l 6.3328041720812625 -3.9277627451592907 a28.451961410540925,28.451961410540925 0 0,0 0.2545559074671735,0.41842298090683533 l -6.39947587783466 3.818171991045374" fill="#ff5f08" stroke="none" /><path d="M 118.3937258080291 89.86733742301442 l 5.487767029250212 -3.02307929284378 a27.265348783439478,27.265348783439478 0 0,0 0.22291616943334486,0.4130298068612052 l -5.5389912979020215 2.928168502650116" fill="#ff4f07" stroke="none" /><path d="M 118.56541770881063 90.18545643968196 l 5.109256160514814 -2.7009905155216916 a26.77926018437453,26.77926018437453 0 0,0 0.21192668712352047,0.4093749046129377 l -5.154992280798451 2.6126428886484088" fill="#ff4806" stroke="none" /><path d="M 118.73160827565052 90.50648371742162 l 5.564694956525173 -2.82028758021948 a27.23857772207071,27.23857772207071 0 0,0 0.20836213202100118,0.4200453437247007 l -5.612417101499583 2.7240826479958296" fill="#ff4f07" stroke="none" /><path d="M 118.89224826269711 90.83032412892265 l 5.275181191710369 -2.5603994303154423 a26.8637174086184,26.8637174086184 0 0,0 0.19833329843604064,0.41774050780350414 l -5.318472683988166 2.4692165068713976" fill="#ff4906" stroke="none" /><path d="M 119.04729006885535 91.15688171328212 l 5.483350202633328 -2.5457644774713604 a27.045498012527503,27.045498012527503 0 0,0 0.19240641617352444,0.4239420336014184 l -5.526358935770199 2.451000435027879" fill="#ff4c07" stroke="none" /><path d="M 119.47837535516314 92.15188598940014 l 5.593339080002865 -2.2536357370364746 a27.030283251982052,27.030283251982052 0 0,0 0.1701703711636511,0.43306503324181783 l -5.631303001048217 2.1570216988988724" fill="#ff4c07" stroke="none" /><path d="M 119.61058180528143 92.48833698450437 l 5.567863815992569 -2.132721870120342 a26.962349373252874,26.962349373252874 0 0,0 0.16228177352358303,0.43483447162154315 l -5.603750178017776 2.036564261469466" fill="#ff4b07" stroke="none" /><path d="M 119.85752413597 93.16781622104841 l 2.8840800595190634 -0.9922971698244564 a24.05001171521637,24.05001171521637 0 0,0 0.13131616324225442,0.3926186138576012 l -2.9007335165330876 0.9425054530445411" fill="#ff2203" stroke="none" /><path d="M 119.97218684219823 93.5106431181261 l 23.734478063886776 -7.711799402764671 a45.95590709618875,45.95590709618875 0 0,0 0.2379739469127765,0.7544424439587627 l -23.86370749456776 7.302106792379489" fill="#c3ff1e" stroke="none" /><path d="M 120.18372546131832 94.20196356495316 l 8.812655952118249 -2.5315495099177134 a30.16905926753502,30.16905926753502 0 0,0 0.13908400269832655,0.5003591585412458 l -8.854926725382938 2.3794790479575156" fill="#ff770a" stroke="none" /><path d="M 120.28053869075195 94.5502522615342 l 5.831987911632727 -1.567160686253048 a27.038880328170727,27.038880328170727 0 0,0 0.1169156912341817,0.4505238512373243 l -5.858099934737211 1.4665404094668735" fill="#ff4c07" stroke="none" /><path d="M 120.37134235888165 94.90015583598534 l 5.846506103540042 -1.46363796291584 a27.026928712472,27.026928712472 0 0,0 0.10909509830984325,0.4522696139262425 l -5.870834002110705 1.3627831173301914" fill="#ff4c07" stroke="none" /><path d="M 120.45610955862082 95.25157060432595 l 11.82927007874264 -2.745901101590314 a33.14378867798476,33.14378867798476 0 0,0 0.12421915261789128,0.5568501042578936 l -11.874783618362569 2.541872827782456" fill="#ff9e0e" stroke="none" /><path d="M 120.53481517161879 95.60439243477599 l 5.707441947187012 -1.2217141859550726 a26.836735314597856,26.836735314597856 0 0,0 0.09280488637566492,0.45254958495229336 l -5.727626129477674 1.1232889448393675" fill="#ff4906" stroke="none" /><path d="M 120.6074358757038 95.95851677861258 l 5.917294761874991 -1.1604863234982532 a27.030017065144982,27.030017065144982 0 0,0 0.08561342941867944,0.4573503633241453 l -5.93639391520353 1.058457882711545" fill="#ff4c07" stroke="none" /><path d="M 120.73433829027371 96.67025291283417 l 49.87904652802911 -8.010123475472694 a71.51812902946438,71.51812902946438 0 0,0 0.18473509581410313,1.2171734664375315 l -50.00953751728251 7.15035089664308" fill="#3effb2" stroke="none" /><path d="M 120.83666639777658 97.38593545837742 l 11.72356127122648 -1.4707796936233046 a32.81545944038471,32.81545944038471 0 0,0 0.06548972957959852,0.5610760091341407 l -11.747141353809667 1.2687599461643113" fill="#ff9a0e" stroke="none" /><path d="M 120.87857604477298 97.74499172005257 l 5.960871391052142 -0.6438089606158524 a26.995538150861286,26.995538150861286 0 0,0 0.045921819833515176,0.462426458793655 l -5.971070336567886 0.5411069711177624" fill="#ff4b07" stroke="none" /><path d="M 120.98425023603335 99.18683210126433 l 48.8280963481257 -1.8921543567226178 a69.86474435716931,69.86474435716931 0 0,0 0.03622422301614795,1.2021056085126722 l -48.85343226559749 1.0513786007849466" fill="#3cffa0" stroke="none" /><line stroke="#e1ed5e" stroke-width="0.3" x1="184.98032266829074" x2="189.97916517819016" y1="98.17113171792111" y2="98.06355123074" /><path d="M 185.9800911702706 98.14961562048488 a86.0,86.0 0 0,1 -9.607161424134198,41.387399972396054" fill="none" id="id64" stroke="none" /><text fill="#e1ed5e" style="font-size:6.75px; font-family:Arial;" text-anchor="middle"><textPath startOffset="21.466115282336823" xlink:href="#id64">April</textPath></text><path d="M 120.9764740272857 100.99374915477107 l 3.4969258116565594 0.1656649761590312 a24.500847756837715,24.500847756837715 0 0,0 -0.023583406643561067,0.42109756805726334 l -3.493556054125469 -0.22583426055171785" fill="#ff2803" stroke="none" /><path d="M 120.95626037817324 101.35467743843564 l 62.86878113451971 4.064032315306923 a84.0,84.0 0 0,0 -0.10569376534264929,1.4421074540129188 l -62.789510810512716 -5.145612905816612" fill="#4dd2ff" stroke="none" /><path d="M 120.76222939487914 103.15116336523771 l 12.264904235885147 1.8614916621527375 a33.40536283724493,33.40536283724493 0 0,0 -0.09117794251216628,0.5677651350594022 l -12.231044539011693 -2.0723360269053446" fill="#ffa20e" stroke="none" /><path d="M 120.70491114924044 103.5080841355445 l 6.02875549988318 1.0214669057873593 a27.114678038702486,27.114678038702486 0 0,0 -0.08192965649443532,0.4595050235180957 l -6.010279401049555 -1.1250906800386735" fill="#ff4d07" stroke="none" /><path d="M 120.5718875245553 104.21870165774334 l 23.791270215390682 4.878904328914175 a45.28637984369909,45.28637984369909 0 0,0 -0.16317321255064268,0.7622909258770371 l -23.703762964115597 -5.287709074207382" fill="#cbff1d" stroke="none" /><path d="M 120.49622156327973 104.57218783832717 l 5.703796669529487 1.2723725533605459 a26.843990790708084,26.843990790708084 0 0,0 -0.10448631501894906,0.45012431044070456 l -5.681049788579984 -1.3703655211498154" fill="#ff4906" stroke="none" /><path d="M 120.32669344350535 105.2749913415812 l 2.877752086277346 0.7468070190816255 a23.973075477316915,23.973075477316915 0 0,0 -0.10709334888242224,0.39853419089515507 l -2.8644706610531463 -0.7962321431523288" fill="#ff2103" stroke="none" /><path d="M 120.23288151984713 105.62410040840565 l 6.718272633016905 1.8674670645437763 a27.972992213440342,27.972992213440342 0 0,0 -0.1329481233918645,0.46280985868230395 l -6.685131872738941 -1.9828343987306623" fill="#ff5908" stroke="none" /><path d="M 120.02730092923936 106.31721596034902 l 9.684841904519722 3.054891823359278 a31.155221650361383,31.155221650361383 0 0,0 -0.1657276037929408,0.5100571178490406 l -9.630822049710535 -3.221147841186114" fill="#ff840c" stroke="none" /><path d="M 119.9155931802556 106.66101706037122 l 6.602805907875034 2.2083903000327822 a27.96232960828115,27.96232960828115 0 0,0 -0.15660125476768766,0.45515654977736986 l -6.563813822164116 -2.3217195528994528" fill="#ff5908" stroke="none" /><path d="M 119.41010516605496 108.01547362559984 l 5.701832616709183 2.3545925468113422 a27.168873580360373,27.168873580360373 0 0,0 -0.1822242469478076,0.43072429161226267 l -5.660457388569066 -2.4523913640897685" fill="#ff4e07" stroke="none" /><path d="M 119.12269723197855 108.67885076344098 l 11.92616845579033 5.412700674587443 a34.09697761426535,34.09697761426535 0 0,0 -0.24716311818739217,0.5323673679124067 l -11.831230720763106 -5.61718810977868" fill="#ffab0f" stroke="none" /><path d="M 118.97047184881838 109.00673069616215 l 24.767702474730786 11.759118483205464 a48.417438855204,48.417438855204 0 0,0 -0.3639302403023879,0.7498040875994444 l -24.561618977813684 -12.183711526770185" fill="#a7ff21" stroke="none" /><line stroke="#e1ed5e" stroke-width="0.3" x1="174.80103733775053" x2="179.2010983576182" y1="140.37084112569926" y2="142.7455964860345" /><path d="M 175.68104954172406 140.8457921977663 a86.0,86.0 0 0,1 -30.038265399797805,32.042727171017184" fill="none" id="id65" stroke="none" /><text fill="#e1ed5e" style="font-size:6.75px; font-family:Arial;" text-anchor="middle"><textPath startOffset="22.206326154141568" xlink:href="#id65">May</textPath></text><path d="M 118.48025628344425 109.97397251340804 l 2.0315049736815682 1.0964228232323707 a23.308496364605713,23.308496364605713 0 0,0 -0.19359769648576022,0.351436053373893 l -2.012330867744298 -1.1312293950040686" fill="#ff1702" stroke="none" /><path d="M 117.94076556474637 110.91462005526583 l 42.96465716591387 26.138400118898918 a71.2909308539837,71.2909308539837 0 0,0 -0.6468306285081012,1.0428969285108765 l -42.50836189773781 -26.87409337877507" fill="#3dffaf" stroke="none" /><path d="M 117.55443506779139 111.5257021239791 l 2.465346364604836 1.6186705935644292 a23.949241798825675,23.949241798825675 0 0,0 -0.22922491568246273,0.3426601473003064 l -2.4371183435116524 -1.6608676550705426" fill="#ff2003" stroke="none" /><path d="M 116.27256486870786 113.27417163493432 l 20.694352383825507 16.88119774805513 a47.706386090126195,47.706386090126195 0 0,0 -0.5245521608968171,0.6318568692739431 l -20.400704223035145 -17.23491587444284" fill="#afff20" stroke="none" /><path d="M 114.55890576462653 115.13401014063108 l 16.815435816416787 17.479677407013618 a45.254855265478184,45.254855265478184 0 0,0 -0.5660394665748377,0.5352256460486304 l -16.51206051545114 -17.76653768980817" fill="#cbff1d" stroke="none" /><path d="M 114.0293411484842 115.62618273729858 l 2.372772390851821 2.642845061720764 a24.55171491522764,24.55171491522764 0 0,0 -0.3169014322395162,0.2796286684536468 l -2.326928605705717 -2.6832968719466996" fill="#ff2904" stroke="none" /><path d="M 113.48314897796784 116.09983520530334 l 1.3262771481193625 1.583668885968187 a23.065676212286753,23.065676212286753 0 0,0 -0.3065866302935894,0.25229992442010174 l -1.2988203892810821 -1.606263929245467" fill="#ff1402" stroke="none" /><path d="M 113.20401910651253 116.32954008644616 l 2.665803246514374 3.2968250519316595 a25.23975970689033,25.23975970689033 0 0,0 -0.3401868986023721,0.2702650465114075 l -2.6086588551946512 -3.342224012448193" fill="#ff3304" stroke="none" /><path d="M 112.63410532772338 116.77436683061366 l 14.960266083239068 19.86282246778294 a45.86646894249314,45.86646894249314 0 0,0 -0.6347373918342213,0.4695635480510663 l -14.616143720986281 -20.117395964573777" fill="#c4ff1e" stroke="none" /><line stroke="#e1ed5e" stroke-width="0.3" x1="143.8653032363475" x2="146.44561519142675" y1="172.8068346515853" y2="177.08958963109032" /><path d="M 144.38136562736335 173.6633856474863 a86.0,86.0 0 0,1 -40.68145358897372,12.25698825130547" fill="none" id="id66" stroke="none" /><text fill="#e1ed5e" style="font-size:6.75px; font-family:Arial;" text-anchor="middle"><textPath startOffset="21.466115282336833" xlink:href="#id66">June</textPath></text><path d="M 110.5260780823613 118.17145234162733 l 12.929075573529678 22.3198116874494 a46.794088255824136,46.794088255824136 0 0,0 -0.7004656830484073,0.39774269586625544 l -12.54296112356007 -22.539057549110282" fill="#b9ff1f" stroke="none" /><path d="M 109.2508944713604 118.85261126421891 l 0.8116499609824768 1.6540801805050616 a22.84248660855446,22.84248660855446 0 0,0 -0.3544798579572488,0.17017187352497207 l -0.7830574350249953 -1.6678063305295938" fill="#ff1101" stroke="none" /><path d="M 108.92500713936063 119.00905698771935 l 1.0158988894986978 2.163727107743801 a23.390348416124738,23.390348416124738 0 0,0 -0.36592752594513456,0.16797937954964356 l -0.9785033677861438 -2.180893557627519" fill="#ff1802" stroke="none" /><path d="M 108.59647513512805 119.15986991738527 l 2.0841521488642267 4.645169494773716 a26.09129549474313,26.09129549474313 0 0,0 -0.4113470718907021,0.18032246794075857 l -2.0038844023157707 -4.6803565160089295" fill="#ff3f05" stroke="none" /><path d="M 105.88484417918355 120.15858648285463 l 6.968466264635613 23.870543649296938 a45.86689317535174,45.86689317535174 0 0,0 -0.7597934548371639,0.21472521970867028 l -6.556541641693844 -23.986957662344125" fill="#c4ff1e" stroke="none" /><path d="M 104.13013068566511 120.58985236759428 l 0.4076766272681276 2.032381589837697 a23.072866411308727,23.072866411308727 0 0,0 -0.3900768952702541,0.0747591653693796 l -0.37263211742616914 -2.0390979535555447" fill="#ff1402" stroke="none" /><path d="M 102.70371172650421 120.8252237178851 l 0.6406381233801656 4.934487693644751 a25.975900521901494,25.975900521901494 0 0,0 -0.4439065885169421,0.05375090586010049 l -0.5556041118118431 -4.944784128230203" fill="#ff3d05" stroke="none" /><path d="M 101.26447882468166 120.96189622390904 l 0.1692232007666228 2.8052974110030675 a23.810396779079106,23.810396779079106 0 0,0 -0.4093255872884196,0.0211574573793458 l -0.12090954506472358 -2.8077946751446152" fill="#ff1e03" stroke="none" /><line stroke="#e1ed5e" stroke-width="0.3" x1="102.19456741930631" x2="102.32365962044197" y1="184.97166512339345" y2="189.96999836594603" /><path d="M 102.22038585953345 185.97133177190398 a86.0,86.0 0 0,1 -42.740103519485714,-10.115201625700543" fill="none" id="id67" stroke="none" /><text fill="#e1ed5e" style="font-size:6.75px; font-family:Arial;" text-anchor="middle"><textPath startOffset="22.20632615414155" xlink:href="#id67">July</textPath></text><path d="M 100.54218724476979 120.99299961872073 l 0.1651249915246568 6.393490288747387 a27.395622278960285,27.395622278960285 0 0,0 -0.47151820057574956,0.00811761343249477 l -0.05504710105623929 -6.395385379459041" fill="#ff5107" stroke="none" /><path d="M 100.18074693466247 120.99922214144158 l 0.048689613729020115 5.6567709797460655 a26.65698051930377,26.65698051930377 0 0,0 -0.4588730967829472,0.0 l 0.048689613729016215 -5.6567709797460655" fill="#ff4706" stroke="none" /><path d="M 99.45781275523022 120.99299961872073 l -0.15034384832839265 5.821177796196784 a26.823118941569426,26.823118941569426 0 0,0 -0.4614593799142582,-0.015893594087181443 l 0.25052357991729396 -5.8177274036835085" fill="#ff4906" stroke="none" /><path d="M 99.09653310690486 120.98055641714683 l -0.24659309179600036 5.7264525286372105 a26.731759478175704,26.731759478175704 0 0,0 -0.459546863043916,-0.023753323688052365 l 0.3451280232534053 -5.721359398186957" fill="#ff4806" stroke="none" /><path d="M 98.73552117531835 120.96189622390904 l -0.7332766231377142 12.155892354702791 a33.17798889575623,33.17798889575623 0 0,0 -0.5697723008701353,-0.03929483378370312 l 0.9424116847867796 -12.141469176402802" fill="#ff9f0e" stroke="none" /><path d="M 98.37488393609728 120.93702456842531 l -0.2672654756101831 3.4432887308393814 a24.453645627214613,24.453645627214613 0 0,0 -0.41938663926552594,-0.03618644392277557 l 0.32649643261725075 -3.438178034637942" fill="#ff2803" stroke="none" /><path d="M 97.65516085044442 120.86867818915974 l -0.7852285029568576 6.988402993982804 a28.032379412984177,28.032379412984177 0 0,0 -0.47905010656851493,-0.058006296474364304 l 0.9054060325767619 -6.973851168783091" fill="#ff5a08" stroke="none" /><path d="M 97.2962882734958 120.8252237178851 l -0.9231825287931559 7.110773869157365 a28.170451241014064,28.170451241014064 0 0,0 -0.48033491251298044,-0.06657004205260525 l 1.0454460324929673 -7.0938292616121545" fill="#ff5b08" stroke="none" /><path d="M 95.86986931433489 120.58985236759428 l -1.1698426911645803 5.831991803065435 a26.94816444906272,26.94816444906272 0 0,0 -0.45402336575635405,-0.09514501068074495 l 1.270057518350321 -5.810990811658149" fill="#ff4b06" stroke="none" /><path d="M 95.51606077576429 120.51570834832081 l -1.0298970539652077 4.712166363393667 a25.823401266540543,25.823401266540543 0 0,0 -0.433439458123732,-0.09864940951123731 l 1.1108566614818023 -4.693740220304743" fill="#ff3b05" stroke="none" /><path d="M 95.16358092515715 120.4354850818985 l -1.3269314387472626 5.606728284211576 a26.761609939601428,26.761609939601428 0 0,0 -0.4473607268705014,-0.10995038243236001 l 1.4232454503609744 -5.583056643465187" fill="#ff4806" stroke="none" /><path d="M 94.46302465271185 120.25689768951611 l -4.459758435994145 16.315924253145916 a37.9144562295634,37.9144562295634 0 0,0 -0.6280598857393792,-0.17749599723058063 l 4.739949489838137 -16.236739462576814" fill="#ffdb14" stroke="none" /><path d="M 92.40401165467489 119.57807347666478 l -0.7523437145383921 1.9391078360467284 a23.07994237050531,23.07994237050531 0 0,0 -0.36914600992482144,-0.14689081565448395 l 0.7856108005050717 -1.925870175986178" fill="#ff1402" stroke="none" /><path d="M 91.07499286063937 119.00905698771935 l -10.311054259059198 21.961149717126595 a45.26128473167306,45.26128473167306 0 0,0 -0.7023847297183958,-0.33718735411456674 l 10.687551656777837 -21.780408086512466" fill="#cbff1d" stroke="none" /><line stroke="#e1ed5e" stroke-width="0.3" x1="58.666819895761336" x2="56.23545636021788" y1="174.27360380694188" y2="178.64263932499728" /><path d="M 58.180547188652646 175.14741091055294 a86.0,86.0 0 0,1 -31.652253787137756,-30.449443065178592" fill="none" id="id68" stroke="none" /><text fill="#e1ed5e" style="font-size:6.75px; font-family:Arial;" text-anchor="middle"><textPath startOffset="22.20632615414155" xlink:href="#id68">August</textPath></text><path d="M 89.1626897886671 117.98757091392108 l -15.69705035039979 26.05367944731729 a51.41696241320868,51.41696241320868 0 0,0 -0.7541663761698547,-0.46327058520146996 l 16.143195926501953 -25.77962039528744" fill="#87ff25" stroke="none" /><path d="M 87.07902340077011 116.55440617244103 l -30.106412327282364 38.57245419750418 a69.93087252480684,69.93087252480684 0 0,0 -0.9425433093278164,-0.748813409279022 l 30.765913129327537 -38.048506874220024" fill="#3cffa1" stroke="none" /><path d="M 84.9287848128048 114.62390073753433 l -17.57509486507022 17.0534651365009 a45.48886752543019,45.48886752543019 0 0,0 -0.5404368777516821,-0.566645905684474 l 17.86603829420086 -16.748412114233926" fill="#c8ff1d" stroke="none" /><path d="M 84.19399662182784 113.82643327865904 l -4.769369437326871 4.1720456923058915 a27.336627658967803,27.336627658967803 0 0,0 -0.3067657652814471,-0.3568378891913047 l 4.840477712179097 -4.089330703953056" fill="#ff5007" stroke="none" /><path d="M 83.06392112726016 112.41649034213515 l -3.649993634002061 2.6759506167858134 a25.525833098086135,25.525833098086135 0 0,0 -0.2567415127030164,-0.35659150589721583 l 3.695514939080685 -2.612725505437459" fill="#ff3705" stroke="none" /><path d="M 82.6465618267979 111.8261652097733 l -12.302307144286463 8.383878473971595 a35.88745039752227,35.88745039752227 0 0,0 -0.3434888611727822,-0.513469242272623 l 12.444799110869976 -8.170872317493153" fill="#ffc112" stroke="none" /><path d="M 82.05923443525364 110.91462005526583 l -3.9557791674622234 2.4065766022954183 a25.63031313891878,25.63031313891878 0 0,0 -0.22605829310336373,-0.37888670208996383 l 3.9966183362638192 -2.3381278063193434" fill="#ff3805" stroke="none" /><line stroke="#e1ed5e" stroke-width="0.3" x1="26.63291911575756" x2="22.317208475507996" y1="142.92168965132927" y2="145.44649492493687" /><path d="M 25.769776987707644 143.4266507060508 a86.0,86.0 0 0,1 -11.730757126820373,-40.83630448921669" fill="none" id="id69" stroke="none" /><text fill="#e1ed5e" style="font-size:6.75px; font-family:Arial;" text-anchor="middle"><textPath startOffset="21.46611528233685" xlink:href="#id69">September</textPath></text><path d="M 81.87401531095188 110.60418214915194 l -21.12562018650652 12.359048532512055 a45.47525094648715,45.47525094648715 0 0,0 -0.3894587193902587,-0.6790541048300768 l 21.335230902049155 -11.993574581823673" fill="#c9ff1d" stroke="none" /><path d="M 81.35079622478065 109.6543875284942 l -2.1012638787166025 1.0877899147476229 a23.366135411726425,23.366135411726425 0 0,0 -0.18183452052088336,-0.35877675963313976 l 2.1196770690237523 -1.0514589434117982" fill="#ff1802" stroke="none" /><path d="M 80.73074385275274 108.34839909993369 l -2.9101725091219675 1.260831314408384 a24.171561072443982,24.171561072443982 0 0,0 -0.16212098381447487,-0.3832061159729916 l 2.9314444741287486 -1.2105506727692337" fill="#ff2403" stroke="none" /><path d="M 80.58989483394504 108.01547362559985 l -4.4326121920853785 1.830463349591111 a25.795690452856633,25.795690452856633 0 0,0 -0.16594906398126627,-0.4118719674178162 l 4.463463870324032 -1.7538920143304895" fill="#ff3b05" stroke="none" /><path d="M 80.20201598880116 107.00284435728193 l -3.1166844956087196 1.1024181260655528 a24.30591106502363,24.30591106502363 0 0,0 -0.13612371445358182,-0.39563923230042747 l 3.13519904100553 -1.0486061906758286" fill="#ff2603" stroke="none" /><path d="M 80.0844068197444 106.66101706037122 l -3.3111186784944633 1.1074446945537766 a24.491409551251504,24.491409551251504 0 0,0 -0.13028001097187797,-0.4009606449911619 l 3.3296909404825907 -1.0502851495848113" fill="#ff2803" stroke="none" /><path d="M 79.76711848015287 105.62410040840567 l -5.45992690773715 1.5176867971844696 a26.666937007959433,26.666937007959433 0 0,0 -0.11912745994235181,-0.44331759494835254 l 5.485242444021276 -1.4234782690605783" fill="#ff4706" stroke="none" /><path d="M 79.67330655649465 105.27499134158121 l -7.035160470984996 1.8256983446039783 a28.26819491331923,28.26819491331923 0 0,0 -0.11817274660435273,-0.47204138031377674 l 7.065544531884408 -1.7043291248928096" fill="#ff5d08" stroke="none" /><path d="M 79.58551787078972 104.9243191809786 l -3.7136480992905 0.8957948798796377 a24.820161079350257,24.820161079350257 0 0,0 -0.09660885333993101,-0.41618841169982224 l 3.7285175185609862 -0.8317378108312412" fill="#ff2d04" stroke="none" /><path d="M 79.50377843672027 104.57218783832718 l -2.7932773810732696 0.6231094268466699 a23.86193359207385,23.86193359207385 0 0,0 -0.08597791157799173,-0.40166017937177734 l 2.803589331375702 -0.5749354280587288" fill="#ff1f03" stroke="none" /><path d="M 79.29508885075956 103.50808413554451 l -2.9348786798211544 0.4972637294705855 a23.976706919049263,23.976706919049263 0 0,0 -0.06544298937111453,-0.4075135572841484 l 2.94300342355356 -0.4466709424932234" fill="#ff2103" stroke="none" /><path d="M 79.23777060512086 103.15116336523772 l -4.586223881522717 0.6960688279360407 a25.63874566070113,25.63874566070113 0 0,0 -0.06246813107018226,-0.4369019632107026 l 4.597526063609499 -0.6170213927449375" fill="#ff3805" stroke="none" /><path d="M 79.18660465613746 102.79330883721812 l -5.725825015785821 0.768447307741908 a26.777160494237155,26.777160494237155 0 0,0 -0.057377705185504495,-0.45735676475616505 l 5.738204230218174 -0.6697727886983342" fill="#ff4806" stroke="none" /><path d="M 79.1416061653843 102.43462659150553 l -3.5780414961702554 0.41763498384183434 a24.60233256766291,24.60233256766291 0 0,0 -0.045476472761066235,-0.4210556578586601 l 3.5847002704323736 -0.3559830040983921" fill="#ff2a04" stroke="none" /><path d="M 79.10278846688536 102.07522291339032 l -2.910990270521082 0.289079416192388 a23.925308746770934,23.925308746770934 0 0,0 -0.03717013605042964,-0.41016935397901505 l 2.915535002848587 -0.23892867366480675" fill="#ff2003" stroke="none" /><path d="M 79.07016306316243 101.71520430193888 l -3.468516729261905 0.284245636185826 a24.480144233054197,24.480144233054197 0 0,0 -0.030802364525272238,-0.4202737913547592 l 3.472895652451512 -0.22449870833430616" fill="#ff2803" stroke="none" /><path d="M 79.04373962182676 101.35467743843564 l -2.880589057424296 0.1862101794441173 a23.88660138375239,23.88660138375239 0 0,0 -0.022992160898122484,-0.4105404780960624 l 2.88336756920995 -0.13659798501261727" fill="#ff2003" stroke="none" /><line stroke="#e1ed5e" stroke-width="0.3" x1="15.007084014347285" x2="10.007500721073583" y1="101.09737516637583" y2="101.16192664675087" /><path d="M 14.007167355692545 101.11028546245083 a86.0,86.0 0 0,1 10.666146001902534,-42.60595125391555" fill="none" id="id70" stroke="none" /><text fill="#e1ed5e" style="font-size:6.75px; font-family:Arial;" text-anchor="middle"><textPath startOffset="22.20632615414155" xlink:href="#id70">October</textPath></text><path d="M 79.12142395522702 97.74499172005258 l -7.627924840377499 -0.8238604796122684 a28.672286716508648,28.672286716508648 0 0,0 0.05722121023184591,-0.4902363848622533 l 7.6126132771420645 0.9550406027993835" fill="#ff6209" stroke="none" /><path d="M 79.16333360222342 97.38593545837743 l -2.6841315331981996 -0.3367377934664792 a23.70517179289183,23.70517179289183 0 0,0 0.054278071563029565,-0.4044346786475883 l 2.677937462577336 0.38289081417872695" fill="#ff1d02" stroke="none" /><path d="M 79.21141760316559 97.0276538004421 l -5.9953980259422455 -0.8572204779081037 a27.056370566372006,27.056370566372006 0 0,0 0.06988803086419096,-0.4604748026604681 l 5.979754101638752 0.9602943929606639" fill="#ff4c07" stroke="none" /><path d="M 79.32604984820605 96.31383870115002 l -1.8807882645616665 -0.3353441824738487 a22.910450265469358,22.910450265469358 0 0,0 0.07256533401461014,-0.38764691592974687 l 1.8747372066371948 0.3676691758661682" fill="#ff1202" stroke="none" /><path d="M 79.46518482838121 95.60439243477599 l -3.628654362647312 -0.7767365050395165 a24.710855976970862,24.710855976970862 0 0,0 0.09261347939865977,-0.4151680684658186 l 3.6147464962466143 0.8390827430552944" fill="#ff2b04" stroke="none" /><path d="M 79.62865764111835 94.90015583598534 l -2.092775763743756 -0.5239139413248671 a23.15735861998598,23.15735861998598 0 0,0 0.10013205270902306,-0.38584964552285356 l 2.0834473791644252 0.5598600123965844" fill="#ff1502" stroke="none" /><path d="M 80.38941819471856 92.48833698450439 l -3.32984893591728 -1.2754697105611092 a24.565770171868664,24.565770171868664 0 0,0 0.1546549175640474,-0.3935798961822469 l 3.3074004684715415 1.3325986116391195" fill="#ff2904" stroke="none" /><path d="M 80.52162464483688 92.15188598940014 l -1.769209585661409 -0.7128396636650902 a22.907417873485088,22.907417873485088 0 0,0 0.15051080361792332,-0.36447384937065236 l 1.7566770951572859 0.7431880834890539" fill="#ff1201" stroke="none" /><path d="M 81.6062741919709 89.86733742301443 l -0.6095251670444448 -0.3357728017858224 a21.695891014225403,21.695891014225403 0 0,0 0.18301244326296412,-0.32555871548762644 l 0.6036550824890501 0.34621502720823344" fill="#ff0000" stroke="none" /><line stroke="#e1ed5e" stroke-width="0.3" x1="26.266209847984243" x2="21.928928074336255" y1="57.711370442889674" y2="55.22380399835377" /><path d="M 25.398753493254645 57.213857153982495 a86.0,86.0 0 0,1 29.58750427330803,-30.492523968695096" fill="none" id="id71" stroke="none" /><text fill="#e1ed5e" style="font-size:6.75px; font-family:Arial;" text-anchor="middle"><textPath startOffset="21.46611528233685" xlink:href="#id71">November</textPath></text><path d="M 82.95767976084542 87.72973835380427 l -2.766026706541948 -1.991505319308471 a24.408371631459403,24.408371631459403 0 0,0 0.24842769453830843,-0.33885509616159715 l 2.731336399490006 2.038822859141569" fill="#ff2703" stroke="none" /><path d="M 85.83668400450813 84.49514656593479 l -2.6978006098588105 -2.9533340259799767 a25.000038749758016,25.000038749758016 0 0,0 0.320225511112374,-0.2875016256606191 l 2.646564111150465 2.9993346604098745" fill="#ff2f04" stroke="none" /><path d="M 89.00827224532344 82.1063720568725 l -7.583134316537014 -12.34471842201013 a35.487787925744826,35.487787925744826 0 0,0 0.5232554918016136,-0.31525557906481766 l 7.369516758517751 12.473420610533568" fill="#ffbc11" stroke="none" /><line stroke="#e1ed5e" stroke-width="0.3" x1="56.762969772571076" x2="54.21961505331055" y1="26.818313649435495" y2="22.513508569990535" /><path d="M 56.25429882871897 25.957352633546506 a86.0,86.0 0 0,1 42.265352541879196,-11.944610805530505" fill="none" id="id72" stroke="none" /><text fill="#e1ed5e" style="font-size:6.75px; font-family:Arial;" text-anchor="middle"><textPath startOffset="22.20632615414155" xlink:href="#id72">December</textPath></text></svg>