<?xml version="1.0" encoding="utf-8" ?>
<svg baseProfile="full" height="200mm" version="1.1" viewBox="0,0,200,200" width="200mm" xmlns="http://www.w3.org/2000/svg" xmlns:ev="http://www.w3.org/2001/xml-events" xmlns:xlink="http://www.w3.org/1999/xlink"><defs /><rect fill="#1a1a1a" height="200" width="200" x="0" y="0" /><text alignment-baseline="middle" fill="#e1ed5e" style="dominant-baseline: central; font-size:9.0px; font-family:Arial;" text-anchor="middle" x="100.0" y="100.0">2023</text><line stroke="#e1ed5e" stroke-width="0.3" x1="100.0" x2="100.0" y1="15.0" y2="10.0" /><path d="M 100.0 14.0 a86.0,86.0 0 0,1 42.46469731375804,11.215312516191453" fill="none" id="id109" stroke="none" /><text fill="#e1ed5e" style="font-size:6.75px; font-family:Arial;" text-anchor="middle"><textPath startOffset="22.20632615414155" xlink:href="#id109">January</textPath></text><path d="M 100.0 79.0 l 0.0 -2.490901589956639 a23.49090158995664,23.49090158995664 0 0,0 0.4043572554895869,0.0034804305581404493 l -0.042876776217058515 2.4905325360070574" fill="#ff1902" stroke="none" /><path d="M 100.72285384407766 79.0124445844662 l 0.26018633169455574 -7.5543280284710965 a28.558807372128534,28.558807372128534 0 0,0 0.49115595707006493,0.02115020868543741 l -0.3901831211539522 7.548730093261464" fill="#ff6008" stroke="none" /><path d="M 101.08401301168833 79.027996857942 l 0.1613645638335955 -3.1218611799357037 a24.12602875054769,24.12602875054769 0 0,0 0.41455175161829744,0.025006893749343354 l -0.21507836429150484 3.118621016806056" fill="#ff2203" stroke="none" /><path d="M 101.44485096284872 79.0497635885617 l 0.5962639968730428 -8.645785634173613 a29.66632217183563,29.66632217183563 0 0,0 0.5091444550603361,0.03951940878998302 l -0.74499864129572 8.634240963195166" fill="#ff6f0a" stroke="none" /><path d="M 101.80526077348638 79.07773832637324 l 0.6642132789444365 -7.697970416947092 a28.726572837948186,28.726572837948186 0 0,0 0.4922843690090213,0.046748332603902425 l -0.7966227750437019 7.685396539828011" fill="#ff6209" stroke="none" /><path d="M 102.88285421437855 79.19881850522331 l 0.6943600375238976 -5.010142063797715 a26.058029197340147,26.058029197340147 0 0,0 0.4437695023745054,0.06540008907592117 l -0.7804985203270588 4.997447490560825" fill="#ff3d05" stroke="none" /><path d="M 103.2404852339499 79.25152402106235 l 0.5188413505832935 -3.3220849725444097 a24.36235704705501,24.36235704705501 0 0,0 0.41377815372863236,0.06827694075325512 l -0.5759487104508011 3.31266176885153" fill="#ff2503" stroke="none" /><path d="M 106.74666289553966 80.11325718540242 l 1.939435013044754 -5.7167589232219465 a27.03678231809477,27.03678231809477 0 0,0 0.43943525511379167,0.15331033197178437 l -2.037552272221819 5.682527738077955" fill="#ff4b07" stroke="none" /><path d="M 107.08798089147638 80.2323363322302 l 2.6231567502297786 -7.315719551210795 a28.77178897604946,28.77178897604946 0 0,0 0.4647571114198915,0.17117396638255383 l -2.748696187422247 7.269482317021916" fill="#ff6309" stroke="none" /><path d="M 107.4271985657038 80.35727306442388 l 1.0047321656872488 -2.657217172719346 a23.84082555391231,23.84082555391231 0 0,0 0.3826075986654565,0.14844580411651098 l -1.0503229293523724 2.6395286647122886" fill="#ff1e03" stroke="none" /><path d="M 108.43124777332544 80.76684994638697 l 3.0903449850782896 -7.0496171401209144 a28.697228978605555,28.697228978605555 0 0,0 0.4507075841713052,0.20221935520692721 l -3.211234687716375 6.995377454397456" fill="#ff6209" stroke="none" /><path d="M 108.76106565485865 80.91482961587045 l 3.4638505655960024 -7.545677755867682 a29.302741326584616,29.302741326584616 0 0,0 0.45659502051001,0.21437748440025386 l -3.5932237974056105 7.484935288827424" fill="#ff6a09" stroke="none" /><path d="M 109.08828744355905 81.06846463323043 l 3.62193497917116 -7.5447426789866645 a29.369083288238112,29.369083288238112 0 0,0 0.4538624470760484,0.2227083316772505 l -3.7512686932576402 7.481279187174581" fill="#ff6b09" stroke="none" /><path d="M 109.41281617654863 81.2277094730956 l 1.004531554391509 -2.0033704928246734 a23.2411106566363,23.2411106566363 0 0,0 0.3560754100267591,0.18239565505966482 l -1.0388674520070236 1.9857823124525078" fill="#ff1502" stroke="none" /><path d="M 109.73455568895987 81.39251694778311 l 4.240389881202585 -8.10545292157036 a30.14763758619671,30.14763758619671 0 0,0 0.4577487418965757,0.24451352507831461 l -4.379283669627472 8.03126066999029" fill="#ff760a" stroke="none" /><line stroke="#e1ed5e" stroke-width="0.3" x1="143.23703022742887" x2="145.7803849466894" y1="26.81831364943548" y2="22.513508569990506" /><path d="M 143.74570117128098 25.957352633546492 a86.0,86.0 0 0,1 28.547481713284135,27.462654790039103" fill="none" id="id110" stroke="none" /><text fill="#e1ed5e" style="font-size:6.75px; font-family:Arial;" text-anchor="middle"><textPath startOffset="19.985693538727396" xlink:href="#id110">February</textPath></text><path d="M 111.2981086023043 82.29822771554956 l 3.0741938587820874 -4.816618565280706 a26.71406005260535,26.71406005260535 0 0,0 0.3854876700532547,0.25073190363978526 l -3.1566485546196223 4.762987737481392" fill="#ff4706" stroke="none" /><path d="M 111.60114157652 82.49532879139004 l 8.717373322992488 -13.153425705150731 a36.77989877766461,36.77989877766461 0 0,0 0.524718333999566,0.3542921614086788 l -8.942496351398596 13.001421631443383" fill="#ffcc13" stroke="none" /><path d="M 111.90073688211348 82.69761687909136 l 4.383053976607377 -6.372485997641425 a28.734322203786817,28.734322203786817 0 0,0 0.4051113347481599,0.28380637895096095 l -4.492096450939187 6.296094775926528" fill="#ff6209" stroke="none" /><path d="M 113.06298171725822 83.55741782278167 l 4.761393430873713 -5.99324139463319 a28.65439807025426,28.65439807025426 0 0,0 0.38355494827279407,0.3101414270445373 l -4.863851777710998 5.910393870324523" fill="#ff6109" stroke="none" /><path d="M 114.42810811169701 84.74124197986012 l 5.855011337142675 -6.192093967344666 a29.521923812056492,29.521923812056492 0 0,0 0.36623599208753665,0.352318734219814 l -5.960730572842629 6.090392146362551" fill="#ff6d0a" stroke="none" /><path d="M 114.94478906791727 85.2469230424477 l 5.533375862442074 -5.462393584993364 a28.77534514426422,28.77534514426422 0 0,0 0.3449420331946914,0.3554930864678714 l -5.626582159339874 5.366336302975378" fill="#ff6309" stroke="none" /><path d="M 115.19652480421416 85.50635884689758 l 6.314669293392866 -6.022597397634675 a29.726209239922838,29.726209239922838 0 0,0 0.3499662056215473,0.37331954746903834 l -6.417402820984876 5.913008433287581" fill="#ff700a" stroke="none" /><path d="M 115.4437574822437 85.77008943001954 l 13.342123449442743 -12.293460559549448 a39.142255390920056,39.142255390920056 0 0,0 0.4522912948208578,0.4994313443800237 l -13.551758384879637 12.061976427899875" fill="#ffea16" stroke="none" /><path d="M 115.9244219780498 86.31012108654704 l 2.4927137096611602 -2.142931711945538 a24.28721431616415,24.28721431616415 0 0,0 0.26980711085356374,0.3193665177070747 l -2.5292314340018414 2.0997062446093566" fill="#ff2403" stroke="none" /><path d="M 116.15771136456269 86.58626213691792 l 13.508147983983319 -11.214134971507878 a38.556391574477615,38.556391574477615 0 0,0 0.4195330292790752,0.5142978877523819 l -13.699179505338803 10.979952914147395" fill="#ffe215" stroke="none" /><path d="M 116.60985879189232 87.15038557335679 l 7.534604217177134 -5.828873096461525 a30.52607066340348,30.52607066340348 0 0,0 0.3179421954526285,0.4183746604504228 l -7.633822352853876 5.698313660130069" fill="#ff7b0b" stroke="none" /><path d="M 117.04232023915458 87.72973835380427 l 7.003629327991127 -5.042527256939058 a29.630058221175034,29.630058221175034 0 0,0 0.2944485345350209,0.4164765705008075 l -7.089390482330031 4.921224186106458" fill="#ff6f0a" stroke="none" /><path d="M 117.2510076193507 88.02491185347247 l 6.508099127160252 -4.517710642401088 a28.922440513970937,28.922440513970937 0 0,0 0.28037625151409085,0.4114175524846419 l -6.584899844343076 4.4050150666460395" fill="#ff6509" stroke="none" /><path d="M 117.45458315368197 88.32363383020206 l 14.376273964132977 -9.617109585750223 a38.296417255493594,38.296417255493594 0 0,0 0.3618160970107977,0.5510707385230413 l -14.5396866965017 9.368220783249507" fill="#ffdf14" stroke="none" /><line stroke="#e1ed5e" stroke-width="0.3" x1="172.23445277983987" x2="176.4835382374775" y1="55.19839476539836" y2="52.563006222186495" /><path d="M 173.08426987136738 54.67131705675599 a86.0,86.0 0 0,1 12.851231095245387,41.99856678651699" fill="none" id="id111" stroke="none" /><text fill="#e1ed5e" style="font-size:6.75px; font-family:Arial;" text-anchor="middle"><textPath startOffset="22.20632615414155" xlink:href="#id111">March</textPath></text><path d="M 117.84615892207809 88.93136811851018 l 13.447860980854314 -8.34069804266846 a36.82441811882375,36.82441811882375 0 0,0 0.3294631619918815,0.5415508118090397 l -13.589439941132419 8.10797945765234" fill="#ffcd13" stroke="none" /><path d="M 118.03404312379186 89.2402003453031 l 8.746305819781881 -5.2183804648558025 a31.184761173888127,31.184761173888127 0 0,0 0.271070307440316,0.4633470241466668 l -8.834835801692524 5.0670540283552405" fill="#ff840c" stroke="none" /><path d="M 118.56541770881063 90.18545643968196 l 10.203761600676925 -5.394183113984993 a32.5418353077251,32.5418353077251 0 0,0 0.2575307645619511,0.4974674667376754 l -10.295101798398994 5.217742924986973" fill="#ff960d" stroke="none" /><path d="M 118.89224826269711 90.83032412892265 l 7.896621746688222 -3.8327604468656404 a29.7776242602043,29.7776242602043 0 0,0 0.21984650706683873,0.46305281173218843 l -7.961426447596817 3.6962652194929118" fill="#ff710a" stroke="none" /><path d="M 119.196687751892 91.48605970444005 l 8.57176719690755 -3.8016721991384848 a30.37698802322381,30.37698802322381 0 0,0 0.20787882790166107,0.4798129958183743 l -8.635936734651892 3.6535600587335075" fill="#ff790b" stroke="none" /><path d="M 119.34039704204932 91.81776055985345 l 7.156294082338006 -3.027575471097406 a28.770376968081834,28.770376968081834 0 0,0 0.18903276579543477,0.4577578363181304 l -7.207348535019638 2.9039430643259725" fill="#ff6309" stroke="none" /><path d="M 119.7369772167798 92.82701384747503 l 7.3082669652056085 -2.6560347698941333 a28.77594281959443,28.77594281959443 0 0,0 0.16518339303310434,0.46699569593951423 l -7.352903439048522 2.5298414475280047" fill="#ff6309" stroke="none" /><path d="M 119.85752413597 93.16781622104841 l 4.804316073572918 -1.652973962013914 a26.080725918004934,26.080725918004934 0 0,0 0.1424041244835801,0.42577020666681975 l -4.832057491828268 1.5700306524247802" fill="#ff3e05" stroke="none" /><path d="M 120.08093135843002 93.85539295169968 l 7.314865587521915 -2.2382913344100324 a28.649654022320707,28.649654022320707 0 0,0 0.14023883253736033,0.4728156268578778 l -7.352310317170978 2.1120463208056246" fill="#ff6109" stroke="none" /><path d="M 120.28053869075195 94.5502522615342 l 32.26331375391102 -8.6697362356537 a54.407869443876706,54.407869443876706 0 0,0 0.23525876764884188,0.9065479998420923 l -32.40776885343016 8.113091810262757" fill="#67ff28" stroke="none" /><path d="M 120.37134235888165 94.90015583598534 l 7.5225792814127646 -1.8832328950538781 a28.754725345371916,28.754725345371916 0 0,0 0.11606940699030567,0.4811826259972036 l -7.553881488663889 1.7534650373972684" fill="#ff6309" stroke="none" /><path d="M 120.45610955862082 95.25157060432595 l 2.58703802922071 -0.6005231537539005 a23.655822626386918,23.655822626386918 0 0,0 0.0886593343228977,0.3974424114211054 l -2.5969917505456452 0.5559025727828313" fill="#ff1b02" stroke="none" /><path d="M 120.53481517161879 95.60439243477599 l 7.711258204369517 -1.650643778248839 a28.885944964119886,28.885944964119886 0 0,0 0.09989131721214456,0.48710553840565496 l -7.738528817496658 1.5176625836797721" fill="#ff6509" stroke="none" /><path d="M 120.6074358757038 95.95851677861258 l 8.890830610609866 -1.7436493775211301 a30.06019768538674,30.06019768538674 0 0,0 0.09521106134142963,0.5086212968298589 l -8.919527395861156 1.5903500032287086" fill="#ff740a" stroke="none" /><path d="M 120.67395015179393 96.31383870115 l 7.539842416925279 -1.3443524393080668 a28.658753629223177,28.658753629223177 0 0,0 0.08241184680092097,0.48639938488619994 l -7.561866125246424 1.214367266106029" fill="#ff6109" stroke="none" /><path d="M 120.87857604477298 97.74499172005257 l 5.501945346535795 -0.5942422646856014 a26.53394312090444,26.53394312090444 0 0,0 0.04513660548871249,0.4545194574993361 l -5.511359077706736 0.49944727648183035" fill="#ff4406" stroke="none" /><path d="M 120.91429891909075 98.10471618934814 l 7.607014659909738 -0.6893585956714975 a28.63818612692227,28.63818612692227 0 0,0 0.04026462989860784,0.4913304713306498 l -7.6177537736278405 0.558314207133079" fill="#ff6109" stroke="none" /><path d="M 120.94382443527127 98.46500227214037 l 10.823398081372938 -0.7932596796718989 a31.852428619772652,31.852428619772652 0 0,0 0.03537046716605425,0.5471654717195328 l -10.835449139543407 0.6068351436993309" fill="#ff8c0c" stroke="none" /><path d="M 120.96714384426684 98.82574320788733 l 9.169211850935087 -0.5135181679608963 a30.183580286367313,30.183580286367313 0 0,0 0.024587245204491046,0.5189978858933435 l -9.176692704373073 0.35560917544455306" fill="#ff760a" stroke="none" /><line stroke="#e1ed5e" stroke-width="0.3" x1="184.98032266829074" x2="189.97916517819016" y1="98.17113171792111" y2="98.06355123074" /><path d="M 185.9800911702706 98.14961562048488 a86.0,86.0 0 0,1 -9.607161424134198,41.387399972396054" fill="none" id="id112" stroke="none" /><text fill="#e1ed5e" style="font-size:6.75px; font-family:Arial;" text-anchor="middle"><textPath startOffset="21.466115282336823" xlink:href="#id112">April</textPath></text><path d="M 120.99980553446 99.90962569577887 l 32.29590920015761 -0.13898796912016698 a53.296208271566265,53.296208271566265 0 0,0 -0.003948240746061312,0.9174321018025516 l -32.293516662122045 -0.41695361088606936" fill="#73ff27" stroke="none" /><path d="M 120.9904718944345 100.63252640178507 l 1.3441593450862246 0.04050486707726643 a22.34476949297624,22.34476949297624 0 0,0 -0.014894243563484247,0.38435424529001555 l -1.3432629686715372 -0.06363635938128817" fill="#ff0901" stroke="none" /><path d="M 120.95626037817324 101.35467743843564 l 7.605651514626243 0.4916528199945073 a28.62152592709262,28.62152592709262 0 0,0 -0.03601329577484143,0.4913728081510034 l -7.596061660187064 -0.6224987646422809" fill="#ff6108" stroke="none" /><path d="M 120.8583938346157 102.4346265915055 l 31.93573262649284 3.7275920901750506 a53.152542064066644,53.152542064066644 0 0,0 -0.1138944844084009,0.907851102517768 l -31.866836632837593 -4.276760946980214" fill="#75ff27" stroke="none" /><path d="M 120.81339534386255 102.79330883721812 l 1.2217516275415912 0.16396794284234287 a22.232705368561554,22.232705368561554 0 0,0 -0.05416940326908352,0.3788606802983435 l -1.2187481732559062 -0.18497409512109575" fill="#ff0701" stroke="none" /><path d="M 120.70491114924044 103.5080841355445 l 8.742371928937116 1.4812416266784587 a29.866969251129312,29.866969251129312 0 0,0 -0.09024597407286722,0.5061473489954502 l -8.71557951252506 -1.6315077264071272" fill="#ff720a" stroke="none" /><path d="M 120.64145759157962 103.86396538481128 l 3.568900717309106 0.6680782484632289 a24.63089257291911,24.63089257291911 0 0,0 -0.08159870700796187,0.41607004906224576 l -3.55687207732548 -0.7294120245934196" fill="#ff2904" stroke="none" /><path d="M 120.41448212921028 104.9243191809786 l 31.266841700962644 7.54209229223431 a53.16362147050044,53.16362147050044 0 0,0 -0.22224592648619607,0.8877620003104466 l -31.132384460181385 -8.079182131942153" fill="#74ff27" stroke="none" /><path d="M 120.32669344350535 105.2749913415812 l 2.7183291580107274 0.7054350877051218 a23.808371783481817,23.808371783481817 0 0,0 -0.10635757886564673,0.39579611694956884 l -2.7057835028033037 -0.7521221378302388" fill="#ff1e03" stroke="none" /><path d="M 120.13307415673323 105.97154293290107 l 7.237681221327165 2.1467225427842918 a28.54933421814468,28.54933421814468 0 0,0 -0.1437978677644889,0.4699397519432962 l -7.199656581056543 -2.2709892672796452" fill="#ff6008" stroke="none" /><path d="M 119.9155931802556 106.66101706037122 l 11.658698853851526 3.899396380732796 a33.29351662864906,33.29351662864906 0 0,0 -0.18645822979395923,0.5419348949439303 l -11.589849793114336 -4.099503978766026" fill="#ff9f0e" stroke="none" /><path d="M 119.54520255179757 107.68017299344265 l 8.295262142248777 3.2595747273321023 a29.912698884832132,29.912698884832132 0 0,0 -0.19243463904031585,0.47760699264818 l -8.237924888951069 -3.401881087823096" fill="#ff720a" stroke="none" /><path d="M 119.26925614724726 108.34839909993367 l 6.936845593617367 3.005386148152226 a28.559905600547797,28.559905600547797 0 0,0 -0.19931946595207284,0.4494127769196583 l -6.884085042934021 -3.124347261564572" fill="#ff6008" stroke="none" /><path d="M 118.97047184881838 109.00673069616215 l 6.913119654493251 3.2821854666859314 a28.652709637446414,28.652709637446414 0 0,0 -0.21536842406833842,0.44372274360084585 l -6.855597973810197 -3.4006971662520527" fill="#ff6109" stroke="none" /><path d="M 118.64920377521936 109.65438752849418 l 3.863558253511484 2.0001008658544355 a25.350573048676274,25.350573048676274 0 0,0 -0.2039483681731182,0.3857934526342408 l -3.828557377113473 -2.0663093335748104" fill="#ff3304" stroke="none" /><line stroke="#e1ed5e" stroke-width="0.3" x1="174.80103733775053" x2="179.2010983576182" y1="140.37084112569926" y2="142.7455964860345" /><path d="M 175.68104954172406 140.8457921977663 a86.0,86.0 0 0,1 -30.038265399797805,32.042727171017184" fill="none" id="id113" stroke="none" /><text fill="#e1ed5e" style="font-size:6.75px; font-family:Arial;" text-anchor="middle"><textPath startOffset="22.206326154141568" xlink:href="#id113">May</textPath></text><path d="M 118.48025628344425 109.97397251340804 l 4.092342726778788 2.2086768303588555 a25.650324970836262,25.650324970836262 0 0,0 -0.21304865619756497,0.38674519516398675 l -4.053717661129713 -2.2787925439206473" fill="#ff3805" stroke="none" /><path d="M 118.30583269289576 110.29060199501025 l 2.4203713942279848 1.3606088898525943 a23.776590397797815,23.776590397797815 0 0,0 -0.2036272533974494,0.3550412800907211 l -2.3965921446781557 -1.4020700158016306" fill="#ff1d02" stroke="none" /><path d="M 117.75023020441432 111.22182372390056 l 6.409275871577245 4.051990492540321 a28.582706914395374,28.582706914395374 0 0,0 -0.26649309549322714,0.41360320224097574 l -6.338577912706968 -4.16171529470275" fill="#ff6008" stroke="none" /><path d="M 116.93607887273984 112.41649034213515 l 6.171341121259967 4.524447365055851 a28.65219414247411,28.65219414247411 0 0,0 -0.29503400798928114,0.3952462674701617 l -6.092545846575594 -4.630006512035328" fill="#ff6109" stroke="none" /><path d="M 116.71984013943494 112.70617746262583 l 6.036376656858115 4.587320954845167 a28.581646040684248,28.581646040684248 0 0,0 -0.3010507265183591,0.3891486460713071 l -5.956519113121688 -4.690547595029727" fill="#ff6008" stroke="none" /><path d="M 116.27256486870786 113.27417163493432 l 4.31248106613233 3.517860540493312 a26.565324404570656,26.565324404570656 0 0,0 -0.2920971271019542,0.3518498063929598 l -4.251287939136832 -3.5915716040000425" fill="#ff4506" stroke="none" /><path d="M 115.80600337817218 113.82643327865902 l 16.98166152487722 14.85485004759236 a43.5619901179384,43.5619901179384 0 0,0 -0.4985589912644302,0.560136311873166 l -16.72344368396445 -15.144960529206392" fill="#dfff1b" stroke="none" /><path d="M 114.0293411484842 115.62618273729858 l 21.328213103030677 23.755823732607162 a52.92541049670295,52.92541049670295 0 0,0 -0.6831351066994898,0.6027873049053971 l -20.9161356434246 -24.11943417928485" fill="#77ff27" stroke="none" /><path d="M 112.63410532772338 116.77436683061366 l 0.45676472108700955 0.6064488769128452 a21.759219501026248,21.759219501026248 0 0,0 -0.3011217247123665,0.22276265313848811 l -0.4462580259560788 -0.6142214787911023" fill="#ff0000" stroke="none" /><path d="M 112.34349029814194 116.9893568818739 l 37.03047089442582 50.96807064562168 a84.0,84.0 0 0,0 -1.1770906886044616,0.8398229526231229 l -36.14765287797247 -51.597937860089026" fill="#4dd2ff" stroke="none" /><path d="M 111.1453310114006 117.79835938074945 l 4.0067021287717655 6.398439341689152 a28.549416398502583,28.549416398502583 0 0,0 -0.4187530514539253,0.2572323260912246 l -3.8959698773855314 -6.466460134608755" fill="#ff6008" stroke="none" /><line stroke="#e1ed5e" stroke-width="0.3" x1="143.8653032363475" x2="146.44561519142675" y1="172.8068346515853" y2="177.08958963109032" /><path d="M 144.38136562736335 173.6633856474863 a86.0,86.0 0 0,1 -40.68145358897372,12.25698825130547" fill="none" id="id114" stroke="none" /><text fill="#e1ed5e" style="font-size:6.75px; font-family:Arial;" text-anchor="middle"><textPath startOffset="21.466115282336833" xlink:href="#id114">June</textPath></text><path d="M 110.8373102113329 117.98757091392108 l 4.012570917066492 6.6599924252785305 a28.775360086147472,28.775360086147472 0 0,0 -0.4264674562636474,0.2519644902572501 l -3.8973355897744626 -6.72807548782953" fill="#ff6309" stroke="none" /><path d="M 110.21172684928248 118.3499491758327 l 1.8178707089020223 3.2666203874157578 a24.73837701011605,24.73837701011605 0 0,0 -0.3738760254478046,0.20386701913770292 l -1.761371871585569 -3.297428058313231" fill="#ff2b04" stroke="none" /><path d="M 109.89434966115114 118.52300852407294 l 1.7792640579111463 3.3309236523818577 a24.776351806409373,24.776351806409373 0 0,0 -0.37790908979985793,0.1977041746966731 l -1.7216640655847928 -3.3610572460232477" fill="#ff2b04" stroke="none" /><path d="M 109.57404056367764 118.69057910512821 l 1.7728400013149843 3.460963640683088 a24.88860270436475,24.88860270436475 0 0,0 -0.3829835574834166,0.1920359063304192 l -1.713002536148807 -3.4909673879228094" fill="#ff2d04" stroke="none" /><path d="M 108.92500713936063 119.00905698771935 l 0.36683809569754416 0.7813154832815755 a21.86314777000843,21.86314777000843 0 0,0 -0.3420354169387592,0.15701168413876285 l -0.3533346829913655 -0.7875142377544128" fill="#ff0200" stroke="none" /><path d="M 108.59647513512805 119.15986991738527 l 1.5936087207906233 3.5518436695977584 a24.892965734275297,24.892965734275297 0 0,0 -0.3924545857653104,0.17204055722237532 l -1.5322334603675591 -3.5787487801145885" fill="#ff2d04" stroke="none" /><path d="M 108.2653958097858 119.30500536409082 l 0.36070402512539856 0.8424754603585555 a21.916445467580054,21.916445467580054 0 0,0 -0.348083812847879,0.14549906200084653 l -0.3461487527800584 -0.8485595653793752" fill="#ff0200" stroke="none" /><path d="M 107.93186726928326 119.44442032107085 l 1.4113713954676586 3.459878703326976 a24.736673635424946,24.736673635424946 0 0,0 -0.3956441582366699,0.15743497572722587 l -1.3516061611891224 -3.4836605234602707" fill="#ff2b04" stroke="none" /><path d="M 107.59598834532513 119.57807347666477 l 3.2322255275672616 8.330811738384103 a29.93586627481946,29.93586627481946 0 0,0 -0.4820098978502209,0.1822548994195029 l -3.088345408956766 -8.385214887910237" fill="#ff730a" stroke="none" /><path d="M 107.2578585660854 119.70592522655815 l 3.226743257534234 8.7609810496164 a30.336308746061277,30.336308746061277 0 0,0 -0.49156440328484524,0.17625750599418571 l -3.075459293619654 -8.815226096650544" fill="#ff780b" stroke="none" /><path d="M 106.91757812671514 119.82793768551818 l 2.634183822143805 7.550392886197801 a28.996709144691366,28.996709144691366 0 0,0 -0.47268815168779754,0.16036148523087318 l -2.503825937518781 -7.594617358326798" fill="#ff6609" stroke="none" /><path d="M 106.57524785965236 119.94407469862006 l 3.025587295412703 9.177226519046707 a30.663108457637062,30.663108457637062 0 0,0 -0.502697796910757,0.16094795989761945 l -2.8671681534110056 -9.227947325604035" fill="#ff7d0b" stroke="none" /><path d="M 106.2309692047433 120.05430185196036 l 4.6016112169011185 14.81023213513111 a36.50863635810642,36.50863635810642 0 0,0 -0.6017406044095883,0.18129950795516264 l -4.345995638051284 -14.887247012191999" fill="#ffc912" stroke="none" /><path d="M 105.88484417918355 120.15858648285463 l 2.374108834642307 8.13253109269003 a29.47198056727568,29.47198056727568 0 0,0 -0.48820873588485475,0.13797266534631383 l -2.2337689306528463 -8.172192551374861" fill="#ff6c0a" stroke="none" /><path d="M 105.53697534728816 120.25689768951611 l 2.5439148308851367 9.306854235015084 a30.64826608353105,30.64826608353105 0 0,0 -0.51008866225954,0.13471905182645152 l -2.3833357258140997 -9.349264636145119" fill="#ff7c0b" stroke="none" /><path d="M 105.18746579009965 120.34920634021253 l 2.723866898142075 10.68508820999915 a32.02681100474008,32.02681100474008 0 0,0 -0.5353765144459041,0.13158252160492154 l -2.53953709895296 -10.730391989918102" fill="#ff8f0d" stroke="none" /><path d="M 104.83641907484287 120.43548508189849 l 1.0637542028776332 4.494716608985953 a25.6188797775255,25.6188797775255 0 0,0 -0.4300066150811626,0.09786810561112863 l -0.9862274384036086 -4.512361448174765" fill="#ff3705" stroke="none" /><path d="M 104.48393922423573 120.51570834832081 l 0.2116705829987603 0.9684725259544027 a21.991334186455575,21.991334186455575 0 0,0 -0.37051056236800023,0.07764409075093505 l -0.19496855920138204 -0.9719725974318789" fill="#ff0300" stroke="none" /><path d="M 104.13013068566511 120.58985236759428 l 0.24717685243340418 1.2322454875228368 a22.256791684369084,22.256791684369084 0 0,0 -0.3762800877943909,0.07211497437995187 l -0.22592915006730888 -1.236317660251257" fill="#ff0701" stroke="none" /><path d="M 103.41894727170886 120.7198165907248 l 0.21976865195673662 1.3318620613468686 a22.349872146107923,22.349872146107923 0 0,0 -0.38012251350117593,0.0593673189945559 l -0.19681027484704358 -1.3354476876885304" fill="#ff0901" stroke="none" /><path d="M 102.34483914955558 120.86867818915974 l 2.590564115339547 23.05558948964686 a44.20067303228076,44.20067303228076 0 0,0 -0.7568152966905694,0.0784469999330301 l -2.193316222043375 -23.09676585803565" fill="#d8ff1c" stroke="none" /><path d="M 101.98527174616119 120.90594882070398 l 0.3641480333718174 3.8346690640975387 a24.85192038097301,24.85192038097301 0 0,0 -0.4262171590591533,0.03677580991189811 l -0.29808655657112243 -3.8403691262881003" fill="#ff2c04" stroke="none" /><path d="M 100.90346689309514 120.98055641714683 l 0.07886052496640511 1.8313207775387095 a22.83301794116778,22.83301794116778 0 0,0 -0.39281450914245,0.013529325942027036 l -0.047325664149302824 -1.8324069019068303" fill="#ff1001" stroke="none" /><line stroke="#e1ed5e" stroke-width="0.3" x1="102.19456741930631" x2="102.32365962044197" y1="184.97166512339345" y2="189.96999836594603" /><path d="M 102.22038585953345 185.97133177190398 a86.0,86.0 0 0,1 -42.740103519485714,-10.115201625700543" fill="none" id="id115" stroke="none" /><text fill="#e1ed5e" style="font-size:6.75px; font-family:Arial;" text-anchor="middle"><textPath startOffset="22.20632615414155" xlink:href="#id115">July</textPath></text><path d="M 100.54218724476979 120.99299961872073 l 0.9785606696904616 37.888983859126405 a58.90161842008077,58.90161842008077 0 0,0 -1.0137818679798922,0.017453174233962882 l -0.3262191118179014 -37.90021451063953" fill="#3aff2e" stroke="none" /><path d="M 98.37488393609728 120.93702456842531 l -0.3853449818681298 4.964554552071306 a25.979487188008708,25.979487188008708 0 0,0 -0.4455552349010549,-0.03844438046591689 l 0.4707445345107264 -4.957185919326725" fill="#ff3c05" stroke="none" /><path d="M 98.01472825383883 120.90594882070398 l -1.5672486817164952 16.503947528914654 a37.57819509076637,37.57819509076637 0 0,0 -0.6434235253826335,-0.06669347920597592 l 1.851104803704722 -16.474524681252916" fill="#ffd614" stroke="none" /><path d="M 97.65516085044442 120.86867818915974 l -0.9271083866337505 8.251110346224712 a29.303032693308097,29.303032693308097 0 0,0 -0.5007645169074697,-0.06063560916340609 l 1.0690003265926096 -8.233929208335956" fill="#ff6a09" stroke="none" /><path d="M 97.2962882734958 120.8252237178851 l -0.9913514375434016 7.63584196773143 a28.699925988533135,28.699925988533135 0 0,0 -0.4893629967403686,-0.06782125226243035 l 1.1226430254706012 -7.6176461499763946" fill="#ff6209" stroke="none" /><path d="M 96.93821686468263 120.77559828337769 l -0.3265854775808448 2.216031765653251 a23.239967602567273,23.239967602567273 0 0,0 -0.3952610932636657,-0.06173165381283937 l 0.3646824344530276 -2.2100818044933064" fill="#ff1502" stroke="none" /><path d="M 96.22490169976321 120.6578951692458 l -2.504216405796459 13.703441838535397 a34.93037752644136,34.93037752644136 0 0,0 -0.5905435836725587,-0.1131790833164179 l 2.739727604040713 -13.658305556870511" fill="#ffb510" stroke="none" /><path d="M 95.86986931433489 120.58985236759428 l -0.6026008390190183 3.0041331028710485 a24.063975109388466,24.063975109388466 0 0,0 -0.4054304697929688,-0.0849618968717396 l 0.654222770241374 -2.993315225272768" fill="#ff2103" stroke="none" /><path d="M 95.51606077576429 120.51570834832081 l -3.008890719982982 13.766806679602505 a35.09178446891478,35.09178446891478 0 0,0 -0.5890069974829021,-0.13405607498495928 l 3.245417866858747 -13.712973871039859" fill="#ffb710" stroke="none" /><path d="M 95.16358092515715 120.4354850818985 l -0.42080224167835006 1.7780299430579816 a22.82714668404381,22.82714668404381 0 0,0 -0.38159023152945204,-0.09378559486573161 l 0.45134575795101267 -1.77052308987822" fill="#ff0f01" stroke="none" /><path d="M 94.81253420990036 120.34920634021253 l -1.5619788433621429 6.127275064306926 a27.32323316198196,27.32323316198196 0 0,0 -0.4547491011144165,-0.12010337075458034 l 1.6672183872880486 -6.099480344248764" fill="#ff4f07" stroke="none" /><path d="M 93.42475214034765 119.94407469862007 l -1.5340806722522489 4.6531811688579925 a25.89954064165127,25.89954064165127 0 0,0 -0.42219984117426923,-0.1432331090872404 l 1.6139502463637438 -4.626085072872629" fill="#ff3b05" stroke="none" /><path d="M 93.08242187328487 119.8279376855182 l -2.5218690901339915 7.22846381410597 a28.655750310688866,28.655750310688866 0 0,0 -0.46433291934314547,-0.16649326470248293 l 2.645921570106864 -7.183983008363529" fill="#ff6109" stroke="none" /><path d="M 92.7421414339146 119.70592522655815 l -1.7196449095633042 4.669034770453406 a25.9756471240121,25.9756471240121 0 0,0 -0.4182447536976668,-0.15814437806750223 l 1.799759884021254 -4.63874214227927" fill="#ff3c05" stroke="none" /><path d="M 92.40401165467489 119.57807347666478 l -1.8188654431504283 4.687985245801663 a26.028466681319554,26.028466681319554 0 0,0 -0.41630539910485526,-0.16565650986809116 l 1.8992919182971415 -4.655981891527506" fill="#ff3d05" stroke="none" /><path d="M 92.06813273071674 119.44442032107085 l -4.064457051181112 9.963733456075234 a31.760845482795894,31.760845482795894 0 0,0 -0.5044356399525491,-0.21085413841110803 l 4.235364150631123 -9.892294274644152" fill="#ff8b0c" stroke="none" /><path d="M 91.7346041902142 119.30500536409082 l -1.6701983098381497 3.9009852731246895 a25.24349484450281,25.24349484450281 0 0,0 -0.3979809163047012,-0.17446313812695752 l 1.7370999008005943 -3.8716575817032797" fill="#ff3204" stroke="none" /><path d="M 91.40352486487194 119.15986991738527 l -5.8653759222682 13.072781334293754 a35.328302290354664,35.328302290354664 0 0,0 -0.5526894265516517,-0.25371260802532464 l 6.08953334458727 -12.969881655934355" fill="#ffba11" stroke="none" /><path d="M 91.07499286063937 119.00905698771935 l -1.2722646486526217 2.7097514693339444 a23.993561484547904,23.993561484547904 0 0,0 -0.3723427493986413,-0.17874714694296814 l 1.318720066051505 -2.687450045891414" fill="#ff2003" stroke="none" /><path d="M 90.7491055286396 118.85261126421891 l -1.763675450784402 3.594234889698706 a25.003632792605615,25.003632792605615 0 0,0 -0.38475363003169955,-0.1929234574522316 l 1.825282988498862 -3.5633435913371723" fill="#ff2f04" stroke="none" /><path d="M 90.42595943632237 118.69057910512821 l -1.7302745657861849 3.37786678783357 a24.795238346844062,24.795238346844062 0 0,0 -0.37819716269133563,-0.19785488081832855 l 1.7881626310040162 -3.3475824880705245" fill="#ff2c04" stroke="none" /><path d="M 90.10565033884886 118.52300852407294 l -1.5263904058467803 2.8575240886800897 a24.239646830820927,24.239646830820927 0 0,0 -0.36633861678396024,-0.19975702295787273 l 1.575351834499381 -2.830826413962451" fill="#ff2403" stroke="none" /><line stroke="#e1ed5e" stroke-width="0.3" x1="58.666819895761336" x2="56.23545636021788" y1="174.27360380694188" y2="178.64263932499728" /><path d="M 58.180547188652646 175.14741091055294 a86.0,86.0 0 0,1 -31.652253787137756,-30.449443065178592" fill="none" id="id116" stroke="none" /><text fill="#e1ed5e" style="font-size:6.75px; font-family:Arial;" text-anchor="middle"><textPath startOffset="22.20632615414155" xlink:href="#id116">August</textPath></text><path d="M 89.7882731507175 118.34994917583269 l -1.8649714520057181 3.3512580059941945 a24.83523776831848,24.83523776831848 0 0,0 -0.37176131506075805,-0.21109577706582902 l 1.9223815339876833 -3.3186590631337327" fill="#ff2c04" stroke="none" /><path d="M 89.4739219176387 118.17145234162733 l -2.213475800639931 3.821182942588527 a25.415983944801894,25.415983944801894 0 0,0 -0.3766795615737692,-0.22254892449187202 l 2.2789232332420823 -3.7825154458029053" fill="#ff3405" stroke="none" /><path d="M 89.1626897886671 117.98757091392108 l -9.147686171597144 15.183163580371586 a38.7259306836722,38.7259306836722 0 0,0 -0.5680186739309842,-0.34892346276931296 l 9.407684045460437 -15.023451650773893" fill="#ffe415" stroke="none" /><path d="M 88.54995079064634 117.60387380957326 l -1.6272207887588244 2.5017699838550804 a23.984409581054038,23.984409581054038 0 0,0 -0.3441480686931074,-0.22808257410918256 l 1.6700435561918936 -2.4733893886545792" fill="#ff2003" stroke="none" /><path d="M 87.95078237400918 117.19931262002967 l -5.632651818045721 8.040168457857074 a30.816877066259593,30.816877066259593 0 0,0 -0.43183641722097926,-0.3081038177191659 l 5.770215563115587 -7.942020378293689" fill="#ff7f0b" stroke="none" /><path d="M 87.36589467227662 116.77436683061367 l -5.141525789771215 6.8264303193223625 a29.54607736633867,29.54607736633867 0 0,0 -0.4036152753386375,-0.3094749820913998 l 5.258269793603339 -6.736915995403596" fill="#ff6d0a" stroke="none" /><path d="M 86.24171649860922 115.8653595955263 l -4.941966021189472 5.698826312680465 a28.54318563318513,28.54318563318513 0 0,0 -0.3684213684896024,-0.32508902207407436 l 5.039329742585662 -5.612914148834102" fill="#ff6008" stroke="none" /><path d="M 85.44109423537348 115.13401014063109 l -3.1486736007859837 3.2730521767378793 a25.541697479570292,25.541697479570292 0 0,0 -0.3142237504880972,-0.3075340751853433 l 3.2045473036498753 -3.2183679986299665" fill="#ff3605" stroke="none" /><path d="M 84.9287848128048 114.62390073753433 l -1.627513281088339 1.579208602361151 a23.267752034480488,23.267752034480488 0 0,0 -0.2764357950829436,-0.2898418259687214 l 1.65445562755024 -1.5509596598099293" fill="#ff1602" stroke="none" /><path d="M 84.19399662182784 113.82643327865904 l -6.494535133100429 5.681148772733227 a29.628698509798802,29.628698509798802 0 0,0 -0.3324868921668187,-0.38675737064640436 l 6.591364534838027 -5.568514302925292" fill="#ff6f0a" stroke="none" /><path d="M 83.95833913139862 113.55231037782056 l -6.277458508979103 5.303320322903247 a29.217766836511775,29.217766836511775 0 0,0 -0.32126186841564497,-0.386980616088125 l 6.3678163772882845 -5.194478449701361" fill="#ff6909" stroke="none" /><path d="M 83.72743513129214 113.27417163493432 l -7.608243925230932 6.206344022519256 a30.818558028125814,30.818558028125814 0 0,0 -0.3317868545931958,-0.4139551156660746 l 7.713948691878988 -6.074461073274922" fill="#ff7f0b" stroke="none" /><path d="M 83.50135304334701 112.99209946851258 l -8.480775294810527 6.678309832907345 a31.794599197069594,31.794599197069594 0 0,0 -0.3348927900797938,-0.4328940751805383 l 8.59447490210839 -6.531337763613554" fill="#ff8c0c" stroke="none" /><path d="M 83.28015986056508 112.70617746262583 l -12.580354154299206 9.560391193585314 a36.80083511786567,36.80083511786567 0 0,0 -0.37894123668810964,-0.5076537122355829 l 12.7430566576824 -9.342424601840424" fill="#ffcc13" stroke="none" /><path d="M 83.06392112726016 112.41649034213515 l -3.0423827655409448 2.2304877362268907 a24.77242209111323,24.77242209111323 0 0,0 -0.2491636255925726,-0.34606648348154595 l 3.0803261835091247 -2.1777876472942066" fill="#ff2b04" stroke="none" /><path d="M 82.6465618267979 111.8261652097733 l -1.2347287964852678 0.8414532377248739 a22.49418832552916,22.49418832552916 0 0,0 -0.2152981904636935,-0.3218415827011376 l 1.2490300923596915 -0.8200747408179154" fill="#ff0b01" stroke="none" /><path d="M 82.24976979558568 111.22182372390057 l -10.844019143493028 6.855667215888775 a33.829377387833574,33.829377387833574 0 0,0 -0.30693774335236074,-0.49488137338911664 l 10.960421526513345 -6.667989511134394" fill="#ffa60f" stroke="none" /><line stroke="#e1ed5e" stroke-width="0.3" x1="26.63291911575756" x2="22.317208475507996" y1="142.92168965132927" y2="145.44649492493687" /><path d="M 25.769776987707644 143.4266507060508 a86.0,86.0 0 0,1 -11.730757126820373,-40.83630448921669" fill="none" id="id117" stroke="none" /><text fill="#e1ed5e" style="font-size:6.75px; font-family:Arial;" text-anchor="middle"><textPath startOffset="21.46611528233685" xlink:href="#id117">September</textPath></text><path d="M 81.87401531095188 110.60418214915194 l -7.738645636908187 4.5273130993593345 a29.96566786097214,29.96566786097214 0 0,0 -0.2566316927979383,-0.4474589879429724 l 7.815429325858503 -4.393434265558055" fill="#ff730a" stroke="none" /><path d="M 81.35079622478065 109.6543875284942 l -6.838333927540634 3.5400935386556736 a28.700329419381028,28.700329419381028 0 0,0 -0.22334504815655196,-0.4406809687630922 l 6.8982576454834525 -3.4218583581898967" fill="#ff6209" stroke="none" /><path d="M 81.02952815118164 109.00673069616217 l -7.087120270439423 3.3647968377305184 a28.84532545449038,28.84532545449038 0 0,0 -0.20909479617569993,-0.4503715890161258 l 7.14398968345495 -3.2423051814355657" fill="#ff6409" stroke="none" /><path d="M 80.87730276802145 108.67885076344099 l -3.0203471741910644 1.3707868749158043 a24.316859012542647,24.316859012542647 0 0,0 -0.1697072609343167,-0.38264507199844283 l 3.043495519856661 -1.3185934664246657" fill="#ff2503" stroke="none" /><path d="M 80.73074385275274 108.34839909993369 l -3.5408618400692897 1.534077266539784 a24.858898240453232,24.858898240453232 0 0,0 -0.1667310202765778,-0.39410288038664676 l 3.566743841538174 -1.4728998604869783" fill="#ff2d04" stroke="none" /><path d="M 79.86692584326677 105.97154293290107 l -11.819383628582733 3.5056721208621493 a33.32832374569226,33.32832374569226 0 0,0 -0.15840057666970417,-0.55141318759064 l 11.87797684213854 -3.3017014577669133" fill="#ffa00e" stroke="none" /><path d="M 79.58551787078972 104.9243191809786 l -7.518646302340138 1.8136249534653088 a28.734292320020305,28.734292320020305 0 0,0 -0.11184403774402166,-0.4818211873708239 l 7.548750906014715 -1.683935108745911" fill="#ff6209" stroke="none" /><path d="M 79.4281124754447 104.21870165774334 l -7.612458015839168 1.5610958990801946 a28.77087752117089,28.77087752117089 0 0,0 -0.09531389892841667,-0.48600351718307233 l 7.638201847743252 -1.4298286548291677" fill="#ff6309" stroke="none" /><path d="M 79.35854240842038 103.8639653848113 l -8.981608389537822 1.6813068439150396 a30.137619053474037,30.137619053474037 0 0,0 -0.09106376896996093,-0.5107339770798497 l 9.009218600846973 -1.5264541161019765" fill="#ff750a" stroke="none" /><path d="M 79.29508885075956 103.50808413554451 l -7.603771129612356 1.2883256864921646 a28.712140978094336,28.712140978094336 0 0,0 -0.07836807378074574,-0.48799807024087977 l 7.624820957754392 -1.1572483865580712" fill="#ff6209" stroke="none" /><path d="M 79.18660465613746 102.79330883721812 l -7.848073372897449 1.0532684526225116 a28.91843608925852,28.91843608925852 0 0,0 -0.06196599899800538,-0.49392998090434737 l 7.865040881142303 -0.9180207174307556" fill="#ff6509" stroke="none" /><path d="M 79.07016306316243 101.71520430193888 l -7.716254677057756 0.6323486062928317 a28.742121866846077,28.742121866846077 0 0,0 -0.03616503671481579,-0.4934431927181851 l 7.725996272436907 -0.49943227707788607" fill="#ff6309" stroke="none" /><path d="M 79.04373962182676 101.35467743843564 l -7.703637585243611 0.4979869424357691 a28.719716512904768,28.719716512904768 0 0,0 -0.027644298676258124,-0.49360752325407187 l 7.711068234807401 -0.36530770284625963" fill="#ff6209" stroke="none" /><path d="M 79.0235259727143 100.99374915477108 l -1.4924248587704645 0.07070282355525144 a22.494098674229626,22.494098674229626 0 0,0 -0.014993781184468815,-0.3869228690020967 l 1.4934207728061342 -0.04500270753915796" fill="#ff0b01" stroke="none" /><path d="M 79.0095281055655 100.63252640178507 l -1.1471578579600037 0.03456842875301467 a22.147678581897317,22.147678581897317 0 0,0 -0.008203012175361919,-0.38116174267164415 l 1.147582932820373 -0.014816870291241666" fill="#ff0600" stroke="none" /><line stroke="#e1ed5e" stroke-width="0.3" x1="15.007084014347285" x2="10.007500721073583" y1="101.09737516637583" y2="101.16192664675087" /><path d="M 14.007167355692545 101.11028546245083 a86.0,86.0 0 0,1 10.666146001902534,-42.60595125391555" fill="none" id="id118" stroke="none" /><text fill="#e1ed5e" style="font-size:6.75px; font-family:Arial;" text-anchor="middle"><textPath startOffset="22.20632615414155" xlink:href="#id118">October</textPath></text><path d="M 79.00019446554 99.90962569577889 l -2.317023850888888 -0.009971493214268405 a23.317045307339693,23.317045307339693 0 0,0 0.00518192783263135,-0.4013460213221199 l 2.3165089159385412 0.04985377259686028" fill="#ff1702" stroke="none" /><path d="M 79.08570108090925 98.10471618934814 l -18.081869962689144 -1.6386050299450665 a39.15596452386271,39.15596452386271 0 0,0 0.06660779045128858,-0.6707313599096508 l 18.050985046555628 1.9496119205591476" fill="#ffea16" stroke="none" /><path d="M 79.12142395522702 97.74499172005258 l -5.230179050982291 -0.5648899158774437 a26.260596308632135,26.260596308632135 0 0,0 0.052408205771906136,-0.44900150190178045 l 5.219680492206796 0.6548351561040859" fill="#ff4006" stroke="none" /><path d="M 79.16333360222342 97.38593545837743 l -10.011951789636324 -1.25604968021735 a31.090433064897468,31.090433064897468 0 0,0 0.07118821013261348,-0.5304348525913903 l 9.988847580445878 1.4282028748733997" fill="#ff820c" stroke="none" /><path d="M 79.21141760316559 97.0276538004421 l -5.031750028864123 -0.7194383335006571 a26.082922374843463,26.082922374843463 0 0,0 0.06737356289121034,-0.44390760038939125 l 5.01862057253361 0.8059450462821404" fill="#ff3e05" stroke="none" /><path d="M 79.26566170972629 96.67025291283419 l -7.540039268727842 -1.2108620704784947 a28.636647112946974,28.636647112946974 0 0,0 0.08234827673586416,-0.4860241907637532 l 7.5180791304717545 1.3404720495580758" fill="#ff6109" stroke="none" /><path d="M 79.3925641242962 95.95851677861259 l -0.7603567222155012 -0.14911942240839926 a21.774841239969657,21.774841239969657 0 0,0 0.07530020486599091,-0.3671905412500161 l 0.7576772214345158 0.16218561982181787" fill="#ff0000" stroke="none" /><path d="M 79.46518482838121 95.60439243477599 l -1.0288700576388086 -0.22023616824368478 a22.052177535071124,22.052177535071124 0 0,0 0.08264905480179374,-0.3704995068253839 l 1.0249266158349772 0.23791384461902793" fill="#ff0400" stroke="none" /><path d="M 79.54389044137918 95.25157060432595 l -33.845531392410955 -7.8564849154419765 a55.74542200724065,55.74542200724065 0 0,0 0.22501825342061618,-0.9328459314630303 l 33.70528033872952 8.437916078564404" fill="#5aff2a" stroke="none" /><path d="M 79.91906864156998 93.8553929516997 l -15.152913008834306 -4.6366721948520295 a36.84643498380042,36.84643498380042 0 0,0 0.19080227367522412,-0.6048953489735778 l 15.070855251390878 4.896817710252022" fill="#ffcd13" stroke="none" /><path d="M 80.02781315780177 93.51064311812611 l -3.553865968404092 -1.1547210509063202 a24.73675581578285,24.73675581578285 0 0,0 0.13506587453069094,-0.4038297733377636 l 3.5334628001016286 1.215723927166406" fill="#ff2b04" stroke="none" /><path d="M 80.2630227832202 92.82701384747504 l -35.58475284371804 -12.932524397505377 a58.86191783627146,58.86191783627146 0 0,0 0.35427982507137706,-0.9492937943440511 l 35.356868430145035 13.54314132887877" fill="#3bff2e" stroke="none" /><path d="M 80.65960295795068 91.81776055985345 l -1.7201306828171874 -0.7277265861994756 a22.867735406911446,22.867735406911446 0 0,0 0.1564907629920305,-0.36120225694475416 l 1.707349209982476 0.7572279877308291" fill="#ff1001" stroke="none" /><path d="M 80.95270993114464 91.15688171328213 l -1.5021313855942646 -0.6973971350770617 a22.65612845625001,22.65612845625001 0 0,0 0.16726890840049005,-0.3523109799814667 l 1.489904283352023 0.7231505306990607" fill="#ff0d01" stroke="none" /><path d="M 81.26839172434947 90.50648371742162 l -28.25897977622884 -14.322159671864306 a52.68113311830382,52.68113311830382 0 0,0 0.4169098749856382,-0.8053371787242837 l 28.00826046808309 14.806469572848926" fill="#79ff26" stroke="none" /><path d="M 81.6062741919709 89.86733742301443 l -3.4345189977123014 -1.8919941767792579 a24.92116853891966,24.92116853891966 0 0,0 0.21021878936824276,-0.37395576944323977 l 3.4014425670516277 1.9508334561572822" fill="#ff2d04" stroke="none" /><line stroke="#e1ed5e" stroke-width="0.3" x1="26.266209847984243" x2="21.928928074336255" y1="57.711370442889674" y2="55.22380399835377" /><path d="M 25.398753493254645 57.213857153982495 a86.0,86.0 0 0,1 29.58750427330803,-30.492523968695096" fill="none" id="id119" stroke="none" /><text fill="#e1ed5e" style="font-size:6.75px; font-family:Arial;" text-anchor="middle"><textPath startOffset="21.46611528233685" xlink:href="#id119">November</textPath></text><path d="M 81.78341655067845 89.55222093294921 l -6.741668292744161 -3.8665571434887127 a28.771766563224578,28.771766563224578 0 0,0 0.25009560164356354,-0.4274944528892371 l 6.6741130166302725 3.9820310087318416" fill="#ff6309" stroke="none" /><path d="M 81.96595687620814 89.24020034530311 l -1.0274800152079586 -0.6130338625095852 a22.196463830725847,22.196463830725847 0 0,0 0.19858880417641833,-0.3264277786557949 l 1.0167754127453235 0.6306294143724546" fill="#ff0601" stroke="none" /><path d="M 82.15384107792192 88.93136811851018 l -3.871586231993398 -2.401254129053176 a25.555787675480033,25.555787675480033 0 0,0 0.2350796635762038,-0.37183957327423733 l 3.829678972171232 2.467541350041629" fill="#ff3605" stroke="none" /><path d="M 82.34701348167596 88.62581576622439 l -23.162379186407104 -14.923999850410347 a48.55397577682671,48.55397577682671 0 0,0 0.4587272457558313,-0.6986730667534741 l 22.902055305293356 15.320490981141488" fill="#a6ff21" stroke="none" /><path d="M 82.95767976084542 87.72973835380427 l -1.2440286401453138 -0.8956853700515434 a22.5329251578685,22.5329251578685 0 0,0 0.22933945503183992,-0.3128187589265689 l 1.2284265725998404 0.916966572649613" fill="#ff0b01" stroke="none" /><path d="M 84.07557802195018 86.31012108654704 l -23.96650188549249 -20.603479940665007 a52.60532547360809,52.60532547360809 0 0,0 0.5962140705644979,-0.6815757486785621 l 23.60829595135015 21.012971245546513" fill="#7aff26" stroke="none" /><path d="M 84.5562425177563 85.77008943001954 l -1.7311032292442012 -1.5950421500642842 a23.3539069333305,23.3539069333305 0 0,0 0.274945188265716,-0.29329235684300003 l 1.7033907190080293 1.6246039237853345" fill="#ff1702" stroke="none" /><path d="M 85.31137513191541 84.99185889309783 l -10.814780965935167 -11.050030907226796 a36.461651606210154,36.461651606210154 0 0,0 0.45232720042779,-0.4351384084331581 l 10.622970521894949 11.234552402422269" fill="#ffc812" stroke="none" /><path d="M 86.37877921826538 84.01681056812374 l -8.10308082554929 -9.508184170263885 a33.49261722302582,33.49261722302582 0 0,0 0.44201078242262365,-0.3701713187293504 l 7.938212506167556 9.646256646387048" fill="#ffa20f" stroke="none" /><path d="M 86.65592168130627 83.78471172551755 l -4.937572252000424 -5.999976583628892 a28.770414322789975,28.770414322789975 0 0,0 0.3851078899060705,-0.31139713117879914 l 4.8335609635298535 6.084079812071826" fill="#ff6309" stroke="none" /><path d="M 87.51073957382395 83.11751280151077 l -0.5861694294158512 -0.7923606002736544 a21.9856114451688,21.9856114451688 0 0,0 0.3061807161888342,-0.22245331156632817 l 0.5724433968732353 0.8023331466566505" fill="#ff0300" stroke="none" /><path d="M 87.80319425747018 82.90503203632743 l -18.529512762785707 -25.970851200634264 a52.903416044551165,52.903416044551165 0 0,0 0.7458597190686556,-0.5225223979621496 l 18.07972190413339 26.285958441360357" fill="#77ff27" stroke="none" /><line stroke="#e1ed5e" stroke-width="0.3" x1="56.762969772571076" x2="54.21961505331055" y1="26.818313649435495" y2="22.513508569990535" /><path d="M 56.25429882871897 25.957352633546506 a86.0,86.0 0 0,1 42.265352541879196,-11.944610805530505" fill="none" id="id120" stroke="none" /><text fill="#e1ed5e" style="font-size:6.75px; font-family:Arial;" text-anchor="middle"><textPath startOffset="22.20632615414155" xlink:href="#id120">December</textPath></text><path d="M 90.58718382345135 81.22770947309562 l -0.7530077056234362 -1.5017481648243465 a22.6799607600422,22.6799607600422 0 0,0 0.35049042522427387,-0.17198412949434605 l 0.7270460133887364 1.5144874544535223" fill="#ff0d01" stroke="none" /><path d="M 91.56875222667455 80.76684994638697 l -14.057997523865154 -32.068749857552326 a56.014739922028,56.014739922028 0 0,0 0.8864098990115022,-0.37951445891180524 l 13.503903867063345 32.30598384442692" fill="#57ff2a" stroke="none" /><path d="M 91.90106846888425 80.62456947434976 l -16.41919259814877 -39.280357445974694 a63.57389301741905,63.57389301741905 0 0,0 1.013295593618704,-0.4133487149742134 l 15.740613134941682 39.55716704713249" fill="#34ff59" stroke="none" /><path d="M 93.59665428221793 80.00007090966166 l -4.44940905302805 -13.897089033839194 a35.591995221203355,35.591995221203355 0 0,0 0.5850893983223447,-0.18179012412800372 l 4.209534281994976 13.971619292849722" fill="#ffbd11" stroke="none" /><path d="M 93.94186890950719 79.89281104454417 l -2.1766713881063042 -7.224462831989907 a28.545247613074356,28.545247613074356 0 0,0 0.4716895313925695,-0.13769910879209313 l 2.0519916389903132 7.260860269700699" fill="#ff6008" stroke="none" /><path d="M 94.28887869178378 79.79150937346287 l -1.4458374707379376 -5.116016872705783 a26.31639677164902,26.31639677164902 0 0,0 0.4369801477285728,-0.11944318139493171 l 1.3575594337856423 5.14014659492701" fill="#ff4106" stroke="none" /><path d="M 94.63758080256005 79.69619591428918 l -8.09420274223195 -30.64719497997455 a52.698054801090436,52.698054801090436 0 0,0 0.879031437162513,-0.22408468578411572 l 7.565462416384436 30.78198266192753" fill="#79ff26" stroke="none" /><path d="M 96.04723909329186 79.375362276772 l -1.8610803206647637 -9.710708108451227 a30.887440109932705,30.887440109932705 0 0,0 0.5230344952254408,-0.09558121085009241 l 1.6936507043364295 9.741304800652054" fill="#ff800b" stroke="none" /><path d="M 96.40284397218896 79.31037775812273 l -0.6718138963792374 -3.864045825498531 a24.922012755323582,24.922012755323582 0 0,0 0.42328352733609903,-0.0698454088436703 l 0.6052011629042527 3.8750374972818284" fill="#ff2d04" stroke="none" /><path d="M 96.75951476605007 79.25152402106235 l -0.13218835044212746 -0.8463876906794942 a21.856648050792376,21.856648050792376 0 0,0 0.3722197774674792,-0.054855519525198314 l 0.11759959254599944 0.8485376943656615" fill="#ff0100" stroke="none" /><path d="M 97.11714578562143 79.19881850522333 l -3.0790060207528285 -22.2165112414454 a43.4288575236703,43.4288575236703 0 0,0 0.7413621799984054,-0.09625008820082923 l 2.6961291122465654 22.266219652810364" fill="#e1ff1b" stroke="none" /><path d="M 99.63851952072746 79.00311137660856 l -0.12963803808706373 -7.530131232942142 a28.531247068464147,28.531247068464147 0 0,0 0.4911185173595976,-0.004227212130563483 l 1.844623523196501e-15 7.531247068464147" fill="#ff6008" stroke="none" /></svg>