<?xml version="1.0" encoding="utf-8" ?>
<svg baseProfile="full" height="200mm" version="1.1" viewBox="0,0,200,200" width="200mm" xmlns="http://www.w3.org/2000/svg" xmlns:ev="http://www.w3.org/2001/xml-events" xmlns:xlink="http://www.w3.org/1999/xlink"><defs /><rect fill="#1a1a1a" height="200" width="200" x="0" y="0" /><text alignment-baseline="middle" fill="#e1ed5e" style="dominant-baseline: central; font-size:9.0px; font-family:Arial;" text-anchor="middle" x="100.0" y="100.0">2022</text><line stroke="#e1ed5e" stroke-width="0.3" x1="100.0" x2="100.0" y1="15.0" y2="10.0" /><path d="M 100.0 14.0 a86.0,86.0 0 0,1 42.46469731375804,11.215312516191453" fill="none" id="id109" stroke="none" /><text fill="#e1ed5e" style="font-size:6.75px; font-family:Arial;" text-anchor="middle"><textPath startOffset="22.20632615414155" xlink:href="#id109">January</textPath></text><path d="M 100.0 79.0 l 0.0 -2.367610208724063 a23.367610208724063,23.367610208724063 0 0,0 0.40223499703348575,0.00346216360958788 l -0.04075451776095739 2.367259421723034" fill="#ff1302" stroke="none" /><path d="M 100.36148047927253 79.00311137660856 l 0.13104312925337666 -7.611747099957288 a28.612875029542565,28.612875029542565 0 0,0 0.4923776631511687,0.01271666238359087 l -0.2620474275994132 7.608363645431338" fill="#ff5d08" stroke="none" /><path d="M 101.08401301168833 79.027996857942 l 0.6878048104921933 -13.306708029545495 a34.32447199857866,34.32447199857866 0 0,0 0.5897891500299636,0.035577692174112246 l -0.9167560093617688 13.29289706799108" fill="#ffaa0f" stroke="none" /><path d="M 101.80526077348638 79.07773832637324 l 0.3430043840242947 -3.975285777632068 a24.990056267937042,24.990056267937042 0 0,0 0.42825206302054714,0.04066769359484791 l -0.41138157413508597 3.968792539522042" fill="#ff2b04" stroke="none" /><path d="M 102.16513564639614 79.11191278185805 l 1.1678763803048464 -11.267055591838101 a32.32742146074049,32.32742146074049 0 0,0 0.5530041037320123,0.062136454476991745 l -1.3616471875465839 11.245283183890509" fill="#ff900d" stroke="none" /><path d="M 102.52436894288641 79.15227682838746 l 1.4050738760196209 -11.603926314125879 a32.688684207417694,32.688684207417694 0 0,0 0.5580196110865436,0.07244696078910584 l -1.6046082156140105 11.578021030172636" fill="#ff940d" stroke="none" /><path d="M 102.88285421437855 79.19881850522331 l 0.8539976545355755 -6.162004349546137 a27.22090102780761,27.22090102780761 0 0,0 0.4635732661059756,0.06831864906065764 l -0.9599399010702069 6.146391216324511" fill="#ff4a06" stroke="none" /><path d="M 103.2404852339499 79.25152402106235 l 2.0665896945354936 -13.232149983638115 a34.39255711785671,34.39255711785671 0 0,0 0.5841343166733348,0.0963871673070609 l -2.2940532173477037 13.194616553391429" fill="#ffab0f" stroke="none" /><path d="M 103.59715602781102 79.31037775812273 l 1.246148329363971 -7.16742281751295 a28.274945738889183,28.274945738889183 0 0,0 0.4787956502523684,0.08749684469884286 l -1.3693391007192401 7.144910491463368" fill="#ff5908" stroke="none" /><path d="M 103.95276090670814 79.375362276772 l 0.9792833603207404 -5.109685359598706 a26.20268011450814,26.20268011450814 0 0,0 0.44224333307473696,0.08870985220552051 l -1.0670931028626027 5.0920715513159776" fill="#ff3c05" stroke="none" /><path d="M 104.307194497241 79.44645832069477 l 2.1643565431196996 -10.328113217636895 a31.55245762285123,31.55245762285123 0 0,0 0.5306180943022567,0.1159725633517224 l -2.341817361575484 10.289327156189303" fill="#ff850c" stroke="none" /><path d="M 104.66035177308747 79.52364482259891 l 1.558479593264703 -6.847547833771787 a28.022661174968874,28.022661174968874 0 0,0 0.46941468712518997,0.11109529026226322 l -1.6761179673524167 6.819706631368656" fill="#ff5507" stroke="none" /><path d="M 105.36241919743992 79.69619591428918 l 1.9601410185870798 -7.421709820962496 a28.676192381599016,28.676192381599016 0 0,0 0.4761642291662152,0.13015367103908987 l -2.087603136977006 7.386869609097113" fill="#ff5e08" stroke="none" /><path d="M 105.71112130821622 79.79150937346287 l 5.97401803248796 -21.13873631761529 a42.966680781541825,42.966680781541825 0 0,0 0.709993263959516,0.20726650304699115 l -6.337001514170903 21.032771485649597" fill="#e8ff1a" stroke="none" /><path d="M 106.0581310904928 79.89281104454417 l 5.678549182681629 -18.847340822355992 a40.684211360737336,40.684211360737336 0 0,0 0.6687992791169192,0.2077991915697005 l -6.002133834509267 18.74680149590377" fill="#fffa17" stroke="none" /><path d="M 106.40334571778207 80.00007090966166 l 4.044934587858253 -12.633771234242033 a34.26550682858418,34.26550682858418 0 0,0 0.5601874808963186,0.18468500496653112 l -4.26180489099699 12.562272505016265" fill="#ffa90f" stroke="none" /><path d="M 106.74666289553966 80.11325718540242 l 6.142540843324765 -18.106007647146566 a40.11957951761604,40.11957951761604 0 0,0 0.6520730704179448,0.22749549047845227 l -6.453295917805984 17.997591303495906" fill="#fff316" stroke="none" /><path d="M 107.08798089147638 80.2323363322302 l 4.9943823955510345 -13.92882866574983 a35.79716606356786,35.79716606356786 0 0,0 0.5782395912388735,0.21297052141792852 l -5.2334043125624845 13.840794876525578" fill="#ffbd11" stroke="none" /><path d="M 107.4271985657038 80.35727306442388 l 4.673721928688647 -12.36060175393275 a34.21469456272185,34.21469456272185 0 0,0 0.5490918129538866,0.2130390927729676 l -4.8857969066422005 12.278319957269236" fill="#ffa90f" stroke="none" /><path d="M 108.43124777332544 80.76684994638697 l 5.4865841764955245 -12.515857626930664 a34.66562468617405,34.66562468617405 0 0,0 0.5444448998104577,0.24427655635704812 l -5.701211194772762 12.419560740057085" fill="#ffae10" stroke="none" /><path d="M 108.76106565485865 80.91482961587045 l 5.398853471885602 -11.760902434596414 a33.94088269350229,33.94088269350229 0 0,0 0.5288664926208733,0.24830990961094515 l -5.600498175806073 11.666227542345466" fill="#ffa50f" stroke="none" /><path d="M 109.08828744355905 81.06846463323043 l 27.264862330677165 -56.79460610030869 a84.0,84.0 0 0,0 1.2981149319582728,0.6369793594606721 l -28.23844852964587 56.31687158071319" fill="#4dd2ff" stroke="none" /><path d="M 109.41281617654863 81.2277094730956 l 4.363977319009521 -8.703224258152483 a30.73603669510974,30.73603669510974 0 0,0 0.4709046409399392,0.24121564712492155 l -4.5131424475382165 8.626816085715062" fill="#ff7a0b" stroke="none" /><path d="M 109.73455568895987 81.39251694778311 l 6.683258234132247 -12.774965627475133 a35.41754789855985,35.41754789855985 0 0,0 0.537764789870315,0.28725532677465887 l -6.902168070530874 12.65803157419872" fill="#ffb811" stroke="none" /><path d="M 110.05341064243156 81.56283822128135 l 5.016785943948132 -9.200389534213057 a31.47927997472406,31.47927997472406 0 0,0 0.4735022017796384,0.2635034626404123 l -5.174412234799806 9.112670674012465" fill="#ff840c" stroke="none" /><path d="M 110.36928655335952 81.73862282372117 l 2.913930027787519 -5.131729654579985 a26.901325059216564,26.901325059216564 0 0,0 0.4007058275969184,0.23211467911566291 l -3.0018325878497656 5.080810818074273" fill="#ff4606" stroke="none" /><line stroke="#e1ed5e" stroke-width="0.3" x1="143.23703022742887" x2="145.7803849466894" y1="26.81831364943548" y2="22.513508569990506" /><path d="M 143.74570117128098 25.957352633546492 a86.0,86.0 0 0,1 28.547481713284135,27.462654790039103" fill="none" id="id110" stroke="none" /><text fill="#e1ed5e" style="font-size:6.75px; font-family:Arial;" text-anchor="middle"><textPath startOffset="19.985693538727396" xlink:href="#id110">February</textPath></text><path d="M 110.68208982089419 81.91981866633111 l 7.814837066628052 -13.227156261253432 a36.36324643874333,36.36324643874333 0 0,0 0.536163832995778,0.32303271020188223 l -8.041362965841468 13.090676941592935" fill="#ffc412" stroke="none" /><path d="M 110.99172775467656 82.1063720568725 l 3.4374486308228316 -5.595883399439847 a27.567340718256684,27.567340718256684 0 0,0 0.4021954864810526,0.2518547767369503 l -3.533263269676147 5.535884281379953" fill="#ff4f07" stroke="none" /><path d="M 111.60114157652 82.49532879139004 l 3.577283491304476 -5.397673230883632 a27.475479401909737,27.475479401909737 0 0,0 0.3919773641781863,0.2646648660423619 l -3.669665549889204 5.3352964525426" fill="#ff4e07" stroke="none" /><path d="M 112.19680574252982 82.90503203632743 l 10.887626879581465 -15.260030915951967 a39.7459052228692,39.7459052228692 0 0,0 0.5535179113422147,0.4021543026028175 l -11.148690107277469 15.070357378532474" fill="#ffef16" stroke="none" /><path d="M 112.48926042617603 83.11751280151076 l 3.2702270823196766 -4.420563345584657 a26.498705798846096,26.498705798846096 0 0,0 0.3643620580877072,0.2744299481340109 l -3.3458352941657665 4.3636168079447994" fill="#ff4006" stroke="none" /><path d="M 113.06298171725822 83.55741782278167 l 11.92853366586773 -15.014634430332213 a40.17626560345516,40.17626560345516 0 0,0 0.537781510452456,0.4348485812553443 l -12.185218574884678 14.807079751812738" fill="#fff417" stroke="none" /><path d="M 113.34407831869373 83.78471172551755 l 13.097175105943672 -15.915259552001906 a41.61144056982283,41.61144056982283 0 0,0 0.5491570062000004,0.45990319978246424 l -13.36918964910279 15.687455194825622" fill="#f9ff18" stroke="none" /><path d="M 113.89432698308785 84.25364557470407 l 12.478321062057221 -14.141603714591808 a39.859837012772346,39.859837012772346 0 0,0 0.5105646758404969,0.45839000708946515 l -12.719896725493708 13.924714698733046" fill="#fff016" stroke="none" /><path d="M 114.16331599549186 84.49514656593476 l 1.4064730947458886 -1.5396930492783125 a23.08538275916917,23.08538275916917 0 0,0 0.2910870168669697,0.2705336583687188 l -1.432767995407705 1.5152548048349532" fill="#ff0f01" stroke="none" /><path d="M 114.42810811169701 84.74124197986012 l 13.117207671367929 -13.872386885918903 a40.09199452667029,40.09199452667029 0 0,0 0.49736363672365835,0.4784634244674664 l -13.354054551704005 13.644540374689134" fill="#fff316" stroke="none" /><path d="M 114.68862486808459 84.99185889309783 l 13.485907812440137 -13.779261790771638 a40.28050219844528,40.28050219844528 0 0,0 0.49135345783443524,0.48924342993487946 l -13.721097070441894 13.54508251018664" fill="#fff517" stroke="none" /><path d="M 115.4437574822437 85.77008943001954 l 4.188463263294766 -3.859258844931957 a26.695358051971393,26.695358051971393 0 0,0 0.308466590349656,0.3406165134698636 l -4.254273494260457 3.786589544192544" fill="#ff4306" stroke="none" /><path d="M 115.68641384162765 86.03803664274999 l 5.021808502721461 -4.469747324659922 a27.72288641762674,27.72288641762674 0 0,0 0.3142034539286821,0.3591888633994678 l -5.098003820227991 4.382642905057507" fill="#ff5107" stroke="none" /><path d="M 115.9244219780498 86.31012108654704 l 2.995744127259718 -2.5753760114121165 a24.95057520826627,24.95057520826627 0 0,0 0.27717639921333237,0.32808943073183905 l -3.039631139960168 2.5234276310511707" fill="#ff2a04" stroke="none" /><path d="M 116.38621287248628 86.86637796730983 l 11.391334035214234 -9.130204570808973 a35.59873715794114,35.59873715794114 0 0,0 0.37911963339912197,0.48144343421532765 l -11.54680774920732 8.932768742640606" fill="#ffba11" stroke="none" /><path d="M 116.60985879189232 87.15038557335679 l 6.490466929180509 -5.0211141788609375 a29.205958113221406,29.205958113221406 0 0,0 0.30419265372229887,0.4002818752364745 l -6.575935523126922 4.908647527743429" fill="#ff6609" stroke="none" /><path d="M 116.82858285166822 87.43820079747576 l 5.047562207289432 -3.7677838632701297 a27.298736339677614,27.298736339677614 0 0,0 0.277845742234382,0.3789812801583716 l -5.11167056203744 3.6803401394402644" fill="#ff4b07" stroke="none" /><path d="M 117.04232023915458 87.72973835380427 l 5.202766113917015 -3.745927820030782 a27.41098670011128,27.41098670011128 0 0,0 0.2723965239541349,0.3852855654109771 l -5.266475257675033 3.6558157542880116" fill="#ff4d07" stroke="none" /><path d="M 117.2510076193507 88.02491185347247 l 3.1628362839517554 -2.1955380305364107 a24.850184489425597,24.850184489425597 0 0,0 0.24089950407930333,0.35349029679887145 l -3.2001602536997917 2.140769710467133" fill="#ff2904" stroke="none" /><path d="M 117.45458315368197 88.32363383020206 l 2.431688398402342 -1.6266950577164485 a23.925618785440726,23.925618785440726 0 0,0 0.22604396515119418,0.3442804669103148 l -2.4593289989114613 1.5845965268284599" fill="#ff1b02" stroke="none" /><line stroke="#e1ed5e" stroke-width="0.3" x1="172.23445277983987" x2="176.4835382374775" y1="55.19839476539836" y2="52.563006222186495" /><path d="M 173.08426987136738 54.67131705675599 a86.0,86.0 0 0,1 12.851231095245387,41.99856678651699" fill="none" id="id111" stroke="none" /><text fill="#e1ed5e" style="font-size:6.75px; font-family:Arial;" text-anchor="middle"><textPath startOffset="22.20632615414155" xlink:href="#id111">March</textPath></text><path d="M 117.84615892207809 88.93136811851018 l 6.339293156860438 -3.931787375003668 a28.45959715338944,28.45959715338944 0 0,0 0.25462422344096325,0.41853527440526983 l -6.406033178587625 3.8220843273913165" fill="#ff5b08" stroke="none" /><path d="M 118.03404312379186 89.2402003453031 l 11.301183093223093 -6.742717931272243 a34.15982463436545,34.15982463436545 0 0,0 0.29693073851398105,0.5075508836334567 l -11.415573506207402 6.547187635284891" fill="#ffa80f" stroke="none" /><path d="M 118.21658344932153 89.55222093294921 l 11.927467499138313 -6.840774814174455 a34.7499338544316,34.7499338544316 0 0,0 0.2931278689479024,0.5214417707717411 l -12.043453009378648 6.63444953346792" fill="#ffaf10" stroke="none" /><path d="M 118.56541770881063 90.18545643968196 l 9.828314151841466 -5.1957041247696205 a32.11715343149654,32.11715343149654 0 0,0 0.25416990162209163,0.4909753492790552 l -9.916293486623674 5.025756053230221" fill="#ff8d0d" stroke="none" /><path d="M 119.04729006885535 91.15688171328212 l 11.92701695274702 -5.537376778510398 a34.14976330502952,34.14976330502952 0 0,0 0.24294740542959642,0.5353024039651741 l -12.020566675139962 5.33125236570316" fill="#ffa80f" stroke="none" /><path d="M 119.196687751892 91.48605970444005 l 12.979755471269051 -5.756663053628123 a35.199057067529026,35.199057067529026 0 0,0 0.2408776907324556,0.5559789209068744 l -13.076923871844189 5.5323849881346465" fill="#ffb510" stroke="none" /><path d="M 119.34039704204932 91.81776055985345 l 5.904936972548994 -2.4981704400030433 a27.411640679036925,27.411640679036925 0 0,0 0.1801053305035812,0.4361393436410915 l -5.947063989938773 2.396156525908649" fill="#ff4d07" stroke="none" /><path d="M 119.47837535516314 92.15188598940014 l 5.811345130858753 -2.34147347046757 a27.265319644109084,27.265319644109084 0 0,0 0.17165005340420958,0.4368306631473819 l -5.850788734144663 2.2410938024244036" fill="#ff4b07" stroke="none" /><path d="M 119.85752413597 93.16781622104841 l 6.127790864980056 -2.108328966987775 a27.480345046212644,27.480345046212644 0 0,0 0.15004622528972736,0.4486191153722495 l -6.163174384041553 2.002536748693211" fill="#ff4e07" stroke="none" /><path d="M 119.97218684219823 93.5106431181261 l 6.1818977311938434 -2.0086203329623964 a27.500031938454576,27.500031938454576 0 0,0 0.14240369854791057,0.45145863971668443 l -6.2155569135099595 1.901911526819293" fill="#ff4e07" stroke="none" /><path d="M 120.08093135843002 93.85539295169968 l 12.413280362042961 -3.7983661536254782 a33.981414205844025,33.981414205844025 0 0,0 0.16633757086501869,0.5608075981209307 l -12.476823830019683 3.5841291687580177" fill="#ffa50f" stroke="none" /><path d="M 120.53481517161879 95.60439243477599 l 12.512511986776792 -2.6783826340471766 a33.7959638071385,33.7959638071385 0 0,0 0.11687079461455617,0.5699035003584764 l -12.556762077306344 2.4626034775252883" fill="#ffa30f" stroke="none" /><path d="M 120.6074358757038 95.95851677861258 l 18.9349469570843 -3.713478517487011 a40.295650778541614,40.295650778541614 0 0,0 0.12763028767218146,0.6818061002156469 l -18.996062968666344 3.386994339808801" fill="#fff517" stroke="none" /><path d="M 120.67395015179393 96.31383870115 l 12.639928790699294 -2.25369684972625 a33.83927370704492,33.83927370704492 0 0,0 0.09730908317505259,0.5743237172505242 l -12.676849735394569 2.0357873441598877" fill="#ffa40f" stroke="none" /><path d="M 120.73433829027371 96.67025291283417 l 12.759534881153591 -2.0490658302822125 a33.92301826819901,33.92301826819901 0 0,0 0.08762494370479827,0.5773388971139971 l -12.792915718297689 1.8291278207761332" fill="#ffa50f" stroke="none" /><path d="M 120.78858239683441 97.02765380044208 l 12.105947801403167 -1.7309053235407958 a33.22906396292701,33.22906396292701 0 0,0 0.07608506394764779,0.5669221013465144 l -12.13394886440865 1.5222648801296172" fill="#ff9c0e" stroke="none" /><path d="M 120.83666639777658 97.38593545837742 l 6.726072055989195 -0.8438195501289968 a27.778796112551152,27.778796112551152 0 0,0 0.05543807328868073,0.4749595564766062 l -6.739600482281464 0.7279162553275379" fill="#ff5207" stroke="none" /><path d="M 120.94382443527127 98.46500227214037 l 38.79018823848646 -2.8429788930549242 a59.89423135329414,59.89423135329414 0 0,0 0.06650943225731552,1.0288714792491678 l -38.83337826174819 2.1748483495527213" fill="#32ff2f" stroke="none" /><path d="M 120.98425023603335 99.18683210126433 l 12.943656740355383 -0.5015840945051636 a33.953371623481196,33.953371623481196 0 0,0 0.017604508785594948,0.5842079411017467 l -12.950372943596623 0.2787060059784179" fill="#ffa50f" stroke="none" /><line stroke="#e1ed5e" stroke-width="0.3" x1="184.98032266829074" x2="189.97916517819016" y1="98.17113171792111" y2="98.06355123074" /><path d="M 185.9800911702706 98.14961562048488 a86.0,86.0 0 0,1 -9.607161424134198,41.387399972396054" fill="none" id="id112" stroke="none" /><text fill="#e1ed5e" style="font-size:6.75px; font-family:Arial;" text-anchor="middle"><textPath startOffset="21.466115282336823" xlink:href="#id112">April</textPath></text><path d="M 120.99513854157772 99.54816195383933 l 18.938286609603402 -0.40757237216453723 a39.94267180062082,39.94267180062082 0 0,0 0.008876769761567673,0.6875156005769161 l -18.942496386482684 0.08152051352715846" fill="#fff116" stroke="none" /><path d="M 120.99824983174949 100.27111621757518 l 37.805340241346045 0.4881188162110136 a58.808491251869306,58.808491251869306 0 0,0 -0.021781369454586995,1.0120946503068335 l -37.79133680920645 -1.1388032823079621" fill="#3cff2e" stroke="none" /><path d="M 120.9764740272857 100.99374915477107 l 8.031175272017393 0.38047260125815674 a29.04018256323647,29.04018256323647 0 0,0 -0.02795276478549295,0.49911539285023365 l -8.02343615634437 -0.5186597104438136" fill="#ff6309" stroke="none" /><path d="M 120.95626037817324 101.35467743843564 l 19.347773452896053 1.2506998723828155 a40.38815586267471,40.38815586267471 0 0,0 -0.050818765099665306,0.6933816740880806 l -19.32337812913205 -1.5835546829676663" fill="#fff717" stroke="none" /><path d="M 120.92983693683757 101.71520430193887 l 16.485887633937917 1.3510217722357303 a37.541153252052354,37.541153252052354 0 0,0 -0.058323584812971146,0.6435958983852001 l -16.46018945284787 -1.634599059169501" fill="#ffd313" stroke="none" /><path d="M 120.89721153311464 102.0752229133903 l 4.3379598335630885 0.4307863577736941 a25.359297237359552,25.359297237359552 0 0,0 -0.046875693062144334,0.43401070007256526 l -4.329901838999892 -0.5053933797310508" fill="#ff3004" stroke="none" /><path d="M 120.70491114924044 103.5080841355445 l 2.1424797179571424 0.3630056200249393 a23.173014593146444,23.173014593146444 0 0,0 -0.07001953417433521,0.39270673250887234 l -2.1359137414436185 -0.39983110326703" fill="#ff1101" stroke="none" /><path d="M 120.64145759157962 103.86396538481128 l 2.019313896924835 0.3780042646779399 a23.054389407689904,23.054389407689904 0 0,0 -0.07637597220467265,0.38943943681943644 l -2.0125079917444983 -0.4127074285653213" fill="#ff0f01" stroke="none" /><path d="M 120.32669344350535 105.2749913415812 l 1.971158152121241 0.5115363309938148 a23.036451295415787,23.036451295415787 0 0,0 -0.10290922906104348,0.38296352450902565 l -1.9620608467184202 -0.5453907886783886" fill="#ff0f01" stroke="none" /><path d="M 120.13307415673323 105.97154293290107 l 3.0799952847284002 0.9135377902404169 a24.212619219289227,24.212619219289227 0 0,0 -0.12195461337639349,0.3985547327607597 l -3.063813898845874 -0.9664194955532338" fill="#ff2003" stroke="none" /><path d="M 120.02730092923936 106.31721596034902 l 4.191889080753247 1.3222484996111232 a25.395483495596608,25.395483495596608 0 0,0 -0.1350891569355785,0.4157616743515171 l -4.1685076728014225 -1.3942090739404356" fill="#ff3004" stroke="none" /><path d="M 119.9155931802556 106.66101706037122 l 6.446465731002965 2.1561003895118773 a27.797476687025036,27.797476687025036 0 0,0 -0.15567800643028232,0.45247315794590276 l -6.408396893629452 -2.266746250547081" fill="#ff5207" stroke="none" /><path d="M 119.79798401119884 107.00284435728193 l 6.180368252940008 2.1860890948059977 a27.5556035017669,27.5556035017669 0 0,0 -0.16202135742036333,0.4458131902167082 l -6.141822634514418 -2.292150082028837" fill="#ff4f07" stroke="none" /><path d="M 119.54520255179757 107.68017299344265 l 8.675906413745647 3.4091466668559547 a30.32167544469383,30.32167544469383 0 0,0 -0.19506567066256922,0.48413699736528 l -8.615938128825686 -3.5579830320640484" fill="#ff750a" stroke="none" /><path d="M 119.41010516605496 108.01547362559984 l 5.587221257936978 2.307263368758286 a27.044874327722347,27.044874327722347 0 0,0 -0.18139257203985745,0.42875845780266475 l -5.546677704704812 -2.4030963522271143" fill="#ff4806" stroke="none" /><path d="M 118.81262510543309 109.33194174019688 l 8.760675171242493 4.345704538555529 a30.779293297189056,30.779293297189056 0 0,0 -0.2395234787459623,0.4726025471641001 l -8.684573022710262 -4.495861297422323" fill="#ff7b0b" stroke="none" /><path d="M 118.64920377521936 109.65438752849418 l 26.157438997959847 13.541278002163958 a50.45467407498987,50.45467407498987 0 0,0 -0.40591383968095485,0.7678360120518879 l -25.920472650054 -13.98952902930198" fill="#93ff23" stroke="none" /><line stroke="#e1ed5e" stroke-width="0.3" x1="174.80103733775053" x2="179.2010983576182" y1="140.37084112569926" y2="142.7455964860345" /><path d="M 175.68104954172406 140.8457921977663 a86.0,86.0 0 0,1 -30.038265399797805,32.042727171017184" fill="none" id="id113" stroke="none" /><text fill="#e1ed5e" style="font-size:6.75px; font-family:Arial;" text-anchor="middle"><textPath startOffset="22.206326154141568" xlink:href="#id113">May</textPath></text><path d="M 118.48025628344425 109.97397251340804 l 17.498725690699004 9.444230988022362 a40.88463979441044,40.88463979441044 0 0,0 -0.339583127201084,0.6164420144569832 l -17.333566154046412 -9.74404352087715" fill="#fffd17" stroke="none" /><path d="M 118.30583269289576 110.29060199501025 l 14.858856237522506 8.352888295584632 a38.04571358335802,38.04571358335802 0 0,0 -0.3258307449012019,0.5681133680904669 l -14.712873496468925 -8.607421509533415" fill="#ffda14" stroke="none" /><path d="M 118.12598468904814 110.60418214915192 l 16.335447785814228 9.556670535719803 a39.925559597839055,39.925559597839055 0 0,0 -0.3521417707604757,0.5902098629513673 l -16.168525139355523 -9.836442492557275" fill="#fff116" stroke="none" /><path d="M 117.94076556474637 110.91462005526583 l 48.89493815036608 29.74620400734902 a78.2324351183396,78.2324351183396 0 0,0 -0.7098116769012166,1.144442432122959 l -48.3756618337969 -30.58344277083725" fill="#46fff6" stroke="none" /><path d="M 117.75023020441432 111.22182372390056 l 10.816042312361358 6.837980061204151 a33.79627846759427,33.79627846759427 0 0,0 -0.3151022361861844,0.48904566806388555 l -10.696735212798124 -7.02314732918949" fill="#ffa30f" stroke="none" /><path d="M 117.55443506779139 111.5257021239791 l 5.6344728368034565 3.6994215588174293 a27.74040087965984,27.74040087965984 0 0,0 -0.2655111634034919,0.39690316426050215 l -5.569958567989243 -3.795861637283738" fill="#ff5107" stroke="none" /><path d="M 117.14729908036423 112.12312394758627 l 12.464273736290114 8.8122295361795 a36.26478002368478,36.26478002368478 0 0,0 -0.36475496981218053,0.5066127506979164 l -12.31073897410233 -9.025475892328547" fill="#ffc312" stroke="none" /><path d="M 116.71984013943494 112.70617746262583 l 9.012049108264021 6.848671656939145 a32.319069422630285,32.319069422630285 0 0,0 -0.34041703953056174,0.4400349122719758 l -8.89282525151539 -7.002784563324374" fill="#ff900d" stroke="none" /><path d="M 116.498646956653 112.99209946851258 l 10.225811206898252 8.052463738105484 a34.01573613333605,34.01573613333605 0 0,0 -0.3662070784769411,0.45689963731241384 l -10.085686216366456 -8.227291208996148" fill="#ffa60f" stroke="none" /><path d="M 116.27256486870786 113.27417163493432 l 10.022233183365369 8.175530072530604 a33.933848999760365,33.933848999760365 0 0,0 -0.373117213002531,0.44944371914688025 l -9.880019970469293 -8.346835048791256" fill="#ffa50f" stroke="none" /><path d="M 116.0416608686014 113.55231037782055 l 2.438135833167995 2.059785069952024 a24.19174260794555,24.19174260794555 0 0,0 -0.2714745405761006,0.3157862219060808 l -2.4023187830211157 -2.1014483910196327" fill="#ff1f03" stroke="none" /><path d="M 115.80600337817218 113.82643327865902 l 10.21902528606458 8.939177596648129 a34.577090038062025,34.577090038062025 0 0,0 -0.3957284569314671,0.44460511645107204 l -10.063637979484774 -9.113756882840066" fill="#ffad10" stroke="none" /><path d="M 115.56566222782051 114.09645910891815 l 9.389821916616567 8.503540597908907 a33.66802898347086,33.66802898347086 0 0,0 -0.3927192683431109,0.4262192027889533 l -9.242056240277734 -8.663911055499195" fill="#ffa10e" stroke="none" /><path d="M 115.07121518719521 114.62390073753431 l 10.08429239564122 9.784990073489507 a35.05129829798925,35.05129829798925 0 0,0 -0.4238859907975866,0.429394270737004 l -9.914365779788099 -9.957124838207175" fill="#ffb310" stroke="none" /><path d="M 114.55890576462653 115.13401014063108 l 11.626223604610946 12.085481476013937 a37.76985205097197,37.76985205097197 0 0,0 -0.47241841305481885,0.4467010964139265 l -11.41646935716532 -12.283817209173785" fill="#ffd614" stroke="none" /><path d="M 114.29624159901734 115.38237550388516 l 8.902564080989414 9.578922032948316 a34.077132504086116,34.077132504086116 0 0,0 -0.433104858010379,0.3956310189754126 l -8.736359673512172 -9.73074581851031" fill="#ffa70f" stroke="none" /><path d="M 114.0293411484842 115.62618273729858 l 8.433259683211093 9.393146512456669 a33.62343337959014,33.62343337959014 0 0,0 -0.4339947018606573,0.38294986469329156 l -8.270322628443848 -9.536919518922248" fill="#ffa10e" stroke="none" /><path d="M 113.48314897796784 116.09983520530334 l 2.6721436841996016 3.190728889134457 a25.1618628897364,25.1618628897364 0 0,0 -0.33444893114229657,0.2752287011628035 l -2.616824624512614 -3.236252709154439" fill="#ff2d04" stroke="none" /><path d="M 113.20401910651253 116.32954008644616 l 5.073292399850687 6.274190528303886 a29.068690262975828,29.068690262975828 0 0,0 -0.39179404645025717,0.31126488592536566 l -4.964540860683079 -6.3605893282343775" fill="#ff6409" stroke="none" /><path d="M 112.92097659922987 116.55440617244103 l 4.030944929097171 5.16446253907722 a27.551350268375682,27.551350268375682 0 0,0 -0.37636623253381213,0.2885815780274543 l -3.9414499680698647 -5.233083458932046" fill="#ff4f07" stroke="none" /><path d="M 112.04921762599082 117.19931262002967 l 13.561306503013402 19.357700833475388 a44.63534674226311,44.63534674226311 0 0,0 -0.6330633680787372,0.4354267571445399 l -13.22608625031178 -19.588268379985024" fill="#d5ff1c" stroke="none" /><line stroke="#e1ed5e" stroke-width="0.3" x1="143.8653032363475" x2="146.44561519142675" y1="172.8068346515853" y2="177.08958963109032" /><path d="M 144.38136562736335 173.6633856474863 a86.0,86.0 0 0,1 -40.68145358897372,12.25698825130547" fill="none" id="id114" stroke="none" /><text fill="#e1ed5e" style="font-size:6.75px; font-family:Arial;" text-anchor="middle"><textPath startOffset="21.466115282336833" xlink:href="#id114">June</textPath></text><path d="M 110.8373102113329 117.98757091392108 l 1.9143080831383033 3.1773338333098664 a24.709450865756846,24.709450865756846 0 0,0 -0.36620833326995667,0.21636233823965792 l -1.8593318788399646 -3.209814743843274" fill="#ff2703" stroke="none" /><path d="M 110.21172684928248 118.3499491758327 l 4.588154045793043 8.24467739823154 a30.435351766035915,30.435351766035915 0 0,0 -0.45997554110919214,0.2508153400043949 l -4.445555692815202 -8.322433389995703" fill="#ff760a" stroke="none" /><path d="M 109.89434966115114 118.52300852407294 l 6.146558429569451 11.506845632478008 a34.0455999071637,34.0455999071637 0 0,0 -0.5192912085336966,0.27166861708662465 l -5.947576318509259 -11.61094366850935" fill="#ffa60f" stroke="none" /><path d="M 109.57404056367764 118.69057910512821 l 3.6448550913314706 7.115538309886981 a28.994739149983207,28.994739149983207 0 0,0 -0.4461684120987977,0.22371810413063647 l -3.5218327715499123 -7.177224254926919" fill="#ff6309" stroke="none" /><path d="M 109.2508944713604 118.85261126421891 l 2.9059928537349795 5.922189878792035 a27.596751278199413,27.596751278199413 0 0,0 -0.4282586498054083,0.20559017714188563 l -2.803621535929339 -5.97133433243348" fill="#ff4f07" stroke="none" /><path d="M 108.2653958097858 119.30500536409082 l 19.941021420069273 46.57508658255818 a71.66441577131283,71.66441577131283 0 0,0 -1.138196571341576,0.475766259131254 l -19.136353389230237 -46.91143788470941" fill="#3effb3" stroke="none" /><path d="M 107.59598834532513 119.57807347666477 l 21.155985070737284 54.52791807415405 a79.48820012459706,79.48820012459706 0 0,0 -1.2798727409663382,0.48393835627638354 l -20.214242109010673 -54.88400468053707" fill="#47fcff" stroke="none" /><path d="M 106.57524785965236 119.94407469862006 l 3.2229965787386616 9.776009344712254 a31.293593427684154,31.293593427684154 0 0,0 -0.5130341072644804,0.16425732006295904 l -3.0542411263832405 -9.830039511434919" fill="#ff820c" stroke="none" /><path d="M 106.2309692047433 120.05430185196036 l 13.156275267842384 42.34331879989785 a65.34009726999957,65.34009726999957 0 0,0 -1.0769448970312108,0.32447466316180446 l -12.425455396370928 -42.563508832165375" fill="#36ff6d" stroke="none" /><path d="M 105.18746579009965 120.34920634021253 l 4.80448817184754 18.846875357641224 a40.44962255006217,40.44962255006217 0 0,0 -0.676176529979822,0.16618773977580018 l -4.479358357124506 -18.926784355731055" fill="#fff717" stroke="none" /><path d="M 104.83641907484287 120.43548508189849 l 9.847035123651432 41.60701052913767 a63.756372927298194,63.756372927298194 0 0,0 -1.0701350859365257,0.2435592614984358 l -9.129379888322045 -41.77034652421379" fill="#34ff5a" stroke="none" /><path d="M 104.48393922423573 120.51570834832081 l 2.2096359179275806 10.10991536262473 a31.348568960452027,31.348568960452027 0 0,0 -0.5281614938179949,0.11068137624757657 l -2.035282962680208 -10.146452719598846" fill="#ff830c" stroke="none" /><path d="M 104.13013068566511 120.58985236759428 l 3.801110884472521 18.94959697420359 a40.32707089656375,40.32707089656375 0 0,0 -0.6817817227496678,0.13066508981915004 l -3.474361547151149 -19.01221926237121" fill="#fff617" stroke="none" /><path d="M 103.7750983002368 120.6578951692458 l 2.5156169828784454 13.765827479251984 a34.99379630382962,34.99379630382962 0 0,0 -0.5934798355098331,0.1031840766704519 l -2.278288175896562 -13.807090134443442" fill="#ffb310" stroke="none" /><path d="M 103.41894727170886 120.7198165907248 l 1.455344614182996 8.819812382511238 a29.93907816325207,29.93907816325207 0 0,0 -0.5091983331683347,0.0795263074482621 l -1.303310417406144 -8.843556997306605" fill="#ff700a" stroke="none" /><path d="M 103.06178313531738 120.77559828337769 l 1.8915104900169737 12.834763388725136 a33.9733944354746,33.9733944354746 0 0,0 -0.5792810098893278,0.08028306955007738 l -1.6703008889408153 -12.865421023767816" fill="#ffa50f" stroke="none" /><path d="M 102.70371172650421 120.8252237178851 l 1.3236186273563237 10.195115759436169 a31.280678558295087,31.280678558295087 0 0,0 -0.5345608439484186,0.06472787370776024 l -1.1479303603565247 -10.216389161869278" fill="#ff820b" stroke="none" /><path d="M 102.34483914955558 120.86867818915974 l 1.5066758581858137 13.40916438801997 a34.49354518748068,34.49354518748068 0 0,0 -0.5906073560442733,0.061218867301773346 l -1.2756359055359379 -13.433112623777502" fill="#ffac0f" stroke="none" /><path d="M 101.98527174616119 120.90594882070398 l 1.3366487455866203 14.075609709615643 a35.13893272374207,35.13893272374207 0 0,0 -0.6026422042358759,0.051998505167620356 l -1.0941622236092028 -14.096532467061927" fill="#ffb510" stroke="none" /><path d="M 101.62511606390274 120.93702456842531 l 0.38570516938890265 4.9691949929229455 a25.984141586610857,25.984141586610857 0 0,0 -0.44623090882498684,0.030774696075345366 l -0.30011149978498547 -4.975098033514576" fill="#ff3905" stroke="none" /><path d="M 101.26447882468166 120.96189622390904 l 2.53177318839284 41.97046704275713 a63.046759438328024,63.046759438328024 0 0,0 -1.083839638338166,0.056022129244579645 l -1.808945481641194 -42.00782897876391" fill="#33ff52" stroke="none" /><path d="M 100.90346689309514 120.98055641714683 l 0.46651647880891106 10.833573845354298 a31.843613783593778,31.843613783593778 0 0,0 -0.5478309328164265,0.01886840500718456 l -0.27996519431783234 -10.839999048787575" fill="#ff890c" stroke="none" /><line stroke="#e1ed5e" stroke-width="0.3" x1="102.19456741930631" x2="102.32365962044197" y1="184.97166512339345" y2="189.96999836594603" /><path d="M 102.22038585953345 185.97133177190398 a86.0,86.0 0 0,1 -42.740103519485714,-10.115201625700543" fill="none" id="id115" stroke="none" /><text fill="#e1ed5e" style="font-size:6.75px; font-family:Arial;" text-anchor="middle"><textPath startOffset="22.20632615414155" xlink:href="#id115">July</textPath></text><path d="M 100.54218724476979 120.99299961872073 l 0.37167938517500176 14.391089547999373 a35.39588843885298,35.39588843885298 0 0,0 -0.6092143282792166,0.010488177144528217 l -0.12390536700311718 -14.39535520242306" fill="#ffb811" stroke="none" /><path d="M 100.18074693466247 120.99922214144158 l 0.20589887635591012 23.921380748975515 a44.922266850880604,44.922266850880604 0 0,0 -0.7732916220367148,0.0 l 0.20589887635589366 -23.921380748975515" fill="#d1ff1c" stroke="none" /><path d="M 99.45781275523022 120.99299961872073 l -0.16284239586365148 6.3051102497418 a27.307212768512706,27.307212768512706 0 0,0 -0.46978762979780797,-0.016180435852388056 l 0.2713503773361025 -6.301373015463318" fill="#ff4b07" stroke="none" /><path d="M 99.09653310690486 120.98055641714683 l -0.4445024058291217 10.32235699429591 a31.331923165920156,31.331923165920156 0 0,0 -0.5386284810689994,-0.027840940037519673 l 0.6221189553116101 -10.31317624749619" fill="#ff820c" stroke="none" /><path d="M 98.73552117531835 120.96189622390904 l -0.37804401630996504 6.2670242342368825 a27.278416204010384,27.278416204010384 0 0,0 -0.46845774810179064,-0.032307589046072886 l 0.48586452519068574 -6.259588300674524" fill="#ff4b07" stroke="none" /><path d="M 98.37488393609728 120.93702456842531 l -0.484375319293248 6.2404022615019015 a27.259172456107795,27.259172456107795 0 0,0 -0.4675021835109751,-0.04033805553992442 l 0.5917218205457648 -6.231139953683313" fill="#ff4b06" stroke="none" /><path d="M 97.65516085044442 120.86867818915974 l -1.9820649676660704 17.640048345350284 a38.75105312826099,38.75105312826099 0 0,0 -0.6622233474100735,-0.08018602500116703 l 2.2854157381275333 -17.60331679162377" fill="#ffe215" stroke="none" /><path d="M 97.2962882734958 120.8252237178851 l -1.286778711450488 9.911357885781893 a30.994539238618913,30.994539238618913 0 0,0 -0.5284884919374914,-0.07324368938442716 l 1.4571957945748106 -9.88773963090486" fill="#ff7e0b" stroke="none" /><path d="M 96.93821686468263 120.77559828337769 l -0.6251993542608091 4.2422634318296915 a25.288085033859236,25.288085033859236 0 0,0 -0.4300950977196532,-0.06717200891138049 l 0.6981303155889794 -4.230873115571206" fill="#ff2f04" stroke="none" /><path d="M 96.58105272829116 120.7198165907248 l -1.0273289091350613 6.225912505807301 a27.310102314345812,27.310102314345812 0 0,0 -0.4631676680218005,-0.08052763600195484 l 1.1343455486289118 -6.20730629128434" fill="#ff4b07" stroke="none" /><path d="M 96.22490169976321 120.6578951692458 l -1.1485985292997225 6.285300705503547 a27.38938835414728,27.38938835414728 0 0,0 -0.4630533277521497,-0.08874527233990573 l 1.2566194716235672 -6.264598234815173" fill="#ff4d07" stroke="none" /><path d="M 95.86986931433489 120.58985236759428 l -1.2311894854593242 6.137822667482874 a27.260087431224278,27.260087431224278 0 0,0 -0.45927865215945735,-0.09624630704270787 l 1.3366595990481682 -6.1157203797136255" fill="#ff4b06" stroke="none" /><path d="M 94.81253420990036 120.34920634021253 l -0.7917636223041588 3.1059021832377143 a24.205232909703287,24.205232909703287 0 0,0 -0.4028552493292935,-0.10639773284225004 l 0.8451093144449415 -3.0918131010918826" fill="#ff1f03" stroke="none" /><path d="M 94.46302465271185 120.25689768951611 l -1.651104196352957 6.040526945209097 a27.2621171214703,27.2621171214703 0 0,0 -0.4516019446686228,-0.12762722049325245 l 1.7548373091261937 -6.011210931377323" fill="#ff4b07" stroke="none" /><path d="M 94.11515582081647 120.15858648285463 l -3.3772144844676637 11.568678487207816 a33.05155175130917,33.05155175130917 0 0,0 -0.5447604378434011,-0.1641318511842041 l 3.5758498967513104 -11.508831266917886" fill="#ff990e" stroke="none" /><path d="M 93.76903079525671 120.05430185196036 l -1.8854870637590915 6.06841816611884 a27.354585785594843,27.354585785594843 0 0,0 -0.44845714285043214,-0.1435818153309035 l 1.989665551700464 -6.03506350412823" fill="#ff4c07" stroke="none" /><path d="M 93.42475214034765 119.94407469862007 l -0.6939244258990318 2.104815039787576 a23.216253022688356,23.216253022688356 0 0,0 -0.3784583855930402,-0.12839363245106897 l 0.7300525444292978 -2.0925584204383836" fill="#ff1101" stroke="none" /><path d="M 93.08242187328487 119.8279376855182 l -2.0672767436795842 5.925460284156436 a27.275724078867214,27.275724078867214 0 0,0 -0.4419712082713943,-0.1584751507037248 l 2.168967512580705 -5.888997592412753" fill="#ff4b07" stroke="none" /><path d="M 92.7421414339146 119.70592522655815 l -1.3190848733508809 3.5814679557411657 a24.81666053259966,24.81666053259966 0 0,0 -0.3995834260645201,-0.15108826074297704 l 1.380538520175684 -3.5582314448915557" fill="#ff2803" stroke="none" /><path d="M 91.07499286063937 119.00905698771935 l -2.6955686635743326 5.74119634192984 a27.34250942897466,27.34250942897466 0 0,0 -0.4243132118088942,-0.20369612713968946 l 2.793994543383469 -5.693945938290589" fill="#ff4c07" stroke="none" /><line stroke="#e1ed5e" stroke-width="0.3" x1="58.666819895761336" x2="56.23545636021788" y1="174.27360380694188" y2="178.64263932499728" /><path d="M 58.180547188652646 175.14741091055294 a86.0,86.0 0 0,1 -31.652253787137756,-30.449443065178592" fill="none" id="id116" stroke="none" /><text fill="#e1ed5e" style="font-size:6.75px; font-family:Arial;" text-anchor="middle"><textPath startOffset="22.20632615414155" xlink:href="#id116">August</textPath></text><path d="M 89.7882731507175 118.34994917583269 l -2.9795505039563848 5.3540993723571795 a27.127324154531266,27.127324154531266 0 0,0 -0.406071799909763,-0.23057816581174342 l 3.0712710707873554 -5.302018040750803" fill="#ff4906" stroke="none" /><path d="M 89.1626897886671 117.98757091392108 l -3.276917080596877 5.4389675313193715 a27.349846719398343,27.349846719398343 0 0,0 -0.4011581746779904,-0.24642411570410538 l 3.3700544552071756 -5.381754948786888" fill="#ff4c07" stroke="none" /><path d="M 88.54995079064634 117.60387380957326 l -1.7209387324674021 2.6458566008270625 a24.15629328058193,24.15629328058193 0 0,0 -0.3466143976236756,-0.2297171224395571 l 1.7662278288310396 -2.6158414572961872" fill="#ff1f03" stroke="none" /><path d="M 87.95078237400918 117.19931262002967 l -2.1482438121692464 3.066449462232606 a24.744070482903613,24.744070482903613 0 0,0 -0.3467382733761681,-0.24738855158174733 l 2.2007094133943013 -3.0290166488066395" fill="#ff2703" stroke="none" /><path d="M 87.36589467227662 116.77436683061367 l -4.091966604282827 5.432925173438415 a27.801534138027005,27.801534138027005 0 0,0 -0.3797838784765496,-0.29120208320044527 l 4.184879211252863 -5.361683748410602" fill="#ff5207" stroke="none" /><path d="M 87.07902340077011 116.55440617244103 l -5.228660743667217 6.6989807638629815 a29.497954839075863,29.497954839075863 0 0,0 -0.3975797665410558,-0.3158614118817336 l 5.343198002925631 -6.607985437976117" fill="#ff6a09" stroke="none" /><path d="M 86.79598089348748 116.32954008644616 l -1.376519954802268 1.702355744899677 a23.189251531496957,23.189251531496957 0 0,0 -0.30822918091102974,-0.25365163175397376 l 1.4056192642579866 -1.6784089942885225" fill="#ff1101" stroke="none" /><path d="M 86.51685102203217 116.09983520530335 l -4.053429870751081 4.840082464562539 a27.313215660886527,27.313215660886527 0 0,0 -0.3578480273336233,-0.3049658522408762 l 4.136143374661762 -4.769592222098712" fill="#ff4b07" stroke="none" /><path d="M 85.18274418774928 114.88116024355367 l -4.424568137267833 4.4436505850676085 a27.27079211292301,27.27079211292301 0 0,0 -0.32979396758278196,-0.33407954798697903 l 4.500402729906148 -4.366830543099964" fill="#ff4b07" stroke="none" /><path d="M 84.67929136418377 114.36230785411682 l -2.9023571295074952 2.720797554959615 a24.9782428586346,24.9782428586346 0 0,0 -0.29135763381797986,-0.3162111676778712 l 2.948761171321204 -2.6704351324803994" fill="#ff2b04" stroke="none" /><path d="M 84.43433777217949 114.09645910891817 l -2.649027610628403 2.3989926573684284 a24.573865281733386,24.573865281733386 0 0,0 -0.2812433833523125,-0.3159799226369624 l 2.689929843629054 -2.3530385649906016" fill="#ff2503" stroke="none" /><path d="M 84.19399662182784 113.82643327865904 l -5.8153932320878 5.087063730713031 a28.726384396608065,28.726384396608065 0 0,0 -0.3223613169528474,-0.3749790391142455 l 5.902097058611426 -4.986207592437255" fill="#ff5f08" stroke="none" /><path d="M 83.72743513129214 113.27417163493432 l -4.915559408803665 4.00981528115779 a27.34360645772456,27.34360645772456 0 0,0 -0.2943761733291694,-0.3672795386339932 l 4.983853494187695 -3.924607908945537" fill="#ff4c07" stroke="none" /><path d="M 83.50135304334701 112.99209946851258 l -2.7865748879427157 2.194328917742689 a24.54684070763754,24.54684070763754 0 0,0 -0.25855208682682995,-0.3342134253957233 l 2.823933791987614 -2.146037498233713" fill="#ff2403" stroke="none" /><path d="M 83.28015986056508 112.70617746262583 l -5.6100630543055825 4.263345591229832 a28.046199195562338,28.046199195562338 0 0,0 -0.28879402800312975,-0.38688679455575314 l 5.682618349003797 -4.166145917164771" fill="#ff5607" stroke="none" /><path d="M 83.06392112726016 112.41649034213515 l -6.34944362765263 4.655021157676412 a28.87303349155544,28.87303349155544 0 0,0 -0.2904080061348752,-0.4033513207193407 l 6.428631426163113 -4.545036231505933" fill="#ff6109" stroke="none" /><path d="M 82.44556493220864 111.52570212397912 l -3.388011756423923 2.2244643103740995 a25.053006924469145,25.053006924469145 0 0,0 -0.23358366255201224,-0.36252703149355053 l 3.425800282352981 -2.1658156789591008" fill="#ff2c04" stroke="none" /><path d="M 82.05923443525364 110.91462005526583 l -5.499847464296001 3.345941131557097 a27.43767381795387,27.43767381795387 0 0,0 -0.24199913892566507,-0.40560447660387955 l 5.556627478919898 -3.2507745610671064" fill="#ff4d07" stroke="none" /><line stroke="#e1ed5e" stroke-width="0.3" x1="26.63291911575756" x2="22.317208475507996" y1="142.92168965132927" y2="145.44649492493687" /><path d="M 25.769776987707644 143.4266507060508 a86.0,86.0 0 0,1 -11.730757126820373,-40.83630448921669" fill="none" id="id117" stroke="none" /><text fill="#e1ed5e" style="font-size:6.75px; font-family:Arial;" text-anchor="middle"><textPath startOffset="21.46611528233685" xlink:href="#id117">September</textPath></text><path d="M 81.87401531095188 110.60418214915194 l -5.482596756463914 3.207464623481707 a27.35190495086909,27.35190495086909 0 0,0 -0.23424692889731985,-0.4084292652648794 l 5.53699568151361 -3.112615512358521" fill="#ff4c07" stroke="none" /><path d="M 81.69416730710424 110.29060199501025 l -5.67137488200039 3.188156619491757 a27.5060614570256,27.5060614570256 0 0,0 -0.22846219053245975,-0.41472523714550713 l 5.725413481984367 -3.0900608639484277" fill="#ff4e07" stroke="none" /><path d="M 81.18737489456691 109.33194174019688 l -4.267326610986514 2.1167935414083825 a25.76349570187503,25.76349570187503 0 0,0 -0.19365161403626946,-0.3989796826281275 l 4.303131481637502 -2.0430249028149703" fill="#ff3605" stroke="none" /><path d="M 81.02952815118164 109.00673069616217 l -8.612480365046684 4.089001680724753 a30.53387396514578,30.53387396514578 0 0,0 -0.22133479350994079,-0.4767354543527986 l 8.681589775396452 -3.9401461590931266" fill="#ff780b" stroke="none" /><path d="M 80.87730276802145 108.67885076344099 l -2.270322728431419 1.0303877066020877 a23.493203585178914,23.493203585178914 0 0,0 -0.16395897303004897,-0.3696842002780064 l 2.287722786192748 -0.9911551698313855" fill="#ff1502" stroke="none" /><path d="M 80.73074385275274 108.34839909993369 l -5.978175812732899 2.5900427703533535 a27.515129131506477,27.515129131506477 0 0,0 -0.18454661621617469,-0.43621368654588977 l 6.021873410141381 -2.486754558141305" fill="#ff4e07" stroke="none" /><path d="M 80.58989483394504 108.01547362559985 l -2.8720043498197474 1.1860046569375218 a24.10725216737571,24.10725216737571 0 0,0 -0.15508698786906572,-0.38491318529971313 l 2.891993951946201 -1.1363921037950033" fill="#ff1e03" stroke="none" /><path d="M 80.45479744820244 107.68017299344265 l -0.959491539143142 0.3770265867971858 a22.030908851858015,22.030908851858015 0 0,0 -0.13565345429996373,-0.3541483633159066 l 0.9658392730366148 -0.3604546566481214" fill="#ff0000" stroke="none" /><path d="M 80.32549172779594 107.34259656027581 l -5.980038933358583 2.2317718285456905 a27.382920267336466,27.382920267336466 0 0,0 -0.16100601504020898,-0.44301940405873375 l 6.017569209404016 -2.1285046274808392" fill="#ff4c07" stroke="none" /><path d="M 80.20201598880116 107.00284435728193 l -9.67082584095953 3.4207163786126746 a31.257980941154045,31.257980941154045 0 0,0 -0.1750583411848347,-0.5088014824762364 l 9.728275013087593 -3.2537421930471413" fill="#ff810b" stroke="none" /><path d="M 80.0844068197444 106.66101706037122 l -6.037202124583453 2.01921710213623 a27.365928620290553,27.365928620290553 0 0,0 -0.14557077547726932,-0.4480207791802288 l 6.071065151076971 -1.9149974229781979" fill="#ff4c07" stroke="none" /><path d="M 79.86692584326677 105.97154293290107 l -2.9944338288192616 0.8881599515961347 a24.123373505489926,24.123373505489926 0 0,0 -0.1146519189997414,-0.3991183709568078 l 3.009278384705107 -0.8364841051347309" fill="#ff1e03" stroke="none" /><path d="M 79.67330655649465 105.27499134158121 l -6.197949938398965 1.6084333810354463 a27.4032524064048,27.4032524064048 0 0,0 -0.11455692918090724,-0.45759798709012345 l 6.224718181874931 -1.501507554547931" fill="#ff4d07" stroke="none" /><path d="M 79.58551787078972 104.9243191809786 l -6.145755082709775 1.4824603163497052 a27.322024527491546,27.322024527491546 0 0,0 -0.10634699154803096,-0.45814005622956117 l 6.170362640188362 -1.3764516027715699" fill="#ff4c07" stroke="none" /><path d="M 79.4281124754447 104.21870165774334 l -6.259504342414889 1.2836440659359565 a27.389768125740044,27.389768125740044 0 0,0 -0.09073847639469951,-0.46267353625704527 l 6.2806727517852545 -1.1757068026109563" fill="#ff4d07" stroke="none" /><path d="M 79.35854240842038 103.8639653848113 l -1.5351637814736308 0.2873740715893009 a22.561829597930014,22.561829597930014 0 0,0 -0.06817277882503099,-0.38234914776455664 l 1.5398830026378505 -0.26090617309153064" fill="#ff0801" stroke="none" /><path d="M 79.29508885075956 103.50808413554451 l -4.269384765371379 0.7233723852267872 a25.330232543697154,25.330232543697154 0 0,0 -0.06913735671548858,-0.43051838626411504 l 4.281203876448159 -0.6497747692694585" fill="#ff3004" stroke="none" /><path d="M 79.23777060512086 103.15116336523772 l -5.617160187126886 0.8525379939551115 a26.681488326044537,26.681488326044537 0 0,0 -0.0650087462138859,-0.45467101960843426 l 5.63100298435737 -0.7557215023662767" fill="#ff4306" stroke="none" /><path d="M 79.18660465613746 102.79330883721812 l -1.6032459559855345 0.2151672527764285 a22.61762002400172,22.61762002400172 0 0,0 -0.04846470311944496,-0.38631136870871485 l 1.6067121683518275 -0.187538129780305" fill="#ff0901" stroke="none" /><path d="M 79.1416061653843 102.43462659150553 l -6.324671418778597 0.7382262191798861 a27.367609167199216,27.367609167199216 0 0,0 -0.05058798101378037,-0.46838187599576925 l 6.336441701293429 -0.6292480212993348" fill="#ff4c07" stroke="none" /><path d="M 79.0235259727143 100.99374915477108 l -6.3104177813737845 0.29895264229514695 a27.31749517275745,27.31749517275745 0 0,0 -0.01820888896505812,-0.4698905148088238 l 6.314628803190043 -0.1902848804723264" fill="#ff4c07" stroke="none" /><line stroke="#e1ed5e" stroke-width="0.3" x1="15.007084014347285" x2="10.007500721073583" y1="101.09737516637583" y2="101.16192664675087" /><path d="M 14.007167355692545 101.11028546245083 a86.0,86.0 0 0,1 10.666146001902534,-42.60595125391555" fill="none" id="id118" stroke="none" /><text fill="#e1ed5e" style="font-size:6.75px; font-family:Arial;" text-anchor="middle"><textPath startOffset="22.20632615414155" xlink:href="#id118">October</textPath></text><path d="M 79.00175016825051 100.2711162175752 l -6.250525968092775 0.0807028667580967 a27.251046938753948,27.251046938753948 0 0,0 -0.0020187870279285776,-0.4690950084469666 l 6.250989052410207 0.02690161989254532" fill="#ff4b06" stroke="none" /><path d="M 79.00019446554 99.90962569577889 l -6.245143399510014 -0.02687646266846026 a27.245201231720966,27.245201231720966 0 0,0 0.006054912391659488,-0.46895963748158564 l 6.243755480000639 0.13437235821051785" fill="#ff4a06" stroke="none" /><path d="M 79.00486145842228 99.54816195383935 l -6.395265984657775 -0.13763302782989298 a27.396746818881486,27.396746818881486 0 0,0 0.014204959537395988,-0.4713934518619619 l 6.391949330664734 0.2476966271168493" fill="#ff4d07" stroke="none" /><path d="M 79.01574976396665 99.18683210126434 l -6.257192300441408 -0.2424746110870179 a27.26188864654467,27.26188864654467 0 0,0 0.022207264165834482,-0.4687602477498841 l 6.252091428042074 0.35014596545991117" fill="#ff4b06" stroke="none" /><path d="M 79.03285615573316 98.82574320788736 l -7.615091195047644 -0.42648024093119236 a28.627024275875677,28.627024275875677 0 0,0 0.031788823210273216,-0.4917590249967209 l 7.606621780832958 0.5574983301809251" fill="#ff5e08" stroke="none" /><path d="M 79.05617556472873 98.46500227214037 l -4.743232332519131 -0.3476371221325563 a25.75595463907505,25.75595463907505 0 0,0 0.036212278830490933,-0.4418815240707856 l 4.736545569869143 0.42923256341112026" fill="#ff3605" stroke="none" /><path d="M 79.08570108090925 98.10471618934814 l -6.308946035674639 -0.5717257523165484 a27.334798372238588,27.334798372238588 0 0,0 0.04649893175014758,-0.468237897035949 l 6.298169978242263 0.6802391800569276" fill="#ff4c07" stroke="none" /><path d="M 79.12142395522702 97.74499172005258 l -6.213368938852957 -0.6710801720115056 a27.249504153736495,27.249504153736495 0 0,0 0.054381766662396865,-0.4659097663781799 l 6.200896819186971 0.7779336767145473" fill="#ff4b06" stroke="none" /><path d="M 79.16333360222342 97.38593545837743 l -6.324882754744949 -0.7934883355843841 a27.37446198513871,27.37446198513871 0 0,0 0.06267969789927147,-0.4670365535773072 l 6.310287057787844 0.9022432312263509" fill="#ff4c07" stroke="none" /><path d="M 79.21141760316559 97.0276538004421 l -6.266774029476385 -0.8960217495560799 a27.330506434101242,27.330506434101242 0 0,0 0.07059613825567734,-0.46514034563435347 l 6.250421997781404 1.0037612075825255" fill="#ff4c07" stroke="none" /><path d="M 79.26566170972629 96.67025291283419 l -6.37169519788376 -1.023236586017029 a27.453333464628862,27.453333464628862 0 0,0 0.0789455096663573,-0.4659408668999236 l 6.353137826697179 1.1327632412327804" fill="#ff4d07" stroke="none" /><path d="M 79.32604984820605 96.31383870115002 l -6.21221906419653 -1.1076374532339808 a27.310192265642424,27.310192265642424 0 0,0 0.08650084135389058,-0.46209095336642114 l 6.192232498932778 1.2144064840629747" fill="#ff4b07" stroke="none" /><path d="M 79.3925641242962 95.95851677861259 l -6.301301121767007 -1.2357967730743344 a27.421338605892316,27.421338605892316 0 0,0 0.09482651983396387,-0.4624077876634655 l 6.279095306018049 1.3440802169012023" fill="#ff4d07" stroke="none" /><path d="M 79.46518482838121 95.60439243477599 l -26.087263209602575 -5.584144320841211 a47.678230255454864,47.678230255454864 0 0,0 0.17869258756731302,-0.8010438319689571 l 25.987276235033224 6.032366322360127" fill="#b2ff20" stroke="none" /><path d="M 79.54389044137918 95.25157060432595 l -6.309421688445646 -1.464591462480347 a27.477177641117976,27.477177641117976 0 0,0 0.11091254311303438,-0.45980409597176547 l 6.283276345071797 1.5729807901115094" fill="#ff4e07" stroke="none" /><path d="M 79.62865764111835 94.90015583598534 l -6.31682432229365 -1.581379326292154 a27.511760905649474,27.511760905649474 0 0,0 0.1189604193780975,-0.4584030228729418 l 6.288667571045245 1.6898787747139596" fill="#ff4e07" stroke="none" /><path d="M 79.71946130924805 94.55025226153421 l -6.105782303789744 -1.6407341939499946 a27.322387700581857,27.322387700581857 0 0,0 0.12596040900625113,-0.4531466095103795 l 6.076635124217132 1.7455921068793168" fill="#ff4c07" stroke="none" /><path d="M 79.81627453868168 94.20196356495316 l -6.096480223721782 -1.7512928686244964 a27.34303537984188,27.34303537984188 0 0,0 0.13384299010065254,-0.4512520257048988 l 6.065431336509423 1.8559742810759343" fill="#ff4c07" stroke="none" /><path d="M 79.91906864156998 93.8553929516997 l -6.124658112364401 -1.874097208636952 a27.404972860268174,27.404972860268174 0 0,0 0.1419114531445412,-0.4498980872698134 l 6.091491175451655 1.9792454623331799" fill="#ff4d07" stroke="none" /><path d="M 80.02781315780177 93.51064311812611 l -6.133140598000688 -1.9927781800560878 a27.44876565473982,27.44876565473982 0 0,0 0.1498737977427093,-0.4481035789536565 l 6.0979295064862065 2.0980548619320665" fill="#ff4d07" stroke="none" /><path d="M 80.14247586403 93.16781622104843 l -6.02094543534431 -2.0715677068118277 a27.3673524089137,27.3673524089137 0 0,0 0.15709761996603733,-0.4441361266370092 l 5.984394734568463 2.1749014598754477" fill="#ff4c07" stroke="none" /><path d="M 80.2630227832202 92.82701384747504 l -6.038976391961654 -2.194738006696324 a27.42542689482244,27.42542689482244 0 0,0 0.16506895799474344,-0.442302740303314 l 6.000302845465283 2.2983638840289795" fill="#ff4d07" stroke="none" /><path d="M 80.38941819471856 92.48833698450439 l -6.005163144127734 -2.3002255792132176 a27.430631547745282,27.430631547745282 0 0,0 0.17269078197289034,-0.4394792038369793 l 5.964678812273153 2.4032537879459603" fill="#ff4d07" stroke="none" /><path d="M 80.52162464483688 92.15188598940014 l -6.04557715277693 -2.4358488780376852 a27.517849558467567,27.517849558467567 0 0,0 0.1808031648855566,-0.4378292049487683 l 6.002752301005174 2.5395526534397646" fill="#ff4e07" stroke="none" /><path d="M 80.65960295795068 91.81776055985345 l -5.909180212757587 -2.499965605185705 a27.416248032453026,27.416248032453026 0 0,0 0.18761759731051547,-0.43304728212336346 l 5.8652719056043905 2.601312031895668" fill="#ff4d07" stroke="none" /><path d="M 80.803312248108 91.48605970444005 l -5.830349777953264 -2.5858236875698966 a27.378045364880784,27.378045364880784 0 0,0 0.19477221636121136,-0.42915476071629083 l 5.784975244628701 2.6858004571282583" fill="#ff4c07" stroke="none" /><path d="M 80.95270993114464 91.15688171328213 l -6.416264877239127 -2.9788903861508045 a28.0740542058705,28.0740542058705 0 0,0 0.20726914620298734,-0.4365616821259918 l 6.364037537194387 3.0888944839173282" fill="#ff5608" stroke="none" /><path d="M 81.10775173730289 90.83032412892265 l -5.845247162944227 -2.837090701182698 a27.49738393837434,27.49738393837434 0 0,0 0.2103418761750233,-0.4240363871335806 l 5.79554527381579 2.93728667681524" fill="#ff4e07" stroke="none" /><path d="M 81.26839172434947 90.50648371742162 l -5.758985530606661 -2.9187575408043225 a27.45639682204703,27.45639682204703 0 0,0 0.21728543577318285,-0.41972630134865396 l 5.707890661673364 3.017456564413312" fill="#ff4d07" stroke="none" /><path d="M 81.43458229118936 90.18545643968196 l -5.685796037071762 -3.005776317892471 a27.431404811422166,27.431404811422166 0 0,0 0.22427381110383948,-0.41554531068659506 l 5.6332141267494515 3.103202611911539" fill="#ff4d07" stroke="none" /><path d="M 81.6062741919709 89.86733742301443 l -20.51686421354556 -11.302248624525031 a44.423973640858726,44.423973640858726 0 0,0 0.3747317844716477,-0.6666060308789071 l 20.31927478778148 11.653738165338723" fill="#d7ff1c" stroke="none" /><line stroke="#e1ed5e" stroke-width="0.3" x1="26.266209847984243" x2="21.928928074336255" y1="57.711370442889674" y2="55.22380399835377" /><path d="M 25.398753493254645 57.213857153982495 a86.0,86.0 0 0,1 29.58750427330803,-30.492523968695096" fill="none" id="id119" stroke="none" /><text fill="#e1ed5e" style="font-size:6.75px; font-family:Arial;" text-anchor="middle"><textPath startOffset="21.46611528233685" xlink:href="#id119">November</textPath></text><path d="M 82.15384107792192 88.93136811851018 l -2.659635344151445 -1.6495720279052566 a24.12965621739945,24.12965621739945 0 0,0 0.221961128251124,-0.35108920081303363 l 2.630846619654358 1.6951088764325057" fill="#ff1e03" stroke="none" /><path d="M 82.7489923806493 88.02491185347247 l -22.237941001585973 -15.436855027097462 a48.07069472912808,48.07069472912808 0 0,0 0.47770225462996463,-0.6756759616513854 l 21.96892612715213 15.817357489080633" fill="#adff20" stroke="none" /><path d="M 82.95767976084542 87.72973835380427 l -2.6448217608530755 -1.904239244293724 a24.259019675637184,24.259019675637184 0 0,0 0.24690759468814555,-0.33678168167429756 l 2.6116515536512965 1.9494833696395222" fill="#ff2003" stroke="none" /><path d="M 83.84228863543731 86.58626213691792 l -4.359993536530359 -3.61956028698581 a26.66663571351744,26.66663571351744 0 0,0 0.2962401469508965,-0.3506548950375446 l 4.297042776092338 3.694074131652471" fill="#ff4206" stroke="none" /><path d="M 84.31358615837235 86.03803664274999 l -5.3412184399597455 -4.754043651703641 a28.150492672933083,28.150492672933083 0 0,0 0.3252807650894592,-0.3591831451762479 l 5.258594034254242 4.845279584149445" fill="#ff5708" stroke="none" /><path d="M 84.5562425177563 85.77008943001954 l -2.957659813795369 -2.7251939623580936 a25.021745107116196,25.021745107116196 0 0,0 0.2945806215145228,-0.31423806799183573 l 2.9103118703103905 2.7757014472279793" fill="#ff2b04" stroke="none" /><path d="M 84.80347519578584 85.50635884689758 l -4.261043599081645 -4.063957888956769 a26.88831438329244,26.88831438329244 0 0,0 0.3223214104314359,-0.33218054630145977 l 4.190457924947091 4.136702630808352" fill="#ff4606" stroke="none" /><path d="M 85.05521093208273 85.24692304244772 l -4.963777855419868 -4.900102394781322 a27.974961940921133,27.974961940921133 0 0,0 0.341246844806949,-0.33978142240745784 l 4.878695210445605 4.984819667838889" fill="#ff5507" stroke="none" /><path d="M 85.31137513191541 84.99185889309783 l -3.812846958538278 -3.895786412048748 a26.45114242132218,26.45114242132218 0 0,0 0.32814122982612254,-0.31567160310677084 l 3.745222485099728 3.9608411019178327" fill="#ff3f05" stroke="none" /><path d="M 85.57189188830299 84.74124197986013 l -3.691066835615135 -3.9035676226430978 a26.372319291472298,26.372319291472298 0 0,0 0.33253248735365193,-0.3090527062955445 l 3.623326464466627 3.9665249150132897" fill="#ff3e05" stroke="none" /><path d="M 86.37877921826538 84.01681056812374 l -2.528274984588489 -2.9666869557491884 a24.897871969563433,24.897871969563433 0 0,0 0.32858369343435884,-0.2751793936901292 l 2.47683375419502 3.0097675068331298" fill="#ff2904" stroke="none" /><path d="M 86.65592168130627 83.78471172551755 l -4.621777656740368 -5.616233302499334 a28.273438335233692,28.273438335233692 0 0,0 0.3784555917585885,-0.30601810204652874 l 4.5244186664172785 5.694957501809997" fill="#ff5908" stroke="none" /><path d="M 87.80319425747018 82.90503203632743 l -4.102229054424494 -5.749659029208076 a28.06306322831096,28.06306322831096 0 0,0 0.3956475785617959,-0.2771764129535971 l 4.0026503362790375 5.819420284925616" fill="#ff5607" stroke="none" /><line stroke="#e1ed5e" stroke-width="0.3" x1="56.762969772571076" x2="54.21961505331055" y1="26.818313649435495" y2="22.513508569990535" /><path d="M 56.25429882871897 25.957352633546506 a86.0,86.0 0 0,1 42.265352541879196,-11.944610805530505" fill="none" id="id120" stroke="none" /><text fill="#e1ed5e" style="font-size:6.75px; font-family:Arial;" text-anchor="middle"><textPath startOffset="22.20632615414155" xlink:href="#id120">December</textPath></text><path d="M 89.94658935756843 81.56283822128135 l -3.429352248122103 -6.289161404387552 a28.163379650146858,28.163379650146858 0 0,0 0.42762062418825,-0.22842012800132033 l 3.320586577405548 6.347260258890621" fill="#ff5708" stroke="none" /><path d="M 90.26544431104013 81.39251694778311 l -3.5396820854660507 -6.766058618396259 a28.63602635496654,28.63602635496654 0 0,0 0.43873053127820216,-0.22473481850698007 l 3.422691066599085 6.825985962215744" fill="#ff5e08" stroke="none" /><path d="M 91.23893434514133 80.91482961587045 l -2.8686515621936843 -6.249091833572048 a27.876067955575564,27.876067955575564 0 0,0 0.4378107465992461,-0.19643292012213578 l 2.760658697127664 6.297545084210713" fill="#ff5307" stroke="none" /><path d="M 94.63758080256005 79.69619591428918 l -0.8267491471313431 -3.13033205598643 a24.23766782314348,24.23766782314348 0 0,0 0.4042971236882267,-0.10306433887909831 l 0.772743134758117 3.1440993910343913" fill="#ff2003" stroke="none" /><path d="M 96.04723909329186 79.375362276772 l -1.1946866367210414 -6.23361231723812 a27.347062208737412,27.347062208737412 0 0,0 0.4630832735680815,-0.08462550829077493 l 1.0872082420500666 6.253253306879632" fill="#ff4c07" stroke="none" /><path d="M 96.40284397218896 79.31037775812273 l -1.1748684585425908 -6.757445160346483 a27.858817754538194,27.858817754538194 0 0,0 0.4731631735496783,-0.07807597785421151 l 1.0583760788540268 6.776667401140322" fill="#ff5307" stroke="none" /><path d="M 96.75951476605007 79.25152402106235 l -0.641985836596324 -4.110565778817209 a25.160396235501302,25.160396235501302 0 0,0 0.4284827694534056,-0.06314722201459576 l 0.5711340867142696 4.121007484992774" fill="#ff2d04" stroke="none" /><path d="M 98.19473922651362 79.07773832637324 l -0.13591460836619218 -1.5751968044008613 a22.581049573341083,22.581049573341083 0 0,0 0.38754437146321924,-0.030080901967788308 l 0.10878004754063875 1.5773029685571118" fill="#ff0801" stroke="none" /><path d="M 98.55514903715128 79.0497635885617 l -0.4303941262257035 -6.240684282581627 a27.255507926519712,27.255507926519712 0 0,0 0.4683248399067042,-0.02825063328283228 l 0.32290723747937633 6.2471681852447665" fill="#ff4b06" stroke="none" /><path d="M 98.91598698831166 79.02799685794201 l -0.33468304060804405 -6.474990340100671 a27.483634215628427,27.483634215628427 0 0,0 0.4726650693444121,-0.02035395216335787 l 0.22317713887430785 6.479792018788221" fill="#ff4e07" stroke="none" /><path d="M 99.27714615592234 79.0124445844662 l -0.1095499736347355 -3.1807068071457314 a24.182592809290337,24.182592809290337 0 0,0 0.41614023491454155,-0.010747674534561227 l 0.05478310352531493 3.182121273822652" fill="#ff1f03" stroke="none" /><path d="M 99.63851952072746 79.00311137660856 l -0.15377441846981382 -8.932112583880643 a29.93343616884873,29.93343616884873 0 0,0 0.5152548977423473,-0.0044349615766450445 l 2.188060801913558e-15 8.93343616884873" fill="#ff700a" stroke="none" /></svg>