<?xml version="1.0" encoding="utf-8" ?>
<svg baseProfile="full" height="200mm" version="1.1" viewBox="0,0,200,200" width="200mm" xmlns="http://www.w3.org/2000/svg" xmlns:ev="http://www.w3.org/2001/xml-events" xmlns:xlink="http://www.w3.org/1999/xlink"><defs /><rect fill="#1a1a1a" height="200" width="200" x="0" y="0" /><text alignment-baseline="middle" fill="#e1ed5e" style="dominant-baseline: central; font-size:9.0px; font-family:Arial;" text-anchor="middle" x="100.0" y="100.0">2017</text><line stroke="#e1ed5e" stroke-width="0.3" x1="100.0" x2="100.0" y1="15.0" y2="10.0" /><path d="M 100.0 14.0 a86.0,86.0 0 0,1 42.46469731375804,11.215312516191453" fill="none" id="id37" stroke="none" /><text fill="#e1ed5e" style="font-size:6.75px; font-family:Arial;" text-anchor="middle"><textPath startOffset="22.20632615414155" xlink:href="#id37">January</textPath></text><path d="M 100.0 79.0 l 0.0 -6.59796561276746 a27.59796561276746,27.59796561276746 0 0,0 0.4750536112690447,0.0040889364119703194 l -0.11357313199651632 6.596988052964049" fill="#ff5107" stroke="none" /><path d="M 100.36148047927253 79.00311137660856 l 0.44388295211405354 -25.783303502633395 a46.78712414334109,46.78712414334109 0 0,0 0.8051247848206956,0.020793997842429808 l -0.8876343721296169 25.771842712648603" fill="#bbff1f" stroke="none" /><path d="M 101.80526077348638 79.07773832637324 l 0.4309724714737631 -4.994801280088728 a26.013359861285064,26.013359861285064 0 0,0 0.4457883130493193,0.042332971837625535 l -0.5168859116133266 4.986642763735924" fill="#ff3b05" stroke="none" /><path d="M 102.88285421437855 79.19881850522331 l 1.97639140150257 -14.260615761395037 a35.39691928386354,35.39691928386354 0 0,0 0.6028112539606044,0.08883870904612254 l -2.2215716358918303 14.224482568187947" fill="#ffb911" stroke="none" /><path d="M 103.59715602781102 79.31037775812273 l 1.7313799484104746 -9.95831062451081 a31.10770137172655,31.10770137172655 0 0,0 0.5267643037647592,0.09626280952031527 l -1.9025393732781346 9.927032333639756" fill="#ff810b" stroke="none" /><path d="M 104.66035177308747 79.52364482259891 l 1.096995704993161 -4.819909478344404 a25.94316972763506,25.94316972763506 0 0,0 0.434580599775854,0.10285118723089934 l -1.1797999917315385 4.800312378972636" fill="#ff3a05" stroke="none" /><path d="M 107.76421540070413 80.48803036053334 l 5.087639431893108 -12.785563126268878 a34.76062133207509,34.76062133207509 0 0,0 0.554044793475025,0.2260087824947477 l -5.30696809495652 12.69609345759055" fill="#ffb110" stroke="none" /><line stroke="#e1ed5e" stroke-width="0.3" x1="143.23703022742887" x2="145.7803849466894" y1="26.81831364943548" y2="22.513508569990506" /><path d="M 143.74570117128098 25.957352633546492 a86.0,86.0 0 0,1 28.547481713284135,27.462654790039103" fill="none" id="id38" stroke="none" /><text fill="#e1ed5e" style="font-size:6.75px; font-family:Arial;" text-anchor="middle"><textPath startOffset="19.985693538727396" xlink:href="#id38">February</textPath></text><path d="M 111.2981086023043 82.29822771554956 l 9.293444529131127 -14.560883116249954 a38.2738944173319,38.2738944173319 0 0,0 0.5522977171477391,0.35922979839336916 l -9.542709272063146 14.398754393697057" fill="#ffdd14" stroke="none" /><path d="M 111.60114157652 82.49532879139004 l 11.274567530298253 -17.011911830865 a41.408846541056164,41.408846541056164 0 0,0 0.590756953987635,0.39888173241467045 l -11.565729178692429 16.815318186151657" fill="#faff18" stroke="none" /><path d="M 111.90073688211348 82.69761687909136 l 2.480233785543503 -3.6059914282613805 a25.376612138589163,25.376612138589163 0 0,0 0.3577726017666564,0.2506425712782901 l -2.5419375268938103 3.562764014219155" fill="#ff3204" stroke="none" /><path d="M 112.19680574252982 82.90503203632743 l 4.451924323628937 -6.239789769197867 a28.66515535048738,28.66515535048738 0 0,0 0.3992028066522042,0.290037816331926 l -4.5586724466349295 6.162232718049266" fill="#ff6008" stroke="none" /><path d="M 114.16331599549186 84.49514656593476 l 9.509780188761862 -10.410538610016337 a35.10018557995633,35.10018557995633 0 0,0 0.4425834485195352,0.41133308091220416 l -9.687571521076244 10.245300943029491" fill="#ffb510" stroke="none" /><path d="M 115.9244219780498 86.31012108654704 l 5.3252886957481165 -4.578034764744385 a28.022613616045728,28.022613616045728 0 0,0 0.31130373042737447,0.36848542657488415 l -5.4033030396626085 4.4856903885403945" fill="#ff5708" stroke="none" /><path d="M 116.38621287248628 86.86637796730983 l 25.3633330818704 -20.328823552990336 a53.50476475950128,53.50476475950128 0 0,0 0.5698153479639207,0.7236076262596093 l -25.709502510428283 19.889223532777688" fill="#72ff27" stroke="none" /><path d="M 116.60985879189232 87.15038557335679 l 18.284188126667086 -14.144898549442345 a44.116870255840645,44.116870255840645 0 0,0 0.4594962365220723,0.6046431857196257 l -18.524960303413273 13.828070587841687" fill="#daff1c" stroke="none" /><path d="M 116.82858285166822 87.43820079747576 l 27.351139049468486 -20.416426013298206 a55.13085493303441,55.13085493303441 0 0,0 0.5611202334893823,0.7653673678799158 l -27.698521895471494 19.9425962017468" fill="#61ff29" stroke="none" /><path d="M 117.2510076193507 88.02491185347247 l 10.45828143111219 -7.259798660008613 a33.73107721586076,33.73107721586076 0 0,0 0.326991527037527,0.47981971729240386 l -10.58169742381845 7.078700919445803" fill="#ffa30f" stroke="none" /><path d="M 117.65298651832404 88.62581576622439 l 8.437757428066247 -5.436621582819049 a31.037559695945077,31.037559695945077 0 0,0 0.28550476252977885,0.4515999702050841 l -8.530089786841982 5.2905739648997585" fill="#ff800b" stroke="none" /><line stroke="#e1ed5e" stroke-width="0.3" x1="172.23445277983987" x2="176.4835382374775" y1="55.19839476539836" y2="52.563006222186495" /><path d="M 173.08426987136738 54.67131705675599 a86.0,86.0 0 0,1 12.851231095245387,41.99856678651699" fill="none" id="id39" stroke="none" /><text fill="#e1ed5e" style="font-size:6.75px; font-family:Arial;" text-anchor="middle"><textPath startOffset="22.20632615414155" xlink:href="#id39">March</textPath></text><path d="M 118.21658344932153 89.55222093294921 l 18.72246673021371 -10.73791891501845 a42.583180096766796,42.583180096766796 0 0,0 0.35920404588620913,0.6389839165670331 l -18.904528417392353 10.414051488516623" fill="#ecff1a" stroke="none" /><path d="M 118.3937258080291 89.86733742301442 l 2.7733748487411223 -1.527785715362001 a24.166344460682385,24.166344460682385 0 0,0 0.19757931501885154,0.3660844636324459 l -2.7992622629784387 1.4798202683970962" fill="#ff2003" stroke="none" /><path d="M 118.56541770881063 90.18545643968196 l 28.6301115653554 -15.135208994602651 a53.384530868224694,53.384530868224694 0 0,0 0.42247644978435844,0.8160900294302268 l -28.886397448299874 14.64014624291208" fill="#73ff27" stroke="none" /><path d="M 118.89224826269711 90.83032412892265 l 16.16410793443982 -7.845526294325881 a38.96748919997391,38.96748919997391 0 0,0 0.28769475747694356,0.6059585305569911 l -16.29676088575852 7.56612534812835" fill="#ffe615" stroke="none" /><path d="M 119.04729006885535 91.15688171328212 l 14.332497486100477 -6.65417338400884 a36.80185139828647,36.80185139828647 0 0,0 0.26181482525539085,0.5768742625800412 l -14.444914628319216 6.406477112586736" fill="#ffcb12" stroke="none" /><path d="M 119.97218684219823 93.5106431181261 l 19.418583874783103 -6.309480373867739 a41.41790739253679,41.41790739253679 0 0,0 0.21447477632069764,0.6799436514544306 l -19.524314134872004 5.97428655598689" fill="#faff18" stroke="none" /><path d="M 120.37134235888165 94.90015583598534 l 24.966049580978925 -6.250101736596877 a46.736499439467465,46.736499439467465 0 0,0 0.18865343729025902,0.7820902915986073 l -25.069935818530002 5.819426213338863" fill="#bcff1f" stroke="none" /><path d="M 120.53481517161879 95.60439243477599 l 7.030081127544247 -1.5048335000882345 a28.189336862523664,28.189336862523664 0 0,0 0.09748235669741907,0.47535859141094 l -7.054942780156663 1.3835992525138825" fill="#ff5908" stroke="none" /><path d="M 120.91429891909075 98.10471618934814 l 44.05443445310328 -3.992276132678528 a65.23495748502906,65.23495748502906 0 0,0 0.09171884727422845,1.1192022520666125 l -44.11662778419701 3.2333599634041468" fill="#36ff6c" stroke="none" /><line stroke="#e1ed5e" stroke-width="0.3" x1="184.98032266829074" x2="189.97916517819016" y1="98.17113171792111" y2="98.06355123074" /><path d="M 185.9800911702706 98.14961562048488 a86.0,86.0 0 0,1 -9.607161424134198,41.387399972396054" fill="none" id="id40" stroke="none" /><text fill="#e1ed5e" style="font-size:6.75px; font-family:Arial;" text-anchor="middle"><textPath startOffset="21.466115282336823" xlink:href="#id40">April</textPath></text><path d="M 120.99513854157772 99.54816195383933 l 12.829350936519523 -0.2761014817400153 a33.832321593561836,33.832321593561836 0 0,0 0.007518819241348169,0.5823408362719367 l -12.832202762878588 0.0552243874076159" fill="#ffa50f" stroke="none" /><path d="M 120.99824983174949 100.27111621757518 l 54.26060881688154 0.7005789122251819 a75.26513134592874,75.26513134592874 0 0,0 -0.02787654636253877,1.295313570681586 l -54.24051020783399 -1.6344822986968828" fill="#42ffd8" stroke="none" /><path d="M 120.9904718944345 100.63252640178507 l 62.97141568330351 1.8975792053552112 a84.0,84.0 0 0,0 -0.05599146859518722,1.4448910119439753 l -62.92942208185712 -2.9812474643131925" fill="#4dd2ff" stroke="none" /><path d="M 120.8583938346157 102.4346265915055 l 26.122307335771367 3.04903937356882 a47.29964983884895,47.29964983884895 0 0,0 -0.10135299313813172,0.8078830774103904 l -26.06595283338639 -3.4982402052666055" fill="#b5ff1f" stroke="none" /><path d="M 120.5718875245553 104.21870165774334 l 6.962330962953516 1.4277735642930363 a28.107220961008267,28.107220961008267 0 0,0 -0.10127428060948443,0.47311972306345745 l -6.936722643619588 -1.5474071067726627" fill="#ff5808" stroke="none" /><path d="M 120.41448212921028 104.9243191809786 l 23.794770104204233 5.739701947347014 a45.47723968825551,45.47723968825551 0 0,0 -0.1901136715104975,0.7594096142725264 l -23.692445118398673 -6.148439401016937" fill="#caff1d" stroke="none" /><path d="M 119.67450827220406 107.3425965602758 l 3.4424192027471707 1.2847231070485658 a24.674338502264998,24.674338502264998 0 0,0 -0.1519301483613833,0.3966416753498212 l -3.419794774792281 -1.3437883492315308" fill="#ff2803" stroke="none" /><path d="M 119.41010516605496 108.01547362559984 l 3.451713093431945 1.4253974940808951 a24.734445246017355,24.734445246017355 0 0,0 -0.16589630207876682,0.3921298531387922 l -3.4266658101608694 -1.4846018728858508" fill="#ff2903" stroke="none" /><path d="M 118.81262510543309 109.33194174019688 l 23.473324546623182 11.64386659969951 a47.202606638704864,47.202606638704864 0 0,0 -0.36732917935488746,0.7247753193954678 l -23.269416697482026 -12.046196130797673" fill="#b6ff1f" stroke="none" /><line stroke="#e1ed5e" stroke-width="0.3" x1="174.80103733775053" x2="179.2010983576182" y1="140.37084112569926" y2="142.7455964860345" /><path d="M 175.68104954172406 140.8457921977663 a86.0,86.0 0 0,1 -30.038265399797805,32.042727171017184" fill="none" id="id41" stroke="none" /><text fill="#e1ed5e" style="font-size:6.75px; font-family:Arial;" text-anchor="middle"><textPath startOffset="22.206326154141568" xlink:href="#id41">May</textPath></text><path d="M 118.30583269289576 110.29060199501025 l 8.694067205414797 4.887359500642416 a30.97361957670277,30.97361957670277 0 0,0 -0.265263983466932,0.462510114342303 l -8.608651225795485 -5.036289460843035" fill="#ff7f0b" stroke="none" /><path d="M 118.12598468904814 110.60418214915192 l 2.237533339002234 1.3090163926882252 a23.592311586108618,23.592311586108618 0 0,0 -0.2080832043920765,0.34875941948467454 l -2.21466925891193 -1.347337906059004" fill="#ff1802" stroke="none" /><path d="M 117.55443506779139 111.5257021239791 l 5.071075717937402 3.3295123396097743 a27.066420802801936,27.066420802801936 0 0,0 -0.25906031090523085,0.38726001503876245 l -5.01301230162145 -3.4163092688543437" fill="#ff4906" stroke="none" /><path d="M 116.93607887273984 112.41649034213515 l 2.4359598599271015 1.7858957968894162 a24.020484106318612,24.020484106318612 0 0,0 -0.24734090745338144,0.331353565407224 l -2.404857685778628 -1.8275622418059552" fill="#ff1e03" stroke="none" /><path d="M 116.71984013943494 112.70617746262583 l 5.651975741197615 4.295196974565099 a28.098841231454575,28.098841231454575 0 0,0 -0.2959653392604575,0.38257509752336827 l -5.577203584719088 -4.39185006620172" fill="#ff5808" stroke="none" /><path d="M 116.498646956653 112.99209946851258 l 2.617706059622032 2.0613507031995355 a24.331899118545326,24.331899118545326 0 0,0 -0.2619526931614946,0.3268262617868353 l -2.581835454405683 -2.1061047985646213" fill="#ff2303" stroke="none" /><path d="M 115.80600337817218 113.82643327865902 l 19.301797997563746 16.884408777238363 a46.64454456011336,46.64454456011336 0 0,0 -0.5338382617717614,0.5997729462811314 l -19.008300886143648 -17.21415589326036" fill="#bdff1f" stroke="none" /><path d="M 114.81725581225074 114.88116024355365 l 9.630228162946764 9.671761781713176 a34.64859957770835,34.64859957770835 0 0,0 -0.4262603500482376,0.4171854684333606 l -9.462317860522733 -9.836097353069109" fill="#ffaf10" stroke="none" /><path d="M 114.29624159901734 115.38237550388516 l 4.49672382749078 4.838355169968962 a27.60531648988061,27.60531648988061 0 0,0 -0.35085101944090213,0.3204940876618844 l -4.412773258583014 -4.9150420242174295" fill="#ff5107" stroke="none" /><path d="M 113.20401910651253 116.32954008644616 l 3.9055036210228327 4.829974678376346 a27.211409979028847,27.211409979028847 0 0,0 -0.36676122415049606,0.29137729792314637 l -3.8217849041549856 -4.896485890304619" fill="#ff4b07" stroke="none" /><path d="M 112.92097659922987 116.55440617244103 l 6.71546805118704 8.603884149440168 a31.91440944822493,31.91440944822493 0 0,0 -0.43596796275197824,0.33428164321058623 l -6.566371359941567 -8.718205134478126" fill="#ff8b0c" stroke="none" /><path d="M 111.7513745106137 117.40417183066458 l 7.534719449254949 11.15916711464207 a34.46473200147295,34.46473200147295 0 0,0 -0.4945283691995351,0.32774643729769115 l -7.34151638131545 -11.287211573031081" fill="#ffad10" stroke="none" /><path d="M 111.1453310114006 117.79835938074945 l 5.675375691350719 9.063201090403107 a31.693526230531194,31.693526230531194 0 0,0 -0.4648697764997418,0.2855609852235153 l -5.518526714918668 -9.159550542455" fill="#ff880c" stroke="none" /><line stroke="#e1ed5e" stroke-width="0.3" x1="143.8653032363475" x2="146.44561519142675" y1="172.8068346515853" y2="177.08958963109032" /><path d="M 144.38136562736335 173.6633856474863 a86.0,86.0 0 0,1 -40.68145358897372,12.25698825130547" fill="none" id="id42" stroke="none" /><text fill="#e1ed5e" style="font-size:6.75px; font-family:Arial;" text-anchor="middle"><textPath startOffset="21.466115282336833" xlink:href="#id42">June</textPath></text><path d="M 110.8373102113329 117.98757091392108 l 6.209574460004588 10.306539055032552 a33.03260413490166,33.03260413490166 0 0,0 -0.4895622719229577,0.2892420194848148 l -6.031244317053249 -10.411899646811115" fill="#ff9a0e" stroke="none" /><path d="M 109.89434966115114 118.52300852407294 l 2.8650149381059156 5.363535546808032 a27.080774963558788,27.080774963558788 0 0,0 -0.4130580279743138,0.21609243790813867 l -2.772266007605106 -5.412057403660888" fill="#ff4a06" stroke="none" /><path d="M 109.57404056367764 118.69057910512821 l 0.4205663032935467 0.8210355605219944 a21.922483282833714,21.922483282833714 0 0,0 -0.33734118127322493,0.16914987137844179 l -0.40637121433756135 -0.8281532728097383" fill="#ff0000" stroke="none" /><path d="M 109.2508944713604 118.85261126421891 l 3.495234645135785 7.123019319480461 a28.934360052975247,28.934360052975247 0 0,0 -0.4490162571802261,0.21555509011952098 l -3.3721057199553264 -7.182128686099542" fill="#ff6309" stroke="none" /><path d="M 107.93186726928326 119.44442032107085 l 2.3386607201916956 5.733063916473566 a27.19171671142493,27.19171671142493 0 0,0 -0.43491069283846706,0.1730599402141987 l -2.2396289513113623 -5.772470701093833" fill="#ff4b07" stroke="none" /><path d="M 106.91757812671514 119.82793768551818 l 4.666353403017682 13.375225085831607 a35.16585684589936,35.16585684589936 0 0,0 -0.5732541507403798,0.19447893225004495 l -4.435429519340076 -13.453567004979776" fill="#ffb610" stroke="none" /><path d="M 106.2309692047433 120.05430185196036 l 4.267082435930638 13.733555147762381 a35.3811866517217,35.3811866517217 0 0,0 -0.5831578159124574,0.17570066621791555 l -4.030049645577934 -13.804971183086023" fill="#ffb911" stroke="none" /><path d="M 105.88484417918355 120.15858648285463 l 2.3460294052442676 8.036344755605379 a29.37177944055007,29.37177944055007 0 0,0 -0.48654888593682427,0.13750357517120743 l -2.2073493512028373 -8.075537124115106" fill="#ff6909" stroke="none" /><path d="M 105.53697534728816 120.25689768951611 l 1.6323467959335982 5.971903424715661 a27.190976221592628,27.190976221592628 0 0,0 -0.4525479075586639,0.11952201553016895 l -1.529308445563437 -5.999116789549414" fill="#ff4b07" stroke="none" /><path d="M 105.18746579009965 120.34920634021253 l 6.128531519651734 24.040785520726025 a45.80964060684707,45.80964060684707 0 0,0 -0.7657773267679846,0.18820943564977535 l -5.713800908140538 -24.14271621468983" fill="#c6ff1e" stroke="none" /><path d="M 104.48393922423573 120.51570834832081 l 1.5264289685796943 6.983986617068127 a28.148849869979504,28.148849869979504 0 0,0 -0.47425254452101384,0.09938423177549804 l -1.4059849626293024 -7.009226829570166" fill="#ff5808" stroke="none" /><path d="M 104.13013068566511 120.58985236759428 l 2.7868293228799743 13.893120750618811 a35.169870213454274,35.169870213454274 0 0,0 -0.5945925198612492,0.11395507157353277 l -2.547269188447021 -13.939033020540812" fill="#ffb610" stroke="none" /><path d="M 102.70371172650421 120.8252237178851 l 3.438502901771641 26.484921259182194 a47.707196713818036,47.707196713818036 0 0,0 -0.8152764106515523,0.09871861948545899 l -2.9820990680687087 -26.540185407393004" fill="#b1ff20" stroke="none" /><line stroke="#e1ed5e" stroke-width="0.3" x1="102.19456741930631" x2="102.32365962044197" y1="184.97166512339345" y2="189.96999836594603" /><path d="M 102.22038585953345 185.97133177190398 a86.0,86.0 0 0,1 -42.740103519485714,-10.115201625700543" fill="none" id="id43" stroke="none" /><text fill="#e1ed5e" style="font-size:6.75px; font-family:Arial;" text-anchor="middle"><textPath startOffset="22.20632615414155" xlink:href="#id43">July</textPath></text><path d="M 99.45781275523022 120.99299961872073 l -0.15122512592912293 5.85530006763453 a26.85725259151022,26.85725259151022 0 0,0 -0.46204660815457593,-0.015913819415117943 l 0.2519920857583419 -5.851829449793318" fill="#ff4606" stroke="none" /><path d="M 99.09653310690486 120.98055641714683 l -0.5270705078525201 12.239776144901382 a33.25111927121538,33.25111927121538 0 0,0 -0.5716214664530918,-0.02954630052256912 l 0.7376800427191007 -12.228890037616612" fill="#ff9d0e" stroke="none" /><path d="M 97.65516085044442 120.86867818915974 l -1.035752346210755 9.218023505295045 a30.27603041536912,30.27603041536912 0 0,0 -0.5173922407113348,-0.06264899495214904 l 1.1942720099734792 -9.198828981617547" fill="#ff750a" stroke="none" /><path d="M 97.2962882734958 120.8252237178851 l -0.7698963569791831 5.930093699155815 a26.979862179118957,26.979862179118957 0 0,0 -0.46003415524105995,-0.06375654207563874 l 0.8718591034070742 -5.915962591587571" fill="#ff4806" stroke="none" /><path d="M 96.22490169976321 120.6578951692458 l -0.7004523532257088 3.8329786758349025 a24.89645467425768,24.89645467425768 0 0,0 -0.42090703293854176,-0.08066783462985089 l 0.7663270007359455 -3.820353642856584" fill="#ff2b04" stroke="none" /><path d="M 95.51606077576429 120.51570834832081 l -6.615801651759332 30.269780741947578 a51.984325999785796,51.984325999785796 0 0,0 -0.8725441648722487,-0.1985882111650096 l 7.1358659660244435 -30.151415797204884" fill="#82ff25" stroke="none" /><path d="M 94.46302465271185 120.25689768951611 l -1.108001156330292 4.053596892866972 a25.20229869622449,25.20229869622449 0 0,0 -0.41748067659686783,-0.11798420930803996 l 1.1776130010317738 -4.033923890220411" fill="#ff2f04" stroke="none" /><path d="M 93.08242187328487 119.8279376855182 l -1.5493968077350186 4.441054772517483 a25.70357289305904,25.70357289305904 0 0,0 -0.4164963370207609,-0.1493407682257533 l 1.6256127053855063 -4.4137264632517725" fill="#ff3605" stroke="none" /><path d="M 92.7421414339146 119.70592522655815 l -4.0910147856450045 11.107578183373999 a32.83700532550915,32.83700532550915 0 0,0 -0.5287223505527535,-0.19991755200591188 l 4.281607356958041 -11.035512381261453" fill="#ff980e" stroke="none" /><path d="M 91.40352486487194 119.15986991738527 l -5.895724587218611 13.140422601612737 a35.402439882093205,35.402439882093205 0 0,0 -0.553849263294644,-0.2542450321876325 l 6.121041846280675 -13.036990499091031" fill="#ffb911" stroke="none" /><path d="M 90.7491055286396 118.85261126421891 l -1.5847268963131504 3.2295515021425296 a24.59741049101842,24.59741049101842 0 0,0 -0.3785027181569368,-0.1897891204714237 l 1.6400835221528478 -3.201794540761804" fill="#ff2703" stroke="none" /><path d="M 90.42595943632237 118.69057910512821 l -3.3233570996306283 6.4879053260847686 a28.28955540015332,28.28955540015332 0 0,0 -0.43149533134046725,-0.2257379636285389 l 3.434543333497591 -6.429737943511513" fill="#ff5a08" stroke="none" /><path d="M 90.10565033884886 118.52300852407294 l -5.657749005477094 10.591755561964323 a33.00813931020869,33.00813931020869 0 0,0 -0.498858592367725,-0.2720174797927414 l 5.839230409713459 -10.492797430411816" fill="#ff9a0e" stroke="none" /><line stroke="#e1ed5e" stroke-width="0.3" x1="58.666819895761336" x2="56.23545636021788" y1="174.27360380694188" y2="178.64263932499728" /><path d="M 58.180547188652646 175.14741091055294 a86.0,86.0 0 0,1 -31.652253787137756,-30.449443065178592" fill="none" id="id44" stroke="none" /><text fill="#e1ed5e" style="font-size:6.75px; font-family:Arial;" text-anchor="middle"><textPath startOffset="22.20632615414155" xlink:href="#id44">August</textPath></text><path d="M 89.7882731507175 118.34994917583269 l -5.797861863542229 10.418460275597152 a32.923066581333565,32.923066581333565 0 0,0 -0.4928288845989238,-0.2798411027190739 l 5.976339515062359 -10.317116007083445" fill="#ff990e" stroke="none" /><path d="M 89.4739219176387 118.17145234162733 l -15.949367582145738 27.533823198947992 a52.81970688459163,52.81970688459163 0 0,0 -0.7828185631118227,-0.4625030053792561 l 16.420954016285943 -27.255201621274985" fill="#79ff26" stroke="none" /><path d="M 89.1626897886671 117.98757091392108 l -8.742762834650996 14.511079170496178 a37.94129040762134,37.94129040762134 0 0,0 -0.556509839378864,-0.3418537965969421 l 8.991251873962169 -14.358436907070857" fill="#ffd914" stroke="none" /><path d="M 88.8546689885994 117.79835938074946 l -10.07530034586653 16.089590900556555 a39.98385135863349,39.98385135863349 0 0,0 -0.5801812920584032,-0.370299150919426 l 10.350763439971857 -15.913777320813324" fill="#fff316" stroke="none" /><path d="M 88.54995079064634 117.60387380957326 l -9.788694155445825 15.049624112724889 a38.952986358908916,38.952986358908916 0 0,0 -0.5589295404560185,-0.3704280219179519 l 10.046298394641804 -14.87889806971562" fill="#ffe615" stroke="none" /><path d="M 88.24862548938628 117.40417183066458 l -9.03677612720994 13.383762416146126 a37.148944831943574,37.148944831943574 0 0,0 -0.5268836886532597,-0.3623954054376841 l 9.26581670048609 -13.226226221343342" fill="#ffcf13" stroke="none" /><path d="M 85.44109423537348 115.13401014063109 l -9.060684729014087 9.418598951517982 a34.06927748454844,34.06927748454844 0 0,0 -0.4191333076502557,-0.41021015740335653 l 9.221467989040136 -9.261238691192057" fill="#ffa80f" stroke="none" /><path d="M 85.18274418774928 114.88116024355367 l -2.1074205830240427 2.116509547646149 a23.986776553247783,23.986776553247783 0 0,0 -0.2900793704950189,-0.29384887081355715 l 2.1435405785745947 -2.0799201828519274" fill="#ff1e03" stroke="none" /><path d="M 84.9287848128048 114.62390073753433 l -14.135886988601728 13.71633312846264 a40.69672803908003,40.69672803908003 0 0,0 -0.48350319171727396,-0.5069511634952742 l 14.36989673169796 -13.470974848384866" fill="#fffb17" stroke="none" /><path d="M 84.67929136418377 114.36230785411682 l -11.846925804100662 11.105830648433923 a37.238507486821575,37.238507486821575 0 0,0 -0.4343669604654707,-0.47141954706867945 l 12.036339172561862 -10.9002598465639" fill="#ffd013" stroke="none" /><path d="M 84.43433777217949 114.09645910891817 l -8.610648871447204 7.797911707262029 a32.616828352937354,32.616828352937354 0 0,0 -0.37329362129369803,-0.41939934078198243 l 8.74360134238924 -7.648538196739183" fill="#ff950d" stroke="none" /><path d="M 83.06392112726016 112.41649034213515 l -20.821176765452893 15.264804926968992 a46.817352136821704,46.817352136821704 0 0,0 -0.4708938494649418,-0.6540303713668493 l 21.080850407293443 -14.904140950151005" fill="#bbff1f" stroke="none" /><path d="M 82.44556493220864 111.52570212397912 l -5.134380931568062 3.371076595729911 a27.142151493143725,27.142151493143725 0 0,0 -0.2530619647543333,-0.39275778906791375 l 5.191647759699442 -3.282197206740549" fill="#ff4a06" stroke="none" /><line stroke="#e1ed5e" stroke-width="0.3" x1="26.63291911575756" x2="22.317208475507996" y1="142.92168965132927" y2="145.44649492493687" /><path d="M 25.769776987707644 143.4266507060508 a86.0,86.0 0 0,1 -11.730757126820373,-40.83630448921669" fill="none" id="id45" stroke="none" /><text fill="#e1ed5e" style="font-size:6.75px; font-family:Arial;" text-anchor="middle"><textPath startOffset="21.46611528233685" xlink:href="#id45">September</textPath></text><path d="M 81.69416730710424 110.29060199501025 l -11.410140775435288 6.414197015610777 a34.089432221082824,34.089432221082824 0 0,0 -0.28314291275049663,-0.5139866310606676 l 11.518860097637301 -6.216839866152287" fill="#ffa80f" stroke="none" /><path d="M 81.18737489456691 109.33194174019688 l -5.67172928110608 2.8134429363696296 a27.331190582691715,27.331190582691715 0 0,0 -0.20543521077715948,-0.4232573821004262 l 5.719317748497959 -2.715396598303919" fill="#ff4d07" stroke="none" /><path d="M 80.73074385275274 108.34839909993369 l -11.858329211758734 5.137617361130284 a33.923431581582264,33.923431581582264 0 0,0 -0.22752771680265624,-0.5378083119204706 l 11.945007909753697 -4.9327345235436555" fill="#ffa60f" stroke="none" /><path d="M 80.45479744820244 107.68017299344265 l -4.824540043899242 1.8957747842592614 a26.183642413189837,26.183642413189837 0 0,0 -0.16122355929064106,-0.4209038387219368 l 4.856457882783393 -1.8124473787041666" fill="#ff3d05" stroke="none" /><path d="M 80.20201598880116 107.00284435728193 l -6.256546878095929 2.213034618906679 a27.63640724053997,27.63640724053997 0 0,0 -0.15477594720354526,-0.4498513515884363 l 6.293713656242702 -2.105010564228946" fill="#ff5107" stroke="none" /><path d="M 79.97269907076064 106.31721596034903 l -3.0332565953248234 0.9567807985470611 a24.180577788633677,24.180577788633677 0 0,0 -0.12179322644620767,-0.39802731093512916 l 3.0492765942771616 -0.9044265150598841" fill="#ff2103" stroke="none" /><path d="M 79.67330655649465 105.27499134158121 l -25.203425539830405 6.5405547572357765 a47.038270208947736,47.038270208947736 0 0,0 -0.1966394247370202,-0.7854767545324285 l 25.312276278862484 -6.105750163305956" fill="#b8ff1f" stroke="none" /><path d="M 79.4281124754447 104.21870165774334 l -6.209761349761414 1.2734432107486118 a27.338989953611886,27.338989953611886 0 0,0 -0.09057025540239812,-0.46181578104147175 l 6.230761538139478 -1.166363702639185" fill="#ff4d07" stroke="none" /><path d="M 79.23777060512086 103.15116336523772 l -12.471908544557914 1.8929095018042497 a33.61473777475527,33.61473777475527 0 0,0 -0.08190142657493,-0.5728183867089356 l 12.502644022149443 -1.6779456431149136" fill="#ffa20f" stroke="none" /><path d="M 79.10278846688536 102.07522291339032 l -11.886023020419035 1.1803559188732557 a32.94448757114136,32.94448757114136 0 0,0 -0.05118224797396955,-0.5647918414448253 l 11.904579864670081 -0.9755826888798642" fill="#ff990e" stroke="none" /><line stroke="#e1ed5e" stroke-width="0.3" x1="15.007084014347285" x2="10.007500721073583" y1="101.09737516637583" y2="101.16192664675087" /><path d="M 14.007167355692545 101.11028546245083 a86.0,86.0 0 0,1 10.666146001902534,-42.60595125391555" fill="none" id="id46" stroke="none" /><text fill="#e1ed5e" style="font-size:6.75px; font-family:Arial;" text-anchor="middle"><textPath startOffset="22.20632615414155" xlink:href="#id46">October</textPath></text><path d="M 79.00175016825051 100.2711162175752 l -6.048278242985566 0.07809157111757388 a27.048782356644367,27.048782356644367 0 0,0 -0.002003803048946415,-0.4656132594313615 l 6.048726343324016 0.026031166517462984" fill="#ff4906" stroke="none" /><path d="M 79.00486145842228 99.54816195383935 l -1.493586771044731 -0.03214359967493358 a22.49393261348693,22.49393261348693 0 0,0 0.011662895770941718,-0.3870347311934925 l 1.4928121808181443 0.05784847829342049" fill="#ff0801" stroke="none" /><path d="M 79.08570108090925 98.10471618934814 l -4.867927099270955 -0.44113854633013844 a25.887874534076627,25.887874534076627 0 0,0 0.04403758515881201,-0.443452472760048 l 4.859612388429914 0.5248665497946168" fill="#ff3905" stroke="none" /><path d="M 79.12142395522702 97.74499172005258 l -28.39434547282435 -3.066755319309074 a49.55947903969208,49.55947903969208 0 0,0 0.09890572723235855,-0.8473638702171051 l 28.337349392588404 3.555062927851041" fill="#9cff22" stroke="none" /><path d="M 79.16333360222342 97.38593545837743 l -4.486098750222912 -0.5628036389941127 a25.521264196307996,25.521264196307996 0 0,0 0.058436404364787836,-0.4354190880409084 l 4.475746346800291 0.6399410690996804" fill="#ff3404" stroke="none" /><path d="M 79.21141760316559 97.0276538004421 l -8.699326328241185 -1.2438274557094926 a29.787797522975083,29.787797522975083 0 0,0 0.07694345062117856,-0.5069612035521874 l 8.676626984180704 1.393387771653772" fill="#ff6f0a" stroke="none" /><path d="M 79.3925641242962 95.95851677861259 l -6.078227004687405 -1.1920479871147016 a27.194015008384742,27.194015008384742 0 0,0 0.09404040556224308,-0.4585744152917539 l 6.056807303210167 1.296498058569858" fill="#ff4b07" stroke="none" /><path d="M 80.02781315780177 93.51064311812611 l -14.14711979495403 -4.596677866346996 a35.87516204616758,35.87516204616758 0 0,0 0.19588300793284638,-0.5856652612593575 l 14.065899493249411 4.839516230528676" fill="#ffbf11" stroke="none" /><path d="M 80.14247586403 93.16781622104843 l -5.755480674421045 -1.9802318473640814 a27.08661449107376,27.08661449107376 0 0,0 0.15548609181863382,-0.4395801195535852 l 5.720541501792602 2.079009593344278" fill="#ff4a06" stroke="none" /><path d="M 80.52162464483688 92.15188598940014 l -8.160852554207974 -3.2881233727813033 a29.798367446643354,29.798367446643354 0 0,0 0.19578707018252522,-0.4741139201380846 l 8.103043797139248 3.428111863372699" fill="#ff6f0a" stroke="none" /><path d="M 80.95270993114464 91.15688171328213 l -7.800997112625906 -3.6217824148168236 a29.600747863498505,29.600747863498505 0 0,0 0.21854063868532014,-0.46030231988274994 l 7.737498280098834 3.755527150340106" fill="#ff6c0a" stroke="none" /><path d="M 81.10775173730289 90.83032412892265 l -23.44187463583522 -11.377914858628404 a47.0572146050266,47.0572146050266 0 0,0 0.3599652545047594,-0.7256679877040234 l 23.242549368377045 11.77974243483139" fill="#b8ff1f" stroke="none" /><path d="M 81.6062741919709 89.86733742301443 l -2.259659960544223 -1.2447924992403965 a23.57983943365704,23.57983943365704 0 0,0 0.19890420834398875,-0.3538283923159697 l 2.2378981109078033 1.2835044014911507" fill="#ff1802" stroke="none" /><line stroke="#e1ed5e" stroke-width="0.3" x1="26.266209847984243" x2="21.928928074336255" y1="57.711370442889674" y2="55.22380399835377" /><path d="M 25.398753493254645 57.213857153982495 a86.0,86.0 0 0,1 29.58750427330803,-30.492523968695096" fill="none" id="id47" stroke="none" /><text fill="#e1ed5e" style="font-size:6.75px; font-family:Arial;" text-anchor="middle"><textPath startOffset="21.46611528233685" xlink:href="#id47">November</textPath></text><path d="M 81.78341655067845 89.55222093294921 l -10.65041530910855 -6.108345532051225 a33.27775351582788,33.27775351582788 0 0,0 0.28926342665121474,-0.4944449622643314 l 10.54369220798701 6.290769906669449" fill="#ff9d0e" stroke="none" /><path d="M 82.34701348167596 88.62581576622439 l -10.405486853195717 -6.704470339198698 a33.378371426856766,33.378371426856766 0 0,0 0.31535148558863996,-0.48030194757333805 l 10.288538732249156 6.8825903507497035" fill="#ff9f0e" stroke="none" /><path d="M 82.54541684631803 88.32363383020206 l -21.89170145208627 -14.644607664579809 a47.338396422651584,47.338396422651584 0 0,0 0.45890187362506124,-0.6733818740277695 l 21.636375112792468 15.019267561877992" fill="#b5ff20" stroke="none" /><path d="M 84.07557802195018 86.31012108654704 l -19.016432307739805 -16.348012883461312 a46.077524258839176,46.077524258839176 0 0,0 0.522229794275858,-0.5969989314053168 l 18.732210649886106 16.672927371069573" fill="#c3ff1e" stroke="none" /><path d="M 84.5562425177563 85.77008943001954 l -2.8535043014894748 -2.6292248546336663 a24.88011728364522,24.88011728364522 0 0,0 0.29291323932022634,-0.3124594209218218 l 2.8078237401987924 2.677953692433538" fill="#ff2b04" stroke="none" /><path d="M 84.80347519578584 85.50635884689758 l -5.434412573645272 -5.183055121818384 a28.50978697543423,28.50978697543423 0 0,0 0.34175867694896106,-0.35221235803173273 l 5.344389632993193 5.275831675400241" fill="#ff5d08" stroke="none" /><path d="M 86.10567301691215 84.25364557470407 l -6.4680135186764645 -7.330159526017626 a30.77580879286458,30.77580879286458 0 0,0 0.40024115395202253,-0.34708518466536836 l 6.340878566077668 7.440409704102675" fill="#ff7c0b" stroke="none" /><path d="M 86.65592168130627 83.78471172551755 l -4.724352686982277 -5.740879130065125 a28.43486391919946,28.43486391919946 0 0,0 0.3806163623794227,-0.3077652949503857 l 4.624832926038354 5.821350522279645" fill="#ff5c08" stroke="none" /><path d="M 86.93701828274178 83.55741782278169 l -4.390006084331795 -5.52577025387312 a28.057357176667423,28.057357176667423 0 0,0 0.38073492302925077,-0.297169646541608 l 4.294238606143119 5.60051828963795" fill="#ff5708" stroke="none" /><path d="M 87.22198572758235 83.33499621200491 l -2.208631966955463 -2.8804835642616498 a24.62977144314061,24.62977144314061 0 0,0 0.3386638683932677,-0.2550746044355017 l 2.1587219448038053 2.918074758203006" fill="#ff2703" stroke="none" /><path d="M 87.51073957382395 83.11751280151077 l -2.9587352263515547 -3.9995010015091177 a25.974949487253717,25.974949487253717 0 0,0 0.361737887381966,-0.2628179591738129 l 2.8894520226158074 4.049838195499598" fill="#ff3a05" stroke="none" /><path d="M 87.80319425747018 82.90503203632743 l -14.654336316006788 -20.539427710771946 a46.23128343046905,46.23128343046905 0 0,0 0.6517925428973229,-0.4566223296169273 l 14.298612633525805 20.788634883152817" fill="#c1ff1e" stroke="none" /><path d="M 88.70189139769569 82.29822771554957 l -1.584297648796041 -2.4822629341744706 a23.94476286216006,23.94476286216006 0 0,0 0.349343654378774,-0.21875896432314082 l 1.5413348420450248 2.5091662398205417" fill="#ff1d03" stroke="none" /><line stroke="#e1ed5e" stroke-width="0.3" x1="56.762969772571076" x2="54.21961505331055" y1="26.818313649435495" y2="22.513508569990535" /><path d="M 56.25429882871897 25.957352633546506 a86.0,86.0 0 0,1 42.265352541879196,-11.944610805530505" fill="none" id="id48" stroke="none" /><text fill="#e1ed5e" style="font-size:6.75px; font-family:Arial;" text-anchor="middle"><textPath startOffset="22.20632615414155" xlink:href="#id48">December</textPath></text><path d="M 89.63071344664047 81.73862282372117 l -6.323747644334602 -11.136768215107784 a33.8069274436245,33.8069274436245 0 0,0 0.5085140000919119,-0.2829874904947247 l 6.131109555170644 11.243971103162693" fill="#ffa40f" stroke="none" /><path d="M 89.94658935756843 81.56283822128135 l -3.0086372686837213 -5.517603331757224 a27.28457196164791,27.28457196164791 0 0,0 0.41427718682506426,-0.2212925258744063 l 2.9132150353303516 5.568574584133379" fill="#ff4c07" stroke="none" /><path d="M 90.91171255644093 81.06846463323043 l -1.9102720501774169 -3.9792296516452192 a25.414001350953754,25.414001350953754 0 0,0 0.39600071333777404,-0.18592764470193573 l 1.8414931255400344 4.0115222789871625" fill="#ff3204" stroke="none" /><path d="M 92.23578459929587 80.48803036053334 l -9.949313453067088 -25.00326073026986 a47.910070333115755,47.910070333115755 0 0,0 0.7688809651575987,-0.29831386919865344 l 9.517449322909814 25.170817303359065" fill="#aeff20" stroke="none" /><path d="M 93.25333710446033 80.11325718540243 l -3.5423035500910096 -10.441440570340067 a32.02595100773311,32.02595100773311 0 0,0 0.5235742435703714,-0.1726141962676927 l 3.362046484278229 10.500868490866992" fill="#ff8d0d" stroke="none" /><path d="M 93.59665428221793 80.00007090966166 l -1.705010591309586 -5.325355279470807 a26.591642868519543,26.591642868519543 0 0,0 0.4371344800888277,-0.13581981082521266 l 1.6130907385100295 5.353915225178545" fill="#ff4306" stroke="none" /><path d="M 94.63758080256005 79.69619591428918 l -7.7859576761642 -29.480082301649357 a51.49092306649702,51.49092306649702 0 0,0 0.8588958411237352,-0.21895167401608356 l 7.277352946355466 29.609736971834305" fill="#87ff25" stroke="none" /><path d="M 95.692805502759 79.44645832069477 l -1.3931860948923 -6.648157747865717 a27.79256718299556,27.79256718299556 0 0,0 0.4690771131807119,-0.09409245605568219 l 1.2785425722444517 6.6711541599986095" fill="#ff5307" stroke="none" /><path d="M 97.11714578562143 79.19881850522333 l -3.6664604505892884 -26.45527786168979 a47.708138440837644,47.708138440837644 0 0,0 0.8144126172070661,-0.10573413151209965 l 3.210533104874364 26.514470316366026" fill="#b1ff20" stroke="none" /><path d="M 99.63851952072746 79.00311137660856 l -0.22044970098680147 -12.80500077900453 a33.80689825917938,33.80689825917938 0 0,0 0.5819301802593341,-0.005008856783406679 l 3.1367853920219667e-15 12.806898259179377" fill="#ffa40f" stroke="none" /></svg>